<?xml version="1.0" encoding="utf-8"?>
<!-- Generator: Adobe Illustrator 15.0.0, SVG Export Plug-In . SVG Version: 6.00 Build 0)  -->
<!DOCTYPE svg PUBLIC "-//W3C//DTD SVG 1.1//EN" "http://www.w3.org/Graphics/SVG/1.1/DTD/svg11.dtd">
<svg version="1.1" id="Layer_1" xmlns="http://www.w3.org/2000/svg" xmlns:xlink="http://www.w3.org/1999/xlink" x="0px" y="0px"
	 width="1008px" height="1296px" viewBox="0 0 1008 1296" enable-background="new 0 0 1008 1296" xml:space="preserve">
<rect fill="#FFFFFF" width="1008" height="1296"/>
<path d="M522.907,373.698l-13.305-33.985l-6.599-16.857l-0.938-2.395c-0.531,0.1-1.085,0.152-1.663,0.156l56.078,143.244
	c0.562-0.067,1.096-0.168,1.61-0.29l-11.235-28.701L522.907,373.698z"/>
<path d="M506.097,318.741l56.067,143.213c0.562-0.323,1.064-0.652,1.5-0.971l-56.132-143.38
	C507.115,317.983,506.636,318.372,506.097,318.741z"/>
<g>
	<path d="M135.662,103.582V69.358h5.184v34.224H135.662z"/>
	<path d="M174.685,103.534v-2.592c-0.864,1.056-1.8,1.8-2.808,2.232c-1.008,0.432-2.216,0.648-3.624,0.648
		c-1.216,0-2.336-0.185-3.36-0.552c-1.024-0.367-1.984-1-2.88-1.896c-0.896-0.896-1.529-2.232-1.896-4.008
		c-0.368-1.776-0.552-3.784-0.552-6.024c0-3.008,0.242-5.256,0.725-6.744s1.304-2.808,2.464-3.96s2.995-1.728,5.507-1.728
		c1.384,0,2.583,0.2,3.598,0.6c1.014,0.4,1.956,1.112,2.826,2.136V69.358h4.8v34.176H174.685z M169.597,83.278
		c-2.036,0-3.4,0.712-4.094,2.136c-0.694,1.424-1.042,3.4-1.042,5.928c0,2.592,0.348,4.592,1.042,6
		c0.694,1.408,2.059,2.112,4.094,2.112s3.392-0.704,4.07-2.112c0.678-1.408,1.018-3.408,1.018-6c0-2.56-0.34-4.543-1.018-5.952
		C172.989,83.982,171.633,83.278,169.597,83.278z"/>
	<path d="M187.117,74.446v-5.184h5.184v5.184H187.117z M187.261,103.582V79.246h4.896v24.336H187.261z"/>
	<path d="M213.901,103.534v-2.592c-0.864,1.056-1.8,1.8-2.808,2.232c-1.008,0.432-2.216,0.648-3.624,0.648
		c-1.216,0-2.336-0.185-3.36-0.552c-1.024-0.367-1.984-1-2.88-1.896c-0.896-0.896-1.529-2.232-1.896-4.008
		c-0.368-1.776-0.552-3.784-0.552-6.024c0-3.008,0.242-5.256,0.725-6.744s1.304-2.808,2.464-3.96s2.995-1.728,5.507-1.728
		c1.384,0,2.583,0.2,3.598,0.6c1.014,0.4,1.956,1.112,2.826,2.136V69.358h4.8v34.176H213.901z M208.813,83.278
		c-2.036,0-3.4,0.712-4.094,2.136c-0.694,1.424-1.042,3.4-1.042,5.928c0,2.592,0.348,4.592,1.042,6
		c0.694,1.408,2.059,2.112,4.094,2.112s3.392-0.704,4.07-2.112c0.678-1.408,1.018-3.408,1.018-6c0-2.56-0.34-4.543-1.018-5.952
		C212.205,83.982,210.849,83.278,208.813,83.278z"/>
	<path d="M241.309,103.582V88.715c0-1.829-0.453-3.191-1.358-4.09c-0.904-0.897-2.1-1.347-3.585-1.347
		c-1.487,0-2.707,0.458-3.659,1.372c-0.954,0.914-1.43,2.27-1.43,4.065v14.867h-4.8V79.198h4.8v2.448
		c1.696-1.824,3.856-2.736,6.48-2.736c1.248,0,2.376,0.185,3.384,0.554c1.008,0.369,1.92,0.954,2.736,1.755
		c0.816,0.802,1.408,1.764,1.776,2.886c0.368,1.122,0.552,2.421,0.552,3.896v15.582H241.309z"/>
	<path d="M253.597,78.778v-9.42h5.376v5.04L253.597,78.778z"/>
	<path d="M273.852,103.582c-2.145,0-3.792-0.657-4.944-1.972c-1.152-1.315-1.728-2.918-1.728-4.812V83.374h-2.784V79.63h2.784
		v-7.392h4.896v7.392h4.704v3.744h-4.704v13.192c0,1.894,0.896,2.84,2.688,2.84h2.016v4.176H273.852z"/>
	<path d="M304.139,103.822c-3.072,0-5.648-1.008-7.728-3.024c-2.08-2.016-3.12-5.167-3.12-9.456c0-4.255,1.04-7.392,3.12-9.408
		s4.656-3.024,7.728-3.024c1.728,0,3.2,0.256,4.416,0.768c1.216,0.512,2.416,1.392,3.6,2.64l-3.36,3.264
		c-1.409-1.536-2.96-2.304-4.656-2.304c-1.92,0-3.392,0.665-4.416,1.992c-1.024,1.329-1.536,3.353-1.536,6.072
		c0,2.752,0.511,4.792,1.536,6.12c1.024,1.328,2.496,1.992,4.416,1.992c0.992,0,1.808-0.16,2.448-0.48
		c0.64-0.319,1.375-0.928,2.208-1.824l3.36,3.216C309.979,102.67,307.307,103.822,304.139,103.822z"/>
	<path d="M332.555,103.582V88.619c0-1.764-0.449-3.096-1.344-3.994c-0.896-0.897-2.08-1.347-3.552-1.347
		c-1.44,0-2.625,0.449-3.552,1.347c-0.928,0.898-1.392,2.23-1.392,3.994v14.963h-4.896V69.358h4.896v12.288
		c1.696-1.824,3.792-2.736,6.288-2.736c2.656,0,4.728,0.81,6.216,2.429c1.488,1.619,2.232,3.792,2.232,6.516v15.727H332.555z"/>
	<path d="M361.259,100.942c-0.864,0.896-1.896,1.6-3.096,2.112s-2.6,0.768-4.2,0.768c-1.568,0-2.952-0.256-4.152-0.768
		c-1.2-0.512-2.288-1.279-3.264-2.304c-0.977-1.023-1.673-2.287-2.088-3.792c-0.416-1.503-0.624-3.375-0.624-5.616
		c0-2.176,0.208-4.032,0.624-5.568c0.416-1.536,1.112-2.808,2.088-3.816c0.976-1.008,2.056-1.768,3.24-2.28
		c1.184-0.512,2.576-0.768,4.176-0.768c1.568,0,2.96,0.256,4.176,0.768c1.216,0.512,2.312,1.28,3.288,2.304
		c0.976,1.024,1.671,2.288,2.088,3.792c0.416,1.504,0.624,3.36,0.624,5.568s-0.208,4.08-0.624,5.616
		C363.098,98.494,362.346,99.822,361.259,100.942z M357.562,84.67c-0.928-0.928-2.128-1.392-3.6-1.392c-1.44,0-2.56,0.4-3.36,1.2
		c-0.8,0.8-1.312,1.752-1.536,2.856c-0.224,1.104-0.336,2.441-0.336,4.008c0,1.696,0.104,3.056,0.312,4.08
		c0.208,1.024,0.728,1.952,1.56,2.784c0.832,0.833,1.952,1.248,3.36,1.248c1.44,0,2.568-0.408,3.384-1.224
		c0.816-0.816,1.336-1.776,1.56-2.88c0.224-1.104,0.336-2.439,0.336-4.008c0-1.696-0.104-3.056-0.312-4.08
		C358.722,86.238,358.266,85.375,357.562,84.67z"/>
	<path d="M387.034,100.942c-0.864,0.896-1.896,1.6-3.096,2.112s-2.6,0.768-4.2,0.768c-1.568,0-2.952-0.256-4.152-0.768
		c-1.2-0.512-2.288-1.279-3.264-2.304c-0.977-1.023-1.673-2.287-2.088-3.792c-0.416-1.503-0.624-3.375-0.624-5.616
		c0-2.176,0.208-4.032,0.624-5.568c0.416-1.536,1.112-2.808,2.088-3.816c0.976-1.008,2.056-1.768,3.24-2.28
		c1.184-0.512,2.576-0.768,4.176-0.768c1.568,0,2.96,0.256,4.176,0.768c1.216,0.512,2.312,1.28,3.288,2.304
		c0.976,1.024,1.671,2.288,2.088,3.792c0.416,1.504,0.624,3.36,0.624,5.568s-0.208,4.08-0.624,5.616
		C388.874,98.494,388.122,99.822,387.034,100.942z M383.338,84.67c-0.928-0.928-2.128-1.392-3.6-1.392c-1.44,0-2.56,0.4-3.36,1.2
		c-0.8,0.8-1.312,1.752-1.536,2.856c-0.224,1.104-0.336,2.441-0.336,4.008c0,1.696,0.104,3.056,0.312,4.08
		c0.208,1.024,0.728,1.952,1.56,2.784c0.832,0.833,1.952,1.248,3.36,1.248c1.44,0,2.568-0.408,3.384-1.224
		c0.816-0.816,1.336-1.776,1.56-2.88c0.224-1.104,0.336-2.439,0.336-4.008c0-1.696-0.104-3.056-0.312-4.08
		C384.498,86.238,384.042,85.375,383.338,84.67z"/>
	<path d="M404.409,103.822c-2.208,0-4.12-0.249-5.736-0.744c-1.616-0.496-3.112-1.416-4.488-2.76l3.216-3.216
		c0.896,0.929,1.952,1.584,3.168,1.968c1.216,0.384,2.496,0.576,3.84,0.576c1.567,0,2.848-0.28,3.84-0.84
		c0.992-0.56,1.488-1.399,1.488-2.52c0-0.896-0.257-1.6-0.768-2.112c-0.513-0.512-1.345-0.768-2.496-0.768l-3.888-0.336
		c-2.369-0.192-4.16-0.832-5.376-1.92c-1.217-1.088-1.824-2.688-1.824-4.8c0-2.335,0.856-4.159,2.568-5.472
		c1.711-1.312,3.912-1.968,6.599-1.968c1.889,0,3.584,0.216,5.089,0.648c1.504,0.432,2.815,1.128,3.936,2.088l-3.071,3.12
		c-0.705-0.607-1.593-1.056-2.664-1.344c-1.073-0.288-2.185-0.432-3.336-0.432c-1.44,0-2.537,0.28-3.289,0.84
		c-0.752,0.561-1.128,1.32-1.128,2.28c0,0.8,0.248,1.432,0.744,1.896c0.496,0.464,1.368,0.76,2.616,0.888l3.84,0.336
		c2.368,0.192,4.168,0.849,5.4,1.968c1.231,1.121,1.848,2.752,1.848,4.896c0,2.464-0.936,4.368-2.808,5.712
		C409.857,103.15,407.417,103.822,404.409,103.822z"/>
	<path d="M424.138,92.782c0,2.144,0.535,3.816,1.607,5.016c1.072,1.2,2.6,1.8,4.584,1.8c1.345,0,2.432-0.184,3.265-0.552
		c0.832-0.368,1.711-1.016,2.64-1.944l3.12,2.928c-1.312,1.312-2.648,2.272-4.008,2.88c-1.36,0.608-3.064,0.912-5.112,0.912
		c-3.359,0-6.032-0.976-8.016-2.928c-1.984-1.951-2.977-5.136-2.977-9.552c0-3.904,0.928-6.952,2.784-9.144
		c1.855-2.191,4.368-3.288,7.536-3.288c3.199,0,5.72,1.08,7.56,3.24c1.84,2.16,2.761,4.984,2.761,8.472v2.16H424.138z
		 M434.364,86.062c-0.382-0.928-0.996-1.671-1.84-2.232c-0.845-0.56-1.824-0.84-2.938-0.84c-1.147,0-2.136,0.272-2.964,0.816
		c-0.828,0.544-1.449,1.296-1.863,2.256s-0.621,2.064-0.621,3.312h10.896C435.033,88.191,434.811,87.087,434.364,86.062z"/>
	<path d="M465.128,103.582c-2.144,0-3.792-0.657-4.943-1.972c-1.152-1.315-1.729-2.918-1.729-4.812V83.374h-2.784V79.63h2.784
		v-7.392h4.896v7.392h4.704v3.744h-4.704v13.192c0,1.894,0.896,2.84,2.688,2.84h2.017v4.176H465.128z"/>
	<path d="M489.032,103.582V88.619c0-1.764-0.448-3.096-1.344-3.994c-0.896-0.897-2.081-1.347-3.553-1.347
		c-1.439,0-2.624,0.449-3.552,1.347c-0.929,0.898-1.392,2.23-1.392,3.994v14.963h-4.896V69.358h4.896v12.288
		c1.695-1.824,3.792-2.736,6.288-2.736c2.655,0,4.728,0.81,6.216,2.429s2.231,3.792,2.231,6.516v15.727H489.032z"/>
	<path d="M505.112,92.782c0,2.144,0.535,3.816,1.607,5.016c1.072,1.2,2.6,1.8,4.584,1.8c1.345,0,2.432-0.184,3.265-0.552
		c0.832-0.368,1.711-1.016,2.64-1.944l3.12,2.928c-1.312,1.312-2.648,2.272-4.008,2.88c-1.36,0.608-3.064,0.912-5.112,0.912
		c-3.359,0-6.032-0.976-8.016-2.928c-1.984-1.951-2.977-5.136-2.977-9.552c0-3.904,0.928-6.952,2.784-9.144
		c1.855-2.191,4.368-3.288,7.536-3.288c3.199,0,5.72,1.08,7.56,3.24c1.84,2.16,2.761,4.984,2.761,8.472v2.16H505.112z
		 M515.339,86.062c-0.382-0.928-0.996-1.671-1.84-2.232c-0.845-0.56-1.824-0.84-2.938-0.84c-1.147,0-2.136,0.272-2.964,0.816
		c-0.828,0.544-1.449,1.296-1.863,2.256s-0.621,2.064-0.621,3.312h10.896C516.008,88.191,515.785,87.087,515.339,86.062z"/>
	<path d="M548.455,103.822c-3.072,0-5.648-1.008-7.729-3.024c-2.08-2.016-3.12-5.167-3.12-9.456c0-4.255,1.04-7.392,3.12-9.408
		s4.656-3.024,7.729-3.024c1.728,0,3.199,0.256,4.416,0.768c1.216,0.512,2.415,1.392,3.6,2.64l-3.36,3.264
		c-1.408-1.536-2.96-2.304-4.655-2.304c-1.92,0-3.393,0.665-4.416,1.992c-1.024,1.329-1.536,3.353-1.536,6.072
		c0,2.752,0.512,4.792,1.536,6.12c1.023,1.328,2.496,1.992,4.416,1.992c0.991,0,1.808-0.16,2.447-0.48
		c0.641-0.319,1.376-0.928,2.208-1.824l3.36,3.216C554.294,102.67,551.623,103.822,548.455,103.822z"/>
	<path d="M575.43,84.91c-0.544-0.544-1.096-0.952-1.655-1.224c-0.561-0.271-1.225-0.408-1.992-0.408
		c-1.376,0-2.528,0.497-3.456,1.492c-0.929,0.995-1.392,2.325-1.392,3.993v14.819h-4.801V79.198h4.801v2.64
		c0.575-0.864,1.447-1.568,2.615-2.112c1.168-0.543,2.424-0.816,3.769-0.816c1.279,0,2.344,0.161,3.191,0.48
		c0.848,0.32,1.72,0.929,2.616,1.824L575.43,84.91z"/>
	<path d="M586.854,92.782c0,2.144,0.535,3.816,1.607,5.016c1.072,1.2,2.6,1.8,4.584,1.8c1.345,0,2.432-0.184,3.265-0.552
		c0.832-0.368,1.711-1.016,2.64-1.944l3.12,2.928c-1.312,1.312-2.648,2.272-4.008,2.88c-1.36,0.608-3.064,0.912-5.112,0.912
		c-3.359,0-6.032-0.976-8.016-2.928c-1.984-1.951-2.977-5.136-2.977-9.552c0-3.904,0.928-6.952,2.784-9.144
		c1.855-2.191,4.368-3.288,7.536-3.288c3.199,0,5.72,1.08,7.56,3.24c1.84,2.16,2.761,4.984,2.761,8.472v2.16H586.854z
		 M597.081,86.062c-0.382-0.928-0.996-1.671-1.84-2.232c-0.845-0.56-1.824-0.84-2.938-0.84c-1.147,0-2.136,0.272-2.964,0.816
		c-0.828,0.544-1.449,1.296-1.863,2.256s-0.621,2.064-0.621,3.312h10.896C597.75,88.191,597.527,87.087,597.081,86.062z"/>
	<path d="M622.182,103.582v-2.208c-0.929,0.911-1.856,1.546-2.784,1.907c-0.929,0.361-2.16,0.542-3.696,0.542
		c-2.88,0-5.008-0.704-6.384-2.112c-1.376-1.408-2.063-3.184-2.063-5.328c0-2.112,0.724-3.808,2.173-5.088
		c1.449-1.279,3.543-1.92,6.28-1.92h6.475v-1.728c0-1.567-0.42-2.719-1.26-3.456c-0.84-0.735-2.211-1.104-4.116-1.104
		c-1.325,0-2.382,0.168-3.173,0.504s-1.525,0.952-2.203,1.848l-3.216-3.024c1.119-1.279,2.344-2.184,3.672-2.712
		c1.327-0.528,3.016-0.792,5.063-0.792c6.688,0,10.032,2.79,10.032,8.369v16.303H622.182z M622.182,92.782h-5.767
		c-2.94,0-4.409,1.168-4.409,3.504c0,2.304,1.502,3.456,4.506,3.456c1.163,0,2.06-0.08,2.689-0.24
		c0.63-0.16,1.284-0.567,1.963-1.224c0.678-0.656,1.018-1.832,1.018-3.528V92.782z"/>
	<path d="M641.765,103.582c-2.144,0-3.792-0.657-4.943-1.972c-1.152-1.315-1.729-2.918-1.729-4.812V83.374h-2.784V79.63h2.784
		v-7.392h4.896v7.392h4.704v3.744h-4.704v13.192c0,1.894,0.896,2.84,2.688,2.84h2.017v4.176H641.765z"/>
	<path d="M650.789,74.446v-5.184h5.184v5.184H650.789z M650.933,103.582V79.246h4.896v24.336H650.933z"/>
	<path d="M673.013,103.582h-3.984l-8.928-24.384l5.211-0.01l5.735,17.058l5.684-17.058l5.21,0.01L673.013,103.582z"/>
	<path d="M689.86,92.782c0,2.144,0.535,3.816,1.607,5.016c1.072,1.2,2.6,1.8,4.584,1.8c1.345,0,2.432-0.184,3.265-0.552
		c0.832-0.368,1.711-1.016,2.64-1.944l3.12,2.928c-1.312,1.312-2.648,2.272-4.008,2.88c-1.36,0.608-3.064,0.912-5.112,0.912
		c-3.359,0-6.032-0.976-8.016-2.928c-1.984-1.951-2.977-5.136-2.977-9.552c0-3.904,0.928-6.952,2.784-9.144
		c1.855-2.191,4.368-3.288,7.536-3.288c3.199,0,5.72,1.08,7.56,3.24c1.84,2.16,2.761,4.984,2.761,8.472v2.16H689.86z
		 M700.087,86.062c-0.382-0.928-0.996-1.671-1.84-2.232c-0.845-0.56-1.824-0.84-2.938-0.84c-1.147,0-2.136,0.272-2.964,0.816
		c-0.828,0.544-1.449,1.296-1.863,2.256s-0.621,2.064-0.621,3.312h10.896C700.756,88.191,700.533,87.087,700.087,86.062z"/>
	<path d="M730.131,103.582c-2.208,0-3.872-0.632-4.992-1.898c-1.12-1.266-1.68-2.876-1.68-4.832V69.358h4.896V96.57
		c0,0.961,0.2,1.675,0.601,2.14c0.399,0.465,1.08,0.697,2.04,0.697h2.16v4.176H730.131z"/>
	<path d="M738.387,74.446v-5.184h5.184v5.184H738.387z M738.53,103.582V79.246h4.896v24.336H738.53z"/>
	<path d="M756.866,83.374v20.208h-4.896V83.374h-2.784V79.63h2.784v-3.744c0-1.92,0.567-3.528,1.704-4.824
		c1.135-1.296,2.791-1.944,4.968-1.944h3.072v4.176h-2.16c-1.793,0-2.688,0.944-2.688,2.832v3.504h4.849v3.744H756.866z"/>
	<path d="M770.594,92.782c0,2.144,0.535,3.816,1.607,5.016c1.072,1.2,2.6,1.8,4.584,1.8c1.345,0,2.432-0.184,3.265-0.552
		c0.832-0.368,1.711-1.016,2.64-1.944l3.12,2.928c-1.312,1.312-2.648,2.272-4.008,2.88c-1.36,0.608-3.064,0.912-5.112,0.912
		c-3.359,0-6.032-0.976-8.016-2.928c-1.984-1.951-2.977-5.136-2.977-9.552c0-3.904,0.928-6.952,2.784-9.144
		c1.855-2.191,4.368-3.288,7.536-3.288c3.199,0,5.72,1.08,7.56,3.24c1.84,2.16,2.761,4.984,2.761,8.472v2.16H770.594z
		 M780.82,86.062c-0.382-0.928-0.996-1.671-1.84-2.232c-0.845-0.56-1.824-0.84-2.938-0.84c-1.147,0-2.136,0.272-2.964,0.816
		c-0.828,0.544-1.449,1.296-1.863,2.256s-0.621,2.064-0.621,3.312h10.896C781.489,88.191,781.267,87.087,780.82,86.062z"/>
	<path d="M792.673,110.962V97.966h5.567v8.44L792.673,110.962z"/>
	<path d="M824.64,103.582c-2.144,0-3.792-0.657-4.943-1.972c-1.152-1.315-1.729-2.918-1.729-4.812V83.374h-2.784V79.63h2.784v-7.392
		h4.896v7.392h4.704v3.744h-4.704v13.192c0,1.894,0.896,2.84,2.688,2.84h2.017v4.176H824.64z"/>
	<path d="M848.544,103.582V88.619c0-1.764-0.448-3.096-1.344-3.994c-0.896-0.897-2.081-1.347-3.553-1.347
		c-1.439,0-2.624,0.449-3.552,1.347c-0.929,0.898-1.392,2.23-1.392,3.994v14.963h-4.896V69.358h4.896v12.288
		c1.695-1.824,3.792-2.736,6.288-2.736c2.655,0,4.728,0.81,6.216,2.429s2.231,3.792,2.231,6.516v15.727H848.544z"/>
	<path d="M864.624,92.782c0,2.144,0.535,3.816,1.607,5.016c1.072,1.2,2.6,1.8,4.584,1.8c1.345,0,2.432-0.184,3.265-0.552
		c0.832-0.368,1.711-1.016,2.64-1.944l3.12,2.928c-1.312,1.312-2.648,2.272-4.008,2.88c-1.36,0.608-3.064,0.912-5.112,0.912
		c-3.359,0-6.032-0.976-8.016-2.928c-1.984-1.951-2.977-5.136-2.977-9.552c0-3.904,0.928-6.952,2.784-9.144
		c1.855-2.191,4.368-3.288,7.536-3.288c3.199,0,5.72,1.08,7.56,3.24c1.84,2.16,2.761,4.984,2.761,8.472v2.16H864.624z
		 M874.851,86.062c-0.382-0.928-0.996-1.671-1.84-2.232c-0.845-0.56-1.824-0.84-2.938-0.84c-1.147,0-2.136,0.272-2.964,0.816
		c-0.828,0.544-1.449,1.296-1.863,2.256s-0.621,2.064-0.621,3.312h10.896C875.52,88.191,875.297,87.087,874.851,86.062z"/>
	<path d="M278.386,161.422c-3.072,0-5.648-1.008-7.728-3.024c-2.08-2.016-3.12-5.167-3.12-9.456c0-4.255,1.04-7.392,3.12-9.408
		s4.656-3.024,7.728-3.024c1.728,0,3.2,0.256,4.416,0.768c1.216,0.512,2.416,1.392,3.6,2.64l-3.36,3.264
		c-1.409-1.536-2.96-2.304-4.656-2.304c-1.92,0-3.392,0.665-4.416,1.992c-1.024,1.329-1.536,3.353-1.536,6.072
		c0,2.752,0.511,4.792,1.536,6.12c1.024,1.328,2.496,1.992,4.416,1.992c0.992,0,1.808-0.16,2.448-0.48
		c0.64-0.319,1.375-0.928,2.208-1.824l3.36,3.216C284.226,160.27,281.554,161.422,278.386,161.422z"/>
	<path d="M305.362,142.51c-0.544-0.544-1.097-0.952-1.656-1.224c-0.56-0.271-1.224-0.408-1.992-0.408
		c-1.376,0-2.528,0.497-3.456,1.492c-0.929,0.995-1.392,2.325-1.392,3.993v14.819h-4.8v-24.384h4.8v2.64
		c0.576-0.864,1.448-1.568,2.616-2.112c1.167-0.543,2.424-0.816,3.768-0.816c1.28,0,2.344,0.161,3.192,0.48
		c0.847,0.32,1.72,0.929,2.616,1.824L305.362,142.51z"/>
	<path d="M316.786,150.382c0,2.144,0.535,3.816,1.608,5.016c1.072,1.2,2.6,1.8,4.584,1.8c1.344,0,2.432-0.184,3.264-0.552
		c0.832-0.368,1.711-1.016,2.64-1.944l3.12,2.928c-1.312,1.312-2.648,2.272-4.008,2.88c-1.361,0.608-3.064,0.912-5.112,0.912
		c-3.36,0-6.032-0.976-8.016-2.928c-1.985-1.951-2.976-5.136-2.976-9.552c0-3.904,0.928-6.952,2.784-9.144
		c1.855-2.191,4.368-3.288,7.536-3.288c3.2,0,5.72,1.08,7.56,3.24c1.84,2.16,2.76,4.984,2.76,8.472v2.16H316.786z M327.013,143.662
		c-0.383-0.928-0.996-1.671-1.841-2.232c-0.844-0.56-1.824-0.84-2.938-0.84c-1.147,0-2.135,0.272-2.963,0.816
		c-0.828,0.544-1.45,1.296-1.863,2.256c-0.414,0.96-0.621,2.064-0.621,3.312h10.896
		C327.682,145.791,327.458,144.687,327.013,143.662z"/>
	<path d="M352.113,161.182v-2.208c-0.929,0.911-1.856,1.546-2.784,1.907c-0.929,0.361-2.16,0.542-3.696,0.542
		c-2.88,0-5.009-0.704-6.384-2.112c-1.376-1.408-2.064-3.184-2.064-5.328c0-2.112,0.725-3.808,2.173-5.088
		c1.449-1.279,3.543-1.92,6.281-1.92h6.474v-1.728c0-1.567-0.42-2.719-1.259-3.456c-0.84-0.735-2.212-1.104-4.117-1.104
		c-1.325,0-2.382,0.168-3.173,0.504c-0.791,0.336-1.525,0.952-2.203,1.848l-3.216-3.024c1.12-1.279,2.344-2.184,3.672-2.712
		c1.328-0.528,3.016-0.792,5.064-0.792c6.688,0,10.032,2.79,10.032,8.369v16.303H352.113z M352.113,150.382h-5.767
		c-2.94,0-4.409,1.168-4.409,3.504c0,2.304,1.502,3.456,4.507,3.456c1.163,0,2.059-0.08,2.689-0.24
		c0.63-0.16,1.284-0.567,1.962-1.224c0.678-0.656,1.018-1.832,1.018-3.528V150.382z"/>
	<path d="M371.697,161.182c-2.145,0-3.792-0.657-4.944-1.972c-1.152-1.315-1.728-2.918-1.728-4.812v-13.424h-2.784v-3.744h2.784
		v-7.392h4.896v7.392h4.704v3.744h-4.704v13.192c0,1.894,0.896,2.84,2.688,2.84h2.016v4.176H371.697z"/>
	<path d="M380.721,132.046v-5.184h5.184v5.184H380.721z M380.865,161.182v-24.336h4.896v24.336H380.865z"/>
	<path d="M402.944,161.182h-3.984l-8.928-24.384l5.21-0.01l5.736,17.058l5.684-17.058l5.21,0.01L402.944,161.182z"/>
	<path d="M419.792,150.382c0,2.144,0.535,3.816,1.607,5.016c1.072,1.2,2.6,1.8,4.584,1.8c1.345,0,2.432-0.184,3.265-0.552
		c0.832-0.368,1.711-1.016,2.64-1.944l3.12,2.928c-1.312,1.312-2.648,2.272-4.008,2.88c-1.36,0.608-3.064,0.912-5.112,0.912
		c-3.359,0-6.032-0.976-8.016-2.928c-1.984-1.951-2.977-5.136-2.977-9.552c0-3.904,0.928-6.952,2.784-9.144
		c1.855-2.191,4.368-3.288,7.536-3.288c3.199,0,5.72,1.08,7.56,3.24c1.84,2.16,2.761,4.984,2.761,8.472v2.16H419.792z
		 M430.019,143.662c-0.382-0.928-0.996-1.671-1.84-2.232c-0.845-0.56-1.824-0.84-2.938-0.84c-1.147,0-2.136,0.272-2.964,0.816
		c-0.828,0.544-1.449,1.296-1.863,2.256s-0.621,2.064-0.621,3.312h10.896C430.688,145.791,430.465,144.687,430.019,143.662z"/>
	<path d="M460.062,161.182c-2.208,0-3.872-0.632-4.992-1.898c-1.12-1.266-1.68-2.876-1.68-4.832v-27.494h4.896v27.211
		c0,0.961,0.2,1.675,0.601,2.14c0.399,0.465,1.08,0.697,2.04,0.697h2.16v4.176H460.062z"/>
	<path d="M468.318,132.046v-5.184h5.184v5.184H468.318z M468.462,161.182v-24.336h4.896v24.336H468.462z"/>
	<path d="M486.798,140.974v20.208h-4.896v-20.208h-2.784v-3.744h2.784v-3.744c0-1.92,0.567-3.528,1.704-4.824
		c1.135-1.296,2.791-1.944,4.968-1.944h3.072v4.176h-2.16c-1.793,0-2.688,0.944-2.688,2.832v3.504h4.849v3.744H486.798z"/>
	<path d="M500.525,150.382c0,2.144,0.535,3.816,1.607,5.016c1.072,1.2,2.6,1.8,4.584,1.8c1.345,0,2.432-0.184,3.265-0.552
		c0.832-0.368,1.711-1.016,2.64-1.944l3.12,2.928c-1.312,1.312-2.648,2.272-4.008,2.88c-1.36,0.608-3.064,0.912-5.112,0.912
		c-3.359,0-6.032-0.976-8.016-2.928c-1.984-1.951-2.977-5.136-2.977-9.552c0-3.904,0.928-6.952,2.784-9.144
		c1.855-2.191,4.368-3.288,7.536-3.288c3.199,0,5.72,1.08,7.56,3.24c1.84,2.16,2.761,4.984,2.761,8.472v2.16H500.525z
		 M510.752,143.662c-0.382-0.928-0.996-1.671-1.84-2.232c-0.845-0.56-1.824-0.84-2.938-0.84c-1.147,0-2.136,0.272-2.964,0.816
		c-0.828,0.544-1.449,1.296-1.863,2.256s-0.621,2.064-0.621,3.312h10.896C511.421,145.791,511.198,144.687,510.752,143.662z"/>
	<path d="M543.868,161.422c-3.072,0-5.648-1.008-7.729-3.024c-2.08-2.016-3.12-5.167-3.12-9.456c0-4.255,1.04-7.392,3.12-9.408
		s4.656-3.024,7.729-3.024c1.728,0,3.199,0.256,4.416,0.768c1.216,0.512,2.415,1.392,3.6,2.64l-3.36,3.264
		c-1.408-1.536-2.96-2.304-4.655-2.304c-1.92,0-3.393,0.665-4.416,1.992c-1.024,1.329-1.536,3.353-1.536,6.072
		c0,2.752,0.512,4.792,1.536,6.12c1.023,1.328,2.496,1.992,4.416,1.992c0.991,0,1.808-0.16,2.447-0.48
		c0.641-0.319,1.376-0.928,2.208-1.824l3.36,3.216C549.707,160.27,547.036,161.422,543.868,161.422z"/>
	<path d="M572.283,161.182v-14.963c0-1.764-0.448-3.096-1.344-3.994c-0.896-0.897-2.081-1.347-3.553-1.347
		c-1.439,0-2.624,0.449-3.552,1.347c-0.929,0.898-1.392,2.23-1.392,3.994v14.963h-4.896v-34.224h4.896v12.288
		c1.695-1.824,3.792-2.736,6.288-2.736c2.655,0,4.728,0.81,6.216,2.429s2.231,3.792,2.231,6.516v15.727H572.283z"/>
	<path d="M600.987,158.542c-0.864,0.896-1.896,1.6-3.096,2.112c-1.2,0.512-2.601,0.768-4.2,0.768c-1.568,0-2.952-0.256-4.152-0.768
		s-2.288-1.279-3.264-2.304c-0.977-1.023-1.673-2.287-2.088-3.792c-0.417-1.503-0.624-3.375-0.624-5.616
		c0-2.176,0.207-4.032,0.624-5.568c0.415-1.536,1.111-2.808,2.088-3.816c0.976-1.008,2.056-1.768,3.24-2.28
		c1.183-0.512,2.575-0.768,4.176-0.768c1.567,0,2.959,0.256,4.176,0.768c1.216,0.512,2.312,1.28,3.288,2.304
		c0.976,1.024,1.672,2.288,2.088,3.792c0.415,1.504,0.624,3.36,0.624,5.568s-0.209,4.08-0.624,5.616
		C602.827,156.094,602.074,157.422,600.987,158.542z M597.291,142.27c-0.929-0.928-2.128-1.392-3.6-1.392
		c-1.44,0-2.561,0.4-3.36,1.2c-0.8,0.8-1.312,1.752-1.536,2.856s-0.336,2.441-0.336,4.008c0,1.696,0.104,3.056,0.312,4.08
		c0.207,1.024,0.728,1.952,1.56,2.784c0.832,0.833,1.951,1.248,3.36,1.248c1.439,0,2.567-0.408,3.384-1.224
		c0.816-0.816,1.336-1.776,1.56-2.88s0.336-2.439,0.336-4.008c0-1.696-0.104-3.056-0.312-4.08
		C598.45,143.838,597.995,142.974,597.291,142.27z"/>
	<path d="M618.362,161.422c-2.208,0-4.12-0.249-5.735-0.744c-1.616-0.496-3.113-1.416-4.488-2.76l3.216-3.216
		c0.896,0.929,1.951,1.584,3.168,1.968c1.216,0.384,2.496,0.576,3.84,0.576c1.567,0,2.848-0.28,3.84-0.84
		c0.992-0.56,1.488-1.399,1.488-2.52c0-0.896-0.257-1.6-0.768-2.112c-0.513-0.512-1.345-0.768-2.496-0.768l-3.889-0.336
		c-2.368-0.192-4.16-0.832-5.376-1.92s-1.823-2.688-1.823-4.8c0-2.335,0.855-4.159,2.567-5.472c1.712-1.312,3.912-1.968,6.601-1.968
		c1.888,0,3.583,0.216,5.088,0.648c1.504,0.432,2.815,1.128,3.936,2.088l-3.071,3.12c-0.705-0.607-1.593-1.056-2.664-1.344
		c-1.073-0.288-2.185-0.432-3.336-0.432c-1.44,0-2.537,0.28-3.288,0.84c-0.753,0.561-1.128,1.32-1.128,2.28
		c0,0.8,0.247,1.432,0.743,1.896s1.368,0.76,2.616,0.888l3.84,0.336c2.368,0.192,4.168,0.849,5.4,1.968
		c1.231,1.121,1.848,2.752,1.848,4.896c0,2.464-0.936,4.368-2.808,5.712C623.811,160.75,621.37,161.422,618.362,161.422z"/>
	<path d="M638.091,150.382c0,2.144,0.535,3.816,1.607,5.016c1.072,1.2,2.6,1.8,4.584,1.8c1.345,0,2.432-0.184,3.265-0.552
		c0.832-0.368,1.711-1.016,2.64-1.944l3.12,2.928c-1.312,1.312-2.648,2.272-4.008,2.88c-1.36,0.608-3.064,0.912-5.112,0.912
		c-3.359,0-6.032-0.976-8.016-2.928c-1.984-1.951-2.977-5.136-2.977-9.552c0-3.904,0.928-6.952,2.784-9.144
		c1.855-2.191,4.368-3.288,7.536-3.288c3.199,0,5.72,1.08,7.56,3.24c1.84,2.16,2.761,4.984,2.761,8.472v2.16H638.091z
		 M648.317,143.662c-0.382-0.928-0.996-1.671-1.84-2.232c-0.845-0.56-1.824-0.84-2.938-0.84c-1.147,0-2.136,0.272-2.964,0.816
		c-0.828,0.544-1.449,1.296-1.863,2.256s-0.621,2.064-0.621,3.312h10.896C648.986,145.791,648.764,144.687,648.317,143.662z"/>
	<path d="M701.497,161.182v-14.867c0-1.829-0.448-3.191-1.344-4.09c-0.896-0.897-2.08-1.347-3.552-1.347
		c-1.44,0-2.641,0.441-3.601,1.323c-0.96,0.882-1.439,2.174-1.439,3.873v15.108h-4.896v-14.867c0-1.829-0.453-3.191-1.357-4.09
		c-0.904-0.897-2.1-1.347-3.586-1.347s-2.706,0.458-3.659,1.372s-1.429,2.27-1.429,4.065v14.867h-4.801v-24.384h4.801v2.448
		c0.799-0.864,1.775-1.536,2.928-2.016c1.151-0.48,2.335-0.72,3.552-0.72c3.072,0,5.376,1.184,6.912,3.552
		c1.951-2.368,4.495-3.552,7.632-3.552c1.248,0,2.4,0.193,3.456,0.578s1.983,0.97,2.784,1.755c0.8,0.786,1.416,1.764,1.848,2.934
		c0.433,1.17,0.648,2.445,0.648,3.823v15.582H701.497z"/>
	<path d="M717.577,150.382c0,2.144,0.535,3.816,1.607,5.016c1.072,1.2,2.6,1.8,4.584,1.8c1.345,0,2.432-0.184,3.265-0.552
		c0.832-0.368,1.711-1.016,2.64-1.944l3.12,2.928c-1.312,1.312-2.648,2.272-4.008,2.88c-1.36,0.608-3.064,0.912-5.112,0.912
		c-3.359,0-6.032-0.976-8.016-2.928c-1.984-1.951-2.977-5.136-2.977-9.552c0-3.904,0.928-6.952,2.784-9.144
		c1.855-2.191,4.368-3.288,7.536-3.288c3.199,0,5.72,1.08,7.56,3.24c1.84,2.16,2.761,4.984,2.761,8.472v2.16H717.577z
		 M727.804,143.662c-0.382-0.928-0.996-1.671-1.84-2.232c-0.845-0.56-1.824-0.84-2.938-0.84c-1.147,0-2.136,0.272-2.964,0.816
		c-0.828,0.544-1.449,1.296-1.863,2.256s-0.621,2.064-0.621,3.312h10.896C728.473,145.791,728.25,144.687,727.804,143.662z"/>
	<path d="M739.656,161.182v-5.904h5.855v5.904H739.656z"/>
</g>
<path d="M613.474,1172.309c-2.013-6.457-3.163-23.172-5.465-35.829c-2.301-12.656-6.328-11.506-11.919-13.521
	c-5.591-2.013-9.079,0-9.079,0s2.301,0.864,3.739,10.932c1.439,10.068,1.15,24.738,3.164,29.054
	c2.014,4.314,11.253,9.204,11.253,9.204c-5.718,1.15-10.677-4.314-10.677-4.314s-1.727,0.575-5.133,0
	c-3.405-0.575-1.484-4.314-1.196-7.479c0.287-3.164,1.438-12.943,1.15-18.841c-0.287-5.896-2.301-18.555-2.301-18.555
	s-0.863-2.301-7.191-5.751c-6.327-3.452-11.507,0-11.507,0s4.315,2.14,3.74,15.164s-5.753,26.545-2.876,30.859
	c0,0-3.452-2.301-9.781,2.589c0,0,9.493-14.096,10.356-22.581s2.013-18.554-1.439-26.031c-1.311-3.774-1.725-5.467-8.917-6.329
	c-2.786-0.334-4.895,0.545-6.439,1.742l0.001-0.002v-15.836c0,0-1.327-10.643-9.381-12.368c-8.055-1.726-14.959-0.288-17.549-6.328
	c-2.588-6.042-6.328-8.917-6.328-8.917v-29.055c0,0-2.013-2.588-4.025-4.025l-0.433,0.394c0-1.374,0-2.78,0-4.134
	c0-1.732-3.678-1.87-3.678-1.87v-1.868c0,0-1.068-1.439-6.821-1.439s-5.898,1.15-5.898,1.15v2.157c-4.747,0-6.615,1.87-6.615,1.87
	c-5.608,0-7.622,3.74-7.622,3.74v4.17v39.266v40.271v40.892l4.027,3.119l1.726,2.732l12.082,10.068c0,0,0,0-0.288,4.314
	c-0.288,4.315,1.294,7.191,5.825,7.623c2.271,0.216,4.09-0.58,5.34-1.428c0.019,0.188,0.034,0.38,0.054,0.564
	c1.438,13.808,5.753,18.984,9.204,24.163c3.451,5.178,13.807,26.382,13.807,26.382h77.668c0,0-1.439-8.261-2.303-17.465
	c-0.862-9.204,0.863-16.972,3.453-25.889C617.789,1185.955,615.488,1178.765,613.474,1172.309z M500.81,1033.395
	c0.732,0.182,1.485,0.32,2.252,0.428c1.53,0.246,3.096,0.396,4.7,0.828c-1.592,0.48-3.239,0.538-4.874,0.31
	c-0.815-0.14-1.636-0.341-2.399-0.731c-0.384-0.188-0.748-0.433-1.065-0.736c-0.298-0.307-0.6-0.702-0.577-1.143
	C499.33,1033.009,500.102,1033.178,500.81,1033.395z M488.634,1160.688l-2.302-1.932v-37.969l2.302,1.931V1160.688z
	 M491.51,1121.964l-2.301-1.929v-13.519l2.301,1.932V1121.964z M491.51,1103.422l-2.301-2.336v-55.234l2.301,2.337V1103.422z
	 M491.51,1044.431l-2.301-2.876v-5.465l2.301,2.301V1044.431z M495.397,1035.824c1.188,0.546,2.437,0.962,3.717,1.278
	c2.563,0.663,5.221,0.968,7.93,1.432c-2.711,0.449-5.508,0.349-8.212-0.317c-1.344-0.354-2.675-0.85-3.867-1.609
	c-1.167-0.75-2.306-1.764-2.736-3.107C493.07,1034.583,494.229,1035.253,495.397,1035.824z M507.044,1042.626v56.171l-2.302-1.15
	v-55.127C505.477,1042.581,506.241,1042.621,507.044,1042.626z M495.537,1098.797v-58.393c0,0,2.509,1.277,6.616,1.937v55.306
	C502.153,1097.646,498.701,1097.646,495.537,1098.797z M502.153,1101.961v17.835c-2.876,4.315-5.178,0-5.178,0v-17.835
	C499.853,1101.099,502.153,1101.961,502.153,1101.961z M498.701,1170.092c-4.027-3.3-6.328-6.049-6.328-6.049v-38.621
	c3.164,2.626,6.328,3.421,6.328,3.421V1170.092z M504.405,1132.61c-0.017,0.491-0.091,1.107-0.205,1.631
	c-0.222,1.083-0.7,2.202-1.574,2.973c-0.861,0.776-2.046,1.054-3.062,0.849c1.031-0.127,1.934-0.667,2.462-1.409
	c0.536-0.745,0.74-1.669,0.792-2.603c0.031-0.916-0.088-1.944-0.131-2.979c-0.071-1.025-0.1-2.052-0.136-3.077l-0.008-0.195
	l0.09-0.211c0.447-1.05,0.91-1.985,1.832-2.898l0.24-0.23c0.057-0.061,0.112-0.124,0.162-0.19c0.103-0.132,0.19-0.28,0.274-0.445
	c0.164-0.331,0.283-0.73,0.381-1.157c0.422-1.741,0.398-3.705,0.488-5.701c0.062-1.997,0.182-3.994,0.344-5.992
	c0.155-1.996,0.37-3.994,0.688-5.99c0.317,1.996,0.532,3.994,0.687,5.99c0.163,1.998,0.282,3.995,0.344,5.992
	c0.088,1.987,0.137,4.056-0.312,6.226c-0.129,0.546-0.31,1.106-0.601,1.667c-0.147,0.276-0.322,0.555-0.531,0.812
	c-0.104,0.132-0.218,0.252-0.335,0.37l-0.306,0.282c-0.488,0.452-0.988,1.223-1.366,1.943c-0.033,0.935-0.062,1.871-0.127,2.806
	L504.405,1132.61z M507.979,1186.531c-1.391,0-2.518-1.127-2.518-2.517c0-1.391,1.127-2.518,2.518-2.518s2.517,1.127,2.517,2.518
	C510.495,1185.404,509.369,1186.531,507.979,1186.531z M554.561,1125.439c1.229,0.091,2.435,0.231,3.632,0.402
	c1.196,0.168,2.381,0.371,3.574,0.592c1.196,0.228,2.385,0.461,3.671,0.777c-1.172,0.637-2.472,0.908-3.749,1.03
	c-1.283,0.113-2.566,0.059-3.822-0.123c-1.257-0.181-2.49-0.486-3.684-0.916c-1.19-0.439-2.356-0.978-3.417-1.78
	C552.085,1125.309,553.329,1125.355,554.561,1125.439z M529.768,1091.894c0,0,8.63-2.014,11.219,1.438c0,0,2.81,2.365,3.13,11.537
	c-2.224-3.155-6.497-3.896-12.767-4.059c-4.236-0.109-6.722,2.52-8.294,6.168l-0.479-9.906
	C522.576,1097.072,528.509,1094.579,529.768,1091.894z M526.62,1125.694c1.571-0.82,3.349-1.331,5.181-1.41
	c1.828-0.081,3.709,0.299,5.317,1.15c1.617,0.828,2.967,2.071,3.868,3.566c-1.556-0.794-3.03-1.478-4.538-1.9
	c-1.509-0.412-3.021-0.583-4.551-0.518c-1.53,0.059-3.065,0.356-4.616,0.773c-1.546,0.441-3.091,0.999-4.705,1.645
	C523.622,1127.59,525.05,1126.507,526.62,1125.694z M538.685,1132.166c-1.124,0.287-2.192,0.403-3.263,0.449
	c-1.068,0.039-2.126,0-3.178-0.115c-1.052-0.114-2.097-0.301-3.135-0.573c-1.037-0.281-2.068-0.629-3.082-1.2
	c1.102-0.377,2.184-0.521,3.26-0.594c1.075-0.063,2.143-0.033,3.202,0.08c1.06,0.112,2.112,0.309,3.152,0.606
	C536.678,1131.127,537.718,1131.508,538.685,1132.166z M527.504,1137.643c-1.238-0.373-2.453-0.891-3.489-1.738
	c2.623-0.112,4.967-0.007,7.349,0l3.568-0.006c1.207-0.005,2.423-0.043,3.753,0.006c-1.021,0.859-2.229,1.413-3.479,1.782
	c-1.255,0.363-2.562,0.53-3.862,0.518C530.044,1138.191,528.749,1138.005,527.504,1137.643z M531.35,1169.271
	c4.459-4.314,7.623-12.081,9.637-20.135c2.014-8.055,4.603-31.929,4.603-31.929l0.324-0.694c0.454,5.866,2.896,2.311,4.245-0.175
	c-0.498,1.009-0.988,2.014-1.445,2.97c-0.042,0.094-0.087,0.188-0.133,0.28c-0.04,0.084-0.079,0.167-0.118,0.249
	c-1.851,6.764-3.812,23.662-5.75,35.052C540.411,1168.409,531.35,1169.271,531.35,1169.271z M550.635,1180.028
	c0.007,0.858,0.092,1.725,0.131,2.764c-1.754-1.142-2.487-3.351-2.42-5.337c0.03-1.011,0.26-1.997,0.648-2.908
	c0.407-0.901,0.942-1.759,1.771-2.398c0.078,2.031-0.084,3.699-0.121,5.377C550.621,1178.359,550.608,1179.18,550.635,1180.028z
	 M556.862,1181.486c-0.242,1.041-0.586,2.075-1.205,3.031c-0.336-1.09-0.477-2.115-0.6-3.137c-0.108-1.021-0.166-2.03-0.17-3.04
	c-0.003-1.011,0.04-2.024,0.148-3.051c0.119-1.028,0.274-2.06,0.621-3.142c0.605,0.97,0.931,1.998,1.178,3.033
	c0.231,1.037,0.348,2.091,0.354,3.146C557.195,1179.385,557.094,1180.442,556.862,1181.486z M557.969,1133.41
	c-1.295-0.124-2.561-0.409-3.775-0.84c-1.21-0.44-2.387-1.001-3.428-1.844c1.329-0.064,2.573-0.001,3.802,0.08
	c1.227,0.088,2.427,0.201,3.616,0.312c1.19,0.109,2.366,0.221,3.553,0.289c1.192,0.07,2.371,0.101,3.701,0.038
	c-0.955,0.952-2.258,1.479-3.547,1.765C560.59,1133.491,559.262,1133.533,557.969,1133.41z M575.001,1180.926
	c-0.61-0.869-1.001-1.862-1.206-2.865c-0.21-1.002-0.237-2.022-0.117-3.021c0.141-0.996,0.395-1.985,0.964-2.892
	c0.739,1.957,1.031,3.72,1.406,5.445c0.18,0.857,0.358,1.697,0.579,2.539c0.216,0.851,0.488,1.673,0.891,2.659
	C576.474,1182.537,575.613,1181.785,575.001,1180.926z M580.985,1177.768c-0.787-0.324-1.519-0.744-2.194-1.255
	c-0.674-0.511-1.291-1.114-1.805-1.828c-0.493-0.716-0.963-1.564-0.949-2.536c0.812,0.463,1.499,0.807,2.187,1.217
	c0.678,0.405,1.332,0.835,1.96,1.314c0.628,0.48,1.232,1.002,1.807,1.591c0.565,0.599,1.114,1.233,1.568,2.062
	C582.608,1178.325,581.779,1178.077,580.985,1177.768z M582.278,1134.361c-0.884,0.035-1.755-0.013-2.615-0.138
	s-1.711-0.323-2.551-0.608c-0.839-0.296-1.668-0.657-2.471-1.243c0.928-0.358,1.826-0.485,2.716-0.544
	c0.889-0.048,1.766-0.005,2.632,0.118c0.866,0.122,1.722,0.327,2.562,0.627c0.838,0.308,1.67,0.69,2.445,1.317
	C584.056,1134.207,583.164,1134.318,582.278,1134.361z M582.152,1129.666c-0.896-0.247-1.779-0.389-2.692-0.479
	c-0.913-0.088-1.854-0.117-2.837-0.127c-0.987-0.014-2.001-0.007-3.131-0.06c0.785-0.836,1.786-1.363,2.838-1.72
	c1.058-0.346,2.199-0.492,3.348-0.384c1.145,0.104,2.3,0.481,3.266,1.142c0.963,0.66,1.729,1.593,2.054,2.688
	C583.952,1130.271,583.054,1129.908,582.152,1129.666z M600.243,1182.792c-0.486-0.894-0.809-1.727-1.096-2.58
	c-0.276-0.851-0.492-1.707-0.644-2.579c-0.154-0.872-0.25-1.757-0.269-2.663c-0.007-0.913,0.029-1.835,0.282-2.821
	c0.68,0.763,1.113,1.597,1.481,2.446c0.354,0.854,0.607,1.735,0.769,2.636s0.229,1.822,0.176,2.759
	C600.874,1180.921,600.722,1181.885,600.243,1182.792z M606.053,1182.199c-0.223,0.832-0.573,1.638-1.207,2.318
	c-0.311-0.876-0.457-1.65-0.601-2.406c-0.134-0.751-0.235-1.475-0.318-2.201c-0.082-0.726-0.152-1.452-0.199-2.211
	c-0.04-0.767-0.069-1.54-0.033-2.458c0.813,0.47,1.347,1.193,1.764,1.947c0.399,0.766,0.654,1.601,0.752,2.454
	C606.315,1180.495,606.261,1181.364,606.053,1182.199z"/>
<path d="M391.108,632.405c4.375-3.701,5.222-9.732,1.891-13.473c-3.331-3.742-9.577-3.775-13.953-0.075
	c-4.375,3.699-5.221,9.731-1.891,13.473C380.486,636.072,386.733,636.105,391.108,632.405z"/>
<path d="M456.806,639.013c-4.074,2.912-4.58,8.982-1.131,13.561c3.449,4.577,9.549,5.929,13.623,3.018s4.58-8.98,1.131-13.559
	S460.88,636.103,456.806,639.013z"/>
<path d="M427.935,696.494c-5.693-4.391-12.375-5.391-14.924-2.235c-2.55,3.155-0.003,9.272,5.689,13.661
	c5.693,4.391,12.376,5.391,14.927,2.234C436.176,707,433.627,700.883,427.935,696.494z"/>
<path d="M447.682,614.614c-4.464-3.75-10.539-4.007-13.567-0.571c-3.031,3.438-1.867,9.264,2.598,13.015
	c4.465,3.751,10.54,4.008,13.569,0.57C453.31,624.191,452.146,618.365,447.682,614.614z"/>
<path d="M387.211,653.799c-1.911-5.43-7.033-8.653-11.438-7.202c-4.407,1.452-6.429,7.033-4.518,12.463
	c1.911,5.432,7.033,8.655,11.438,7.202C387.1,664.811,389.122,659.23,387.211,653.799z"/>
<path d="M425.461,609.725c-1.022-4.536-7.157-7.103-13.703-5.735c-6.546,1.367-11.023,6.151-10.001,10.687
	c1.022,4.533,7.157,7.1,13.703,5.735C422.006,619.043,426.483,614.258,425.461,609.725z"/>
<path d="M383.928,675.243c-4.074,2.911-4.581,8.981-1.131,13.558c3.45,4.579,9.55,5.93,13.624,3.019
	c4.076-2.91,4.581-8.979,1.131-13.558C394.102,673.684,388.003,672.332,383.928,675.243z"/>
<path d="M685.755,762.672c0,0-0.208,3.271-3.364,2.801c-3.156-0.473-8.15-1.841-10.868-4.604c-2.718-2.762-4.168-5.911-3.118-7.872
	c1.047-1.962,3.757-1.622,3.955-2.792c0.2-1.171,0.901-3.848,3.397-4.168c0,0,2.036-0.271,2.72-0.255c0,0,0.023,2.744,1.629,4.172
	c1.608,1.426,4.334,2.589,6.353,1.997c0,0,2.35,3.322,2.801,4.87c0.453,1.551,0.84,2.819-1.072,3.742
	C686.272,761.486,685.755,762.672,685.755,762.672z"/>
<path d="M670.959,750.03c0,0-4.011-3.107-2.658-6.411c0,0,0.528-1.277,1.311-0.338c0.782,0.94,2.855,3.214,2.205,5.357
	C671.816,748.639,671.503,749.578,670.959,750.03z"/>
<path d="M646.403,851.714l-3.884,4.992c0,0-1.229,0.939-2.608,1.293c0,0-2.181,0.099-0.654-1.592
	c1.525-1.688,3.604-4.424,3.604-4.424s0.091-0.495,1.384-0.649C645.539,851.178,646.576,850.815,646.403,851.714z"/>
<path d="M646.063,855.431l4.759-6.056l-5.696,1.307c0,0-0.971-0.361,0.01-1.599c0.98-1.235,3.702-4.505,3.702-4.505
	s0.165-0.305,1.277-0.478c1.113-0.172,3.989-1.144,3.989-1.144l0.985,0.68l2.016-2.508c0,0,0.824-0.618,1.842-0.704
	c1.018-0.085,1.018-0.085,1.018-0.085l1.672,1.203l-0.386,1.244l1.045-0.453l2.34,1.906l-1.477,2.149l3.158-0.534l4.728,3.769
	l-4.656,1.448c0,0-0.907-0.083-0.939-0.727l-1.007,1.006c0,0-0.725,0.438-2.265,0.798c-1.543,0.361-2.754,0.617-2.754,0.617
	s-1.153-0.38-0.297-1.263l-1.202,1.171c0,0-0.471,0.644-1.931,1.104c-1.458,0.46-2.753,0.616-2.753,0.616s-1.02,0.081-1.094-0.812
	c0,0-0.707,1.14-2.518,1.644C647.818,855.728,645.865,856.6,646.063,855.431z"/>
<path d="M657.288,838.129l-1.071-0.783l-1.088,0.403c0,0-0.709,0.256-1.88,1.565c-1.171,1.311-2.32,2.946-2.32,2.946
	s-0.442,0.846-0.057,1.21c0.386,0.365,2.724-0.521,2.724-0.521L657.288,838.129z"/>
<polygon points="671.8,856.365 666.995,857.435 668.767,859.561 673.611,858.54 "/>
<polygon points="664.63,858.313 659.223,859.466 660.705,861.248 666.236,860.244 "/>
<polygon points="657.262,860.429 658.291,861.665 648.623,863.936 647.799,862.946 "/>
<path d="M527.96,790.951c-3.933-0.934-7.879,1.499-8.812,5.434c-0.933,3.933,1.499,7.878,5.432,8.812
	c3.935,0.934,7.88-1.499,8.812-5.432C534.325,795.83,531.894,791.885,527.96,790.951z M531.334,799.53
	c-0.682,2.872-3.562,4.648-6.435,3.967c-2.873-0.681-4.649-3.562-3.968-6.436c0.682-2.874,3.563-4.649,6.437-3.968
	C530.24,793.775,532.016,796.656,531.334,799.53z"/>
<path d="M548.126,795.736c-3.933-0.933-7.878,1.499-8.812,5.434c-0.934,3.933,1.499,7.878,5.432,8.812s7.879-1.499,8.812-5.432
	C554.492,800.615,552.059,796.67,548.126,795.736z M551.501,804.315c-0.682,2.873-3.563,4.648-6.437,3.967
	c-2.872-0.682-4.649-3.562-3.968-6.436c0.683-2.874,3.564-4.649,6.437-3.968C550.406,798.561,552.184,801.441,551.501,804.315z"/>
<path d="M526.354,841.523c-12.702-3.015-23.528,4.398-23.528,4.398l6.483,13.719c0,0,7.286-5.354,13.588-3.549
	c0,0,7.833,2.083,9.739,9.084l12.716-10.247C545.353,854.929,539.057,844.537,526.354,841.523z M536.015,860.159l-2.674,2.175
	c-2.281-3.485-5.842-6.144-10.206-7.179c-4.725-1.122-9.463-0.122-13.223,2.373l-1.328-3.226c4.427-2.732,9.894-3.778,15.343-2.485
	c2.578,0.611,4.923,1.694,6.969,3.134l5.476-5.512l-4.106,6.568C533.706,857.219,534.968,858.617,536.015,860.159z"/>
<path d="M529.193,798.938c-0.398,1.68-2.083,2.717-3.763,2.318s-2.718-2.082-2.319-3.761c0.398-1.683,2.083-2.72,3.763-2.321
	C528.553,795.572,529.592,797.256,529.193,798.938z"/>
<path d="M549.358,803.723c-0.398,1.68-2.083,2.717-3.762,2.318s-2.719-2.082-2.32-3.761c0.399-1.683,2.085-2.72,3.764-2.321
	S549.758,802.041,549.358,803.723z"/>
<path d="M543.48,819.232c-0.515,2.167-2.686,3.507-4.852,2.993l-15.525-3.685c-2.165-0.514-3.504-2.687-2.99-4.854l0,0
	c0.514-2.165,2.687-3.503,4.851-2.989l15.526,3.685C542.655,814.896,543.994,817.066,543.48,819.232L543.48,819.232z"/>
<circle cx="502.686" cy="871.093" r="4.063"/>
<circle cx="533.911" cy="878.503" r="4.062"/>
<circle cx="518.605" cy="874.872" r="4.062"/>
<circle cx="651.691" cy="606.175" r="2.707"/>
<circle cx="676.325" cy="615.175" r="2.707"/>
<circle cx="656.637" cy="624.675" r="2.707"/>
<path d="M622.088,604.492l-2.401-1.384c0.099-0.28,0.162-0.577,0.162-0.89c0-1.495-1.212-2.707-2.707-2.707
	s-2.707,1.212-2.707,2.707s1.212,2.707,2.707,2.707c0.821,0,1.549-0.374,2.045-0.951l2.401,1.384L622.088,604.492z"/>
<path d="M697.847,588.628c-1.495,0-2.707,1.212-2.707,2.707c0,0.16,0.021,0.314,0.047,0.466l-4.714,1.773l0.352,0.936l4.717-1.774
	c0.475,0.78,1.325,1.306,2.306,1.306c1.495,0,2.707-1.212,2.707-2.707S699.342,588.628,697.847,588.628z"/>
<path d="M424.682,850.397c-8.714-9.899-8.538-15.476-8.538-15.476c-0.823-8.544-7.074-16.964-11.787-20.217
	c-4.711-3.254-7.146-9.254-7.731-12.834c-0.583-3.579-4.464-10.674-4.464-10.674s-15.637-25.956-21.197-35.185
	c-5.559-9.228-9.944-7.372-9.944-7.372c-5.424,2.089-21.749,11.53-21.749,11.53l-0.019-0.03c0,0-15.976,10.018-20.356,13.837
	c0,0-3.69,3.009,1.87,12.237c5.56,9.229,21.196,35.183,21.196,35.183s4.458,6.749,7.35,8.937c2.89,2.19,7.057,7.147,7.731,12.833
	c0.674,5.688,5.195,15.148,12.363,19.87c0,0,5.013,2.45,9.69,14.78c0,0,3.901,11.044,8.56,10.294
	c4.658-0.749,9.903-2.482,18.01-7.294l4.614-2.78l0.02,0.032l4.614-2.78c8.042-4.919,12.028-8.744,14.867-12.514
	C432.622,859.007,424.682,850.397,424.682,850.397z M342.888,811.449c-0.573,0.345-1.318,0.161-1.664-0.412l-15.775-26.187
	c-0.345-0.573-0.161-1.318,0.412-1.664l40.029-24.115c0.573-0.345,1.319-0.161,1.664,0.413l15.776,26.187
	c0.345,0.573,0.161,1.317-0.414,1.663L342.888,811.449z M398.669,858.514c-10.292,6.198-23.66,2.883-29.861-7.409
	c-6.2-10.293-2.884-23.662,7.408-29.861c10.291-6.201,23.661-2.885,29.86,7.408C412.278,838.944,408.961,852.313,398.669,858.514z"
	/>
<path d="M397.885,823.344c0.617,0.26,0.907,0.97,0.649,1.587l-14.049,33.464c-0.26,0.617-0.97,0.907-1.587,0.648l-4.594-1.928
	c-0.618-0.259-0.909-0.97-0.649-1.587l14.049-33.465c0.259-0.618,0.97-0.908,1.586-0.648L397.885,823.344z"/>
<g>
	<path d="M419.49,882.885l-3.093,2.042l-1.442,0.868l-1.441,0.868l-3.252,1.781c-1.208,0.834-2.361,1.575-3.481,2.262
		c0.631,4.621,1.261,16.421-6.293,27.05c5.834-2.343,9.853-5.636,9.929-5.7c11.429-10.575,11.27-24.35,10.621-30.007
		C420.53,882.327,420.027,882.605,419.49,882.885z"/>
	<path d="M794.29,713.059c-0.79-42.862-55.559-157.952-80.166-200.813c-24.607-42.863-11.111-98.421-11.111-98.421
		c-68.265,37.309-53.187,101.597-53.187,101.597s-47.624-61.116-92.868-149.221c-45.242-88.105,3.182-150.017,3.182-150.017
		c-74.613,38.895-162.719,96.84-228.597,210.343c-65.884,113.503-10.321,213.506-10.321,213.506
		c-40.48-24.608-36.514-95.249-36.514-95.249c-104.773,96.834-32.545,263.515-32.545,263.515
		c-27.785,3.968-62.702-42.861-62.702-42.861c22.221,95.249,129.375,180.183,129.375,180.183
		c74.613,60.325,188.033,71.25,188.033,71.25c73.734-11.296,125.498-38.704,152.481-56.963
		c26.989-18.26,91.287-85.725,116.681-135.729C801.434,774.17,794.29,713.059,794.29,713.059z M713.637,587.711
		c1.442,3.147,4.459,15.344,2.229,24.917s-2.229,22.949-26.098,33.572c0,0,4.328-5.377,4.328-15.737s-1.705-21.9-6.033-28.852
		c-4.327-6.95-13.245-18.754-13.77-19.146c-0.524-0.394-1.836-1.967,1.705-1.836c3.541,0.132,15.475,1.181,15.475,1.181
		s3.907,0.131,0.904-2.623s-10.216-8-10.216-8s-2.754-2.754-0.262-2.229c2.491,0.524,17.048,3.408,21.376,6.818
		C707.604,579.187,712.193,584.564,713.637,587.711z M706.948,576.958c-5.901-5.771-22.949-9.312-25.572-9.573
		c-2.623-0.263-1.442-1.181-0.918-1.836c0.524-0.656,1.049-1.312,2.885-2.623s1.181-1.312-0.655-1.836s-9.312-1.574-13.377-1.903
		c-4.065-0.33-4.852-0.457-3.803-1.455c1.049-0.997,4.721-3.33,4.721-3.33C700.785,566.074,706.948,576.958,706.948,576.958z
		 M667.344,554.14c0,0-2.229,0.85-3.278,2.13c-1.05,1.279-0.787,2.523-5.377,0s-7.344-2.917-7.344-2.917
		S662.623,552.959,667.344,554.14z M651.344,584.957c2.229,2.361,7.606,5.901,9.049,8.131s3.147,4.328,3.147,4.328
		s2.229,2.229,3.017-0.263c0.787-2.491,5.508-14.688,5.508-14.688s9.049,11.278,10.36,12.982c1.312,1.705,9.048,14.819,9.704,25.704
		s0.787,23.836-9.836,28.719c0,0-19.146,7.477-40.653,1.836c0,0-4.853-3.147-4.59-13.507c0.263-10.359,1.181-26.49,4.59-37.112
		c3.409-10.623,7.213-17.311,7.213-17.311S649.115,582.596,651.344,584.957z M604.921,621.414c0,0-1.836-4.458-2.885-8.786
		c-0.203-0.837,1.084-3.091,1.365-3.878c0.791-2.223,1.571-4.455,2.468-6.639c3.643-8.869,10.447-16.884,18.854-21.613
		c8.393-4.721,8.393-4.721,8.393-4.721s-0.786,2.885-2.229,6.032c-1.442,3.147-3.672,6.819-3.672,6.819s-2.229,3.147,1.442,1.968
		c3.672-1.181,17.179-5.377,17.179-5.377s-6.032,16.13-6.688,19.016c-0.656,2.885-3.41,20.327-3.673,27.933
		c-0.262,7.606,0.587,16.393,3.113,18.885c0,0-12.948-2.099-25.014-13.902c0,0-3.015-3.935-4.064-5.901
		C609.511,631.25,609.773,624.955,604.921,621.414z M648.984,553.353c0,0-2.229,0.655-4.853,3.803s-4.065,1.836-5.543,1.296
		s-5.21-1.296-5.21-1.296C638.493,554.271,648.984,553.353,648.984,553.353z M626.166,559.909c6.032-3.278,14.294,0,14.294,0
		s-2.36,1.312-4.983,1.574c-2.623,0.262-9.049,2.229-12.196,4.065s-1.442,1.967-0.131,2.36s5.771,1.967,5.771,1.967
		c-16.786,2.623-25.704,18.753-25.704,18.753C605.469,574.712,620.133,563.188,626.166,559.909z M610.561,581.285
		c6.95-8.262,20.064-10.098,20.064-10.098c1.704,0.656,2.754,1.836,2.754,1.836s-14.032,7.082-21.639,15.737
		s-10.491,20.195-10.491,20.195C599.676,598.464,603.609,589.546,610.561,581.285z M584.069,613.415c0,0,3.672-2.754,6.032-1.049
		c2.361,1.705,4.459,3.672,4.459,3.672s-4.196,4.722,1.312,9.181c5.508,4.458,11.278,3.146,11.278,3.146s1.312,1.836,1.574,3.279
		c0.262,1.442-2.886,8.887-19.672,15.999c-16.786,7.113-25.93,6.82-27.539,5.376c-1.609-1.441-0.394-4.983,1.573-8.393
		C565.055,641.217,577.906,615.774,584.069,613.415z M521.016,573.492c0,0-32.325-6.455-35.546-7.073s-14.134-3.096-15.598-7.744
		c0,0,39.452,12.832,50.85,14.118c0,0-37.959-12.802-41.297-13.699c-3.34-0.897-10.912-2.478-9.663-4.978
		c1.25-2.5,11.347,3.118,16.567,5.36c5.221,2.243,34.938,12.265,34.938,12.265l-0.545,1.052L521.016,573.492z M469.284,551.028
		c-0.831,2.324-0.486,5.14-0.486,5.14l-7.728-3.161c-0.147-1.912,0.979-3.537,0.979-3.537L469.284,551.028z M462.677,546.08
		c0,0-0.07-3.095,5.379-2.265c5.449,0.832,5.449,0.832,5.449,0.832s-3.279,2.368-3.846,3.758L462.677,546.08z M469.174,558.97
		l1.801,2.367c0,0-0.294-0.074-0.782-0.202c-1.948-0.507-6.978-1.861-8.658-2.731c0,0-0.772-0.662-0.883-2.096L469.174,558.97z
		 M502.04,563.389c-4.099-1.728-26.152-11.522-26.152-11.522s-4.721-2.618-5.897,0.838c0,0,0.412-5.272,5.184-7.611
		c0,0,24.605,9.213,27.664,10.228c3.06,1.016,24.973,7.744,25.907,8.007c0.934,0.265,0.934,0.265,0.934,0.265
		s-6.861,2.066-7.647,6.839C522.031,570.434,506.14,565.117,502.04,563.389z M531.804,564.345c0,0,15.751,2.249,21.642,2.566
		c5.89,0.315,8.854,0.714,8.302,2.919c-0.552,2.206-0.516,2.684-0.5,3.5c0.014,0.816-0.367,1.471-1.367,2.222
		c-1,0.75-2.36,1.816-2.604,2.41c-0.243,0.596-2.302,1.957-3.059,2.112c-0.758,0.154-1.758,0.903-1.941,1.64
		c-0.185,0.735-2.439,0.697-6.25-0.66c-3.811-1.356-10.567-2.95-12.796-3.165c-2.229-0.212-9.235-3.183-10.905-3.633
		C522.325,574.257,522.097,566.294,531.804,564.345z M498.651,301.044l10.57,14l0.058-0.186l56.483,144.276l0.427,1.089
		c1.749,4.468,8.373,21.386,9.524,24.331c1.331,3.399-0.146,5.232-4.36,6.882c-4.215,1.648-7.927-2.227-7.927-2.227l-9.898-25.286
		c0.036,0.002,0.072,0.001,0.109,0.003l-56.411-144.089c0,0,0.036,0.026,0.091,0.062l-2.292-17.436
		C495.025,302.464,497.488,302.598,498.651,301.044z M494.22,294l3.793,5.413c0,0-0.623,1.081-2.9,1.135
		C495.112,300.548,493.559,295.513,494.22,294z M357.645,431.69c2.961-2.389,66.006-53.711,66.006-53.711s7.045-5.518,12.379-1.862
		c5.333,3.655,74.073,48.499,74.073,48.499s6.086,3.16,1.313,7.327l-72.259,63.096c0,0-1.361,1.043-0.119,3.151
		c1.242,2.107,2.62,3.979,2.62,3.979s0.501,1.426,2.542,0.082c2.04-1.344,68.236-58.985,68.236-58.985s5.518-4.95,3.34-9.366
		c0,0,3.217,0.66,3.099,3.372c-0.116,2.71-6.079,8.539-10.711,12.613c-4.632,4.075-63.472,55.115-63.472,55.115
		s-1.463,1.11-5.074-1.485c-3.611-2.596-76.386-59.118-76.386-59.118s-3.407-2.731-5.692-6.199
		C355.256,434.727,354.684,434.08,357.645,431.69z M322.721,506.482c1.646-2.338,7.25-0.749,9.397-0.337
		c2.147,0.411,42.114,10.559,63.976,15.993s58.394,17.192,62.667,18.354c4.272,1.161,6.935,2.014,6.935,2.014
		c-2.993,1.096-3.515,1.809-5.329,6.484c-1.815,4.675-0.336,8.968-0.336,8.968c-10.971-1.083-47.229-14.892-47.229-14.892
		s-73.168-26.105-79.543-28.355C326.883,512.461,321.074,508.821,322.721,506.482z M289.558,785.406l0.13,0.217l2.768,2.492
		l7.89,13.095c2.153-1.048,2.933-0.094,2.933-0.094l7.853,10.205l-4.375,2.636l-4.375,2.635l-5.351-11.712
		c0,0-0.47-1.111,1.394-2.504l-7.893-13.102l-0.909-3.612l-0.13-0.217l0.098,0.089L289.558,785.406z M358.664,906.426l-1.037-1.721
		l5.576-3.36l1.037,1.722L358.664,906.426z M364.679,903.797l1.037,1.721l-5.576,3.359l-1.037-1.722L364.679,903.797z
		 M357.182,903.966l-1.037-1.721l5.576-3.359l1.037,1.722L357.182,903.966z M355.618,901.37l-1.037-1.722l5.576-3.359l1.037,1.722
		L355.618,901.37z M356.446,896.438l-2.788,1.68c0,0-2.98-3.315-3.925-4.449s-1.269-1.019-2.988-3.873
		c-1.721-2.855-19.616-32.559-19.616-32.559l-9.382-15.573l-0.811-1.347l-0.694-1.153l8.363-5.039l0.694,1.154l0.812,1.346
		l9.382,15.573c0,0,17.895,29.704,19.615,32.559c1.72,2.854,1.466,3.087,2.027,4.453c0.562,1.364,2.099,5.549,2.099,5.549
		L356.446,896.438z M315.601,838.098l-1.037-1.721l8.363-5.039l1.037,1.723L315.601,838.098z M314.124,835.647l-1.037-1.722
		l8.364-5.038l1.037,1.721L314.124,835.647z M312.642,833.188l-1.037-1.722l8.363-5.038l1.038,1.722L312.642,833.188z
		 M311.078,830.592l-1.037-1.722l8.364-5.039l1.037,1.722L311.078,830.592z M309.52,828.004l-1.037-1.721l8.363-5.039l1.037,1.722
		L309.52,828.004z M308.038,825.545L307,823.823l8.364-5.039l1.038,1.723L308.038,825.545z M306.474,822.948l-1.037-1.72
		l8.363-5.039l1.037,1.721L306.474,822.948z M314.504,814.268l-10.708,6.451c-0.573,0.347-1.318,0.161-1.664-0.411l-0.081-0.136
		c-0.346-0.573-0.16-1.317,0.413-1.664l10.708-6.45c0.574-0.346,1.317-0.161,1.664,0.413l0.081,0.133
		C315.263,813.179,315.078,813.923,314.504,814.268z M280.88,814.61c0,0-0.47-1.113,1.394-2.506l-7.892-13.101l-0.91-3.612
		l-0.13-0.217l0.098,0.089l-0.032-0.128l0.13,0.217l2.769,2.492l7.889,13.096c2.153-1.049,2.934-0.095,2.934-0.095l7.852,10.205
		l-4.375,2.635l-4.375,2.637L280.88,814.61z M285.982,830.036l-0.082-0.135c-0.345-0.572-0.16-1.317,0.413-1.662l10.709-6.452
		c0.573-0.346,1.317-0.161,1.663,0.412l0.081,0.135c0.346,0.573,0.16,1.318-0.413,1.664l-10.709,6.451
		C287.072,830.794,286.328,830.609,285.982,830.036z M289.288,830.958l8.363-5.039l1.037,1.721l-8.363,5.039L289.288,830.958z
		 M290.851,833.553l8.363-5.039l1.039,1.723l-8.364,5.039L290.851,833.553z M292.333,836.014l8.363-5.039l1.037,1.721l-8.363,5.039
		L292.333,836.014z M293.891,838.6l8.364-5.039l1.037,1.723l-8.363,5.038L293.891,838.6z M295.455,841.194l8.364-5.038l1.037,1.722
		l-8.363,5.038L295.455,841.194z M296.937,843.655l8.364-5.039l1.037,1.722l-8.363,5.039L296.937,843.655z M298.414,846.106
		l8.364-5.039l1.037,1.723l-8.363,5.038L298.414,846.106z M333.583,903.396c-0.945-1.133-1.269-1.018-2.989-3.873
		c-1.72-2.854-19.615-32.559-19.615-32.559l-9.381-15.572l-0.811-1.348l-0.695-1.151l8.363-5.039l0.695,1.152l0.812,1.347
		l9.381,15.572c0,0,17.896,29.705,19.616,32.561c1.72,2.854,1.466,3.085,2.027,4.45c0.561,1.366,2.099,5.55,2.099,5.55l-2.788,1.681
		l-2.788,1.679C337.508,907.846,334.529,904.53,333.583,903.396z M338.432,909.379l5.576-3.359l1.037,1.722l-5.575,3.358
		L338.432,909.379z M339.995,911.974l5.576-3.358l1.036,1.721l-5.576,3.358L339.995,911.974z M341.477,914.433l5.576-3.357
		l1.037,1.722l-5.575,3.358L341.477,914.433z M342.954,916.885l5.575-3.359l1.037,1.722l-5.576,3.359L342.954,916.885z
		 M422.931,880.974c0.744,5.443,1.493,20.873-11.18,32.598c-0.402,0.339-5.988,4.941-13.715,7.244
		c-0.753,0.843-1.557,1.674-2.434,2.485c-0.539,0.453-10.349,8.538-22.157,8.539c-2.905,0-5.929-0.489-8.968-1.701
		c-0.415-0.18-9.396-4.116-16.54-10.566l-2.229,1.342l-1.037-1.722l5.096-3.069l1.037,1.722l-1.057,0.637
		c6.833,5.988,15.416,9.753,15.505,9.792c14.253,5.686,28.868-6.366,29.014-6.487c0.041-0.038,0.078-0.077,0.119-0.115
		c-1.547,0.271-3.146,0.439-4.79,0.439c-2.905,0-5.93-0.489-8.969-1.702c-0.414-0.18-9.396-4.116-16.54-10.565l-2.228,1.342
		l-1.037-1.722l5.095-3.068l1.037,1.721l-1.056,0.636c6.833,5.989,15.415,9.753,15.504,9.792c2.712,1.082,5.44,1.521,8.079,1.521
		c2.627,0.001,5.16-0.443,7.51-1.11c8.622-10.042,8.48-21.936,7.897-27.129c-18.727,10.629-24.421,0.661-24.421,0.661
		c-15.316-17.593-61.105-95.555-66.491-104.496c-5.386-8.939-5.393-12.867-0.266-18.708c5.128-5.841,21.219-16.32,21.219-16.32
		s16.787-9.327,24.347-11.131c7.562-1.803,11.029,0.038,16.415,8.979c5.386,8.94,52.905,85.861,61.299,107.625
		C436.99,858.434,443.591,868.838,422.931,880.974z M452.036,714.479c-10.331,3.229-7.787,12.088-7.194,24.118
		c0.593,12.031-12.729,14.432-18.764,13.7c-6.031-0.731-20.76-7.11-39.693-34.21c-18.933-27.099-22.364-47.775-25.135-61.494
		c-2.772-13.718,1.302-43.65,22.855-54.005c21.552-10.358,38.568-9.467,58.314-1.333c19.748,8.13,38.191,26.98,56.082,53.933
		c17.893,26.952,15.34,53.685,14.812,58.808c-0.529,5.122-5.992,22.368-20.386,26.722c-14.394,4.353-21.671-8.834-21.671-8.834
		C460.349,712.988,452.036,714.479,452.036,714.479z M574.791,848.86l-7.151,30.139l1.647,31.551
		c0.138,2.612-1.869,4.841-4.482,4.979l-3.681,0.193c-2.611,0.136-4.841-1.873-4.977-4.484l-1.615-30.902
		c-0.272-0.812-0.33-1.705-0.118-2.599l3.118-13.142c-0.635,0.456-1.451,0.654-2.271,0.46l-8.381,35.32
		c-0.604,2.546-3.158,4.119-5.703,3.515l-0.513-0.121l-0.938,3.955c-0.604,2.545-3.069,4.141-5.508,3.562l-0.99-0.235
		c-1.05,3.75,0.057,5.581,0.179,5.766c1.209,1.125,1.796,2.848,1.388,4.567l-1.554,6.546c0.965,1.112,1.399,2.657,1.033,4.199
		l-2.202,9.281c-0.366,1.544-1.448,2.728-2.81,3.288l-1.558,6.563l0.681,0.161c2.546,0.604,4.12,3.158,3.517,5.702l-5.332,22.471
		c-0.604,2.546-3.158,4.12-5.704,3.516l-18.868-4.478c-2.546-0.604-4.119-3.157-3.515-5.703l5.332-22.47
		c0.49-2.068,2.269-3.495,4.283-3.633l1.603-6.755c-0.979-1.113-1.419-2.668-1.051-4.221l2.202-9.281
		c0.368-1.552,1.461-2.742,2.836-3.299l1.549-6.529c0.406-1.71,1.692-2.98,3.264-3.449H518.5c0,0,1.979-1.042,2.768-5.081
		l-18.194-4.317l0.034,0.082c-1.109,3.962,0.189,5.783,0.189,5.783h-0.002c1.195,1.122,1.773,2.835,1.368,4.546l-1.55,6.529
		c0.979,1.114,1.42,2.669,1.052,4.222l-2.202,9.282c-0.369,1.553-1.462,2.742-2.837,3.298l-1.51,6.363
		c2.349,0.739,3.765,3.175,3.187,5.609l-5.332,22.47c-0.604,2.545-3.157,4.119-5.702,3.515l-18.869-4.478
		c-2.546-0.604-4.119-3.157-3.516-5.702l5.332-22.47c0.576-2.427,2.92-3.965,5.343-3.583l1.514-6.381
		c-0.964-1.112-1.397-2.656-1.031-4.199l2.202-9.283c0.366-1.542,1.447-2.728,2.809-3.287l1.554-6.546
		c0.407-1.719,1.707-2.996,3.291-3.456c0.193-0.112,2.005-1.249,2.75-5.07l0.067-0.059l-4.024-0.955
		c-2.438-0.578-3.923-3.111-3.319-5.656l0.942-3.97c-2.377-0.722-3.813-3.171-3.232-5.62l8.323-35.075
		c-0.082-0.012-0.161-0.013-0.241-0.032c-0.781-0.186-1.401-0.683-1.772-1.326l-3.033,12.785c-0.212,0.893-0.665,1.666-1.273,2.269
		l-15.325,26.882c-1.296,2.272-4.189,3.064-6.463,1.77l-3.201-1.825c-2.272-1.297-3.064-4.19-1.769-6.462l15.648-27.447
		l7.151-30.139c0.604-2.546,3.158-4.119,5.703-3.516l3.585,0.851c1.844,0.438,3.172,1.898,3.538,3.637
		c0.66-0.777,1.714-1.175,2.774-0.923c0.135,0.031,0.258,0.083,0.384,0.133c0.989-1.851,3.129-2.883,5.267-2.375l15.315,3.634
		c-1.856-0.44-3.003-2.302-2.562-4.158c0.032-0.137,0.088-0.261,0.135-0.39l-0.934-0.222c-2.777-0.659-4.494-3.444-3.835-6.222
		l2.028-8.548c-1.657-0.663-2.633-2.441-2.208-4.229l1.349-5.683c0.424-1.789,2.095-2.94,3.873-2.786l2.226-9.382
		c0.659-2.776,3.444-4.493,6.222-3.834l11.217,2.662l1.006-4.242c0.604-2.546,3.158-4.12,5.703-3.517l3.746,0.889
		c2.545,0.604,4.118,3.158,3.515,5.704l-1.007,4.241l9.939,2.359c2.777,0.659,4.496,3.444,3.838,6.221l-2.232,9.408
		c1.966,0.466,3.182,2.438,2.715,4.405l-1.348,5.684c-0.467,1.966-2.439,3.182-4.406,2.715l-1.996,8.416
		c-0.659,2.777-3.446,4.494-6.224,3.835l-1.817-0.432c-0.017,0.136-0.022,0.271-0.055,0.409c-0.441,1.856-2.303,3.003-4.158,2.562
		l16.037,3.806c2.034,0.482,3.443,2.211,3.621,4.184c0.084,0.014,0.165,0.014,0.247,0.034c1.142,0.271,1.949,1.206,2.116,2.298
		c1.113-1.35,2.932-2.032,4.748-1.601l3.586,0.851C573.821,843.762,575.396,846.313,574.791,848.86z M759.812,751.685
		c-4.503,5.759-75.872,101.106-75.872,101.106s-3.885,4.991-8.311,6.162c-4.425,1.173-63.643,15.301-63.643,15.301
		s-3.722,0.962-4.969-0.387c-1.249-1.348-1.249-1.348-1.249-1.348s-0.938-1.73,1.337-4.129c2.275-2.396,35.855-42.037,35.855-42.037
		l-63.217-51.639c0,0-7.539-5.28-0.972-11.125c6.567-5.843,91.181-84.076,91.181-84.076s4.267-3.93,9.567,0.325
		c5.3,4.256,77.107,60.929,77.107,60.929S764.314,745.926,759.812,751.685z"/>
</g>
</svg>
