<?xml version="1.0" encoding="utf-8"?>
<!-- Generator: Adobe Illustrator 15.0.0, SVG Export Plug-In . SVG Version: 6.00 Build 0)  -->
<!DOCTYPE svg PUBLIC "-//W3C//DTD SVG 1.1//EN" "http://www.w3.org/Graphics/SVG/1.1/DTD/svg11.dtd">
<svg version="1.1" id="Layer_1" xmlns="http://www.w3.org/2000/svg" xmlns:xlink="http://www.w3.org/1999/xlink" x="0px" y="0px"
	 width="1008px" height="1296px" viewBox="0 0 1008 1296" enable-background="new 0 0 1008 1296" xml:space="preserve">
<rect fill="#FFFFFF" width="1008" height="1296"/>
<polygon points="547.334,1040.488 547.334,1084.968 550.951,1084.968 550.951,1040.488 550.951,1030.001 550.951,1008.484 
	547.334,1008.484 547.334,1030.001 "/>
<polygon points="633.201,1040.488 633.201,1084.968 636.818,1084.968 636.818,1040.488 636.818,1030.001 636.818,1008.484 
	633.201,1008.484 633.201,1030.001 "/>
<polygon points="476.267,1040.488 476.267,1084.968 534.798,1084.968 534.798,1040.488 534.798,1030.001 534.798,1008.484 
	476.267,1008.484 476.267,1030.001 "/>
<rect x="649.355" y="1081.177" width="162.56" height="3.791"/>
<polygon points="563.488,1040.488 563.488,1084.968 620.665,1084.968 620.665,1040.488 620.665,1030.001 620.665,1008.484 
	563.488,1008.484 563.488,1030.001 "/>
<rect x="198.141" y="1081.177" width="162.561" height="3.791"/>
<polygon points="373.238,1040.488 373.238,1084.968 376.855,1084.968 376.855,1040.488 376.855,1030.001 376.855,1008.484 
	373.238,1008.484 373.238,1030.001 "/>
<polygon points="460.111,1040.488 460.111,1084.968 463.729,1084.968 463.729,1040.488 463.729,1030.001 463.729,1008.484 
	460.111,1008.484 460.111,1030.001 "/>
<polygon points="389.392,1040.488 389.392,1084.968 447.575,1084.968 447.575,1040.488 447.575,1030.001 447.575,1008.484 
	389.392,1008.484 389.392,1030.001 "/>
<g>
	<path d="M98.508,137.583v-34.224h5.184v34.224H98.508z"/>
	<path d="M126.875,137.583v-14.867c0-1.829-0.453-3.191-1.358-4.09c-0.904-0.897-2.1-1.347-3.585-1.347
		c-1.487,0-2.707,0.458-3.659,1.372c-0.954,0.914-1.43,2.27-1.43,4.065v14.867h-4.8v-24.384h4.8v2.448
		c1.696-1.824,3.856-2.736,6.48-2.736c1.248,0,2.376,0.185,3.384,0.554c1.008,0.369,1.92,0.954,2.736,1.755
		c0.816,0.802,1.408,1.764,1.776,2.886c0.368,1.122,0.552,2.421,0.552,3.896v15.582H126.875z"/>
	<path d="M171.034,137.583l-2.326-6.912H155.22l-2.377,6.912h-5.52l12.527-34.224h4.176l12.527,34.224H171.034z M162.066,111.131
		l-5.298,15.172h10.443L162.066,111.131z"/>
	<path d="M210.49,137.583v-14.867c0-1.829-0.448-3.191-1.344-4.09c-0.896-0.897-2.081-1.347-3.552-1.347
		c-1.44,0-2.64,0.441-3.6,1.323c-0.96,0.882-1.44,2.174-1.44,3.873v15.108h-4.896v-14.867c0-1.829-0.453-3.191-1.358-4.09
		c-0.904-0.897-2.1-1.347-3.585-1.347c-1.487,0-2.707,0.458-3.659,1.372c-0.954,0.914-1.43,2.27-1.43,4.065v14.867h-4.8v-24.384h4.8
		v2.448c0.799-0.864,1.776-1.536,2.928-2.016c1.152-0.48,2.335-0.72,3.552-0.72c3.072,0,5.376,1.184,6.912,3.552
		c1.952-2.368,4.496-3.552,7.632-3.552c1.248,0,2.4,0.193,3.456,0.578s1.984,0.97,2.784,1.755c0.799,0.786,1.416,1.764,1.848,2.934
		c0.432,1.17,0.648,2.445,0.648,3.823v15.582H210.49z"/>
	<path d="M226.57,126.783c0,2.144,0.535,3.816,1.608,5.016c1.072,1.2,2.6,1.8,4.584,1.8c1.344,0,2.432-0.184,3.264-0.552
		c0.832-0.368,1.711-1.016,2.64-1.944l3.12,2.928c-1.312,1.312-2.648,2.272-4.008,2.88c-1.361,0.608-3.064,0.912-5.112,0.912
		c-3.36,0-6.032-0.976-8.016-2.928c-1.985-1.951-2.976-5.136-2.976-9.552c0-3.904,0.928-6.952,2.784-9.144
		c1.855-2.191,4.368-3.288,7.536-3.288c3.2,0,5.72,1.08,7.56,3.24c1.84,2.16,2.76,4.984,2.76,8.472v2.16H226.57z M236.797,120.062
		c-0.383-0.928-0.996-1.671-1.841-2.232c-0.844-0.56-1.824-0.84-2.938-0.84c-1.147,0-2.135,0.272-2.963,0.816
		c-0.828,0.544-1.45,1.296-1.863,2.256c-0.414,0.96-0.621,2.064-0.621,3.312h10.896
		C237.466,122.191,237.243,121.087,236.797,120.062z"/>
	<path d="M262.089,118.911c-0.544-0.544-1.097-0.952-1.656-1.224c-0.56-0.271-1.224-0.408-1.992-0.408
		c-1.376,0-2.528,0.497-3.456,1.492c-0.929,0.995-1.392,2.325-1.392,3.993v14.819h-4.8v-24.384h4.8v2.64
		c0.576-0.864,1.448-1.568,2.616-2.112c1.167-0.543,2.424-0.816,3.768-0.816c1.28,0,2.344,0.161,3.192,0.48
		c0.847,0.32,1.72,0.929,2.616,1.824L262.089,118.911z"/>
	<path d="M269.721,108.447v-5.184h5.184v5.184H269.721z M269.865,137.583v-24.336h4.896v24.336H269.865z"/>
	<path d="M292.136,137.823c-3.072,0-5.648-1.008-7.728-3.024c-2.08-2.016-3.12-5.167-3.12-9.456c0-4.255,1.04-7.392,3.12-9.408
		s4.656-3.024,7.728-3.024c1.728,0,3.2,0.256,4.416,0.768c1.216,0.512,2.416,1.392,3.6,2.64l-3.36,3.264
		c-1.409-1.536-2.96-2.304-4.656-2.304c-1.92,0-3.392,0.665-4.416,1.992c-1.024,1.329-1.536,3.353-1.536,6.072
		c0,2.752,0.511,4.792,1.536,6.12c1.024,1.328,2.496,1.992,4.416,1.992c0.992,0,1.808-0.16,2.448-0.48
		c0.64-0.319,1.375-0.928,2.208-1.824l3.36,3.216C297.976,136.671,295.304,137.823,292.136,137.823z"/>
	<path d="M318.92,137.583v-2.208c-0.929,0.911-1.856,1.546-2.784,1.907c-0.929,0.361-2.16,0.542-3.696,0.542
		c-2.88,0-5.009-0.704-6.384-2.112c-1.376-1.408-2.064-3.184-2.064-5.328c0-2.112,0.725-3.808,2.173-5.088
		c1.449-1.279,3.543-1.92,6.281-1.92h6.474v-1.728c0-1.567-0.42-2.719-1.259-3.456c-0.84-0.735-2.212-1.104-4.117-1.104
		c-1.325,0-2.382,0.168-3.173,0.504c-0.791,0.336-1.525,0.952-2.203,1.848l-3.216-3.024c1.12-1.279,2.344-2.184,3.672-2.712
		c1.328-0.528,3.016-0.792,5.064-0.792c6.688,0,10.032,2.79,10.032,8.369v16.303H318.92z M318.92,126.783h-5.767
		c-2.94,0-4.409,1.168-4.409,3.504c0,2.304,1.502,3.456,4.507,3.456c1.163,0,2.059-0.08,2.689-0.24
		c0.63-0.16,1.284-0.567,1.962-1.224c0.678-0.656,1.018-1.832,1.018-3.528V126.783z"/>
	<path d="M331.112,144.963v-12.996h5.568v8.44L331.112,144.963z"/>
	<path d="M359.479,126.783c0,2.144,0.535,3.816,1.608,5.016c1.072,1.2,2.6,1.8,4.584,1.8c1.344,0,2.432-0.184,3.264-0.552
		c0.832-0.368,1.711-1.016,2.64-1.944l3.12,2.928c-1.312,1.312-2.648,2.272-4.008,2.88c-1.361,0.608-3.064,0.912-5.112,0.912
		c-3.36,0-6.032-0.976-8.016-2.928c-1.985-1.951-2.976-5.136-2.976-9.552c0-3.904,0.928-6.952,2.784-9.144
		c1.855-2.191,4.368-3.288,7.536-3.288c3.2,0,5.72,1.08,7.56,3.24c1.84,2.16,2.76,4.984,2.76,8.472v2.16H359.479z M369.706,120.062
		c-0.383-0.928-0.996-1.671-1.841-2.232c-0.844-0.56-1.824-0.84-2.938-0.84c-1.147,0-2.135,0.272-2.963,0.816
		c-0.828,0.544-1.45,1.296-1.863,2.256c-0.414,0.96-0.621,2.064-0.621,3.312h10.896
		C370.375,122.191,370.151,121.087,369.706,120.062z"/>
	<path d="M395.669,137.535v-2.592c-0.864,1.056-1.8,1.8-2.808,2.232c-1.008,0.432-2.216,0.648-3.624,0.648
		c-1.216,0-2.336-0.185-3.36-0.552c-1.024-0.367-1.984-1-2.88-1.896c-0.896-0.896-1.529-2.232-1.896-4.008
		c-0.368-1.776-0.552-3.784-0.552-6.024c0-3.008,0.242-5.256,0.725-6.744s1.304-2.808,2.464-3.96s2.995-1.728,5.507-1.728
		c1.384,0,2.583,0.2,3.598,0.6c1.014,0.4,1.956,1.112,2.826,2.136v-12.288h4.8v34.176H395.669z M390.582,117.279
		c-2.036,0-3.4,0.712-4.094,2.136c-0.694,1.424-1.042,3.4-1.042,5.928c0,2.592,0.348,4.592,1.042,6
		c0.694,1.408,2.059,2.112,4.094,2.112s3.392-0.704,4.07-2.112c0.678-1.408,1.018-3.408,1.018-6c0-2.56-0.34-4.543-1.018-5.952
		C393.974,117.983,392.617,117.279,390.582,117.279z"/>
	<path d="M422.934,137.583v-2.448c-1.696,1.792-3.856,2.688-6.48,2.688c-1.248,0-2.376-0.185-3.384-0.552
		c-1.008-0.367-1.92-0.952-2.736-1.752c-0.815-0.799-1.408-1.759-1.775-2.88c-0.368-1.12-0.552-2.416-0.552-3.888v-15.552h4.896
		v14.832c0,1.824,0.452,3.185,1.356,4.08c0.905,0.896,2.101,1.344,3.587,1.344s2.706-0.456,3.659-1.368
		c0.952-0.912,1.43-2.263,1.43-4.056v-14.832h4.8v24.384H422.934z"/>
	<path d="M445.109,137.823c-3.072,0-5.648-1.008-7.729-3.024c-2.08-2.016-3.12-5.167-3.12-9.456c0-4.255,1.04-7.392,3.12-9.408
		s4.656-3.024,7.729-3.024c1.728,0,3.199,0.256,4.416,0.768c1.216,0.512,2.415,1.392,3.6,2.64l-3.36,3.264
		c-1.408-1.536-2.96-2.304-4.655-2.304c-1.92,0-3.393,0.665-4.416,1.992c-1.024,1.329-1.536,3.353-1.536,6.072
		c0,2.752,0.512,4.792,1.536,6.12c1.023,1.328,2.496,1.992,4.416,1.992c0.991,0,1.808-0.16,2.447-0.48
		c0.641-0.319,1.376-0.928,2.208-1.824l3.36,3.216C450.948,136.671,448.277,137.823,445.109,137.823z"/>
	<path d="M471.893,137.583v-2.208c-0.929,0.911-1.856,1.546-2.784,1.907c-0.929,0.361-2.16,0.542-3.696,0.542
		c-2.88,0-5.008-0.704-6.384-2.112c-1.376-1.408-2.063-3.184-2.063-5.328c0-2.112,0.724-3.808,2.173-5.088
		c1.449-1.279,3.543-1.92,6.28-1.92h6.475v-1.728c0-1.567-0.42-2.719-1.26-3.456c-0.84-0.735-2.211-1.104-4.116-1.104
		c-1.325,0-2.382,0.168-3.173,0.504s-1.525,0.952-2.203,1.848l-3.216-3.024c1.119-1.279,2.344-2.184,3.672-2.712
		c1.327-0.528,3.016-0.792,5.063-0.792c6.688,0,10.032,2.79,10.032,8.369v16.303H471.893z M471.893,126.783h-5.767
		c-2.94,0-4.409,1.168-4.409,3.504c0,2.304,1.502,3.456,4.506,3.456c1.163,0,2.06-0.08,2.689-0.24
		c0.63-0.16,1.284-0.567,1.963-1.224c0.678-0.656,1.018-1.832,1.018-3.528V126.783z"/>
	<path d="M491.477,137.583c-2.144,0-3.792-0.657-4.943-1.972c-1.152-1.315-1.729-2.918-1.729-4.812v-13.424h-2.784v-3.744h2.784
		v-7.392h4.896v7.392h4.704v3.744h-4.704v13.192c0,1.894,0.896,2.84,2.688,2.84h2.017v4.176H491.477z"/>
	<path d="M500.501,108.447v-5.184h5.184v5.184H500.501z M500.645,137.583v-24.336h4.896v24.336H500.645z"/>
	<path d="M529.589,134.943c-0.864,0.896-1.896,1.6-3.096,2.112c-1.2,0.512-2.601,0.768-4.2,0.768c-1.568,0-2.952-0.256-4.152-0.768
		s-2.288-1.279-3.264-2.304c-0.977-1.023-1.673-2.287-2.088-3.792c-0.417-1.503-0.624-3.375-0.624-5.616
		c0-2.176,0.207-4.032,0.624-5.568c0.415-1.536,1.111-2.808,2.088-3.816c0.976-1.008,2.056-1.768,3.24-2.28
		c1.183-0.512,2.575-0.768,4.176-0.768c1.567,0,2.959,0.256,4.176,0.768c1.216,0.512,2.312,1.28,3.288,2.304
		c0.976,1.024,1.672,2.288,2.088,3.792c0.415,1.504,0.624,3.36,0.624,5.568s-0.209,4.08-0.624,5.616
		C531.429,132.495,530.676,133.823,529.589,134.943z M525.893,118.671c-0.929-0.928-2.128-1.392-3.6-1.392
		c-1.44,0-2.561,0.4-3.36,1.2c-0.8,0.8-1.312,1.752-1.536,2.856s-0.336,2.441-0.336,4.008c0,1.696,0.104,3.056,0.312,4.08
		c0.207,1.024,0.728,1.952,1.56,2.784c0.832,0.833,1.951,1.248,3.36,1.248c1.439,0,2.567-0.408,3.384-1.224
		c0.816-0.816,1.336-1.776,1.56-2.88s0.336-2.439,0.336-4.008c0-1.696-0.104-3.056-0.312-4.08
		C527.052,120.239,526.597,119.375,525.893,118.671z"/>
	<path d="M553.924,137.583v-14.867c0-1.829-0.453-3.191-1.357-4.09c-0.904-0.897-2.1-1.347-3.586-1.347s-2.706,0.458-3.659,1.372
		s-1.429,2.27-1.429,4.065v14.867h-4.801v-24.384h4.801v2.448c1.695-1.824,3.855-2.736,6.479-2.736c1.248,0,2.376,0.185,3.384,0.554
		c1.008,0.369,1.92,0.954,2.736,1.755c0.815,0.802,1.407,1.764,1.776,2.886c0.367,1.122,0.552,2.421,0.552,3.896v15.582H553.924z"/>
	<path d="M577.731,108.447v-5.184h5.184v5.184H577.731z M577.875,137.583v-24.336h4.896v24.336H577.875z"/>
	<path d="M598.419,137.823c-2.208,0-4.12-0.249-5.735-0.744c-1.616-0.496-3.113-1.416-4.488-2.76l3.216-3.216
		c0.896,0.929,1.951,1.584,3.168,1.968c1.216,0.384,2.496,0.576,3.84,0.576c1.567,0,2.848-0.28,3.84-0.84
		c0.992-0.56,1.488-1.399,1.488-2.52c0-0.896-0.257-1.6-0.768-2.112c-0.513-0.512-1.345-0.768-2.496-0.768l-3.889-0.336
		c-2.368-0.192-4.16-0.832-5.376-1.92s-1.823-2.688-1.823-4.8c0-2.335,0.855-4.159,2.567-5.472c1.712-1.312,3.912-1.968,6.601-1.968
		c1.888,0,3.583,0.216,5.088,0.648c1.504,0.432,2.815,1.128,3.936,2.088l-3.071,3.12c-0.705-0.607-1.593-1.056-2.664-1.344
		c-1.073-0.288-2.185-0.432-3.336-0.432c-1.44,0-2.537,0.28-3.288,0.84c-0.753,0.561-1.128,1.32-1.128,2.28
		c0,0.8,0.247,1.432,0.743,1.896s1.368,0.76,2.616,0.888l3.84,0.336c2.368,0.192,4.168,0.849,5.4,1.968
		c1.231,1.121,1.848,2.752,1.848,4.896c0,2.464-0.936,4.368-2.808,5.712C603.867,137.151,601.427,137.823,598.419,137.823z"/>
	<path d="M639.122,137.583v-2.208c-0.929,0.911-1.856,1.546-2.784,1.907c-0.929,0.361-2.16,0.542-3.696,0.542
		c-2.88,0-5.008-0.704-6.384-2.112c-1.376-1.408-2.063-3.184-2.063-5.328c0-2.112,0.724-3.808,2.173-5.088
		c1.449-1.279,3.543-1.92,6.28-1.92h6.475v-1.728c0-1.567-0.42-2.719-1.26-3.456c-0.84-0.735-2.211-1.104-4.116-1.104
		c-1.325,0-2.382,0.168-3.173,0.504s-1.525,0.952-2.203,1.848l-3.216-3.024c1.119-1.279,2.344-2.184,3.672-2.712
		c1.327-0.528,3.016-0.792,5.063-0.792c6.688,0,10.032,2.79,10.032,8.369v16.303H639.122z M639.122,126.783h-5.767
		c-2.94,0-4.409,1.168-4.409,3.504c0,2.304,1.502,3.456,4.506,3.456c1.163,0,2.06-0.08,2.689-0.24
		c0.63-0.16,1.284-0.567,1.963-1.224c0.678-0.656,1.018-1.832,1.018-3.528V126.783z"/>
	<path d="M680.144,135.663c-1.449,1.44-3.431,2.16-5.942,2.16c-1.417,0-2.625-0.2-3.623-0.6s-1.932-1.128-2.801-2.184v12.384h-4.801
		v-34.224h4.801v2.544c0.863-1.038,1.8-1.77,2.808-2.194c1.008-0.425,2.216-0.638,3.624-0.638c1.216,0,2.335,0.185,3.36,0.552
		c1.023,0.368,1.983,1,2.88,1.896c0.896,0.896,1.527,2.232,1.896,4.008c0.367,1.776,0.552,3.768,0.552,5.976
		c0,2.368-0.178,4.4-0.531,6.096C682.011,133.135,681.271,134.543,680.144,135.663z M672.913,117.23c-2.036,0-3.4,0.715-4.095,2.143
		c-0.694,1.428-1.041,3.41-1.041,5.945c0,2.599,0.347,4.605,1.041,6.018c0.694,1.413,2.059,2.118,4.095,2.118
		c2.035,0,3.392-0.706,4.07-2.118c0.678-1.412,1.018-3.418,1.018-6.018c0-2.567-0.34-4.557-1.018-5.969
		C676.305,117.937,674.948,117.23,672.913,117.23z"/>
	<path d="M702.816,118.911c-0.544-0.544-1.096-0.952-1.655-1.224c-0.561-0.271-1.225-0.408-1.992-0.408
		c-1.376,0-2.528,0.497-3.456,1.492c-0.929,0.995-1.392,2.325-1.392,3.993v14.819h-4.801v-24.384h4.801v2.64
		c0.575-0.864,1.447-1.568,2.615-2.112c1.168-0.543,2.424-0.816,3.769-0.816c1.279,0,2.344,0.161,3.191,0.48
		c0.848,0.32,1.72,0.929,2.616,1.824L702.816,118.911z"/>
	<path d="M710.448,108.447v-5.184h5.184v5.184H710.448z M710.592,137.583v-24.336h4.896v24.336H710.592z"/>
	<path d="M732.672,137.583h-3.984l-8.928-24.384l5.211-0.01l5.735,17.058l5.684-17.058l5.21,0.01L732.672,137.583z"/>
	<path d="M745.728,108.447v-5.184h5.184v5.184H745.728z M745.871,137.583v-24.336h4.896v24.336H745.871z"/>
	<path d="M765.071,137.583c-2.208,0-3.872-0.632-4.992-1.898c-1.12-1.266-1.68-2.876-1.68-4.832v-27.494h4.896v27.211
		c0,0.961,0.2,1.675,0.601,2.14c0.399,0.465,1.08,0.697,2.04,0.697h2.16v4.176H765.071z"/>
	<path d="M777.119,126.783c0,2.144,0.535,3.816,1.607,5.016c1.072,1.2,2.6,1.8,4.584,1.8c1.345,0,2.432-0.184,3.265-0.552
		c0.832-0.368,1.711-1.016,2.64-1.944l3.12,2.928c-1.312,1.312-2.648,2.272-4.008,2.88c-1.36,0.608-3.064,0.912-5.112,0.912
		c-3.359,0-6.032-0.976-8.016-2.928c-1.984-1.951-2.977-5.136-2.977-9.552c0-3.904,0.928-6.952,2.784-9.144
		c1.855-2.191,4.368-3.288,7.536-3.288c3.199,0,5.72,1.08,7.56,3.24c1.84,2.16,2.761,4.984,2.761,8.472v2.16H777.119z
		 M787.346,120.062c-0.382-0.928-0.996-1.671-1.84-2.232c-0.845-0.56-1.824-0.84-2.938-0.84c-1.147,0-2.136,0.272-2.964,0.816
		c-0.828,0.544-1.449,1.296-1.863,2.256s-0.621,2.064-0.621,3.312h10.896C788.015,122.191,787.792,121.087,787.346,120.062z"/>
	<path d="M807.502,147.663c-1.824,0-3.393-0.24-4.704-0.72c-1.312-0.48-2.608-1.312-3.888-2.496l3.12-3.12
		c0.832,0.768,1.624,1.32,2.376,1.656c0.751,0.336,1.72,0.504,2.904,0.504c1.951,0,3.391-0.582,4.319-1.743
		c0.928-1.163,1.393-2.635,1.393-4.417v-3.104c-0.833,0.975-1.761,1.675-2.784,2.099c-1.024,0.425-2.192,0.637-3.504,0.637
		c-1.185,0-2.272-0.184-3.265-0.552c-0.992-0.368-1.937-1-2.832-1.896c-0.896-0.896-1.528-2.12-1.896-3.672
		c-0.368-1.552-0.552-3.528-0.552-5.928c0-2.368,0.184-4.336,0.552-5.904c0.367-1.568,1.176-2.976,2.424-4.224
		s3.12-1.872,5.616-1.872c1.375,0,2.56,0.205,3.552,0.613c0.991,0.41,1.936,1.149,2.832,2.219v-2.544h4.752v24.192
		c0,3.007-0.944,5.472-2.832,7.392C813.197,146.703,810.67,147.663,807.502,147.663z M808.078,117.23
		c-1.984,0-3.312,0.693-3.984,2.078c-0.672,1.385-1.008,3.252-1.008,5.603c0,2.383,0.328,4.259,0.984,5.627
		c0.655,1.369,1.992,2.053,4.008,2.053c1.983,0,3.304-0.676,3.96-2.029c0.655-1.353,0.984-3.236,0.984-5.651
		c0-3.091-0.433-5.144-1.296-6.158C810.862,117.738,809.646,117.23,808.078,117.23z"/>
	<path d="M829.342,126.783c0,2.144,0.535,3.816,1.607,5.016c1.072,1.2,2.6,1.8,4.584,1.8c1.345,0,2.432-0.184,3.265-0.552
		c0.832-0.368,1.711-1.016,2.64-1.944l3.12,2.928c-1.312,1.312-2.648,2.272-4.008,2.88c-1.36,0.608-3.064,0.912-5.112,0.912
		c-3.359,0-6.032-0.976-8.016-2.928c-1.984-1.951-2.977-5.136-2.977-9.552c0-3.904,0.928-6.952,2.784-9.144
		c1.855-2.191,4.368-3.288,7.536-3.288c3.199,0,5.72,1.08,7.56,3.24c1.84,2.16,2.761,4.984,2.761,8.472v2.16H829.342z
		 M839.568,120.062c-0.382-0.928-0.996-1.671-1.84-2.232c-0.845-0.56-1.824-0.84-2.938-0.84c-1.147,0-2.136,0.272-2.964,0.816
		c-0.828,0.544-1.449,1.296-1.863,2.256s-0.621,2.064-0.621,3.312h10.896C840.237,122.191,840.015,121.087,839.568,120.062z"/>
	<path d="M851.421,137.583v-5.904h5.855v5.904H851.421z"/>
	<path d="M877.004,137.583v-34.224h5.185v34.224H877.004z"/>
	<path d="M905.371,137.583v-14.867c0-1.829-0.453-3.191-1.357-4.09c-0.904-0.897-2.1-1.347-3.586-1.347s-2.706,0.458-3.659,1.372
		s-1.429,2.27-1.429,4.065v14.867h-4.801v-24.384h4.801v2.448c1.695-1.824,3.855-2.736,6.479-2.736c1.248,0,2.376,0.185,3.384,0.554
		c1.008,0.369,1.92,0.954,2.736,1.755c0.815,0.802,1.407,1.764,1.776,2.886c0.367,1.122,0.552,2.421,0.552,3.896v15.582H905.371z"/>
	<path d="M230.458,192.543c-0.864,0.896-1.896,1.6-3.096,2.112s-2.6,0.768-4.2,0.768c-1.568,0-2.952-0.256-4.152-0.768
		c-1.2-0.512-2.288-1.279-3.264-2.304c-0.977-1.023-1.673-2.287-2.088-3.792c-0.416-1.503-0.624-3.375-0.624-5.616
		c0-2.176,0.208-4.032,0.624-5.568c0.416-1.536,1.112-2.808,2.088-3.816c0.976-1.008,2.056-1.768,3.24-2.28
		c1.184-0.512,2.576-0.768,4.176-0.768c1.568,0,2.96,0.256,4.176,0.768c1.216,0.512,2.312,1.28,3.288,2.304
		c0.976,1.024,1.671,2.288,2.088,3.792c0.416,1.504,0.624,3.36,0.624,5.568s-0.208,4.08-0.624,5.616
		C232.298,190.095,231.546,191.423,230.458,192.543z M226.762,176.271c-0.928-0.928-2.128-1.392-3.6-1.392
		c-1.44,0-2.56,0.4-3.36,1.2c-0.8,0.8-1.312,1.752-1.536,2.856c-0.224,1.104-0.336,2.441-0.336,4.008
		c0,1.696,0.104,3.056,0.312,4.08c0.208,1.024,0.728,1.952,1.56,2.784c0.832,0.833,1.952,1.248,3.36,1.248
		c1.44,0,2.568-0.408,3.384-1.224c0.816-0.816,1.336-1.776,1.56-2.88c0.224-1.104,0.336-2.439,0.336-4.008
		c0-1.696-0.104-3.056-0.312-4.08C227.922,177.839,227.466,176.975,226.762,176.271z"/>
	<path d="M247.21,195.183c-2.145,0-3.792-0.657-4.944-1.972c-1.152-1.315-1.728-2.918-1.728-4.812v-13.424h-2.784v-3.744h2.784
		v-7.392h4.896v7.392h4.704v3.744h-4.704v13.192c0,1.894,0.896,2.84,2.688,2.84h2.016v4.176H247.21z"/>
	<path d="M271.113,195.183V180.22c0-1.764-0.449-3.096-1.344-3.994c-0.896-0.897-2.08-1.347-3.552-1.347
		c-1.44,0-2.625,0.449-3.552,1.347c-0.928,0.898-1.392,2.23-1.392,3.994v14.963h-4.896v-34.224h4.896v12.288
		c1.696-1.824,3.792-2.736,6.288-2.736c2.656,0,4.728,0.81,6.216,2.429c1.488,1.619,2.232,3.792,2.232,6.516v15.727H271.113z"/>
	<path d="M287.193,184.383c0,2.144,0.535,3.816,1.608,5.016c1.072,1.2,2.6,1.8,4.584,1.8c1.344,0,2.432-0.184,3.264-0.552
		c0.832-0.368,1.711-1.016,2.64-1.944l3.12,2.928c-1.312,1.312-2.648,2.272-4.008,2.88c-1.361,0.608-3.064,0.912-5.112,0.912
		c-3.36,0-6.032-0.976-8.016-2.928c-1.985-1.951-2.976-5.136-2.976-9.552c0-3.904,0.928-6.952,2.784-9.144
		c1.855-2.191,4.368-3.288,7.536-3.288c3.2,0,5.72,1.08,7.56,3.24c1.84,2.16,2.76,4.984,2.76,8.472v2.16H287.193z M297.42,177.663
		c-0.383-0.928-0.996-1.671-1.841-2.232c-0.844-0.56-1.824-0.84-2.938-0.84c-1.147,0-2.135,0.272-2.963,0.816
		c-0.828,0.544-1.45,1.296-1.863,2.256c-0.414,0.96-0.621,2.064-0.621,3.312h10.896C298.089,179.792,297.866,178.688,297.42,177.663
		z"/>
	<path d="M322.712,176.511c-0.544-0.544-1.097-0.952-1.656-1.224c-0.56-0.271-1.224-0.408-1.992-0.408
		c-1.376,0-2.528,0.497-3.456,1.492c-0.929,0.995-1.392,2.325-1.392,3.993v14.819h-4.8v-24.384h4.8v2.64
		c0.576-0.864,1.448-1.568,2.616-2.112c1.167-0.543,2.424-0.816,3.768-0.816c1.28,0,2.344,0.161,3.192,0.48
		c0.847,0.32,1.72,0.929,2.616,1.824L322.712,176.511z"/>
	<path d="M351.607,195.423c-3.072,0-5.648-1.008-7.728-3.024c-2.08-2.016-3.12-5.167-3.12-9.456c0-4.255,1.04-7.392,3.12-9.408
		s4.656-3.024,7.728-3.024c1.728,0,3.2,0.256,4.416,0.768c1.216,0.512,2.416,1.392,3.6,2.64l-3.36,3.264
		c-1.409-1.536-2.96-2.304-4.656-2.304c-1.92,0-3.392,0.665-4.416,1.992c-1.024,1.329-1.536,3.353-1.536,6.072
		c0,2.752,0.511,4.792,1.536,6.12c1.024,1.328,2.496,1.992,4.416,1.992c0.992,0,1.808-0.16,2.448-0.48
		c0.64-0.319,1.375-0.928,2.208-1.824l3.36,3.216C357.447,194.271,354.775,195.423,351.607,195.423z"/>
	<path d="M381.559,192.543c-0.864,0.896-1.896,1.6-3.096,2.112s-2.6,0.768-4.2,0.768c-1.568,0-2.952-0.256-4.152-0.768
		c-1.2-0.512-2.288-1.279-3.264-2.304c-0.977-1.023-1.673-2.287-2.088-3.792c-0.416-1.503-0.624-3.375-0.624-5.616
		c0-2.176,0.208-4.032,0.624-5.568c0.416-1.536,1.112-2.808,2.088-3.816c0.976-1.008,2.056-1.768,3.24-2.28
		c1.184-0.512,2.576-0.768,4.176-0.768c1.568,0,2.96,0.256,4.176,0.768c1.216,0.512,2.312,1.28,3.288,2.304
		c0.976,1.024,1.671,2.288,2.088,3.792c0.416,1.504,0.624,3.36,0.624,5.568s-0.208,4.08-0.624,5.616
		C383.398,190.095,382.646,191.423,381.559,192.543z M377.863,176.271c-0.928-0.928-2.128-1.392-3.6-1.392
		c-1.44,0-2.56,0.4-3.36,1.2c-0.8,0.8-1.312,1.752-1.536,2.856c-0.224,1.104-0.336,2.441-0.336,4.008
		c0,1.696,0.104,3.056,0.312,4.08c0.208,1.024,0.728,1.952,1.56,2.784c0.832,0.833,1.952,1.248,3.36,1.248
		c1.44,0,2.568-0.408,3.384-1.224c0.816-0.816,1.336-1.776,1.56-2.88c0.224-1.104,0.336-2.439,0.336-4.008
		c0-1.696-0.104-3.056-0.312-4.08C379.022,177.839,378.566,176.975,377.863,176.271z"/>
	<path d="M405.751,195.183v-2.448c-1.697,1.792-3.857,2.688-6.48,2.688c-1.248,0-2.376-0.185-3.384-0.552
		c-1.008-0.367-1.92-0.952-2.736-1.752c-0.816-0.799-1.409-1.759-1.776-2.88c-0.369-1.12-0.552-2.416-0.552-3.888v-15.552h4.896
		v14.832c0,1.824,0.452,3.185,1.357,4.08c0.904,0.896,2.1,1.344,3.586,1.344c1.486,0,2.707-0.456,3.66-1.368
		c0.951-0.912,1.43-2.263,1.43-4.056v-14.832h4.799v24.384H405.751z"/>
	<path d="M433.158,195.183v-14.867c0-1.829-0.453-3.191-1.357-4.09c-0.904-0.897-2.1-1.347-3.586-1.347s-2.706,0.458-3.659,1.372
		s-1.429,2.27-1.429,4.065v14.867h-4.801v-24.384h4.801v2.448c1.695-1.824,3.855-2.736,6.479-2.736c1.248,0,2.376,0.185,3.384,0.554
		c1.008,0.369,1.92,0.954,2.736,1.755c0.815,0.802,1.407,1.764,1.776,2.886c0.367,1.122,0.552,2.421,0.552,3.896v15.582H433.158z"/>
	<path d="M452.838,195.183c-2.144,0-3.792-0.657-4.943-1.972c-1.152-1.315-1.729-2.918-1.729-4.812v-13.424h-2.784v-3.744h2.784
		v-7.392h4.896v7.392h4.704v3.744h-4.704v13.192c0,1.894,0.896,2.84,2.688,2.84h2.017v4.176H452.838z"/>
	<path d="M475.302,176.511c-0.544-0.544-1.096-0.952-1.655-1.224c-0.561-0.271-1.225-0.408-1.992-0.408
		c-1.376,0-2.528,0.497-3.456,1.492c-0.929,0.995-1.392,2.325-1.392,3.993v14.819h-4.801v-24.384h4.801v2.64
		c0.575-0.864,1.447-1.568,2.615-2.112c1.168-0.543,2.424-0.816,3.769-0.816c1.279,0,2.344,0.161,3.191,0.48
		c0.848,0.32,1.72,0.929,2.616,1.824L475.302,176.511z"/>
	<path d="M482.935,166.047v-5.184h5.184v5.184H482.935z M483.078,195.183v-24.336h4.896v24.336H483.078z"/>
	<path d="M499.398,184.383c0,2.144,0.535,3.816,1.607,5.016c1.072,1.2,2.6,1.8,4.584,1.8c1.345,0,2.432-0.184,3.265-0.552
		c0.832-0.368,1.711-1.016,2.64-1.944l3.12,2.928c-1.312,1.312-2.648,2.272-4.008,2.88c-1.36,0.608-3.064,0.912-5.112,0.912
		c-3.359,0-6.032-0.976-8.016-2.928c-1.984-1.951-2.977-5.136-2.977-9.552c0-3.904,0.928-6.952,2.784-9.144
		c1.855-2.191,4.368-3.288,7.536-3.288c3.199,0,5.72,1.08,7.56,3.24c1.84,2.16,2.761,4.984,2.761,8.472v2.16H499.398z
		 M509.625,177.663c-0.382-0.928-0.996-1.671-1.84-2.232c-0.845-0.56-1.824-0.84-2.938-0.84c-1.147,0-2.136,0.272-2.964,0.816
		c-0.828,0.544-1.449,1.296-1.863,2.256s-0.621,2.064-0.621,3.312h10.896C510.294,179.792,510.071,178.688,509.625,177.663z"/>
	<path d="M529.493,195.423c-2.208,0-4.12-0.249-5.735-0.744c-1.616-0.496-3.113-1.416-4.488-2.76l3.216-3.216
		c0.896,0.929,1.951,1.584,3.168,1.968c1.216,0.384,2.496,0.576,3.84,0.576c1.567,0,2.848-0.28,3.84-0.84
		c0.992-0.56,1.488-1.399,1.488-2.52c0-0.896-0.257-1.6-0.768-2.112c-0.513-0.512-1.345-0.768-2.496-0.768l-3.889-0.336
		c-2.368-0.192-4.16-0.832-5.376-1.92s-1.823-2.688-1.823-4.8c0-2.335,0.855-4.159,2.567-5.472c1.712-1.312,3.912-1.968,6.601-1.968
		c1.888,0,3.583,0.216,5.088,0.648c1.504,0.432,2.815,1.128,3.936,2.088l-3.071,3.12c-0.705-0.607-1.593-1.056-2.664-1.344
		c-1.073-0.288-2.185-0.432-3.336-0.432c-1.44,0-2.537,0.28-3.288,0.84c-0.753,0.561-1.128,1.32-1.128,2.28
		c0,0.8,0.247,1.432,0.743,1.896s1.368,0.76,2.616,0.888l3.84,0.336c2.368,0.192,4.168,0.849,5.4,1.968
		c1.231,1.121,1.848,2.752,1.848,4.896c0,2.464-0.936,4.368-2.808,5.712C534.941,194.751,532.501,195.423,529.493,195.423z"/>
	<path d="M545.429,202.563v-12.996h5.567v8.44L545.429,202.563z"/>
	<path d="M570.004,166.047v-5.184h5.184v5.184H570.004z M570.147,195.183v-24.336h4.896v24.336H570.147z"/>
	<path d="M590.067,195.183c-2.144,0-3.792-0.657-4.943-1.972c-1.152-1.315-1.729-2.918-1.729-4.812v-13.424h-2.784v-3.744h2.784
		v-7.392h4.896v7.392h4.704v3.744h-4.704v13.192c0,1.894,0.896,2.84,2.688,2.84h2.017v4.176H590.067z"/>
	<path d="M599.092,170.379v-9.42h5.376v5.04L599.092,170.379z"/>
	<path d="M619.971,195.423c-2.208,0-4.12-0.249-5.735-0.744c-1.616-0.496-3.113-1.416-4.488-2.76l3.216-3.216
		c0.896,0.929,1.951,1.584,3.168,1.968c1.216,0.384,2.496,0.576,3.84,0.576c1.567,0,2.848-0.28,3.84-0.84
		c0.992-0.56,1.488-1.399,1.488-2.52c0-0.896-0.257-1.6-0.768-2.112c-0.513-0.512-1.345-0.768-2.496-0.768l-3.889-0.336
		c-2.368-0.192-4.16-0.832-5.376-1.92s-1.823-2.688-1.823-4.8c0-2.335,0.855-4.159,2.567-5.472c1.712-1.312,3.912-1.968,6.601-1.968
		c1.888,0,3.583,0.216,5.088,0.648c1.504,0.432,2.815,1.128,3.936,2.088l-3.071,3.12c-0.705-0.607-1.593-1.056-2.664-1.344
		c-1.073-0.288-2.185-0.432-3.336-0.432c-1.44,0-2.537,0.28-3.288,0.84c-0.753,0.561-1.128,1.32-1.128,2.28
		c0,0.8,0.247,1.432,0.743,1.896s1.368,0.76,2.616,0.888l3.84,0.336c2.368,0.192,4.168,0.849,5.4,1.968
		c1.231,1.121,1.848,2.752,1.848,4.896c0,2.464-0.936,4.368-2.808,5.712C625.419,194.751,622.979,195.423,619.971,195.423z"/>
	<path d="M660.675,195.183v-2.208c-0.929,0.911-1.856,1.546-2.784,1.907c-0.929,0.361-2.16,0.542-3.696,0.542
		c-2.88,0-5.008-0.704-6.384-2.112c-1.376-1.408-2.063-3.184-2.063-5.328c0-2.112,0.724-3.808,2.173-5.088
		c1.449-1.279,3.543-1.92,6.28-1.92h6.475v-1.728c0-1.567-0.42-2.719-1.26-3.456c-0.84-0.735-2.211-1.104-4.116-1.104
		c-1.325,0-2.382,0.168-3.173,0.504s-1.525,0.952-2.203,1.848l-3.216-3.024c1.119-1.279,2.344-2.184,3.672-2.712
		c1.327-0.528,3.016-0.792,5.063-0.792c6.688,0,10.032,2.79,10.032,8.369v16.303H660.675z M660.675,184.383h-5.767
		c-2.94,0-4.409,1.168-4.409,3.504c0,2.304,1.502,3.456,4.506,3.456c1.163,0,2.06-0.08,2.689-0.24
		c0.63-0.16,1.284-0.567,1.963-1.224c0.678-0.656,1.018-1.832,1.018-3.528V184.383z"/>
	<path d="M697.825,176.511c-0.544-0.544-1.096-0.952-1.655-1.224c-0.561-0.271-1.225-0.408-1.992-0.408
		c-1.376,0-2.528,0.497-3.456,1.492c-0.929,0.995-1.392,2.325-1.392,3.993v14.819h-4.801v-24.384h4.801v2.64
		c0.575-0.864,1.447-1.568,2.615-2.112c1.168-0.543,2.424-0.816,3.769-0.816c1.279,0,2.344,0.161,3.191,0.48
		c0.848,0.32,1.72,0.929,2.616,1.824L697.825,176.511z"/>
	<path d="M705.458,166.047v-5.184h5.184v5.184H705.458z M705.602,195.183v-24.336h4.896v24.336H705.602z"/>
	<path d="M726.434,205.263c-1.824,0-3.393-0.24-4.704-0.72c-1.312-0.48-2.608-1.312-3.888-2.496l3.12-3.12
		c0.832,0.768,1.624,1.32,2.376,1.656c0.751,0.336,1.72,0.504,2.904,0.504c1.951,0,3.391-0.582,4.319-1.743
		c0.928-1.163,1.393-2.635,1.393-4.417v-3.104c-0.833,0.975-1.761,1.675-2.784,2.099c-1.024,0.425-2.192,0.637-3.504,0.637
		c-1.185,0-2.272-0.184-3.265-0.552c-0.992-0.368-1.937-1-2.832-1.896c-0.896-0.896-1.528-2.12-1.896-3.672
		c-0.368-1.552-0.552-3.528-0.552-5.928c0-2.368,0.184-4.336,0.552-5.904c0.367-1.568,1.176-2.976,2.424-4.224
		s3.12-1.872,5.616-1.872c1.375,0,2.56,0.205,3.552,0.613c0.991,0.41,1.936,1.149,2.832,2.219v-2.544h4.752v24.192
		c0,3.007-0.944,5.472-2.832,7.392C732.129,204.303,729.602,205.263,726.434,205.263z M727.01,174.831
		c-1.984,0-3.312,0.693-3.984,2.078c-0.672,1.385-1.008,3.252-1.008,5.603c0,2.383,0.328,4.259,0.984,5.627
		c0.655,1.369,1.992,2.053,4.008,2.053c1.983,0,3.304-0.676,3.96-2.029c0.655-1.353,0.984-3.236,0.984-5.651
		c0-3.091-0.433-5.144-1.296-6.158C729.794,175.338,728.577,174.831,727.01,174.831z"/>
	<path d="M759.361,195.183V180.22c0-1.764-0.448-3.096-1.344-3.994c-0.896-0.897-2.081-1.347-3.553-1.347
		c-1.439,0-2.624,0.449-3.552,1.347c-0.929,0.898-1.392,2.23-1.392,3.994v14.963h-4.896v-34.224h4.896v12.288
		c1.695-1.824,3.792-2.736,6.288-2.736c2.655,0,4.728,0.81,6.216,2.429s2.231,3.792,2.231,6.516v15.727H759.361z"/>
	<path d="M779.041,195.183c-2.144,0-3.792-0.657-4.943-1.972c-1.152-1.315-1.729-2.918-1.729-4.812v-13.424h-2.784v-3.744h2.784
		v-7.392h4.896v7.392h4.704v3.744h-4.704v13.192c0,1.894,0.896,2.84,2.688,2.84h2.017v4.176H779.041z"/>
	<path d="M788.065,195.183v-5.904h5.855v5.904H788.065z"/>
</g>
<path d="M630.194,409.206v-85.53h-51.835l-73.637-46.551l-73.639,46.551h-51.835v85.53H197.834v24.049h613.775v-24.049H630.194z
	 M504.723,412.383c-24.497,0-44.354-19.858-44.354-44.354s19.857-44.354,44.354-44.354c24.494,0,44.353,19.858,44.353,44.354
	S529.217,412.383,504.723,412.383z"/>
<path d="M504.723,326.854c-22.704,0-41.177,18.471-41.177,41.176c0,22.704,18.473,41.176,41.177,41.176
	c22.705,0,41.176-18.472,41.176-41.176C545.898,345.325,527.428,326.854,504.723,326.854z M540.617,383.642l-0.089,0.154
	l-15.258-8.811l0.471-0.816c0.041-0.073-0.027-0.162-0.207-0.267c-0.086-0.049-0.159-0.077-0.22-0.081
	c-0.061-0.005-0.098,0.008-0.114,0.036c-0.062,0.168-0.123,0.318-0.185,0.45c-0.059,0.134-0.176,0.353-0.352,0.657l-0.058,0.101
	c0.269-0.754,0.491-1.528,0.673-2.318c-0.004,0.043-0.008,0.086-0.012,0.124c-0.019,0.185-0.04,0.339-0.059,0.464
	c0,0.085,0.104,0.129,0.312,0.129c0.098,0,0.174-0.013,0.228-0.04c0.056-0.026,0.082-0.056,0.082-0.089v-0.941h9.48h8.14v0.941
	c0,0.031,0.02,0.054,0.045,0.074C543.004,376.996,542.02,380.429,540.617,383.642z M539.396,386.182
	c-0.046-0.021-0.09-0.036-0.129-0.038c-0.062-0.004-0.098,0.007-0.115,0.036l-0.459,0.797l-16.918-6.551
	c0.771-1.057,1.447-2.186,2.014-3.379c0.062,0.031,0.118,0.052,0.165,0.055c0.059,0.004,0.099-0.007,0.115-0.036l0.47-0.815
	l8.208,4.739l7.051,4.071l-0.47,0.814c-0.036,0.061,0.008,0.132,0.12,0.211C539.432,386.12,539.414,386.15,539.396,386.182z
	 M536.445,390.941c-0.026,0.003-0.05,0.012-0.061,0.031l-0.135,0.236c-0.169,0.227-0.34,0.452-0.513,0.676l-10.367-8.447
	l12.558,4.872l-0.435,0.743c-0.033,0.059,0.003,0.126,0.108,0.203C537.229,389.827,536.843,390.389,536.445,390.941z
	 M524.45,401.568c0.048,0.083,0.098,0.142,0.146,0.177c-0.58,0.343-1.169,0.67-1.768,0.984c-0.011-0.05-0.036-0.109-0.078-0.181
	c-0.049-0.084-0.098-0.146-0.146-0.18c-0.051-0.034-0.09-0.042-0.121-0.025l-0.816,0.471l-0.16,0.092l-4.793-12.598l8.436,10.497
	l-0.744,0.428C524.33,401.276,524.346,401.388,524.45,401.568z M521.188,403.091l-0.067,0.039l-0.816,0.47
	c-0.073,0.042-0.057,0.15,0.04,0.322c-3.177,1.387-6.572,2.365-10.116,2.865c-0.007-0.035-0.016-0.065-0.028-0.09
	c-0.024-0.056-0.054-0.083-0.087-0.083h-0.92l-2.729-17.568c3.027-0.249,5.88-1.137,8.413-2.535L521.188,403.091z M488.784,403.782
	l8.433-10.354l-4.588,11.833C491.315,404.836,490.033,404.341,488.784,403.782z M484.007,401.231
	c-0.003-0.042-0.014-0.073-0.036-0.085l-0.815-0.471l8.811-15.258l0.815,0.469c0.074,0.043,0.164-0.025,0.266-0.205
	c0.015-0.025,0.024-0.046,0.037-0.07c0.172,0.115,0.346,0.227,0.521,0.337c-0.01,0.014-0.018,0.024-0.025,0.04
	c-0.052,0.086-0.078,0.159-0.082,0.22c-0.005,0.059,0.007,0.098,0.037,0.115l0.813,0.47L489.61,395l-4.072,7.052l-0.814-0.471
	c-0.037-0.021-0.076-0.015-0.12,0.019C484.402,401.478,484.203,401.356,484.007,401.231z M490.061,383.706l-17.147,6.527
	l-0.039-0.067l-0.403-0.696c0,0,0,0,0,0l-0.47-0.816l15.252-8.807c0.013,0.016,0.023,0.031,0.035,0.046l0.441,0.766
	c0.025,0.041,0.071,0.052,0.137,0.039c0.783,1.042,1.665,2.009,2.625,2.891c-0.011-0.004-0.021-0.009-0.033-0.009
	c-0.021-0.003-0.08,0.011-0.176,0.044l-0.117,0.044C490.132,383.663,490.099,383.674,490.061,383.706z M473.574,391.714
	c0.024-0.021,0.046-0.044,0.062-0.066c0.033-0.049,0.042-0.088,0.026-0.118l-0.472-0.815l-0.093-0.163l12.599-4.794l-10.245,8.236
	C474.8,393.257,474.172,392.498,473.574,391.714z M470.028,386.148c0.037-0.015,0.082-0.036,0.13-0.063
	c0.085-0.05,0.146-0.1,0.179-0.149c0.034-0.05,0.043-0.089,0.025-0.118l-0.469-0.816l15.259-8.81l0.472,0.815
	c0.005,0.01,0.016,0.015,0.023,0.021c0.256,0.539,0.535,1.063,0.833,1.575l-8.161,4.711l-7.049,4.071l-0.471-0.815
	c-0.044-0.074-0.156-0.058-0.335,0.045c-0.058,0.034-0.101,0.068-0.135,0.102C470.228,386.529,470.128,386.338,470.028,386.148z
	 M468.248,382.249c0.015-0.032,0.021-0.06,0.008-0.08l-0.114-0.2c-0.087-0.224-0.171-0.449-0.254-0.675l15.156-8.751l0.473,0.815
	c0.041,0.074,0.153,0.059,0.334-0.045c0.085-0.049,0.146-0.099,0.18-0.148s0.043-0.09,0.027-0.119
	c-0.115-0.137-0.215-0.265-0.301-0.383c-0.084-0.119-0.215-0.331-0.391-0.635l-0.438-0.761h0.933v0.941
	c0,0.068,0.071,0.109,0.208,0.123c0.101,0.483,0.223,0.958,0.355,1.428c-0.06-0.01-0.146,0.016-0.267,0.085
	c-0.086,0.048-0.146,0.099-0.18,0.149c-0.035,0.049-0.044,0.09-0.026,0.119l0.47,0.814l-8.207,4.739l-7.052,4.072l-0.47-0.816
	c-0.029-0.049-0.092-0.056-0.182-0.025C468.421,382.681,468.333,382.466,468.248,382.249z M465.812,372.329
	c0.035,0.003,0.072,0.007,0.117,0.007c0.1,0,0.176-0.013,0.23-0.039c0.053-0.026,0.081-0.056,0.081-0.09v-0.941h16.068l0.007,0.009
	l-8.207,4.738l-6.698,3.868C466.639,377.458,466.098,374.932,465.812,372.329z M465.929,364.91c-0.101,0-0.177,0.012-0.23,0.038
	c0,0.001-0.003,0.001-0.004,0.002c0.03-0.375,0.065-0.747,0.105-1.119c0.036,0.005,0.078,0.007,0.129,0.007
	c0.1,0,0.176-0.012,0.23-0.039c0.053-0.025,0.081-0.055,0.081-0.089v-0.941v-0.135l6.604,1.796l-6.604,1.427v-0.82
	C466.24,364.952,466.135,364.91,465.929,364.91z M466.237,362.216l0.003-0.078v-0.943c0-0.034-0.021-0.06-0.055-0.081
	c0.571-3.189,1.529-6.246,2.826-9.12c0.062,0.03,0.118,0.052,0.165,0.055c0.062,0.004,0.102-0.007,0.115-0.036l0.449-0.78
	l9.617,3.088l5.655,5.698l-0.039,0.069l-0.468,0.814c-0.046,0.074,0.025,0.163,0.205,0.268c0.021,0.012,0.038,0.017,0.058,0.027
	c-0.136,0.398-0.262,0.799-0.375,1.207v-0.026c0-0.329,0.011-0.584,0.029-0.767c0.022-0.184,0.04-0.337,0.062-0.46
	c0-0.085-0.106-0.128-0.313-0.128c-0.1,0-0.176,0.013-0.23,0.039s-0.082,0.057-0.082,0.089v0.898l-10.158,2.196L466.237,362.216z
	 M471.173,347.877c0.028,0.022,0.064,0.045,0.107,0.07c0.084,0.05,0.157,0.077,0.218,0.082c0.06,0.004,0.101-0.008,0.114-0.035
	l0.473-0.816l0.066-0.116l4.821,4.856l-6.432-2.066l0.41-0.71c0.043-0.074-0.026-0.163-0.208-0.267
	c-0.041-0.025-0.08-0.043-0.117-0.057C470.803,348.5,470.985,348.188,471.173,347.877z M474.187,343.564
	c1.926,1.825,5.817,5.539,6.594,6.495c1.042,1.28,0.375,1.466,1.6,2.773c1.227,1.306,1.358,1.04,3.066,0.827
	c1.708-0.214,1.6,1.093,1.6,1.093c-0.021,0.153-0.01,0.284,0.013,0.404l-9.249-2.971l-5.449-5.49l0.041-0.066l0.469-0.816
	c0.043-0.071-0.02-0.157-0.184-0.255C473.165,344.876,473.666,344.211,474.187,343.564z M482.396,336.043
	c-0.021-0.041-0.044-0.075-0.069-0.103c0.304-0.212,0.608-0.419,0.915-0.622c0.014,0.052,0.037,0.114,0.083,0.19
	c0.048,0.085,0.098,0.145,0.147,0.179c0.049,0.034,0.09,0.043,0.118,0.026l0.815-0.47l0.117-0.068l1.747,6.617l-4.54-5.005
	l0.712-0.41C482.515,336.334,482.5,336.223,482.396,336.043z M483.86,334.92c0.455-0.289,0.918-0.57,1.389-0.84
	c-0.059,0.043-0.119,0.095-0.173,0.134c-0.119,0.085-0.332,0.216-0.635,0.391l-0.058,0.033
	C484.174,334.758,484.007,334.847,483.86,334.92z M484.885,334.965l0.067-0.038l0.818-0.471c0.072-0.043,0.06-0.156-0.044-0.335
	c-0.05-0.085-0.102-0.146-0.151-0.18c-0.016-0.011-0.028-0.015-0.044-0.021c0.085-0.046,0.167-0.093,0.251-0.139
	c-0.009,0.059,0.018,0.143,0.086,0.259c0.049,0.085,0.099,0.146,0.148,0.18c0.051,0.034,0.089,0.043,0.118,0.025l0.815-0.47
	l8.765,15.183c-0.679,0.323-1.341,0.68-1.979,1.071l-6.88-7.587L484.885,334.965z M498.101,329.446l2.132,9.862l-2.107,7.747h-0.079
	h-0.94c-0.086,0-0.129,0.104-0.129,0.312c0,0.099,0.014,0.175,0.04,0.23c0.025,0.054,0.056,0.082,0.089,0.082
	c0.175-0.03,0.338-0.053,0.479-0.068c0.147-0.014,0.396-0.022,0.747-0.022h0.065c0.323,0,0.578,0.01,0.763,0.03
	c0.06,0.007,0.108,0.013,0.162,0.019c-0.416,0.11-0.825,0.236-1.231,0.371c-0.045-0.068-0.087-0.121-0.131-0.151
	c-0.051-0.034-0.088-0.042-0.118-0.026l-0.815,0.47l-4.738-8.208l-4.07-7.051l0.815-0.471c0.074-0.042,0.059-0.154-0.045-0.334
	c-0.011-0.016-0.02-0.026-0.029-0.039C491.844,330.928,494.907,329.992,498.101,329.446z M508.904,329.354
	c0.026,0.054,0.056,0.082,0.089,0.082h0.94v17.62h-0.94c-0.082,0-0.124,0.098-0.127,0.291c-0.206-0.042-0.415-0.077-0.623-0.112
	c-0.008-0.039-0.018-0.071-0.03-0.097c-0.026-0.055-0.056-0.083-0.089-0.083h-0.942v-9.478v-8.142h0.942
	c0.085,0,0.126-0.104,0.126-0.312c0-0.03-0.002-0.054-0.005-0.081c0.206,0.019,0.415,0.038,0.621,0.059
	c0,0.008-0.003,0.014-0.003,0.022C508.863,329.222,508.878,329.299,508.904,329.354z M502.511,354.671
	c0.934,1.094,0.614,2.347,0.614,2.347c-0.24,1.2-0.4,1.6,0.106,3.013c0.508,1.414,0.106,3.226,0.106,3.226s-1.733-0.666-3.359-1.279
	s-2.8-1.733-3.92-2.48c-0.81-0.541-3.426-3.082-5.041-4.705c2.697-2.79,6.235-4.761,10.201-5.5
	c-0.189,0.372-0.363,0.771-0.494,1.219C500.165,352.432,501.579,353.578,502.511,354.671z M499.712,347.138
	c-0.026-0.055-0.056-0.083-0.089-0.083h-0.943l-0.136-0.002l1.866-6.889l1.489,6.891l-0.822,0c-0.07,0-0.111,0.077-0.122,0.224
	c-0.411,0.075-0.817,0.159-1.22,0.257c0.009-0.046,0.015-0.1,0.015-0.168C499.75,347.269,499.737,347.192,499.712,347.138z
	 M504.69,329.354c0.025,0.054,0.056,0.082,0.089,0.082h0.941v17.525c-0.33-0.016-0.664-0.025-0.998-0.025
	c-0.212,0-0.418,0.01-0.627,0.015c-0.327-0.759-0.385-1.291-0.385-1.291s-0.532-5.84-0.612-6.32
	c-0.079-0.479-0.028-1.119-0.348-1.093c-0.319,0.027-0.214,0.748-0.214,0.748s0.056,2.056,0.087,4l-1.315-6.098l2.027-7.463
	l0.078,0.003h0.943c0.085,0,0.13-0.104,0.13-0.312c0-0.1-0.014-0.176-0.038-0.23c-0.004-0.004-0.006-0.005-0.007-0.007
	c0.081-0.001,0.163-0.003,0.243-0.004c-0.021,0.053-0.036,0.131-0.036,0.241C504.649,329.222,504.664,329.299,504.69,329.354z
	 M505.586,328.894c0.08,0.002,0.162,0.004,0.241,0.005C505.74,328.898,505.661,328.897,505.586,328.894z M501.752,329.354
	c0.025,0.054,0.056,0.082,0.09,0.082h0.94h0.134l-1.794,6.604l-1.429-6.604h0.82c0.087,0,0.129-0.104,0.129-0.312
	c0-0.011-0.001-0.018-0.001-0.029c0.356-0.037,0.717-0.071,1.079-0.099c-0.006,0.038-0.009,0.08-0.009,0.128
	C501.712,329.222,501.727,329.299,501.752,329.354z M486.219,333.541c0.251-0.136,0.503-0.27,0.757-0.399l-0.048,0.028
	c-0.282,0.164-0.507,0.283-0.677,0.357C486.24,333.532,486.229,333.534,486.219,333.541z M492.419,350.91
	c-0.118,0.086-0.24,0.171-0.358,0.26l-0.32,0.185c-0.033,0.019-0.047,0.054-0.044,0.1c-0.331,0.261-0.652,0.529-0.968,0.808
	c-0.042-0.071-0.087-0.125-0.132-0.154c-0.049-0.034-0.089-0.043-0.119-0.026l-0.815,0.471l-0.118,0.066l-1.828-6.9L492.419,350.91z
	 M489.629,353.191l0.057-0.032c0.075-0.044,0.138-0.078,0.21-0.116c-0.102,0.098-0.199,0.2-0.295,0.3
	c-0.036-0.027-0.069-0.052-0.104-0.074C489.54,353.243,489.581,353.218,489.629,353.191z M485.812,358.692
	c-0.022,0.005-0.04,0.015-0.049,0.03l-0.472,0.818l-0.069,0.116l-5.034-5.06l6.713,2.155l-0.069,0.119
	C486.463,357.459,486.123,358.066,485.812,358.692z M483.86,363.653v0.821c0,0.036,0.021,0.062,0.058,0.082
	c-0.132,0.787-0.224,1.584-0.265,2.397l-6.686-1.812L483.86,363.653z M490.567,383.658c0.422,0.383,0.861,0.744,1.313,1.091
	l-0.667-0.385c-0.279-0.162-0.496-0.297-0.646-0.407c-0.042-0.032-0.079-0.06-0.117-0.088
	C490.555,383.792,490.593,383.723,490.567,383.658z M486.806,402.782l8.809-15.26l0.817,0.472c0.073,0.042,0.164-0.026,0.267-0.206
	c0.049-0.085,0.075-0.161,0.081-0.22c0,0,0,0,0-0.001c0.838,0.342,1.703,0.633,2.59,0.867c-0.018-0.002-0.037-0.003-0.054-0.005
	c-0.187-0.02-0.341-0.039-0.464-0.059c-0.087,0-0.129,0.104-0.129,0.312c0,0.099,0.014,0.176,0.039,0.23
	c0.028,0.054,0.057,0.082,0.09,0.082h0.94v0.697l-11.351,13.935c-0.337-0.155-0.671-0.314-1.004-0.479L486.806,402.782z
	 M494.083,405.707l5.709-14.744v7.51v8.142h-0.94c-0.05,0-0.083,0.038-0.104,0.107C497.16,406.478,495.604,406.137,494.083,405.707z
	 M503.081,406.615h-0.079h-0.805h-0.138h-0.804v-17.62h0.941c0.02,0,0.038-0.006,0.054-0.02c0.813,0.095,1.636,0.149,2.472,0.149
	c0.398,0,0.792-0.012,1.184-0.034L503.081,406.615z M503.352,407.15c0.248,0,0.457,0.005,0.623,0.017
	c-0.212-0.004-0.422-0.01-0.632-0.017H503.352z M504.723,387.097c-10.514,0-19.067-8.554-19.067-19.067
	c0-4.201,1.369-8.087,3.678-11.241c2.521,1.473,6.033,4.042,6.033,4.042c1.438,0.88,3.358,3.493,3.521,3.706
	c0.16,0.213,1.226,1.947,2.984,4.186c0.672,0.852,1.383,1.256,2.006,1.43c0.389,0.725,0.208,1.877,0.208,1.877
	s-0.508,0.427-0.054,1.414c0.453,0.986-0.24,1.52-0.24,1.52c-1.012,0.906-0.771,2.027-0.398,2.907
	c0.373,0.879,2.479,1.172,3.253-0.134c0.771-1.307,0.134-2.373-0.587-2.853s-0.479-1.361-0.373-1.573c0.106-0.213,0.292-0.8,0-1.04
	c-0.293-0.241-0.348-0.667-0.348-0.667c-0.134-1.065,0.1-1.37,0.246-1.458c0.065-0.021,0.102-0.036,0.102-0.036
	c1.665-0.08,2.239,0.854,2.239,0.854c0.773,1.226,1.307,1.172,1.307,1.172c1.067,0.214,0.854,0.881,1.015,1.733
	c0.158,0.854,0.933,1.681,1.625,1.707c0.694,0.027,2.533-0.48,2.773-2.213c0.239-1.733-0.693-2.426-2.132-2.106
	c-1.443,0.32-1.814-0.507-1.814-0.507c-0.185-0.853-1.362-1.066-1.362-1.066c-1.545-0.907-1.279-1.654-1.518-3.067
	c-0.239-1.413-2.239-2.373-2.239-2.373l-0.56-1.599c-0.48-1.521-0.216-2.48-0.216-2.48c0.268-1.094,0.295-1.52-0.237-3.253
	c-0.535-1.733,1.119-3.573,1.119-3.573c1.601-2.08,0-4.106,0-4.106c-0.086-0.083-0.165-0.166-0.244-0.25
	c10.18,0.381,18.349,8.776,18.349,19.048C523.79,378.542,515.234,387.097,504.723,387.097z M522.416,356.368l-0.469-0.814
	l8.206-4.739l7.053-4.071l0.472,0.814c0.042,0.076,0.152,0.061,0.333-0.044c0.011-0.005,0.016-0.012,0.026-0.017
	c0.108,0.176,0.215,0.351,0.319,0.528c-0.011,0.008-0.023,0.012-0.039,0.02c-0.087,0.051-0.145,0.101-0.181,0.15
	c-0.033,0.05-0.043,0.09-0.024,0.118l0.47,0.815l-15.261,8.811l-0.469-0.815c-0.021-0.035-0.057-0.049-0.107-0.044
	c-0.118-0.194-0.244-0.385-0.369-0.575c0.004-0.005,0.011-0.01,0.017-0.016C522.424,356.437,522.435,356.398,522.416,356.368z
	 M543.451,362.329v0.173h-17.62v-0.941c0-0.086-0.103-0.128-0.31-0.128c-0.1,0-0.179,0.013-0.231,0.039
	c-0.056,0.026-0.081,0.056-0.081,0.09c0.029,0.175,0.052,0.336,0.065,0.481c0.016,0.145,0.022,0.393,0.022,0.746v0.606
	c-0.242-1.073-0.565-2.114-0.961-3.119c0.075-0.046,0.13-0.092,0.162-0.14c0.034-0.048,0.042-0.089,0.025-0.118l-0.471-0.815
	l8.209-4.74l7.051-4.071l0.473,0.816c0.036,0.065,0.129,0.058,0.273-0.015C541.715,354.656,542.877,358.399,543.451,362.329z
	 M543.793,365.649c-0.009,0-0.016-0.001-0.029-0.001c-0.1,0-0.175,0.013-0.23,0.039c-0.055,0.025-0.082,0.056-0.082,0.089v0.941
	h-17.62v-0.941c0-0.06-0.054-0.096-0.15-0.115c-0.023-0.212-0.052-0.423-0.081-0.633c0.059-0.005,0.113-0.015,0.149-0.033
	c0.056-0.026,0.082-0.055,0.082-0.088v-0.942h9.48h8.14v0.942c0,0.083,0.103,0.126,0.305,0.128
	C543.771,365.238,543.782,365.444,543.793,365.649z M543.764,369.862c-0.1,0-0.175,0.012-0.23,0.039
	c-0.055,0.026-0.082,0.055-0.082,0.088v0.941h-17.62v-0.941c0-0.048-0.037-0.081-0.101-0.102c0.019-0.233,0.041-0.466,0.052-0.701
	c0.03-0.021,0.049-0.042,0.049-0.066v-0.942h9.48h8.14v0.942c0,0.085,0.105,0.128,0.312,0.128c0.031,0,0.059-0.004,0.086-0.007
	c-0.008,0.208-0.016,0.415-0.024,0.623C543.804,369.864,543.789,369.862,543.764,369.862z M536.026,344.552
	c-0.03,0.046-0.036,0.084-0.021,0.11l0.471,0.816l-15.259,8.811l-0.472-0.815c-0.044-0.074-0.153-0.059-0.336,0.045
	c-0.083,0.049-0.144,0.098-0.179,0.149c-0.014,0.021-0.021,0.037-0.027,0.054c-2.717-2.938-6.256-5.106-10.251-6.129
	c0.082,0,0.171-0.002,0.268-0.002h0.892c0.322,0,0.577,0.01,0.762,0.03c0.187,0.02,0.34,0.04,0.465,0.061
	c0.086,0,0.128-0.105,0.128-0.312c0-0.099-0.013-0.176-0.039-0.23c-0.026-0.055-0.056-0.083-0.089-0.083h-0.94v-9.478v-8.123
	c4.286,0.739,8.337,2.177,12.029,4.194l-8.676,15.025l-0.815-0.471c-0.071-0.042-0.161,0.026-0.266,0.206
	c-0.049,0.085-0.075,0.158-0.08,0.218c-0.006,0.061,0.008,0.1,0.034,0.117c0.168,0.062,0.319,0.123,0.452,0.184
	c0.131,0.059,0.351,0.176,0.655,0.352l0.772,0.447c0.278,0.16,0.495,0.297,0.646,0.406c0.151,0.111,0.274,0.205,0.372,0.283
	c0.073,0.043,0.164-0.025,0.267-0.206c0.052-0.086,0.077-0.158,0.082-0.219c0.003-0.06-0.009-0.099-0.037-0.116l-0.813-0.47
	l4.738-8.208l3.937-6.823C529.104,337.001,532.956,340.466,536.026,344.552z M479.653,337.987l0.695-0.403l6.785,7.484l2.051,7.763
	l-0.069,0.04l-0.392,0.226c-0.264,0.023-0.45,0.108-0.45,0.108c-1.388,0-1.014-2.187-1.36-3.04c-0.346-0.854-2.08-1.547-2.906-1.6
	c-0.824-0.055-2-0.667-2-0.667c-1.374-0.437-5.43-3.263-7.509-4.723C476.05,341.291,477.778,339.554,479.653,337.987z
	 M465.666,365.383c0.006,0.048,0.011,0.098,0.017,0.143c0.016,0.145,0.022,0.392,0.022,0.738v0.864c0,0.327-0.011,0.583-0.03,0.765
	c-0.02,0.184-0.039,0.336-0.059,0.46c0,0.086,0.104,0.129,0.312,0.129c0.1,0,0.176-0.013,0.23-0.039
	c0.053-0.027,0.081-0.057,0.081-0.09l-0.002-0.899l9.874-2.134l7.531,2.048c-0.008,0.22-0.018,0.439-0.018,0.662
	c0,0.598,0.033,1.189,0.082,1.775h-9.325h-8.143v-0.941c0-0.085-0.105-0.128-0.312-0.128c-0.101,0-0.177,0.013-0.23,0.04
	c-0.055,0.026-0.082,0.057-0.082,0.089c0.029,0.181,0.051,0.343,0.066,0.489s0.022,0.391,0.022,0.738v0.891
	c0,0.079,0,0.153-0.002,0.224c-0.084-1.047-0.129-2.106-0.129-3.175C465.574,367.14,465.606,366.257,465.666,365.383z
	 M476.481,395.114l13.484-10.854l0.734,0.424l-4.738,8.208l-4.018,6.957C479.981,398.44,478.151,396.854,476.481,395.114z
	 M504.664,407.176c0.026-0.051,0.041-0.131,0.041-0.25c0-0.099-0.012-0.175-0.039-0.229c-0.024-0.056-0.056-0.083-0.089-0.083
	h-0.941l-0.188-0.001l2.146-13.306l2.062,13.31l-0.861-0.002c-0.085,0-0.127,0.104-0.127,0.312c0,0.084,0.011,0.149,0.029,0.201
	c-0.654,0.033-1.312,0.049-1.975,0.049C504.702,407.176,504.684,407.176,504.664,407.176z M527.556,399.808
	c-0.004-0.009-0.006-0.017-0.011-0.026c-0.052-0.087-0.101-0.146-0.151-0.18c-0.05-0.035-0.089-0.042-0.117-0.026l-0.797,0.46
	l-11.111-13.805c2.39-1.404,4.481-3.262,6.152-5.459l13.998,11.402C533.238,395.076,530.555,397.647,527.556,399.808z"/>
<rect x="197.834" y="439.576" width="613.775" height="6.953"/>
<path d="M197.834,456.024v146.648h613.775V456.024H197.834z M222.792,589.391h-10.741v-16.114c0-2.965,2.405-5.37,5.371-5.37
	c2.965,0,5.37,2.405,5.37,5.37V589.391z M244.911,589.391H234.17v-16.114c0-2.965,2.404-5.37,5.37-5.37
	c2.965,0,5.371,2.405,5.371,5.37V589.391z M245.547,534.405h-33.497V484.15c0-9.25,7.498-16.748,16.748-16.748
	c9.25,0,16.749,7.499,16.749,16.748V534.405z M266.724,589.391h-10.741v-16.114c0-2.965,2.405-5.37,5.371-5.37
	c2.966,0,5.371,2.405,5.371,5.37V589.391z M288.843,589.391h-10.741v-16.114c0-2.965,2.405-5.37,5.37-5.37
	c2.966,0,5.371,2.405,5.371,5.37V589.391z M294.538,534.405h-33.497V484.15c0-9.25,7.498-16.748,16.749-16.748
	c9.25,0,16.749,7.499,16.749,16.748V534.405z M310.339,589.391h-10.741v-16.114c0-2.965,2.405-5.37,5.37-5.37
	c2.966,0,5.371,2.405,5.371,5.37V589.391z M332.458,589.391h-10.741v-16.114c0-2.965,2.405-5.37,5.371-5.37
	c2.965,0,5.37,2.405,5.37,5.37V589.391z M344.154,534.405h-33.497V484.15c0-9.25,7.498-16.748,16.749-16.748
	c9.25,0,16.748,7.499,16.748,16.748V534.405z M423.169,596.352h-33.497v-28.444h33.497V596.352z M423.169,534.405h-33.497V484.15
	c0-9.25,7.498-16.748,16.749-16.748c9.25,0,16.748,7.499,16.748,16.748V534.405z M438.663,484.15c0-9.25,7.497-16.748,16.748-16.748
	c9.25,0,16.748,7.499,16.748,16.748v50.255h-33.496V484.15z M472.786,596.352h-33.497v-28.444h33.497V596.352z M521.775,596.352
	H488.28v-28.444h33.495V596.352z M521.775,534.405H488.28V484.15c0-9.25,7.497-16.748,16.747-16.748s16.748,7.499,16.748,16.748
	V534.405z M537.271,484.15c0-9.25,7.497-16.748,16.748-16.748c9.249,0,16.749,7.499,16.749,16.748v50.255h-33.497V484.15z
	 M571.079,596.352h-33.497v-28.444h33.497V596.352z M586.572,484.15c0-9.25,7.497-16.748,16.748-16.748
	c9.249,0,16.748,7.499,16.748,16.748v50.255h-33.496V484.15z M620.069,596.352h-33.496v-28.444h33.496V596.352z M666.223,483.52
	c0-9.25,7.497-16.749,16.747-16.749s16.749,7.498,16.749,16.749v50.254h-33.496V483.52z M688.342,589.391H677.6v-16.114
	c0-2.965,2.405-5.37,5.37-5.37c2.967,0,5.372,2.405,5.372,5.37V589.391z M710.459,589.391h-10.74v-16.114
	c0-2.965,2.405-5.37,5.37-5.37c2.966,0,5.37,2.405,5.37,5.37V589.391z M715.213,483.52c0-9.25,7.497-16.749,16.749-16.749
	c9.249,0,16.747,7.498,16.747,16.749v50.254h-33.496V483.52z M732.273,589.391h-10.741v-16.114c0-2.965,2.405-5.37,5.371-5.37
	s5.37,2.405,5.37,5.37V589.391z M754.392,589.391h-10.74v-16.114c0-2.965,2.405-5.37,5.37-5.37c2.966,0,5.37,2.405,5.37,5.37
	V589.391z M775.89,589.391h-10.741v-16.114c0-2.965,2.404-5.37,5.369-5.37c2.966,0,5.372,2.405,5.372,5.37V589.391z
	 M798.008,589.391h-10.741v-16.114c0-2.965,2.405-5.37,5.37-5.37c2.966,0,5.371,2.405,5.371,5.37V589.391z M798.326,533.774h-33.497
	V483.52c0-9.25,7.498-16.749,16.749-16.749c9.249,0,16.748,7.498,16.748,16.749V533.774z"/>
<rect x="197.834" y="608.351" width="613.775" height="6.953"/>
<rect x="198.141" y="621.414" width="613.774" height="6.953"/>
<path d="M198.141,636.941v437.992h162.561v-34.444v-10.487v-21.517v-2.05v-16.912h288.654v16.912v2.05v21.517v10.487v34.444h162.56
	V636.941H198.141z M694.657,659.142h95.242v6.244h-95.242V659.142z M778.779,686.479v43.458h-18.437v-43.458
	c0-5.09,4.127-9.218,9.219-9.218C774.652,677.262,778.779,681.39,778.779,686.479z M750.23,686.479v43.458h-18.437v-43.458
	c0-5.09,4.128-9.218,9.219-9.218S750.23,681.39,750.23,686.479z M722.568,686.479v43.458h-18.436v-43.458
	c0-5.09,4.127-9.218,9.219-9.218C718.441,677.262,722.568,681.39,722.568,686.479z M619.931,932.618v-3.771h10.466v3.771H619.931z
	 M630.396,937.243v21.149h-10.466v-21.149H630.396z M619.931,925.044v-89.569h10.466v89.569H619.931z M619.931,830.835v-3.772
	h10.466v3.772H619.931z M620.283,822.961c0-21.086-16.162-38.241-36.03-38.241s-36.033,17.155-36.033,38.241h-10.113
	c0-26.664,20.7-48.355,46.146-48.355c25.444,0,46.144,21.691,46.144,48.355H620.283z M556.146,917.537v-9.369V887.12h24.562v21.048
	v9.369v40.859h-24.562V917.537z M555.562,866.261v-52.193c0-6.783,5.499-12.281,12.28-12.281c6.783,0,12.281,5.498,12.281,12.281
	v52.193H555.562z M576.641,795.148c0-3.665,2.972-6.637,6.638-6.637c3.665,0,6.637,2.972,6.637,6.637
	c0,3.666-2.972,6.638-6.637,6.638C579.612,801.786,576.641,798.814,576.641,795.148z M587.21,814.067
	c0-6.783,5.499-12.281,12.281-12.281s12.281,5.498,12.281,12.281v52.193H587.21V814.067z M587.796,917.537v-9.369V887.12h24.562
	v21.048v9.369v40.859h-24.562V917.537z M538.106,932.618v-3.771h10.467v3.771H538.106z M548.573,937.243v21.149h-10.467v-21.149
	H548.573z M538.106,925.044v-89.569h10.467v89.569H538.106z M538.106,830.835v-3.772h10.467v3.772H538.106z M536.631,759.434v-3.354
	h95.243v3.354H536.631z M536.631,753.112v-3.353h95.243v3.353H536.631z M536.214,659.142h95.244v6.244h-95.244V659.142z
	 M620.336,686.479v43.458H601.9v-43.458c0-5.09,4.127-9.218,9.219-9.218C616.209,677.262,620.336,681.39,620.336,686.479z
	 M591.788,686.479v43.458h-18.436v-43.458c0-5.09,4.127-9.218,9.219-9.218C587.661,677.262,591.788,681.39,591.788,686.479z
	 M564.126,686.479v43.458H545.69v-43.458c0-5.09,4.127-9.218,9.219-9.218C559.999,677.262,564.126,681.39,564.126,686.479z
	 M536.213,733.194h95.244v3.354h-95.244V733.194z M461.475,932.618v-3.771h10.466v3.771H461.475z M471.94,937.243v21.149h-10.466
	v-21.149H471.94z M461.475,925.044v-89.569h10.466v89.569H461.475z M461.475,830.835v-3.772h10.466v3.772H461.475z M461.827,822.961
	c0-21.086-16.162-38.241-36.031-38.241c-19.868,0-36.033,17.155-36.033,38.241H379.65c0-26.664,20.701-48.355,46.146-48.355
	s46.144,21.691,46.144,48.355H461.827z M397.691,917.537v-9.369V887.12h24.562v21.048v9.369v40.859h-24.562V917.537z
	 M397.106,866.261v-52.193c0-6.783,5.499-12.281,12.28-12.281c6.783,0,12.282,5.498,12.282,12.281v52.193H397.106z M418.185,795.148
	c0-3.665,2.972-6.637,6.637-6.637c3.665,0,6.638,2.972,6.638,6.637c0,3.666-2.973,6.638-6.638,6.638
	C421.157,801.786,418.185,798.814,418.185,795.148z M428.755,814.067c0-6.783,5.498-12.281,12.279-12.281
	c6.783,0,12.282,5.498,12.282,12.281v52.193h-24.562V814.067z M429.34,917.537v-9.369V887.12h24.562v21.048v9.369v40.859H429.34
	V917.537z M379.65,932.618v-3.771h10.467v3.771H379.65z M390.117,937.243v21.149H379.65v-21.149H390.117z M379.65,925.044v-89.569
	h10.467v89.569H379.65z M379.65,830.835v-3.772h10.467v3.772H379.65z M378.588,759.854v-3.353h95.243v3.353H378.588z
	 M378.588,753.534v-3.354h95.243v3.354H378.588z M378.172,659.562h95.243v6.244h-95.243V659.562z M462.294,686.901v43.457h-18.436
	v-43.457c0-5.091,4.127-9.218,9.219-9.218C458.167,677.684,462.294,681.811,462.294,686.901z M433.745,686.901v43.457H415.31
	v-43.457c0-5.091,4.127-9.218,9.218-9.218C429.618,677.684,433.745,681.811,433.745,686.901z M406.083,686.901v43.457h-18.436
	v-43.457c0-5.091,4.127-9.218,9.218-9.218C401.957,677.684,406.083,681.811,406.083,686.901z M378.171,733.615h95.243v3.354h-95.243
	V733.615z M220.346,659.562h95.243v6.244h-95.243V659.562z M304.468,686.901v43.457h-18.436v-43.457
	c0-5.091,4.126-9.218,9.218-9.218C300.34,677.684,304.468,681.811,304.468,686.901z M275.919,686.901v43.457h-18.436v-43.457
	c0-5.091,4.127-9.218,9.219-9.218C271.792,677.684,275.919,681.811,275.919,686.901z M248.257,686.901v43.457h-18.436v-43.457
	c0-5.091,4.127-9.218,9.218-9.218S248.257,681.811,248.257,686.901z M220.345,733.615h95.243v3.354h-95.243V733.615z
	 M219.356,968.738h95.243v6.245h-95.243V968.738z M302.8,932.618v-3.771h10.467v3.771H302.8z M313.267,937.243v21.149H302.8v-21.149
	H313.267z M302.8,925.044v-89.569h10.467v89.569H302.8z M302.8,830.835v-3.772h10.467v3.772H302.8z M303.153,822.961
	c0-21.086-16.163-38.241-36.031-38.241s-36.032,17.155-36.032,38.241h-10.114c0-26.664,20.701-48.355,46.146-48.355
	s46.145,21.691,46.145,48.355H303.153z M239.017,917.537v-9.369V887.12h24.562v21.048v9.369v40.859h-24.562V917.537z
	 M238.431,866.261v-52.193c0-6.783,5.499-12.281,12.281-12.281c6.783,0,12.281,5.498,12.281,12.281v52.193H238.431z
	 M259.511,795.148c0-3.665,2.971-6.637,6.637-6.637s6.637,2.972,6.637,6.637c0,3.666-2.972,6.638-6.637,6.638
	S259.511,798.814,259.511,795.148z M270.08,814.067c0-6.783,5.499-12.281,12.28-12.281c6.783,0,12.282,5.498,12.282,12.281v52.193
	H270.08V814.067z M270.665,917.537v-9.369V887.12h24.562v21.048v9.369v40.859h-24.562V917.537z M231.442,827.062v3.772h-10.467
	v-3.772H231.442z M231.442,835.475v89.569h-10.467v-89.569H231.442z M231.442,928.847v3.771h-10.467v-3.771H231.442z
	 M231.442,937.243v21.149h-10.467v-21.149H231.442z M263.726,1024.684v8.121v35.424h-24.562v-35.424v-8.121v-18.249h24.562V1024.684
	z M295.374,1024.684v8.121v35.424h-24.562v-35.424v-8.121v-18.249h24.562V1024.684z M314.89,994.858h-95.243v-3.353h95.243V994.858z
	 M316.005,759.854h-95.243v-3.353h95.243V759.854z M316.005,753.534h-95.243v-3.354h95.243V753.534z M360.499,974.983v-6.245
	h288.654v6.245H360.499z M649.355,985.097H360.702v-6.244h288.654V985.097z M694.656,733.194h95.242v3.354h-95.242V733.194z
	 M694.781,968.738h95.244v6.245h-95.244V968.738z M778.08,932.618v-3.771h10.467v3.771H778.08z M788.547,937.243v21.149H778.08
	v-21.149H788.547z M778.08,925.044v-89.569h10.467v89.569H778.08z M778.08,830.835v-3.772h10.467v3.772H778.08z M778.434,822.961
	c0-21.086-16.164-38.241-36.031-38.241c-19.869,0-36.033,17.155-36.033,38.241h-10.113c0-26.664,20.701-48.355,46.146-48.355
	c25.444,0,46.145,21.691,46.145,48.355H778.434z M714.297,917.537v-9.369V887.12h24.562v21.048v9.369v40.859h-24.562V917.537z
	 M713.712,866.261v-52.193c0-6.783,5.499-12.281,12.28-12.281c6.782,0,12.281,5.498,12.281,12.281v52.193H713.712z M734.791,795.148
	c0-3.665,2.972-6.637,6.637-6.637s6.637,2.972,6.637,6.637c0,3.666-2.972,6.638-6.637,6.638S734.791,798.814,734.791,795.148z
	 M745.36,814.067c0-6.783,5.499-12.281,12.28-12.281c6.783,0,12.281,5.498,12.281,12.281v52.193H745.36V814.067z M745.945,917.537
	v-9.369V887.12h24.562v21.048v9.369v40.859h-24.562V917.537z M706.723,827.062v3.772h-10.467v-3.772H706.723z M706.723,835.475
	v89.569h-10.467v-89.569H706.723z M706.723,928.847v3.771h-10.467v-3.771H706.723z M706.723,937.243v21.149h-10.467v-21.149H706.723
	z M739.151,1024.684v8.121v35.424H714.59v-35.424v-8.121v-18.249h24.562V1024.684z M770.8,1024.684v8.121v35.424h-24.562v-35.424
	v-8.121v-18.249H770.8V1024.684z M790.315,994.858h-95.242v-3.353h95.242V994.858z M790.315,759.434h-95.242v-3.354h95.242V759.434z
	 M790.315,753.112h-95.242v-3.353h95.242V753.112z"/>
<g>
	<path d="M505.025,1120.925c-12.107,0-21.923,8.983-21.923,20.064v58.394h43.842v-58.394
		C526.944,1129.908,517.129,1120.925,505.025,1120.925z"/>
	<polygon points="463.931,1143.15 463.931,1119.583 460.313,1119.583 460.313,1143.15 460.313,1153.638 460.313,1199.383 
		463.931,1199.383 463.931,1153.638 	"/>
	<path d="M417.847,1121.004c-12.04,0-21.798,8.984-21.798,20.064v58.314h43.593v-58.314
		C439.642,1129.988,429.883,1121.004,417.847,1121.004z"/>
	<polygon points="377.058,1143.15 377.058,1119.583 373.44,1119.583 373.44,1143.15 373.44,1153.638 373.44,1199.383 
		377.058,1199.383 377.058,1153.638 	"/>
	<path d="M649.355,1091.212h-0.503H361.609h-0.908H198.141v108.171h162.764v-45.745v-10.487v-23.567v-13.754h288.249v13.754h0.404
		v23.567v10.487v45.745h162.357v-108.171H649.355z M264.278,1181.684h-33.497v-50.255c0-9.249,7.498-16.748,16.749-16.748
		c9.25,0,16.748,7.499,16.748,16.748V1181.684z M304.411,1181.684h-33.497v-50.255c0-9.249,7.498-16.748,16.748-16.748
		c9.25,0,16.749,7.499,16.749,16.748V1181.684z M649.558,1101.326H360.904v-6.245h288.653V1101.326z M740.254,1181.049h-33.496
		v-50.254c0-9.25,7.497-16.748,16.748-16.748c9.249,0,16.748,7.498,16.748,16.748V1181.049z M780.387,1181.049H746.89v-50.254
		c0-9.25,7.497-16.748,16.749-16.748c9.249,0,16.748,7.498,16.748,16.748V1181.049z"/>
	<polygon points="551.153,1143.15 551.153,1119.583 547.535,1119.583 547.535,1143.15 547.535,1153.638 547.535,1199.383 
		551.153,1199.383 551.153,1153.638 	"/>
	<polygon points="637.021,1143.15 637.021,1119.583 633.402,1119.583 633.402,1143.15 633.402,1153.638 633.402,1199.383 
		637.021,1199.383 637.021,1153.638 	"/>
	<path d="M592.913,1121.004c-11.804,0-21.372,8.984-21.372,20.064v58.314h42.742v-58.314
		C614.283,1129.988,604.715,1121.004,592.913,1121.004z"/>
</g>
</svg>
