<?xml version="1.0" encoding="utf-8"?>
<!-- Generator: Adobe Illustrator 15.0.0, SVG Export Plug-In . SVG Version: 6.00 Build 0)  -->
<!DOCTYPE svg PUBLIC "-//W3C//DTD SVG 1.1//EN" "http://www.w3.org/Graphics/SVG/1.1/DTD/svg11.dtd">
<svg version="1.1" id="Layer_1" xmlns="http://www.w3.org/2000/svg" xmlns:xlink="http://www.w3.org/1999/xlink" x="0px" y="0px"
	 width="400px" height="600px" viewBox="0 0 400 600" enable-background="new 0 0 400 600" xml:space="preserve">
<rect x="0.053" y="0" fill="#FFFFFF" width="400" height="600"/>
<path fill="none" stroke="#000000" stroke-width="5.3889" stroke-linecap="round" stroke-miterlimit="10" d="M172.896,204.578
	c0,0-17.854,1.333-16.789-10.926c0,0-9.594-7.462-4.53-16.522c0,0-2.951-2.665-1.475-6.396c0,0-13.448-3.465-8.384-15.723
	c0,0,1.065-11.992,9.061-7.728"/>
<path fill="none" stroke="#000000" stroke-width="5.3889" stroke-linecap="round" stroke-miterlimit="10" d="M189.686,214.438
	c0,0-9.595,7.384-12.259-0.971c0,0-5.596-2.76-4.531-8.889c0,0,15.723-10.926,10.66-18.121s-7.728,3.198-11.992,4.264
	c-4.264,1.066-15.457,2.932-15.457,2.932"/>
<path fill="none" stroke="#000000" stroke-width="5.3889" stroke-linecap="round" stroke-miterlimit="10" d="M189.686,214.438
	c7.194,5.597,14.389-3.731,14.389-3.731"/>
<path fill="none" stroke="#000000" stroke-width="5.3889" stroke-linecap="round" stroke-miterlimit="10" d="M214.202,212.306
	c0,0-2.132,8.794-10.128-1.6"/>
<path fill="none" stroke="#000000" stroke-width="5.3889" stroke-linecap="round" stroke-miterlimit="10" d="M234.987,194.984
	c0,0,2.398,8.261-5.862,10.127c0,0-3.464,10.126-14.923,7.195"/>
<path fill="none" stroke="#000000" stroke-width="5.3889" stroke-linecap="round" stroke-miterlimit="10" d="M254.974,164.605
	c0,0,7.462-1.066,2.932,4.53c0,0-5.33,1.554,0,3.575c0,0,3.73,1.488-0.532,6.285c-4.265,4.797-4.531,7.461-11.726,5.596"/>
<path fill="none" stroke="#000000" stroke-width="5.3889" stroke-linecap="round" stroke-miterlimit="10" d="M249.111,140.888
	c0,0,7.196-2.665,4.797,5.862c0,0-2.932,4.53,3.197,2.132c6.131-2.398,6.396,8.1,2.133,11.911c-4.265,3.812-4.265,3.812-4.265,3.812
	"/>
<path fill="none" stroke="#000000" stroke-width="5.3889" stroke-linecap="round" stroke-miterlimit="10" d="M238.186,120.901
	c0,0,7.194-4.53,9.327,0.267c2.132,4.797,2.132,5.063,0,10.659c0,0,5.062,3.998,1.599,9.061"/>
<path fill="none" stroke="#000000" stroke-width="5.3889" stroke-linecap="round" stroke-miterlimit="10" d="M231.522,116.903
	c0,0,5.598-3.197,6.663,3.998"/>
<path fill="none" stroke="#000000" stroke-width="5.3889" stroke-linecap="round" stroke-miterlimit="10" d="M222.995,111.574
	c0,0,7.462-1.599,8.527,5.33"/>
<path fill="none" stroke="#000000" stroke-width="5.3889" stroke-linecap="round" stroke-miterlimit="10" d="M157.44,128.629
	c0,0,1.066-12.258,11.192-8.527c0,0,5.863-9.061,12.525-6.929c0,0,6.396-4.796,11.726-1.599c0,0,6.661-5.596,11.191-2.132"/>
<path fill="none" stroke="#000000" stroke-width="5.3889" stroke-linecap="round" stroke-miterlimit="10" d="M150.778,147.283
	c0,0-8.528-9.061-1.599-15.723c6.928-6.662,8.261-2.932,8.261-2.932"/>
<path fill="none" stroke="#000000" stroke-width="5.3889" stroke-linecap="round" stroke-miterlimit="10" d="M160.928,120.901
	c0,0-14.68,1.333-22.142-3.998c-7.461-5.33-26.115-17.055-19.453-26.382c6.662-9.327,14.293-14.923,27.133-7.461
	c12.84,7.461,25.263,16.363,28.245,31.1"/>
<path fill="none" stroke="#000000" stroke-width="5.3889" stroke-linecap="round" stroke-miterlimit="10" d="M199.777,108.364
	c0,0,17.821-30.745,11.459-47.156c-6.361-16.411-11.958-22.119-31.944-12.792c0,0-6.396,4.263-14.391,2.932
	c-7.994-1.333-19.052,2.931-18.586,14.923c0.465,11.992,2.628,18.252,2.628,18.252"/>
<path fill="none" stroke="#000000" stroke-width="5.3889" stroke-linecap="round" stroke-miterlimit="10" d="M220.438,106.874
	c0,0,0.426-27.545,14.55-43.268s22.386-23.451,33.044-15.989c10.66,7.462,12.792,14.695,6.13,28.533s-20.787,35.69-37.841,40.753"/>
<path fill="none" stroke="#000000" stroke-width="5.3889" stroke-linecap="round" stroke-miterlimit="10" d="M161.439,51.127
	c0,0-0.801-11.238,19.319-16.035c20.12-4.797,32.911-6.662,38.508-7.195c5.596-0.533,19.574,1.463,19.913,31.11"/>
<path fill="none" stroke="#000000" stroke-width="5.3889" stroke-linecap="round" stroke-miterlimit="10" d="M141.636,164.523
	c0,0-32.963,1.147-50.019-4.716c-17.055-5.862-32.778-17.588-19.187-31.179s27.715-9.061,37.575-4.264
	c9.86,4.797,36.295,14.39,36.295,14.39"/>
<path fill="none" stroke="#000000" stroke-width="5.3889" stroke-linecap="round" stroke-miterlimit="10" d="M149.133,56.8
	c0,0-12.745,0.144-18.075,10.537c0,0-19.986-1.333-26.648,7.195c0,0-14.124,6.662-10.926,22.385
	c3.198,15.722,7.703,16.956,3.186,23.001"/>
<path fill="none" stroke="#000000" stroke-width="5.3889" stroke-linecap="round" stroke-miterlimit="10" d="M149.69,172.71
	c0,0-10.638,15.611-45.015,14.945c-34.377-0.667-42.901-8.546-39.174-25.449c0,0,2.511-9.725,8.317-11.791"/>
<path fill="none" stroke="#000000" stroke-width="5.3889" stroke-linecap="round" stroke-miterlimit="10" d="M151.953,224.031
	c0,0-1.975,10.394-9.436,10.66s-15.189,2.132-18.92-10.127c-3.73-12.258-3.997-18.302,2.932-19.944
	c6.928-1.642,14.05-3.507,14.05-3.507s2.739-1.599-1.525-3.997c-4.263-2.398-4.133-10.954,3.464-12.525
	c7.598-1.572,7.598-1.572,7.598-1.572"/>
<path fill="none" stroke="#000000" stroke-width="5.3889" stroke-linecap="round" stroke-miterlimit="10" d="M178.615,215.78
	c0,0,1.743,26.105-8.649,26.105c-10.394,0-16.571,0-18.013-17.855"/>
<path fill="none" stroke="#000000" stroke-width="5.3889" stroke-linecap="round" stroke-miterlimit="10" d="M123.596,224.564
	c0,0-14.124,14.391-21.319,17.322c-7.195,2.932-13.857,3.198-15.19-2.398c0,0-8.794-3.454-3.997-10.654
	c0,0-15.457-3.452-8.528-19.85c0,0,0-20.989,16.789-16.028c0,0,6.929-3.525,9.061-5.278"/>
<path fill="none" stroke="#000000" stroke-width="5.3889" stroke-linecap="round" stroke-miterlimit="10" d="M176.881,234.947
	c0,0,7.741,12.002-9.848,28.791c-17.587,16.789-25.049,24.782-40.772,15.189c-15.723-9.593-13.058-16.522-11.192-27.981
	c1.865-11.459,5.933-23.82,5.933-23.82"/>
<path fill="none" stroke="#000000" stroke-width="5.3889" stroke-linecap="round" stroke-miterlimit="10" d="M204.074,212.838
	c0,0-5.596,7.729-3.196,17.322c2.397,9.594-4.394,17.588-0.599,27.182s12.324,35.976,32.043,33.311
	c19.721-2.664,16.612-10.926,27.094-12.524c10.48-1.599,24.339-9.061,20.608-20.52c-3.731-11.459-3.999-13.857-2.666-21.319
	c1.333-7.461,1.6-11.715-7.994-23.046c-9.595-11.332-22.385-28.053-22.385-28.053"/>
<path fill="none" stroke="#000000" stroke-width="5.3889" stroke-linecap="round" stroke-miterlimit="10" d="M167.033,263.738
	c0,0-11.822,30.913,11.544,43.169c23.366,12.259,37.516-5.021,41.101-18.898"/>
<path fill="none" stroke="#000000" stroke-width="5.3889" stroke-linecap="round" stroke-miterlimit="10" d="M259.15,165.461
	c0,0,19.808-13.083,26.735-19.095c6.929-6.012,19.721-14.231,34.644-4.258c14.924,9.971,6.663,15.683,2.665,23.353
	c-3.997,7.67-10.127,31.86-30.912,27.494c-20.785-4.367-36.666-11.866-36.666-11.866"/>
<path fill="none" stroke="#000000" stroke-width="5.3889" stroke-linecap="round" stroke-miterlimit="10" d="M268.678,86.268
	c0,0,25.203-14.934,29.467,3.454c4.264,18.388-1.332,23.185-6.929,31.179c-5.596,7.995-19.129,18.977-36.879,22.013"/>
<line fill="none" stroke="#000000" stroke-width="5.3889" stroke-linecap="round" stroke-miterlimit="10" x1="244.215" y1="118.964" x2="249.111" y2="109.854"/>
<path fill="none" stroke="#000000" stroke-width="5.3889" stroke-linecap="round" stroke-miterlimit="10" d="M277.534,66.787
	c0,0,27.272-4.233,32.337,12.815c0,0,1.598,4.79,6.129,4.79c4.529,0,6.661,7.083,5.328,15.934c-1.331,8.85-9.06,11.011-6.395,20.724
	c2.664,9.712,10.644,12.467,6.787,21.882"/>
<path fill="none" stroke="#000000" stroke-width="5.3889" stroke-linecap="round" stroke-miterlimit="10" d="M321.921,168.209
	c0,0,17.797,12.118,15.93,19.446c-1.865,7.328-9.061,20.12-24.517,19.586"/>
<path fill="none" stroke="#000000" stroke-width="5.3889" stroke-linecap="round" stroke-miterlimit="10" d="M280.024,257.609
	c0,0,16.255,7.994,23.184,0c6.928-7.995,6.129-17.588,0-25.05c-6.129-7.462-14.045-24.362-37.67-23.907"/>
<path fill="none" stroke="#000000" stroke-width="5.3889" stroke-linecap="round" stroke-miterlimit="10" d="M304.832,191.809
	c0,0,9.036,13.322,8.502,23.971c0,0,2.399,5.053,1.6,9.317c-0.801,4.264-0.955,12.283-7.938,14.002"/>
<path fill="none" stroke="#000000" stroke-width="5.3889" stroke-linecap="round" stroke-miterlimit="10" d="M209.139,157.143
	c0,0-6.929,0-6.13-9.86c0.8-9.86,11.459-8.528,13.324,0C218.2,155.811,212.869,155.278,209.139,157.143z"/>
<path fill="none" stroke="#000000" stroke-width="5.3889" stroke-linecap="round" stroke-miterlimit="10" d="M185.421,167.003
	c0,0,7.119-17.588,14.886-6.396s-3.198,10.926-7.442,10.926C188.619,171.533,182.759,171.978,185.421,167.003z"/>
<path fill="none" stroke="#000000" stroke-width="5.3889" stroke-linecap="round" stroke-miterlimit="10" d="M216.719,168.209
	c0,0,8.942-9.187,12.14,0c3.198,9.187-3.178,8.92-5.586,8.92C220.863,177.13,210.175,174.746,216.719,168.209z"/>
<path fill="none" stroke="#000000" stroke-width="5.3889" stroke-linecap="round" stroke-miterlimit="10" d="M204.074,177.13
	c0,0,11.658,2.397,7.162,10.525c-4.496,8.127-6.096,4.664-14.356,3.064C188.619,189.122,190.751,176.065,204.074,177.13z"/>
<path fill="none" stroke="#000000" stroke-width="5.3889" stroke-linecap="round" stroke-miterlimit="10" d="M171.831,164.126
	c0,0-9.061,3.41-12.259-1.387c-3.198-4.797,2.399-13.325,9.86-7.729C176.894,160.607,178.226,161.25,171.831,164.126z"/>
<path fill="none" stroke="#000000" stroke-width="5.3889" stroke-linecap="round" stroke-miterlimit="10" d="M196.88,131.827
	c0,0-0.267,12.84-7.194,8.552c-6.93-4.288-15.724-12.549-7.462-17.613C190.484,117.703,197.413,120.901,196.88,131.827z"/>
<path fill="none" stroke="#000000" stroke-width="5.3889" stroke-linecap="round" stroke-miterlimit="10" d="M234.854,163.272
	c0,0,6.796-10.926,10.793-7.994c3.997,2.93,9.859,9.074,3.464,12.931C242.716,172.066,230.457,174.198,234.854,163.272z"/>
<path fill="none" stroke="#000000" stroke-width="5.3889" stroke-linecap="round" stroke-miterlimit="10" d="M211.236,181.117
	c0,0,5.337-8.804,10.946,0c5.609,8.804,6.115,11.202,0,13.867c-6.115,2.665-8.192,0.866-12.351-5.03"/>
<path fill="none" stroke="#000000" stroke-width="5.3889" stroke-linecap="round" stroke-miterlimit="10" d="M180.758,197.496
	c0,0,9.193-4.685,8.928,3.197c-0.267,7.882,4.775,9.819-2.143,15.113"/>
<path fill="none" stroke="#000000" stroke-width="5.3889" stroke-linecap="round" stroke-miterlimit="10" d="M228.826,175.493
	c0,0,12.558,4.326,9.359,8.444s-6.688,10.138-12.271,3.797"/>
<path fill="none" stroke="#000000" stroke-width="5.3889" stroke-linecap="round" stroke-miterlimit="10" d="M192.004,157.143
	c0,0,2.805-10.835-6.02-14.212s-8.558,0.267-5.227,7.106C184.089,156.877,186.329,164.605,192.004,157.143z"/>
<path fill="none" stroke="#000000" stroke-width="5.3889" stroke-linecap="round" stroke-miterlimit="10" d="M214.738,154.778
	c0,0,2.935,7.007,0,10.682s0.264,12.127-8.265,10.033c-8.527-2.095-7.373-4.458-7.373-4.458"/>
<path fill="none" stroke="#000000" stroke-width="5.3889" stroke-linecap="round" stroke-miterlimit="10" d="M199.236,159.237
	c0,0,0.842-5.043,4.838-5.301"/>
<path fill="none" stroke="#000000" stroke-width="5.3889" stroke-linecap="round" stroke-miterlimit="10" d="M185.421,167.003
	c0,0-5.596-0.843-8.261,5.708c-2.665,6.551,0.533,6.7,6.396,4.494c5.863-2.207,6.13-5.675,6.13-5.675"/>
<path fill="none" stroke="#000000" stroke-width="5.3889" stroke-linecap="round" stroke-miterlimit="10" d="M205.462,141.654
	c0,0-3.785-4.739-8.582-4.219"/>
<line fill="none" stroke="#000000" stroke-width="5.3889" stroke-linecap="round" stroke-miterlimit="10" x1="187.894" y1="142.931" x2="189.686" y2="140.379"/>
<path fill="none" stroke="#000000" stroke-width="5.3889" stroke-linecap="round" stroke-miterlimit="10" d="M196.88,127.588
	c0,0,3.743-11.106,10.666-7.164c6.922,3.941,6.752,14.079,0.309,20.069"/>
<path fill="none" stroke="#000000" stroke-width="5.3889" stroke-linecap="round" stroke-miterlimit="10" d="M176.21,178.482
	c0,0-10.509,5.893-12.108-2.661c-1.599-8.552,6.054-11.183,6.054-11.183l6.054-2.966c0,0,8.558-3.762,11.683-1.481"/>
<path fill="none" stroke="#000000" stroke-width="5.3889" stroke-linecap="round" stroke-miterlimit="10" d="M178.725,144.718
	c0,0-7.427,5.019-8.493-1.804s5.655-10.554,9.224-10.288"/>
<path fill="none" stroke="#000000" stroke-width="5.3889" stroke-linecap="round" stroke-miterlimit="10" d="M150.102,170.734
	c0,0,4.94-0.165,4.673-7.678c-0.267-7.512-0.611-15.213-6.035-16.56"/>
<path fill="none" stroke="#000000" stroke-width="5.3889" stroke-linecap="round" stroke-miterlimit="10" d="M168.632,120.102
	c0,0,7.892,7.449,6.078,13.851"/>
<path fill="none" stroke="#000000" stroke-width="5.3889" stroke-linecap="round" stroke-miterlimit="10" d="M170.355,139.524
	c0,0-13.448,0.824-12.915-12.497"/>
<path fill="none" stroke="#000000" stroke-width="5.3889" stroke-linecap="round" stroke-miterlimit="10" d="M216.719,150.925
	c0,0,6.519-3.394,9.196,3.012c2.677,6.404-1.158,10.276-1.158,10.276"/>
<path fill="none" stroke="#000000" stroke-width="5.3889" stroke-linecap="round" stroke-miterlimit="10" d="M196.88,190.72
	c0,0-5.862,3.532-7.194,9.361"/>
<path fill="none" stroke="#000000" stroke-width="5.3889" stroke-linecap="round" stroke-miterlimit="10" d="M207.546,192.837
	c0,0,4.396,11.067-4.602,19.132"/>
<path fill="none" stroke="#000000" stroke-width="5.3889" stroke-linecap="round" stroke-miterlimit="10" d="M229.738,190.493
	c0,0-2.8,10.988-9.301,15.468c-6.502,4.48-9.688,1.458-11.837-5.879"/>
<path fill="none" stroke="#000000" stroke-width="5.3889" stroke-linecap="round" stroke-miterlimit="10" d="M224.757,151.976
	c0,0,9.019-17.014,14.422-10.32c5.402,6.694,1.218,14.932,1.218,14.932s-4.997,6.309-14.796,6.47"/>
<path fill="none" stroke="#000000" stroke-width="5.3889" stroke-linecap="round" stroke-miterlimit="10" d="M236.587,178.482
	c0,0,2.396-1.333,1.599-6.939"/>
<path fill="none" stroke="#000000" stroke-width="5.3889" stroke-linecap="round" stroke-miterlimit="10" d="M214.627,143.473
	c0,0,9.701-0.454,10.13-9.521c0.428-9.067-12.044-4.026-12.044-4.026s-0.377-13.289,10.282-18.352c0,0,2.399-3.464-6.928-6.662
	s-11.993,4.53-11.993,4.53"/>
<path fill="none" stroke="#000000" stroke-width="5.3889" stroke-linecap="round" stroke-miterlimit="10" d="M232.643,141.654
	c0,0,0.559-5.742-7.875-5.652"/>
<path fill="none" stroke="#000000" stroke-width="5.3889" stroke-linecap="round" stroke-miterlimit="10" d="M247.619,156.881
	c0,0,2.559-5.867,9.486-7.999"/>
<path fill="none" stroke="#000000" stroke-width="5.3889" stroke-linecap="round" stroke-miterlimit="10" d="M251.674,165.46
	c0,0,2.31,0.03,3.942-1.43"/>
<path fill="none" stroke="#000000" stroke-width="5.3889" stroke-linecap="round" stroke-miterlimit="10" d="M236.08,186.696
	l6.369,4.024c5.063-0.533,3.198-6.129,3.198-6.129"/>
<path fill="none" stroke="#000000" stroke-width="5.3889" stroke-linecap="round" stroke-miterlimit="10" d="M230.591,190.493
	c0,0,0.4,2.893,4.396,4.491c7.77,3.108,7.462-4.264,7.462-4.264"/>
<line fill="none" stroke="#000000" stroke-width="5.3889" stroke-linecap="round" stroke-miterlimit="10" x1="229.125" y1="205.111" x2="225.915" y2="199.659"/>
<path fill="none" stroke="#000000" stroke-width="5.3889" stroke-linecap="round" stroke-miterlimit="10" d="M241.032,144.799
	c0,0,9.307-5.301,10.916-4.42"/>
<line fill="none" stroke="#000000" stroke-width="5.3889" stroke-linecap="round" stroke-miterlimit="10" x1="247.513" y1="131.827" x2="236.08" y2="139.555"/>
<path fill="none" stroke="#000000" stroke-width="5.3889" stroke-linecap="round" stroke-miterlimit="10" d="M228.708,136.519
	c0,0,8.852-16.279,12.18-16.917"/>
<path fill="none" stroke="#000000" stroke-width="5.3889" stroke-linecap="round" stroke-miterlimit="10" d="M163.89,153.174
	c0,0-1.12-8.766,6.342-10.26"/>
<path fill="none" stroke="#000000" stroke-width="5.3889" stroke-linecap="round" stroke-miterlimit="10" d="M152.141,148.882
	c0,0,5.761,5.714,9.672,5.054"/>
<path fill="none" stroke="#000000" stroke-width="5.3889" stroke-linecap="round" stroke-miterlimit="10" d="M151.577,177.13
	c0,0,6.77,1.833,12.312-3.347"/>
<path fill="none" stroke="#000000" stroke-width="5.3889" stroke-linecap="round" stroke-miterlimit="10" d="M192.883,111.574
	c0,0-6.385,4.305-1.672,8.85"/>
<line fill="none" stroke="#000000" stroke-width="5.3889" stroke-linecap="round" stroke-miterlimit="10" x1="179.455" y1="184.591" x2="178.725" y2="178.482"/>
<g>
	<path fill="none" stroke="#000000" stroke-width="5.3889" stroke-linecap="round" stroke-miterlimit="10" d="M222.755,412.926
		c0,0-5.607,8.072-11.662,1.346c-6.056-6.729,3.812-8.522,5.831-8.074C218.943,406.646,225.446,406.421,222.755,412.926z"/>
	<path fill="none" stroke="#000000" stroke-width="5.3889" stroke-linecap="round" stroke-miterlimit="10" d="M220.063,431.989
		c0,0,5.384-7.178,12.336,0c6.952,7.176,2.018,9.866-1.794,11.887C226.792,445.894,216.924,440.286,220.063,431.989z"/>
	<path fill="none" stroke="#000000" stroke-width="5.3889" stroke-linecap="round" stroke-miterlimit="10" d="M250.789,406.132
		c0,0,5.833-10.253,9.87-2.403c4.037,7.851,2.466,8.748-1.346,10.767C255.5,416.513,248.771,414.364,250.789,406.132z"/>
	<path fill="none" stroke="#000000" stroke-width="5.3889" stroke-linecap="round" stroke-miterlimit="10" d="M198.085,404.178
		c0,0-5.383-7.177,0-8.972c5.383-1.793,8.971-4.483,8.747,1.347C206.607,402.383,206.159,406.421,198.085,404.178z"/>
	<path fill="none" stroke="#000000" stroke-width="5.3889" stroke-linecap="round" stroke-miterlimit="10" d="M234.643,404.808
		c0,0-9.42,4.218-8.522-4.038c0.896-8.253,6.503-8.479,8.522-4.441C236.66,400.365,237.333,400.053,234.643,404.808z"/>
	<path fill="none" stroke="#000000" stroke-width="5.3889" stroke-linecap="round" stroke-miterlimit="10" d="M198.533,416.948
		c0,0-11.214,7.485-9.868-1.745s1.72-10.079,7.028-9.317C201.001,406.646,205.037,407.739,198.533,416.948z"/>
	<path fill="none" stroke="#000000" stroke-width="5.3889" stroke-linecap="round" stroke-miterlimit="10" d="M216.924,406.197
		c0,0-1.215-9.421,2.532-11.438c3.748-2.02,7.084-2.117,8.22,1.072"/>
	<path fill="none" stroke="#000000" stroke-width="5.3889" stroke-linecap="round" stroke-miterlimit="10" d="M223.292,409.316
		c0,0,3.023-1.224,4.384-3.967"/>
	<path fill="none" stroke="#000000" stroke-width="5.3889" stroke-linecap="round" stroke-miterlimit="10" d="M256.725,400.79
		c0,0,5.503-4.639,2.364-7.466c-3.14-2.826-2.691,0.312-5.607-2.153c-2.915-2.469-7.85-0.627-8.298,2.153
		c-0.449,2.78,1.279,7.851,6.471,11.483"/>
	<path fill="none" stroke="#000000" stroke-width="5.3889" stroke-linecap="round" stroke-miterlimit="10" d="M234.643,404.808
		c0,0,5.606,6.323,0,9.239c-5.607,2.914-6.521,9.713-14.08,1.156"/>
	<path fill="none" stroke="#000000" stroke-width="5.3889" stroke-linecap="round" stroke-miterlimit="10" d="M219.638,433.454
		c0,0-9.891,1.125-9.667-4.657c0.226-5.779,5.456-9.593,6.766-6.901s-0.55,6.428,7.669,7.14"/>
	<path fill="none" stroke="#000000" stroke-width="5.3889" stroke-linecap="round" stroke-miterlimit="10" d="M254.195,414.83
		c0,0-3.181,5.496,3.995,8.859c7.178,3.364,4.067,0.482,4.839-2.673c0.77-3.158-3.716-6.521-3.716-6.521"/>
	<path fill="none" stroke="#000000" stroke-width="5.3889" stroke-linecap="round" stroke-miterlimit="10" d="M238.904,412.74
		c0,0,9.558,2.092,9.376,6.633c-0.183,4.542-5.116,7.008-9.376,2.971C234.643,418.307,233.297,415.249,238.904,412.74z"/>
	<path fill="none" stroke="#000000" stroke-width="5.3889" stroke-linecap="round" stroke-miterlimit="10" d="M227.676,419.207
		c0,0-4.725,6.401,0,9.59c4.724,3.192,10.643,4.314,12.706-5.321C240.382,423.476,235.062,412.482,227.676,419.207z"/>
	<path fill="none" stroke="#000000" stroke-width="5.3889" stroke-linecap="round" stroke-miterlimit="10" d="M212.232,406.919
		c0,0-6.728-1.481-5.391-6.149c1.336-4.665,6.38-10.845,11.933-5.512"/>
	<path fill="none" stroke="#000000" stroke-width="5.3889" stroke-linecap="round" stroke-miterlimit="10" d="M210.565,431.082
		c0,0-10.238,6.481-12.93,2.461s-2.467-10.94,0.897-12.526c3.364-1.587,4.037,0.207,6.279,2.001
		c2.243,1.795,6.588,1.037,6.588,1.037"/>
	<path fill="none" stroke="#000000" stroke-width="5.3889" stroke-linecap="round" stroke-miterlimit="10" d="M241.734,413.576
		c0,0-3.151-11.236,9.055-7.444"/>
	<path fill="none" stroke="#000000" stroke-width="5.3889" stroke-linecap="round" stroke-miterlimit="10" d="M253.565,418.562
		c0,0-1.285,2.591-5.283,1.841"/>
	<path fill="none" stroke="#000000" stroke-width="5.3889" stroke-linecap="round" stroke-miterlimit="10" d="M235.977,398.902
		c0,0,6.28-4.904,11.556,1.867"/>
	<path fill="none" stroke="#000000" stroke-width="5.3889" stroke-linecap="round" stroke-miterlimit="10" d="M215.346,421.018
		c0,0,0.812-2.004,4.11-5.047"/>
	<path fill="none" stroke="#000000" stroke-width="5.3889" stroke-linecap="round" stroke-miterlimit="10" d="M231.238,393.78
		c0,0,3.179-7.77,7.44-7.77s8.512,2.039,8.854,4.607"/>
	<path fill="none" stroke="#000000" stroke-width="5.3889" stroke-linecap="round" stroke-miterlimit="10" d="M203.223,393.324
		c0,0-2.671-8.434,4.731-9.331c7.4-0.896,6.665,3.636,5.351,9.331"/>
	<path fill="none" stroke="#000000" stroke-width="5.3889" stroke-linecap="round" stroke-miterlimit="10" d="M201.894,421.017
		c0,0-1.125-9.965,8.074-9.478"/>
	<path fill="none" stroke="#000000" stroke-width="5.3889" stroke-linecap="round" stroke-miterlimit="10" d="M237.134,386.346
		c0,0-1.226-9.978-5.896-7.96c-4.671,2.02-9.134,4.034-9.032,7.96c0.101,3.928,1.086,6.653,1.086,6.653"/>
	<path fill="none" stroke="#000000" stroke-width="5.3889" stroke-linecap="round" stroke-miterlimit="10" d="M255.072,392.131
		c0,0,5.587-6.098,9.624-3.529c4.037,2.569,9.419,3.613,6.951,8.585c-2.466,4.973-6.726,6.146-13.344,3.879"/>
	<path fill="none" stroke="#000000" stroke-width="5.3889" stroke-linecap="round" stroke-miterlimit="10" d="M238.679,386.011
		c0,0,3.061-5.92,9.604-7.894c6.545-1.973,9.239,7.449,10.021,11.327"/>
	<path fill="none" stroke="#000000" stroke-width="5.3889" stroke-linecap="round" stroke-miterlimit="10" d="M209.968,383.647
		c0,0-3.919-10.644,2.752-10.195c6.671,0.449,9.484,5.09,9.484,5.09s4.734-2.488,7.465-0.425"/>
	<path fill="none" stroke="#000000" stroke-width="5.3889" stroke-linecap="round" stroke-miterlimit="10" d="M255.072,380.18
		c0,0,2.939-13.682-4.147-13.455c-7.087,0.224-12.284,3.766-13.791,8.97c-1.506,5.204-1.506,5.204-1.506,5.204"/>
	<path fill="none" stroke="#000000" stroke-width="5.3889" stroke-linecap="round" stroke-miterlimit="10" d="M222.204,378.542
		c0,0-2.555-12.044,3.372-14.062c5.927-2.02,9.738-3.529,13.103,7.991"/>
	<path fill="none" stroke="#000000" stroke-width="5.3889" stroke-linecap="round" stroke-miterlimit="10" d="M238.679,428.096
		c0,0-0.896,4.472,5.159,6.761c6.056,2.291,11.031,3.41,11.234-2.195c0.204-5.607-3.635-9.393-8.22-9.743"/>
	<path fill="none" stroke="#000000" stroke-width="5.3889" stroke-linecap="round" stroke-miterlimit="10" d="M200.011,394.512
		c0,0-6.059-4.697-4.217-8.953c1.842-4.257,8.122-5.153,12.16-1.565"/>
	<path fill="none" stroke="#000000" stroke-width="5.3889" stroke-linecap="round" stroke-miterlimit="10" d="M199.431,434.856
		c0,0-3.985,5.583,2.27,9.432c6.254,3.849,15.783-6.562,17.074-9.432"/>
	<path fill="none" stroke="#000000" stroke-width="5.3889" stroke-linecap="round" stroke-miterlimit="10" d="M269.61,400.058
		c0,0,4.729,3.544,5.402,6.861c0.672,3.314,0.672,3.214,5.159,5.172c4.484,1.956,10.092,4.015,6.951,8.927
		c-3.141,4.915-7.663,6.99-17.513,3.037l-6.581-3.038"/>
	<path fill="none" stroke="#000000" stroke-width="5.3889" stroke-linecap="round" stroke-miterlimit="10" d="M195.971,400.058
		c0,0-8.203,2.919-12.239-2.648c-4.038-5.565-9.645-14.737-5.383-15.647c4.261-0.908,4.212,6.26,8.049,3.797
		c3.838-2.462,8.641-3.587,10.5-1.678"/>
	<path fill="none" stroke="#000000" stroke-width="5.3889" stroke-linecap="round" stroke-miterlimit="10" d="M224.405,442.985
		c0,0-2.474,10.536,4.442,16.814c0,0,5.088,3.364,6.338,8.522c1.25,5.159-0.77,16.002,8.875,13.832
		c9.646-2.17,12.116-6.43,8.525-13.607c-3.59-7.177-10.852-23.416-10.852-23.416s-1.98-5.028-6.106-8.413"/>
	<path fill="none" stroke="#000000" stroke-width="5.3889" stroke-linecap="round" stroke-miterlimit="10" d="M255.072,432.661
		c0,0,3.795,4.71,3.231,9.196c-0.561,4.485,5.27,7.851,3.027,14.13s-7.626,3.764-15.25-1.259"/>
	<path fill="none" stroke="#000000" stroke-width="5.3889" stroke-linecap="round" stroke-miterlimit="10" d="M209.968,443.494
		c0,0,3.312,5.316,1.433,12.94c-1.877,7.625-2.515,17.045-7.803,17.045c-5.289,0-12.241-7.782-12.465-14.992
		c-0.225-7.211,4.312-10.871,10.567-14.199"/>
	<path fill="none" stroke="#000000" stroke-width="5.3889" stroke-linecap="round" stroke-miterlimit="10" d="M180.591,429.826
		c0,0-24.896,4.093-21.083,16.359c3.813,12.269,7.626,11.595,13.009,8.231c5.382-3.364,12.111-10.923,12.111-10.923
		s0.269,8.028,8.658,7.345"/>
	<path fill="none" stroke="#000000" stroke-width="5.3889" stroke-linecap="round" stroke-miterlimit="10" d="M188.553,416.269
		c0,0-12.224-7.409-13.793,0.68c-1.57,8.087-2.468,12.285,5.831,12.878"/>
	<path fill="none" stroke="#000000" stroke-width="5.3889" stroke-linecap="round" stroke-miterlimit="10" d="M258.304,388.602
		c0,0,6.167-10.664,10.204-13.805c4.037-3.14,9.196-10.542,10.318-13.458c1.12-2.915,9.868-12.11,13.23-9.644
		c3.364,2.467,8.523,8.52,5.16,15.025c-3.365,6.505-13.82,12.874-18.91,14.961c-5.088,2.086-11.079,8.332-11.079,8.332"/>
	<path fill="none" stroke="#000000" stroke-width="5.3889" stroke-linecap="round" stroke-miterlimit="10" d="M267.61,445.131
		c0,0,11.806,7.784,7.922,13.356c-3.885,5.572-11.705,1.944-14.411-1.961"/>
	<path fill="none" stroke="#000000" stroke-width="5.3889" stroke-linecap="round" stroke-miterlimit="10" d="M287.706,416.948
		c0,0,20.051,0.938,19.154,5.97c-0.897,5.033-0.674,9.274-6.954,8.164c-6.278-1.113-6.503-1.783-6.278,1.579
		c0.224,3.364-3.588,6.951-12.784,5.831c0,0-6.505-0.673,0.896,4.037c7.402,4.71,18.615,6.503,19.738,9.421
		c1.12,2.913,4.485,8.969,1.12,10.988c-3.364,2.018-15.027,2.066-20.633-3.229c-5.607-5.294-8.972-12.201-14.354-14.579"/>
	<path fill="none" stroke="#000000" stroke-width="5.3889" stroke-linecap="round" stroke-miterlimit="10" d="M173.725,424.055
		c0,0-6.143,4.443-12.646,1.143c-6.504-3.303-13.233-6.296-7.85-13.658c0,0,2.389-3.108,9.269-3.553
		c6.879-0.445,19.238-3.623,27.188,1.33"/>
	<path fill="none" stroke="#000000" stroke-width="5.3889" stroke-linecap="round" stroke-miterlimit="10" d="M173.724,406.919
		c0,0-12.869-2.973-12.869-8.017c0-5.042,0.673-19.845,0-23.882c-0.673-4.037,5.383-6.055,11.213-2.915
		c5.832,3.14,10.317,6.437,10.317,6.437s2.916-2.13-2.691-4.732c-5.607-2.602-18.167-14.488-17.494-20.769
		c0.673-6.279,10.952,2.468,13.999,6.505c3.046,4.037,9.349,15.027,13.487,15.251c4.139,0.224,5.059-0.674,0-5.831
		c-5.058-5.159-9.991-11.131-1.133-18.124c8.858-6.997,10.196-3.566,13.341,0.438c3.144,4.004,6.501,7.817,8.074,10.059
		c1.573,2.244,5.276,3.364,2.752-3.589c-2.524-6.95-11.699-15.025-5.878-19.96c5.82-4.935,10.92,2.243,16.557-1.12
		c5.636-3.365,15.28,0.896,15.28,0.896s2.914,3.021,4.26-2.188c1.347-5.213,9.366-2.415,10.627,0
		c1.262,2.413,7.525,8.02,9.552,8.244c2.025,0.224,10.246,1.121,12.415,5.383c2.171,4.261,4.338,7.795,4.374,10.514"/>
	<path fill="none" stroke="#000000" stroke-width="5.3889" stroke-linecap="round" stroke-miterlimit="10" d="M288.037,376.123
		c0,0,11.869,2.628,13.215,13.321c1.346,10.695-15.475,12.729-15.475,12.729s30.95-4.588,34.314,2.635
		c3.364,7.22-0.447,5.65,0,9.688c0.448,4.036,0.225,11.689-13.231,8.423"/>
	<path fill="none" stroke="#000000" stroke-width="5.3889" stroke-linecap="round" stroke-miterlimit="10" d="M207.954,469.975
		c0,0,0.383,18.307,11.293,23.016c0,0,12.676,1.322,8.429-10.552c-4.247-11.876-4.277-23.951-4.277-23.951
		s4.719,20.962,12.578,16.854"/>
	<path fill="none" stroke="#000000" stroke-width="5.3889" stroke-linecap="round" stroke-miterlimit="10" d="M142.912,507.572
		c0,0,6.055-6.953,10.317,0c4.261,6.953-2.691,6.953-4.037,8.524C147.846,517.665,138.203,514.302,142.912,507.572z"/>
	<path fill="none" stroke="#000000" stroke-width="5.3889" stroke-linecap="round" stroke-miterlimit="10" d="M148.11,492.098
		c0,0-4.629,2.691-6.483-2.468c-1.854-5.157,2.631-7.849,5.099-5.831C149.192,485.818,152.859,489.63,148.11,492.098z"/>
	<path fill="none" stroke="#000000" stroke-width="5.3889" stroke-linecap="round" stroke-miterlimit="10" d="M162.424,499.724
		c0,0,1.57-5.606,5.383-3.812c3.813,1.793,5.159,5.157,2.691,6.951C168.031,504.657,162.2,506.675,162.424,499.724z"/>
	<path fill="none" stroke="#000000" stroke-width="5.3889" stroke-linecap="round" stroke-miterlimit="10" d="M131.474,501.966
		c0,0-6.953,0.225-5.382-4.709c1.569-4.936,3.813-4.072,5.382-1.701C133.044,497.931,133.941,500.846,131.474,501.966z"/>
	<path fill="none" stroke="#000000" stroke-width="5.3889" stroke-linecap="round" stroke-miterlimit="10" d="M135.287,511.834
		c0,0-5.396,3.812-9.426,0c-4.031-3.812-0.711-8.662,3.572-7.247C133.717,506.003,137.978,508.693,135.287,511.834z"/>
	<path fill="none" stroke="#000000" stroke-width="5.3889" stroke-linecap="round" stroke-miterlimit="10" d="M151.509,514.856
		c0,0,1.046,5.949,6.654,3.482c5.606-2.468,7.85-6.073,5.159-7.859c-2.691-1.785-9.641,3.049-9.641,3.049L151.509,514.856z"/>
	<path fill="none" stroke="#000000" stroke-width="5.3889" stroke-linecap="round" stroke-miterlimit="10" d="M168.479,507.572
		c0,0,9.831,1.989,7.719,6.939c-2.112,4.949-7.931,4.149-10.186,1.965C163.758,514.293,164.387,506.229,168.479,507.572z"/>
	<path fill="none" stroke="#000000" stroke-width="5.3889" stroke-linecap="round" stroke-miterlimit="10" d="M151.509,505.539
		c0,0,2.841-8.956,10.915-5.815c0,0-0.624,3.437,1.25,4.145c0,0-2.575,6.396-9.089,7.742
		C154.586,511.61,153.185,506.432,151.509,505.539z"/>
	<path fill="none" stroke="#000000" stroke-width="5.3889" stroke-linecap="round" stroke-miterlimit="10" d="M144.46,483.152
		c0,0-3.118-3.766-1.324-7.392c1.795-3.623,5.758-8.335,8.374-5.418C154.126,473.258,151.839,482.954,144.46,483.152z"/>
	<path fill="none" stroke="#000000" stroke-width="5.3889" stroke-linecap="round" stroke-miterlimit="10" d="M142.58,506.227
		c0,0-5.05-4.494-2.583-8.414c2.468-3.92,8.554-7.632,11.513-2.257C154.469,500.933,151.133,505.673,142.58,506.227z"/>
	<path fill="none" stroke="#000000" stroke-width="5.3889" stroke-linecap="round" stroke-miterlimit="10" d="M162.418,491.424
		c0,0-5.946-5.157-3.306-8.297c2.64-3.141,8.367-5.556,7.97,0.025C166.685,488.732,167.795,491.424,162.418,491.424z"/>
	<path fill="none" stroke="#000000" stroke-width="5.3889" stroke-linecap="round" stroke-miterlimit="10" d="M141.188,483.152
		c0,0-5.229,6.702-9.491,1.095c-4.261-5.606-1.794-8.675,3.364-8.486C140.22,475.948,142.605,475.104,141.188,483.152z"/>
	<path fill="none" stroke="#000000" stroke-width="5.3889" stroke-linecap="round" stroke-miterlimit="10" d="M151.509,489.183
		c0,0,2.265-3.701,6.083-1.22c3.818,2.48,5.85,5.819,4.826,8.622c-1.023,2.801-7.509,2.429-10.909-1.029
		C151.509,495.556,149.567,492.547,151.509,489.183z"/>
	<path fill="none" stroke="#000000" stroke-width="5.3889" stroke-linecap="round" stroke-miterlimit="10" d="M135.558,522.823
		c0,0-3.86-4.172-1.616-6.347c2.243-2.175,5.838-5.897,8.638,0C145.379,522.374,138.744,524.169,135.558,522.823z"/>
	<path fill="none" stroke="#000000" stroke-width="5.3889" stroke-linecap="round" stroke-miterlimit="10" d="M133.006,486.485
		c0,0,6.773,0.552,8.62,3.145c1.848,2.594-0.038,8.074-4.31,6.729C133.044,495.014,127.449,487.471,133.006,486.485z"/>
	<path fill="none" stroke="#000000" stroke-width="5.3889" stroke-linecap="round" stroke-miterlimit="10" d="M130.083,476.292
		c0,0-0.18-7.522-7.131-2.812c-6.953,4.713-5.383,7.007-2.916,9.673C122.503,485.818,127.572,484.709,130.083,476.292z"/>
	<path fill="none" stroke="#000000" stroke-width="5.3889" stroke-linecap="round" stroke-miterlimit="10" d="M144.48,473.479
		c0,0-7.082,3.343-8.922-4.047c-1.841-7.388,10.22-10.079,10.245-6.939C145.827,465.633,147.631,469.392,144.48,473.479z"/>
	<path fill="none" stroke="#000000" stroke-width="5.3889" stroke-linecap="round" stroke-miterlimit="10" d="M117.943,483.127
		c0,0-7.327,4.485-4.636,8.297c2.691,3.814,4.261,3.154,6.953,1.354C122.952,490.976,126.615,483.799,117.943,483.127z"/>
	<path fill="none" stroke="#000000" stroke-width="5.3889" stroke-linecap="round" stroke-miterlimit="10" d="M116.223,507.422
		c0,0-6.729,1.496-6.729-4.334c0-5.831,3.588-6.738,6.729-5.275C119.362,499.275,122.727,503.234,116.223,507.422z"/>
	<path fill="none" stroke="#000000" stroke-width="5.3889" stroke-linecap="round" stroke-miterlimit="10" d="M120.932,514.512
		c0,0,9.196-3.483,10.766,1.965c1.57,5.449,1.302,7.918-2.264,8.366S113.979,520.328,120.932,514.512z"/>
	<path fill="none" stroke="#000000" stroke-width="5.3889" stroke-linecap="round" stroke-miterlimit="10" d="M136.127,528.655
		c0,0,6.958-10.036,9.675-3.785c2.716,6.252,0.034,12.533-3.223,12.98C139.323,538.299,135.174,536.953,136.127,528.655z"/>
	<path fill="none" stroke="#000000" stroke-width="5.3889" stroke-linecap="round" stroke-miterlimit="10" d="M124.04,527.31
		c0,0,6.313-3.141,9.201-0.898c2.887,2.244,4.008,8.301,0,10.318C129.23,538.747,117.728,532.243,124.04,527.31z"/>
	<path fill="none" stroke="#000000" stroke-width="5.3889" stroke-linecap="round" stroke-miterlimit="10" d="M152.54,474.234
		c0,0,2.035,0.368,6.572-4.802c4.536-5.171,2.191-7.837-0.676-14.116c-2.868-6.28-6.328,0-8.02,3.171
		c-1.691,3.171-3.496,10.945-3.496,10.945"/>
	<path fill="none" stroke="#000000" stroke-width="5.3889" stroke-linecap="round" stroke-miterlimit="10" d="M159.112,485.617
		c0,0-7.022,4.169-8.695-1.179c-1.673-5.349,0.276-8.252,4.347-8.146C158.836,476.398,161.63,479.137,159.112,485.617z"/>
	<path fill="none" stroke="#000000" stroke-width="5.3889" stroke-linecap="round" stroke-miterlimit="10" d="M167.102,488.669
		c0,0,6.761-4.412,5.864-12.379c-0.898-7.966-1.899-13.744-5.884-12.089c-3.984,1.655-4.642,12.068-4.313,15.609"/>
	<path fill="none" stroke="#000000" stroke-width="5.3889" stroke-linecap="round" stroke-miterlimit="10" d="M173.047,481.118
		c0,0,6.421-3.371,6.646,6.047c0,0-0.116,4.114-3.198,5.869c-3.082,1.755-10.002,1.095-12.04-0.257"/>
	<path fill="none" stroke="#000000" stroke-width="5.3889" stroke-linecap="round" stroke-miterlimit="10" d="M156.664,523.247
		c0,0,5.665-8.722,11.208-2.891c5.542,5.833-3.317,8.299-3.148,8.299S153.902,528.763,156.664,523.247z"/>
	<path fill="none" stroke="#000000" stroke-width="5.3889" stroke-linecap="round" stroke-miterlimit="10" d="M146.524,526.292
		c0,0-4.635-6.771,0.536-8.393c5.171-1.623,8.117,1.821,7.953,4.194C154.848,524.471,151.658,531.479,146.524,526.292z"/>
	<path fill="none" stroke="#000000" stroke-width="5.3889" stroke-linecap="round" stroke-miterlimit="10" d="M130.678,504.336
		c0,0,5.73-0.351,12.233,3.236"/>
	<path fill="none" stroke="#000000" stroke-width="5.3889" stroke-linecap="round" stroke-miterlimit="10" d="M174.912,493.656
		c0,0,7.25,2.278,7.922,6.415c0.672,4.137-4.995,7.058-9.787,9.074"/>
	<path fill="none" stroke="#000000" stroke-width="5.3889" stroke-linecap="round" stroke-miterlimit="10" d="M125.422,500.372
		c0,0-2.187,4.266-5.655-0.448c-3.469-4.714-0.084-6.753,2.004-6.945C123.859,492.788,126.987,491.827,125.422,500.372z"/>
	<path fill="none" stroke="#000000" stroke-width="5.3889" stroke-linecap="round" stroke-miterlimit="10" d="M120.932,514.512
		c0,0-5.382-2.979-4.709-7.09"/>
	<path fill="none" stroke="#000000" stroke-width="5.3889" stroke-linecap="round" stroke-miterlimit="10" d="M125.861,471.93
		c0,0,1.613-13.726,9.696-5.416"/>
	<path fill="none" stroke="#000000" stroke-width="5.3889" stroke-linecap="round" stroke-miterlimit="10" d="M179.003,483.127
		c0,0,2.037-8.802,6.746-8.888c4.71-0.084,4.935,7.589,0,11.378c-4.934,3.789-6.746,4.471-6.746,4.471"/>
	<path fill="none" stroke="#000000" stroke-width="5.3889" stroke-linecap="round" stroke-miterlimit="10" d="M173.047,517.733
		c0,0,4.59,5.672,3.151,10.428s-4.916,10.81-11.476,0.494"/>
	<path fill="none" stroke="#000000" stroke-width="5.3889" stroke-linecap="round" stroke-miterlimit="10" d="M181.971,503.402
		c0,0,4.675-0.314,6.245,2.824c1.57,3.141-1.412,7.77-12.161,5.384"/>
	<path fill="none" stroke="#000000" stroke-width="5.3889" stroke-linecap="round" stroke-miterlimit="10" d="M174.984,480.532
		c0,0,9.16-15.618,4.019-24.006l-4.767-3.288l-4.54,2.696c0,0-1.986,3.92-1.825,8.267"/>
	<path fill="none" stroke="#000000" stroke-width="5.3889" stroke-linecap="round" stroke-miterlimit="10" d="M141.188,461.347
		c0,0-0.738-22.85,4.755-23.075c5.491-0.225,13.389,0.39,6.609,16.668"/>
	<path fill="none" stroke="#000000" stroke-width="5.3889" stroke-linecap="round" stroke-miterlimit="10" d="M134.589,465.599
		c0,0-4.344-13.188-8.889-12.97c-4.544,0.22-1.841,0.623-3.641,3.897c-1.8,3.277-5.729,1.483-5.896,5.967
		c-0.166,4.485,2.985,8.875,5.896,11.615"/>
	<path fill="none" stroke="#000000" stroke-width="5.3889" stroke-linecap="round" stroke-miterlimit="10" d="M124.013,452.763
		c0,0-3.819-19.208,0.027-20.102c3.845-0.894,9.321,1.29,11.518,10.516c0,0,3.04,7.209,5.757,9.451"/>
	<path fill="none" stroke="#000000" stroke-width="5.3889" stroke-linecap="round" stroke-miterlimit="10" d="M116.158,464.201
		c0,0-12.719-17.468-6.664-25.96c6.056-8.493,12.871,1.753,12.871,1.753"/>
	<path fill="none" stroke="#000000" stroke-width="5.3889" stroke-linecap="round" stroke-miterlimit="10" d="M152.568,439.339
		c0,0,7.285-9.103,14.514-5.198"/>
	
		<line fill="none" stroke="#000000" stroke-width="5.3889" stroke-linecap="round" stroke-miterlimit="10" x1="179.694" y1="469.057" x2="191.133" y2="458.487"/>
	<path fill="none" stroke="#000000" stroke-width="5.3889" stroke-linecap="round" stroke-miterlimit="10" d="M185.749,485.617
		c0,0,7.979,2.688,10.045-4.499c2.066-7.186,0-11.686,0-11.686"/>
	<path fill="none" stroke="#000000" stroke-width="5.3889" stroke-linecap="round" stroke-miterlimit="10" d="M198.18,494.215
		l21.067-1.225c0,0,9.788-1.767,12.48,7.081c2.69,8.849,3.139,10.39-1.347,12.198c-4.485,1.808-5.979,3.621-13.194,1.145
		c-7.216-2.476-8.336-1.148-12.374-2.935c-4.036-1.785-12.226-9.024-21.924-7.087"/>
	<path fill="none" stroke="#000000" stroke-width="5.3889" stroke-linecap="round" stroke-miterlimit="10" d="M213.269,487.963
		c0,0-4.021,4.596-7.36,4.814c-3.338,0.218-7.729,1.438-7.729,1.438"/>
	<path fill="none" stroke="#000000" stroke-width="5.3889" stroke-linecap="round" stroke-miterlimit="10" d="M113.119,487.963
		c0,0-6.988-7.783-11.699-7.431c-4.709,0.354-19.96-0.101-21.53-7.053c-1.57-6.949,6.953-8.348,2.242-12.133
		c-4.71-3.787-3.812-14.065,4.262-16.216c8.074-2.15,10.092-1.085,14.578,4.663c4.485,5.747,12.317,9.916,12.317,9.916"/>
	<path fill="none" stroke="#000000" stroke-width="5.3889" stroke-linecap="round" stroke-miterlimit="10" d="M175.166,521.17
		c0,0,13.895,3.896,21.547-0.812c7.651-4.71,4.01-5.585,0-6.83c-4.011-1.244-9.308-3.049-9.308-3.049"/>
	<path fill="none" stroke="#000000" stroke-width="5.3889" stroke-linecap="round" stroke-miterlimit="10" d="M218.774,514.512
		c0,0-3.27,9.159-10.298,8.735s-11.764-2.889-11.764-2.889"/>
	<path fill="none" stroke="#000000" stroke-width="5.3889" stroke-linecap="round" stroke-miterlimit="10" d="M101.42,480.532
		c0,0-2.018,3.589,4.262,8.137c6.28,4.55,1.121,3.388,0,5.427c-1.121,2.041-2.467,5.626,3.812,8.992"/>
	<path fill="none" stroke="#000000" stroke-width="5.3889" stroke-linecap="round" stroke-miterlimit="10" d="M129.522,548.167
		c0,0-7.225,15.477,2.298,16.372c9.522,0.898,14.63-0.222,13.983-6.728c-0.648-6.503-9.007-23.505-9.007-23.505"/>
	<path fill="none" stroke="#000000" stroke-width="5.3889" stroke-linecap="round" stroke-miterlimit="10" d="M118.791,539.87
		c0,0-15.127,16.595-9.296,23.323c5.832,6.729,10.476,10.543,14.546,7.178c4.069-3.363-0.057-5.532,1.333-11.063
		c1.391-5.532,4.148-11.141,4.148-11.141"/>
	<path fill="none" stroke="#000000" stroke-width="5.3889" stroke-linecap="round" stroke-miterlimit="10" d="M119.943,520.844
		c0,0-2.055,6.018-3.785,6.018c-1.729,0-4.487,2.985-3.445,3.513c1.042,0.524,8.219,0.981,8.219,0.981s-21.979-0.531-21.979,6.571
		c0,7.101,8.747,9.792,11.886,8.895c3.141-0.896,7.951-6.951,7.951-6.951"/>
	<path fill="none" stroke="#000000" stroke-width="5.3889" stroke-linecap="round" stroke-miterlimit="10" d="M105.303,516.582
		c-3.07,0.934-5.901,4.224-13.526,9.438s-6.28,9.812-1.346,12.952c4.935,3.141,12.336-6.953,14.872-10.317
		c2.537-3.365,14.641-7.812,14.641-7.812"/>
	<path fill="none" stroke="#000000" stroke-width="5.3889" stroke-linecap="round" stroke-miterlimit="10" d="M90.431,503.088
		c0,0-14.354,5.158-11.158,11.424c3.195,6.265,11.383,1.359,14.747,0.111c3.364-1.249,11.283,1.959,11.283,1.959"/>
	<path fill="none" stroke="#000000" stroke-width="5.3889" stroke-linecap="round" stroke-miterlimit="10" d="M81.545,476.294
		c0,0-6.734,6.519-2.737,9.816s5.119,2.194,8.259,3.978c3.14,1.785-12.112-1.117-17.045,2.689
		c-4.934,3.808-10.316,3.474-6.504,13.172c3.812,9.699,15.141,4.012,18.25,1.881"/>
	<path fill="none" stroke="#000000" stroke-width="5.3889" stroke-linecap="round" stroke-miterlimit="10" d="M174.215,532.468
		c0,0,2.925,9.421,0.95,13.457c-1.976,4.038-1.642,4.486-7.304,0s-17.272-10.877-14.383-19.904"/>
	<path fill="none" stroke="#000000" stroke-width="5.3889" stroke-linecap="round" stroke-miterlimit="10" d="M172.075,549.124
		c12.791,12.618,19.156,5.997,19.156,5.997c5.258,4.485,14.704,4.934,18.74,3.364c4.038-1.57,2.691-5.831,2.006-9.361
		c-0.685-3.531-13.668-9.479-10.426-7.012c3.242,2.466,6.403-0.224,10.426-5.006c4.025-4.783-2.661-13.859-2.661-13.859"/>
	<path fill="none" stroke="#000000" stroke-width="5.3889" stroke-linecap="round" stroke-miterlimit="10" d="M155.171,549.124
		c0,0,3.644,10.033,2.421,14.518c-1.223,4.487,0.83,8.546,6.083,7.975c5.254-0.572,8.646-4.037,8.071-15.874
		c-0.575-11.835,0.329-6.618,0.329-6.618"/>
	<path fill="none" stroke="#000000" stroke-width="5.3889" stroke-linecap="round" stroke-miterlimit="10" d="M144.615,562.605
		c0,0,2.708,4.793,6.895,0c4.187-4.794,5.38-7.145,3.662-13.481"/>
</g>
</svg>
