<?xml version="1.0" encoding="utf-8"?>
<!-- Generator: Adobe Illustrator 15.0.0, SVG Export Plug-In . SVG Version: 6.00 Build 0)  -->
<!DOCTYPE svg PUBLIC "-//W3C//DTD SVG 1.1//EN" "http://www.w3.org/Graphics/SVG/1.1/DTD/svg11.dtd">
<svg version="1.1" id="Layer_1" xmlns="http://www.w3.org/2000/svg" xmlns:xlink="http://www.w3.org/1999/xlink" x="0px" y="0px"
	 width="400px" height="600px" viewBox="0 0 400 600" enable-background="new 0 0 400 600" xml:space="preserve">
<rect fill="#FFFFFF" width="400" height="600"/>
<polygon fill="none" stroke="#000000" stroke-width="0.2055" stroke-miterlimit="10" points="184.445,336.114 184.445,338.483 
	184.444,336.114 "/>
<path d="M346.505,268.947c7.016-9.338,11.347-15.307,12.315-19.421c0.744-3.164,1.766-7.496-1.071-11.078
	c-2.826-3.57-7.779-3.983-11.259-3.983c-1.072,0-2.259,0.047-3.532,0.141c-1.036,0.075-2.189,0.114-3.429,0.114
	c-12.097,0-29.972-3.595-37.7-6.08c-5.353-1.721-12.654-4.016-18.171-5.74c1.638-21.426-18.556-44.004-20.841-45.783
	c0-0.001,0-0.001,0-0.001l-0.397-1.394c-7.061-24.919-36.599-32.98-49.797-32.98c-2.437,0-4.295,0.277-5.677,0.848
	c-2.117,0.87-4.39,1.053-5.922,1.053c-0.593,0-1.098-0.027-1.464-0.057c-4.418-2.229-8.97-3.359-13.534-3.359
	c-24.416,0-41.48,32.317-45.124,39.851c-17.305,9.03-23.333,27.883-25.245,36.573c-1.718,0.129-3.397,0.193-5.003,0.193
	c-14.434,0-20.688-5.22-21.331-5.794c-3.868-4.498-8.192-6.778-12.852-6.778c-4.298,0-7.853,1.918-10.849,3.715
	c-5.5,3.301-5.939,13.145-5.274,21.104c-9.434,7.767-6.333,30.467-3.596,43.48c2.845,13.514,7.574,26.185,9.788,31.737
	C37.524,333.705,39.317,362.637,43,377.417c3.276,13.154,10.248,24.249,16.214,25.807c2.997,0.78,5.095,6.161,5.59,8.486
	l0.179,0.875l0.466,0.761c12.918,21.077,34.452,24.224,46.137,24.224c4.882,0,8.757-0.521,10.805-0.872
	c7.132,2.381,13.949,3.589,20.265,3.589c6.61,0,11.487-1.308,14.634-2.555c15.938,22.391,37.083,25.762,48.356,25.762
	c1.135,0,2.269-0.035,3.381-0.104l0.412,2.383c1.036,5.941,7.636,9.214,18.583,9.214c6.193,0,14.816-1.114,18.739-4.253
	c6.515-5.214,3.039-12.033,0.961-16.108c-0.774-1.521-1.578-3.094-2.1-4.659c-1.648-4.943,1.984-21.242,3.352-27.379l0.196-0.883
	c0.775-3.494,1.589-8.261,2.251-12.465c0.121,0.208,0.241,0.42,0.363,0.632l0.099,0.171c3.071,5.365,6.554,11.445,11.692,16.431
	c3.79,3.677,9.577,5.541,17.201,5.541c10.87-0.001,24.194-3.932,31.739-7.814c11.988-6.178,20.025-21.894,20.406-28.394
	c0.105-1.778,2.203-2.627,2.252-2.646l0.432-0.181c22.044-10.507,15.81-36.062,12.085-51.332l-0.041-0.174
	c-0.327-1.345-0.636-2.613-0.902-3.786c-2.666-11.723-14.919-28.976-20.603-36.527c3.268-5.944,8.804-15.446,13.107-22.173
	C340.936,276.357,343.641,272.758,346.505,268.947z M146.904,189.474l1.735-0.808l0.773-1.741
	c0.159-0.356,16.156-35.512,36.615-35.512c3.168,0,6.396,0.877,9.593,2.605l0.748,0.405l0.841,0.141
	c0.273,0.045,1.735,0.267,3.816,0.267c2.431,0,6.075-0.308,9.667-1.769c0.155-0.033,0.731-0.133,1.932-0.133
	c10.008,0,33.842,6.229,39.741,24.72c0.021,2.716,1.537,5.438,4.168,7.486c1.447,1.172,17.104,19.336,17.038,35.239
	c-1.385-0.155-2.805-0.233-4.234-0.233c-7.828,0-15.475,2.245-22.73,6.668l-1.417,0.864c-14.138,8.608-23.576,14.356-25.623,27.546
	c-0.81-0.162-1.979-0.532-3.049-0.87c-2.422-0.765-5.412-1.709-8.841-1.958c-1.469-2.552-4.173-3.587-5.554-4.115
	c-0.413-0.158-1.18-0.452-1.336-0.566c-2.255-2.426-5.418-3.934-8.257-3.934c-2.529,0-4.75,1.181-6.09,3.161
	c-0.529-0.285-1.083-0.499-1.659-0.641c-0.766-3.758-2.249-7.345-4.412-10.674c-6.093-9.376-20.233-14.795-31.543-16.007
	c-2.121-0.227-4.295-0.477-6.463-0.727l-0.496-0.057c-5.442-0.627-11.05-1.273-15.6-1.542
	C128.565,208.851,134.125,195.4,146.904,189.474z M221.457,312.141c2.054,0.403,5.126,0.713,9.631,0.844l0,0l2.397,0.314
	c1.172,0.153,2.408,0.229,3.78,0.229c1.956,0,3.927-0.155,5.951-0.328c2.83-0.265,5.839-0.651,9.471-1.217
	c2.951-0.46,6.014-0.993,9.368-1.633c0.873-0.167,1.744-0.339,2.614-0.512c0.113,1.053,0.272,2.311,0.496,3.937
	c0.373,2.686,0.768,5.128,1.089,7.11c0.61,3.775,1.235,7.656,1.048,9.599c-2.446-1.066-5.127-1.871-8.159-2.452
	c-2.822-0.534-5.738-0.844-8.921-0.942c-3.038-0.088-6.047,0.012-8.778,0.31l-8.25,0.897c-2.014-1.409-3.965-3.031-5.802-4.829
	c-0.921-0.902-1.811-1.848-2.643-2.808c-0.275-0.319-0.542-0.642-0.804-0.965c0.002-0.124,0.004-0.249,0.002-0.376
	C223.901,317.062,223.054,314.656,221.457,312.141z M266.273,299.585c-0.009,0.013-0.018,0.025-0.024,0.039
	c-2.21,0.974-4.414,1.915-6.556,2.803c-3.08,1.271-5.897,2.383-8.616,3.4c-3.332,1.244-6.104,2.197-8.711,2.995
	c-1.206,0.356-2.485,0.732-3.804,1.062c-0.005,0-9.493,0.503-16.17-0.994c1.26-1.662,1.999-3.625,2.188-5.887
	c5.189-2.213,9.837-4.133,14.181-5.858c3.501-1.385,6.347-2.466,8.938-3.396l1.001-0.35c2.603-0.91,5.294-1.851,8.008-2.351
	c3.313-0.21,5.724-0.452,7.481-0.703c0.902,1.994,1.882,3.418,2.679,4.568c0.465,0.668,0.902,1.3,0.932,1.477
	c-0.002,0.124-0.193,0.57-0.362,0.964C267.001,298.371,266.648,298.959,266.273,299.585z M256.496,288.504
	c-2.988-0.047-5.965,0.369-8.837,0.772l-1.03,0.143c-2.843,0.423-5.897,0.934-9.612,1.607c-4.264,0.777-8.796,1.665-14.193,2.782
	c-1.028-1.722-2.628-3.02-4.501-3.746c2.19-2.833,7.805-9.773,13.688-14.572c1.704-1.379,3.525-2.838,5.536-4.437
	c2.356,3.446,3.989,4.266,8.864,5.908c0.765,0.257,1.651,0.555,2.688,0.918c2.985,1.045,3.138,1.346,3.546,2.155
	c0.548,1.082,1.375,2.718,3.297,4.64c2.102,2.103,4.141,3.005,5.669,3.565C258.486,288.272,256.496,288.504,256.496,288.504z
	 M229.715,267.441c-1.009,1.414-2.017,2.83-3.013,4.253c-2.634,3.779-5.205,7.491-7.702,11.348l-3.056,4.72
	c-0.479,0.589-0.852,1.146-1.067,1.647c-3.764,0.01-7.06,2.121-8.77,5.505c-3.594-4.47-7.376-5.56-10.066-5.634
	c-1.472-5.143-3.31-15.343-3.333-15.471c0.004-3.098,0.216-6.103,0.644-8.976c0.341-2.291,0.815-4.495,1.412-6.551
	c0.198-0.68,0.406-1.333,0.62-1.952c0.691,0.433,1.376,0.761,2.009,1.028c-0.113,0.582-0.128,1.178-0.042,1.768
	c0.385,2.59,2.579,4.47,5.216,4.47c1.188,0,2.313-0.373,3.28-1.082c0.261,0.01,0.542,0.006,0.845,0.02
	c2.306,0.122,4.566,0.837,6.763,1.531c2.319,0.732,4.51,1.424,6.774,1.424c1.903,0,3.59-0.488,5.028-1.456
	c0.674,0.561,1.533,1.229,2.595,1.903c0.693,0.442,1.402,0.811,2.142,1.11L229.715,267.441z M138.944,346.983
	c-1.997-3.359-1.28-5.611-0.195-9.021c0.244-0.765,0.52-1.631,0.743-2.479c0.315-1.198,0.536-2.499,0.768-3.877
	c0.523-3.1,1.24-7.345,3.064-8.257c1.094-0.549,1.938-0.641,2.919-0.749c1.473-0.16,3.937-0.431,5.606-2.789
	c0.202-0.286,0.37-0.578,0.514-0.876l5.648-1.427c6.601-1.667,13.713-3.602,22.332-6.076c0.571,0.657,0.879,1.406,1.124,3.255
	c-2.074,2.485-4.012,4.862-5.915,7.25c-2.662,3.345-5.032,6.415-7.246,9.387c-2.648,3.556-4.895,6.727-6.873,9.694
	c-1.334,2.016-2.497,3.886-3.555,5.705c-0.291-0.321-0.599-0.636-0.943-0.932l-0.76-0.652l-0.941-0.311
	c-0.37-0.126-1.147-0.335-2.199-0.335c-2.478,0-7.142,1.145-10.55,8.814l-0.704,1.601c-0.14,0.319-0.292,0.666-0.45,1.022
	C141.362,353.719,141.094,350.602,138.944,346.983z M175.226,298.195c-0.673,1.864-0.766,3.927-0.277,5.903
	c-3.519,2.237-6.731,4.253-9.746,6.115c-0.023,0.009-4.864,1.89-12.404,3.225c-0.091-0.519-0.202-1.03-0.319-1.526
	c-0.502-2.131-0.635-3.377-0.658-4.057l0.404-0.324c1.333-1.066,2.218-2.811,2.366-4.669c0.203-2.548-0.84-5.133-3.185-7.886
	c0.207-0.169,0.407-0.327,0.565-0.453c0.609-0.486,1.299-1.037,1.979-1.643c3.403-3.025,6.326-6.577,5.443-12.021
	c0.817,0.263,1.636,0.396,2.448,0.396c5.565,0,7.995-5.666,9.032-8.085c1.481-3.457,4.414-6.606,6.786-9.155
	c0.682-0.732,1.324-1.423,1.891-2.071c0.729-0.834,1.405-1.76,2.146-2.776c0.344-0.473,0.836-1.148,1.33-1.772
	c1.178,0.946,2.366,1.554,3.583,1.835c0.041,1.842,0.173,3.695,0.389,5.523c0.233,1.959,0.568,3.939,0.996,5.929l-0.002-0.001
	c0.492,2.664,2.131,13.459,3.052,19.577c-1.41,0.601-2.617,1.399-3.585,2.179c-1.105-0.335-2.212-0.505-3.294-0.505
	C180.049,291.935,176.624,294.334,175.226,298.195z M189.816,305.451l2.845-3.895c0.423-0.578,2.008-2.096,3.075-2.096
	c0.598,0,1.721,0.712,3.08,2.717l0.56,0.821l0.828,0.554c0.467,0.312,2.597,1.653,5.227,2.105l-4.055,1.016l7.487,6.417
	c2.756,2.362,4.449,5,4.837,6.044c-1.307,1.167-2.348,1.872-3.082,2.29l-3.077-6.06l-4.738,8.084
	c-0.308,0.49-0.994,1.196-1.379,1.196c-0.357,0-1.156-0.344-2.215-1.293l-1.918-1.796l-2.554,0.589
	c-0.067,0.012-0.251,0.035-0.496,0.035c-0.885,0-1.889,0-2.139-3.122l-0.017-0.189c-0.684-8.537-0.902-11.265-5.339-15.415
	L189.816,305.451z M67.211,237.753l4.165-1.232l-0.56-4.305c-0.933-7.212-0.302-13.439,0.372-14.686
	c1.796-1.068,3.666-2.07,5.285-2.07c0.591,0,2.395,0,5.25,3.377l0.153,0.17c0.344,0.368,8.695,9.024,28.778,9.024
	c3.123,0,6.431-0.209,9.79-0.621c0.529-0.046,1.167-0.07,1.9-0.07c4.382,0,11.485,0.819,18.355,1.612l0.364,0.042
	c2.238,0.257,4.485,0.515,6.675,0.75c10.544,1.129,20.449,5.829,24.089,11.429c2.629,4.043,3.234,7.688,3.337,9.741
	c-0.613,0.765-1.188,1.554-1.72,2.281c-0.58,0.796-1.128,1.547-1.563,2.044c-0.503,0.576-1.08,1.193-1.709,1.869
	c-2.741,2.947-6.493,6.981-8.663,12.051c-0.14,0.329-0.27,0.614-0.388,0.865c-2.237-1.826-4.312-2.225-5.696-2.225
	c-2.465,0-4.677,1.198-6.069,3.287c-1.782,2.676-1.949,6.428-0.443,10.04c0.748,1.792,0.792,1.898-1.731,4.143
	c-0.481,0.428-0.982,0.827-1.467,1.214l-0.097,0.077c-2.158,1.72-4.842,3.859-5.138,7.541c-0.198,2.465,0.747,4.809,2.889,7.166
	c0.043,0.047,0.084,0.094,0.126,0.14c-2.654,3.38-1.926,8.352-1.229,11.548c-0.541,0.134-1.073,0.295-1.595,0.479
	c-2.464-0.541-7.682-1.35-16.817-1.35c-5.537,0-11.82,0.294-18.675,0.873c-1.728,0.147-3.42,0.221-5.032,0.221
	c-18.007,0-23.078-9.208-23.457-9.951c-1.607-3.918-6.983-17.567-9.968-31.753C62.293,250.43,64.649,238.512,67.211,237.753z
	 M149.338,403.614c-4.465,10.123-0.954,19.759,2.112,25.331c-2.09,0.6-5.037,1.154-8.793,1.154c-5.552,0-11.675-1.165-18.204-3.465
	l-1.384-0.481l-1.419,0.318c-0.042,0.009-4.202,0.91-10.063,0.91c-11.47,0-27.185-3.247-37.032-18.686
	c-0.83-3.231-3.978-12.812-12.442-15.24c-1.553-1.069-8.271-9.694-10.363-24.307c-1.964-13.722,0.059-34.36,20.596-55.23
	c4.76,4.51,13.288,9.445,27.802,9.445c1.897,0,3.879-0.087,5.888-0.256c10.204-0.864,19.125-1.05,25.903-0.556
	c-0.91,2.54-1.355,5.169-1.727,7.368c-0.192,1.14-0.374,2.217-0.573,2.97c-0.169,0.643-0.386,1.323-0.597,1.981
	c-1.27,3.993-3.192,10.025,1.146,17.318c1.052,1.772,0.999,2.883,0.919,4.566c-0.118,2.443-0.315,6.534,4.213,9.933
	c2.063,1.547,4.021,2.298,5.981,2.298c1.22,0,2.334-0.256,3.355-0.777c-0.286,1.961-0.216,3.759,0.195,5.492
	c1.674,7.032,3.504,8.817,8.517,10.94c1.052,0.447,2.319,0.984,3.938,1.828C155.387,390.377,152.588,396.252,149.338,403.614z
	 M155.661,374.341c-0.28-0.402-0.512-1.38-0.899-3.001c-0.48-2.017,1.153-5.625,2.465-8.524c1.265-2.793,2.69-5.94,2.93-9.079
	c0.022-0.026,0.044-0.051,0.066-0.076c0.102-0.12,0.202-0.24,0.301-0.362l0.467-0.585l-0.277-0.695
	c-0.082-0.202-0.149-0.428-0.204-0.671l-0.44-1.976c1.381-1.716,2.935-3.501,4.867-5.589c2.387-2.562,5.054-5.262,8.152-8.252
	c2.66-2.568,5.44-5.164,8.497-7.935c0.64-0.579,1.285-1.155,1.932-1.731c0.777,1.558,1.819,2.866,3.074,3.895l-5.49,9.724
	c-3.577,5.851-7.345,11.722-10.989,17.4L158.04,375.56c-0.243-0.105-0.476-0.203-0.695-0.298
	C156.226,374.789,155.849,374.612,155.661,374.341z M235.959,453.187c0.762,2.286,1.787,4.293,2.69,6.065
	c1.105,2.169,1.513,3.161,1.632,3.604c-1.021,0.604-5.769,1.943-12.268,1.943c-5.202,0-7.829-0.903-8.638-1.359l-2.051-11.728
	l-5.154,1.075c-0.025,0.006-2.568,0.518-6.523,0.518c-10.01,0-28.815-3.23-42.325-24.885l-2.923-4.564l-0.092,0.064
	c-2.066-3.793-4.356-10.054-1.649-16.192c3.346-7.58,6.236-13.598,7.896-16.972c0.944,0.234,1.82,0.351,2.659,0.351
	c3.409,0,5.555-1.784,7.283-3.219l0.092-0.077c0.155-0.129,0.317-0.263,0.494-0.406c0.987,0.443,3.161,1.99,4.293,2.797
	c1.444,1.028,3.08,2.193,4.966,3.38c3.215,2.023,5.574,2.888,7.893,2.888c4.104-0.002,6.524-2.644,8.866-5.198
	c0.884-0.964,1.883-2.057,3.133-3.24c0.419-0.397,0.737-0.647,0.958-0.802c0.504,0.373,1.281,1.048,1.629,1.351
	c1.677,1.46,3.765,3.275,6.743,4.598c1.771,0.787,3.51,1.188,5.172,1.188c6.238,0,10.507-5.374,11.071-13.795
	c0.26-0.013,0.566-0.021,0.926-0.021c1.425,0,3.16,0.123,4.999,0.257l0.379,0.023c3.199,7.868,4.554,13.353,4.953,15.168
	c-0.427,3.157-2.266,16.443-3.835,23.496l-0.194,0.878C236.191,433.118,233.613,446.15,235.959,453.187z M244.636,370.94
	c-2.019,0-4.229-0.159-6.181-0.299c-2.016-0.144-3.921-0.278-5.725-0.278c-9.614,0-11.049,5.171-11.049,8.254
	c0,3.074-0.737,5.031-1.135,5.537c-0.166-0.032-0.445-0.107-0.848-0.285c-1.584-0.703-2.913-1.86-4.213-2.99
	c-2.055-1.786-4.612-4.01-8.262-4.01c-2.708,0-5.323,1.231-7.999,3.767c-1.103,1.045-2.044,2.027-2.824,2.867
	c-0.147-0.879-0.29-1.758-0.429-2.636c-0.454-2.888-0.854-5.697-1.188-8.35c-0.39-3.086-0.677-5.824-0.879-8.371
	c-0.179-2.292-0.372-5.313-0.292-8.358l0.303-11.456l-2.83,11.105c-0.619,2.433-1.124,5.073-1.636,8.561
	c-0.377,2.607-0.713,5.423-1.027,8.606c-0.268,2.749-0.505,5.649-0.708,8.623c-0.021,0.314-0.04,0.626-0.06,0.939
	c-0.132-0.094-0.261-0.187-0.39-0.277c-3.604-2.566-6.715-4.781-10.455-4.781c-2.104,0-4.057,0.707-5.796,2.102
	c-0.372,0.294-0.711,0.577-1.059,0.866c-0.248,0.206-0.701,0.582-0.995,0.795c-0.346-0.089-1.087-0.343-2.537-1.065l7.577-17.229
	l1.239-2.846c1.94-4.46,3.924-9.029,5.859-13.612h0.002c0.671-1.578,5.161-9.79,7.944-14.84c1.544,0.703,3.281,1.083,5.161,1.088
	c2.342,1.637,4.768,2.465,7.218,2.465c2.571,0,5.018-0.913,7.106-2.645c3.179,0.292,6.721-1.173,10.593-4.298
	c1.041,0.738,2.121,1.45,3.221,2.121c2.63,1.604,5.345,2.966,8.065,4.05c5.159,2.065,10.564,3.156,15.631,3.156c0,0,0,0,0.002,0
	c0.581,0,1.17-0.014,1.745-0.042l6.326-0.311c0.03,0.003,9.2,1.096,13.269,4.835c-0.21,0.42-1.112,1.082-2.743,2.013
	c-6.69,3.822-9.214,6.044-10.059,8.93c-0.826-0.178-1.718-0.411-2.688-0.704c-2.855-0.875-5.962-2.09-9.776-3.828l-6.54-2.977
	l5.104,5.057c2.123,2.103,4.984,4.841,8.312,7.381c1.355,1.023,3.013,2.21,5.05,3.261c0.053,0.027,0.105,0.055,0.158,0.081
	c-3.219,3.513-3.526,6.998-3.698,8.926c-0.007,0.072-0.017,0.203-0.031,0.344c-0.304,0.108-0.78,0.252-1.489,0.4
	C247.818,370.823,246.397,370.94,244.636,370.94z M336.815,339.942c0.288,1.271,0.624,2.649,0.98,4.115
	c4.195,17.193,6.863,33.164-6.382,39.633c-3.78,1.464-8.296,5.347-8.657,11.517c-0.215,3.645-6.389,15.546-14.906,19.934
	c-6.292,3.241-17.919,6.686-27.072,6.686c-4.745,0-8.335-0.947-10.106-2.667c-4.107-3.982-7.074-9.164-9.95-14.181
	c-2.35-4.108-4.78-8.351-7.814-11.643c-0.521-2.273-1.65-6.559-3.85-12.46c0.712-0.085,1.376-0.192,1.999-0.321
	c7.814-1.629,9.228-5.684,9.594-9.824c0.134-1.523,0.184-2.094,1.308-3.192c3.828-3.734,7.785-7.595,3.429-12.309
	c-0.003-0.004-0.007-0.008-0.01-0.011c0.857-0.598,2.205-1.457,4.314-2.661c9.592-5.481,8.634-11.544,6.724-16.223
	c-0.056-0.136-0.12-0.295-0.183-0.453c0.325-0.666,0.586-1.366,0.784-2.116c0.211,0.003,0.427,0.005,0.65,0.005
	c6.686,0,16.282-1.398,24.058-8.061c2.514-2.155,4.739-3.934,6.892-5.654c4.17-3.334,7.826-6.256,11.292-10.19
	C324.974,316.812,334.808,331.111,336.815,339.942z M330.675,273.493c-4.389,6.863-9.863,16.267-13.113,22.14l-0.031,0.056
	c-4.456,7.765-8.761,11.203-15.273,16.409c-2.118,1.693-4.519,3.611-7.161,5.878c-5.395,4.624-12.476,5.595-17.467,5.595
	c-0.223,0-0.438-0.002-0.648-0.006c-0.185-1.3-0.41-2.71-0.679-4.361c-0.328-2.027-0.699-4.326-1.042-6.82
	c-0.896-6.486-0.724-6.773-0.263-7.54c0.433-0.718,1.086-1.803,1.804-3.476c2.646-6.181,0.217-9.689-1.559-12.254
	c-0.652-0.941-1.328-1.914-1.873-3.187c-2.196-5.13-5.508-6.287-7.699-7.054c-1.113-0.389-1.726-0.604-2.524-1.402
	c-0.772-0.771-1.026-1.274-1.411-2.034c-1.599-3.166-3.471-5.144-9.271-7.172c-1.044-0.366-1.939-0.667-2.719-0.929l-0.102-0.035
	c-1.366-0.46-2.777-0.936-3.071-1.152c-0.284-0.241-1.093-1.554-1.743-2.606c-3.131-5.09-6.967-5.428-9.263-5.631
	c-1.077-0.094-1.568-0.137-2.245-0.568c-0.904-0.574-1.558-1.14-2.256-1.743c-0.293-0.253-0.631-0.546-1.003-0.839
	c2.002-7.17,8.302-11.006,20.423-18.39l1.421-0.864c7.051-4.299,13.386-5.201,17.46-5.201c3.037,0,5.243,0.48,6.244,0.753
	l0.847,0.265c0.112,0.034,13.753,4.282,22.254,7.014c8.567,2.754,27.521,6.569,40.818,6.569c1.474,0,2.878-0.047,4.173-0.141
	c1.021-0.076,1.959-0.114,2.788-0.114c1.436,0,2.347,0.115,2.896,0.228c-0.084,0.526-0.244,1.299-0.482,2.313
	c-0.547,2.324-7.027,10.953-10.509,15.59l1.024,0.771l-1.076-0.704C335.369,266.81,332.56,270.55,330.675,273.493z"/>
</svg>
