<?xml version="1.0" encoding="utf-8"?>
<!-- Generator: Adobe Illustrator 15.0.0, SVG Export Plug-In . SVG Version: 6.00 Build 0)  -->
<!DOCTYPE svg PUBLIC "-//W3C//DTD SVG 1.1//EN" "http://www.w3.org/Graphics/SVG/1.1/DTD/svg11.dtd">
<svg version="1.1" id="Layer_1" xmlns="http://www.w3.org/2000/svg" xmlns:xlink="http://www.w3.org/1999/xlink" x="0px" y="0px"
	 width="1000px" height="666px" viewBox="0 0 1000 666" enable-background="new 0 0 1000 666" xml:space="preserve">
<rect y="-0.042" fill="#FFFFFF" width="1000" height="666"/>
<g>
	<path fill="none" stroke="#000000" stroke-width="4.8691" stroke-miterlimit="10" d="M213.784,244.492
		c0,0-8.927-3.855-8.116-11.158c0.812-7.304,5.681-19.882,8.116-23.331c2.435-3.449,6.492-12.782,8.115-15.622
		c1.623-2.84,5.884-6.695,11.362-9.333c0,0,2.231-2.435,1.623,4.261c-0.608,6.695-0.203,12.172,5.478,10.549"/>
	<path fill="none" stroke="#000000" stroke-width="4.8691" stroke-miterlimit="10" d="M247.259,226.436
		c0,0-14.202,3.449-17.245-5.275c-3.043-8.724-1.217-22.317-1.217-22.317s2.84-10.753,4.463-13.796"/>
	<path fill="none" stroke="#000000" stroke-width="4.8691" stroke-miterlimit="10" d="M207.495,186.265
		c0,0,11.97-5.478,24.751-5.072l8.115-0.812c0,0,1.217-1.623,4.261,2.942c3.043,4.564,5.072,5.782,5.072,5.782"/>
	<path fill="none" stroke="#000000" stroke-width="4.8691" stroke-miterlimit="10" d="M242.188,206.959
		c0,0-4.261-4.058-2.841-13.187c1.42-9.13,0.25-8.283-4.421-7.686"/>
	<path fill="none" stroke="#000000" stroke-width="4.8691" stroke-miterlimit="10" d="M240.361,190.775
		c0,0,7.043,8.478,10.347,13.836c3.304,5.357,6.29,4.945,6.29,4.945"/>
	<path fill="none" stroke="#000000" stroke-width="4.8691" stroke-miterlimit="10" d="M279.547,231.507c0,0-0.639,5.681-5.305,5.072
		c-4.667-0.608-12.376-14.607-12.376-14.607s-8.115-17.688-10.955-22.742c-2.84-5.053-4.463-7.082-8.724-7.082"/>
	<path fill="none" stroke="#000000" stroke-width="4.8691" stroke-miterlimit="10" d="M242.188,250.582c0,0-3.182,7.125-4.431-3.945
		c-1.25-11.071-2.383-27.255-2.831-32.248c-0.448-4.995-2.68-16.264-2.882-18.034c-0.203-1.771,0.369-9.349,0.369-9.349"/>
	<path fill="none" stroke="#000000" stroke-width="4.8691" stroke-miterlimit="10" d="M179.497,183.235
		c0,0-2.158-9.143,1.862-10.969c4.021-1.826,12.603-1.42,20.282,0c0,0,22.167,4.058,33.284-0.203l7.262,0.214
		c0,0-6.862-9.06-9.247-14.132"/>
	<path fill="none" stroke="#000000" stroke-width="4.8691" stroke-miterlimit="10" d="M230.623,125.604
		c0,0,8.052,25.563,9.503,33.475c1.452,7.913,5.713,15.013,0.438,12.782c0,0,0,0-3.472-2.435
		c-3.471-2.434-19.454-9.535-29.598-13.796c-10.144-4.26-38.344-14.404-38.344-14.404"/>
	<path fill="none" stroke="#000000" stroke-width="4.8691" stroke-miterlimit="10" d="M239.23,80.971c0,0-1.131,19.679,0,33.069
		s0.993,31.399-1.474,35.48"/>
	<path fill="none" stroke="#000000" stroke-width="4.8691" stroke-miterlimit="10" d="M244.199,98.012c0,0-2.046,4.643,0,17.233
		c2.046,12.59,6.297,38.518,4.07,42.9c-2.227,4.383-4.874,5.661-7,5.63"/>
	<path fill="none" stroke="#000000" stroke-width="4.8691" stroke-miterlimit="10" d="M256.998,118.909
		c0,0-8.401,4.627-8.729,13.187c-0.328,8.561,2.642,20.896,2.642,20.896s2.087,8.989-7.782,10.784"/>
	<path fill="none" stroke="#000000" stroke-width="4.8691" stroke-miterlimit="10" d="M299.399,87.462
		c0,0-8.927,13.999-13.39,24.143c-4.463,10.145-19.273,36.519-25.36,42.808c0,0-1.623,1.785-3.652,3.733
		c-2.029,1.948-8.815,5.6-10.798,10.875c-1.983,5.275-2.124,3.88-2.124,3.88"/>
	<g>
		
			<ellipse transform="matrix(-0.5054 0.8629 -0.8629 -0.5054 536.0735 183.5339)" stroke="#000000" stroke-width="2.4346" stroke-miterlimit="10" cx="215.438" cy="245.401" rx="3.906" ry="5.068"/>
		
			<ellipse transform="matrix(-0.941 0.3383 -0.3383 -0.941 557.8619 352.1991)" stroke="#000000" stroke-width="2.4346" stroke-miterlimit="10" cx="248.237" cy="224.717" rx="3.907" ry="5.068"/>
		
			<ellipse transform="matrix(-0.5054 0.8629 -0.8629 -0.5054 547.3471 102.796)" stroke="#000000" stroke-width="2.4346" stroke-miterlimit="10" cx="244.212" cy="208.268" rx="3.437" ry="4.265"/>
		
			<ellipse transform="matrix(0.4266 0.9044 -0.9044 0.4266 319.0642 -104.8196)" stroke="#000000" stroke-width="2.4346" stroke-miterlimit="10" cx="242.2" cy="199.226" rx="4.389" ry="3.379"/>
		
			<ellipse transform="matrix(0.0813 0.9967 -0.9967 0.0813 446.8637 -65.6723)" stroke="#000000" stroke-width="2.4346" stroke-miterlimit="10" cx="259.055" cy="209.562" rx="3.907" ry="5.068"/>
		
			<ellipse transform="matrix(0.3566 0.9342 -0.9342 0.3566 370.3441 -107.6289)" stroke="#000000" stroke-width="2.4346" stroke-miterlimit="10" cx="263.318" cy="215.08" rx="4.043" ry="3.185"/>
		
			<ellipse transform="matrix(0.3567 0.9342 -0.9342 0.3567 391.1899 -66.9516)" stroke="#000000" stroke-width="2.4346" stroke-miterlimit="10" cx="244.209" cy="250.572" rx="4.043" ry="3.186"/>
		
			<ellipse transform="matrix(-0.6131 -0.79 0.79 -0.6131 183.949 464.0921)" stroke="#000000" stroke-width="2.4346" stroke-miterlimit="10" cx="205.615" cy="187.003" rx="3.437" ry="4.266"/>
		
			<ellipse transform="matrix(-0.6132 -0.79 0.79 -0.6132 269.5656 591.3245)" stroke="#000000" stroke-width="2.4346" stroke-miterlimit="10" cx="279.568" cy="229.659" rx="3.437" ry="4.266"/>
		
			<ellipse transform="matrix(0.9426 0.3338 -0.3338 0.9426 72.0289 -49.954)" stroke="#000000" stroke-width="2.4346" stroke-miterlimit="10" cx="181.369" cy="184.61" rx="3.907" ry="5.068"/>
		
			<ellipse transform="matrix(-0.0989 -0.9951 0.9951 -0.0989 80.6333 426.6987)" stroke="#000000" stroke-width="2.4346" stroke-miterlimit="10" cx="233.507" cy="176.842" rx="3.909" ry="5.732"/>
		
			<ellipse transform="matrix(-0.9323 -0.3617 0.3617 -0.9323 270.8524 336.1906)" stroke="#000000" stroke-width="2.4346" stroke-miterlimit="10" cx="166.892" cy="142.745" rx="4.371" ry="5.503"/>
		
			<ellipse transform="matrix(0.9403 0.3403 -0.3403 0.9403 40.8698 -76.9831)" stroke="#000000" stroke-width="2.4346" stroke-miterlimit="10" cx="239.913" cy="78.028" rx="3.91" ry="5.732"/>
		
			<ellipse transform="matrix(0.6304 -0.7763 0.7763 0.6304 -10.974 222.9179)" stroke="#000000" stroke-width="2.4346" stroke-miterlimit="10" cx="228.603" cy="122.983" rx="3.487" ry="4.811"/>
		<path stroke="#000000" stroke-width="2.4346" stroke-miterlimit="10" d="M251.734,91.73c-1.4-2.393-5.017-2.883-8.072-1.092
			c-3.06,1.79-4.401,5.182-2.997,7.577c1.399,2.393,5.014,2.881,8.071,1.092C251.794,97.516,253.137,94.124,251.734,91.73z"/>
		
			<ellipse transform="matrix(0.9979 0.0654 -0.0654 0.9979 8.329 -16.6194)" stroke="#000000" stroke-width="2.4346" stroke-miterlimit="10" cx="258.024" cy="118.915" rx="4.043" ry="3.186"/>
		
			<ellipse transform="matrix(0.3568 0.9342 -0.9342 0.3568 295.7277 -115.8512)" stroke="#000000" stroke-width="2.4346" stroke-miterlimit="10" cx="231.997" cy="156.836" rx="4.043" ry="3.186"/>
		
			<ellipse transform="matrix(0.0813 0.9967 -0.9967 0.0813 394.6943 -144.2101)" stroke="#000000" stroke-width="2.4346" stroke-miterlimit="10" cx="275.572" cy="141.99" rx="3.908" ry="5.068"/>
		
			<ellipse transform="matrix(0.341 0.9401 -0.9401 0.341 324.955 -196.7358)" stroke="#000000" stroke-width="2.4346" stroke-miterlimit="10" cx="302.805" cy="133.415" rx="4.645" ry="4.796"/>
		
			<ellipse transform="matrix(0.9403 0.3403 -0.3403 0.9403 47.1 -97.206)" stroke="#000000" stroke-width="2.4346" stroke-miterlimit="10" cx="300.684" cy="85.679" rx="3.91" ry="5.147"/>
		
			<ellipse transform="matrix(0.3568 0.9342 -0.9342 0.3568 314.2438 -136.8175)" stroke="#000000" stroke-width="2.4346" stroke-miterlimit="10" cx="256.477" cy="159.791" rx="5.409" ry="4.262"/>
		
			<ellipse transform="matrix(0.5341 -0.8454 0.8454 0.5341 7.1908 329.7337)" stroke="#000000" stroke-width="2.4346" stroke-miterlimit="10" cx="302.78" cy="158.342" rx="4.042" ry="3.186"/>
		
			<ellipse transform="matrix(-0.4134 -0.9105 0.9105 -0.4134 231.3213 468.6237)" stroke="#000000" stroke-width="2.4346" stroke-miterlimit="10" cx="266.606" cy="159.802" rx="4.545" ry="4.068"/>
		
			<ellipse transform="matrix(-0.2489 -0.9685 0.9685 -0.2489 181.679 476.4049)" stroke="#000000" stroke-width="2.4346" stroke-miterlimit="10" cx="275.568" cy="167.756" rx="3.438" ry="4.265"/>
		
			<ellipse transform="matrix(0.6475 -0.7621 0.7621 0.6475 -35.8431 267.0813)" stroke="#000000" stroke-width="2.4346" stroke-miterlimit="10" cx="270.777" cy="172.285" rx="3.437" ry="4.265"/>
		
			<ellipse transform="matrix(0.1177 -0.993 0.993 0.1177 80.0019 418.6146)" stroke="#000000" stroke-width="2.4346" stroke-miterlimit="10" cx="275.584" cy="164.285" rx="4.546" ry="4.068"/>
		
			<ellipse transform="matrix(-0.5618 0.8273 -0.8273 -0.5618 538.4143 60.5998)" stroke="#000000" stroke-width="2.4346" stroke-miterlimit="10" cx="253.157" cy="172.9" rx="4.043" ry="3.185"/>
		
			<ellipse transform="matrix(0.3566 0.9343 -0.9343 0.3566 329.746 -130.2118)" stroke="#000000" stroke-width="2.4346" stroke-miterlimit="10" cx="259.411" cy="174.301" rx="4.078" ry="3.851"/>
		
			<ellipse transform="matrix(-0.3312 0.9436 -0.9436 -0.3312 508.6702 0.9649)" stroke="#000000" stroke-width="2.4346" stroke-miterlimit="10" cx="253.993" cy="180.758" rx="4.725" ry="3.812"/>
		
			<ellipse transform="matrix(-0.9186 0.3952 -0.3952 -0.9186 621.9672 228.5858)" stroke="#000000" stroke-width="2.4346" stroke-miterlimit="10" cx="287.443" cy="178.346" rx="4.043" ry="3.186"/>
		
			<ellipse transform="matrix(0.3567 0.9342 -0.9342 0.3567 355.9212 -159.3693)" stroke="#000000" stroke-width="2.4346" stroke-miterlimit="10" cx="293.68" cy="178.754" rx="4.043" ry="3.185"/>
		
			<ellipse transform="matrix(0.8955 0.4451 -0.4451 0.8955 112.2473 -134.33)" stroke="#000000" stroke-width="2.4346" stroke-miterlimit="10" cx="342.158" cy="171.848" rx="4.044" ry="3.185"/>
		<path stroke="#000000" stroke-width="2.4346" stroke-miterlimit="10" d="M343.312,170.436c1.139,1.921,3.29,2.751,4.802,1.854
			c1.513-0.898,1.816-3.183,0.677-5.104c-1.138-1.918-3.287-2.749-4.801-1.852C342.477,166.232,342.175,168.516,343.312,170.436z"/>
		<path stroke="#000000" stroke-width="2.4346" stroke-miterlimit="10" d="M291.259,196.862c-2.596,0.829-4.222,3.01-3.628,4.873
			c0.594,1.864,3.18,2.702,5.778,1.875c2.595-0.826,4.219-3.007,3.627-4.869C296.443,196.877,293.855,196.039,291.259,196.862z"/>
		
			<ellipse transform="matrix(-0.9528 0.3036 -0.3036 -0.9528 676.4224 317.0953)" stroke="#000000" stroke-width="2.4346" stroke-miterlimit="10" cx="313.562" cy="211.129" rx="4.936" ry="3.541"/>
		
			<ellipse transform="matrix(-0.9634 -0.2682 0.2682 -0.9634 640.7883 460.406)" stroke="#000000" stroke-width="2.4346" stroke-miterlimit="10" cx="351.842" cy="186.434" rx="4.936" ry="3.541"/>
		
			<ellipse transform="matrix(0.341 0.9401 -0.9401 0.341 343.766 -243.2435)" stroke="#000000" stroke-width="2.4346" stroke-miterlimit="10" cx="345.376" cy="123.569" rx="4.645" ry="4.796"/>
		
			<ellipse transform="matrix(0.3412 0.94 -0.94 0.3412 379.1152 -154.3515)" stroke="#000000" stroke-width="2.4346" stroke-miterlimit="10" cx="299.668" cy="193.276" rx="3.551" ry="3.667"/>
		
			<ellipse transform="matrix(0.3412 0.94 -0.94 0.3412 350.5076 -128.5706)" stroke="#000000" stroke-width="2.4346" stroke-miterlimit="10" cx="266.973" cy="185.759" rx="3.551" ry="3.667"/>
		
			<ellipse transform="matrix(0.3411 0.94 -0.94 0.3411 353.545 -124.1489)" stroke="#000000" stroke-width="2.4346" stroke-miterlimit="10" cx="265.329" cy="190.111" rx="3.552" ry="3.667"/>
		
			<ellipse transform="matrix(0.341 0.9401 -0.9401 0.341 344.8194 -111.6625)" stroke="#000000" stroke-width="2.4346" stroke-miterlimit="10" cx="252.049" cy="190.1" rx="3.553" ry="3.667"/>
		
			<ellipse transform="matrix(0.341 0.9401 -0.9401 0.341 345.2451 -127.0916)" stroke="#000000" stroke-width="2.4346" stroke-miterlimit="10" cx="263.269" cy="182.697" rx="3.552" ry="3.667"/>
		<path stroke="#000000" stroke-width="2.4346" stroke-miterlimit="10" d="M273.51,185.928c-0.757-2.1-2.712-3.323-4.366-2.727
			c-1.657,0.596-2.384,2.782-1.629,4.884c0.756,2.098,2.71,3.319,4.366,2.725C273.536,190.213,274.264,188.028,273.51,185.928z"/>
		
			<ellipse transform="matrix(-0.9966 0.0826 -0.0826 -0.9966 536.317 352.0831)" stroke="#000000" stroke-width="2.4346" stroke-miterlimit="10" cx="260.875" cy="187.136" rx="4.043" ry="3.186"/>
	</g>
	<path fill="none" stroke="#000000" stroke-width="4.8691" stroke-miterlimit="10" d="M301.63,158.346
		c0,0-20.076,5.872-24.346,7.699s-19.121,7.806-23.283,8.253c-4.162,0.445-8.729,0.349-10.873-1.646"/>
	<path fill="none" stroke="#000000" stroke-width="4.8691" stroke-miterlimit="10" d="M301.63,134.261
		c0,0-15.418,15.373-25.157,21.076c-9.738,5.704-21.669,12.373-29.755,13.771"/>
	<path fill="none" stroke="#000000" stroke-width="4.8691" stroke-miterlimit="10" d="M344.1,125.604c0,0-7.98,10.242-20.152,15.739
		c-12.173,5.496-35.706,17.355-37.735,18.391c-2.029,1.036-28.393,11.068-30.698,11.529c-2.305,0.463-4.925,1.909-9.972-0.572"/>
	<path fill="none" stroke="#000000" stroke-width="4.8691" stroke-miterlimit="10" d="M340.609,172.103
		c0,0-6.651,6.107-15.983,6.247c-9.332,0.139-28.914-2.267-28.914-2.267s-15.721-2.079-22.753-3.016
		c-7.033-0.935-13.562,1.231-13.562,1.231"/>
	<path fill="none" stroke="#000000" stroke-width="4.8691" stroke-miterlimit="10" d="M350.169,185.401
		c0,0-9.448-2.154-27.842-2.167c-18.395-0.013-38.684-1.813-43.688-2.468c-5.004-0.655-17.625-1.989-22.93-1.626
		c-5.305,0.363-10.26-1.988-11.511-5.747"/>
	<path fill="none" stroke="#000000" stroke-width="4.8691" stroke-miterlimit="10" d="M286.214,179.141c0,0-2.705,5.382-9.738,5.476
		c-7.032,0.093-7.032,0.093-7.032,0.093l-3.119-0.106"/>
	<path fill="none" stroke="#000000" stroke-width="4.8691" stroke-miterlimit="10" d="M311.643,212.571
		c0,0-8.765,3.766-14.662,1.817c-5.897-1.952-14.144-6.105-17.188-9.777c-3.045-3.67-11.047-11.911-14.486-15.298
		c-3.438-3.385-12.27-9.491-17.05-9.212c-4.781,0.28-4.781,0.28-4.781,0.28l-2.206-0.28"/>
	<path fill="none" stroke="#000000" stroke-width="4.8691" stroke-miterlimit="10" d="M299.399,194.312c0,0-3.799,2.57-9.033,1.488
		c-5.234-1.082-19.855-8.795-19.855-8.795s-13.13-5.963-14.802-6.904"/>
	<path fill="none" stroke="#000000" stroke-width="4.8691" stroke-miterlimit="10" d="M292.333,202.021c0,0,2.061,8.35,0,9.924
		c-2.062,1.574-7.877,0.897-14.234-3.025c-6.357-3.921-16.275-10.788-20.175-12.089c-3.899-1.301-6.955-6.885-4.751-12.884"/>
	<path fill="none" stroke="#000000" stroke-width="4.8691" stroke-miterlimit="10" d="M264.125,190.96c0,0-9.334,6.019-10.123-7.014
		"/>
	<path fill="none" stroke="#000000" stroke-width="4.8691" stroke-miterlimit="10" d="M241.27,191.882c0,0,0.705-6.65,2.806-11.116"
		/>
	<path fill="none" stroke="#000000" stroke-width="4.8691" stroke-miterlimit="10" d="M268.961,141.343
		c0,0-1.632-9.122-4.836-11.078c-3.205-1.957-0.107-7.367,4.836-13.047c4.944-5.681,5.065-13.525,0-14.878
		s-13.598-4.327-16.905-14.877c-3.308-10.55,3.346-17.313,8.811-19.747c5.464-2.435,14.706-6.763,14.706-6.763
		s1.576-2.165,1.983-7.574c0.407-5.41-1.041-12.984,17.266-12.173c18.307,0.812,36.701,1.352,58.883,14.066
		s31.108,23.947,35.437,39.701c4.329,15.754,5.41,27.511,5.951,33.264c0.541,5.753,0.812,12.885-8.385,13.107
		c-9.198,0.22-25.969,2.43-26.51,4.571c-0.541,2.142-1.623,12.432-1.623,12.432s1.999,7.493-11.58,9.422s-21.212-1.233-23.752-5.603
		c-2.54-4.371-3.892-4.41-1.999-9.259c1.893-4.85-0.022-5.438-2.852-3.386s-7.29,7.427-15.609,10.285
		c-8.319,2.858-13.144-3.95-15.33-4.468C285.267,154.818,270.239,154.917,268.961,141.343z"/>
	<path fill="none" stroke="#000000" stroke-width="4.8691" stroke-miterlimit="10" d="M363.881,144.163
		c0,0,30.941,0.469,42.301,15.571c0,0,2.437,7.686,15.149,11.529c12.713,3.844,10.009,8.592,9.737,19.068
		c-0.271,10.475-3.247,13.655,1.352,19.234c4.6,5.578-0.812,11.107-11.36,31.606c-10.55,20.5-27.32,35.105-40.035,42.951
		c-12.713,7.845-31.002,10.279-34.031,10.279c-3.028,0-4.921,0-16.012-8.116c-11.091-8.115-22.927-14.606-17.415-22.182
		c5.512-7.573,7.472-8.193,0-11.265c-7.473-3.072-19.218-12.27-26.059-14.704c-6.841-2.434-13.203-3.116-11.239-12.242
		s4.402-10.384,9.945-14.76s18.566-20.845,21.35-27.186c2.783-6.342,18.449-18.863,18.449-18.863"/>
	<path fill="none" stroke="#000000" stroke-width="4.8691" stroke-miterlimit="10" d="M164.676,262.7l-2.491,3.838
		c-1.352,4.329-3.246,21.1-3.518,34.896c-0.271,13.796,7.575,26.51,17.583,38.141c10.008,11.633,14.878,14.067,17.853,14.336
		c2.976,0.271,8.927,2.166,21.34,3.789s29.787-5.683,33.236-8.387c3.449-2.703,7.642-4.869,12.974-4.058s11.981-3.518,14.804-6.223
		c2.823-2.705,12.867-7.845,16.793-13.254c3.927-5.41,5.541-15.419,10.065-26.509c4.525-11.093,3.05-24.617,0-37.602
		c-3.049-12.984-11.828-14.607-17.101-15.032c-5.272-0.425-10.278-2.145-10.278-2.145c0.95-6.896,0.242-12.215,0-14.831
		c-0.242-2.616-8.696,0.683-12.623,1.981c-3.927,1.3-13.342-2.162-13.342-2.162c-12.031-8.385-26.982-2.371-26.982-2.371
		s-1.586,3.708-8.585,1.017c-7-2.692-9.04-2.07-15.751,1.535"/>
	<path fill="none" stroke="#000000" stroke-width="4.8691" stroke-miterlimit="10" d="M188.965,170.691c0,0,0.47-4.729-3.552-9.896
		c-4.022-5.166-7.051-8.459-8.107-11.275c-1.055-2.816,0.567-5.964-4.572-8.177c-5.14-2.215-7.574-4.918-12.173-7.083
		c-4.599-2.165-10.821-4.745-15.148-3.996c-4.328,0.749-6.492,0.292-9.197-1.508c-2.705-1.801-7.575-0.634-11.902,0
		c-4.328,0.633-13.796,7.667-15.419,10.913c-1.624,3.246-6.221,9.149-8.656,12.013c-2.435,2.864-5.682,12.567-5.952,20.16
		c-0.271,7.592-3.516,18.077,2.976,37.722c6.493,19.643,8.657,26.637,18.395,37.071c9.738,10.434,21.419,16.386,25.452,19.632
		c4.033,3.246,12.673,8.113,17.551,1.893c4.876-6.221,12.181-9.198,17.32-8.927s8.386,1.083,11.091-2.164
		c2.705-3.246,5.139-8.378,10.008-6.488c4.869,1.891,7.304,1.582,7.304-3.945c0-5.525,0.195-9.524-2.743-13.206
		c-2.938-3.681-6.475-6.538,0-8.408c6.475-1.872,14.356,0.307,12.481-6c-1.875-6.306-3.247-7.65-6.628-11.581
		c-3.381-3.931-5.274-6.443-3.651-9.921s3.88-3.599,1.773-8.415c-2.107-4.815-4.477-2.552-9.618-6.923
		C190.858,177.812,189.252,173.78,188.965,170.691z"/>
	<path fill="none" stroke="#000000" stroke-width="4.8691" stroke-miterlimit="10" d="M256.65,70.404c0,0,3.187-8.64,0.347-14.591
		c-2.839-5.951-3.583-8.235-4.564-14.667c-0.98-6.432-1.479-9.678-6.234-13.465c-4.755-3.787-12.059-10.009-30.453-7.574
		c-18.395,2.435-39.673,10.009-44.317,10.82c-4.646,0.812-21.416,13.525-27.097,22.722c-5.681,9.197-13.255,21.598-14.067,32.034
		s-2.706,23.15,0,26.937c2.705,3.787,4.058,11.925,12.444,9.479c8.385-2.446,6.822,4.077,9.227,8.796"/>
	<path fill="none" stroke="#000000" stroke-width="4.8691" stroke-miterlimit="10" d="M181.073,155.337c0,0,4.917-7.237,6-9.423
		s1.083-6.728,5.14-1.751c4.058,4.976,4.522,10.077,9.43,8.743c4.907-1.333,4.23-4.99,7.95-4.785
		c3.72,0.206,7.507,4.485,11.023,3.563c3.516-0.922,8.678,0.43,7.179-4.439c-1.499-4.87-5.005-11.09-3.522-12.983
		c1.483-1.894,3.629-5.3,6.749-7.384c3.119-2.084,5.242-5.912,9.34-7.967c4.098-2.055,4.912-0.609,5.838-4.937
		c0.925-4.328,2.12-12.919,1.06-15.96c-1.06-3.04,1.623-10.452,2.82-12.33c1.197-1.878,1.197-1.878,1.197-1.878"/>
	<g>
		<path d="M237.305,227.626c-1.687,6.702-3.467,13.343-5.318,19.979c-1.854,6.632-3.786,13.242-5.836,19.817
			c-2.055,6.572-4.216,13.115-6.637,19.565c-1.215,3.224-2.494,6.425-3.917,9.563c-1.444,3.119-2.957,6.252-5.043,8.993
			c1.918-2.856,3.231-6.047,4.482-9.229c1.228-3.198,2.31-6.451,3.327-9.723c2.025-6.548,3.788-13.176,5.444-19.828
			c1.651-6.653,3.183-13.338,4.636-20.039c1.448-6.698,2.832-13.426,4.105-20.138L237.305,227.626z"/>
	</g>
	<g>
		<path d="M235.253,236.313c-1.228,2.079-2.499,3.898-3.853,5.748c-1.35,1.83-2.762,3.603-4.231,5.324
			c-2.938,3.44-6.104,6.669-9.48,9.646c-6.747,5.947-14.393,10.873-22.664,14.132c7.938-4.003,14.962-9.523,20.974-15.884
			c3.007-3.185,5.775-6.581,8.29-10.138c1.257-1.778,2.452-3.598,3.573-5.452c1.108-1.838,2.201-3.779,3.067-5.612L235.253,236.313z
			"/>
	</g>
	<g>
		<path d="M242.538,228.375c-0.934,5.33-1.761,10.731-2.515,16.12c-0.751,5.396-1.419,10.804-1.972,16.224
			c-0.55,5.421-0.991,10.854-1.224,16.3c-0.218,5.443-0.277,10.907,0.266,16.349c-0.946-5.389-1.296-10.879-1.483-16.354
			c-0.173-5.481-0.136-10.968,0.012-16.45c0.15-5.482,0.417-10.961,0.769-16.437c0.355-5.479,0.78-10.934,1.327-16.429
			L242.538,228.375z"/>
	</g>
	<g>
		<path d="M246.61,228.511c0.881,7.417,2.047,14.885,3.476,22.253c1.459,7.363,3.144,14.711,5.659,21.728
			c0.637,1.748,1.336,3.47,2.14,5.127c0.826,1.687,1.68,3.366,2.554,5.036c1.747,3.341,3.57,6.648,5.436,9.934
			c3.739,6.566,7.635,13.053,11.681,19.447c-4.383-6.17-8.625-12.442-12.722-18.817c-2.045-3.19-4.051-6.408-5.989-9.674
			c-0.969-1.633-1.92-3.277-2.849-4.942c-0.94-1.699-1.76-3.447-2.514-5.216c-2.979-7.091-5.078-14.444-6.959-21.826
			c-1.85-7.401-3.423-14.824-4.734-22.376L246.61,228.511z"/>
	</g>
	<g>
		<path d="M254.632,229.152c2.278,7.042,4.64,14.084,7.072,21.091c2.442,7.006,4.94,13.994,7.69,20.895
			c-3.488-6.562-6.743-13.256-9.943-19.971c-3.193-6.724-6.31-13.471-9.366-20.274L254.632,229.152z"/>
	</g>
	<g>
		<path d="M229.195,228.035c-0.854,1.726-1.743,3.182-2.709,4.688c-0.961,1.483-1.98,2.917-3.047,4.31
			c-2.136,2.783-4.471,5.394-6.991,7.796c-5.031,4.805-10.824,8.766-17.096,11.484c5.906-3.445,11.054-7.978,15.316-13.145
			c2.134-2.584,4.053-5.329,5.749-8.187c0.847-1.429,1.641-2.887,2.366-4.367c0.714-1.46,1.416-3.027,1.91-4.434L229.195,228.035z"
			/>
	</g>
	<g>
		<path d="M206.054,190.327c-13.744,5.349-27.504,10.612-41.357,15.669c-6.943,2.492-13.85,5.046-20.981,7.105
			c-3.594,0.97-7.266,1.604-10.962,1.859c-3.689,0.234-7.421,0.167-11.034-0.574c3.645,0.54,7.347,0.4,10.976-0.032
			c3.632-0.452,7.211-1.277,10.668-2.418c6.9-2.411,13.67-5.344,20.439-8.205c13.519-5.797,26.962-11.808,40.354-17.889
			L206.054,190.327z"/>
	</g>
	<g>
		<path d="M206.585,196.915c-3.016,1.135-6.119,2.569-9.084,4.093c-2.98,1.541-5.893,3.229-8.697,5.092
			c-5.587,3.729-10.845,8.129-14.878,13.662c3.348-5.98,8.156-11.117,13.412-15.605c2.639-2.247,5.417-4.334,8.294-6.286
			c2.9-1.952,5.812-3.758,9.015-5.422L206.585,196.915z"/>
	</g>
	<g>
		<path d="M199.022,186.317c-4.314,0.761-8.543,1.289-12.83,1.704c-4.276,0.406-8.562,0.664-12.852,0.728
			c-4.288,0.062-8.581-0.066-12.842-0.502c-4.255-0.441-8.495-1.18-12.542-2.498c4.153,0.926,8.391,1.249,12.609,1.283
			c4.222,0.026,8.436-0.251,12.624-0.713c4.188-0.465,8.353-1.118,12.485-1.913c4.119-0.799,8.265-1.729,12.238-2.83
			L199.022,186.317z"/>
	</g>
	<g>
		<path d="M131.186,196.831c11.793-1.25,23.561-2.711,35.273-4.437c5.854-0.87,11.695-1.812,17.489-2.904
			c5.773-1.11,11.586-2.303,17.014-4.05l1.359,4.676c-5.985,1.477-11.891,2.255-17.82,2.984c-5.923,0.701-11.845,1.244-17.768,1.713
			C154.888,195.737,143.039,196.39,131.186,196.831z"/>
	</g>
	<g>
		<path d="M223.958,152.116c-2.151-4.088-4.388-8.174-6.679-12.2c-2.299-4.022-4.654-8.022-7.195-11.833
			c-5.301-7.605-10.613-15.35-15.801-23.093c-5.194-7.759-10.331-15.558-15.277-23.483c-2.464-3.967-4.896-7.958-7.138-12.063
			l-3.26-6.195l-1.629-3.096l-0.823-1.543l-0.053-0.092c0.002,0.026,0.101-0.066,0.061-0.028l0.011,0.024l0.023,0.049l0.097,0.196
			l0.197,0.39l0.398,0.779l-0.432-0.761l-0.214-0.381l-0.106-0.192l-0.026-0.048l-0.013-0.025c-0.049,0.022,0.042-0.096,0.062-0.042
			l0.06,0.095l0.89,1.507l1.763,3.022l3.521,6.041c2.405,3.982,5.001,7.853,7.629,11.699c5.272,7.683,10.733,15.238,16.25,22.75
			c5.53,7.524,11.1,14.931,16.796,22.393c2.804,3.834,5.357,7.773,7.862,11.744c2.498,3.977,4.917,7.974,7.29,12.042
			L223.958,152.116z"/>
	</g>
	<g>
		<path d="M212.576,151.128c-0.829-0.983-1.917-2.083-2.958-3.083c-1.062-1.017-2.165-2.007-3.293-2.972
			c-2.258-1.931-4.621-3.764-7.052-5.514c-4.863-3.5-10-6.665-15.298-9.554c-5.368-2.903-10.64-6.012-15.72-9.391
			c-5.059-3.4-10.029-6.983-14.433-11.186c4.669,3.895,9.837,7.117,15.073,10.151c5.259,3.011,10.665,5.731,16.173,8.25
			c5.56,2.567,11.001,5.434,16.238,8.696c2.617,1.632,5.185,3.359,7.677,5.218c1.247,0.929,2.474,1.892,3.678,2.898
			c1.218,1.03,2.352,2.009,3.572,3.27L212.576,151.128z"/>
	</g>
	<g>
		<path d="M219.927,152.493c-2.874-3.754-5.905-7.481-8.987-11.12c-3.092-3.641-6.268-7.215-9.568-10.666
			c-3.3-3.465-6.734-6.743-10.39-9.872l-10.835-9.514l11.599,8.566c3.9,2.803,7.701,5.859,11.312,9.063
			c3.627,3.202,7.133,6.535,10.563,9.943c3.431,3.419,6.773,6.882,10.059,10.497L219.927,152.493z"/>
	</g>
	<g>
		<path d="M222.09,145.243c-2.187-4.909-4.292-9.819-6.328-14.781c-2.016-4.969-4.01-9.939-5.634-15.12
			c-1.588-5.269-2.214-10.613-2.854-15.914c-0.621-5.305-1.132-10.606-2.169-15.843c1.433,5.144,2.353,10.428,3.372,15.657
			c1.032,5.215,2.076,10.466,3.952,15.302c1.944,4.874,4.295,9.657,6.659,14.407c2.382,4.745,4.85,9.471,7.367,14.132
			L222.09,145.243z"/>
	</g>
	<g>
		<path d="M220.597,137.833c-0.28-2.794-0.33-5.403-0.298-8.085c0.041-2.663,0.203-5.314,0.493-7.945
			c0.583-5.257,1.676-10.454,3.481-15.35c-1.021,5.116-1.279,10.305-1.048,15.431c0.118,2.564,0.361,5.115,0.719,7.641
			c0.359,2.504,0.826,5.076,1.438,7.404L220.597,137.833z"/>
	</g>
	<g>
		<path d="M269.851,147.982c4.21-4.812,8.471-9.533,12.856-14.178c2.196-2.318,4.419-4.613,6.729-6.847
			c1.157-1.116,2.334-2.216,3.578-3.278c0.625-0.53,1.264-1.05,1.962-1.548c0.698-0.486,1.346-0.904,2.021-1.347
			c5.351-3.466,10.74-6.812,16.122-10.187c5.373-3.385,10.791-6.696,16.076-10.213c-5.053,3.85-10.252,7.503-15.398,11.224
			c-5.151,3.709-10.328,7.4-15.406,11.172c-0.625,0.469-1.28,0.957-1.856,1.415c-0.566,0.461-1.128,0.981-1.681,1.514
			c-1.105,1.073-2.179,2.212-3.235,3.37c-2.111,2.321-4.159,4.724-6.179,7.149c-4.032,4.857-7.972,9.829-11.814,14.83
			L269.851,147.982z"/>
	</g>
	<g>
		<path d="M265.907,137.265c1.034-2.288,2.083-4.545,3.162-6.805c1.073-2.271,2.222-4.487,3.321-6.704
			c1.114-2.229,2.252-4.466,3.527-6.631c0.639-1.081,1.314-2.145,2.066-3.155c0.759-0.995,1.583-1.994,2.651-2.649
			c-0.941,0.817-1.562,1.896-2.136,2.973c-0.562,1.089-1.043,2.219-1.487,3.364c-0.886,2.292-1.631,4.64-2.363,7.005
			c-0.729,2.386-1.495,4.737-2.169,7.101c-0.687,2.368-1.351,4.757-1.985,7.132L265.907,137.265z"/>
	</g>
	<g>
		<path d="M268.916,139.343l13.489-15.046l6.711-7.546c1.123-1.254,2.188-2.529,3.381-3.807c1.167-1.25,2.35-2.458,3.538-3.662
			c4.759-4.8,9.592-9.491,14.397-14.214l7.184-7.105c2.37-2.392,4.761-4.764,6.979-7.3c-2.063,2.667-4.312,5.185-6.536,7.717
			l-6.748,7.531c-4.513,5.004-9.06,9.984-13.494,15.031c-1.105,1.263-2.204,2.531-3.262,3.81c-1.035,1.249-2.052,2.623-3.099,3.945
			l-6.256,7.951l-12.569,15.844L268.916,139.343z"/>
	</g>
	<g>
		<path d="M273.097,150.081c1.984-2.085,3.984-4.046,6.084-5.974c2.104-1.915,4.26-3.779,6.686-5.454l1.729-1.152
			c0.555-0.38,1.107-0.779,1.661-1.184l3.348-2.49c2.261-1.671,4.621-3.315,7.192-4.643c1.282-0.666,2.619-1.244,3.995-1.711
			c0.689-0.23,1.388-0.433,2.094-0.605c0.678-0.166,1.333-0.325,1.993-0.51c2.646-0.729,5.268-1.632,7.873-2.589
			c5.213-1.912,10.354-4.093,15.606-5.957c-5.101,2.24-10.05,4.782-15.144,7.083c-2.546,1.152-5.123,2.257-7.787,3.204
			c-0.666,0.24-1.35,0.461-2.011,0.674c-0.634,0.205-1.258,0.437-1.873,0.693c-1.227,0.52-2.412,1.138-3.553,1.84
			c-4.587,2.777-8.399,6.877-12.961,10.289c-2.048,1.646-3.988,3.573-5.861,5.549c-1.865,1.98-3.698,4.061-5.407,6.142
			L273.097,150.081z"/>
	</g>
	<g>
		<path d="M281.13,152.31l13.36-5.428l6.662-2.748c2.196-0.928,4.473-1.843,6.542-2.834c4.209-2.158,8.395-4.597,12.558-6.979
			c4.165-2.403,8.317-4.832,12.458-7.281c-3.92,2.79-7.854,5.561-11.806,8.309c-3.971,2.739-7.883,5.491-12.033,8.083
			c-2.171,1.273-4.284,2.329-6.43,3.46l-6.424,3.309l-12.877,6.545L281.13,152.31z"/>
	</g>
	<g>
		<path d="M304.299,192.635c4.497,3.09,9.168,6.081,13.933,8.744c2.386,1.317,4.818,2.579,7.28,3.519
			c1.235,0.48,2.398,0.765,3.765,0.994c1.332,0.233,2.693,0.419,4.058,0.588c5.473,0.657,11.013,1.07,16.549,1.397
			c5.539,0.288,11.089,0.595,16.641,0.401c-5.531,0.6-11.104,0.698-16.667,0.815c-5.568,0.078-11.133,0.072-16.731-0.188
			c-1.401-0.07-2.804-0.158-4.224-0.3c-1.388-0.122-2.959-0.385-4.351-0.819c-2.802-0.843-5.403-1.97-7.973-3.15
			c-5.126-2.395-10.034-5.053-14.917-7.907L304.299,192.635z"/>
	</g>
	<g>
		<path d="M298.338,196.683c3.816,2.614,7.836,5.115,11.882,7.48c4.06,2.365,8.198,4.603,12.43,6.648
			c4.233,2.041,8.561,3.902,13.021,5.399c4.456,1.475,9.064,2.654,13.81,2.811c-4.746,0.252-9.514-0.535-14.146-1.641
			c-4.641-1.127-9.184-2.635-13.647-4.334c-4.463-1.703-8.848-3.608-13.168-5.652c-4.326-2.056-8.561-4.208-12.785-6.597
			L298.338,196.683z"/>
	</g>
	<g>
		<path d="M295.387,201.572c3.312,2.962,6.706,5.895,10.119,8.777c3.418,2.883,6.873,5.723,10.382,8.494
			c3.511,2.768,7.072,5.474,10.743,8.023c1.837,1.271,3.701,2.504,5.621,3.646c1.924,1.127,3.889,2.217,6.023,2.919
			c-2.192-0.507-4.274-1.425-6.31-2.382c-2.034-0.972-4.021-2.042-5.981-3.151c-3.92-2.226-7.741-4.619-11.516-7.076
			c-3.773-2.46-7.497-4.995-11.188-7.576c-3.692-2.587-7.343-5.204-10.98-7.908L295.387,201.572z"/>
	</g>
	<g>
		<path d="M302.797,188.387c5.714,1.3,11.571,2.392,17.411,3.323c5.851,0.924,11.733,1.672,17.637,2.15
			c5.902,0.469,11.835,0.689,17.747,0.34c2.953-0.183,5.902-0.509,8.801-1.114c2.891-0.612,5.761-1.485,8.353-2.971
			c-2.486,1.66-5.328,2.744-8.208,3.562c-2.891,0.811-5.854,1.345-8.831,1.734c-5.959,0.761-11.976,0.947-17.974,0.88
			c-6.001-0.076-11.995-0.427-17.972-0.958c-5.985-0.541-11.919-1.231-17.911-2.171L302.797,188.387z"/>
	</g>
</g>
<g>
	<path fill="none" stroke="#000000" stroke-width="4.5027" stroke-miterlimit="10" d="M452.571,414.702
		c0,0-14.468-3.78-9.261-15.125c5.207-11.343,10.995-8.645,12.73-5.94c1.737,2.701,11.575-4.86,10.418,4.86
		c-1.156,9.724-6.945,8.104-6.945,8.104S461.251,413.082,452.571,414.702z"/>
	<path fill="none" stroke="#000000" stroke-width="4.5027" stroke-miterlimit="10" d="M443.489,412.479c0,0-5.181,1.728-9.669-3.106
		s-4.143-5.312,0-7.489c4.146-2.18,8.979-1.41,6.905-7.495c-2.069-6.079-3.798-6.079,0-9.188c3.801-3.107,7.253-4.146,8.979,0
		c1.726,4.145,5.87,6.562,6.904,3.107c1.037-3.452,0.461-2.417,4.893-1.382c4.432,1.036,6.85-0.689,5.813,4.489
		c-1.037,5.179-4.145,7.465,1.381,10.467c5.524,3,8.979,3,6.905,7.489c-2.071,4.488-4.488,5.434-8.633,3.406
		c-4.144-2.025-5.758-1.335-5.468,3.153c0.288,4.489-0.402,6.906-4.893,8.287c-4.487,1.381-9.667,2.764-12.084-2.07
		C442.107,417.312,449.279,412.867,443.489,412.479z"/>
	<path fill="none" stroke="#000000" stroke-width="4.5027" stroke-miterlimit="10" d="M435.43,410.816c0,0-1.608,5.757-16.803-6.821
		c-15.193-12.58-23.48-16.378-22.444-23.976c1.036-7.597-2.071-8.979,10.359-10.358c12.431-1.383,23.934-5.181,28.888,0
		c4.953,5.18,7.43,14.006,7.43,14.006"/>
	<path fill="none" stroke="#000000" stroke-width="4.5027" stroke-miterlimit="10" d="M455.576,425.519
		c0,0-2.419,14.931,11.05,25.98c13.467,11.05,20.718,15.193,25.897,10.014c5.18-5.181,5.869-8.978,2.416-18.301
		c-3.452-9.324-3.452-14.504-11.395-20.374c-7.941-5.87-13.13-9.083-13.13-9.083"/>
	<path fill="none" stroke="#000000" stroke-width="4.5027" stroke-miterlimit="10" d="M461.503,386.926c0,0,5.468-3.454,9.267-8.287
		c3.799-4.834,8.634-10.359,15.193-8.634c6.561,1.727,13.812,6.906,19.337,10.017c5.524,3.106,7.597,2.534,4.145,9.555
		c-3.453,7.02-4.711,12.89-12.369,17.379c-7.658,4.488-11.111,4.488-21.472,2.417"/>
	<path fill="none" stroke="#000000" stroke-width="4.5027" stroke-miterlimit="10" d="M428.324,410.709
		c0,0-7.971,10.402-10.732,13.165c-2.763,2.762-6.216,11.74-6.216,16.919c0,5.18-2.417,12.776,5.87,13.812s18.301,4.834,23.827,0
		c5.524-4.834,16.265-15.867,16.265-15.867"/>
	<path fill="none" stroke="#000000" stroke-width="4.5027" stroke-miterlimit="10" d="M434.192,368.656
		c0,0-1.062-17.644,4.464-24.203c5.522-6.562,7.941-13.467,12.775-11.05s9.323,0.346,12.432,7.94
		c3.106,7.6,7.94,13.467,7.597,19.684c-0.346,6.217,1.185,15.323,1.185,15.323"/>
	<path fill="none" stroke="#000000" stroke-width="4.5027" stroke-miterlimit="10" d="M488.169,427.162
		c0,0,9.938-5.282,6.974-19.135"/>
	<path fill="none" stroke="#000000" stroke-width="4.5027" stroke-miterlimit="10" d="M476.239,372.703c0,0-3.161-3.042,0-12.021
		c3.163-8.979,12.34-15.886,15.692-24.173c3.354-8.287,15.784-24.517,16.82-33.148c1.035-8.633,1.035-8.633,1.035-8.633
		s3.723,7.25,1.344,17.61c-2.379,10.359-9.853,35.896-14.058,42.291c-4.205,6.396-8.905,15.052-8.905,15.052"/>
	<path fill="none" stroke="#000000" stroke-width="4.5027" stroke-miterlimit="10" d="M495.695,372.703
		c-1.737,0.655,7.188-11.346,12.021-18.072c4.834-6.725,15.193-20.488,30.388-21.721c15.193-1.233,20.719-3.305,20.719-3.305
		s-6.562,6.905-12.432,11.396c-5.869,4.49-23.48,12.777-29.696,18.991c-6.216,6.216-15.87,17.369-15.87,17.369"/>
	<path fill="none" stroke="#000000" stroke-width="4.5027" stroke-miterlimit="10" d="M501.612,344.367
		c0,0,13.354-6.82,17.499-14.764c4.146-7.94,8.037-13.467,8.037-13.467s1.82,15.136,0,19.998"/>
	<path fill="none" stroke="#000000" stroke-width="4.5027" stroke-miterlimit="10" d="M619.942,425.519
		c-1.673,0.601-5.87-0.953-10.36-3.717c-4.489-2.763-7.597-1.159-10.014-4.205s-8.287-7.93-5.181-13.602
		c3.107-5.674,6.906-10.735,7.598-14.42c0.69-3.686,4.488-7.483,8.979-3.34c4.487,4.144,7.941,12.645,8.979,15.646
		C620.979,404.882,627.883,422.679,619.942,425.519z"/>
	<path fill="none" stroke="#000000" stroke-width="4.5027" stroke-miterlimit="10" d="M602.409,419.475
		c0,0-15.962,7.888-15.271,19.265c0.69,11.38,1.333,26.918,6.364,28.298c5.03,1.383,9.989-2.07,15.107-8.631
		c5.115-6.562,8.226-18.021,6.499-24.55c-1.728-6.529-1.444-9.848-1.444-9.848"/>
	<path fill="none" stroke="#000000" stroke-width="4.5027" stroke-miterlimit="10" d="M587.418,443.405c0,0-15.474,9.175-25.143,0
		c-9.668-9.173-12.432-16.591-5.87-23.932c6.561-7.342,11.739-14.968,20.026-14.437c8.288,0.534,17.112,2.989,17.112,2.989"/>
	<path fill="none" stroke="#000000" stroke-width="4.5027" stroke-miterlimit="10" d="M602.455,388.048
		c0,0-0.172-11.61-8.953-15.345c-8.781-3.732-17.069-7.488-22.939-3.021c-5.869,4.468-12.431,10.338-9.322,16.554
		c3.107,6.216,13.64,18.184,20.209,19.332"/>
	<path fill="none" stroke="#000000" stroke-width="4.5027" stroke-miterlimit="10" d="M615.108,433.855l14.156,6.938
		c5.524,3.453,12.776,6.562,19.337,0c6.562-6.561,8.634-12.252,4.834-21.318c-3.798-9.066-10.537-12.946-18.218-14.461
		c-7.68-1.513-14.185,0-14.185,0"/>
	<path fill="none" stroke="#000000" stroke-width="4.5027" stroke-miterlimit="10" d="M615.108,391.577
		c0,0,2.761-12.045,10.703-14.217c7.94-2.177,18.991-2.866,26.243,3.005c7.251,5.87,12.432,10.014,6.562,15.884
		s-14.397,12.103-14.981,11.778"/>
	<path fill="none" stroke="#000000" stroke-width="4.5027" stroke-miterlimit="10" d="M595.754,373.983c0,0-1.597-8.122,5.6-10.539
		c7.192-2.417,15.771-4.487,22.359,1.727c6.589,6.217,6.823,11.181,6.823,11.181"/>
	<path fill="none" stroke="#000000" stroke-width="4.5027" stroke-miterlimit="10" d="M639.97,365.171c0,0,0-21.062,7.942-28.66
		c0,0,13.812-14.503,22.1-11.739c8.287,2.763,26.242,4.834,20.028,14.503c-6.217,9.67-14.159,17.35-17.267,21.798
		c-3.107,4.445-5.276,15.008-11.615,16.289c-6.34,1.277-10.599,1.926-10.599,1.926s-8.396-3.578-12.428-3.479
		C638.133,375.807,639.694,370.643,639.97,365.171z"/>
	<path fill="none" stroke="#000000" stroke-width="4.5027" stroke-miterlimit="10" d="M661.158,391.912
		c0,0,11.961,3.302,15.067,6.754c3.107,3.453,10.16,9.274,15.095,5.329c4.934-3.947,6.315-11.698,3.207-19.562
		c-3.107-7.865-14.012-20.46-19.781-25.902"/>
	<path fill="none" stroke="#000000" stroke-width="4.5027" stroke-miterlimit="10" d="M640.351,358.53
		c0.138-1.279-2.328-14.077-2.218-23.057c0.11-8.978-1.794-24.517-2.914-31.422c-1.119-6.906,0.953-15.884,6.479-9.323
		c5.524,6.561,19.035,21.808,21.259,30.759"/>
	<path fill="none" stroke="#000000" stroke-width="4.5027" stroke-miterlimit="10" d="M608.609,361.489c0,0-8.571-24.697,0-27.773
		c8.568-3.075,19.453-11.017,29.377-4.11"/>
	<path fill="none" stroke="#000000" stroke-width="4.5027" stroke-miterlimit="10" d="M601.354,363.444
		c0,0-5.581-16.92-11.453-23.826c-5.87-6.905-13.396-14.502-16.712-23.48c-3.315-8.978-3.315-8.978-3.315-8.978
		s12.141,8.978,15.738,12.775c0,0,3.955-23.479,9.992-29.005c6.038-5.524,6.038-5.524,6.038-5.524s1.118,44.55,3.158,57.32"/>
	<path fill="none" stroke="#000000" stroke-width="4.5027" stroke-miterlimit="10" d="M496.327,447.484
		c0,0,19.677,7.897,21.058-2.85c1.382-10.748-1.401-18.856-2.6-25.161c-1.198-6.306,0.873-11.836,5.362-7.344
		c4.489,4.491,10.359,12.435,19.684,8.98s10.704-5.533,6.214-15.544c-4.487-10.01-10.623-18.104-18.086-21.135
		c-7.465-3.031-7.812-3.807-2.285-8.082c5.523-4.272,15.538-11.342,18.991-17.82c3.453-6.48,4.349-12.211-4.904-13.315"/>
	<path fill="none" stroke="#000000" stroke-width="4.5027" stroke-miterlimit="10" d="M461.503,337.474
		c0,0,5.765-18.572,11.142-24.098c5.377-5.526,15.727-12.086,20.736-3.109c5.013,8.979,6.882,11.391,6.882,11.391"/>
	<path fill="none" stroke="#000000" stroke-width="4.5027" stroke-miterlimit="10" d="M595.604,467.34
		c0,0-1.543,11.438-14.154,13.855c-12.612,2.417-22.626,2.417-30.567-11.742c-7.941-14.157-7.252-24.815-4.144-26.048
		c3.106-1.23,2.514,0.496,6.092,5.33c3.576,4.834,4.267,8.286,10.828,6.217c6.561-2.073,14.238-4.875,16.27-8.482"/>
	<path fill="none" stroke="#000000" stroke-width="4.5027" stroke-miterlimit="10" d="M552.829,335.49
		c0,0,23.949,6.842,26.712,16.361c2.763,9.521,10.023,15.289,16.062,15.167c0,0-1.603-7.421-8.485-15.167
		c-6.885-7.744-19.315-17.421-24.15-27.433c-4.834-10.009-7.467-18.641-2.523-22.094c4.942-3.453,11.156-4.144,15.301,0
		c4.144,4.144,8.729,16.5,8.729,16.5"/>
	<path fill="none" stroke="#000000" stroke-width="4.5027" stroke-miterlimit="10" d="M544.56,419.475c0,0,0.257,5.31,10.368,1.917"
		/>
	<path fill="none" stroke="#000000" stroke-width="4.5027" stroke-miterlimit="10" d="M546.404,354.631c0,0,6.989-0.771,6.425,6.44
		c-0.567,7.207,2.336,17.229-3.087,20.853c-5.424,3.621-9.788,5.749-17.791,4.685"/>
	<path fill="none" stroke="#000000" stroke-width="4.5027" stroke-miterlimit="10" d="M442.858,338.831
		c0,0-12.491-0.938-21.47,9.075c-8.978,10.013-13.467,15.538-14.848,21.755"/>
	<path fill="none" stroke="#000000" stroke-width="4.5027" stroke-miterlimit="10" d="M480.883,307.292c0,0-5.771-14.289,0-18.779
		c5.771-4.489,13.055-3.877,14.593,3.934c1.537,7.806-0.831,20.06-0.831,20.06"/>
	<path fill="none" stroke="#000000" stroke-width="4.5027" stroke-miterlimit="10" d="M560.441,338.114
		c0,0,5.212-8.812,3.867-11.254"/>
	<path fill="none" stroke="#000000" stroke-width="4.5027" stroke-miterlimit="10" d="M249.083,582.37c0,0,6.561,2.417,10.704-5.525
		c4.144-7.94,7.251-15.538,13.123-16.92c5.869-1.381,11.048-3.106,8.287-10.357c-2.763-7.253-5.872-15.193-11.74-14.503
		c-5.872,0.689-12.778,6.214-15.54,13.119C251.153,555.091,241.14,573.737,249.083,582.37z"/>
	<path fill="none" stroke="#000000" stroke-width="4.5027" stroke-miterlimit="10" d="M258.359,579.062
		c0,0,6.094,6.068,5.659,11.595c-0.434,5.523-1.469,13.467,3.02,8.633c4.489-4.835,3.107-19.335,6.906-16.575
		c3.799,2.763,11.05,1.328,11.05-3.652c0-4.979,2.763-7.052,5.87-8.433c3.107-1.382,6.907-5.524,0-7.252
		c-6.906-1.727-8.905-7.94-8.905-7.94"/>
	<path fill="none" stroke="#000000" stroke-width="4.5027" stroke-miterlimit="10" d="M246.714,578.112c0,0,0.986,8.056-6.265,8.056
		c-7.252,0-13.467,1.729-16.229-3.453c-2.763-5.18-2.071-4.834,3.453-7.251c5.524-2.417,6.906-4.834,11.396-6.906
		c4.488-2.07,7.69-0.979,7.69-0.979"/>
	<path fill="none" stroke="#000000" stroke-width="4.5027" stroke-miterlimit="10" d="M251.498,582.715
		c0,0-1.192,12.776-4.739,22.101c-3.548,9.322-6.31,17.956-7.346,23.137c-1.036,5.178-3.453,13.467,3.453,15.192
		c6.907,1.726,12.431,4.145,16.92-5.18c4.489-9.323,3.107-20.374,7.251-20.72c4.145-0.344,5.18,1.036,5.525,5.87
		c0.346,4.836,4.834,14.159,11.049,15.886c6.216,1.728,12.432,1.381,16.231-3.799c3.798-5.181,5.179-12.88,5.179-21.461
		s-1.726-15.487-2.071-17.904c-0.345-2.417-0.346-2.417-0.346-2.417s9.668,2.762,20.719-5.18c11.049-7.942,8.287-12.548,0-20.95
		c-8.287-8.401-21.754-13.58-21.754-13.58s14.156-9.407,17.265-18.69c3.107-9.279,7.597-13.77-2.417-16.877
		s-19.683-0.689-26.934,8.979c-7.252,9.67-11.005,15.836-11.005,15.836"/>
	<path fill="none" stroke="#000000" stroke-width="4.5027" stroke-miterlimit="10" d="M325.05,503.985c0,0,7.596-4.489,3.798-12.086
		c-3.798-7.598-5.844-12.432-1.367-11.051c4.477,1.382,4.477,4.486,11.726,1.555c7.252-2.936,12.432-2.244,15.193-6.733
		c2.765-4.49,6.218-2.417,5.872,0c-0.347,2.417-3.8,9.095-1.727,12.835c2.072,3.74,4.834,8.919,9.323,9.61
		c4.489,0.689,6.216,3.798,0,5.87c-6.217,2.07-6.906,3.106-10.016,6.561c-3.107,3.453-4.709,14.848-9.434,8.287
		c-4.722-6.562-4.722-9.668-10.594-6.906c-5.868,2.763-10.245,6.084-12.893,4.942C322.287,515.726,317.452,511.236,325.05,503.985z"
		/>
	<path fill="none" stroke="#000000" stroke-width="4.5027" stroke-miterlimit="10" d="M325.619,480.704
		c0,0-2.987-13.321-2.642-20.572c0.346-7.253,3.799-18.303,11.74-22.79c7.941-4.49,11.74-7.942,17.267,0
		c5.524,7.94,10.359,10.321,9.321,19.662c-1.034,9.342-5.906,17.35-5.906,17.35"/>
	<path fill="none" stroke="#000000" stroke-width="4.5027" stroke-miterlimit="10" d="M352.675,520.832
		c0,0,3.451,29.769,16.574,34.604c13.122,4.834,22.444,7.211,28.315,3.432c5.868-3.776,9.321-9.993,5.18-21.733
		c-4.146-11.739-2.764-20.718-14.158-29.351c-11.394-8.633-16.764-7.424-16.764-7.424"/>
	<path fill="none" stroke="#000000" stroke-width="4.5027" stroke-miterlimit="10" d="M324.15,473.025c0,0-4.626-1.955-15.676,0
		c-11.05,1.953-15.194,1.953-19.683,2.989c-4.488,1.036-12.775-1.382-8.631,7.598c4.144,8.978,8.287,14.156,8.287,18.301
		c0,4.144-2.385,15.739,7.439,18.919"/>
	
		<line fill="none" stroke="#000000" stroke-width="4.5027" stroke-miterlimit="10" x1="320.965" y1="520.354" x2="324.933" y2="516.869"/>
	<path fill="none" stroke="#000000" stroke-width="4.5027" stroke-miterlimit="10" d="M359.954,545.94
		c0,0-3.136,19.163-11.423,25.033c-8.287,5.87-17.919,9.842-17.919,9.842"/>
	<path fill="none" stroke="#000000" stroke-width="4.5027" stroke-miterlimit="10" d="M359.954,463.624
		c0,0,8.006-5.219,18.665-4.185c10.658,1.036,26.887,4.38,27.578,13.586c0.688,9.205,3.106,13.349-3.453,19.22
		c-6.562,5.87-11.396,12.142-19.165,12.112"/>
	<path fill="none" stroke="#000000" stroke-width="4.5027" stroke-miterlimit="10" d="M344.198,510.107
		c0,0-10.64-0.486-11.181-9.723s3.965-17.045,11.181-15.371c7.214,1.675,13.165,1.114,13.707,9.48
		C358.448,502.858,355.379,519.831,344.198,510.107z"/>
	<path fill="none" stroke="#000000" stroke-width="4.5027" stroke-miterlimit="10" d="M332.671,438.738
		c0,0-9.348-7.251-5.895-11.576c3.453-4.324,7.941-6.201,11.049-2.674c3.107,3.528,5.186,9.367,5.186,9.367"/>
	<path fill="none" stroke="#000000" stroke-width="4.5027" stroke-miterlimit="10" d="M356.693,443.405c0,0,7.375-2.957,7.722-8.138
		c0.344-5.18-0.815-7.579-3.861-8.105c-3.045-0.526-4.329-0.751-3.86-6.163c0.471-5.413-0.222-8.871-4.019-8.868
		c-3.8,0.002-5.46-1.502-7.392,5.466c-1.933,6.969,0,15.002,0,15.002"/>
	<path fill="none" stroke="#000000" stroke-width="4.5027" stroke-miterlimit="10" d="M361.446,452.535c0,0,8.839-3.036,8.839,6.77"
		/>
	<path fill="none" stroke="#000000" stroke-width="4.5027" stroke-miterlimit="10" d="M320.965,462.713
		c0,0-11.405-4.223-19.372-18.077c-7.966-13.855-11.942-20.984-6.848-23.637c5.098-2.65,13.039-4.198,19.6-1.524
		s12.432,7.688,12.432,7.688"/>
	<path fill="none" stroke="#000000" stroke-width="4.5027" stroke-miterlimit="10" d="M348.637,412.131
		c0,0-4.865-11.091,2.348-20.219c7.214-9.131,11.499-14.452,20.925-14.552c9.426-0.104,19.784,2.433,14.95,12.215
		s-5.87,15.031-11.74,22.421c-5.87,7.389-14.565,15.166-14.565,15.166"/>
	<path fill="none" stroke="#000000" stroke-width="4.5027" stroke-miterlimit="10" d="M312.888,418.961c0,0-1.996-6.49-5.794-13.394
		c-3.798-6.901-4.489-10.644-3.798-18.96c0.689-8.313,1.92-9.784,9.592-7.321c7.673,2.461,10.166,0.233,17.725,5.146
		c7.559,4.91,16.383,11.764,16.418,15.959"/>
	<path fill="none" stroke="#000000" stroke-width="4.5027" stroke-miterlimit="10" d="M373.665,413.755
		c0,0,19.755,1.058,24.935,12.492c5.181,11.438,12.086,12.734,0,21.237c-12.085,8.502-21.401,11.863-21.401,11.863"/>
	<path fill="none" stroke="#000000" stroke-width="4.5027" stroke-miterlimit="10" d="M412.412,473.025
		c0,0,7.941-5.704,10.704-9.303c2.763-3.592,3.886,0.809,7.468,3.616c3.582,2.806,9.452,2.694,13.596,5.687
		c4.146,2.989,8.635,9.787,4.49,8.806c-4.144-0.981-12.431-8.925-10.014-4.089c2.417,4.834,3.797,7.661-0.69,9.527
		c-4.49,1.866-3.021-2.276-7.382-3.657c-4.358-1.382-5.396,0.323-5.051,4.133c0.346,3.809-3.825,7.952-6.058,2.428
		c-2.229-5.524-4.646-4.837-7.063-7.77C409.995,479.469,406.699,477.474,412.412,473.025z"/>
	<path fill="none" stroke="#000000" stroke-width="4.5027" stroke-miterlimit="10" d="M434.192,457.004c0,0,1.01,2.721,7.227,6.72
		c6.214,4.005,14.271,10.968,20.084,16.98c5.813,6.016,14.101,10.733,12.028,19.596c-2.071,8.865,1.147,12.566-12.028,18.312
		c-13.178,5.747-24.175,5.612-27.311-1.743c-3.135-7.359-7.312-18.763-10.229-24.803"/>
	<path fill="none" stroke="#000000" stroke-width="4.5027" stroke-miterlimit="10" d="M405.315,547.494c0,0,8.104,4.834,14.16,0
		c6.058-4.834,11.21-10.812,12.964-20.718c1.753-9.907,0.871-12.021,0.871-12.021"/>
	<path fill="none" stroke="#000000" stroke-width="4.5027" stroke-miterlimit="10" d="M405.315,469.973
		c0,0,14.877-10.074,18.238-14.275"/>
	<path fill="none" stroke="#000000" stroke-width="4.5027" stroke-miterlimit="10" d="M412.288,435.037
		c0,0-2.536-3.739-10.186-2.444"/>
	<path fill="none" stroke="#000000" stroke-width="4.5027" stroke-miterlimit="10" d="M394.551,420.999c0,0-0.095-8.954,5.431-10.29
		c5.524-1.338,6.867-2.423,5.335-6.714c-1.536-4.293,1.879-9.608,1.879-9.608"/>
	<path fill="none" stroke="#000000" stroke-width="4.5027" stroke-miterlimit="10" d="M324.933,587.016c0,0,0.537,6.06,5.68,6.749
		c5.142,0.69,9.976-1.727,9.285,3.453c-0.691,5.181,5.18,6.794,9.668,3.569c4.489-3.225,7.599-3.704,7.599-14.341
		c0-10.639-2.715-23.091-2.715-23.091"/>
	<path fill="none" stroke="#000000" stroke-width="4.5027" stroke-miterlimit="10" d="M496.327,299.471
		c0,0,6.556-17.518,13.116-14.065c6.561,3.454,10.703,7.597,8.978,17.957c-1.727,10.358-6.493,34.111-6.493,34.111"/>
	<path fill="none" stroke="#000000" stroke-width="4.5027" stroke-miterlimit="10" d="M558.067,305.838
		c-2.827-6.499-9.949-8.001-15.54-4.548c-5.589,3.453-2.354,28.962-2.354,28.962l0.692,2.658"/>
	<path fill="none" stroke="#000000" stroke-width="4.5027" stroke-miterlimit="10" d="M518.815,294.729c0,0,3.404-6.907,5.476-9.324
		c2.073-2.417,3.8-4.489,9.323,2.763c5.525,7.25,10.703,10.672,8.913,13.121"/>
	<path fill="none" stroke="#000000" stroke-width="4.5027" stroke-miterlimit="10" d="M476.239,489.843c0,0,7.997-0.359,7.997-6.229
		s0.27-9.323,3.933-8.979c3.664,0.347,4.688,2.819,5.212,6.07c0.523,3.253,0.869,5.39,5.014,6.565
		c4.144,1.177,10.014,0.66,6.216,5.579c-3.8,4.92-11.961,6.646-7.535,9.409c4.427,2.762,5.149,8.632-1.599,7.598
		c-6.752-1.036-7.097-3.557-11.239,0.121c-4.145,3.677-10.812,2.295-7.997-3.229c2.816-5.524,2.41-8.255,0-8.632
		c-2.408-0.378-2.408-0.378-2.408-0.378s-1.238-5.86-3.041-7.896C470.79,489.843,474.105,490.173,476.239,489.843z"/>
	<path fill="none" stroke="#000000" stroke-width="4.5027" stroke-miterlimit="10" d="M421.331,545.94
		c0,0,9.728,15.321,16.979,17.415c7.251,2.095,12.501,1.059,19.028,6.582c6.525,5.525,15.85,15.543,20.338,10.878
		c4.488-4.661,5.87-8.46,0-13.64c-5.871-5.18-11.74-11.587-17.611-17.536c-5.868-5.945-8.287-11.673-15.885-17.442
		c-7.597-5.769-11.395-7.494-11.395-7.494"/>
	<path fill="none" stroke="#000000" stroke-width="4.5027" stroke-miterlimit="10" d="M356.419,575.429
		c0,0,8.539,5.262,17.246,1.438c8.706-3.819,14.269-13.941,14.422-16.131"/>
	<path fill="none" stroke="#000000" stroke-width="4.5027" stroke-miterlimit="10" d="M449.829,469.973
		c0,0,11.384-2.937,11.674-8.807c0.288-5.87,1.67-5.194-2.129-10.884c-3.798-5.69-7.921-6.877-7.921-6.877"/>
	<path fill="none" stroke="#000000" stroke-width="4.5027" stroke-miterlimit="10" d="M488.169,474.634
		c0,0,8.876-22.642,17.665-22.542c8.789,0.099,20.184,3.089,25.018,10.742c4.836,7.656,5.872,22.188-3.45,27.009
		c-9.323,4.819-22.791,3.007-22.791,3.007"/>
	<path fill="none" stroke="#000000" stroke-width="4.5027" stroke-miterlimit="10" d="M461.503,453.905
		c0,0,20.935,8.84,26.666,19.12"/>
	
		<line fill="none" stroke="#000000" stroke-width="4.5027" stroke-miterlimit="10" x1="440.383" y1="522.681" x2="440.383" y2="529.419"/>
	<path fill="none" stroke="#000000" stroke-width="4.5027" stroke-miterlimit="10" d="M455.907,544.879
		c0,0,7.956,0.542,11.754-3.255c3.799-3.798,10.877-20.175,11.481-29.598"/>
	<path fill="none" stroke="#000000" stroke-width="4.5027" stroke-miterlimit="10" d="M497.074,509.958
		c0,0,13.75,35.804,10.297,43.403c-3.453,7.599-9.814,10.317-15.438,9.994c-5.625-0.322-19.737,0.713-21.143-7.574
		c-1.402-8.287-0.682-17.541-0.682-17.541"/>
	<path fill="none" stroke="#000000" stroke-width="4.5027" stroke-miterlimit="10" d="M526.31,490.346
		c0,0,17.071-2.245,26.521,11.223c9.446,13.467,12.014,16.021,2.099,13.188c-9.917-2.83-11.299-10.081-18.55-7.317
		c-7.251,2.762-9.324,9.449-15.193,8.352c-5.87-1.101-7.463-16.118-4.594-22.94"/>
	<path fill="none" stroke="#000000" stroke-width="4.5027" stroke-miterlimit="10" d="M507.371,553.361
		c0,0,7.941,14.506,16.576,12.089c8.631-2.417,14.848-6.216,12.775-17.268c-2.071-11.05-3.723-26.107-10.668-33.427"/>
	<path fill="none" stroke="#000000" stroke-width="4.5027" stroke-miterlimit="10" d="M547.508,496.014
		c0,0,24.797-10.675,33.94-4.46c9.143,6.216,14.678,15.539,14.153,27.279c-0.523,11.74,0.124,16.225-8.485,21.407
		c-8.611,5.181-23.114,4.831-29.675,0c0,0-5.342-2.006-11.478-5.021"/>
	<path fill="none" stroke="#000000" stroke-width="4.5027" stroke-miterlimit="10" d="M549.742,512.55
		c0,0,7.451,10.356,3.087,15.918c-4.365,5.56-8.854,10.881-12.998,3.729c-4.144-7.148,0.458-10.863-2.706-15.394
		c-3.164-4.531-5.209-6.847-5.209-6.847"/>
	<path fill="none" stroke="#000000" stroke-width="4.5027" stroke-miterlimit="10" d="M537.125,543.998c0,0,0.612-7.436,4.076-9.912
		"/>
	<path fill="none" stroke="#000000" stroke-width="4.5027" stroke-miterlimit="10" d="M244.249,463.724c0,0-5.872-1.064-7.943-8.026
		c-2.072-6.961-3.799-4.889-8.977-9.725c-5.18-4.834-6.907-10.936-6.907-10.936s8.978,5.309,11.914,5.359
		c0,0,0.759-12.949,2.366-19.397c1.604-6.448,1.604-6.448,1.604-6.448s1.381,18.683,5.179,24.188
		c3.799,5.508,7.252,13.905,6.906,16.958C248.046,458.749,251.844,464.212,244.249,463.724z"/>
	<path fill="none" stroke="#000000" stroke-width="4.5027" stroke-miterlimit="10" d="M281.958,476.662l-5.406-14.289
		c0,0-0.882,1.212-2.955,9.785c-2.071,8.568-2.071,18.015-1.38,26.302c0.692,8.287-5.526,21.896-5.526,21.896
		s-1.035,6.691,4.835,5.692c5.87-0.999,13.342-9.076,15.303-29.555"/>
	<path fill="none" stroke="#000000" stroke-width="4.5027" stroke-miterlimit="10" d="M125.808,597.908
		c0,0-3.107-5.314-1.381-11.462c1.727-6.148,3.274-11.444,0.428-19.156c-2.847-7.71-6.644-16.337-6.644-22.384
		c0-6.046,0-6.046,0-6.046s17.956,13.964,16.574,30.637c0,0,5.18-9.923,8.289-16.136c3.107-6.214,13.467-21.135,14.848-27.313
		c1.38-6.179,1.38-6.179,1.38-6.179s4.144,23.821,0,33.492c-4.144,9.672-10.359,20.768-12.431,23.505
		c-2.072,2.741-2.072,2.741-2.072,2.741s-0.576,10.358-5.123,14.156C135.129,597.562,132.714,602.052,125.808,597.908z"/>
	<path fill="none" stroke="#000000" stroke-width="4.5027" stroke-miterlimit="10" d="M175.532,578.112c0,0-3.453-4.225-4.49-8.615
		c-1.035-4.394-1.727-7.541-3.799-10.63c-2.071-3.086-6.099-20.697-6.099-20.697c-0.184-3.469-0.184-3.469-0.184-3.469
		s5.938-0.675,9.735,5.195c3.799,5.87,6.562,13.116,6.906,13.465c0.346,0.349,2.763-1.027,3.107-8.455
		c0.346-7.426,4.491-18.822,7.943-25.037c3.453-6.216,3.453-6.216,3.453-6.216s2.071,19.683,0,27.279c0,0,9.669-4.144,14.849-2.072
		c0,0-3.799,7.061-5.872,10.779c-2.071,3.725-8.287,16.997-12.085,19.856C185.201,572.355,181.056,579.379,175.532,578.112z"/>
	<path fill="none" stroke="#000000" stroke-width="4.5027" stroke-miterlimit="10" d="M149.979,607.231
		c0,0,8.633-1.624,14.157-4.782c5.526-3.159,17.957-10.411,22.446-12.482c4.488-2.072,11.049-6.559,20.374-7.252
		c9.322-0.689,9.322-0.689,9.322-0.689s-1.38,5.869-4.142,7.941c0,0,11.74,1.381,15.882,1.381c0,0-9.667,6.764-17.264,8.218
		c-7.597,1.45-7.597,1.45-7.597,1.45s8.287,2.418,11.395,6.217c0,0-6.906,3.108-15.882,2.071c-8.979-1.036-24.863-0.614-30.387,0.21
		C162.755,610.341,150.669,613.447,149.979,607.231z"/>
	<path fill="none" stroke="#000000" stroke-width="4.5027" stroke-miterlimit="10" d="M266.623,522.681
		c0,0-15.813,19.325-22.374,23.278c-6.562,3.952-31.769,10.061-34.532,14.776c-2.761,4.715-28.77,16.131-28.77,16.131"/>
	<path fill="none" stroke="#000000" stroke-width="4.5027" stroke-miterlimit="10" d="M172.98,574.255
		c0,0-19.386,13.181-31.725,17.727"/>
	<path fill="none" stroke="#000000" stroke-width="4.5027" stroke-miterlimit="10" d="M125.808,597.908
		c0,0-14.503,5.87-22.791,6.561c-8.288,0.691-38.33,3.783-46.617,6.553c-8.287,2.771-19.682,2.771-20.719,7.606
		c-1.035,4.833-2.417,12.774,2.072,11.394c4.49-1.38,15.885-3.105,20.719-2.761s18.636-2.419,21.749-3.453
		c3.113-1.036,25.559-1.727,35.227-5.18c9.668-3.454,34.531-11.396,34.531-11.396"/>
	
		<line fill="none" stroke="#000000" stroke-width="4.5027" stroke-miterlimit="10" x1="212.135" y1="589.967" x2="225.965" y2="584.825"/>
	<path fill="none" stroke="#000000" stroke-width="4.5027" stroke-miterlimit="10" d="M148.021,483.612
		c0,0,14.734,3.562,22.562-1.209c7.825-4.775,5.576-6.615,13.376-6.156c7.804,0.459,12.409,1.023,13.328-4.089
		c0.919-5.122-1.383-7.543-6.448-9.785c-5.062-2.241-9.935-4.815-17.858-5.369c-7.924-0.553-14.83-8.354-18.974-9.52
		s-12.89-3.373-7.826,2.798c5.063,6.169,11.969,10.938,6.443,15.229C147.1,469.8,134.208,477.623,148.021,483.612z"/>
	<path fill="none" stroke="#000000" stroke-width="4.5027" stroke-miterlimit="10" d="M252.113,539.043c0,0-4.18-4.181-10.629-4.023
		c-6.446,0.162-7.062,1.884-6.754-4.503c0.308-6.385-0.151-15.384-4.756-13.646s-8.975,5.946-9.552,10.977
		c-0.577,5.032-1.958,9.779-5.642,7.175c-3.683-2.602-4.602-9.523-7.825-5.602c-3.225,3.917-3.225,7.252-3.225,7.252"/>
	<path fill="none" stroke="#000000" stroke-width="4.5027" stroke-miterlimit="10" d="M272.077,496.493
		c0,0-10.714-12.304-19.963-2.231c-9.247,10.068-17.181,20.79-17.412,24.352"/>
	<path fill="none" stroke="#000000" stroke-width="4.5027" stroke-miterlimit="10" d="M209.469,528.468
		c0,0-5.279-11.502-8.963-18.51c-3.682-7.009-4.604-19.1,0-27.555c4.605-8.46,8.29-17.102,16.117-10.245
		c7.827,6.852,17.279,8.29,18.078,20.69c0.797,12.404,0.571,23.799,0.571,23.799"/>
	<path fill="none" stroke="#000000" stroke-width="4.5027" stroke-miterlimit="10" d="M182.853,534.086
		c0,0-7.197-17.589-1.907-22.06c5.29-4.472,10.807-9.481,17.486-7.669"/>
	<path fill="none" stroke="#000000" stroke-width="4.5027" stroke-miterlimit="10" d="M258.359,489.611c0,0-2-9.275,0-15.002
		c2.002-5.729-0.812-16.131,5.659-17.605c6.473-1.475,17.976,0.089,22.812,2.301c4.837,2.208,15.364,8.846,25.065-2.301"/>
	<path fill="none" stroke="#000000" stroke-width="4.5027" stroke-miterlimit="10" d="M157.117,443.022c0,0-10.591,1.12-17.44-2.625
		c-6.85-3.746-13.062-4.677-21.465-5.36c-8.403-0.687-17.611-4.278-22.216-9.388s-4.605-5.109-4.605-5.109s9.671,1.208,17.498,1.984
		c7.826,0.775,19.796,5.429,26.703,8.167C142.496,433.43,153.082,434.2,157.117,443.022z"/>
	<path fill="none" stroke="#000000" stroke-width="4.5027" stroke-miterlimit="10" d="M157.117,443.022
		c0,0,1.495-7.755-2.649-12.331c-4.145-4.579-2.763-11.533-4.489-19.982s-15.31-27.004-19.915-39.964
		c-4.605-12.957-5.81-23.411-5.81-23.411s-6.621,7.365-7.541,19.686c-0.919,12.32,1.382,24.052,7.541,31.564
		c6.159,7.512,12.716,20.377,12.716,20.377l2.067,12.898"/>
	<path fill="none" stroke="#000000" stroke-width="4.5027" stroke-miterlimit="10" d="M97.837,420.999
		c0,0-15.657-12.453-17.498-19.117c-1.839-6.668-0.461-17.715,0-21.397c0,0,10.591,17.757,17.498,24.529
		c6.905,6.774,18.681,19.027,18.681,19.027"/>
	<path fill="none" stroke="#000000" stroke-width="4.5027" stroke-miterlimit="10" d="M127.807,427.698
		c0,0-5.957-11.076-11.289-18.327c-5.33-7.252-9.011-12.086-10.394-19.796s-1.382-7.71-1.382-7.71s9.265,0.543,15.472,10.047"/>
	<path fill="none" stroke="#000000" stroke-width="4.5027" stroke-miterlimit="10" d="M87.643,391.912v-5.305
		c0,0,7.432,7.228,12.496,11.143c5.064,3.911,16.379,11.621,16.379,11.621"/>
	<path fill="none" stroke="#000000" stroke-width="4.5027" stroke-miterlimit="10" d="M158.911,450.282l-1.532-11.544
		c0,0,4.453-3.005,8.138-4.883c3.686-1.878,2.301-7.333,4.148-11.213c1.844-3.882,9.665-0.723,11.282,2.875
		c1.615,3.604,3.909,5.606,7.772,8.158c3.862,2.552,5.344,3.438,3.477,6.722c-1.867,3.282-2.278,4.081-0.434,9.885
		c1.841,5.803-2.763,11.266-2.763,11.266"/>
	<path fill="none" stroke="#000000" stroke-width="4.5027" stroke-miterlimit="10" d="M276.726,456.427
		c0,0-0.299-7.491-4.649-13.403c-4.348-5.908-6.651-14.594-2.508-20.38c4.144-5.787,7.283-8.26,12.39-0.118
		c5.106,8.142,7.868,16.916,6.947,24.96c-0.92,8.045-2.076,11.819-2.076,11.819"/>
	<path fill="none" stroke="#000000" stroke-width="4.5027" stroke-miterlimit="10" d="M295.607,433.855
		c0,0-0.827,9.778-6.525,12.273"/>
	<path fill="none" stroke="#000000" stroke-width="4.5027" stroke-miterlimit="10" d="M143.749,473.025
		c0,0-8.731-1.958-19.495-3.054c-10.764-1.091-12.605,1.175-19.512,7.64c-6.905,6.464-16.833,16.521-2.662,27.146
		c14.17,10.623,17.855,16.375,32.588,8.896c0,0,13.658-7.554,19.491-16.727"/>
	<path fill="none" stroke="#000000" stroke-width="4.5027" stroke-miterlimit="10" d="M192.999,476.323c0,0,7.226,10.537,0,13.288
		c-7.223,2.751-14.581,2.229-12.052,6.401c2.528,4.173,2.074,12.46-5.758,12.001c-7.831-0.459-10.594-1.628-11.975-4.958
		c-1.382-3.329-0.224-7.547-6.097-6.129c-5.873,1.419-12.783-5.952-9.096-13.314"/>
	<path fill="none" stroke="#000000" stroke-width="4.5027" stroke-miterlimit="10" d="M146.987,545.94c0,0-6.791,1.661-11.857-5.7
		c-5.065-7.362-8.662-12.213-7.323-23.83"/>
	<path fill="none" stroke="#000000" stroke-width="4.5027" stroke-miterlimit="10" d="M169.665,508.034
		c0,0-0.425,15.51-3.688,26.052"/>
	<path fill="none" stroke="#000000" stroke-width="4.5027" stroke-miterlimit="10" d="M124.254,469.973
		c0,0-13.527-7.809-14.909-12.969c-1.381-5.161-0.566-13.186,11.051-20.451"/>
	<path fill="none" stroke="#000000" stroke-width="4.5027" stroke-miterlimit="10" d="M150.22,412.131
		c0,0,25.886-13.864,35.555-13.547c9.668,0.314,9.844,5.245,7.223,9.456c-2.619,4.213-8.554,17.986-9.041,21.92"/>
	<path fill="none" stroke="#000000" stroke-width="4.5027" stroke-miterlimit="10" d="M191.762,450.282c0,0,27.2-1.013,36.159,6.722
		c8.96,7.734,24.293,16.734,29.748,27.887"/>
	<path fill="none" stroke="#000000" stroke-width="4.5027" stroke-miterlimit="10" d="M252.113,494.262
		c0,0-5.8-15.258-20.646-10.648"/>
	<path fill="none" stroke="#000000" stroke-width="4.5027" stroke-miterlimit="10" d="M191.531,410.709
		c0,0,30.192-8.951,36.389-3.016c6.197,5.939,6.781,9.622,6.781,9.622"/>
	<path fill="none" stroke="#000000" stroke-width="4.5027" stroke-miterlimit="10" d="M215.89,452.092c0,0,6.431-0.542,11.438-6.119
		"/>
	<path fill="none" stroke="#000000" stroke-width="4.5027" stroke-miterlimit="10" d="M230.779,410.709
		c0,0,11.708-8.951,21.334-3.016c9.63,5.939,19.963,11.268,19.963,11.268"/>
	<path fill="none" stroke="#000000" stroke-width="4.5027" stroke-miterlimit="10" d="M266.623,455.696c0,0,7.972-8.45,5.454-12.674
		"/>
	<path fill="none" stroke="#000000" stroke-width="4.5027" stroke-miterlimit="10" d="M247.283,463.465c0,0,7.712,8.96,8.473,14.146
		"/>
</g>
<g>
	<path fill="none" stroke="#000000" stroke-width="3.9092" stroke-miterlimit="10" d="M797.74,184.664c0,0-1.698-1.275-3.827-8.08
		c-2.128-6.805-0.854-4.254-5.956-4.679c-5.104-0.425-10.205-4.252-5.527-7.229c4.679-2.979,0.565-2.977-1.845-6.38
		c-2.41-3.403-10.067-10.208-2.836-11.91c7.231-1.701,14.888-1.276,19.991,3.828s6.806,8.884,6.38,14.863
		S803.697,187.216,797.74,184.664z"/>
	<path fill="none" stroke="#000000" stroke-width="3.9092" stroke-miterlimit="10" d="M774.717,148.088
		c0,0-14.828-5.53-25.461,2.125c-10.634,7.656-20.416,11.483-19.564,17.863c0.85,6.38-0.425,20.415,6.806,25.519
		c7.229,5.104,22.538,10.207,27.218,11.483c4.682,1.276,16.164,8.505,23.819,0c7.656-8.506,10.207-20.416,10.207-20.416"/>
	<path fill="none" stroke="#000000" stroke-width="3.9092" stroke-miterlimit="10" d="M804.182,160.848
		c0,0,12.271-0.426,16.101-5.53c3.827-5.104,7.23-3.828,6.807-12.76c-0.427-8.932-2.979-8.082-2.979-16.587
		c0-8.506,2.979-14.885,0-20.84s-6.806-7.656-13.186-3.828c-6.38,3.828-12.331,7.23-15.733,6.38
		c-3.404-0.852-6.383-6.805-14.889-5.104s-12.81,6.38-16.612,11.483c-3.803,5.104-4.704,8.589,0,15.991
		c4.706,7.401,5.13,16.104,5.13,16.104"/>
	<path fill="none" stroke="#000000" stroke-width="3.9092" stroke-miterlimit="10" d="M793.806,195.541
		c0,0-1.169,7.413,8.612,16.344c9.781,8.931,12.76,11.907,20.416,11.058c7.655-0.85,9.356-2.552,6.806-11.909
		c-2.552-9.356-5.956-13.184-7.231-17.863c-1.276-4.679-0.85-5.955-0.85-13.61s-7.653-12.38-17.438-14.484"/>
	<path fill="none" stroke="#000000" stroke-width="3.9092" stroke-miterlimit="10" d="M816.453,99.26
		c0.05,0.025,0.003-34.107,3.404-45.166c3.401-11.059,7.268-21.69,7.268-21.69s2.175,48.059,3.62,59.542
		c1.445,11.483-2.186,33.002-5.898,40.319"/>
	<path fill="none" stroke="#000000" stroke-width="3.9092" stroke-miterlimit="10" d="M821.866,153.498c0,0-1.51,9.903,5.259,7.35
		c6.769-2.554,6.769-2.221,11.446-15.359c4.677-13.138,10.209-29.3,18.289-34.404c8.079-5.104,8.079-5.104,8.079-5.104
		s-8.504-5.104-15.735,0s-14.038,15.736-16.163,21.691s-5.953,14.886-5.953,14.886"/>
	<path fill="none" stroke="#000000" stroke-width="3.9092" stroke-miterlimit="10" d="M830.745,91.946c0,0,4-11.057,10.804-22.116
		c6.803-11.059,19.562-30.623,23.392-35.726c3.828-5.103,3.827-5.104,3.827-5.104s-1.702,10.632-3.827,17.863
		c-2.126,7.23-6.382,19.14-9.782,25.094c-3.401,5.954-6.601,28.323-7.766,35.427"/>
	<path fill="none" stroke="#000000" stroke-width="3.9092" stroke-miterlimit="10" d="M836.275,151.778c0,0,3.731-2.022,7.055-5.621
		c3.321-3.599,4.854-3.632,6.427,0c1.573,3.632,13.479,11.287,19.011,12.137c5.528,0.852,11.483,1.276,5.528-5.104
		c-5.952-6.379-18.288-11.482-9.355-13.609c8.931-2.127,13.885-7.574,11.835-9.528c-2.053-1.955-0.778-7.484-8.008-5.783
		c-7.229,1.701-8.506,2.551-8.506-2.979c0-5.529-0.893-11.793-0.893-11.793"/>
	<path fill="none" stroke="#000000" stroke-width="3.9092" stroke-miterlimit="10" d="M861.538,103.712
		c0,0,1.277-12.616,9.356-17.294c8.079-4.679,20.416-10.633,26.795-9.356c6.379,1.276,10.207,3.935,8.932,13.238
		c-1.276,9.303-0.854,25.04-9.784,30.569c-8.931,5.528-20.062,9.186-20.062,9.186"/>
	<path fill="none" stroke="#000000" stroke-width="3.9092" stroke-miterlimit="10" d="M855.157,71.958
		c0,0,10.206-11.483,13.609-8.932c3.403,2.552,2.127,17.437,2.127,23.392"/>
	<path fill="none" stroke="#000000" stroke-width="3.9092" stroke-miterlimit="10" d="M876.749,156.968
		c0,0,6.903,4.683,11.157,8.108c4.254,3.426,11.06,8.954,21.267,5.978c10.207-2.977,12.333-1.804,9.782-14.086
		c-2.553-12.283,0.002-18.494-7.23-22.832c-7.231-4.338-9.425-6.264-22.574-9.128"/>
	<path fill="none" stroke="#000000" stroke-width="3.9092" stroke-miterlimit="10" d="M807.521,227.62c0,0-4.675-3.404-9.781-9.358
		c-5.105-5.954-10.209-8.079-10.209-3.401c0,4.677,3.952,11.483,6.229,12.759c2.277,1.275,2.71,2.552-4.312,4.253
		c-7.023,1.701-14.255,4.678-8.299,8.931c5.955,4.253,7.999,6.381,12.082,4.679c4.08-1.702,5.785-0.426,4.507,4.254
		c-1.277,4.677-5.103,12.333,0,11.483c5.102-0.853,6.806-2.981,9.781-8.508c2.977-5.528,11.483-4.678,11.058-11.483
		c-0.426-6.804-2.521-10.353,0.016-18.148c0,0-5.391-1.615-9.229-4.989C809.364,218.092,811.25,230.742,807.521,227.62z"/>
	<path fill="none" stroke="#000000" stroke-width="3.9092" stroke-miterlimit="10" d="M827.125,203.771
		c0,0,14.419-1.236,20.374,8.541c5.957,9.778,14.891,17.008,7.658,27.216c-7.231,10.209-25.491,14.46-36.562,4.679"/>
	<path fill="none" stroke="#000000" stroke-width="3.9092" stroke-miterlimit="10" d="M778.942,238.677
		c0,0-17.779,5.105-29.264-7.229c-11.482-12.334-12.175-22.842-8.426-35.026"/>
	<path fill="none" stroke="#000000" stroke-width="3.9092" stroke-miterlimit="10" d="M797.74,249.737
		c0,0-12.762,3.531-11.485,11.548c1.276,8.014,2.558,19.921,11.485,27.153c8.93,7.232,25.596,17.863,29.385,13.612
		c3.788-4.253,8.038-15.616,6.34-25.673c-1.7-10.053-12.649-23.915-21.21-27.832"/>
	<path fill="none" stroke="#000000" stroke-width="3.9092" stroke-miterlimit="10" d="M763.688,239.724
		c0,0-11.882,12.139-14.858,18.519c-2.978,6.38-13.185,26.792,0,30.196c13.184,3.405,23.227,7.23,30.113,0
		c6.889-7.229,10.508-12.353,10.508-12.353"/>
	<path fill="none" stroke="#000000" stroke-width="3.9092" stroke-miterlimit="10" d="M823.763,196.422
		c0,0,7.463-3.252,7.308-15.587c0,0,2.485-1.701,5.206,0c2.718,1.702,10.114,4.28,7.055-3.175
		c-3.062-7.457-6.888-12.981-3.062-16.812c3.828-3.831,9.487-14.691,9.487-14.691"/>
	<path fill="none" stroke="#000000" stroke-width="3.9092" stroke-miterlimit="10" d="M849.757,215.757
		c0,0,10.081-12.802,11.781-17.481c1.698-4.679,13.411-8.385,15.211-1.854c1.799,6.532-7.558,28.554-9.685,30.302"/>
	<path fill="none" stroke="#000000" stroke-width="3.9092" stroke-miterlimit="10" d="M836.275,249.727
		c0,0-5.195,16.173,1.95,23.829c7.147,7.655,12.087,11.262,11.53,2.228c-0.555-9.034-4.036-13.711,0.043-18.815
		c4.08-5.104,4.024-15.783,4.024-15.783"/>
	<path fill="none" stroke="#000000" stroke-width="3.9092" stroke-miterlimit="10" d="M859.835,258.596
		c0,0,2.976,22.187,11.907,25.165c8.933,2.978,18.292,8.505,19.992,0c1.697-8.506,4.251-20.417-2.979-27.221
		c-7.229-6.803-15.312-10.548-15.312-10.548l-2.979,0.342"/>
	<path fill="none" stroke="#000000" stroke-width="3.9092" stroke-miterlimit="10" d="M857.859,233.151c0,0,5.637,0.064,5.507,3.647
		s2.422,2.268,4.975,2.925c2.552,0.658,5.953,3.634,2.125,6.611c-3.827,2.979-8.503,5.53-8.928,8.506
		c-0.427,2.978-1.484,5.106-4.783,3.404c-3.299-1.702-3.647-9.7-3.647-9.7"/>
	<path fill="none" stroke="#000000" stroke-width="3.9092" stroke-miterlimit="10" d="M849.757,278.149
		c0,0,9.485,4.966,14.886-2.365"/>
	<path fill="none" stroke="#000000" stroke-width="3.9092" stroke-miterlimit="10" d="M890.697,258.851
		c0,0,8.691-11.278,12.521-19.127c3.827-7.848,11.061-20.567,0-21.651c-11.06-1.083-18.871-5.275-26.469,0
		c-7.599,5.276-14.257,13.227-14.103,15.078"/>
	<path fill="none" stroke="#000000" stroke-width="3.9092" stroke-miterlimit="10" d="M840.218,206.039c0,0,2.603-5.211,6.007-5.211
		c3.403,0,2.812-2.438,3.532-6.749c0.72-4.31,0.186-9.413,4.067-11.115c3.884-1.702,10.616,0.12,8.952,13.457"/>
	<path fill="none" stroke="#000000" stroke-width="3.9092" stroke-miterlimit="10" d="M842.037,158.774c0,0,7.426,7.22,7.72,12.516
		c0.295,5.295,1.869,11.14,1.869,11.14"/>
	<path fill="none" stroke="#000000" stroke-width="3.9092" stroke-miterlimit="10" d="M892.172,168.257
		c2.99,7.833-0.438,16.833-3.842,25.977c-3.405,9.144-10.208-2.764-20.415-11.804s-6.377-23.656-6.377-23.656l1.828-2.38"/>
	<path fill="none" stroke="#000000" stroke-width="3.9092" stroke-miterlimit="10" d="M891.315,216.091
		c0,0,5.568-16.54-1.049-27.172"/>
	<path fill="none" stroke="#000000" stroke-width="3.9092" stroke-miterlimit="10" d="M860.832,161.269c0,0-7.095-2.99-13.515,3.944
		"/>
	<path fill="none" stroke="#000000" stroke-width="3.9092" stroke-miterlimit="10" d="M850.131,174.927
		c0,0,4.469-4.354,10.701-4.325"/>
	<path fill="none" stroke="#000000" stroke-width="3.9092" stroke-miterlimit="10" d="M844.138,321.621
		c0,0,6.514-5.956,7.488-13.187c0.978-7.229,4.215-11.907,5.572-8.505c1.357,3.402-0.472,11.202,3.634,10.28
		c4.104-0.922,10.095-0.496,11.354,2.906c1.258,3.401,4.271,9.355,0,10.631c-4.271,1.276-4.697,4.257-2.994,7.231
		c1.7,2.977,4.252,11.907-1.276,11.058c-5.531-0.851-6.377-5.106-8.08-6.807c-1.702-1.698-3.146-1.701-2.637,2.553
		c0.51,4.254-2.295,11.482-5.572,6.38c-3.276-5.104-2.062-11.061-4.795-14.035C844.098,327.15,840.59,325.745,844.138,321.621z"/>
	<path fill="none" stroke="#000000" stroke-width="3.9092" stroke-miterlimit="10" d="M797.74,288.438c0,0-5.526,12.344,0,19.573
		c5.527,7.229,13.208,11.326,18.938-7.31"/>
	<path fill="none" stroke="#000000" stroke-width="3.9092" stroke-miterlimit="10" d="M857.198,299.929
		c0,0,1.522-13.905,9.73-20.138"/>
	<path fill="none" stroke="#000000" stroke-width="3.9092" stroke-miterlimit="10" d="M873.212,315.754
		c0,0,12.045,2.039,20.384-3.915c8.338-5.953,10.467-11.361,10.467-19.291c0-7.93,0.538-16.061-11.215-14.76"/>
	<path fill="none" stroke="#000000" stroke-width="3.9092" stroke-miterlimit="10" d="M869.903,332.473
		c0,0,15.929,9.137,20.363,18.494c4.438,9.357,15.496,24.668,7.414,33.602c-8.082,8.932-15.207,16.16-35.034-12.761
		c0,0-5.238-13.455-6.368-28.205"/>
	<path fill="none" stroke="#000000" stroke-width="3.9092" stroke-miterlimit="10" d="M903.438,298.798
		c0,0,26.142,5.159,20.188,23.561s-36.779,23.557-36.779,23.557"/>
	<path fill="none" stroke="#000000" stroke-width="3.9092" stroke-miterlimit="10" d="M818.595,382.442c0,0,6.359-5.528,8.91,0
		c2.553,5.525,9.152,8.928,9.254,6.803c0.104-2.127-0.814-8.079-2.909-11.907c-2.093-3.828-3.937-5.104,0.602-7.655
		s7.732-3.37,2.309-7.214c-5.426-3.846-10.358-4.695-12.996-8.522c-2.637-3.828-11.021-3.828-11.508,0
		c-0.486,3.827-4.83,5.136-6.272,8.522c-1.443,3.387-3.66,1.579,0,8.013c3.661,6.431,6.517,8.134,4.024,12.811
		c-2.492,4.678-5.894,12.333-2.064,11.483C811.769,393.926,814.786,394.351,818.595,382.442z"/>
	<path fill="none" stroke="#000000" stroke-width="3.9092" stroke-miterlimit="10" d="M860.832,366.458
		c0,0-4.983,12.614-11.075-3.989c-6.091-16.604-1.746-22.984-5.619-27.663c-3.873-4.678-8.193-4.251-10.288-14.885
		c-2.093-10.634-3.53-23.049-3.53-23.049"/>
	<path fill="none" stroke="#000000" stroke-width="3.9092" stroke-miterlimit="10" d="M860.53,288.294c0,0-6.33,0.282-6.706-8.502"
		/>
	
		<line fill="none" stroke="#000000" stroke-width="3.9092" stroke-miterlimit="10" x1="829.444" y1="266.135" x2="833.85" y2="264.204"/>
	<path fill="none" stroke="#000000" stroke-width="3.9092" stroke-miterlimit="10" d="M845.575,342.035
		c0,0-18.029-0.837-26.98-9.562c-8.952-8.724-12.084-18.378-12.084-18.378"/>
	<path fill="none" stroke="#000000" stroke-width="3.9092" stroke-miterlimit="10" d="M882.371,392.459
		c0,0,1.275,9.974-11.91,10.397c-13.185,0.424-25.726,3.024-33.702-10.397"/>
	<path fill="none" stroke="#000000" stroke-width="3.9092" stroke-miterlimit="10" d="M807.941,394.774
		c0,0-6.045,11.479-1.961,21.266c4.086,9.783,5.403,22.543,12.613,23.393c7.209,0.852,7.49,0.854,15.855-9.781
		c8.365-10.634,12.763-8.934,7.587-19.99c-5.177-11.06-5.278-20.415-5.278-20.415"/>
	<path fill="none" stroke="#000000" stroke-width="3.9092" stroke-miterlimit="10" d="M804.182,362.469
		c0,0-25.558-8.098-38.332,4.235c-12.772,12.334-17.881,25.384-4.269,31.192c13.611,5.81,32.846,9.341,44.93-3.059"/>
	
		<line fill="none" stroke="#000000" stroke-width="3.9092" stroke-miterlimit="10" x1="838.227" y1="363.621" x2="850.198" y2="363.621"/>
	<path fill="none" stroke="#000000" stroke-width="3.9092" stroke-miterlimit="10" d="M780.012,360.315
		c0,0-9.497-11.901-8.646-20.832c0.851-8.933-2.892-21.433,4.297-25.39c7.187-3.958,15.403-2.253,18.101,5.826
		c2.696,8.08,11.505,20.839,16.245,22.114s6.672,9.039,6.672,9.039"/>
	<path fill="none" stroke="#000000" stroke-width="3.9092" stroke-miterlimit="10" d="M801.602,312.048c0,0-2.09,2.861,0,13.826
		c2.089,10.965,10.653,17.362,10.653,17.362"/>
</g>
</svg>
