<?xml version="1.0" encoding="utf-8"?>
<!-- Generator: Adobe Illustrator 15.0.0, SVG Export Plug-In . SVG Version: 6.00 Build 0)  -->
<!DOCTYPE svg PUBLIC "-//W3C//DTD SVG 1.1//EN" "http://www.w3.org/Graphics/SVG/1.1/DTD/svg11.dtd">
<svg version="1.1" id="Layer_1" xmlns="http://www.w3.org/2000/svg" xmlns:xlink="http://www.w3.org/1999/xlink" x="0px" y="0px"
	 width="400px" height="600px" viewBox="0 0 400 600" enable-background="new 0 0 400 600" xml:space="preserve">
<rect y="0" fill="#FFFFFF" width="400" height="600"/>
<path fill="none" stroke="#000000" stroke-width="5.1516" stroke-miterlimit="10" d="M247.056,123.342c0,0,9.66,0,5.582-5.796
	c-4.079-5.795-15.241-16.528-18.461-19.748s-21.465-12.021-37.778,1.502s-13.095,30.695-7.299,46.365s15.241,34.13,24.042,39.496
	c8.8,5.366,20.82,6.654,27.475,1.502c0,0,3.005-4.507-3.22-5.366c0,0-4.077-0.644,3.006-6.225
	c7.083-5.581,15.241-12.879,14.812-17.172c-0.431-4.292,0.016-12.02,0.016-12.02S257.358,133.86,247.056,123.342z"/>
<g>
	<path d="M196.183,136.006c3.276-3.083,7.126-5.541,11.137-7.643c4.03-2.085,8.299-3.742,12.7-4.98
		c8.81-2.484,18.127-3.244,27.335-2.599l-0.598,5.117c-8.598-1.436-17.474-1.579-26.157-0.008
		c-4.337,0.783-8.618,1.985-12.743,3.641C203.749,131.209,199.732,133.255,196.183,136.006z"/>
</g>
<path fill="none" stroke="#000000" stroke-width="5.1516" stroke-miterlimit="10" d="M144.024,188.166
	c0,0,7.514-15.026,1.288-31.983c-6.226-16.958-18.675-22.968-34.773-18.675c-16.099,4.293-19.319,21.036-23.613,33.486
	c-4.292,12.45-6.439,17.172-1.073,17.172s1.073,4.937,0.429,6.868c-0.644,1.932-2.79,10.089,5.367,15.241
	c8.156,5.151,12.45,11.162,12.45,11.162s4.507,5.367,12.664,3.005c0,0,3.004-0.213-0.215,4.079c-3.22,4.293-6.225,6.44-6.225,6.44
	s-3.076,4.507,4.901,7.512c7.978,3.005,18.281,1.716,24.721-8.372s9.444-21.035,6.225-32.626S144.024,188.166,144.024,188.166z"/>
<g>
	<path d="M137.962,177.649c-3.43-3.664-7.922-6.265-12.678-7.397c-4.774-1.147-9.767-0.63-14.267,1.068
		c-4.524,1.689-8.61,4.42-12.291,7.588c-3.688,3.176-6.994,6.809-10.046,10.643l-3.891-3.377c3.538-3.737,7.34-7.263,11.548-10.303
		c4.197-3.028,8.836-5.594,13.89-7.002c5.026-1.426,10.497-1.499,15.406,0.145C130.532,170.635,134.853,173.702,137.962,177.649z"/>
</g>
<g>
	<path d="M143.765,192.608c-0.713-0.072-1.645-0.093-2.492-0.093c-0.87,0.001-1.748,0.029-2.628,0.077
		c-1.762,0.098-3.533,0.276-5.3,0.525c-3.536,0.497-7.057,1.272-10.526,2.276c-6.941,2.013-13.666,4.968-20.007,8.657
		c5.868-4.404,12.277-8.185,19.144-11.084c3.434-1.447,6.978-2.679,10.623-3.636c1.823-0.479,3.67-0.889,5.547-1.216
		c0.939-0.162,1.885-0.305,2.843-0.419c0.98-0.111,1.881-0.209,2.999-0.235L143.765,192.608z"/>
</g>
<g>
	<path d="M81.57,181.22c-0.098,0.067,0.036-0.019,0.08-0.053l0.217-0.168c0.153-0.125,0.313-0.268,0.474-0.419
		c0.322-0.303,0.645-0.642,0.96-0.997c0.632-0.713,1.238-1.496,1.816-2.312c1.156-1.636,2.205-3.404,3.175-5.228
		c0.985-1.838,1.83-3.68,2.735-5.669c0.905-1.959,1.844-3.918,2.848-5.852c2.011-3.863,4.264-7.661,7.076-11.11
		c2.796-3.422,6.249-6.563,10.512-8.314c2.116-0.87,4.4-1.357,6.674-1.399c2.285-0.051,4.511,0.318,6.643,0.921
		c4.292,1.202,8.177,3.636,11.2,6.798c3.041,3.161,5.283,6.975,6.824,10.998c1.534,4.031,2.403,8.301,2.507,12.579
		c-0.318-4.266-1.397-8.452-3.102-12.333c-1.71-3.875-4.086-7.464-7.134-10.327c-3.035-2.868-6.771-4.935-10.78-5.844
		c-2.004-0.46-4.063-0.688-6.054-0.54c-2,0.138-3.947,0.661-5.746,1.508c-3.616,1.699-6.577,4.635-9.003,7.932
		c-2.438,3.314-4.399,7.016-6.145,10.827c-0.872,1.909-1.687,3.852-2.478,5.818c-0.77,1.945-1.605,4.039-2.544,6.021
		c-0.94,2.001-1.976,3.977-3.193,5.899c-0.61,0.961-1.267,1.908-2.007,2.835c-0.372,0.463-0.764,0.921-1.197,1.375
		c-0.217,0.227-0.445,0.453-0.694,0.68l-0.398,0.346c-0.166,0.131-0.245,0.207-0.568,0.419L81.57,181.22z"/>
</g>
<g>
	<path d="M192.717,152.855c1.862-0.142,3.8-0.356,5.662-0.638c0.934-0.143,1.86-0.306,2.751-0.503
		c0.446-0.099,0.882-0.208,1.296-0.328c0.207-0.06,0.408-0.123,0.599-0.188l0.73-0.26c2.056-0.68,4.031-1.077,6.064-1.38
		c2.025-0.284,4.069-0.438,6.134-0.363c2.044,0.075,4.188,0.379,6.124,1.185c1.724,0.703,3.587,1.094,5.488,1.239
		c3.782,0.255,7.806-0.374,11.121-2.519c-3.07,2.505-7.131,3.642-11.144,3.807c-2.019,0.068-4.084-0.127-6.077-0.694
		c-1.771-0.519-3.603-0.572-5.473-0.441c-1.861,0.135-3.726,0.482-5.551,0.947c-1.812,0.472-3.648,1.07-5.254,1.809l-0.629,0.304
		c-0.262,0.125-0.519,0.238-0.773,0.344c-0.509,0.211-1.01,0.395-1.508,0.564c-0.996,0.339-1.982,0.625-2.968,0.889
		c-1.979,0.523-3.915,0.957-5.941,1.338L192.717,152.855z"/>
</g>
<g>
	<path d="M236.756,183.792c-1.355-0.484-2.433-0.983-3.596-1.522c-1.138-0.536-2.251-1.095-3.351-1.674
		c-2.196-1.158-4.335-2.387-6.435-3.666c-4.197-2.56-8.236-5.315-12.163-8.199c4.371,2.149,8.807,4.14,13.306,5.891
		c2.249,0.874,4.515,1.688,6.79,2.412c1.138,0.362,2.278,0.701,3.416,1.008c1.113,0.297,2.329,0.602,3.313,0.761L236.756,183.792z"
		/>
</g>
<g>
	<path d="M193.043,113.681c3.332-4.337,8.282-7.59,13.862-8.616c2.781-0.516,5.678-0.459,8.471,0.087
		c1.399,0.267,2.772,0.658,4.114,1.129c1.35,0.495,2.579,0.993,3.873,1.498c5.113,2.013,10.192,4.118,15.258,6.184
		c2.532,1.028,5.064,2.05,7.588,2.977c1.26,0.461,2.52,0.899,3.754,1.262c1.202,0.355,2.515,0.661,3.327,0.646l-0.227,5.146
		c-1.93-0.188-3.261-0.717-4.651-1.219c-1.359-0.52-2.649-1.086-3.922-1.668c-2.541-1.167-5.005-2.395-7.464-3.625
		c-4.91-2.466-9.782-4.949-14.701-7.346c-1.217-0.589-2.484-1.219-3.67-1.762c-1.206-0.532-2.444-0.994-3.716-1.341
		c-2.538-0.706-5.206-0.972-7.85-0.694C201.798,106.881,196.702,109.616,193.043,113.681z"/>
</g>
<path fill="none" stroke="#000000" stroke-width="5.1516" stroke-miterlimit="10" d="M224.304,255.351c0,0-7.51-11.591-7.725-18.246
	c-0.216-6.654,2.359-29.407,14.381-34.344c12.021-4.938,26.83-14.378,39.925,1.29s19.319,22.751,20.393,23.181s2.147,5.151,0,7.083
	c-2.147,1.932-1.932,4.508-0.644,8.372c1.287,3.863,3.862,14.597-1.074,24.256c-4.938,9.658-19.533,18.245-25.114,19.104
	c-5.582,0.858-13.523,0.43-16.743-3.434c-3.22-3.864-3.436-6.869-3.006-9.875c0.43-3.005-4.078-6.654-7.512-4.723
	c-3.436,1.932,1.287,5.152,2.575,7.299s6.226,11.59,7.298,19.747c1.073,8.158-0.643,11.807,5.152,15.026s0.429,5.152-2.146,4.723
	c-2.576-0.43-5.581-1.718-5.581-1.718s1.073,10.948-7.942,5.581c-9.016-5.366-11.162-13.951-11.807-18.03
	c-0.644-4.079-1.287-15.67,0.859-22.538c2.146-6.87,4.078-8.158,3.22-11.592C227.954,263.079,224.518,262.22,224.304,255.351z"/>
<g>
	<path d="M229.063,251.758c3.854-4.156,8.18-7.886,12.81-11.221c4.644-3.314,9.652-6.208,15.081-8.275
		c5.411-2.061,11.311-3.271,17.312-2.899c5.994,0.333,11.942,2.388,17.016,5.684l-2.939,4.23c-4.197-3.195-9.152-5.359-14.45-6.068
		c-5.294-0.74-10.824-0.076-16.112,1.493c-5.303,1.569-10.393,4.002-15.196,6.91C237.788,244.541,233.218,247.909,229.063,251.758z"
		/>
</g>
<path fill="none" stroke="#000000" stroke-width="5.1516" stroke-miterlimit="10" d="M244.482,313.093c0,0-7.728-7.082-9.659-9.873
	c-1.87-2.702-6.559-8.224-8.609-16.364c-0.066-0.267-0.131-0.536-0.192-0.809c-1.932-8.586-0.577-1.527-1.147-4.949"/>
<g>
	<path d="M290.685,234.824c-3.81-3.146-7.587-6.306-11.341-9.52c-1.875-1.61-3.742-3.226-5.588-4.905
		c-1.867-1.717-3.549-3.403-5.404-4.955c-3.663-3.104-7.745-5.778-12.324-7.287c-4.551-1.536-9.617-1.692-14.336-0.244
		c4.564-1.856,9.786-2.187,14.684-0.997c4.918,1.155,9.46,3.593,13.553,6.489c2.054,1.434,4.004,3.07,5.894,4.523
		c1.93,1.47,3.917,2.907,5.907,4.334c3.986,2.851,8.019,5.665,12.056,8.445L290.685,234.824z"/>
</g>
<g>
	<path d="M228.041,262.691c4.41-0.256,8.709-0.287,13.067-0.121c4.329,0.181,8.729,0.57,12.979,1.5
		c4.074,0.796,8.339,1.115,12.583,1.273c4.254,0.143,8.528,0.115,12.799-0.093c-4.23,0.635-8.492,1.094-12.779,1.381
		c-4.292,0.269-8.597,0.391-12.986-0.014c-4.183-0.482-8.354-0.428-12.561-0.183c-4.184,0.258-8.424,0.721-12.507,1.375
		L228.041,262.691z"/>
</g>
<g>
	<path d="M142.256,190.039c-2.455-2.433-5.323-4.765-8.269-6.757c-2.968-1.994-6.128-3.712-9.457-4.804
		c-3.312-1.085-6.849-1.498-10.131-0.584c-3.291,0.878-6.148,3.153-8.273,6.033l-0.072,0.098l-0.049,0.044
		c-1.443,1.308-2.848,2.752-4.166,4.234c-1.32,1.49-2.567,3.046-3.694,4.688c-1.123,1.642-2.132,3.37-2.881,5.216
		c-0.742,1.838-1.232,3.829-1.045,5.845c-0.34-1.997,0.003-4.067,0.62-5.998c0.623-1.941,1.521-3.784,2.542-5.545
		c1.024-1.761,2.178-3.444,3.411-5.065c1.242-1.624,2.534-3.174,3.966-4.683l-0.121,0.142c1.039-1.627,2.282-3.166,3.784-4.473
		c1.497-1.307,3.258-2.372,5.172-3.053c3.854-1.394,8.074-1.189,11.883-0.247c3.843,0.95,7.42,2.575,10.782,4.482
		c3.374,1.942,6.493,4.092,9.535,6.682L142.256,190.039z"/>
</g>
<g>
	<path d="M143.997,194.358c-0.298-0.026-0.828-0.016-1.263,0.012c-0.459,0.029-0.924,0.077-1.387,0.146
		c-0.927,0.135-1.849,0.343-2.745,0.626c-1.794,0.563-3.487,1.427-4.97,2.587c-1.481,1.161-2.75,2.621-3.741,4.297
		c-0.497,0.842-0.925,1.716-1.3,2.659l-1.176,2.958l-4.61,11.901c-0.778,1.984-1.568,3.967-2.42,5.925
		c-0.869,1.945-1.738,3.922-2.982,5.658c1.06-1.847,1.715-3.876,2.379-5.885c0.646-2.02,1.229-4.06,1.802-6.106l3.39-12.313
		l0.877-3.079c0.305-1.07,0.704-2.162,1.186-3.205c0.966-2.096,2.333-4.062,4.044-5.709c1.71-1.648,3.745-2.964,5.926-3.902
		c1.091-0.471,2.218-0.851,3.373-1.143c0.578-0.146,1.163-0.269,1.758-0.368c0.619-0.097,1.15-0.177,1.915-0.208L143.997,194.358z"
		/>
</g>
<g>
	<path d="M101.417,218.295c2.11,0.146,4.225,0.085,6.314-0.111c2.088-0.204,4.155-0.565,6.145-1.138
		c1.987-0.571,3.899-1.356,5.606-2.416c1.707-1.056,3.191-2.397,4.298-3.975l2.021,1.597c-1.513,1.746-3.392,3.102-5.39,4.072
		c-2.002,0.975-4.119,1.592-6.245,1.977c-2.129,0.384-4.275,0.535-6.407,0.526C105.628,218.811,103.503,218.654,101.417,218.295z"/>
</g>
<g>
	<path d="M119.081,243.53c0.357-2.155,1.132-4.261,2.326-6.152c0.605-0.939,1.327-1.82,2.18-2.582
		c0.419-0.38,0.912-0.728,1.312-1.036c0.415-0.325,0.823-0.674,1.224-1.029c3.192-2.88,6.062-6.147,8.643-9.568
		c2.569-3.431,4.838-7.076,6.525-10.898c1.674-3.807,2.75-7.849,2.578-11.675l5.151,0.053c-0.286,4.939-2.054,9.394-4.268,13.359
		c-2.245,3.975-4.995,7.537-7.991,10.819c-3.012,3.27-6.246,6.298-9.815,8.937c-0.451,0.327-0.906,0.645-1.383,0.949
		c-0.498,0.312-0.927,0.55-1.352,0.861c-0.844,0.612-1.601,1.361-2.265,2.194C120.631,239.44,119.651,241.425,119.081,243.53z"/>
</g>
<g>
	<path d="M92.036,163.026c2.142-2.552,4.37-4.702,6.806-6.767c2.427-2.035,5.027-3.876,7.832-5.368
		c2.796-1.486,5.828-2.614,8.969-3.017c3.132-0.418,6.347-0.012,9.149,1.223c-2.954-0.829-6.054-0.755-8.9,0.041
		c-2.857,0.787-5.482,2.212-7.861,3.942c-2.382,1.734-4.538,3.771-6.51,5.963c-1.949,2.178-3.808,4.592-5.28,6.96L92.036,163.026z"
		/>
</g>
<g>
	<path d="M194.271,153.544c2.313-4.649,4.594-9.18,6.3-13.771c0.22-0.573,0.387-1.116,0.669-1.819
		c0.257-0.645,0.55-1.278,0.868-1.905c0.63-1.258,1.412-2.465,2.342-3.603c0.933-1.135,2.055-2.17,3.35-3.032
		c1.298-0.854,2.794-1.483,4.349-1.823c1.56-0.321,3.157-0.341,4.666-0.128c1.508,0.232,2.935,0.659,4.255,1.229
		c2.644,1.147,4.901,2.75,6.916,4.522l0.812,0.735l0.635,0.649l1.331,1.288c0.901,0.848,1.823,1.68,2.775,2.468
		c0.94,0.809,1.934,1.537,2.975,2.186c0.521,0.323,1.062,0.611,1.633,0.827c0.569,0.231,1.173,0.374,1.828,0.345
		c-0.577,0.323-1.283,0.414-1.965,0.422c-0.686-0.01-1.362-0.121-2.026-0.268c-1.327-0.306-2.571-0.825-3.791-1.371
		c-1.207-0.572-2.367-1.219-3.49-1.923c-0.565-0.347-1.113-0.719-1.659-1.099l-0.822-0.591l-0.057-0.042l-0.014-0.011
		c0.16,0.136,0.038,0.033,0.07,0.062l-0.024-0.016l-0.096-0.062l-0.191-0.126l-0.38-0.252c-2.046-1.304-4.135-2.47-6.247-3.195
		c-2.104-0.735-4.198-1.019-6.07-0.61c-1.876,0.378-3.603,1.468-5.104,3.039c-0.755,0.78-1.434,1.68-2.072,2.634
		c-0.318,0.478-0.609,0.98-0.898,1.488c-0.266,0.449-0.577,1.089-0.9,1.671C201.619,146.117,198.273,150.189,194.271,153.544z"/>
</g>
<g>
	<path d="M255.214,157.9c-2.946,1.458-5.974,2.604-9.04,3.606c-3.069,0.998-6.175,1.842-9.364,2.496
		c-0.797,0.169-1.602,0.318-2.422,0.443c-0.822,0.13-1.667,0.243-2.389,0.335c-1.512,0.213-3,0.454-4.392,0.782
		c-1.387,0.328-2.684,0.768-3.674,1.344c-0.988,0.599-1.602,1.25-1.962,2.278l-0.228,0.646l-0.276,0.33
		c0.136-0.162,0.092-0.125,0.123-0.17c0.012-0.022,0.019-0.041,0.022-0.054c0.009-0.028,0.01-0.047,0.01-0.062
		c-0.003-0.028-0.015-0.041-0.026-0.039c-0.026,0.002-0.055,0.062-0.058,0.171c-0.016,0.219,0.094,0.602,0.304,0.992
		c0.412,0.803,1.13,1.654,1.905,2.458c0.784,0.809,1.654,1.593,2.552,2.371c0.894,0.786,1.834,1.539,2.764,2.346
		c-1.206-0.247-2.376-0.602-3.54-1.015c-1.159-0.422-2.299-0.925-3.409-1.561c-1.107-0.644-2.199-1.387-3.186-2.519
		c-0.479-0.576-0.951-1.261-1.234-2.207c-0.135-0.472-0.207-1.015-0.15-1.603c0.027-0.293,0.09-0.596,0.195-0.902
		c0.053-0.153,0.116-0.307,0.197-0.466c0.039-0.079,0.085-0.161,0.138-0.246c0.072-0.107,0.071-0.13,0.257-0.349l-0.504,0.976
		c0.154-1.049,0.562-2.117,1.166-3.055c0.602-0.941,1.401-1.705,2.226-2.311c1.667-1.21,3.435-1.834,5.127-2.303
		c1.704-0.457,3.374-0.716,5.028-0.9c0.862-0.108,1.607-0.139,2.366-0.223l2.314-0.249c3.114-0.354,6.278-0.715,9.467-0.972
		C248.713,158.008,251.93,157.829,255.214,157.9z"/>
</g>
<g>
	<path d="M244.482,140.802c0.388,2.669,0.309,5.457-0.474,8.167c-0.402,1.35-1.01,2.679-1.895,3.868
		c-0.438,0.593-0.953,1.152-1.511,1.645l-1.543,1.354c-4.164,3.541-8.452,6.833-12.824,10.098l-2.725-4.372
		c4.729-2.475,9.475-5.041,14.03-7.806l1.689-1.062c0.513-0.323,0.981-0.69,1.42-1.118c0.877-0.849,1.596-1.906,2.154-3.066
		C243.91,146.175,244.446,143.49,244.482,140.802z"/>
</g>
<g>
	<path d="M186.537,145.927c-0.106-2.69-0.009-5.199,0.206-7.781c0.226-2.563,0.594-5.119,1.184-7.644
		c0.593-2.521,1.398-5.021,2.597-7.379c1.188-2.345,2.832-4.569,5.033-6.151l-0.171,0.172c0.669-0.734,1.309-1.214,2.023-1.71
		c0.705-0.477,1.444-0.889,2.205-1.24c1.523-0.703,3.134-1.164,4.758-1.41c3.257-0.498,6.533-0.143,9.621,0.669
		c-3.157-0.486-6.399-0.477-9.419,0.319c-1.506,0.394-2.948,0.981-4.257,1.763c-0.654,0.39-1.274,0.829-1.848,1.311
		c-0.557,0.469-1.134,1.043-1.49,1.537l-0.04,0.056l-0.131,0.117c-1.701,1.521-2.902,3.544-3.73,5.718
		c-0.833,2.18-1.327,4.51-1.624,6.869c-0.296,2.363-0.388,4.764-0.346,7.162c0.048,2.378,0.223,4.846,0.554,7.102L186.537,145.927z"
		/>
</g>
<g>
	<path d="M219.044,250.818c0.218-3.638,0.632-7.122,1.175-10.644c0.55-3.506,1.251-6.989,2.174-10.417
		c0.929-3.423,2.072-6.805,3.636-9.997c1.565-3.161,3.58-6.235,6.426-8.306c-2.562,2.403-4.105,5.584-5.238,8.804
		c-1.12,3.246-1.814,6.623-2.3,10.02c-0.479,3.4-0.739,6.832-0.851,10.263c-0.105,3.417-0.082,6.9,0.131,10.233L219.044,250.818z"/>
</g>
<g>
	<path d="M224.05,255.309c0.23-3.7,0.81-7.353,1.473-11.015c0.365-1.822,0.777-3.641,1.246-5.453
		c0.494-1.804,1.044-3.601,1.672-5.386c0.633-1.781,1.256-3.591,2.027-5.375c0.782-1.775,1.816-3.472,3.159-4.971
		c1.337-1.493,2.934-2.845,4.798-3.793c1.851-0.935,4.02-1.452,6.015-1.022l0.086,0.508c-1.63,1.034-2.85,2.169-3.921,3.431
		c-1.071,1.25-1.997,2.605-2.891,4.013c-0.885,1.412-1.796,2.833-2.768,4.274c-0.979,1.435-1.917,2.945-2.709,4.538
		c-0.798,1.591-1.536,3.227-2.227,4.89c-0.715,1.655-1.382,3.339-2.009,5.044c-1.309,3.394-2.41,6.883-3.444,10.401L224.05,255.309z
		"/>
</g>
<g>
	<path d="M222.748,257.699c1.726-2.27,3.494-4.289,5.396-6.291c1.896-1.982,3.9-3.872,6.051-5.612
		c2.155-1.732,4.456-3.331,6.999-4.583c0.636-0.312,1.287-0.6,1.954-0.858c0.338-0.131,0.659-0.247,1.023-0.367l0.963-0.301
		c1.377-0.41,2.714-0.708,4.102-0.917c5.52-0.858,11.252,0.08,16.102,2.581c2.436,1.224,4.656,2.84,6.629,4.641l5.993,5.284
		l-6.399-4.785c-2.098-1.625-4.345-2.99-6.76-3.97c-4.809-2.002-10.148-2.4-15.086-1.22c-1.227,0.285-2.469,0.673-3.612,1.117
		l-0.916,0.37c-0.26,0.11-0.557,0.243-0.829,0.376c-0.555,0.269-1.101,0.565-1.637,0.884c-2.145,1.279-4.127,2.898-5.983,4.657
		c-3.682,3.527-6.993,7.678-9.737,11.901L222.748,257.699z"/>
</g>
<path fill="none" stroke="#000000" stroke-width="7.7275" stroke-miterlimit="10" d="M192.237,153.544c0,0-5.065,9.501-3.353,21.471
	s-3.116,30.323-6.658,38.694c0,0-4.83,10.187-4.83,25.861c0,15.675-1.288,30.163-5.474,44.652s-6.439,41.535-6.117,61.498
	c0.322,19.962,1.622,47.009,3.548,59.565c1.926,12.558-0.006,24.471-1.616,37.027c-1.61,12.558-8.049,51.517-8.049,65.685"/>
<path fill="none" stroke="#000000" stroke-width="7.7275" stroke-miterlimit="10" d="M145.312,190.034
	c0,0,11.478,4.052,12.444,28.514c0.966,24.462,3.864,51.508,14.167,65.675"/>
<path fill="none" stroke="#000000" stroke-width="7.7275" stroke-miterlimit="10" d="M226.081,261.846c0,0-6.506,4.347-7.149,22.377
	c-0.644,18.031-3.22,33.808-4.829,41.857c-1.61,8.049-9.982,51.194-16.422,61.497c-6.439,10.304-14.576,24.853-27.572,26.11"/>
<path d="M187.7,178.172c0,0-1.61,1.285-9.338-9.44c0,0-2.254-4.929-6.439-8.792c0,0,9.66-1.932,15.777,6.439V178.172z"/>
<path d="M180.449,218.548c0,0,7.955,0.313,11.788-4.838c3.834-5.151,17.372,0.629,18.975,8.364
	c1.603,7.735,4.178,19.151-4.838,27.288c-9.015,8.138-12.234,4.486-16.098,5.989c0,0-0.702-3.97,3.995-7.512
	c4.698-3.541,5.845-11.212,3.822-16.714c-2.022-5.501-3.822-9.051-3.822-9.051s-9.47,2.583-14.46,2.583
	S180.449,218.548,180.449,218.548z"/>
<path d="M217.942,299.323c0,0-8.348-10.915-17.686-3.831c-9.337,7.083-7.345,11.913-8.02,14.811c0,0,3.693-5.151,5.856-6.439
	c0,0-1.197,3.22,0,6.439c0,0,8.267-10.567,17.771-8.601C225.37,303.67,217.942,299.323,217.942,299.323z"/>
<path d="M216.565,322.86c0,0,9.902-1.243,9.516,7.911c-0.388,9.153-13.26,12.373-13.26,12.373l-1.295-15.133
	c0,0-7.728,1.609-11.27,7.728c-3.541,6.117-8.02,13.522-8.02,13.522s-3.512-9.98,0-16.099c3.512-6.117,7.892-14.489,14.234-16.099
	c0,0-12.471,2.456-11.187,13.707l-1.468,2.392c0,0-3.803-5.474-1.58-10.625c2.225-5.151,10.264-16.421,23.47-5.474L216.565,322.86z"
	/>
<path d="M175.963,259.153c0,0-10.341,3.819-10.801,6.85c-0.46,3.029,4.947,18.22,4.947,18.22s-3.659,4.508-8.167,0
	c-4.508-4.508-9.016-9.337-9.016-9.337s-8.14,6.761-9.061,12.879c-0.92,6.117-5.904,19.963-5.904,19.963s-7.896-13.201-3.388-25.114
	c4.508-11.914,9.292-13.846,9.292-13.846s-20.999-7.68-30.761-3.518c-9.763,4.162-23.286,13.177-32.623,13.821
	c0,0,7.728-8.54,17.387-14.573s36.074-11.031,49.913,0c0,0-2.26-11.507,11.907-11.186l2.427,5.841
	C162.115,259.153,171.309,257.911,175.963,259.153z"/>
<path d="M168.61,399.466c0,0,4.983-8.024,23.627-5.127v5.127c0,0,28.627-8.681,45.047-2.879
	c16.422,5.802,46.365,23.188,46.365,23.188s-8.693,3.22-19.318-2.576c-10.625-5.795-26.723-16.421-43.627-14.167
	c0,0,15.937,14.167,25.273,27.046c9.338,12.88,9.338,12.88,9.338,12.88s-3.312,0.966-10.833-6.44
	c-7.521-7.405-21.687-19.318-32.634-24.47s-15.777-6.762-15.777-6.762s6.117,18.675,6.117,24.148s-0.644,8.693-0.644,8.693
	s-6.058-3.22-9.308-10.947s-8.341-20.57-8.341-20.57l-11.974,6.801L168.61,399.466z"/>
</svg>
