<?xml version="1.0" encoding="utf-8"?>
<!-- Generator: Adobe Illustrator 15.0.0, SVG Export Plug-In . SVG Version: 6.00 Build 0)  -->
<!DOCTYPE svg PUBLIC "-//W3C//DTD SVG 1.1//EN" "http://www.w3.org/Graphics/SVG/1.1/DTD/svg11.dtd">
<svg version="1.1" id="Layer_1" xmlns="http://www.w3.org/2000/svg" xmlns:xlink="http://www.w3.org/1999/xlink" x="0px" y="0px"
	 width="400px" height="600px" viewBox="0 0 400 600" enable-background="new 0 0 400 600" xml:space="preserve">
<rect x="-0.403" y="0" fill="#FFFFFF" width="400" height="600"/>
<path fill="none" stroke="#000000" stroke-width="3.3114" stroke-miterlimit="10" d="M167.396,178.512
	c0,0-1.436-21.217-0.873-24.997c0.562-3.78,8.953-6.637,13.641,0.82c4.687,7.456,6.699,15.213,0.569,21.438
	C174.604,181.999,167.396,178.512,167.396,178.512z"/>
<path fill="none" stroke="#000000" stroke-width="3.3114" stroke-miterlimit="10" d="M184.508,165.652
	c5.386-5.429,3.896-11.541-2.468-20.696c-6.367-9.154-9.891-1.498-9.891-1.498s-0.758,2.012,0.521,6.224"/>
<path fill="none" stroke="#000000" stroke-width="3.3114" stroke-miterlimit="10" d="M167.396,178.512c0,0-11.269-2.157-14.8-10.89
	s6.784-26.616,14.449-15.408"/>
<path fill="none" stroke="#000000" stroke-width="3.3114" stroke-miterlimit="10" d="M177.132,140.611c0,0-4.101-4.533-9.206-2.85
	c-5.106,1.684-13.569,5.013-17.668,13.096c-4.098,8.083,0.287,9.462,0.287,9.462l1.401,1.89"/>
<path fill="none" stroke="#000000" stroke-width="3.3114" stroke-miterlimit="10" d="M163.46,149.005c0,0-1.459-5.428,3.473-7.063
	c0,0,2.533-2.274,6.357-0.117"/>
<path fill="none" stroke="#000000" stroke-width="3.3114" stroke-miterlimit="10" d="M138.154,162.884
	c0,0-5.507-15.369-13.328-17.98c-7.821-2.61-17.752-4.918-15.206-24.042c2.547-19.124,16.358-15.069,7.984-32.404
	c0,0-11.033-13.682-5.993-26.668c5.04-12.985,4.878-5.298,11.106,3.119c6.226,8.417,19.284,16.395,25.155,17.508
	s23.205,17.692,24.504,26.82c1.3,9.126-8.979,11.042-5.802,28.987"/>
<path fill="none" stroke="#000000" stroke-width="3.3114" stroke-miterlimit="10" d="M148.517,157.018
	c-4.226,3.377-10.238-1.905-10.238-1.905s2.796,7.175,7.844,10.582c5.046,3.405,5.823,9.557,5.477,14.761s1.101,11.893,1.101,11.893
	c3.984-4.635,6.808-4.626,13.989-4.962c7.18-0.336,7.325,3.458,11.969,6.32c4.645,2.864,5.431,7.327,5.431,7.327
	c8.621-7.652,5.333-11.521,5.341-16.992c0.01-5.472-2.917-5.825,1.111-13.435c4.029-7.611,18.121-3.344,18.121-3.344
	s-7.782-9.365-13.4-7.303c-5.618,2.063-7.574-0.044-7.025-6.66c0.547-6.615-7.032-15.707-7.032-15.707l-1.161,4.653"/>
<path fill="none" stroke="#000000" stroke-width="3.3114" stroke-miterlimit="10" d="M144.957,164.801
	c0,0-10.546-4.299-17.196-6.097c-6.649-1.797-19.719-8.084-27.657-1.78c-7.939,6.305-14.18,10.931-14.61,15.454
	c-0.431,4.523,0.056,14.253-13.492,20.932c-13.547,6.678-16.331,9.162-16.331,9.162s-10.41,6.374,1.088,7.14
	c11.499,0.766,14.283,1.119,21.053,2.879c6.771,1.761,7.585,1.158,15.514-3.458c7.929-4.617,9.861,0.257,12.073,3.241
	c2.213,2.985,9,9.305,21.654,5.391c12.652-3.914,21.767-12.772,25.647-25.318"/>
<path fill="none" stroke="#000000" stroke-width="3.3114" stroke-miterlimit="10" d="M184.089,201.033
	c0,0,6.982,19.628,23.326,20.125c16.344,0.497,28.001-6.463,39.681-5.451c11.682,1.011,11.682,1.011,11.682,1.011
	s19.721,0.516,6.6-8.676c-13.12-9.192-24.71-14.054-27.227-23.119c-2.517-9.066-3.244-23.662-19.761-29.494
	c-16.517-5.835-22.258-0.703-30.289-4.646"/>
<path fill="none" stroke="#000000" stroke-width="3.3114" stroke-miterlimit="10" d="M129.848,216.691c0,0,1.026,6.131,0.815,7.548
	c-0.21,1.417-0.039,6.755,6.215,11.789c6.254,5.033,9.785,12.085,10.917,15.871c1.131,3.786,5.876,6.574,7.019,10.772
	c1.143,4.199,9.024,22.739,14.003,12.742c4.979-9.997,7.207-21.737,10.884-26.985c3.677-5.249,21.439-18.749,23.253-27.914"/>
<path fill="none" stroke="#000000" stroke-width="3.3114" stroke-miterlimit="10" d="M172.378,109.237c0,0,7.106-2.325,12.986-2.899
	c5.88-0.575,12.26-6.146,12.26-6.146s4.463-0.786,8.584-0.898c4.121-0.112,13.137-5.533,19.137-3.676
	c6.002,1.858,9.379,0.176,14.783,1.226c5.401,1.051,9.674,2.277,5.479,7.394c-4.196,5.117-13.515,7.857-15.221,15.199
	c-1.704,7.341-6.153,17.786-6.302,20.419c-0.151,2.635-0.894,12.658-3.745,16.341"/>
<path fill="none" stroke="#000000" stroke-width="3.3114" stroke-miterlimit="10" d="M184.896,329.919c0,0-0.055-6.125-3.998-9.93
	c-3.941-3.805-0.687-11.824,3.213-13.592c3.898-1.77,11.364-0.018,11.325,6.738c-0.037,6.755-0.716,15.669-4.067,18.711
	C188.02,334.891,185.23,332.638,184.896,329.919z"/>
<path fill="none" stroke="#000000" stroke-width="3.3114" stroke-miterlimit="10" d="M191.37,331.847c0,0,4.788,7.661,9.367-3.02
	c4.579-10.682,5.074-18.336,0.42-23.854c-4.652-5.52-9.06-1.748-10.801,1.252"/>
<path fill="none" stroke="#000000" stroke-width="3.3114" stroke-miterlimit="10" d="M192.701,333.661c0,0,1.942,8.651-7.17,11.483
	c-9.112,2.829-10.071-18.882-4.632-25.155"/>
<path fill="none" stroke="#000000" stroke-width="3.3114" stroke-miterlimit="10" d="M198.771,332.354c0,0,9.551,8.229,12.894,0.145
	c3.344-8.083,0.293-28.778-10.508-27.525"/>
<path fill="none" stroke="#000000" stroke-width="3.3114" stroke-miterlimit="10" d="M191.822,340.229c0,0,0.898,3.873,7.638,2.55
	s6.59-6.784,6.59-6.784"/>
<path fill="none" stroke="#000000" stroke-width="3.3114" stroke-miterlimit="10" d="M198.027,342.991
	c0,0-7.741,13.482-12.496,2.153"/>
<path fill="none" stroke="#000000" stroke-width="3.3114" stroke-miterlimit="10" d="M212.483,318.719
	c0,0,10.576,3.512,15.352,7.119c4.775,3.606,4.775,3.606,4.775,3.606s-14.569-6.65-12.636-0.618
	c1.933,6.03-0.449,9.056,6.941,16.189c7.39,7.134,7.39,7.134,7.39,7.134s-11.992-5.402-16.908-8.065
	c-4.917-2.662-14.087-5.954-14.159-0.016c0,0-0.071,5.939,2.181,8.895c0,0-7.936-8.832-10.34-2.845s-5.61,6.767-10.766,12.856
	c-5.154,6.091-5.154,6.091-5.154,6.091s1.068-8.202,0.867-15.279c-0.2-7.076-1.318-12.554-3.376-6.823s-2.059,5.73-2.059,5.73
	s-1.013-6.473-2.013-11.788c-0.999-5.318,3.055-12.527-3.603-14.32c-6.657-1.792-10.035-1.811-19.011-3.145
	c-8.976-1.334-8.976-1.334-8.976-1.334s7.236-1.579,12.995-4.586c5.758-3.008,17.177-5.166,17.177-5.166s3.116-1.89-1.339-7.415
	c-4.455-5.526-4.455-5.526-4.455-5.526s6.146,0.489,10.225,1.669c4.079,1.181,4.771-1.854,4.8-6.921
	c0.028-5.065,5.118-21.452,5.118-21.452s1.508,12.336,2.934,15.063c1.425,2.728,3.338,10.979,7.678,7.761
	c4.341-3.218,15.689-3.222,15.689-3.222s7.761,1.395,11.077,0.197c0,0-7.305,5.254-11.968,8.837
	c-0.369,0.284-0.723,0.558-1.056,0.817c-4.513,3.534,8.258,2.632,15.622-0.478c0,0-6.164,7.686-14.681,10.883"/>
<path fill="none" stroke="#000000" stroke-width="3.3114" stroke-miterlimit="10" d="M199.597,348.467
	c0,0-0.048,13.893,4.455,22.327c4.502,8.435,10.23,23.526,23.208,21.473c12.979-2.054,13.84,3.615,21.57-2.955
	c7.73-6.571,7.281,1.329,12.749,1.899c5.469,0.572,13.79-1.812,6.672-9.148c-7.119-7.336-6.787-6.321-6.268-14.693
	c0.52-8.373,1.966-13.229,4.637-19.834c2.672-6.604,2.893-9.709-2.739-17.308c-5.631-7.597-11.222-10.6-18.981-11.994
	c-7.761-1.395-21.507-8.13-33.55-4.192"/>
<path fill="none" stroke="#000000" stroke-width="3.3114" stroke-miterlimit="10" d="M191.109,293.744
	c0,0,4.542-22.667,19.587-31.296c15.044-8.629,33.734-18.011,45.715-9.789c11.979,8.222,20.796,11.609,33.711,4.642
	c12.912-6.966,7.594,3.441,4.781,4.186c-2.811,0.744-6.207,9.774-9.007,18.473c-2.802,8.7-3.971,27.904-34.57,40.038"/>
<path fill="none" stroke="#000000" stroke-width="3.3114" stroke-miterlimit="10" d="M180.281,296.834c0,0-7.204-2.33-11.75-3.358
	c-4.545-1.028-6.195,2.409-11.334,4.271c-5.139,1.862-18.402,3.251-25.47,6.194c-7.067,2.943-32.351,18.743-39.799,21.741
	c-7.447,2.998-14.964,6.467-21.377,5.756c-6.414-0.713-16.765,2.337-7.205,7.862c9.561,5.524,11.523,2.5,21.812,11.846
	c10.29,9.343,10.219,9.815,14.602,11.191c4.383,1.374,29.123,10.362,47.744-3.651c18.621-14.012,25.074-17.781,25.074-17.781"/>
<path fill="none" stroke="#000000" stroke-width="3.3114" stroke-miterlimit="10" d="M221.812,256.461c0,0-1.804-5.542-6.7-11.161
	s-3.483-14.487-13.688-20.881"/>
<path fill="none" stroke="#000000" stroke-width="3.3114" stroke-miterlimit="10" d="M176.05,295.522c0,0-2.497-10.586-9.397-8.835
	c-6.899,1.751-2.761-3.837-13.291-9.906c-10.53-6.067-20.042-13.657-15.563-26.684c0,0,0.962-7.427,3.695-9.478"/>
<path fill="none" stroke="#000000" stroke-width="3.3114" stroke-miterlimit="10" d="M223.765,255.528c0,0-0.125-5.197-3.64-8.477
	c-3.516-3.28-4.246-6.101-6.061-13.586c-1.812-7.484-2.151-12.352-2.151-12.352"/>
<path fill="none" stroke="#000000" stroke-width="3.3114" stroke-miterlimit="10" d="M257.665,253.501c0,0,1.433-15.932-1.421-22.05
	c-2.854-6.117-8.029-15.648-8.029-15.648"/>
<path fill="none" stroke="#000000" stroke-width="3.3114" stroke-miterlimit="10" d="M136.075,364.49c0,0,2.496,3.131,2.93,9.956
	c0.436,6.824,3.555,16.704,3.555,16.704s2.796,7.176,8.297,14.03c5.501,6.854,4.224,5.697,1.511,7.708
	c-2.713,2.011-4.02,5.922-3.837,9.569c0.183,3.649,2.455,7.85,5.86,2.803c3.406-5.047,6.02-4.923,9.517-6.444
	c3.499-1.521,10.543-5.061,11.658-10.931c1.113-5.87,5.777-6.385,9.696-6.769c3.92-0.383,21.75,4.057,24.84-18.832"/>
<path fill="none" stroke="#000000" stroke-width="3.3114" stroke-miterlimit="10" d="M208.388,389.416
	c4.861,5.622,7.198,12.345,8.205,18.239c1.006,5.894,7.749,22.93,9.983,33.886c2.235,10.955,4.66,48.256,5.166,54.608
	c0.504,6.354-0.733,34.175-1.122,39.509c-0.39,5.335-3.265,7.887-1.193,11.813c2.073,3.931,2.395,6.634,2.506,10.756
	c0.113,4.122,4.208,20.423,4.208,20.423c8.242-0.225,13.567-10.057,13.567-10.057s0,0-1.39-9.059
	c-1.391-9.06-0.486-41.68-0.943-56.475c-0.459-14.798-7.064-53.202-8.557-64.289c-1.491-11.086-2.852-21.428-2.512-24.463
	s1.227-22.176,1.227-22.176s-7.462-0.832-11.861,0.294c0,0-7.99,1.055-14.465-8.651c0,0-1.627-2.338-3.064-5.06
	c0,0,3.522,2.789,0.866,8.82L208.388,389.416z"/>
<path fill="none" stroke="#000000" stroke-width="3.3114" stroke-miterlimit="10" d="M245.192,391.791c0,0,3.761,7.627,6.808,10.884
	c3.046,3.26,4.235,5.32,6.524,8.038c2.287,2.718,9.189,6.641,14.05,7.241c4.86,0.602,10.676-0.345,15.272-1.23
	c4.599-0.887,6.409,1.556,10.258,1.645c3.852,0.09,8.619-1.134,12.46,0.644c3.841,1.779,10.499,0.837,14.992,0.659
	c4.492-0.178,7.302-1.209,1.237-9.957c-6.062-8.747-5.933-8.003-8.162-19.803c-2.23-11.799-7.237-16.286-7.237-16.286
	s-3.291-3.547-7.038-9.759c-3.749-6.211-6.298-9.364-12.123-12.403c-5.826-3.04-17.276-6.72-24.647-6.523"/>
<path fill="none" stroke="#000000" stroke-width="3.3114" stroke-miterlimit="10" d="M260.322,412.39c0,0-4.653,8.848-5.719,11.948
	c-1.062,3.102-4.996,6.019-4.996,6.019s-3.151,1.703-0.508,5.84c2.646,4.135,3.432,8.599,0.84,13.042
	c-2.593,4.442-4.842,9.604-8.724,5.374"/>
<path fill="none" stroke="#000000" stroke-width="3.3114" stroke-miterlimit="10" d="M283.046,289.938c0,0,4.688-3.246,10.186-2.068
	c5.499,1.181,5.163,1.01,9.092-1.063c3.93-2.071,6.327-1.956,8.88,0.354c2.554,2.313,2.777,7.716,11.285,3.882
	c8.508-3.837,12.432-5.064,12.432-5.064s11.065-2.084,5.958,4.633c-5.109,6.719-9.954,9.26-13.854,11.939
	c-3.899,2.68-6.255,4.606-5.924,7.321c0.33,2.712-4.002,4.241-4.458,7.312c-0.457,3.071-2.438,7.062-6.235,9.667
	c-3.798,2.604-5.889,2.052-6.18,5.63c-0.29,3.578-6.26,8.004-11.946,10.538c-5.688,2.534-10.56,4.332-10.56,4.332"/>
<path fill="none" stroke="#000000" stroke-width="3.3114" stroke-miterlimit="10" d="M176.66,108.004c0,0,3.031-13.857-2.629-16.389
	c-5.66-2.53-7.067-6.112-12.507-10.909c-5.44-4.795-5.763-7.499-17.302-9.455c-11.541-1.957-18.889-2.816-18.889-2.816"/>
<path fill="none" stroke="#000000" stroke-width="3.3114" stroke-miterlimit="10" d="M119.591,59.988c0,0,20.21-9.004,28.73-3.968
	c8.521,5.034,26.324,10.335,31.955,17.932c5.631,7.598,24.104,10.398,30.744,8.581s-3.269,6.368-6.654,8.037
	c-3.387,1.669-6.593,4.979-4.178,9.239"/>
<path fill="none" stroke="#000000" stroke-width="3.3114" stroke-miterlimit="10" d="M237.987,96.552c0,0-1.276-8.202-6.463-8.72
	c-5.188-0.516-10.786-1.832-11.712-5.349s-7.07-5.269-12.121-7.411c-5.05-2.144-22.053-17.706-26.697-20.569
	c-4.646-2.864-10.987-4.049-9.051-12.21c1.938-8.164-4.673-4.104-6.719-3.428c-2.046,0.676-12.642-1.14-11.866,5.013
	c0.776,6.151,3.882,6.371,8.246,11.125c4.364,4.752,9.981,9.16,13.009,13.981"/>
<path fill="none" stroke="#000000" stroke-width="3.3114" stroke-miterlimit="10" d="M215.374,96.624c0,0-5.022-4.412-6.666-8.994"
	/>
<path fill="none" stroke="#000000" stroke-width="3.3114" stroke-miterlimit="10" d="M205.496,73.828c0,0-5.113-19.824,10.46-38.515
	c15.574-18.691,22.488-15.604,25.01-11.068c0,0-25.414,22.944-27.678,53.097"/>
<path fill="none" stroke="#000000" stroke-width="3.3114" stroke-miterlimit="10" d="M219.812,82.483
	c0,0,16.196-21.255,19.579-34.272c3.383-13.018,9.629-23.309,1.574-23.966"/>
<path fill="none" stroke="#000000" stroke-width="3.3114" stroke-miterlimit="10" d="M229.396,87.572
	c0,0,23.949-24.059,21.046-53.437c0,0-0.984-10.899-5.764-7.428"/>
<path fill="none" stroke="#000000" stroke-width="3.3114" stroke-miterlimit="10" d="M263.993,103.966c0,0,1.716-7.772,5.632-10.998
	c0,0-10.087,3.406-14.548,8.166c0,0-3.432,9.287-7.928,0.517"/>
<path fill="none" stroke="#000000" stroke-width="3.3114" stroke-miterlimit="10" d="M225.752,157.818c0,0,4.626-8.334,8.215-9.733
	s9.233-5.125,9.233-5.125s-4.648-13.828-6.166-16.066l8.335-0.292c0,0-0.114-4.121-5.23-7.055c0,0-2.733-5.96,10.99-8.146
	c0,0,13.306-3.882,21.062-0.221c0,0-0.707-3.935,0.498-8.192c1.205-4.258,1.205-4.258,1.205-4.258s-7.156-0.482-9.901,5.238"/>
<path fill="none" stroke="#000000" stroke-width="3.3114" stroke-miterlimit="10" d="M243.2,142.959c0,0,9.892,12.042,25.177,10.345
	c15.285-1.698,20.011-0.996,21.989-4.564c0,0-18.606-4.286-29.046-4.957C261.32,143.784,245.397,139.686,243.2,142.959z"/>
<path fill="none" stroke="#000000" stroke-width="3.3114" stroke-miterlimit="10" d="M245.221,125.701
	c0,0,41.582,8.023,50.147,10.502c8.564,2.48,5.188,7.504,4.018,8.793c-1.17,1.289-3.978,4.843-9.02,3.744"/>
<path fill="none" stroke="#000000" stroke-width="3.3114" stroke-miterlimit="10" d="M247.6,112.13c0,0,31.743,6.993,46.139,15.636
	c0,0,7.543,5.647,5.985,10.629"/>
<path fill="none" stroke="#000000" stroke-width="3.3114" stroke-miterlimit="10" d="M272.191,111.178
	c0,0,8.075,0.114,21.547,16.588"/>
<path fill="none" stroke="#000000" stroke-width="3.3114" stroke-miterlimit="10" d="M233.967,148.084c0,0,0.312,4.393,4.626,6.241
	c4.312,1.849,9.213,1.653,14.144,10.573c4.931,8.92,10.372,18.76,14.075,18.538c3.704-0.224,3.643-2.009,2.682-5.005
	c-0.961-2.998,3.303-9.724,0.777-14.266c-2.527-4.542-9.267-11.079-9.267-11.079"/>
<path fill="none" stroke="#000000" stroke-width="3.3114" stroke-miterlimit="10" d="M281.282,152.078c0,0,3.138,8.486,8.428,11.368
	c0,0,8.57,18.524,20.266,23.309c11.695,4.784,30.378,10.693,33.907,7.237c3.53-3.457,8.192-3.972-2.738-18.15
	c-10.93-14.179-23.279-29.138-30.682-27.78c-7.402,1.357-10.362,4.386-14.606-0.031"/>
<path fill="none" stroke="#000000" stroke-width="3.3114" stroke-miterlimit="10" d="M280.683,115.057
	c0,0,19.94-12.598,31.051-6.119c11.109,6.48,28.101,23.733,32.314,31.12c4.215,7.386-1.648,14.223-9.913,13.848
	c-8.266-0.373-16.518-3.581-16.518-3.581"/>
<path fill="none" stroke="#000000" stroke-width="3.3114" stroke-miterlimit="10" d="M307.487,148.737c0,0-3.684-1.719-6.932-5.534"
	/>
</svg>
