<?xml version="1.0" encoding="utf-8"?>
<!-- Generator: Adobe Illustrator 15.0.0, SVG Export Plug-In . SVG Version: 6.00 Build 0)  -->
<!DOCTYPE svg PUBLIC "-//W3C//DTD SVG 1.1//EN" "http://www.w3.org/Graphics/SVG/1.1/DTD/svg11.dtd">
<svg version="1.1" id="Layer_1" xmlns="http://www.w3.org/2000/svg" xmlns:xlink="http://www.w3.org/1999/xlink" x="0px" y="0px"
	 width="700px" height="350px" viewBox="0 0 700 350" enable-background="new 0 0 700 350" xml:space="preserve">
<rect fill="#FFFFFF" width="700" height="350"/>
<g>
	<rect x="60.104" y="135.447" fill="none" width="313.718" height="107.882"/>
	<g enable-background="new    ">
		<path d="M59.493,208.478c0.519-0.295,0.979-0.443,1.386-0.443h1.276c0.258,0,0.701-0.019,1.33-0.056
			c2.847-0.258,4.528-0.518,5.046-0.776c1.293-0.702,2.402-1.923,3.326-3.661c1.923-3.772,4.088-9.115,6.492-16.031
			c1.146-3.291,1.868-5.288,2.164-5.991c0.924-2.219,1.812-4.548,2.664-6.989l5.215-14.589c0.814-2.292,2.774-7.544,5.882-15.753
			c0.777-2.071,1.72-4.845,2.83-8.321l1.633-0.11l1.94,0.055c1.587,3.145,2.992,6.527,4.21,10.151
			c0.665,1.924,1.754,4.79,3.269,8.599l8.421,22.798l4.488,12.37c2.366,7.026,3.919,11.344,4.66,12.952
			c0.739,1.609,1.423,2.673,2.052,3.19c0.185,0.147,0.878,0.37,2.081,0.665c1.201,0.297,2.042,0.519,2.524,0.666
			c1.7,0.48,2.884,0.888,3.55,1.221c0.147,0.407,0.222,0.721,0.222,0.942c0,0.186-0.056,0.463-0.167,0.832
			c-1.184,0.037-2.016,0.056-2.496,0.056c-1.886,0-5.214-0.056-9.985-0.166l-5.547-0.125l-6.712,0.083
			c-0.444,0-0.897-0.021-1.359-0.062c-0.463-0.042-0.86-0.062-1.193-0.062h-1.22c-0.407-0.036-0.776-0.147-1.109-0.333
			c0-0.517,0.092-1.017,0.277-1.497c0.444-0.222,0.85-0.352,1.22-0.389l5.823-0.389c1.515-0.074,2.662-0.277,3.438-0.611
			c0.222-0.667,0.333-1.167,0.333-1.5c0-0.668-0.481-2.391-1.442-5.17c-0.665-1.852-1.247-3.611-1.745-5.279
			c-0.5-1.666-2.466-7.149-5.9-16.449c-1.517-0.26-2.848-0.39-3.994-0.39l-11.871,0.111l-3.495-0.056
			c-1.258,0-2.645,0.093-4.16,0.277c-0.482,1.109-0.797,1.905-0.944,2.386l-4.888,15.254c-2.071,5.807-3.106,9.006-3.106,9.597
			c0,0.333,0.167,0.888,0.5,1.664c0.776,0.222,1.812,0.426,3.106,0.61l7.544,0.666c0.406,0.332,0.61,0.629,0.61,0.887
			c0,0.186-0.055,0.463-0.166,0.832c-1.665,0.038-2.94,0.056-3.828,0.056c-2.959,0-6.398-0.092-10.318-0.277
			c-1.812-0.073-3.106-0.11-3.883-0.11c-0.776,0-2.127,0.037-4.049,0.11c-1.258,0.075-2.164,0.111-2.718,0.111
			c-0.887,0-2.034-0.056-3.439-0.167v-0.332C59.271,209.273,59.346,208.922,59.493,208.478z M85.962,175.195
			c3.957,0.222,8.468,0.333,13.535,0.333c2.884,0,5.417-0.092,7.599-0.277c-0.37-1.441-0.794-2.791-1.275-4.048
			c-2.401-6.432-3.729-9.98-3.988-10.646l-5.042-12.809l-0.554-0.998c-0.223,0.443-1.037,2.348-2.444,5.711
			c-2.371,5.768-4.074,10.259-5.11,13.475c-0.482,1.441-0.982,2.874-1.5,4.297c-0.518,1.423-0.842,2.422-0.972,2.994
			c-0.13,0.574-0.324,1.156-0.583,1.747L85.962,175.195z"/>
		<path d="M139.26,208.367c0.591-0.407,1.405-0.685,2.441-0.832c1.479-0.185,2.625-0.48,3.439-0.888
			c0.666-0.555,1.109-1.35,1.332-2.386c0.258-1.331,0.388-6.009,0.388-14.034c0-7.877-0.241-12.961-0.721-15.254
			c-0.814-0.518-1.868-0.924-3.162-1.221c-0.408-0.073-1.258-0.277-2.552-0.61v-1.858c2.191-0.631,3.964-1.446,5.32-2.448
			s3.24-3.005,5.655-6.011h0.333c0.223,0,0.576-0.019,1.059-0.056c0.297,0.037,0.539,0.13,0.725,0.277l-0.056,6.324
			c0,1.295,0.036,2.682,0.111,4.16c3.95-3.587,7.494-6.102,10.631-7.544c2.141-0.961,4.558-1.442,7.254-1.442
			c3.211,0,5.758,0.61,7.641,1.83c1.882,1.221,3.672,3.422,5.371,6.602c3.291-3.254,6.277-5.528,8.958-6.823
			c2.681-1.294,5.389-1.941,8.126-1.941c4.141,0,7.544,1.353,10.207,4.055c2.625,2.74,3.975,6.758,4.049,12.052v4.61l0.056,5.054
			l-0.056,12.997c-0.037,1.519,0.296,2.666,0.999,3.443c0.295,0.111,1.423,0.444,3.384,0.999c1.22,0.334,1.941,0.593,2.164,0.778
			c0.222,0.186,0.333,0.444,0.333,0.777c0,0.407-0.111,0.887-0.332,1.441h-0.387l-5.589-0.332c-0.664-0.037-1.715-0.056-3.154-0.056
			c-1.771,0-4.242,0.074-7.414,0.222h-2.822c-0.406,0-1.199,0.019-2.379,0.056c-0.038-0.333-0.056-0.629-0.056-0.888
			c0-0.296,0.129-0.666,0.388-1.109c0.999-0.443,2.366-0.806,4.105-1.083c1.738-0.277,2.819-0.777,3.245-1.5
			c0.425-0.722,0.638-3.602,0.638-8.638c0-10.925-0.13-17.258-0.389-18.998c-0.445-2.777-1.623-4.953-3.531-6.527
			c-1.909-1.574-4.309-2.361-7.2-2.361c-2.224,0-4.393,0.583-6.505,1.748c-2.113,1.164-4.188,2.912-6.227,5.241l-0.055,1.332v8.486
			l-0.222,6.602c0,6.73,0.064,10.559,0.194,11.482c0.129,0.925,0.444,1.6,0.943,2.024c0.5,0.426,1.95,0.805,4.354,1.138
			c1.072,0.147,1.904,0.296,2.496,0.443c0.444,0.37,0.666,0.852,0.666,1.442c0,0.481-0.167,0.813-0.5,0.998h-0.943l-2.773-0.055
			h-16.142l-4.438,0.055c-0.075-0.555-0.111-0.961-0.111-1.22l0.056-0.666c0.813-0.443,2.33-0.868,4.548-1.275
			c1.146-0.185,2.33-0.5,3.55-0.943c0.222-0.185,0.388-0.425,0.5-0.721c0.185-0.518,0.313-1.997,0.388-4.438l0.277-6.435
			l-0.111-7.267l0.055-4.049c0-4.549-0.923-7.867-2.768-9.957c-1.844-2.089-4.169-3.135-6.973-3.135
			c-2.62,0-5.249,0.647-7.886,1.941c-2.639,1.295-4.824,3.033-6.559,5.215c-0.038,1.035-0.056,1.979-0.056,2.829l0.222,18.638
			c0.036,4.068,0.268,6.389,0.693,6.962c0.424,0.574,1.377,0.971,2.856,1.192c2.366,0.333,3.901,0.74,4.604,1.221
			c0.333,0.222,0.5,0.555,0.5,0.998c0,0.297-0.019,0.647-0.056,1.055c-4.226-0.296-7.062-0.444-8.508-0.444
			c-1.483,0-2.818,0.02-4.003,0.056l-2.78,0.166h-1.724l-6.228,0.223c-0.075-0.259-0.111-0.473-0.111-0.642
			C139.039,209.281,139.112,208.922,139.26,208.367z"/>
		<path d="M226.905,210.419l-0.222-0.721c0-0.259,0.167-0.646,0.5-1.165l3.272-0.665l4.604-0.83
			c0.369-0.185,0.628-0.442,0.776-0.775c0.222-0.479,0.333-1.901,0.333-4.265c0-12.552-0.075-19.798-0.222-21.735
			c-0.148-1.938-0.481-3.167-0.999-3.684c-0.518-0.517-1.85-0.923-3.994-1.218c-1.258-0.186-2.256-0.425-2.996-0.721l0.222-1.691
			c3.883-1.595,6.49-2.967,7.821-4.115c1.849-1.669,3.42-3.856,4.715-6.563l1.886,0.056c0.222,1.85,0.333,5.954,0.333,12.314
			l-0.055,0.943c0,0.222,0.036,0.573,0.111,1.054c1.405-2.552,3.162-4.899,5.27-7.045l1.276-1.275
			c0.518-0.592,1.017-1.055,1.498-1.388c2.588-1.553,4.511-2.329,5.769-2.329c1.626,0,2.958,0.546,3.994,1.636
			c1.035,1.092,1.553,2.433,1.553,4.022c0,1.257-0.37,2.237-1.109,2.939c-0.999,0.925-2.145,1.387-3.439,1.387
			c-0.592,0-1.757-0.313-3.495-0.942c-1.738-0.629-2.884-0.943-3.439-0.943c-1.036,0-1.757,0.166-2.164,0.499
			c-1.036,0.814-2.293,2.479-3.772,4.992c-1.146,1.887-1.72,3.625-1.72,5.215l0.277,9.173l0.111,11.008
			c0.111,1.261,0.258,2.075,0.444,2.446c0.147,0.26,0.517,0.574,1.109,0.944c3.994,0.334,6.36,0.575,7.1,0.723
			c0.518,0.037,0.906,0.075,1.165,0.111c1.589,0.037,2.699,0.26,3.328,0.667c0.333,0.186,0.499,0.463,0.499,0.832
			c0,0.223-0.148,0.519-0.443,0.888l-6.158-0.11l-2.33-0.056l-3.384,0.056h-5.658l-3.051,0.166L226.905,210.419z"/>
		<path d="M307.614,202.709c0.222,0.48,0.333,0.832,0.333,1.054c0,0.555-0.444,1.535-1.331,2.94
			c-1.147,1.85-2.423,3.199-3.828,4.049c-0.888,0.555-2.108,0.832-3.661,0.832c-2.663,0-4.66-0.813-5.991-2.44
			c-0.814-0.961-1.387-2.681-1.72-5.159l-6.213,4.327c-2.182,1.258-3.847,2.053-4.992,2.385c-1.85,0.48-4.068,0.722-6.657,0.722
			c-1.886,0-3.375-0.564-4.465-1.692c-1.091-1.127-1.636-2.579-1.636-4.354c0-2.551,1.565-5.603,4.698-9.152
			s7.385-6.453,12.76-8.709c3.781-1.59,6.097-2.607,6.95-3.051c0.074-1.221,0.111-2.552,0.111-3.994
			c0-4.695-0.659-7.877-1.975-9.541c-1.318-1.664-3.2-2.496-5.648-2.496c-2.56,0-4.953,0.999-7.178,2.995
			c-1.373,1.258-2.411,3.625-3.116,7.101c-0.222,0.962-0.647,1.997-1.276,3.106c-1.59,1.036-2.866,1.554-3.828,1.554
			c-0.814,0-1.553-0.24-2.219-0.722c-0.37-0.258-0.555-0.555-0.555-0.888c0-0.961,1.026-3.134,3.079-6.518s4.641-5.916,7.766-7.6
			c3.125-1.683,5.852-2.523,8.182-2.523c3.18,0,5.547,0.286,7.101,0.859c1.553,0.574,2.921,1.581,4.104,3.023
			c1.183,1.442,1.904,3.015,2.164,4.715c0.147,0.813,0.222,3.717,0.222,8.709l-0.167,8.819l0.056,6.435
			c0,0.852-0.019,1.572-0.056,2.164c-0.037,1.073-0.055,1.867-0.055,2.385c0,1.221,0.351,2.201,1.054,2.94
			c0.702,0.74,1.534,1.109,2.497,1.109c1.405,0,2.607-0.702,3.605-2.108l0.666-0.887
			C306.579,202.986,306.985,202.857,307.614,202.709z M291.361,201.101c0.259-4.696,0.389-8.007,0.389-9.93
			c0-0.998-0.056-2.348-0.167-4.05c-2.487,0.888-5.122,2.238-7.904,4.05c-2.783,1.812-4.991,3.902-6.624,6.269
			c-1.188,1.701-1.781,3.31-1.781,4.825c0,1.442,0.491,2.645,1.475,3.606c0.983,0.962,2.217,1.441,3.701,1.441
			c1.15,0,2.542-0.406,4.175-1.22C286.777,205.021,289.022,203.356,291.361,201.101z"/>
	</g>
</g>
<rect x="327.628" y="126.229" fill="none" width="96.964" height="107.878"/>
<g enable-background="new    ">
	<path d="M391.439,209.673l-10.401-13.206c-2.337,4.285-5.513,7.87-9.524,10.752c-4.014,2.882-8.981,4.324-14.902,4.324
		c-2.883,0-5.766-0.468-8.648-1.402c-2.883-0.936-5.435-2.279-7.655-4.032c-2.221-1.753-4.032-3.896-5.435-6.428
		c-1.402-2.531-2.104-5.435-2.104-8.707c0-3.428,0.702-6.486,2.104-9.175c1.402-2.688,3.194-5.122,5.376-7.305
		c2.18-2.18,4.596-4.148,7.246-5.901c2.648-1.753,5.219-3.407,7.713-4.967c-1.168-1.637-2.453-3.331-3.856-5.084
		c-1.402-1.753-2.746-3.545-4.032-5.376c-1.286-1.83-2.357-3.7-3.214-5.61c-0.858-1.908-1.286-3.837-1.286-5.785
		c0-2.727,0.506-5.063,1.519-7.012c1.012-1.947,2.317-3.545,3.916-4.792c1.596-1.245,3.407-2.181,5.435-2.805
		c2.024-0.623,4.091-0.936,6.194-0.936c2.337,0,4.537,0.351,6.604,1.052c2.062,0.701,3.875,1.715,5.434,3.039
		c1.559,1.326,2.785,2.941,3.682,4.85c0.895,1.91,1.344,4.111,1.344,6.604c0,2.805-0.604,5.279-1.811,7.422
		c-1.209,2.144-2.709,4.09-4.5,5.843c-1.793,1.754-3.78,3.371-5.961,4.851c-2.182,1.48-4.207,2.922-6.077,4.324l21.972,27.815
		c0.778-1.713,1.479-3.816,2.104-6.312c0.623-2.492,0.857-5.297,0.701-8.414h2.338c0.076,3.506-0.195,6.526-0.818,9.058
		c-0.624,2.532-1.52,5.124-2.688,7.771l12.271,15.544H391.439z M349.308,170.17c-2.533,1.637-4.85,3.448-6.954,5.435
		c-2.104,1.987-3.838,4.228-5.201,6.721c-1.364,2.494-2.045,5.376-2.045,8.648c0,2.962,0.623,5.592,1.87,7.889
		c1.246,2.299,2.863,4.228,4.85,5.785c1.987,1.56,4.284,2.729,6.896,3.506c2.609,0.78,5.24,1.169,7.888,1.169
		c5.61,0,10.285-1.402,14.025-4.207c3.74-2.806,6.699-6.429,8.882-10.869l-22.907-28.751
		C354.274,166.977,351.838,168.534,349.308,170.17z M345.86,145.511c0.467,1.325,1.187,2.786,2.162,4.383
		c0.973,1.598,2.221,3.409,3.74,5.435c1.52,2.026,3.331,4.402,5.435,7.129c1.636-1.169,3.466-2.454,5.493-3.856
		c2.025-1.403,3.915-2.94,5.668-4.617c1.754-1.674,3.232-3.524,4.441-5.551c1.207-2.025,1.812-4.246,1.812-6.662
		c0-2.025-0.392-3.856-1.169-5.493c-0.779-1.636-1.852-3.019-3.214-4.148c-1.364-1.129-2.922-2.005-4.675-2.63
		c-1.753-0.622-3.605-0.935-5.551-0.935c-2.027,0-3.936,0.292-5.728,0.876c-1.793,0.585-3.371,1.443-4.733,2.571
		c-1.364,1.131-2.436,2.495-3.214,4.091c-0.78,1.598-1.168,3.409-1.168,5.435C345.159,142.862,345.393,144.187,345.86,145.511z"/>
</g>
<path d="M482.962,201.125c-1.444,1.951-3.364,3.695-5.772,5.239c-2.41,1.545-4.819,2.79-7.239,3.745
	c-2.42,0.953-4.906,1.56-7.464,1.815c-5.297,0.528-10.472-0.351-15.522-2.641c-5.047-2.295-8.898-5.058-11.555-8.298
	c-2.659-3.234-4.638-7.121-5.944-11.645c-1.848-6.416-2.167-12.613-0.946-18.599c1.223-5.987,4.277-10.375,9.178-13.163
	c6.691,1.917,10.721,3.013,12.088,3.286c1.36,0.276,2.985,0.318,4.876,0.129c1.704-0.172,3.225-0.56,4.551-1.165
	c1.332-0.603,2.311-1.345,2.931-2.233c0.62-0.887,0.781-1.846,0.484-2.875c-0.06-0.208-0.147-0.42-0.263-0.635
	c0-0.013-1.839-6.099-18.75-1.313c0,0-0.187,0.064-0.473,0.163c-0.337-0.449-0.865-1.638-0.865-1.638
	c-0.92-3.192-1.246-6.221-0.974-9.092c0.261-2.868,0.955-5.428,2.061-7.681c1.104-2.248,2.413-3.844,3.93-4.787
	c1.514-0.944,3.372-1.616,5.576-2.01c1.824-0.184,3.42-0.141,4.787,0.132c1.358,0.271,2.506,0.828,3.44,1.669
	c0.933,0.844,1.539,1.746,1.813,2.711c0.231,0.794,0.312,1.78,0.243,2.956c0,0-0.178,0.935-0.141,2.13
	c-0.019,0.217,0.017,0.68,0.045,0.682c0.209,1.974,1.131,4.284,4.279,4.43c2.771,0.121,5.565-1.776,5.934-4.644
	c0.444-3.498-2.688-6.846-5.567-8.502c-2.854-1.644-5.433-2.652-7.736-3.032c-2.307-0.384-4.768-0.444-7.387-0.182
	c-3.163,0.32-6.321,1.122-9.456,2.408c-3.141,1.284-5.871,2.782-8.202,4.486c-2.312,1.761-3.97,3.944-4.971,6.545
	c-0.63,1.628-0.928,3.218-0.89,4.765c-0.176,7.099,4.92,10.847,4.92,10.847c-0.493-0.558-0.929-1.159-1.315-1.785
	c0.388,0.602,0.822,1.194,1.315,1.785c-1.275,1.009-3.621,2.922-7.041,5.737c-3.42,2.812-6.147,5.574-8.188,8.28
	c-2.037,2.706-3.44,5.89-4.198,9.552c-0.76,3.668-0.583,7.445,0.539,11.332c1.022,3.546,3.234,7.517,6.631,11.912
	c3.398,4.391,8.088,7.568,14.076,9.525c5.985,1.958,11.098,2.904,15.339,2.831c4.238-0.075,6.863-0.103,7.873-0.086
	c0.728-0.073,1.454-0.146,2.189-0.222c7.127-0.715,13.085-2.807,17.884-6.272c4.797-3.471,7.604-8.11,8.438-13.929
	C485.924,196.729,484.406,199.177,482.962,201.125z M460.809,155.177c0.295,0.83,0.088,1.615-0.662,2.356
	c-0.929,0.917-2.089,1.445-3.491,1.585c-2.616,0.265-5.004,0.035-7.153-0.691c-2.157-0.727-3.791-2.06-4.919-4.009
	C444.582,154.417,458.257,149.382,460.809,155.177z M466.846,132.855c1.493,4.796,0.504,7.395-0.604,7.346
	c-1.105-0.053-1.173-2.444-1.098-3.19c0.068-0.742-0.187-2.594-0.187-2.621c-0.076-0.423-0.177-0.885-0.328-1.4
	c-0.214-0.744-0.414-1.385-0.604-1.927c-0.188-0.538-0.375-1.035-0.57-1.486C465.224,130.047,466.352,131.141,466.846,132.855z
	 M433.154,152.39c-1.047-1.541-1.83-3.201-2.337-4.973c-1.372-4.744-0.459-8.69,2.737-11.836c2.046-2.086,4.299-3.46,6.76-4.121
	c-2.572,2.379-4.416,5.003-5.531,7.881c-1.108,2.878-1.166,6.06-0.158,9.548c0.855,2.974,2.702,5.582,5.543,7.828
	c-0.812,0.255-1.927-0.014-3.333-0.814C435.432,155.102,434.201,153.932,433.154,152.39z M432.446,208.489
	c-4.602-2.304-8.2-5.144-10.81-8.509c-0.619-0.799-1.188-1.588-1.709-2.364c-1.193-1.867-4.883-8.62-3.173-18.617
	c1.005-4.139,3.005-9.179,6.956-13.359l4.352-3.65c-4.307,6.15-6.942,11.453-7.916,15.91c-0.969,4.459-0.935,8.496,0.108,12.103
	c0.692,2.404,2.125,5.208,4.303,8.407c2.174,3.201,5.085,6.016,8.732,8.449c3.647,2.433,7.658,4.166,12.027,5.205
	C441.335,211.988,437.044,210.798,432.446,208.489z"/>
<g>
	<path d="M491.564,127.788c1.75,0,3.951-0.08,6.613-0.242c2.658-0.16,4.33-0.242,5.018-0.242c0.217,7.435,0.293,15.137,0.239,23.102
		c-0.055,7.968-0.17,13.886-0.326,17.755c-0.169,3.869-0.467,10.222-0.902,19.06c-0.44,8.842-0.56,13.713-0.371,14.627
		c0.275,1.286,0.728,2.327,1.353,3.127c0.621,0.799,1.43,1.196,2.421,1.196c1.745,0,3.253-0.836,4.534-2.508
		c1.275-1.667,2.505-3.308,3.688-4.901c-0.369,3.299-1.694,6.174-3.978,8.625c-2.291,2.448-4.571,3.787-6.84,4.021
		c-2.27,0.228-3.724,0.362-4.354,0.401c-0.641,0.037-1.148,0.057-1.53,0.057c-1.895,0-3.517-0.379-4.852-1.141
		c-1.342-0.763-2.236-2.203-2.688-4.334c-1.26-5.932-1.464-13.746-0.602-23.442c0.866-9.695,1.339-17.039,1.422-22.019
		c0.078-4.98,0.173-10.247,0.286-15.8C490.805,139.578,491.092,133.799,491.564,127.788z M493.612,129.384
		c-0.438,5.088-0.726,12.76-0.862,23.012c-0.137,10.254-0.314,18.798-0.53,25.633c-0.221,6.835-0.504,15.687-0.853,26.545
		c0.147,1.749,0.799,3.039,1.964,3.873c1.161,0.838,2.579,1.25,4.251,1.25c1.445,0,2.601-0.258,3.479-0.795
		c-1.785-0.528-3.061-0.981-3.823-1.367c-0.763-0.376-1.252-1.062-1.461-2.049c-1.194-5.618-1.561-12.971-1.095-22.041
		c0.459-9.08,0.857-16.504,1.185-22.276c0.335-5.771,0.562-11.372,0.701-16.805c0.141-5.428,0.117-10.538-0.062-15.322
		L493.612,129.384z"/>
	<path d="M573.207,170.511c1.453-0.379,2.829-0.571,4.137-0.571c2.921,0,4.858,0.725,5.818,2.164
		c0.958,1.447,1.686,2.775,2.173,3.989c0.483,1.216,0.821,2.241,0.998,3.076c0.453,2.128,0.216,6.208-0.7,12.249
		c-0.92,6.037-1.08,10.461-0.482,13.271c0.213,0.99,1.151,1.481,2.82,1.481c1.366,0,2.412-0.267,3.133-0.8
		c1.44-1.822,2.913-3.645,4.424-5.469c-0.694,2.812-2.123,5.373-4.292,7.689c-2.167,2.319-4.768,3.477-7.805,3.477
		c-2.662,0-4.957-0.36-6.896-1.084c-1.939-0.721-3.222-1.836-3.848-3.359c-0.632-1.52-1.042-2.771-1.254-3.762
		c-0.585-2.734-0.476-6.95,0.33-12.646c0.8-5.694,0.896-9.983,0.281-12.874c-0.258-1.212-1.334-1.822-3.224-1.822
		c-0.917,0-2.221,1.16-3.923,3.478c-1.706,2.315-3.356,6.19-4.972,11.618c-1.605,5.434-3.168,12.246-4.675,20.451h-12.377
		c0.172-3.096,0.747-8.168,1.719-15.225c0.967-7.054,0.91-13.109-0.165-18.168c-0.189-0.902-1.047-1.355-2.562-1.355
		c-0.91,0-2.153,1.14-3.723,3.419c-1.562,2.276-3.141,5.583-4.729,9.911c-2.328,9.037-4.273,16.33-5.824,21.871h-11.85
		c-0.455-6.078-0.275-13.611,0.544-22.612c0.823-8.997,1.267-14.41,1.336-16.233c0.572-0.532,1.344-0.91,2.323-1.142
		c0.976-0.226,2.036-0.34,3.171-0.34c1.064,0,2.226,0.097,3.479,0.285c1.254,0.19,2.715,0.438,4.373,0.741
		c-0.167,3.493-0.316,7.252-0.452,11.279c-0.127,4.026-0.207,7.254-0.221,9.679c1.921-4.854,3.875-9.717,5.869-14.578
		c2.771-5.469,6.315-8.202,10.627-8.202c0.686,0,1.686,0.074,3.002,0.229c1.316,0.153,2.783,0.721,4.396,1.708
		c1.608,0.985,2.624,2.032,3.046,3.133c0.424,1.101,0.7,1.956,0.829,2.563c0.275,1.292,0.188,3.037-0.25,5.238
		c-0.444,2.205-0.54,3.914-0.276,5.127c0.081,0.385,0.2,0.953,0.356,1.709c1.79-3.873,3.578-7.746,5.367-11.619
		C565.681,174.307,568.988,171.649,573.207,170.511z M519.91,173.245c-0.297,2.888-0.662,7.255-1.093,13.101
		c-0.426,5.85-0.762,10.521-1.008,14.01c-0.247,3.498-0.398,6.345-0.463,8.547c0.415,0.537,0.891,0.796,1.422,0.796
		c0.851-0.302,1.452-0.488,1.814-0.565c0.345-4.102,0.871-9.76,1.575-16.975c0.708-7.217,1.103-13.33,1.174-18.34L519.91,173.245z
		 M544.47,175.182c1.183,0.534,1.816,1.375,1.906,2.515c0.288,7.089,0.327,12.535,0.11,16.347c-0.213,3.812-0.74,8.765-1.572,14.858
		c0.296,0.308,0.786,0.457,1.469,0.457c0.682,0,1.314-0.075,1.885-0.228c0.648-4.819,1.31-9.957,1.963-15.424
		c0.662-5.466,0.78-10.606,0.371-15.425c-0.061-0.994-0.534-1.874-1.417-2.639c-0.885-0.763-1.854-1.146-2.922-1.146
		C545.582,174.499,544.982,174.725,544.47,175.182z M572.035,173.817c0.77,1.29,1.29,2.58,1.562,3.873
		c0.342,1.594,0.385,3.949,0.139,7.062c-0.25,3.115-0.398,5.906-0.445,8.374c-0.046,2.471-0.07,5.637-0.084,9.514
		c0.387,1.822,1.328,3.399,2.826,4.728c1.497,1.327,3.046,1.993,4.64,1.993c0.608,0,1.032-0.149,1.272-0.457
		c-0.25-0.379-0.885-0.854-1.898-1.42c-1.016-0.57-1.628-1.144-1.83-1.711c-0.207-0.568-0.361-1.102-0.469-1.597
		c-0.102-0.493-0.18-0.854-0.229-1.084c-0.63-2.962-0.555-7.268,0.217-12.931c0.771-5.656,0.915-9.625,0.429-11.902l-0.288-1.367
		c-0.307-1.062-1.06-1.917-2.274-2.564C574.387,173.683,573.199,173.514,572.035,173.817z"/>
	<path d="M603.032,173.585c2.797-2.2,6.094-3.303,9.894-3.303c2.354,0,4.553,0.446,6.604,1.34c2.055,0.89,3.965,2.306,5.749,4.243
		c0.77-0.311,1.145-0.933,1.138-1.867c-0.01-0.933-0.118-1.71-0.326-2.333c1.272-0.467,2.738-0.696,4.414-0.696
		c0.91,0,2.287,0.074,4.149,0.224c1.852,0.153,3.194,0.228,4.026,0.228c-0.12,2.281-0.653,6.818-1.604,13.613
		c-0.947,6.8-0.81,13.086,0.422,18.854c0.289,1.37,1.271,2.049,2.938,2.049c0.61,0,1.252-0.111,1.924-0.34
		c0.675-0.229,1.312-0.701,1.921-1.425c0.604-0.719,1.114-1.612,1.532-2.676c0.424-1.063,0.72-1.899,0.896-2.508
		c0.425,1.995,0.266,3.756-0.467,5.291c-0.74,1.532-2.188,3.122-4.344,4.771c-2.153,1.648-4.604,2.468-7.333,2.468
		c-1.67,0-3.312-0.285-4.911-0.867c-1.607-0.574-2.845-1.575-3.716-3.002c-0.877-1.424-1.726-2.832-2.554-4.217
		c-1.624,2.354-3.549,4.291-5.771,5.809c-2.218,1.521-4.695,2.277-7.435,2.277c-1.589,0-3.756-0.433-6.48-1.309
		c-2.735-0.87-4.867-2.96-6.401-6.266c-1.542-3.307-2.542-6.059-3.014-8.262c-0.937-4.404-0.626-8.488,0.929-12.242
		C596.771,179.684,599.376,176.396,603.032,173.585z M608.852,172.562c-2.114,0.758-3.928,1.709-5.43,2.85
		c-1.509,1.137-2.95,2.829-4.335,5.068c-1.383,2.24-2.311,4.67-2.782,7.289c-0.467,2.621-0.401,5.336,0.195,8.145
		c0.744,3.497,2.252,6.84,4.523,10.025c0.624,0.078,1.73,0.571,3.337,1.484c1.596,0.909,2.661,1.364,3.191,1.364
		c0.529,0,0.97-0.265,1.311-0.793c-2.124-1.06-3.589-1.983-4.406-2.777c-0.815-0.792-1.491-1.827-2.027-3.112
		c-0.538-1.28-1.006-2.864-1.411-4.756c-1.039-4.9-0.843-9.522,0.591-13.863C603.032,179.146,605.453,175.505,608.852,172.562z
		 M616.213,174.499c-3.615,2.278-6.021,5.354-7.209,9.228c-1.19,3.871-1.258,8.278-0.211,13.213c0.355,1.672,0.78,3.232,1.28,4.672
		c0.494,1.443,1.316,2.64,2.465,3.592c1.154,0.949,2.301,1.423,3.444,1.423c0.603,0,2.019-0.759,4.238-2.276
		c2.223-1.521,3.72-4.652,4.497-9.4c0.777-4.744,0.433-10.573-1.04-17.487c-0.177-0.834-0.854-1.612-2.031-2.335
		c-1.179-0.721-2.374-1.082-3.598-1.082C617.297,174.043,616.684,174.193,616.213,174.499z M629.066,172.79
		c-1.545,5.586-2.501,10.998-2.87,16.244c-0.37,5.245,0.096,10.921,1.398,17.036c0.272,1.279,1.435,1.926,3.485,1.926
		c0.455,0,1.214,0,2.275,0c-0.534-0.383-1.069-0.764-1.611-1.143c-0.529-0.379-0.905-0.871-1.108-1.481
		c-0.206-0.608-0.378-1.251-0.524-1.937c-0.146-0.683-0.259-1.211-0.343-1.592c-1.077-5.093-1.077-10.729-0.002-16.921
		c1.072-6.188,1.678-10.235,1.807-12.133H629.066z"/>
</g>
</svg>
