<?xml version="1.0" encoding="utf-8"?>
<!-- Generator: Adobe Illustrator 15.0.0, SVG Export Plug-In . SVG Version: 6.00 Build 0)  -->
<!DOCTYPE svg PUBLIC "-//W3C//DTD SVG 1.1//EN" "http://www.w3.org/Graphics/SVG/1.1/DTD/svg11.dtd">
<svg version="1.1" id="Layer_1" xmlns="http://www.w3.org/2000/svg" xmlns:xlink="http://www.w3.org/1999/xlink" x="0px" y="0px"
	 width="378px" height="216px" viewBox="0 0 378 216" enable-background="new 0 0 378 216" xml:space="preserve">
<rect x="0.15" fill="#FFFFFF" width="378" height="216"/>
<g>
	<rect x="29.159" y="33.011" fill="none" width="312.749" height="21.5"/>
	<g enable-background="new    ">
		<path d="M38.816,33.371v1.926h-5.778v3.609h4.554v1.862h-4.554v3.682h5.778v1.935h-8.208V33.371H38.816z"/>
		<path d="M44.369,44.387h5.202v1.998h-7.623V33.371h2.421V44.387z"/>
		<path d="M59.106,41.583c0.087,0.207,0.172,0.416,0.256,0.626c0.084-0.222,0.171-0.437,0.261-0.644s0.186-0.406,0.288-0.599
			l3.843-7.209c0.048-0.09,0.099-0.162,0.153-0.216c0.054-0.055,0.113-0.093,0.176-0.117c0.063-0.024,0.133-0.039,0.211-0.045
			s0.171-0.009,0.279-0.009H66.4v13.014h-2.133v-8.406c0-0.155,0.004-0.327,0.013-0.513c0.009-0.186,0.022-0.375,0.041-0.567
			l-3.933,7.38c-0.186,0.354-0.471,0.531-0.855,0.531h-0.342c-0.384,0-0.669-0.177-0.855-0.531l-3.978-7.406
			c0.018,0.197,0.033,0.392,0.045,0.58c0.012,0.189,0.018,0.364,0.018,0.526v8.406h-2.133V33.371h1.827
			c0.108,0,0.201,0.003,0.279,0.009s0.148,0.021,0.211,0.045c0.063,0.024,0.12,0.062,0.171,0.117
			c0.051,0.054,0.101,0.126,0.148,0.216l3.897,7.227C58.925,41.177,59.02,41.376,59.106,41.583z"/>
		<path d="M81.44,46.385h-1.872c-0.21,0-0.381-0.053-0.513-0.157c-0.132-0.105-0.231-0.235-0.297-0.392l-0.972-2.655h-5.391
			l-0.972,2.655c-0.048,0.138-0.141,0.264-0.279,0.378c-0.138,0.114-0.309,0.171-0.513,0.171h-1.89l5.121-13.014h2.466L81.44,46.385
			z M73.016,41.471h4.149l-1.584-4.329c-0.078-0.191-0.159-0.418-0.243-0.68c-0.084-0.261-0.168-0.544-0.252-0.851
			c-0.084,0.307-0.167,0.592-0.248,0.855c-0.081,0.263-0.161,0.495-0.239,0.693L73.016,41.471z"/>
		<path d="M88.541,46.385V33.371h4.482c0.852,0,1.581,0.081,2.187,0.242c0.606,0.162,1.103,0.394,1.489,0.693
			c0.387,0.3,0.67,0.663,0.851,1.089c0.18,0.427,0.27,0.906,0.27,1.44c0,0.306-0.045,0.599-0.135,0.877
			c-0.09,0.279-0.229,0.54-0.418,0.783c-0.189,0.243-0.429,0.464-0.72,0.662c-0.291,0.197-0.638,0.365-1.04,0.504
			c1.788,0.401,2.682,1.367,2.682,2.897c0,0.553-0.105,1.062-0.315,1.53c-0.21,0.468-0.516,0.871-0.918,1.21
			c-0.402,0.34-0.897,0.605-1.485,0.797c-0.588,0.192-1.26,0.288-2.016,0.288h-4.914V46.385z M90.962,39.005h1.926
			c0.828,0,1.454-0.15,1.876-0.45c0.423-0.3,0.635-0.777,0.635-1.431c0-0.678-0.192-1.161-0.576-1.449
			c-0.384-0.288-0.984-0.432-1.8-0.432h-2.061V39.005z M90.962,40.679v3.816h2.448c0.45,0,0.828-0.055,1.134-0.162
			c0.306-0.108,0.55-0.252,0.733-0.433c0.183-0.18,0.315-0.39,0.396-0.63c0.081-0.239,0.122-0.495,0.122-0.765
			c0-0.282-0.045-0.535-0.135-0.761c-0.09-0.225-0.231-0.417-0.423-0.576c-0.192-0.158-0.439-0.28-0.743-0.364
			c-0.303-0.084-0.667-0.126-1.093-0.126h-2.439V40.679z"/>
		<path d="M109.592,33.371v1.926h-5.778v3.609h4.554v1.862h-4.554v3.682h5.778v1.935h-8.208V33.371H109.592z"/>
		<path d="M121.062,46.191c-0.747,0.225-1.546,0.337-2.398,0.337c-1.062,0-2.023-0.164-2.884-0.494
			c-0.861-0.33-1.596-0.789-2.205-1.377c-0.609-0.589-1.079-1.29-1.409-2.106c-0.33-0.816-0.495-1.707-0.495-2.673
			c0-0.979,0.159-1.875,0.477-2.691c0.318-0.815,0.77-1.518,1.354-2.105s1.294-1.044,2.128-1.368
			c0.834-0.324,1.77-0.486,2.808-0.486c0.528,0,1.021,0.042,1.48,0.126s0.885,0.2,1.278,0.347s0.751,0.325,1.075,0.535
			c0.324,0.211,0.621,0.441,0.891,0.693l-0.693,1.098c-0.108,0.175-0.249,0.281-0.423,0.32c-0.174,0.039-0.363-0.005-0.567-0.131
			c-0.198-0.114-0.396-0.229-0.594-0.342c-0.198-0.114-0.418-0.213-0.662-0.297c-0.244-0.084-0.516-0.153-0.819-0.207
			c-0.303-0.055-0.653-0.081-1.049-0.081c-0.642,0-1.222,0.107-1.741,0.323c-0.519,0.217-0.962,0.525-1.328,0.928
			c-0.366,0.401-0.648,0.885-0.846,1.448c-0.198,0.563-0.297,1.194-0.297,1.891c0,0.744,0.106,1.408,0.32,1.993
			c0.213,0.585,0.513,1.08,0.9,1.485c0.387,0.405,0.854,0.714,1.399,0.927c0.545,0.213,1.155,0.319,1.827,0.319
			c0.48,0,0.909-0.049,1.287-0.148s0.747-0.235,1.107-0.409v-2.367h-1.638c-0.156,0-0.278-0.043-0.365-0.131
			c-0.087-0.087-0.13-0.193-0.13-0.319v-1.368h4.32v5.266C122.513,45.61,121.809,45.966,121.062,46.191z"/>
		<path d="M137.483,46.385h-1.872c-0.21,0-0.381-0.053-0.513-0.157c-0.132-0.105-0.231-0.235-0.297-0.392l-0.972-2.655h-5.391
			l-0.972,2.655c-0.048,0.138-0.141,0.264-0.279,0.378c-0.138,0.114-0.309,0.171-0.513,0.171h-1.89l5.121-13.014h2.466
			L137.483,46.385z M129.059,41.471h4.149l-1.584-4.329c-0.078-0.191-0.159-0.418-0.243-0.68c-0.084-0.261-0.168-0.544-0.252-0.851
			c-0.084,0.307-0.167,0.592-0.248,0.855c-0.081,0.263-0.161,0.495-0.239,0.693L129.059,41.471z"/>
		<path d="M141.357,33.384c0.075,0.01,0.141,0.027,0.198,0.055c0.057,0.026,0.112,0.065,0.167,0.117
			c0.054,0.051,0.114,0.118,0.18,0.202l6.822,8.712c-0.018-0.21-0.033-0.417-0.045-0.621c-0.012-0.204-0.018-0.393-0.018-0.566
			v-7.911h2.133v13.014h-1.242c-0.192,0-0.353-0.031-0.482-0.095c-0.129-0.062-0.253-0.169-0.373-0.319l-6.795-8.667
			c0.018,0.192,0.032,0.383,0.041,0.571c0.009,0.189,0.014,0.361,0.014,0.518v7.992h-2.133V33.371h1.269
			C141.193,33.371,141.282,33.375,141.357,33.384z"/>
		<path d="M167.092,39.878c0,0.954-0.157,1.837-0.472,2.65s-0.761,1.517-1.337,2.11c-0.576,0.594-1.269,1.058-2.079,1.391
			s-1.71,0.499-2.7,0.499c-0.984,0-1.881-0.166-2.691-0.499s-1.504-0.797-2.083-1.391c-0.579-0.594-1.028-1.297-1.346-2.11
			c-0.318-0.813-0.477-1.696-0.477-2.65s0.159-1.838,0.477-2.65c0.318-0.813,0.767-1.517,1.346-2.11
			c0.579-0.595,1.273-1.058,2.083-1.391s1.707-0.5,2.691-0.5c0.66,0,1.281,0.077,1.863,0.229c0.582,0.153,1.116,0.369,1.602,0.648
			c0.486,0.278,0.923,0.618,1.31,1.017c0.387,0.399,0.716,0.845,0.986,1.337s0.475,1.025,0.616,1.602
			C167.022,38.637,167.092,39.242,167.092,39.878z M164.617,39.878c0-0.714-0.096-1.354-0.288-1.922
			c-0.192-0.566-0.465-1.048-0.819-1.444c-0.354-0.396-0.784-0.699-1.292-0.909c-0.507-0.21-1.079-0.314-1.714-0.314
			c-0.636,0-1.208,0.104-1.714,0.314c-0.507,0.21-0.939,0.514-1.296,0.909c-0.357,0.396-0.632,0.878-0.824,1.444
			c-0.192,0.567-0.288,1.208-0.288,1.922s0.096,1.354,0.288,1.921c0.192,0.567,0.466,1.048,0.824,1.44
			c0.356,0.393,0.789,0.694,1.296,0.904s1.078,0.315,1.714,0.315c0.636,0,1.208-0.105,1.714-0.315
			c0.507-0.21,0.938-0.512,1.292-0.904c0.354-0.392,0.627-0.873,0.819-1.44C164.521,41.232,164.617,40.592,164.617,39.878z"/>
		<path d="M168.244,33.371h1.944c0.21,0,0.381,0.051,0.513,0.152c0.132,0.103,0.231,0.234,0.297,0.396l3.069,7.938
			c0.102,0.259,0.199,0.542,0.292,0.851c0.093,0.31,0.181,0.632,0.266,0.968c0.066-0.336,0.142-0.658,0.229-0.968
			c0.087-0.309,0.181-0.592,0.283-0.851l3.051-7.938c0.048-0.138,0.142-0.264,0.283-0.378c0.141-0.114,0.313-0.171,0.518-0.171
			h1.953l-5.256,13.014H173.5L168.244,33.371z"/>
		<path d="M185.713,46.385h-2.43V33.371h2.43V46.385z"/>
		<path d="M198.547,43.315c0.133,0,0.249,0.052,0.352,0.153l0.953,1.035c-0.526,0.654-1.178,1.155-1.947,1.503
			c-0.771,0.348-1.696,0.521-2.776,0.521c-0.966,0-1.834-0.164-2.604-0.494c-0.771-0.33-1.431-0.789-1.977-1.377
			c-0.546-0.589-0.964-1.29-1.255-2.106c-0.291-0.816-0.437-1.707-0.437-2.673c0-0.979,0.156-1.874,0.468-2.687
			c0.312-0.813,0.752-1.514,1.317-2.102c0.566-0.588,1.244-1.046,2.029-1.373c0.786-0.326,1.656-0.49,2.61-0.49
			c0.948,0,1.79,0.156,2.524,0.468c0.733,0.312,1.359,0.721,1.877,1.225l-0.812,1.125c-0.048,0.072-0.108,0.135-0.185,0.188
			c-0.076,0.055-0.18,0.081-0.312,0.081c-0.09,0-0.183-0.025-0.278-0.076c-0.097-0.051-0.201-0.114-0.314-0.189
			c-0.114-0.074-0.246-0.157-0.396-0.247c-0.15-0.09-0.324-0.173-0.521-0.247c-0.198-0.075-0.428-0.139-0.688-0.188
			c-0.262-0.051-0.562-0.076-0.903-0.076c-0.582,0-1.115,0.104-1.599,0.311s-0.897,0.507-1.246,0.899
			c-0.349,0.394-0.618,0.873-0.811,1.44c-0.192,0.566-0.288,1.214-0.288,1.939c0,0.731,0.104,1.383,0.311,1.953
			c0.207,0.569,0.487,1.05,0.842,1.439c0.354,0.391,0.771,0.688,1.252,0.896c0.479,0.207,0.996,0.311,1.547,0.311
			c0.33,0,0.629-0.018,0.896-0.054s0.514-0.093,0.738-0.171s0.438-0.179,0.639-0.302c0.201-0.123,0.4-0.274,0.6-0.454
			c0.06-0.055,0.121-0.098,0.188-0.131C198.406,43.331,198.475,43.315,198.547,43.315z"/>
	</g>
</g>
<g>
	<rect x="28.158" y="68.379" fill="none" width="328.99" height="27.751"/>
	<g enable-background="new    ">
		<path d="M38.859,78.99c0.096,0,0.18,0.039,0.252,0.117l0.693,0.747c-0.528,0.611-1.168,1.089-1.921,1.431
			c-0.753,0.342-1.664,0.513-2.731,0.513c-0.924,0-1.764-0.16-2.52-0.481c-0.756-0.32-1.401-0.771-1.935-1.35
			c-0.534-0.579-0.948-1.273-1.242-2.084c-0.294-0.81-0.441-1.7-0.441-2.673c0-0.972,0.153-1.862,0.459-2.673
			c0.306-0.81,0.736-1.506,1.292-2.088c0.556-0.582,1.22-1.033,1.994-1.354c0.774-0.321,1.629-0.481,2.565-0.481
			c0.918,0,1.728,0.146,2.43,0.441c0.702,0.294,1.32,0.692,1.854,1.196l-0.576,0.802c-0.036,0.061-0.083,0.109-0.14,0.148
			s-0.133,0.059-0.229,0.059c-0.108,0-0.24-0.059-0.396-0.176c-0.156-0.117-0.36-0.248-0.612-0.392
			c-0.252-0.145-0.567-0.274-0.945-0.392c-0.378-0.117-0.843-0.176-1.395-0.176c-0.666,0-1.275,0.116-1.827,0.347
			c-0.552,0.231-1.028,0.565-1.427,1.004c-0.399,0.438-0.709,0.972-0.931,1.602c-0.222,0.63-0.333,1.341-0.333,2.133
			c0,0.805,0.115,1.521,0.346,2.151c0.231,0.63,0.546,1.162,0.945,1.598c0.399,0.435,0.87,0.767,1.413,0.994
			c0.543,0.229,1.13,0.342,1.76,0.342c0.384,0,0.73-0.022,1.04-0.067c0.309-0.045,0.594-0.115,0.855-0.211
			c0.261-0.097,0.504-0.218,0.729-0.365c0.225-0.146,0.448-0.322,0.67-0.526C38.655,79.035,38.757,78.99,38.859,78.99z"/>
		<path d="M54.483,75.21c0,0.967-0.153,1.853-0.459,2.66c-0.306,0.807-0.738,1.501-1.296,2.083s-1.229,1.034-2.012,1.354
			c-0.783,0.321-1.648,0.481-2.596,0.481c-0.948,0-1.812-0.16-2.592-0.481c-0.78-0.32-1.449-0.772-2.007-1.354
			s-0.99-1.276-1.296-2.083c-0.306-0.808-0.459-1.693-0.459-2.66c0-0.966,0.153-1.853,0.459-2.659
			c0.306-0.807,0.738-1.503,1.296-2.088s1.227-1.04,2.007-1.363c0.78-0.324,1.644-0.486,2.592-0.486
			c0.948,0,1.813,0.162,2.596,0.486c0.783,0.323,1.454,0.778,2.012,1.363s0.99,1.281,1.296,2.088
			C54.33,73.358,54.483,74.244,54.483,75.21z M52.692,75.21c0-0.792-0.108-1.503-0.324-2.133c-0.216-0.63-0.522-1.162-0.918-1.598
			c-0.396-0.435-0.876-0.77-1.44-1.003c-0.564-0.234-1.194-0.352-1.89-0.352c-0.69,0-1.317,0.117-1.881,0.352
			c-0.564,0.233-1.045,0.568-1.444,1.003c-0.399,0.436-0.707,0.968-0.922,1.598c-0.216,0.63-0.324,1.341-0.324,2.133
			s0.108,1.502,0.324,2.129s0.523,1.158,0.922,1.593c0.399,0.436,0.88,0.769,1.444,0.999c0.564,0.231,1.191,0.347,1.881,0.347
			c0.696,0,1.326-0.115,1.89-0.347c0.564-0.23,1.044-0.563,1.44-0.999c0.396-0.435,0.702-0.966,0.918-1.593
			C52.584,76.712,52.692,76.002,52.692,75.21z"/>
		<path d="M57.444,75.579h4.446v1.359h-4.446V75.579z"/>
		<path d="M73.59,68.757v1.423h-6.201v4.509h5.301v1.422h-5.301v5.544h-1.746V68.757H73.59z"/>
		<path d="M88.611,75.21c0,0.967-0.153,1.853-0.459,2.66c-0.306,0.807-0.738,1.501-1.296,2.083s-1.229,1.034-2.012,1.354
			c-0.783,0.321-1.648,0.481-2.596,0.481c-0.948,0-1.812-0.16-2.592-0.481c-0.78-0.32-1.449-0.772-2.007-1.354
			s-0.99-1.276-1.296-2.083c-0.306-0.808-0.459-1.693-0.459-2.66c0-0.966,0.153-1.853,0.459-2.659
			c0.306-0.807,0.738-1.503,1.296-2.088s1.227-1.04,2.007-1.363c0.78-0.324,1.644-0.486,2.592-0.486
			c0.948,0,1.813,0.162,2.596,0.486c0.783,0.323,1.454,0.778,2.012,1.363s0.99,1.281,1.296,2.088
			C88.458,73.358,88.611,74.244,88.611,75.21z M86.82,75.21c0-0.792-0.108-1.503-0.324-2.133c-0.216-0.63-0.522-1.162-0.918-1.598
			c-0.396-0.435-0.876-0.77-1.44-1.003c-0.564-0.234-1.194-0.352-1.89-0.352c-0.69,0-1.317,0.117-1.881,0.352
			c-0.564,0.233-1.045,0.568-1.444,1.003c-0.399,0.436-0.707,0.968-0.922,1.598c-0.216,0.63-0.324,1.341-0.324,2.133
			s0.108,1.502,0.324,2.129s0.523,1.158,0.922,1.593c0.399,0.436,0.88,0.769,1.444,0.999c0.564,0.231,1.191,0.347,1.881,0.347
			c0.696,0,1.326-0.115,1.89-0.347c0.564-0.23,1.044-0.563,1.44-0.999c0.396-0.435,0.702-0.966,0.918-1.593
			C86.712,76.712,86.82,76.002,86.82,75.21z"/>
		<path d="M97.071,80.269c0.534,0,1.011-0.09,1.431-0.271c0.42-0.18,0.775-0.432,1.066-0.756c0.291-0.324,0.513-0.711,0.666-1.161
			c0.153-0.45,0.229-0.944,0.229-1.484v-7.84h1.737v7.84c0,0.744-0.119,1.434-0.355,2.069c-0.237,0.637-0.576,1.187-1.017,1.651
			c-0.441,0.466-0.979,0.83-1.615,1.094c-0.636,0.264-1.35,0.396-2.142,0.396s-1.506-0.133-2.142-0.396
			c-0.636-0.263-1.176-0.628-1.62-1.094c-0.444-0.465-0.784-1.015-1.021-1.651c-0.237-0.636-0.355-1.325-0.355-2.069v-7.84h1.737
			v7.83c0,0.54,0.076,1.035,0.229,1.485c0.153,0.45,0.375,0.837,0.666,1.161c0.291,0.324,0.648,0.577,1.071,0.761
			C96.058,80.177,96.537,80.269,97.071,80.269z"/>
		<path d="M107.421,68.771c0.054,0.01,0.102,0.024,0.144,0.045s0.084,0.052,0.126,0.091c0.042,0.039,0.087,0.088,0.135,0.148
			l7.461,9.711c-0.012-0.156-0.022-0.308-0.031-0.455c-0.009-0.146-0.014-0.286-0.014-0.418v-9.136h1.53v12.897h-0.873
			c-0.138,0-0.254-0.023-0.347-0.072c-0.093-0.048-0.185-0.129-0.274-0.243l-7.461-9.711c0.012,0.15,0.021,0.298,0.027,0.441
			c0.006,0.143,0.009,0.276,0.009,0.396v9.189h-1.53V68.757h0.9C107.301,68.757,107.367,68.762,107.421,68.771z"/>
		<path d="M132.234,75.21c0,0.967-0.153,1.846-0.459,2.638s-0.738,1.47-1.296,2.033c-0.558,0.564-1.229,1.001-2.011,1.31
			c-0.783,0.31-1.648,0.464-2.597,0.464h-4.815V68.757h4.815c0.948,0,1.813,0.155,2.597,0.464c0.783,0.31,1.454,0.747,2.011,1.314
			c0.558,0.566,0.99,1.246,1.296,2.038S132.234,74.244,132.234,75.21z M130.443,75.21c0-0.792-0.108-1.5-0.324-2.124
			c-0.216-0.624-0.522-1.151-0.918-1.584c-0.396-0.432-0.876-0.762-1.44-0.989c-0.564-0.229-1.194-0.343-1.89-0.343h-3.069v10.071
			h3.069c0.696,0,1.326-0.114,1.89-0.342c0.564-0.229,1.044-0.557,1.44-0.985c0.396-0.428,0.702-0.956,0.918-1.58
			C130.335,76.71,130.443,76.002,130.443,75.21z"/>
		<path d="M143.682,68.757v1.423h-6.201v4.283h5.022v1.368h-5.022v4.401h6.21l-0.009,1.422h-7.947V68.757H143.682z"/>
		<path d="M148.856,76.272v5.382h-1.737V68.757h3.645c0.816,0,1.521,0.083,2.115,0.248c0.594,0.165,1.084,0.403,1.471,0.716
			c0.387,0.312,0.673,0.688,0.859,1.129s0.279,0.935,0.279,1.48c0,0.456-0.072,0.882-0.216,1.278s-0.353,0.751-0.625,1.066
			c-0.272,0.315-0.606,0.585-0.999,0.81c-0.393,0.226-0.838,0.392-1.336,0.5c0.228,0.144,0.42,0.327,0.576,0.549l3.762,5.121h-1.548
			c-0.318,0-0.552-0.123-0.702-0.369l-3.348-4.607c-0.102-0.145-0.211-0.248-0.329-0.311c-0.117-0.063-0.298-0.095-0.544-0.095
			H148.856L148.856,76.272z M148.856,75.003h1.836c0.504,0,0.949-0.062,1.336-0.185c0.387-0.122,0.711-0.297,0.972-0.521
			c0.261-0.225,0.458-0.493,0.59-0.806c0.132-0.312,0.198-0.657,0.198-1.035c0-0.768-0.252-1.347-0.756-1.736
			c-0.504-0.391-1.26-0.585-2.268-0.585h-1.908V75.003L148.856,75.003z"/>
		<path d="M176.9,75.21c0,0.967-0.153,1.853-0.459,2.66c-0.306,0.807-0.738,1.501-1.296,2.083s-1.229,1.034-2.012,1.354
			c-0.783,0.321-1.648,0.481-2.596,0.481c-0.948,0-1.812-0.16-2.592-0.481c-0.78-0.32-1.449-0.772-2.007-1.354
			s-0.99-1.276-1.296-2.083c-0.306-0.808-0.459-1.693-0.459-2.66c0-0.966,0.153-1.853,0.459-2.659
			c0.306-0.807,0.738-1.503,1.296-2.088s1.227-1.04,2.007-1.363c0.78-0.324,1.644-0.486,2.592-0.486
			c0.948,0,1.813,0.162,2.596,0.486c0.783,0.323,1.454,0.778,2.012,1.363s0.99,1.281,1.296,2.088
			C176.747,73.358,176.9,74.244,176.9,75.21z M175.109,75.21c0-0.792-0.108-1.503-0.324-2.133c-0.216-0.63-0.522-1.162-0.918-1.598
			c-0.396-0.435-0.876-0.77-1.44-1.003c-0.564-0.234-1.194-0.352-1.89-0.352c-0.69,0-1.317,0.117-1.881,0.352
			c-0.564,0.233-1.045,0.568-1.444,1.003c-0.399,0.436-0.707,0.968-0.922,1.598c-0.216,0.63-0.324,1.341-0.324,2.133
			s0.108,1.502,0.324,2.129s0.523,1.158,0.922,1.593c0.399,0.436,0.88,0.769,1.444,0.999c0.563,0.231,1.191,0.347,1.881,0.347
			c0.696,0,1.326-0.115,1.89-0.347c0.564-0.23,1.044-0.563,1.44-0.999c0.396-0.435,0.702-0.966,0.918-1.593
			C175.001,76.712,175.109,76.002,175.109,75.21z"/>
		<path d="M188.331,68.757v1.423h-6.201v4.509h5.301v1.422h-5.301v5.544h-1.746V68.757H188.331z"/>
		<path d="M206.618,81.654h-1.351c-0.156,0-0.281-0.039-0.377-0.117c-0.097-0.078-0.168-0.177-0.218-0.297l-1.205-3.114h-5.786
			l-1.207,3.114c-0.035,0.108-0.104,0.204-0.207,0.288s-0.229,0.126-0.377,0.126h-1.351l5.155-12.897h1.765L206.618,81.654z
			 M198.168,76.866h4.814l-2.025-5.247c-0.066-0.156-0.131-0.336-0.193-0.54c-0.062-0.204-0.127-0.423-0.193-0.657
			c-0.061,0.234-0.12,0.455-0.184,0.662c-0.064,0.207-0.129,0.389-0.193,0.544L198.168,76.866z"/>
		<path d="M215.861,77.447c0.065,0.158,0.132,0.316,0.197,0.472c0.061-0.162,0.123-0.322,0.188-0.481
			c0.065-0.158,0.139-0.311,0.216-0.454l4.374-7.929c0.072-0.139,0.151-0.223,0.238-0.252c0.088-0.03,0.209-0.046,0.364-0.046h1.287
			v12.897h-1.529v-9.477c0-0.126,0.003-0.262,0.009-0.405c0.006-0.145,0.017-0.291,0.026-0.441l-4.42,8.064
			c-0.137,0.27-0.348,0.405-0.629,0.405h-0.252c-0.283,0-0.492-0.136-0.631-0.405l-4.518-8.091c0.018,0.155,0.031,0.309,0.041,0.459
			c0.008,0.149,0.013,0.288,0.013,0.414v9.477h-1.53V68.757h1.287c0.156,0,0.276,0.016,0.36,0.046
			c0.084,0.029,0.165,0.113,0.243,0.252l4.455,7.938C215.727,77.137,215.795,77.288,215.861,77.447z"/>
		<path d="M228.748,76.272v5.382h-1.736V68.757h3.646c0.815,0,1.521,0.083,2.114,0.248c0.595,0.165,1.086,0.403,1.473,0.716
			c0.388,0.312,0.673,0.688,0.859,1.129s0.278,0.935,0.278,1.48c0,0.456-0.071,0.882-0.216,1.278s-0.354,0.751-0.626,1.066
			c-0.272,0.315-0.606,0.585-0.999,0.81c-0.393,0.226-0.838,0.392-1.336,0.5c0.229,0.144,0.42,0.327,0.576,0.549l3.762,5.121h-1.549
			c-0.317,0-0.551-0.123-0.701-0.369l-3.348-4.607c-0.104-0.145-0.213-0.248-0.329-0.311c-0.117-0.063-0.298-0.095-0.544-0.095
			H228.748L228.748,76.272z M228.748,75.003h1.837c0.504,0,0.949-0.062,1.337-0.185c0.387-0.122,0.711-0.297,0.971-0.521
			c0.262-0.225,0.459-0.493,0.59-0.806c0.134-0.312,0.199-0.657,0.199-1.035c0-0.768-0.252-1.347-0.757-1.736
			c-0.504-0.391-1.261-0.585-2.269-0.585h-1.908V75.003z"/>
		<path d="M249.764,81.654h-1.35c-0.156,0-0.282-0.039-0.379-0.117c-0.096-0.078-0.168-0.177-0.215-0.297l-1.207-3.114h-5.787
			l-1.205,3.114c-0.036,0.108-0.105,0.204-0.207,0.288c-0.104,0.084-0.229,0.126-0.379,0.126h-1.35l5.156-12.897h1.766
			L249.764,81.654z M241.312,76.866h4.814l-2.023-5.247c-0.066-0.156-0.131-0.336-0.194-0.54s-0.128-0.423-0.193-0.657
			c-0.06,0.234-0.122,0.455-0.185,0.662c-0.063,0.207-0.127,0.389-0.193,0.544L241.312,76.866z"/>
		<path d="M261.807,68.613c0.473,0,0.904,0.076,1.295,0.229c0.392,0.153,0.728,0.355,1.008,0.607
			c0.283,0.252,0.507,0.545,0.672,0.878c0.164,0.333,0.259,0.679,0.283,1.039l-1,0.198c-0.196,0.048-0.345-0.045-0.44-0.279
			c-0.041-0.156-0.108-0.317-0.201-0.485c-0.094-0.168-0.214-0.321-0.36-0.46c-0.146-0.138-0.324-0.252-0.53-0.342
			c-0.207-0.09-0.448-0.135-0.726-0.135c-0.3,0-0.57,0.048-0.813,0.144c-0.243,0.097-0.45,0.23-0.621,0.401
			c-0.171,0.171-0.302,0.372-0.392,0.603c-0.09,0.231-0.136,0.481-0.136,0.752c0,0.21,0.023,0.411,0.072,0.603
			c0.048,0.192,0.124,0.387,0.229,0.585c0.104,0.198,0.238,0.399,0.4,0.604c0.161,0.204,0.355,0.42,0.585,0.647l3.708,3.771
			c0.229-0.408,0.409-0.831,0.544-1.27c0.136-0.438,0.228-0.879,0.275-1.323c0.012-0.113,0.047-0.203,0.106-0.27
			c0.061-0.067,0.146-0.099,0.252-0.099h0.98c-0.006,0.689-0.115,1.366-0.328,2.029s-0.514,1.285-0.904,1.867l2.7,2.745h-1.558
			c-0.174,0-0.314-0.021-0.422-0.063c-0.108-0.041-0.227-0.129-0.353-0.261l-1.305-1.305c-0.563,0.546-1.214,0.978-1.949,1.296
			c-0.733,0.318-1.543,0.477-2.426,0.477c-0.479,0-0.949-0.08-1.408-0.242c-0.459-0.162-0.871-0.396-1.237-0.707
			c-0.365-0.309-0.66-0.686-0.881-1.129c-0.224-0.444-0.334-0.945-0.334-1.504c0-0.419,0.07-0.817,0.213-1.192
			c0.141-0.375,0.336-0.721,0.584-1.039c0.25-0.318,0.547-0.604,0.892-0.855s0.722-0.468,1.13-0.647
			c-0.373-0.462-0.645-0.912-0.814-1.351c-0.172-0.438-0.257-0.891-0.257-1.358c0-0.438,0.079-0.849,0.238-1.233
			c0.159-0.384,0.39-0.718,0.688-1.003c0.301-0.285,0.664-0.51,1.094-0.676C260.79,68.696,261.271,68.613,261.807,68.613z
			 M260.734,80.493c0.672,0,1.274-0.123,1.81-0.369s1.005-0.572,1.413-0.98l-3.807-3.843c-0.637,0.342-1.115,0.751-1.437,1.228
			c-0.321,0.478-0.481,0.998-0.481,1.562c0,0.391,0.072,0.734,0.217,1.031c0.144,0.297,0.332,0.547,0.566,0.751
			c0.233,0.204,0.5,0.358,0.801,0.464C260.117,80.44,260.423,80.493,260.734,80.493z"/>
		<path d="M284.801,68.757v1.423H278.6v4.283h5.021v1.368H278.6v4.401h6.211l-0.01,1.422h-7.947V68.757H284.801z"/>
		<path d="M289.975,80.188h5.58v1.467h-7.316V68.757h1.736V80.188L289.975,80.188z"/>
		<path d="M305.023,77.447c0.065,0.158,0.131,0.316,0.197,0.472c0.061-0.162,0.122-0.322,0.188-0.481
			c0.065-0.158,0.139-0.311,0.216-0.454L310,69.055c0.072-0.139,0.152-0.223,0.238-0.252c0.088-0.03,0.209-0.046,0.365-0.046h1.287
			v12.897h-1.531v-9.477c0-0.126,0.004-0.262,0.01-0.405c0.006-0.145,0.016-0.291,0.027-0.441l-4.42,8.064
			c-0.138,0.27-0.349,0.405-0.629,0.405h-0.253c-0.282,0-0.491-0.136-0.631-0.405l-4.519-8.091c0.019,0.155,0.031,0.309,0.041,0.459
			c0.009,0.149,0.014,0.288,0.014,0.414v9.477h-1.53V68.757h1.287c0.156,0,0.276,0.016,0.36,0.046
			c0.084,0.029,0.164,0.113,0.242,0.252l4.455,7.938C304.889,77.137,304.957,77.288,305.023,77.447z"/>
		<path d="M326.659,81.654h-1.351c-0.156,0-0.281-0.039-0.377-0.117c-0.097-0.078-0.168-0.177-0.218-0.297l-1.205-3.114h-5.786
			l-1.207,3.114c-0.035,0.108-0.104,0.204-0.207,0.288s-0.229,0.126-0.377,0.126h-1.351l5.155-12.897h1.765L326.659,81.654z
			 M318.209,76.866h4.814l-2.025-5.247c-0.066-0.156-0.131-0.336-0.193-0.54c-0.062-0.204-0.127-0.423-0.193-0.657
			c-0.061,0.234-0.12,0.455-0.184,0.662c-0.064,0.207-0.129,0.389-0.193,0.544L318.209,76.866z"/>
	</g>
</g>
<g>
	<rect x="57.662" y="109.614" fill="none" width="237.818" height="18.921"/>
	<g enable-background="new    ">
		<path d="M61.81,112.96c0.42,0,0.81,0.072,1.17,0.217c0.36,0.146,0.672,0.356,0.938,0.634c0.266,0.278,0.474,0.619,0.626,1.024
			c0.152,0.404,0.229,0.869,0.229,1.396c0,0.109-0.015,0.185-0.045,0.225s-0.08,0.061-0.15,0.061h-5.43v0.144
			c0,0.56,0.065,1.053,0.195,1.478c0.13,0.426,0.315,0.781,0.555,1.068c0.24,0.288,0.53,0.504,0.87,0.648
			c0.34,0.146,0.72,0.217,1.14,0.217c0.375,0,0.7-0.04,0.975-0.123c0.275-0.082,0.506-0.176,0.693-0.277s0.336-0.193,0.446-0.277
			c0.11-0.082,0.19-0.123,0.24-0.123c0.065,0,0.115,0.024,0.15,0.074l0.195,0.24c-0.12,0.15-0.279,0.29-0.476,0.42
			c-0.198,0.13-0.417,0.241-0.66,0.334c-0.242,0.094-0.502,0.166-0.78,0.221c-0.277,0.057-0.556,0.084-0.836,0.084
			c-0.51,0-0.975-0.09-1.395-0.268c-0.42-0.177-0.78-0.436-1.08-0.775c-0.3-0.341-0.531-0.757-0.693-1.248
			c-0.163-0.494-0.244-1.058-0.244-1.691c0-0.535,0.076-1.029,0.229-1.481c0.152-0.452,0.373-0.843,0.66-1.17
			s0.64-0.584,1.057-0.769C60.806,113.052,61.28,112.96,61.81,112.96z M61.817,113.492c-0.385,0-0.73,0.06-1.035,0.18
			c-0.305,0.12-0.569,0.293-0.792,0.518c-0.222,0.226-0.402,0.496-0.54,0.811c-0.137,0.314-0.229,0.668-0.273,1.059h4.95
			c0-0.399-0.056-0.76-0.168-1.076c-0.113-0.317-0.271-0.586-0.477-0.807c-0.205-0.221-0.449-0.389-0.731-0.507
			C62.468,113.551,62.157,113.492,61.817,113.492z"/>
		<path d="M67.502,109.63v10.912h-0.72V109.63H67.502z"/>
		<path d="M70.029,120.542v-7.463h0.397c0.125,0,0.198,0.062,0.218,0.188l0.067,1.08c0.29-0.416,0.623-0.75,0.998-1.006
			c0.375-0.255,0.797-0.382,1.268-0.382c0.545,0,0.981,0.157,1.309,0.472c0.327,0.315,0.549,0.754,0.664,1.312
			c0.09-0.305,0.216-0.569,0.379-0.795c0.163-0.225,0.349-0.411,0.559-0.559c0.21-0.148,0.439-0.257,0.687-0.326
			c0.248-0.07,0.501-0.104,0.761-0.104c0.37,0,0.702,0.062,0.998,0.185c0.295,0.121,0.545,0.304,0.75,0.543s0.362,0.535,0.472,0.886
			c0.11,0.35,0.165,0.75,0.165,1.2v4.77h-0.712v-4.77c0-0.73-0.158-1.287-0.473-1.67s-0.765-0.573-1.35-0.573
			c-0.26,0-0.509,0.048-0.746,0.143s-0.447,0.236-0.63,0.425c-0.183,0.188-0.328,0.42-0.435,0.7s-0.161,0.604-0.161,0.976v4.771
			h-0.72v-4.771c0-0.726-0.144-1.279-0.431-1.664c-0.288-0.387-0.708-0.578-1.264-0.578c-0.405,0-0.78,0.119-1.125,0.359
			c-0.345,0.24-0.652,0.572-0.922,0.998v5.654L70.029,120.542L70.029,120.542z"/>
		<path d="M86.694,120.542c-0.15,0-0.242-0.069-0.277-0.21l-0.105-0.952c-0.205,0.199-0.409,0.38-0.611,0.54
			c-0.203,0.159-0.414,0.295-0.634,0.404c-0.22,0.109-0.458,0.193-0.712,0.252c-0.255,0.057-0.535,0.086-0.84,0.086
			c-0.255,0-0.502-0.038-0.743-0.112c-0.24-0.075-0.454-0.19-0.641-0.346c-0.188-0.154-0.337-0.354-0.45-0.597
			c-0.112-0.241-0.168-0.533-0.168-0.873c0-0.314,0.09-0.607,0.27-0.877c0.18-0.271,0.462-0.506,0.847-0.705
			c0.385-0.2,0.879-0.36,1.481-0.48s1.326-0.189,2.171-0.21v-0.78c0-0.688-0.149-1.221-0.446-1.594
			c-0.298-0.372-0.739-0.559-1.324-0.559c-0.36,0-0.667,0.05-0.919,0.15c-0.252,0.1-0.466,0.209-0.641,0.329
			c-0.175,0.12-0.318,0.229-0.428,0.33s-0.203,0.149-0.277,0.149c-0.055,0-0.1-0.012-0.135-0.037
			c-0.035-0.025-0.065-0.059-0.09-0.098l-0.127-0.219c0.39-0.39,0.8-0.685,1.23-0.885s0.917-0.3,1.462-0.3
			c0.4,0,0.75,0.063,1.05,0.19c0.3,0.127,0.548,0.311,0.746,0.547c0.197,0.238,0.346,0.525,0.446,0.863s0.15,0.713,0.15,1.128v4.86
			h-0.285V120.542z M83.694,120.145c0.29,0,0.556-0.03,0.799-0.094c0.243-0.062,0.468-0.15,0.675-0.263s0.401-0.246,0.581-0.401
			c0.18-0.154,0.357-0.322,0.533-0.502v-1.941c-0.71,0.02-1.323,0.072-1.838,0.16c-0.515,0.088-0.938,0.207-1.271,0.356
			s-0.578,0.328-0.735,0.536c-0.158,0.207-0.236,0.443-0.236,0.708c0,0.25,0.041,0.467,0.124,0.649
			c0.083,0.182,0.192,0.332,0.33,0.449c0.138,0.117,0.296,0.203,0.476,0.258C83.312,120.117,83.5,120.145,83.694,120.145z"/>
		<path d="M89.364,120.542V109.63h0.72v4.747c0.325-0.439,0.705-0.786,1.14-1.039c0.435-0.252,0.94-0.378,1.515-0.378
			c0.45,0,0.853,0.082,1.208,0.247s0.656,0.402,0.904,0.713s0.436,0.689,0.566,1.145c0.13,0.451,0.195,0.966,0.195,1.541
			c0,0.604-0.073,1.155-0.218,1.652c-0.145,0.498-0.356,0.924-0.633,1.275c-0.278,0.353-0.617,0.625-1.017,0.816
			c-0.4,0.192-0.857,0.289-1.373,0.289c-0.53,0-0.982-0.102-1.357-0.304c-0.375-0.203-0.697-0.501-0.967-0.896l-0.045,0.914
			c-0.015,0.125-0.083,0.188-0.203,0.188H89.364z M92.537,113.529c-0.535,0-1,0.128-1.395,0.383s-0.748,0.609-1.057,1.064v3.938
			c0.29,0.432,0.607,0.73,0.952,0.904c0.345,0.173,0.738,0.259,1.178,0.259c0.445,0,0.833-0.08,1.166-0.24s0.61-0.389,0.833-0.687
			c0.223-0.297,0.389-0.658,0.499-1.084c0.11-0.426,0.165-0.902,0.165-1.433c0-1.03-0.205-1.806-0.615-2.325
			C93.852,113.789,93.277,113.529,92.537,113.529z"/>
		<path d="M105.242,119.132c-0.44,0-0.771-0.116-0.994-0.349c-0.223-0.233-0.339-0.566-0.349-1.001
			c-0.28,0.465-0.596,0.801-0.949,1.009c-0.353,0.207-0.734,0.311-1.144,0.311c-0.28,0-0.523-0.047-0.728-0.146
			s-0.375-0.231-0.51-0.401c-0.135-0.17-0.236-0.369-0.304-0.601c-0.067-0.229-0.101-0.478-0.101-0.742
			c0-0.425,0.081-0.853,0.244-1.278c0.163-0.428,0.4-0.812,0.712-1.154c0.312-0.344,0.696-0.621,1.151-0.836
			s0.972-0.323,1.552-0.323c0.265,0,0.514,0.022,0.747,0.067c0.232,0.045,0.441,0.109,0.626,0.194l-0.682,2.603
			c-0.12,0.461-0.178,0.834-0.173,1.117c0.005,0.285,0.053,0.508,0.143,0.664c0.09,0.157,0.211,0.264,0.364,0.315
			c0.152,0.052,0.316,0.078,0.491,0.078c0.285,0,0.558-0.074,0.817-0.226c0.26-0.149,0.49-0.363,0.69-0.642
			c0.2-0.276,0.359-0.612,0.477-1.009c0.117-0.395,0.176-0.837,0.176-1.327c0-0.74-0.122-1.388-0.364-1.938
			c-0.243-0.553-0.573-1.012-0.99-1.377c-0.417-0.363-0.904-0.637-1.458-0.816c-0.555-0.18-1.145-0.27-1.77-0.27
			c-0.685,0-1.334,0.133-1.946,0.396c-0.613,0.265-1.15,0.635-1.612,1.109c-0.463,0.476-0.83,1.041-1.103,1.698
			s-0.409,1.38-0.409,2.164c0,0.886,0.142,1.663,0.424,2.336c0.283,0.673,0.667,1.235,1.151,1.688
			c0.484,0.453,1.051,0.795,1.699,1.027c0.648,0.231,1.336,0.349,2.066,0.349c0.74,0,1.416-0.085,2.029-0.255
			c0.612-0.17,1.168-0.418,1.668-0.742c0.06-0.04,0.115-0.053,0.165-0.038c0.05,0.017,0.087,0.051,0.113,0.104l0.112,0.277
			c-0.56,0.37-1.176,0.655-1.849,0.855c-0.673,0.199-1.419,0.3-2.239,0.3c-0.825,0-1.595-0.132-2.31-0.394
			c-0.715-0.264-1.337-0.646-1.868-1.147c-0.53-0.503-0.947-1.12-1.252-1.853c-0.305-0.733-0.458-1.569-0.458-2.51
			c0-0.835,0.147-1.609,0.442-2.324c0.295-0.716,0.698-1.336,1.208-1.86c0.51-0.524,1.105-0.937,1.785-1.233
			c0.68-0.297,1.407-0.445,2.183-0.445c0.67,0,1.312,0.104,1.927,0.312c0.615,0.207,1.159,0.519,1.631,0.93
			c0.472,0.412,0.85,0.925,1.133,1.534c0.282,0.609,0.423,1.316,0.423,2.122c0,0.545-0.072,1.042-0.217,1.492
			s-0.344,0.837-0.596,1.159c-0.252,0.322-0.549,0.572-0.889,0.754C105.989,119.042,105.627,119.132,105.242,119.132z
			 M101.942,118.607c0.18,0,0.366-0.03,0.559-0.092c0.192-0.06,0.377-0.168,0.555-0.326c0.177-0.156,0.344-0.369,0.499-0.637
			c0.155-0.268,0.285-0.609,0.39-1.023l0.6-2.325c-0.12-0.034-0.244-0.062-0.371-0.078s-0.276-0.026-0.446-0.026
			c-0.45,0-0.859,0.092-1.227,0.273c-0.367,0.184-0.68,0.422-0.938,0.717c-0.257,0.295-0.458,0.626-0.6,0.993
			c-0.143,0.368-0.214,0.739-0.214,1.114c0,0.199,0.025,0.386,0.075,0.559c0.05,0.174,0.125,0.321,0.225,0.446
			c0.1,0.125,0.224,0.224,0.372,0.296C101.568,118.57,101.742,118.607,101.942,118.607z"/>
		<path d="M115.074,114.077c-0.025,0.024-0.049,0.046-0.071,0.063c-0.022,0.017-0.054,0.025-0.094,0.025
			c-0.05,0-0.118-0.034-0.203-0.102c-0.085-0.068-0.2-0.142-0.345-0.222c-0.145-0.079-0.326-0.153-0.544-0.222
			c-0.217-0.066-0.481-0.102-0.791-0.102c-0.43,0-0.812,0.076-1.144,0.229s-0.614,0.371-0.844,0.656
			c-0.23,0.284-0.404,0.63-0.521,1.034c-0.118,0.404-0.176,0.859-0.176,1.365c0,0.524,0.061,0.989,0.184,1.396
			c0.123,0.405,0.296,0.746,0.521,1.022c0.225,0.277,0.497,0.489,0.817,0.635c0.32,0.146,0.675,0.218,1.065,0.218
			c0.36,0,0.661-0.043,0.904-0.128c0.242-0.086,0.442-0.178,0.6-0.277c0.157-0.1,0.281-0.191,0.371-0.277
			c0.09-0.084,0.165-0.127,0.225-0.127s0.11,0.024,0.15,0.074l0.188,0.24c-0.115,0.15-0.26,0.29-0.435,0.42
			c-0.175,0.13-0.373,0.242-0.592,0.338c-0.22,0.096-0.459,0.168-0.716,0.221c-0.258,0.053-0.526,0.08-0.806,0.08
			c-0.475,0-0.909-0.087-1.301-0.26c-0.393-0.173-0.73-0.423-1.013-0.75c-0.283-0.327-0.502-0.729-0.66-1.204
			c-0.157-0.475-0.236-1.015-0.236-1.62c0-0.568,0.075-1.09,0.225-1.56s0.37-0.875,0.66-1.215c0.29-0.341,0.644-0.604,1.061-0.791
			c0.417-0.188,0.896-0.281,1.438-0.281c0.485,0,0.915,0.077,1.29,0.231s0.702,0.365,0.982,0.631L115.074,114.077z"/>
		<path d="M117.917,109.63v10.912h-0.72V109.63H117.917z"/>
		<path d="M121.082,113.079v4.771c0,0.7,0.16,1.25,0.48,1.646s0.807,0.596,1.462,0.596c0.485,0,0.938-0.124,1.357-0.371
			c0.419-0.246,0.797-0.591,1.132-1.031v-5.609h0.72v7.463h-0.397c-0.125,0-0.198-0.064-0.218-0.195l-0.067-1.108
			c-0.345,0.43-0.744,0.774-1.196,1.034c-0.453,0.261-0.956,0.391-1.511,0.391c-0.415,0-0.777-0.064-1.087-0.195
			c-0.31-0.13-0.567-0.316-0.772-0.562s-0.36-0.54-0.465-0.886c-0.105-0.345-0.158-0.734-0.158-1.17v-4.771h0.72V113.079z"/>
		<path d="M128.687,120.542V109.63h0.72v4.747c0.325-0.439,0.705-0.786,1.14-1.039c0.435-0.252,0.94-0.378,1.515-0.378
			c0.45,0,0.853,0.082,1.208,0.247s0.656,0.402,0.904,0.713s0.436,0.689,0.566,1.145c0.13,0.451,0.195,0.966,0.195,1.541
			c0,0.604-0.073,1.155-0.218,1.652c-0.145,0.498-0.356,0.924-0.633,1.275c-0.278,0.353-0.617,0.625-1.017,0.816
			c-0.4,0.192-0.857,0.289-1.373,0.289c-0.53,0-0.982-0.102-1.357-0.304c-0.375-0.203-0.697-0.501-0.967-0.896l-0.045,0.914
			c-0.015,0.125-0.083,0.188-0.203,0.188H128.687z M131.859,113.529c-0.535,0-1,0.128-1.395,0.383s-0.748,0.609-1.057,1.064v3.938
			c0.29,0.432,0.607,0.73,0.952,0.904c0.345,0.173,0.738,0.259,1.178,0.259c0.445,0,0.833-0.08,1.166-0.24s0.61-0.389,0.833-0.687
			c0.223-0.297,0.389-0.658,0.499-1.084c0.11-0.426,0.165-0.902,0.165-1.433c0-1.03-0.205-1.806-0.615-2.325
			C133.174,113.789,132.599,113.529,131.859,113.529z"/>
		<path d="M137.296,120.542v-6.683l-1.05-0.067c-0.14-0.015-0.21-0.077-0.21-0.188v-0.293h1.26v-0.943
			c0-0.426,0.055-0.799,0.165-1.121c0.11-0.323,0.265-0.592,0.465-0.807c0.2-0.215,0.439-0.377,0.72-0.483
			c0.28-0.106,0.59-0.161,0.93-0.161c0.155,0,0.311,0.014,0.469,0.041c0.157,0.027,0.298,0.066,0.424,0.116l-0.023,0.345
			c-0.01,0.045-0.031,0.074-0.063,0.086c-0.033,0.014-0.079,0.018-0.139,0.016s-0.138-0.01-0.232-0.021
			c-0.095-0.013-0.205-0.02-0.33-0.02c-0.245,0-0.472,0.037-0.679,0.108c-0.208,0.072-0.386,0.188-0.537,0.349
			c-0.15,0.16-0.266,0.369-0.349,0.627s-0.124,0.574-0.124,0.949v0.922h2.422v0.532h-2.4v6.697H137.296z"/>
		<path d="M146.477,120.542c-0.15,0-0.242-0.069-0.277-0.21l-0.105-0.952c-0.205,0.199-0.409,0.38-0.611,0.54
			c-0.203,0.159-0.414,0.295-0.634,0.404c-0.22,0.109-0.458,0.193-0.712,0.252c-0.255,0.057-0.535,0.086-0.84,0.086
			c-0.255,0-0.502-0.038-0.743-0.112c-0.24-0.075-0.454-0.19-0.641-0.346c-0.188-0.154-0.337-0.354-0.45-0.597
			c-0.112-0.241-0.168-0.533-0.168-0.873c0-0.314,0.09-0.607,0.27-0.877c0.18-0.271,0.462-0.506,0.847-0.705
			c0.385-0.2,0.879-0.36,1.481-0.48s1.326-0.189,2.171-0.21v-0.78c0-0.688-0.149-1.221-0.446-1.594
			c-0.298-0.372-0.739-0.559-1.324-0.559c-0.36,0-0.667,0.05-0.919,0.15c-0.252,0.1-0.466,0.209-0.641,0.329
			c-0.175,0.12-0.318,0.229-0.428,0.33s-0.203,0.149-0.277,0.149c-0.055,0-0.1-0.012-0.135-0.037s-0.065-0.059-0.09-0.098
			l-0.127-0.219c0.39-0.39,0.8-0.685,1.23-0.885c0.43-0.2,0.917-0.3,1.462-0.3c0.4,0,0.75,0.063,1.05,0.19
			c0.3,0.127,0.548,0.311,0.746,0.547c0.197,0.238,0.346,0.525,0.446,0.863c0.1,0.338,0.15,0.713,0.15,1.128v4.86h-0.285V120.542z
			 M143.477,120.145c0.29,0,0.556-0.03,0.799-0.094c0.243-0.062,0.468-0.15,0.675-0.263s0.401-0.246,0.581-0.401
			c0.18-0.154,0.357-0.322,0.533-0.502v-1.941c-0.71,0.02-1.323,0.072-1.838,0.16s-0.938,0.207-1.271,0.356
			s-0.578,0.328-0.735,0.536c-0.158,0.207-0.236,0.443-0.236,0.708c0,0.25,0.041,0.467,0.124,0.649
			c0.083,0.182,0.192,0.332,0.33,0.449s0.296,0.203,0.476,0.258C143.094,120.117,143.282,120.145,143.477,120.145z"/>
		<path d="M153.249,114.002c-0.04,0.07-0.098,0.105-0.172,0.105c-0.055,0-0.125-0.031-0.21-0.094s-0.199-0.134-0.341-0.211
			c-0.143-0.078-0.319-0.146-0.529-0.211c-0.21-0.062-0.465-0.094-0.765-0.094c-0.27,0-0.516,0.039-0.739,0.117
			c-0.223,0.076-0.413,0.181-0.57,0.311c-0.158,0.131-0.279,0.281-0.364,0.454s-0.127,0.354-0.127,0.544
			c0,0.234,0.06,0.43,0.18,0.585c0.12,0.154,0.276,0.287,0.469,0.397c0.192,0.109,0.414,0.205,0.664,0.285s0.503,0.16,0.761,0.238
			c0.257,0.08,0.511,0.17,0.761,0.268s0.471,0.219,0.664,0.363c0.192,0.146,0.349,0.322,0.469,0.532s0.18,0.466,0.18,0.765
			c0,0.326-0.058,0.629-0.172,0.908c-0.115,0.279-0.284,0.521-0.506,0.728c-0.223,0.205-0.497,0.368-0.821,0.487
			c-0.325,0.119-0.698,0.181-1.118,0.181c-0.525,0-0.978-0.084-1.357-0.251c-0.38-0.168-0.72-0.387-1.02-0.656l0.165-0.256
			c0.025-0.039,0.054-0.068,0.086-0.09c0.032-0.02,0.076-0.029,0.131-0.029c0.065,0,0.144,0.04,0.236,0.119
			c0.093,0.08,0.216,0.167,0.372,0.259c0.155,0.093,0.346,0.181,0.574,0.259c0.227,0.08,0.508,0.12,0.844,0.12
			c0.315,0,0.592-0.043,0.833-0.131c0.24-0.088,0.44-0.206,0.6-0.356c0.16-0.149,0.281-0.325,0.364-0.527
			c0.083-0.203,0.124-0.417,0.124-0.643c0-0.25-0.06-0.457-0.18-0.621c-0.12-0.166-0.277-0.307-0.473-0.422
			c-0.195-0.113-0.416-0.211-0.664-0.291c-0.248-0.08-0.501-0.16-0.761-0.24s-0.514-0.168-0.761-0.264
			c-0.248-0.095-0.469-0.215-0.664-0.358c-0.195-0.146-0.353-0.321-0.473-0.529c-0.12-0.207-0.18-0.466-0.18-0.776
			c0-0.265,0.058-0.52,0.173-0.765c0.115-0.245,0.278-0.46,0.491-0.646c0.212-0.186,0.471-0.332,0.776-0.442
			c0.305-0.108,0.647-0.164,1.028-0.164c0.455,0,0.858,0.063,1.211,0.194c0.353,0.13,0.674,0.33,0.964,0.601L153.249,114.002z"/>
		<path d="M155.521,120.542V109.63h0.72v4.718c0.345-0.426,0.739-0.763,1.181-1.013c0.442-0.25,0.938-0.375,1.489-0.375
			c0.41,0,0.771,0.063,1.083,0.194c0.312,0.13,0.571,0.316,0.776,0.562s0.36,0.54,0.465,0.886s0.158,0.734,0.158,1.17v4.771h-0.72
			v-4.771c0-0.699-0.16-1.248-0.48-1.646c-0.32-0.397-0.808-0.597-1.462-0.597c-0.49,0-0.945,0.123-1.365,0.371
			c-0.42,0.248-0.795,0.592-1.125,1.031v5.609L155.521,120.542L155.521,120.542z"/>
		<path d="M164.874,110.507c0,0.091-0.019,0.175-0.056,0.251c-0.038,0.078-0.086,0.146-0.146,0.207s-0.13,0.107-0.21,0.143
			s-0.165,0.053-0.255,0.053s-0.175-0.018-0.255-0.053c-0.08-0.034-0.15-0.082-0.21-0.143c-0.06-0.061-0.108-0.129-0.143-0.207
			c-0.035-0.076-0.053-0.16-0.053-0.251c0-0.09,0.018-0.176,0.053-0.259c0.035-0.082,0.083-0.153,0.143-0.214
			c0.06-0.06,0.13-0.107,0.21-0.144c0.08-0.033,0.165-0.052,0.255-0.052s0.175,0.019,0.255,0.052c0.08,0.035,0.15,0.084,0.21,0.144
			c0.06,0.061,0.109,0.132,0.146,0.214C164.855,110.331,164.874,110.417,164.874,110.507z M164.566,113.079v7.463h-0.712v-7.463
			H164.566z"/>
		<path d="M170.063,112.96c0.535,0,1.014,0.091,1.436,0.272c0.423,0.184,0.779,0.441,1.069,0.776s0.511,0.738,0.664,1.211
			c0.153,0.474,0.229,1.001,0.229,1.587c0,0.584-0.076,1.112-0.229,1.582c-0.152,0.471-0.374,0.872-0.664,1.207
			c-0.29,0.336-0.646,0.594-1.069,0.772c-0.422,0.181-0.901,0.271-1.436,0.271s-1.014-0.09-1.437-0.271
			c-0.422-0.181-0.78-0.438-1.072-0.772s-0.515-0.736-0.667-1.207c-0.153-0.47-0.229-0.998-0.229-1.582
			c0-0.586,0.076-1.113,0.229-1.587c0.152-0.473,0.375-0.876,0.667-1.211s0.65-0.594,1.072-0.776
			C169.05,113.051,169.528,112.96,170.063,112.96z M170.063,120.077c0.445,0,0.833-0.076,1.166-0.229
			c0.333-0.152,0.61-0.371,0.833-0.656c0.223-0.284,0.389-0.629,0.499-1.03c0.11-0.402,0.165-0.854,0.165-1.354
			c0-0.494-0.055-0.943-0.165-1.35c-0.11-0.405-0.276-0.751-0.499-1.039c-0.222-0.287-0.5-0.509-0.833-0.663
			c-0.333-0.155-0.721-0.231-1.166-0.231s-0.834,0.076-1.167,0.231c-0.333,0.154-0.61,0.376-0.833,0.663
			c-0.222,0.288-0.39,0.634-0.502,1.039c-0.112,0.404-0.168,0.854-0.168,1.35c0,0.5,0.056,0.952,0.168,1.354
			c0.113,0.401,0.28,0.746,0.502,1.03c0.223,0.285,0.5,0.504,0.833,0.656C169.229,120.001,169.618,120.077,170.063,120.077z"/>
		<path d="M175.479,120.542v-7.463h0.397c0.125,0,0.198,0.062,0.218,0.188l0.067,1.125c0.345-0.436,0.742-0.783,1.192-1.043
			s0.955-0.39,1.515-0.39c0.41,0,0.771,0.063,1.083,0.194c0.312,0.13,0.571,0.316,0.776,0.562s0.36,0.54,0.465,0.886
			s0.158,0.734,0.158,1.17v4.771h-0.72v-4.771c0-0.699-0.16-1.248-0.48-1.646c-0.32-0.397-0.808-0.597-1.462-0.597
			c-0.49,0-0.945,0.123-1.365,0.371c-0.42,0.248-0.795,0.592-1.125,1.031v5.609L175.479,120.542L175.479,120.542z"/>
		<path d="M184.831,110.507c0,0.091-0.019,0.175-0.056,0.251c-0.038,0.078-0.086,0.146-0.146,0.207s-0.13,0.107-0.21,0.143
			s-0.165,0.053-0.255,0.053s-0.175-0.018-0.255-0.053c-0.08-0.034-0.15-0.082-0.21-0.143c-0.06-0.061-0.108-0.129-0.143-0.207
			c-0.035-0.076-0.053-0.16-0.053-0.251c0-0.09,0.018-0.176,0.053-0.259c0.035-0.082,0.083-0.153,0.143-0.214
			c0.06-0.06,0.13-0.107,0.21-0.144c0.08-0.033,0.165-0.052,0.255-0.052s0.175,0.019,0.255,0.052c0.08,0.035,0.15,0.084,0.21,0.144
			c0.06,0.061,0.109,0.132,0.146,0.214C184.812,110.331,184.831,110.417,184.831,110.507z M184.523,113.079v7.463h-0.712v-7.463
			H184.523z"/>
		<path d="M191.168,114.002c-0.039,0.07-0.098,0.105-0.172,0.105c-0.055,0-0.125-0.031-0.21-0.094
			c-0.085-0.063-0.198-0.134-0.341-0.211c-0.144-0.078-0.319-0.146-0.529-0.211c-0.21-0.062-0.465-0.094-0.765-0.094
			c-0.27,0-0.516,0.039-0.739,0.117c-0.223,0.076-0.413,0.181-0.57,0.311c-0.158,0.131-0.279,0.281-0.364,0.454
			s-0.127,0.354-0.127,0.544c0,0.234,0.06,0.43,0.18,0.585c0.12,0.154,0.276,0.287,0.469,0.397c0.192,0.109,0.414,0.205,0.664,0.285
			s0.503,0.16,0.761,0.238c0.257,0.08,0.511,0.17,0.761,0.268s0.473,0.219,0.664,0.363c0.192,0.146,0.35,0.322,0.469,0.532
			c0.121,0.21,0.181,0.466,0.181,0.765c0,0.326-0.058,0.629-0.172,0.908c-0.115,0.279-0.284,0.521-0.507,0.728
			c-0.223,0.205-0.496,0.368-0.821,0.487c-0.324,0.119-0.697,0.181-1.117,0.181c-0.525,0-0.978-0.084-1.357-0.251
			c-0.38-0.168-0.72-0.387-1.02-0.656l0.165-0.256c0.025-0.039,0.054-0.068,0.086-0.09c0.032-0.02,0.076-0.029,0.131-0.029
			c0.065,0,0.144,0.04,0.236,0.119c0.093,0.08,0.216,0.167,0.372,0.259c0.155,0.093,0.346,0.181,0.574,0.259
			c0.227,0.08,0.508,0.12,0.844,0.12c0.315,0,0.593-0.043,0.833-0.131c0.238-0.088,0.439-0.206,0.6-0.356
			c0.161-0.149,0.281-0.325,0.363-0.527c0.082-0.203,0.124-0.417,0.124-0.643c0-0.25-0.06-0.457-0.181-0.621
			c-0.119-0.166-0.277-0.307-0.474-0.422c-0.194-0.113-0.416-0.211-0.663-0.291c-0.248-0.08-0.5-0.16-0.761-0.24
			c-0.26-0.08-0.514-0.168-0.761-0.264c-0.248-0.095-0.469-0.215-0.664-0.358c-0.195-0.146-0.353-0.321-0.473-0.529
			c-0.12-0.207-0.18-0.466-0.18-0.776c0-0.265,0.058-0.52,0.173-0.765c0.115-0.245,0.278-0.46,0.491-0.646
			c0.212-0.186,0.471-0.332,0.776-0.442c0.305-0.108,0.646-0.164,1.028-0.164c0.455,0,0.858,0.063,1.21,0.194
			c0.354,0.13,0.674,0.33,0.965,0.601L191.168,114.002z"/>
		<path d="M195.48,120.662c-0.506,0-0.898-0.141-1.183-0.42c-0.282-0.28-0.424-0.713-0.424-1.299v-5.1h-1.072
			c-0.055,0-0.1-0.016-0.135-0.045s-0.053-0.072-0.053-0.128v-0.276l1.274-0.09l0.18-2.671c0.011-0.045,0.031-0.085,0.062-0.12
			c0.029-0.035,0.072-0.053,0.127-0.053h0.338v2.85h2.355v0.533h-2.355v5.062c0,0.205,0.025,0.381,0.078,0.527
			c0.054,0.147,0.125,0.27,0.218,0.364c0.094,0.095,0.201,0.165,0.326,0.21s0.262,0.067,0.405,0.067c0.18,0,0.335-0.026,0.465-0.079
			s0.242-0.109,0.338-0.172c0.095-0.062,0.173-0.12,0.232-0.174c0.06-0.053,0.106-0.078,0.143-0.078c0.039,0,0.08,0.025,0.119,0.074
			l0.195,0.315c-0.189,0.21-0.433,0.378-0.724,0.506C196.098,120.596,195.795,120.662,195.48,120.662z"/>
		<path d="M203.168,120.542c-0.15,0-0.242-0.069-0.277-0.21l-0.104-0.952c-0.205,0.199-0.408,0.38-0.611,0.54
			c-0.202,0.159-0.413,0.295-0.633,0.404c-0.221,0.109-0.458,0.193-0.713,0.252c-0.255,0.057-0.535,0.086-0.84,0.086
			c-0.257,0-0.503-0.038-0.742-0.112c-0.24-0.075-0.454-0.19-0.642-0.346c-0.188-0.154-0.338-0.354-0.45-0.597
			c-0.112-0.241-0.169-0.533-0.169-0.873c0-0.314,0.091-0.607,0.271-0.877c0.181-0.271,0.464-0.506,0.849-0.705
			c0.385-0.2,0.879-0.36,1.479-0.48c0.604-0.12,1.326-0.189,2.172-0.21v-0.78c0-0.688-0.147-1.221-0.446-1.594
			c-0.297-0.372-0.738-0.559-1.322-0.559c-0.361,0-0.667,0.05-0.92,0.15c-0.252,0.1-0.467,0.209-0.641,0.329
			c-0.177,0.12-0.318,0.229-0.429,0.33c-0.108,0.101-0.203,0.149-0.276,0.149c-0.056,0-0.101-0.012-0.136-0.037
			c-0.034-0.025-0.065-0.059-0.09-0.098l-0.128-0.219c0.39-0.39,0.8-0.685,1.229-0.885c0.432-0.2,0.918-0.3,1.463-0.3
			c0.4,0,0.75,0.063,1.052,0.19c0.299,0.127,0.548,0.311,0.745,0.547c0.197,0.238,0.347,0.525,0.445,0.863
			c0.102,0.338,0.15,0.713,0.15,1.128v4.86h-0.285V120.542z M200.168,120.145c0.29,0,0.557-0.03,0.799-0.094
			c0.242-0.062,0.469-0.15,0.676-0.263s0.4-0.246,0.58-0.401c0.182-0.154,0.357-0.322,0.533-0.502v-1.941
			c-0.711,0.02-1.322,0.072-1.838,0.16s-0.938,0.207-1.271,0.356c-0.332,0.149-0.576,0.328-0.733,0.536
			c-0.158,0.207-0.236,0.443-0.236,0.708c0,0.25,0.041,0.467,0.123,0.649c0.083,0.183,0.193,0.332,0.33,0.449
			c0.14,0.117,0.297,0.203,0.478,0.258C199.785,120.117,199.973,120.145,200.168,120.145z"/>
		<path d="M205.666,119.965c0-0.096,0.018-0.186,0.052-0.271c0.035-0.084,0.084-0.157,0.146-0.221
			c0.062-0.062,0.135-0.113,0.218-0.149c0.082-0.037,0.174-0.058,0.273-0.058c0.095,0,0.186,0.021,0.27,0.058
			c0.086,0.036,0.159,0.088,0.223,0.149c0.062,0.062,0.111,0.137,0.148,0.221c0.038,0.086,0.057,0.176,0.057,0.271
			c0,0.1-0.019,0.19-0.057,0.273c-0.037,0.082-0.087,0.154-0.148,0.218c-0.062,0.063-0.137,0.11-0.223,0.146
			c-0.084,0.035-0.175,0.054-0.27,0.054c-0.195,0-0.359-0.066-0.491-0.198C205.73,120.323,205.666,120.159,205.666,119.965z"/>
		<path d="M214.357,114.077c-0.024,0.024-0.049,0.046-0.07,0.063c-0.023,0.018-0.055,0.025-0.094,0.025
			c-0.051,0-0.118-0.034-0.203-0.102c-0.086-0.068-0.199-0.142-0.346-0.222c-0.146-0.079-0.326-0.153-0.543-0.222
			c-0.218-0.066-0.481-0.102-0.791-0.102c-0.431,0-0.812,0.076-1.146,0.229c-0.332,0.151-0.613,0.371-0.845,0.656
			c-0.229,0.284-0.402,0.63-0.521,1.034s-0.177,0.859-0.177,1.365c0,0.524,0.062,0.989,0.184,1.396
			c0.123,0.405,0.297,0.746,0.521,1.022c0.224,0.277,0.498,0.489,0.818,0.635c0.318,0.146,0.674,0.218,1.063,0.218
			c0.358,0,0.661-0.043,0.903-0.128c0.242-0.086,0.441-0.178,0.601-0.277c0.157-0.1,0.281-0.191,0.371-0.277
			c0.09-0.084,0.165-0.127,0.226-0.127s0.109,0.024,0.149,0.074l0.188,0.24c-0.115,0.15-0.26,0.29-0.437,0.42
			c-0.175,0.13-0.372,0.242-0.592,0.338c-0.222,0.096-0.459,0.168-0.718,0.221c-0.258,0.053-0.524,0.08-0.805,0.08
			c-0.477,0-0.91-0.087-1.303-0.26s-0.73-0.423-1.012-0.75c-0.283-0.327-0.504-0.729-0.66-1.204
			c-0.158-0.475-0.236-1.015-0.236-1.62c0-0.568,0.074-1.09,0.225-1.56c0.152-0.47,0.371-0.875,0.66-1.215
			c0.291-0.341,0.645-0.604,1.062-0.791c0.418-0.188,0.896-0.281,1.438-0.281c0.483,0,0.914,0.077,1.289,0.231
			s0.703,0.365,0.981,0.631L214.357,114.077z"/>
		<path d="M219.227,112.96c0.533,0,1.014,0.091,1.437,0.272c0.422,0.184,0.778,0.441,1.067,0.776
			c0.291,0.335,0.513,0.738,0.664,1.211c0.152,0.474,0.229,1.001,0.229,1.587c0,0.584-0.076,1.112-0.229,1.582
			c-0.152,0.471-0.373,0.872-0.664,1.207c-0.289,0.336-0.646,0.594-1.067,0.772c-0.423,0.181-0.902,0.271-1.437,0.271
			c-0.535,0-1.015-0.09-1.438-0.271c-0.422-0.181-0.779-0.438-1.072-0.772s-0.516-0.736-0.668-1.207
			c-0.152-0.47-0.229-0.998-0.229-1.582c0-0.586,0.076-1.113,0.229-1.587c0.153-0.473,0.375-0.876,0.668-1.211
			s0.65-0.594,1.072-0.776C218.212,113.051,218.689,112.96,219.227,112.96z M219.227,120.077c0.443,0,0.832-0.076,1.166-0.229
			c0.332-0.152,0.609-0.371,0.832-0.656c0.224-0.284,0.39-0.629,0.498-1.03c0.11-0.402,0.166-0.854,0.166-1.354
			c0-0.494-0.056-0.943-0.166-1.35c-0.108-0.405-0.274-0.751-0.498-1.039c-0.223-0.287-0.5-0.509-0.832-0.663
			c-0.334-0.155-0.723-0.231-1.166-0.231c-0.445,0-0.834,0.076-1.168,0.231c-0.332,0.154-0.608,0.376-0.832,0.663
			c-0.223,0.288-0.39,0.634-0.502,1.039c-0.113,0.404-0.168,0.854-0.168,1.35c0,0.5,0.055,0.952,0.168,1.354
			c0.112,0.401,0.279,0.746,0.502,1.03c0.224,0.285,0.5,0.504,0.832,0.656C218.393,120.001,218.779,120.077,219.227,120.077z"/>
		<path d="M224.641,120.542v-7.463h0.396c0.125,0,0.197,0.062,0.219,0.188l0.066,1.08c0.291-0.416,0.623-0.75,0.998-1.006
			c0.375-0.255,0.797-0.382,1.268-0.382c0.545,0,0.98,0.157,1.309,0.472c0.328,0.315,0.549,0.754,0.664,1.312
			c0.09-0.305,0.217-0.569,0.379-0.795c0.162-0.225,0.349-0.411,0.56-0.559c0.209-0.147,0.438-0.257,0.687-0.326
			c0.248-0.07,0.502-0.104,0.762-0.104c0.369,0,0.701,0.062,0.998,0.185c0.295,0.121,0.545,0.304,0.75,0.543
			c0.203,0.239,0.361,0.535,0.472,0.886c0.11,0.35,0.165,0.75,0.165,1.2v4.77h-0.713v-4.77c0-0.73-0.157-1.287-0.473-1.67
			c-0.314-0.383-0.765-0.573-1.351-0.573c-0.26,0-0.509,0.048-0.746,0.143s-0.446,0.236-0.63,0.425
			c-0.184,0.188-0.327,0.42-0.436,0.7c-0.107,0.28-0.161,0.604-0.161,0.976v4.771h-0.72v-4.771c0-0.726-0.145-1.279-0.432-1.664
			c-0.288-0.387-0.709-0.578-1.264-0.578c-0.406,0-0.781,0.119-1.125,0.359c-0.346,0.24-0.652,0.572-0.924,0.998v5.654
			L224.641,120.542L224.641,120.542z"/>
	</g>
</g>
<g>
	<rect x="58.321" y="138.939" fill="none" width="237.16" height="18.92"/>
	<g enable-background="new    ">
		<path d="M58.696,142.404h0.54c0.07,0,0.127,0.021,0.172,0.058c0.045,0.037,0.075,0.079,0.09,0.124l1.882,5.889
			c0.03,0.113,0.056,0.226,0.079,0.332c0.023,0.107,0.044,0.215,0.064,0.319c0.025-0.104,0.054-0.212,0.086-0.319
			c0.033-0.106,0.069-0.219,0.109-0.332l1.995-5.94c0.035-0.11,0.105-0.165,0.21-0.165h0.292c0.11,0,0.183,0.055,0.217,0.165
			l1.98,5.94c0.035,0.113,0.066,0.225,0.094,0.328c0.028,0.105,0.054,0.213,0.079,0.323c0.025-0.104,0.049-0.212,0.071-0.319
			c0.022-0.106,0.051-0.219,0.086-0.332l1.897-5.889c0.02-0.057,0.053-0.1,0.098-0.132c0.045-0.032,0.098-0.05,0.158-0.05h0.517
			l-2.49,7.464h-0.533c-0.085,0-0.142-0.054-0.172-0.157l-2.04-6.061c-0.025-0.075-0.047-0.149-0.067-0.226
			c-0.02-0.075-0.038-0.147-0.053-0.218c-0.015,0.075-0.031,0.148-0.048,0.223c-0.018,0.071-0.039,0.146-0.064,0.221l-2.07,6.061
			c-0.03,0.104-0.09,0.157-0.18,0.157h-0.51L58.696,142.404z"/>
		<path d="M70.164,142.404h0.54c0.07,0,0.127,0.021,0.172,0.058s0.075,0.079,0.09,0.124l1.882,5.889
			c0.03,0.113,0.056,0.226,0.079,0.332c0.023,0.107,0.044,0.215,0.064,0.319c0.025-0.104,0.054-0.212,0.086-0.319
			c0.033-0.106,0.069-0.219,0.109-0.332l1.995-5.94c0.035-0.11,0.105-0.165,0.21-0.165h0.292c0.11,0,0.183,0.055,0.217,0.165
			l1.98,5.94c0.035,0.113,0.066,0.225,0.094,0.328c0.028,0.105,0.054,0.213,0.079,0.323c0.025-0.104,0.049-0.212,0.071-0.319
			c0.022-0.106,0.051-0.219,0.086-0.332l1.897-5.889c0.02-0.057,0.053-0.1,0.098-0.132s0.098-0.05,0.158-0.05h0.517l-2.49,7.464
			h-0.533c-0.085,0-0.142-0.054-0.172-0.157l-2.04-6.061c-0.025-0.075-0.047-0.149-0.067-0.226c-0.02-0.075-0.038-0.147-0.053-0.218
			c-0.015,0.075-0.031,0.148-0.048,0.223c-0.018,0.071-0.039,0.146-0.064,0.221l-2.07,6.061c-0.03,0.104-0.09,0.157-0.18,0.157
			h-0.51L70.164,142.404z"/>
		<path d="M81.631,142.404h0.54c0.07,0,0.127,0.021,0.172,0.058c0.045,0.037,0.075,0.079,0.09,0.124l1.882,5.889
			c0.03,0.113,0.056,0.226,0.079,0.332c0.023,0.107,0.044,0.215,0.064,0.319c0.025-0.104,0.054-0.212,0.086-0.319
			c0.033-0.106,0.069-0.219,0.109-0.332l1.995-5.94c0.035-0.11,0.105-0.165,0.21-0.165h0.292c0.11,0,0.183,0.055,0.217,0.165
			l1.98,5.94c0.035,0.113,0.066,0.225,0.094,0.328c0.028,0.105,0.054,0.213,0.079,0.323c0.025-0.104,0.049-0.212,0.071-0.319
			c0.022-0.106,0.051-0.219,0.086-0.332l1.897-5.889c0.02-0.057,0.053-0.1,0.098-0.132s0.098-0.05,0.158-0.05h0.517l-2.49,7.464
			h-0.533c-0.085,0-0.142-0.054-0.172-0.157l-2.04-6.061c-0.025-0.075-0.047-0.149-0.067-0.226c-0.02-0.075-0.038-0.147-0.053-0.218
			c-0.015,0.075-0.031,0.148-0.048,0.223c-0.018,0.071-0.039,0.146-0.064,0.221l-2.07,6.061c-0.03,0.104-0.09,0.157-0.18,0.157
			h-0.51L81.631,142.404z"/>
		<path d="M93.458,149.291c0-0.096,0.018-0.186,0.052-0.271c0.035-0.084,0.084-0.158,0.146-0.221
			c0.062-0.062,0.135-0.113,0.217-0.15s0.174-0.057,0.274-0.057c0.095,0,0.185,0.02,0.27,0.057s0.159,0.088,0.221,0.15
			s0.112,0.137,0.15,0.221c0.038,0.086,0.056,0.176,0.056,0.271c0,0.1-0.019,0.189-0.056,0.273c-0.038,0.082-0.087,0.154-0.15,0.218
			s-0.136,0.11-0.221,0.146s-0.175,0.053-0.27,0.053c-0.195,0-0.359-0.065-0.491-0.197
			C93.524,149.648,93.458,149.484,93.458,149.291z"/>
		<path d="M102.151,143.402c-0.025,0.025-0.049,0.047-0.071,0.063s-0.054,0.026-0.094,0.026c-0.05,0-0.118-0.034-0.203-0.102
			c-0.085-0.068-0.2-0.142-0.345-0.222s-0.326-0.153-0.544-0.222c-0.217-0.067-0.481-0.102-0.791-0.102
			c-0.43,0-0.812,0.076-1.144,0.229s-0.614,0.37-0.844,0.655c-0.23,0.285-0.404,0.631-0.521,1.035
			c-0.118,0.404-0.176,0.859-0.176,1.364c0,0.525,0.061,0.99,0.184,1.396c0.123,0.406,0.296,0.746,0.521,1.023
			s0.497,0.489,0.817,0.635s0.675,0.217,1.065,0.217c0.36,0,0.661-0.043,0.904-0.127c0.242-0.086,0.442-0.178,0.6-0.277
			c0.157-0.1,0.281-0.191,0.371-0.277c0.09-0.085,0.165-0.128,0.225-0.128s0.11,0.025,0.15,0.075l0.188,0.24
			c-0.115,0.15-0.26,0.289-0.435,0.42c-0.175,0.13-0.373,0.242-0.592,0.338c-0.22,0.095-0.459,0.168-0.716,0.221
			c-0.258,0.053-0.526,0.079-0.806,0.079c-0.475,0-0.909-0.086-1.301-0.259c-0.393-0.173-0.73-0.423-1.013-0.75
			c-0.283-0.327-0.502-0.729-0.66-1.204c-0.157-0.476-0.236-1.015-0.236-1.62c0-0.568,0.075-1.09,0.225-1.561
			c0.15-0.469,0.37-0.875,0.66-1.215s0.644-0.604,1.061-0.791c0.417-0.187,0.896-0.28,1.437-0.28c0.485,0,0.915,0.077,1.29,0.231
			s0.702,0.364,0.982,0.631L102.151,143.402z"/>
		<path d="M104.994,138.956v10.912h-0.72v-10.912H104.994z"/>
		<path d="M108.159,142.404v4.771c0,0.7,0.16,1.249,0.48,1.646c0.32,0.396,0.807,0.596,1.462,0.596c0.485,0,0.938-0.124,1.357-0.371
			s0.797-0.591,1.132-1.031v-5.609h0.72v7.463h-0.397c-0.125,0-0.198-0.064-0.218-0.195l-0.067-1.109
			c-0.345,0.431-0.744,0.774-1.196,1.035c-0.453,0.26-0.956,0.391-1.511,0.391c-0.415,0-0.777-0.065-1.087-0.195
			s-0.567-0.316-0.772-0.562c-0.205-0.244-0.36-0.539-0.465-0.885c-0.105-0.345-0.158-0.734-0.158-1.17v-4.771h0.72V142.404z"/>
		<path d="M115.763,149.868v-10.912h0.72v4.747c0.325-0.439,0.705-0.786,1.14-1.039c0.435-0.252,0.94-0.378,1.515-0.378
			c0.45,0,0.853,0.082,1.208,0.247c0.355,0.164,0.656,0.402,0.904,0.713s0.436,0.689,0.566,1.145
			c0.13,0.451,0.195,0.965,0.195,1.541c0,0.604-0.073,1.155-0.218,1.652c-0.145,0.498-0.356,0.923-0.633,1.275
			c-0.278,0.353-0.617,0.625-1.017,0.816c-0.4,0.192-0.857,0.289-1.373,0.289c-0.53,0-0.982-0.102-1.357-0.304
			c-0.375-0.203-0.697-0.501-0.967-0.896l-0.045,0.914c-0.015,0.125-0.083,0.188-0.203,0.188H115.763z M118.936,142.855
			c-0.535,0-1,0.127-1.395,0.383c-0.395,0.255-0.748,0.609-1.057,1.063v3.938c0.29,0.431,0.607,0.73,0.952,0.904
			c0.345,0.172,0.738,0.258,1.178,0.258c0.445,0,0.833-0.079,1.166-0.239s0.61-0.39,0.833-0.687
			c0.223-0.297,0.389-0.658,0.499-1.084c0.11-0.426,0.165-0.902,0.165-1.433c0-1.03-0.205-1.806-0.615-2.325
			C120.25,143.115,119.676,142.855,118.936,142.855z"/>
		<path d="M124.374,149.868v-6.683l-1.05-0.067c-0.14-0.015-0.21-0.077-0.21-0.188v-0.293h1.26v-0.943
			c0-0.426,0.055-0.799,0.165-1.121c0.11-0.323,0.265-0.592,0.465-0.807c0.2-0.216,0.439-0.377,0.72-0.483
			c0.28-0.107,0.59-0.161,0.93-0.161c0.155,0,0.311,0.014,0.469,0.041c0.157,0.027,0.298,0.066,0.424,0.115l-0.023,0.346
			c-0.01,0.045-0.031,0.074-0.063,0.086c-0.033,0.014-0.079,0.018-0.139,0.016c-0.06-0.002-0.138-0.01-0.232-0.021
			c-0.095-0.014-0.205-0.02-0.33-0.02c-0.245,0-0.472,0.036-0.679,0.108c-0.208,0.072-0.386,0.188-0.537,0.349
			c-0.15,0.16-0.266,0.369-0.349,0.627s-0.124,0.573-0.124,0.948v0.923h2.422v0.532h-2.4v6.697H124.374L124.374,149.868z"/>
		<path d="M133.553,149.868c-0.15,0-0.242-0.07-0.277-0.21l-0.105-0.952c-0.205,0.198-0.409,0.38-0.611,0.54
			c-0.203,0.158-0.414,0.295-0.634,0.404c-0.22,0.109-0.458,0.193-0.712,0.252c-0.255,0.057-0.535,0.086-0.84,0.086
			c-0.255,0-0.502-0.038-0.743-0.112c-0.24-0.075-0.454-0.19-0.641-0.347c-0.188-0.153-0.337-0.354-0.45-0.596
			c-0.112-0.242-0.168-0.533-0.168-0.873c0-0.314,0.09-0.607,0.27-0.877c0.18-0.271,0.462-0.507,0.847-0.705
			c0.385-0.201,0.879-0.36,1.481-0.48s1.326-0.189,2.171-0.21v-0.78c0-0.689-0.149-1.221-0.446-1.594
			c-0.298-0.372-0.739-0.559-1.324-0.559c-0.36,0-0.667,0.05-0.919,0.149c-0.252,0.101-0.466,0.21-0.641,0.33
			s-0.318,0.229-0.428,0.33c-0.11,0.101-0.203,0.149-0.277,0.149c-0.055,0-0.1-0.013-0.135-0.037
			c-0.035-0.025-0.065-0.059-0.09-0.098l-0.127-0.219c0.39-0.391,0.8-0.686,1.23-0.885c0.43-0.2,0.917-0.301,1.462-0.301
			c0.4,0,0.75,0.063,1.05,0.191c0.3,0.127,0.548,0.311,0.746,0.547c0.197,0.238,0.346,0.525,0.446,0.863
			c0.1,0.337,0.15,0.713,0.15,1.128v4.86h-0.285V149.868z M130.553,149.471c0.29,0,0.556-0.031,0.799-0.094s0.468-0.15,0.675-0.263
			s0.401-0.246,0.581-0.401c0.18-0.154,0.357-0.322,0.533-0.502v-1.941c-0.71,0.02-1.323,0.072-1.838,0.16
			c-0.515,0.088-0.938,0.206-1.271,0.356c-0.333,0.149-0.578,0.328-0.735,0.536c-0.158,0.207-0.236,0.443-0.236,0.707
			c0,0.25,0.041,0.468,0.124,0.65c0.083,0.182,0.192,0.331,0.33,0.449c0.138,0.117,0.296,0.203,0.476,0.258
			C130.171,149.443,130.358,149.471,130.553,149.471z"/>
		<path d="M140.326,143.328c-0.04,0.07-0.098,0.105-0.172,0.105c-0.055,0-0.125-0.031-0.21-0.095
			c-0.085-0.062-0.199-0.133-0.341-0.21c-0.143-0.078-0.319-0.146-0.529-0.211c-0.21-0.062-0.465-0.094-0.765-0.094
			c-0.27,0-0.516,0.039-0.739,0.117c-0.223,0.076-0.413,0.181-0.57,0.311c-0.158,0.13-0.279,0.281-0.364,0.454
			c-0.085,0.173-0.127,0.354-0.127,0.544c0,0.234,0.06,0.43,0.18,0.585c0.12,0.154,0.276,0.287,0.469,0.397
			c0.192,0.108,0.414,0.205,0.664,0.285s0.503,0.16,0.761,0.238c0.257,0.08,0.511,0.169,0.761,0.268
			c0.25,0.098,0.471,0.219,0.664,0.363c0.192,0.146,0.349,0.322,0.469,0.532s0.18,0.465,0.18,0.765c0,0.325-0.058,0.629-0.172,0.907
			c-0.115,0.28-0.284,0.522-0.506,0.728c-0.223,0.205-0.497,0.369-0.821,0.488c-0.325,0.119-0.698,0.18-1.118,0.18
			c-0.525,0-0.978-0.084-1.357-0.25c-0.38-0.168-0.72-0.387-1.02-0.656l0.165-0.256c0.025-0.039,0.054-0.069,0.086-0.09
			c0.032-0.021,0.076-0.029,0.131-0.029c0.065,0,0.144,0.04,0.236,0.119c0.093,0.08,0.216,0.167,0.372,0.259
			c0.155,0.093,0.346,0.181,0.574,0.259c0.227,0.08,0.508,0.12,0.844,0.12c0.315,0,0.592-0.043,0.833-0.131
			c0.24-0.088,0.44-0.206,0.6-0.356c0.16-0.149,0.281-0.326,0.364-0.527c0.083-0.203,0.124-0.417,0.124-0.643
			c0-0.25-0.06-0.457-0.18-0.621c-0.12-0.166-0.277-0.307-0.473-0.422c-0.195-0.113-0.416-0.212-0.664-0.291
			c-0.248-0.08-0.501-0.16-0.761-0.24c-0.26-0.08-0.514-0.168-0.761-0.264c-0.248-0.095-0.469-0.215-0.664-0.359
			c-0.195-0.146-0.353-0.32-0.473-0.528c-0.12-0.207-0.18-0.466-0.18-0.776c0-0.265,0.058-0.52,0.173-0.765
			c0.115-0.245,0.278-0.46,0.491-0.646c0.212-0.186,0.471-0.332,0.776-0.442c0.305-0.109,0.647-0.164,1.028-0.164
			c0.455,0,0.858,0.063,1.211,0.194c0.353,0.129,0.674,0.33,0.964,0.601L140.326,143.328z"/>
		<path d="M142.598,149.868v-10.912h0.72v4.717c0.345-0.425,0.739-0.762,1.181-1.012s0.938-0.375,1.489-0.375
			c0.41,0,0.771,0.063,1.083,0.194c0.312,0.129,0.571,0.316,0.776,0.562c0.205,0.245,0.36,0.54,0.465,0.885
			c0.105,0.347,0.158,0.735,0.158,1.171v4.771h-0.72v-4.771c0-0.699-0.16-1.248-0.48-1.646s-0.808-0.597-1.462-0.597
			c-0.49,0-0.945,0.123-1.365,0.371s-0.795,0.592-1.125,1.03v5.61L142.598,149.868L142.598,149.868z"/>
		<path d="M151.951,139.833c0,0.09-0.019,0.174-0.056,0.251c-0.038,0.078-0.086,0.146-0.146,0.207s-0.13,0.107-0.21,0.143
			c-0.08,0.034-0.165,0.053-0.255,0.053c-0.09,0-0.175-0.019-0.255-0.053c-0.08-0.035-0.15-0.082-0.21-0.143
			s-0.108-0.129-0.143-0.207c-0.035-0.077-0.053-0.161-0.053-0.251s0.018-0.176,0.053-0.259c0.035-0.082,0.083-0.153,0.143-0.215
			c0.06-0.06,0.13-0.106,0.21-0.143c0.08-0.033,0.165-0.052,0.255-0.052c0.09,0,0.175,0.019,0.255,0.052
			c0.08,0.035,0.15,0.083,0.21,0.143c0.06,0.062,0.109,0.133,0.146,0.215C151.932,139.657,151.951,139.743,151.951,139.833z
			 M151.643,142.404v7.464h-0.712v-7.464H151.643z"/>
		<path d="M157.141,142.286c0.535,0,1.014,0.091,1.436,0.272c0.423,0.184,0.779,0.441,1.069,0.776s0.511,0.738,0.664,1.211
			c0.153,0.474,0.229,1.001,0.229,1.586s-0.076,1.113-0.229,1.583c-0.152,0.471-0.374,0.872-0.664,1.207s-0.646,0.594-1.069,0.771
			c-0.422,0.182-0.901,0.271-1.436,0.271c-0.535,0-1.014-0.09-1.437-0.271c-0.422-0.18-0.78-0.438-1.072-0.771
			s-0.515-0.736-0.667-1.207c-0.153-0.47-0.229-0.998-0.229-1.583s0.076-1.112,0.229-1.586c0.152-0.473,0.375-0.876,0.667-1.211
			s0.65-0.594,1.072-0.776C156.127,142.377,156.605,142.286,157.141,142.286z M157.141,149.402c0.445,0,0.833-0.075,1.166-0.229
			c0.333-0.152,0.61-0.372,0.833-0.656c0.223-0.285,0.389-0.629,0.499-1.031c0.11-0.401,0.165-0.854,0.165-1.354
			c0-0.494-0.055-0.943-0.165-1.35c-0.11-0.405-0.276-0.751-0.499-1.039c-0.222-0.287-0.5-0.51-0.833-0.663
			c-0.333-0.155-0.721-0.231-1.166-0.231c-0.445,0-0.834,0.076-1.167,0.231c-0.333,0.153-0.61,0.376-0.833,0.663
			c-0.222,0.288-0.39,0.634-0.502,1.039c-0.112,0.404-0.168,0.854-0.168,1.35c0,0.5,0.056,0.952,0.168,1.354
			c0.113,0.402,0.28,0.746,0.502,1.031c0.223,0.284,0.5,0.504,0.833,0.656C156.307,149.327,156.695,149.402,157.141,149.402z"/>
		<path d="M162.555,149.868v-7.464h0.397c0.125,0,0.198,0.062,0.218,0.188l0.067,1.125c0.345-0.435,0.742-0.782,1.192-1.042
			c0.45-0.26,0.955-0.39,1.515-0.39c0.41,0,0.771,0.063,1.083,0.194c0.312,0.129,0.571,0.316,0.776,0.562
			c0.205,0.245,0.36,0.54,0.465,0.885c0.105,0.347,0.158,0.735,0.158,1.171v4.771h-0.72v-4.771c0-0.699-0.16-1.248-0.48-1.646
			s-0.808-0.597-1.462-0.597c-0.49,0-0.945,0.123-1.365,0.371s-0.795,0.592-1.125,1.03v5.61L162.555,149.868L162.555,149.868z"/>
		<path d="M171.908,139.833c0,0.09-0.019,0.174-0.056,0.251c-0.038,0.078-0.086,0.146-0.146,0.207s-0.13,0.107-0.21,0.143
			c-0.08,0.034-0.165,0.053-0.255,0.053c-0.09,0-0.175-0.019-0.255-0.053c-0.08-0.035-0.15-0.082-0.21-0.143
			s-0.108-0.129-0.143-0.207c-0.035-0.077-0.053-0.161-0.053-0.251s0.018-0.176,0.053-0.259c0.035-0.082,0.083-0.153,0.143-0.215
			c0.06-0.06,0.13-0.106,0.21-0.143c0.08-0.033,0.165-0.052,0.255-0.052c0.09,0,0.175,0.019,0.255,0.052
			c0.08,0.035,0.15,0.083,0.21,0.143c0.06,0.062,0.109,0.133,0.146,0.215C171.889,139.657,171.908,139.743,171.908,139.833z
			 M171.6,142.404v7.464h-0.712v-7.464H171.6z"/>
		<path d="M178.245,143.328c-0.04,0.07-0.098,0.105-0.172,0.105c-0.055,0-0.125-0.031-0.21-0.095
			c-0.085-0.062-0.199-0.133-0.341-0.21c-0.143-0.078-0.319-0.146-0.529-0.211c-0.21-0.062-0.465-0.094-0.765-0.094
			c-0.27,0-0.516,0.039-0.739,0.117c-0.223,0.076-0.413,0.181-0.57,0.311c-0.158,0.13-0.279,0.281-0.364,0.454
			c-0.085,0.173-0.127,0.354-0.127,0.544c0,0.234,0.06,0.43,0.18,0.585c0.12,0.154,0.276,0.287,0.469,0.397
			c0.192,0.108,0.414,0.205,0.664,0.285s0.503,0.16,0.761,0.238c0.257,0.08,0.511,0.169,0.761,0.268
			c0.25,0.098,0.471,0.219,0.664,0.363c0.192,0.146,0.349,0.322,0.469,0.532s0.18,0.465,0.18,0.765c0,0.325-0.058,0.629-0.172,0.907
			c-0.115,0.28-0.284,0.522-0.506,0.728c-0.223,0.205-0.497,0.369-0.821,0.488c-0.325,0.119-0.698,0.18-1.118,0.18
			c-0.525,0-0.978-0.084-1.357-0.25c-0.38-0.168-0.72-0.387-1.02-0.656l0.165-0.256c0.025-0.039,0.054-0.069,0.086-0.09
			c0.032-0.021,0.076-0.029,0.131-0.029c0.065,0,0.144,0.04,0.236,0.119c0.093,0.08,0.216,0.167,0.372,0.259
			c0.155,0.093,0.346,0.181,0.574,0.259c0.227,0.08,0.508,0.12,0.844,0.12c0.315,0,0.592-0.043,0.833-0.131
			c0.24-0.088,0.44-0.206,0.6-0.356c0.16-0.149,0.281-0.326,0.364-0.527c0.083-0.203,0.124-0.417,0.124-0.643
			c0-0.25-0.06-0.457-0.18-0.621c-0.12-0.166-0.277-0.307-0.473-0.422c-0.195-0.113-0.416-0.212-0.664-0.291
			c-0.248-0.08-0.501-0.16-0.761-0.24c-0.26-0.08-0.514-0.168-0.761-0.264c-0.248-0.095-0.469-0.215-0.664-0.359
			c-0.195-0.146-0.353-0.32-0.473-0.528c-0.12-0.207-0.18-0.466-0.18-0.776c0-0.265,0.058-0.52,0.173-0.765
			c0.115-0.245,0.278-0.46,0.491-0.646c0.212-0.186,0.471-0.332,0.776-0.442c0.305-0.109,0.647-0.164,1.028-0.164
			c0.455,0,0.858,0.063,1.211,0.194c0.353,0.129,0.674,0.33,0.964,0.601L178.245,143.328z"/>
		<path d="M182.558,149.988c-0.505,0-0.899-0.141-1.181-0.42c-0.283-0.28-0.424-0.713-0.424-1.299v-5.1h-1.073
			c-0.055,0-0.1-0.016-0.135-0.045c-0.035-0.029-0.053-0.072-0.053-0.128v-0.276l1.275-0.091l0.18-2.67
			c0.01-0.045,0.03-0.085,0.06-0.12c0.03-0.035,0.072-0.053,0.127-0.053h0.337v2.85h2.355v0.533h-2.355v5.062
			c0,0.205,0.026,0.381,0.079,0.527c0.052,0.147,0.125,0.27,0.217,0.364c0.093,0.095,0.201,0.165,0.326,0.21s0.26,0.066,0.405,0.066
			c0.18,0,0.335-0.025,0.465-0.078s0.243-0.109,0.337-0.172c0.095-0.062,0.173-0.12,0.232-0.174c0.06-0.053,0.108-0.078,0.143-0.078
			c0.04,0,0.08,0.024,0.12,0.074l0.195,0.315c-0.19,0.21-0.431,0.378-0.724,0.506S182.873,149.988,182.558,149.988z"/>
		<path d="M190.244,149.868c-0.148,0-0.242-0.07-0.277-0.21l-0.104-0.952c-0.205,0.198-0.409,0.38-0.611,0.54
			c-0.203,0.158-0.414,0.295-0.634,0.404c-0.22,0.109-0.458,0.193-0.712,0.252c-0.255,0.057-0.535,0.086-0.84,0.086
			c-0.255,0-0.502-0.038-0.743-0.112c-0.24-0.075-0.454-0.19-0.641-0.347c-0.188-0.153-0.337-0.354-0.45-0.596
			c-0.112-0.242-0.168-0.533-0.168-0.873c0-0.314,0.09-0.607,0.27-0.877c0.18-0.271,0.462-0.507,0.847-0.705
			c0.385-0.201,0.879-0.36,1.481-0.48s1.326-0.189,2.171-0.21v-0.78c0-0.689-0.147-1.221-0.446-1.594
			c-0.298-0.372-0.739-0.559-1.324-0.559c-0.36,0-0.667,0.05-0.919,0.149c-0.252,0.101-0.466,0.21-0.641,0.33
			c-0.175,0.12-0.318,0.229-0.428,0.33c-0.11,0.101-0.203,0.149-0.277,0.149c-0.055,0-0.1-0.013-0.135-0.037
			c-0.035-0.025-0.065-0.059-0.09-0.098l-0.127-0.219c0.39-0.391,0.8-0.686,1.229-0.885c0.43-0.2,0.917-0.301,1.462-0.301
			c0.4,0,0.75,0.063,1.05,0.191c0.3,0.127,0.548,0.311,0.746,0.547c0.197,0.238,0.347,0.525,0.446,0.863
			c0.101,0.337,0.149,0.713,0.149,1.128v4.86h-0.285V149.868z M187.245,149.471c0.29,0,0.556-0.031,0.799-0.094
			s0.468-0.15,0.675-0.263c0.207-0.112,0.401-0.246,0.581-0.401c0.18-0.154,0.357-0.322,0.532-0.502v-1.941
			c-0.71,0.02-1.322,0.072-1.837,0.16c-0.515,0.088-0.938,0.206-1.271,0.356c-0.333,0.149-0.578,0.328-0.735,0.536
			c-0.158,0.207-0.236,0.443-0.236,0.707c0,0.25,0.041,0.468,0.124,0.65c0.083,0.182,0.192,0.331,0.33,0.449
			c0.138,0.117,0.296,0.203,0.476,0.258C186.862,149.443,187.05,149.471,187.245,149.471z"/>
		<path d="M192.742,149.291c0-0.096,0.018-0.186,0.053-0.271c0.035-0.084,0.084-0.158,0.146-0.221
			c0.062-0.062,0.135-0.113,0.217-0.15s0.174-0.057,0.273-0.057c0.096,0,0.186,0.02,0.271,0.057s0.159,0.088,0.222,0.15
			s0.111,0.137,0.149,0.221c0.038,0.086,0.056,0.176,0.056,0.271c0,0.1-0.018,0.189-0.056,0.273
			c-0.038,0.082-0.087,0.154-0.149,0.218s-0.137,0.11-0.222,0.146s-0.175,0.053-0.271,0.053c-0.195,0-0.358-0.065-0.49-0.197
			C192.809,149.648,192.742,149.484,192.742,149.291z"/>
		<path d="M201.436,143.402c-0.024,0.025-0.05,0.047-0.071,0.063c-0.022,0.017-0.054,0.026-0.095,0.026
			c-0.051,0-0.117-0.034-0.203-0.102c-0.084-0.067-0.198-0.142-0.344-0.222s-0.326-0.153-0.545-0.222
			c-0.217-0.067-0.479-0.102-0.791-0.102c-0.43,0-0.811,0.076-1.144,0.229s-0.614,0.37-0.845,0.655
			c-0.229,0.285-0.402,0.631-0.521,1.035s-0.177,0.859-0.177,1.364c0,0.525,0.062,0.99,0.184,1.396
			c0.122,0.406,0.297,0.746,0.521,1.023s0.496,0.489,0.816,0.635s0.676,0.217,1.064,0.217c0.359,0,0.662-0.043,0.904-0.127
			c0.242-0.086,0.441-0.178,0.6-0.277s0.281-0.191,0.371-0.277c0.09-0.085,0.166-0.128,0.227-0.128c0.06,0,0.109,0.025,0.148,0.075
			l0.188,0.24c-0.115,0.15-0.26,0.289-0.435,0.42c-0.175,0.13-0.372,0.242-0.593,0.338c-0.221,0.095-0.459,0.168-0.717,0.221
			s-0.525,0.079-0.806,0.079c-0.476,0-0.909-0.086-1.302-0.259s-0.73-0.423-1.014-0.75c-0.282-0.327-0.502-0.729-0.659-1.204
			s-0.236-1.015-0.236-1.62c0-0.568,0.075-1.09,0.226-1.561c0.149-0.469,0.371-0.875,0.66-1.215c0.291-0.34,0.645-0.604,1.062-0.791
			c0.417-0.187,0.896-0.28,1.437-0.28c0.484,0,0.916,0.077,1.291,0.231s0.701,0.364,0.981,0.631L201.436,143.402z"/>
		<path d="M206.303,142.286c0.534,0,1.014,0.091,1.437,0.272c0.423,0.184,0.778,0.441,1.067,0.776
			c0.291,0.335,0.512,0.738,0.664,1.211c0.152,0.474,0.229,1.001,0.229,1.586s-0.076,1.113-0.229,1.583
			c-0.152,0.471-0.373,0.872-0.664,1.207c-0.289,0.335-0.646,0.594-1.067,0.771c-0.423,0.182-0.901,0.271-1.437,0.271
			s-1.014-0.09-1.438-0.271c-0.422-0.18-0.779-0.438-1.072-0.771c-0.292-0.335-0.516-0.736-0.667-1.207
			c-0.153-0.47-0.229-0.998-0.229-1.583s0.076-1.112,0.229-1.586c0.151-0.473,0.375-0.876,0.667-1.211
			c0.293-0.335,0.65-0.594,1.072-0.776C205.289,142.377,205.768,142.286,206.303,142.286z M206.303,149.402
			c0.444,0,0.833-0.075,1.166-0.229c0.332-0.152,0.609-0.372,0.832-0.656c0.223-0.285,0.389-0.629,0.499-1.031
			c0.11-0.401,0.165-0.854,0.165-1.354c0-0.494-0.055-0.943-0.165-1.35s-0.276-0.751-0.499-1.039c-0.223-0.287-0.5-0.51-0.832-0.663
			c-0.333-0.155-0.722-0.231-1.166-0.231c-0.445,0-0.834,0.076-1.167,0.231c-0.333,0.153-0.61,0.376-0.833,0.663
			c-0.222,0.288-0.389,0.634-0.502,1.039c-0.111,0.404-0.168,0.854-0.168,1.35c0,0.5,0.057,0.952,0.168,1.354
			c0.113,0.402,0.28,0.746,0.502,1.031c0.223,0.284,0.5,0.504,0.833,0.656C205.469,149.327,205.857,149.402,206.303,149.402z"/>
		<path d="M211.717,149.868v-7.464h0.398c0.125,0,0.197,0.062,0.217,0.188l0.068,1.08c0.289-0.415,0.621-0.75,0.996-1.005
			s0.799-0.382,1.269-0.382c0.545,0,0.981,0.157,1.31,0.472c0.326,0.315,0.549,0.753,0.662,1.312
			c0.092-0.305,0.217-0.569,0.379-0.795c0.163-0.226,0.351-0.411,0.56-0.56c0.211-0.147,0.438-0.256,0.688-0.325
			c0.246-0.07,0.5-0.104,0.76-0.104c0.371,0,0.703,0.062,0.998,0.184s0.545,0.304,0.75,0.544c0.205,0.239,0.362,0.534,0.473,0.885
			c0.109,0.351,0.165,0.75,0.165,1.201v4.77h-0.712v-4.77c0-0.73-0.158-1.287-0.473-1.67c-0.315-0.383-0.767-0.574-1.352-0.574
			c-0.26,0-0.51,0.049-0.746,0.144s-0.447,0.235-0.63,0.424s-0.328,0.421-0.437,0.701c-0.107,0.28-0.16,0.604-0.16,0.976v4.771
			h-0.721V145.1c0-0.726-0.144-1.279-0.432-1.664c-0.287-0.387-0.708-0.578-1.264-0.578c-0.404,0-0.779,0.119-1.125,0.359
			s-0.652,0.572-0.922,0.997v5.655L211.717,149.868L211.717,149.868z"/>
	</g>
</g>
<g>
	<rect x="59.421" y="167.977" fill="none" width="236.062" height="18.92"/>
	<g enable-background="new    ">
		<path d="M68.263,177.493c-0.44,0-0.771-0.116-0.994-0.349c-0.223-0.233-0.339-0.566-0.349-1.002
			c-0.28,0.465-0.596,0.801-0.949,1.01c-0.353,0.207-0.734,0.311-1.144,0.311c-0.28,0-0.523-0.048-0.728-0.146
			c-0.205-0.098-0.375-0.23-0.51-0.4c-0.135-0.17-0.236-0.37-0.304-0.602c-0.067-0.229-0.101-0.477-0.101-0.741
			c0-0.425,0.081-0.853,0.244-1.278c0.163-0.428,0.4-0.812,0.712-1.154c0.312-0.344,0.696-0.621,1.151-0.836
			c0.455-0.216,0.972-0.324,1.552-0.324c0.265,0,0.514,0.022,0.747,0.067c0.232,0.046,0.441,0.11,0.626,0.195l-0.682,2.603
			c-0.12,0.461-0.178,0.834-0.173,1.117c0.005,0.285,0.053,0.508,0.143,0.664c0.09,0.157,0.211,0.264,0.364,0.314
			c0.152,0.053,0.316,0.078,0.491,0.078c0.285,0,0.558-0.074,0.817-0.225c0.26-0.15,0.49-0.363,0.69-0.643
			c0.2-0.276,0.359-0.612,0.477-1.008c0.117-0.396,0.176-0.838,0.176-1.328c0-0.739-0.122-1.387-0.364-1.938
			c-0.243-0.553-0.573-1.012-0.99-1.377c-0.417-0.363-0.904-0.637-1.458-0.816c-0.555-0.181-1.145-0.271-1.77-0.271
			c-0.685,0-1.334,0.133-1.946,0.397c-0.613,0.265-1.15,0.635-1.612,1.108c-0.463,0.476-0.83,1.042-1.103,1.699
			s-0.409,1.379-0.409,2.164c0,0.885,0.142,1.663,0.424,2.336c0.283,0.673,0.667,1.235,1.151,1.688s1.051,0.795,1.699,1.026
			s1.336,0.349,2.066,0.349c0.74,0,1.416-0.084,2.029-0.254c0.612-0.171,1.168-0.418,1.668-0.742
			c0.06-0.041,0.115-0.054,0.165-0.039c0.05,0.017,0.087,0.052,0.113,0.105l0.112,0.277c-0.56,0.369-1.176,0.654-1.849,0.854
			c-0.673,0.199-1.419,0.3-2.239,0.3c-0.825,0-1.595-0.131-2.31-0.394s-1.337-0.646-1.868-1.147
			c-0.53-0.502-0.947-1.119-1.252-1.853c-0.305-0.733-0.458-1.569-0.458-2.509c0-0.835,0.147-1.61,0.442-2.325
			c0.295-0.715,0.698-1.335,1.208-1.86c0.51-0.523,1.105-0.936,1.785-1.232c0.68-0.297,1.407-0.446,2.183-0.446
			c0.67,0,1.312,0.104,1.927,0.312c0.615,0.207,1.159,0.519,1.631,0.931c0.472,0.411,0.85,0.924,1.133,1.534
			c0.282,0.608,0.423,1.316,0.423,2.121c0,0.545-0.072,1.043-0.217,1.492c-0.145,0.45-0.344,0.838-0.596,1.159
			c-0.252,0.322-0.549,0.573-0.889,0.755C69.011,177.402,68.648,177.493,68.263,177.493z M64.963,176.969
			c0.18,0,0.366-0.029,0.559-0.091c0.192-0.06,0.377-0.168,0.555-0.326c0.177-0.157,0.344-0.37,0.499-0.637
			c0.155-0.269,0.285-0.608,0.39-1.024l0.6-2.324c-0.12-0.034-0.244-0.062-0.371-0.078c-0.127-0.018-0.276-0.026-0.446-0.026
			c-0.45,0-0.859,0.091-1.227,0.272c-0.367,0.184-0.68,0.423-0.938,0.718c-0.257,0.295-0.458,0.626-0.6,0.993
			c-0.143,0.367-0.214,0.738-0.214,1.113c0,0.2,0.025,0.387,0.075,0.56c0.05,0.173,0.125,0.321,0.225,0.446
			c0.1,0.125,0.224,0.224,0.372,0.295C64.589,176.932,64.763,176.969,64.963,176.969z"/>
		<path d="M75.996,171.32c0.42,0,0.81,0.072,1.17,0.218s0.672,0.356,0.938,0.634c0.266,0.278,0.474,0.619,0.626,1.023
			s0.229,0.869,0.229,1.396c0,0.11-0.015,0.185-0.045,0.226c-0.03,0.039-0.08,0.061-0.15,0.061h-5.43v0.143
			c0,0.561,0.065,1.054,0.195,1.479c0.13,0.425,0.315,0.781,0.555,1.068s0.53,0.504,0.87,0.647c0.34,0.146,0.72,0.218,1.14,0.218
			c0.375,0,0.7-0.041,0.975-0.123s0.506-0.176,0.693-0.277s0.336-0.194,0.446-0.277c0.11-0.082,0.19-0.124,0.24-0.124
			c0.065,0,0.115,0.025,0.15,0.075l0.195,0.24c-0.12,0.15-0.279,0.289-0.476,0.42c-0.198,0.13-0.417,0.24-0.66,0.334
			c-0.242,0.093-0.502,0.166-0.78,0.221c-0.277,0.057-0.556,0.083-0.836,0.083c-0.51,0-0.975-0.089-1.395-0.267
			s-0.78-0.437-1.08-0.776c-0.3-0.34-0.531-0.756-0.693-1.248c-0.163-0.493-0.244-1.057-0.244-1.69c0-0.535,0.076-1.029,0.229-1.481
			c0.152-0.452,0.373-0.843,0.66-1.17s0.64-0.584,1.057-0.769C74.992,171.413,75.466,171.32,75.996,171.32z M76.003,171.854
			c-0.385,0-0.73,0.061-1.035,0.181c-0.305,0.12-0.569,0.293-0.792,0.518c-0.222,0.226-0.402,0.495-0.54,0.81
			c-0.137,0.315-0.229,0.668-0.273,1.059h4.95c0-0.398-0.056-0.759-0.168-1.076c-0.113-0.316-0.271-0.586-0.477-0.806
			c-0.205-0.222-0.449-0.39-0.731-0.507C76.654,171.912,76.343,171.854,76.003,171.854z"/>
		<path d="M81.688,167.991v10.911h-0.72v-10.911H81.688z"/>
		<path d="M84.216,178.902v-7.463h0.397c0.125,0,0.198,0.062,0.218,0.188l0.067,1.08c0.29-0.415,0.623-0.75,0.998-1.005
			s0.797-0.383,1.268-0.383c0.545,0,0.981,0.158,1.309,0.473c0.327,0.314,0.549,0.753,0.664,1.312
			c0.09-0.306,0.216-0.569,0.379-0.795s0.349-0.412,0.559-0.56s0.439-0.256,0.687-0.326c0.248-0.069,0.501-0.104,0.761-0.104
			c0.37,0,0.702,0.062,0.998,0.185c0.295,0.122,0.545,0.304,0.75,0.543c0.205,0.24,0.362,0.535,0.472,0.886
			c0.11,0.351,0.165,0.75,0.165,1.2v4.771h-0.712v-4.771c0-0.729-0.158-1.286-0.473-1.669s-0.765-0.574-1.35-0.574
			c-0.26,0-0.509,0.049-0.746,0.144c-0.237,0.095-0.447,0.235-0.63,0.424s-0.328,0.421-0.435,0.701s-0.161,0.604-0.161,0.976v4.77
			h-0.72v-4.77c0-0.726-0.144-1.279-0.431-1.665c-0.288-0.386-0.708-0.577-1.264-0.577c-0.405,0-0.78,0.119-1.125,0.359
			c-0.345,0.24-0.652,0.572-0.922,0.997v5.655h-0.723V178.902z"/>
		<path d="M100.88,178.902c-0.15,0-0.242-0.069-0.277-0.209l-0.105-0.952c-0.205,0.198-0.409,0.38-0.611,0.54
			c-0.203,0.158-0.414,0.295-0.634,0.404c-0.22,0.109-0.458,0.193-0.712,0.252c-0.255,0.057-0.535,0.086-0.84,0.086
			c-0.255,0-0.502-0.039-0.743-0.112c-0.24-0.075-0.454-0.19-0.641-0.347c-0.188-0.153-0.337-0.354-0.45-0.596
			c-0.112-0.242-0.168-0.533-0.168-0.873c0-0.314,0.09-0.607,0.27-0.878c0.18-0.271,0.462-0.506,0.847-0.704
			c0.385-0.201,0.879-0.361,1.481-0.48c0.602-0.12,1.326-0.189,2.171-0.21v-0.78c0-0.689-0.149-1.221-0.446-1.594
			c-0.298-0.372-0.739-0.559-1.324-0.559c-0.36,0-0.667,0.049-0.919,0.149c-0.252,0.101-0.466,0.21-0.641,0.33
			c-0.175,0.12-0.318,0.229-0.428,0.33c-0.11,0.1-0.203,0.149-0.277,0.149c-0.055,0-0.1-0.013-0.135-0.037
			c-0.035-0.025-0.065-0.059-0.09-0.099l-0.127-0.218c0.39-0.391,0.8-0.686,1.23-0.885c0.43-0.2,0.917-0.301,1.462-0.301
			c0.4,0,0.75,0.063,1.05,0.191c0.3,0.127,0.548,0.311,0.746,0.547c0.197,0.238,0.346,0.525,0.446,0.863
			c0.1,0.337,0.15,0.713,0.15,1.128v4.86h-0.285V178.902z M97.88,178.506c0.29,0,0.556-0.031,0.799-0.094
			c0.243-0.062,0.468-0.15,0.675-0.264c0.207-0.111,0.401-0.246,0.581-0.4s0.357-0.322,0.533-0.502v-1.941
			c-0.71,0.02-1.323,0.072-1.838,0.16c-0.515,0.087-0.938,0.206-1.271,0.355c-0.333,0.15-0.578,0.328-0.735,0.537
			c-0.158,0.207-0.236,0.442-0.236,0.707c0,0.25,0.041,0.468,0.124,0.649c0.083,0.183,0.192,0.332,0.33,0.45
			c0.138,0.117,0.296,0.203,0.476,0.258C97.498,178.479,97.686,178.506,97.88,178.506z"/>
		<path d="M103.55,178.902v-10.911h0.72v4.747c0.325-0.439,0.705-0.786,1.14-1.039c0.435-0.252,0.94-0.379,1.515-0.379
			c0.45,0,0.853,0.082,1.208,0.248c0.355,0.164,0.656,0.401,0.904,0.713c0.248,0.31,0.436,0.689,0.566,1.144
			c0.13,0.452,0.195,0.966,0.195,1.541c0,0.604-0.073,1.156-0.218,1.653c-0.145,0.498-0.356,0.923-0.633,1.275
			c-0.278,0.353-0.617,0.625-1.017,0.816c-0.4,0.191-0.857,0.289-1.373,0.289c-0.53,0-0.982-0.102-1.357-0.305
			c-0.375-0.202-0.697-0.5-0.967-0.896l-0.045,0.915c-0.015,0.125-0.083,0.188-0.203,0.188H103.55L103.55,178.902z M106.723,171.891
			c-0.535,0-1,0.129-1.395,0.383c-0.395,0.256-0.748,0.61-1.057,1.064v3.938c0.29,0.432,0.607,0.731,0.952,0.904
			c0.345,0.174,0.738,0.26,1.178,0.26c0.445,0,0.833-0.08,1.166-0.24s0.61-0.389,0.833-0.688c0.223-0.297,0.389-0.658,0.499-1.082
			c0.11-0.427,0.165-0.904,0.165-1.434c0-1.03-0.205-1.807-0.615-2.325C108.038,172.15,107.463,171.891,106.723,171.891z"/>
		<path d="M114.733,171.32c0.42,0,0.81,0.072,1.17,0.218c0.36,0.146,0.672,0.356,0.938,0.634c0.266,0.278,0.474,0.619,0.626,1.023
			c0.152,0.404,0.229,0.869,0.229,1.396c0,0.11-0.015,0.185-0.045,0.226c-0.03,0.039-0.08,0.061-0.15,0.061h-5.43v0.143
			c0,0.561,0.065,1.054,0.195,1.479s0.315,0.781,0.555,1.068c0.24,0.287,0.53,0.504,0.87,0.647c0.34,0.146,0.72,0.218,1.14,0.218
			c0.375,0,0.7-0.041,0.975-0.123s0.506-0.176,0.693-0.277s0.336-0.194,0.446-0.277c0.11-0.082,0.19-0.124,0.24-0.124
			c0.065,0,0.115,0.025,0.15,0.075l0.195,0.24c-0.12,0.15-0.279,0.289-0.476,0.42c-0.198,0.13-0.417,0.24-0.66,0.334
			c-0.242,0.093-0.502,0.166-0.78,0.221c-0.277,0.057-0.556,0.083-0.836,0.083c-0.51,0-0.975-0.089-1.395-0.267
			c-0.42-0.178-0.78-0.437-1.08-0.776c-0.3-0.34-0.531-0.756-0.693-1.248c-0.163-0.493-0.244-1.057-0.244-1.69
			c0-0.535,0.076-1.029,0.229-1.481c0.152-0.452,0.373-0.843,0.66-1.17s0.64-0.584,1.057-0.769
			C113.729,171.413,114.203,171.32,114.733,171.32z M114.74,171.854c-0.385,0-0.73,0.061-1.035,0.181
			c-0.305,0.12-0.569,0.293-0.792,0.518c-0.222,0.226-0.402,0.495-0.54,0.81c-0.137,0.315-0.229,0.668-0.273,1.059h4.95
			c0-0.398-0.056-0.759-0.168-1.076c-0.113-0.316-0.271-0.586-0.477-0.806c-0.205-0.222-0.449-0.39-0.731-0.507
			C115.392,171.912,115.081,171.854,114.74,171.854z"/>
		<path d="M122.075,171.312c0.33,0,0.632,0.041,0.908,0.121c0.275,0.08,0.525,0.191,0.75,0.336h1.912v0.248
			c0,0.109-0.07,0.178-0.21,0.203l-1.14,0.082c0.14,0.189,0.247,0.403,0.322,0.641c0.075,0.238,0.112,0.492,0.112,0.763
			c0,0.358-0.063,0.687-0.191,0.979s-0.308,0.543-0.54,0.75s-0.513,0.369-0.84,0.482c-0.328,0.115-0.689,0.173-1.084,0.173
			c-0.43,0-0.817-0.063-1.163-0.194c-0.21,0.125-0.376,0.27-0.499,0.432s-0.184,0.32-0.184,0.477c0,0.215,0.076,0.381,0.229,0.494
			c0.152,0.115,0.353,0.199,0.6,0.252s0.53,0.086,0.847,0.102c0.318,0.016,0.642,0.031,0.972,0.049s0.653,0.049,0.971,0.094
			c0.317,0.045,0.6,0.124,0.847,0.236c0.247,0.111,0.448,0.271,0.6,0.473s0.229,0.473,0.229,0.807c0,0.311-0.078,0.607-0.233,0.894
			c-0.155,0.284-0.378,0.537-0.671,0.757c-0.292,0.221-0.646,0.396-1.062,0.529c-0.415,0.132-0.88,0.197-1.395,0.197
			c-0.525,0-0.985-0.054-1.38-0.16c-0.395-0.107-0.726-0.252-0.994-0.436c-0.268-0.183-0.469-0.394-0.604-0.634
			c-0.135-0.24-0.202-0.495-0.202-0.767c0-0.395,0.13-0.732,0.39-1.016c0.26-0.281,0.615-0.504,1.065-0.664
			c-0.255-0.085-0.458-0.207-0.608-0.367s-0.225-0.383-0.225-0.668c0-0.104,0.02-0.215,0.06-0.33c0.04-0.113,0.1-0.229,0.18-0.34
			c0.08-0.113,0.177-0.22,0.292-0.32c0.115-0.1,0.245-0.188,0.39-0.27c-0.355-0.205-0.631-0.478-0.829-0.816
			c-0.198-0.34-0.296-0.737-0.296-1.192c0-0.36,0.063-0.687,0.191-0.979c0.127-0.293,0.309-0.543,0.543-0.754
			c0.234-0.209,0.516-0.373,0.844-0.488C121.312,171.371,121.675,171.312,122.075,171.312z M124.865,179.406
			c0-0.235-0.062-0.424-0.184-0.566c-0.123-0.143-0.287-0.254-0.491-0.334c-0.205-0.08-0.443-0.135-0.713-0.165
			s-0.55-0.054-0.84-0.071c-0.29-0.017-0.583-0.033-0.877-0.049c-0.294-0.015-0.573-0.045-0.833-0.09
			c-0.19,0.075-0.365,0.162-0.525,0.264c-0.16,0.1-0.298,0.211-0.413,0.334c-0.115,0.121-0.205,0.256-0.27,0.403
			c-0.065,0.147-0.098,0.308-0.098,0.478c0,0.22,0.057,0.424,0.169,0.611c0.112,0.187,0.277,0.35,0.495,0.486
			c0.217,0.139,0.483,0.246,0.799,0.326c0.315,0.08,0.677,0.119,1.087,0.119c0.38,0,0.733-0.043,1.061-0.127
			c0.328-0.086,0.612-0.205,0.855-0.359c0.243-0.154,0.433-0.34,0.57-0.557C124.796,179.896,124.865,179.661,124.865,179.406z
			 M122.075,175.604c0.32,0,0.605-0.045,0.855-0.139c0.25-0.093,0.46-0.222,0.63-0.387s0.3-0.362,0.39-0.594
			c0.09-0.229,0.135-0.483,0.135-0.764c0-0.281-0.046-0.537-0.139-0.77c-0.092-0.232-0.225-0.432-0.397-0.598
			c-0.172-0.164-0.382-0.291-0.63-0.381c-0.248-0.091-0.529-0.137-0.844-0.137c-0.315,0-0.596,0.046-0.844,0.137
			c-0.248,0.09-0.458,0.217-0.63,0.381c-0.172,0.166-0.304,0.364-0.394,0.598c-0.09,0.232-0.135,0.488-0.135,0.77
			c0,0.28,0.045,0.534,0.135,0.764c0.09,0.23,0.222,0.429,0.394,0.594s0.382,0.294,0.63,0.387
			C121.479,175.559,121.76,175.604,122.075,175.604z"/>
		<path d="M131.885,178.902c-0.15,0-0.242-0.069-0.277-0.209l-0.105-0.952c-0.205,0.198-0.409,0.38-0.611,0.54
			c-0.203,0.158-0.414,0.295-0.634,0.404c-0.22,0.109-0.458,0.193-0.712,0.252c-0.255,0.057-0.535,0.086-0.84,0.086
			c-0.255,0-0.502-0.039-0.743-0.112c-0.24-0.075-0.454-0.19-0.641-0.347c-0.188-0.153-0.337-0.354-0.45-0.596
			c-0.112-0.242-0.168-0.533-0.168-0.873c0-0.314,0.09-0.607,0.27-0.878c0.18-0.271,0.462-0.506,0.847-0.704
			c0.385-0.201,0.879-0.361,1.481-0.48c0.602-0.12,1.326-0.189,2.171-0.21v-0.78c0-0.689-0.149-1.221-0.446-1.594
			c-0.298-0.372-0.739-0.559-1.324-0.559c-0.36,0-0.667,0.049-0.919,0.149s-0.466,0.21-0.641,0.33
			c-0.175,0.12-0.318,0.229-0.428,0.33c-0.11,0.1-0.203,0.149-0.277,0.149c-0.055,0-0.1-0.013-0.135-0.037
			c-0.035-0.025-0.065-0.059-0.09-0.099l-0.127-0.218c0.39-0.391,0.8-0.686,1.23-0.885c0.43-0.2,0.917-0.301,1.462-0.301
			c0.4,0,0.75,0.063,1.05,0.191c0.3,0.127,0.548,0.311,0.746,0.547c0.197,0.238,0.346,0.525,0.446,0.863
			c0.1,0.337,0.15,0.713,0.15,1.128v4.86h-0.285V178.902z M128.885,178.506c0.29,0,0.556-0.031,0.799-0.094
			c0.243-0.062,0.468-0.15,0.675-0.264c0.207-0.111,0.401-0.246,0.581-0.4s0.357-0.322,0.533-0.502v-1.941
			c-0.71,0.02-1.323,0.072-1.838,0.16c-0.515,0.087-0.938,0.206-1.271,0.355c-0.333,0.15-0.578,0.328-0.735,0.537
			c-0.158,0.207-0.236,0.442-0.236,0.707c0,0.25,0.041,0.468,0.124,0.649c0.083,0.183,0.192,0.332,0.33,0.45
			c0.138,0.117,0.296,0.203,0.476,0.258C128.503,178.479,128.69,178.506,128.885,178.506z"/>
		<path d="M134.555,178.902v-7.463h0.397c0.125,0,0.198,0.062,0.218,0.188l0.067,1.125c0.345-0.435,0.742-0.782,1.192-1.042
			c0.45-0.26,0.955-0.391,1.515-0.391c0.41,0,0.771,0.064,1.083,0.195c0.312,0.129,0.571,0.316,0.776,0.562
			c0.205,0.245,0.36,0.54,0.465,0.885c0.105,0.347,0.158,0.735,0.158,1.171v4.77h-0.72v-4.77c0-0.699-0.16-1.249-0.48-1.646
			c-0.32-0.396-0.808-0.596-1.462-0.596c-0.49,0-0.945,0.123-1.365,0.37c-0.42,0.248-0.795,0.593-1.125,1.031v5.61H134.555
			L134.555,178.902z"/>
		<path d="M145.76,171.32c0.535,0,1.014,0.092,1.436,0.273c0.423,0.184,0.779,0.441,1.069,0.776s0.511,0.737,0.664,1.211
			c0.153,0.474,0.229,1.001,0.229,1.586s-0.076,1.112-0.229,1.583c-0.152,0.47-0.374,0.872-0.664,1.207s-0.646,0.593-1.069,0.771
			c-0.422,0.182-0.901,0.271-1.436,0.271c-0.535,0-1.014-0.09-1.437-0.271c-0.422-0.18-0.78-0.438-1.072-0.771
			s-0.515-0.737-0.667-1.207c-0.153-0.471-0.229-0.998-0.229-1.583s0.076-1.112,0.229-1.586c0.152-0.474,0.375-0.876,0.667-1.211
			s0.65-0.595,1.072-0.776C144.747,171.412,145.225,171.32,145.76,171.32z M145.76,178.438c0.445,0,0.833-0.076,1.166-0.229
			s0.61-0.372,0.833-0.656c0.223-0.285,0.389-0.629,0.499-1.031c0.11-0.401,0.165-0.854,0.165-1.354c0-0.495-0.055-0.943-0.165-1.35
			c-0.11-0.405-0.276-0.752-0.499-1.039c-0.222-0.287-0.5-0.51-0.833-0.663c-0.333-0.155-0.721-0.232-1.166-0.232
			c-0.445,0-0.834,0.077-1.167,0.232c-0.333,0.153-0.61,0.376-0.833,0.663c-0.222,0.287-0.39,0.634-0.502,1.039
			c-0.112,0.404-0.168,0.854-0.168,1.35c0,0.5,0.056,0.952,0.168,1.354c0.113,0.402,0.28,0.746,0.502,1.031
			c0.223,0.284,0.5,0.504,0.833,0.656S145.315,178.438,145.76,178.438z"/>
		<path d="M153.837,178.902h-0.63l-3.15-7.463h0.562c0.07,0,0.127,0.021,0.172,0.058s0.075,0.079,0.09,0.124l2.467,5.888
			c0.075,0.216,0.135,0.431,0.18,0.646c0.045-0.215,0.107-0.43,0.188-0.646l2.475-5.888c0.025-0.057,0.059-0.1,0.101-0.132
			s0.094-0.05,0.154-0.05h0.54L153.837,178.902z"/>
		<path d="M159.62,168.868c0,0.09-0.019,0.174-0.056,0.251c-0.038,0.078-0.086,0.146-0.146,0.207c-0.06,0.06-0.13,0.107-0.21,0.143
			c-0.08,0.034-0.165,0.053-0.255,0.053c-0.09,0-0.175-0.019-0.255-0.053c-0.08-0.035-0.15-0.082-0.21-0.143
			s-0.108-0.129-0.143-0.207c-0.035-0.077-0.053-0.161-0.053-0.251c0-0.091,0.018-0.177,0.053-0.259
			c0.035-0.082,0.083-0.153,0.143-0.215c0.06-0.06,0.13-0.106,0.21-0.143c0.08-0.034,0.165-0.052,0.255-0.052
			c0.09,0,0.175,0.018,0.255,0.052c0.08,0.035,0.15,0.083,0.21,0.143c0.06,0.062,0.109,0.133,0.146,0.215
			C159.602,168.691,159.62,168.777,159.62,168.868z M159.312,171.439v7.463H158.6v-7.463H159.312z"/>
		<path d="M166.873,172.438c-0.025,0.025-0.049,0.047-0.071,0.063c-0.022,0.017-0.054,0.026-0.094,0.026
			c-0.05,0-0.118-0.034-0.203-0.103c-0.085-0.067-0.2-0.141-0.345-0.221s-0.326-0.154-0.544-0.222
			c-0.217-0.067-0.481-0.102-0.791-0.102c-0.43,0-0.812,0.076-1.144,0.229c-0.332,0.154-0.614,0.371-0.844,0.656
			s-0.404,0.631-0.521,1.035c-0.118,0.404-0.176,0.859-0.176,1.364c0,0.524,0.061,0.99,0.184,1.396
			c0.123,0.406,0.296,0.746,0.521,1.023c0.225,0.277,0.497,0.489,0.817,0.634c0.32,0.146,0.675,0.218,1.065,0.218
			c0.36,0,0.661-0.043,0.904-0.127c0.242-0.086,0.442-0.178,0.6-0.277c0.157-0.1,0.281-0.192,0.371-0.277s0.165-0.128,0.225-0.128
			s0.11,0.024,0.15,0.075l0.188,0.24c-0.115,0.149-0.26,0.289-0.435,0.42c-0.175,0.13-0.373,0.242-0.592,0.338
			c-0.22,0.095-0.459,0.168-0.716,0.221c-0.258,0.053-0.526,0.079-0.806,0.079c-0.475,0-0.909-0.086-1.301-0.259
			c-0.393-0.174-0.73-0.424-1.013-0.75c-0.283-0.327-0.502-0.729-0.66-1.204c-0.157-0.476-0.236-1.015-0.236-1.62
			c0-0.568,0.075-1.09,0.225-1.561c0.15-0.469,0.37-0.875,0.66-1.215s0.644-0.604,1.061-0.791c0.417-0.187,0.896-0.281,1.437-0.281
			c0.485,0,0.915,0.078,1.29,0.232s0.702,0.364,0.982,0.631L166.873,172.438z"/>
		<path d="M168.927,178.902v-10.911h0.72v4.717c0.345-0.425,0.739-0.763,1.181-1.013c0.442-0.25,0.938-0.375,1.489-0.375
			c0.41,0,0.771,0.064,1.083,0.195c0.312,0.129,0.571,0.316,0.776,0.562c0.205,0.245,0.36,0.54,0.465,0.885
			c0.105,0.347,0.158,0.735,0.158,1.171v4.77h-0.72v-4.77c0-0.699-0.16-1.249-0.48-1.646c-0.32-0.396-0.808-0.596-1.462-0.596
			c-0.49,0-0.945,0.123-1.365,0.37c-0.42,0.248-0.795,0.593-1.125,1.031v5.61H168.927L168.927,178.902z"/>
	</g>
</g>
<rect x="29.291" y="108.506" fill="none" width="30.143" height="15.639"/>
<g enable-background="new    ">
	<path d="M42.425,114.429c-1.264,0.875-2.536,1.75-3.792,2.633c-0.527,0.365-1.418,1.11-2.074,1.11h-0.008h-0.008
		c-0.656,0-1.547-0.745-2.074-1.11c-1.256-0.883-2.528-1.758-3.784-2.633c-0.575-0.389-1.394-1.305-1.394-2.042
		c0-0.794,0.429-1.475,1.296-1.475h11.927c0.705,0,1.296,0.583,1.296,1.297C43.811,113.116,43.138,113.935,42.425,114.429z
		 M43.811,121.023c0,0.714-0.583,1.297-1.296,1.297H30.587c-0.713,0-1.296-0.583-1.296-1.297v-6.433
		c0.243,0.268,0.519,0.502,0.818,0.705c1.345,0.915,2.706,1.831,4.027,2.795c0.681,0.502,1.523,1.118,2.406,1.118h0.008h0.008
		c0.883,0,1.726-0.616,2.406-1.118c1.321-0.956,2.682-1.88,4.035-2.795c0.292-0.203,0.567-0.438,0.81-0.705V121.023z"/>
</g>
<rect x="29.291" y="136.182" fill="none" width="32.124" height="16.664"/>
<g enable-background="new    ">
	<path d="M42.861,144.466c0,3.746-3.039,6.785-6.785,6.785c-3.746,0-6.785-3.039-6.785-6.785c0-3.745,3.039-6.784,6.785-6.784
		C39.822,137.682,42.861,140.721,42.861,144.466z M38.294,142.451c0.044-0.01,0.088-0.168,0.115-0.203
		c0.053-0.062,0.124-0.098,0.194-0.132c0.15-0.062,0.3-0.08,0.459-0.106c0.15-0.035,0.335-0.035,0.45,0.098
		c-0.026-0.026,0.186-0.213,0.212-0.222c0.08-0.044,0.212-0.026,0.265-0.104c0.018-0.026,0.018-0.194,0.018-0.194
		c-0.15,0.019-0.203-0.124-0.212-0.248c0,0.009-0.018,0.036-0.053,0.071c0.009-0.133-0.159-0.035-0.221-0.053
		c-0.204-0.055-0.177-0.195-0.239-0.346c-0.035-0.08-0.132-0.105-0.168-0.186c-0.035-0.055-0.053-0.168-0.132-0.178
		c-0.053-0.008-0.15,0.187-0.168,0.178c-0.08-0.045-0.115,0.018-0.177,0.053c-0.053,0.035-0.097,0.018-0.15,0.044
		c0.159-0.053-0.071-0.142-0.15-0.123c0.124-0.036,0.062-0.168-0.009-0.229c0.018,0,0.026,0,0.044,0
		c-0.018-0.079-0.265-0.149-0.344-0.203c-0.08-0.053-0.504-0.141-0.592-0.088c-0.106,0.062,0.027,0.238,0.027,0.326
		c0.009,0.105-0.106,0.133-0.106,0.222c0,0.149,0.283,0.123,0.212,0.325c-0.044,0.125-0.212,0.15-0.283,0.248
		c-0.071,0.089,0.009,0.248,0.08,0.31c0.07,0.054-0.124,0.142-0.15,0.159c-0.15,0.07-0.265-0.15-0.3-0.282
		c-0.026-0.098-0.035-0.212-0.142-0.267c-0.053-0.018-0.221-0.043-0.256,0.01c-0.053-0.132-0.239-0.186-0.362-0.229
		c-0.177-0.062-0.327-0.062-0.513-0.035c0.062-0.01-0.018-0.283-0.167-0.238c0.044-0.09,0.026-0.186,0.044-0.273
		c0.018-0.07,0.053-0.143,0.106-0.203c0.018-0.035,0.212-0.238,0.15-0.248c0.15,0.019,0.318,0.026,0.442-0.098
		c0.079-0.079,0.115-0.212,0.194-0.3c0.115-0.133,0.256,0.035,0.38,0.044c0.176,0.009,0.167-0.186,0.07-0.273
		c0.115,0.01,0.018-0.203-0.044-0.229c-0.08-0.026-0.38,0.054-0.221,0.114c-0.036-0.018-0.248,0.425-0.371,0.203
		c-0.036-0.043-0.053-0.229-0.133-0.237c-0.071,0-0.115,0.079-0.141,0.132c0.044-0.113-0.248-0.193-0.31-0.203
		c0.133-0.088,0.027-0.186-0.07-0.238c-0.071-0.043-0.292-0.078-0.354-0.009c-0.168,0.203,0.177,0.229,0.265,0.283
		c0.026,0.019,0.132,0.079,0.07,0.123c-0.053,0.026-0.212,0.071-0.229,0.106c-0.053,0.078,0.062,0.168-0.018,0.246
		c-0.08-0.078-0.08-0.211-0.142-0.301c0.08,0.098-0.318,0.045-0.309,0.045c-0.132,0-0.345,0.088-0.442-0.045
		c-0.018-0.035-0.018-0.238,0.036-0.193c-0.08-0.062-0.133-0.123-0.186-0.158c-0.292,0.097-0.565,0.221-0.831,0.361
		c0.035,0.01,0.062,0.01,0.106-0.01c0.071-0.025,0.132-0.07,0.203-0.105c0.088-0.034,0.274-0.141,0.371-0.062
		c0.009-0.019,0.036-0.036,0.044-0.045c0.062,0.071,0.124,0.142,0.177,0.222c-0.071-0.035-0.186-0.019-0.265-0.01
		c-0.062,0.02-0.168,0.036-0.194,0.106c0.026,0.044,0.062,0.114,0.044,0.159c-0.115-0.08-0.203-0.213-0.362-0.229
		c-0.07,0-0.141,0-0.194,0.009c-0.848,0.469-1.563,1.148-2.076,1.961c0.036,0.035,0.071,0.062,0.106,0.07
		c0.088,0.027,0,0.283,0.168,0.15c0.053,0.045,0.062,0.105,0.026,0.168c0.009-0.01,0.362,0.221,0.389,0.238
		c0.062,0.053,0.159,0.114,0.186,0.186c0.018,0.062-0.035,0.133-0.088,0.158c-0.009-0.018-0.142-0.149-0.159-0.113
		c-0.026,0.044,0,0.281,0.097,0.273c-0.142,0.008-0.08,0.557-0.115,0.662c0,0.01,0.018,0.01,0.018,0.01
		c-0.026,0.104,0.062,0.521,0.238,0.477c-0.115,0.025,0.204,0.434,0.248,0.46c0.115,0.079,0.248,0.132,0.327,0.247
		c0.088,0.124,0.088,0.311,0.212,0.406c-0.036,0.105,0.186,0.229,0.177,0.38c-0.018,0.009-0.027,0.009-0.044,0.019
		c0.044,0.123,0.212,0.123,0.274,0.237c0.035,0.071,0,0.239,0.115,0.204c0.018-0.193-0.115-0.391-0.212-0.548
		c-0.053-0.089-0.106-0.168-0.15-0.257c-0.044-0.079-0.053-0.178-0.088-0.266c0.036,0.01,0.23,0.079,0.212,0.105
		c-0.071,0.177,0.283,0.486,0.38,0.602c0.026,0.026,0.229,0.291,0.124,0.291c0.115,0,0.274,0.178,0.327,0.266
		c0.079,0.133,0.062,0.301,0.115,0.441c0.053,0.178,0.3,0.256,0.441,0.336c0.124,0.062,0.23,0.15,0.354,0.194
		c0.186,0.069,0.23,0.009,0.389-0.019c0.23-0.035,0.256,0.222,0.442,0.317c0.115,0.062,0.362,0.149,0.486,0.099
		c-0.053,0.018,0.186,0.379,0.203,0.405c0.08,0.106,0.23,0.159,0.318,0.265c0.026-0.018,0.053-0.043,0.062-0.078
		c-0.035,0.098,0.133,0.283,0.221,0.265c0.097-0.019,0.124-0.212,0.124-0.282c-0.177,0.088-0.336,0.018-0.433-0.158
		c-0.018-0.045-0.159-0.291-0.035-0.291c0.168,0,0.053-0.134,0.035-0.258c-0.018-0.123-0.141-0.203-0.203-0.309
		c-0.053,0.105-0.229,0.079-0.283-0.01c0,0.026-0.026,0.07-0.026,0.105c-0.044,0-0.088,0.01-0.132-0.009
		c0.018-0.106,0.026-0.238,0.053-0.354c0.044-0.158,0.336-0.468-0.044-0.449c-0.133,0.009-0.186,0.062-0.23,0.177
		c-0.044,0.104-0.026,0.203-0.15,0.256c-0.08,0.035-0.345,0.019-0.424-0.026c-0.168-0.098-0.283-0.406-0.283-0.582
		c-0.009-0.238,0.115-0.451,0-0.672c0.053-0.045,0.106-0.133,0.168-0.178c0.053-0.035,0.115,0.025,0.141-0.079
		c-0.026-0.018-0.062-0.053-0.07-0.053c0.132,0.062,0.38-0.089,0.495,0c0.071,0.053,0.15,0.069,0.194-0.019
		c0.009-0.026-0.062-0.133-0.026-0.203c0.026,0.149,0.124,0.177,0.256,0.08c0.053,0.053,0.194,0.035,0.292,0.088
		c0.098,0.062,0.115,0.158,0.23,0.025c0.071,0.106,0.08,0.106,0.106,0.213c0.026,0.098,0.08,0.344,0.168,0.389
		c0.186,0.115,0.141-0.193,0.124-0.301c-0.009-0.009-0.009-0.301-0.018-0.301c-0.283-0.062-0.177-0.281-0.018-0.433
		c0.026-0.019,0.229-0.088,0.318-0.159c0.08-0.07,0.177-0.193,0.133-0.309c0.044,0,0.079-0.036,0.097-0.08
		c-0.027-0.01-0.133-0.098-0.15-0.088c0.062-0.035,0.053-0.09,0.018-0.143c0.088-0.053,0.044-0.15,0.133-0.186
		c0.097,0.133,0.292-0.018,0.194-0.124c0.088-0.123,0.292-0.062,0.344-0.177c0.133,0.035,0.036-0.133,0.106-0.229
		c0.062-0.079,0.168-0.079,0.248-0.123c0,0.009,0.221-0.124,0.15-0.133c0.15,0.019,0.45-0.142,0.221-0.274
		c0.035-0.078-0.08-0.113-0.159-0.132c0.062-0.019,0.142,0.019,0.194-0.019c0.115-0.079,0.036-0.114-0.062-0.142
		c-0.124-0.034-0.283,0.044-0.38,0.105C38.426,142.337,38.382,142.434,38.294,142.451z M40.158,148.361
		c-0.053-0.053-0.15-0.035-0.221-0.07c-0.071-0.025-0.124-0.053-0.212-0.07c0.018-0.177-0.177-0.238-0.3-0.326
		c-0.115-0.088-0.186-0.187-0.354-0.15c-0.018,0.009-0.194,0.07-0.159,0.105c-0.115-0.098-0.168-0.149-0.318-0.193
		c-0.142-0.045-0.239-0.221-0.38-0.062c-0.071,0.07-0.036,0.178-0.071,0.247c-0.115-0.098,0.106-0.212,0.018-0.317
		c-0.106-0.123-0.292,0.08-0.38,0.133c-0.053,0.044-0.115,0.062-0.15,0.115c-0.044,0.062-0.062,0.141-0.097,0.203
		c-0.026-0.072-0.176-0.055-0.185-0.106c0.035,0.212,0.035,0.433,0.079,0.646c0.027,0.123,0,0.326-0.106,0.424
		c-0.106,0.098-0.238,0.203-0.256,0.354c-0.018,0.104,0.009,0.203,0.106,0.229c0.009,0.133-0.142,0.229-0.133,0.371
		c0,0.008,0.009,0.097,0.018,0.142C38.267,149.818,39.345,149.219,40.158,148.361z"/>
</g>
<rect x="29.294" y="164.995" fill="none" width="32.124" height="16.664"/>
<g enable-background="new    ">
	<path d="M42.864,178.325c0,0.954-0.786,1.739-1.74,1.739h-10.09c-0.954,0-1.74-0.785-1.74-1.739v-10.091
		c0-0.953,0.786-1.739,1.74-1.739h10.09c0.954,0,1.74,0.786,1.74,1.739V178.325z M41.327,172.236h-1.193
		c0.115,0.363,0.177,0.761,0.177,1.158c0,2.263-1.891,4.09-4.223,4.09c-2.324,0-4.214-1.827-4.214-4.09
		c0-0.397,0.062-0.795,0.177-1.158h-1.246v5.727c0,0.301,0.239,0.539,0.539,0.539h9.444c0.3,0,0.539-0.238,0.539-0.539V172.236z
		 M36.088,170.611c-1.502,0-2.721,1.185-2.721,2.643s1.219,2.643,2.721,2.643c1.511,0,2.73-1.185,2.73-2.643
		S37.599,170.611,36.088,170.611z M41.327,168.615c0-0.336-0.274-0.609-0.61-0.609H39.18c-0.336,0-0.61,0.273-0.61,0.609v1.458
		c0,0.336,0.274,0.608,0.61,0.608h1.537c0.336,0,0.61-0.272,0.61-0.608V168.615z"/>
</g>
</svg>
