<?xml version="1.0" encoding="utf-8"?>
<!-- Generator: Adobe Illustrator 15.0.0, SVG Export Plug-In . SVG Version: 6.00 Build 0)  -->
<!DOCTYPE svg PUBLIC "-//W3C//DTD SVG 1.1//EN" "http://www.w3.org/Graphics/SVG/1.1/DTD/svg11.dtd">
<svg version="1.1" id="Layer_1" xmlns="http://www.w3.org/2000/svg" xmlns:xlink="http://www.w3.org/1999/xlink" x="0px" y="0px"
	 width="1224px" height="1584px" viewBox="0 0 1224 1584" enable-background="new 0 0 1224 1584" xml:space="preserve">
<rect y="-1.502" fill="#FFFFFF" width="1224" height="1584"/>
<rect x="171.185" y="1524.223" fill="none" width="192.512" height="64.281"/>
<text transform="matrix(1 0 0 1 171.167 1538.7861)" font-family="'Lato-Light'" font-size="20">229 W 60th Street </text>
<rect x="629.707" y="1524.219" fill="none" width="143.578" height="64.281"/>
<text transform="matrix(1 0 0 1 630.6318 1538.7871)" font-family="'Lato-Light'" font-size="20">(202) 297-1885  </text>
<rect x="389.781" y="1524.219" fill="none" width="188.775" height="64.281"/>
<text transform="matrix(1 0 0 1 421.71 1538.7861)"><tspan x="0" y="0" font-family="'Lato-Light'" font-size="20">New York, NY </tspan><tspan x="33.055" y="30" font-family="'Lato-Light'" font-size="20">10023</tspan></text>
<rect x="813.783" y="1524.219" fill="none" width="235.18" height="64.281"/>
<text transform="matrix(1 0 0 1 838.6289 1538.791)" font-family="'Lato-Light'" font-size="20">www.amraandelma.com </text>
<line fill="none" stroke="#000000" stroke-width="0.05" stroke-miterlimit="10" x1="71.551" y1="1479.168" x2="1150.447" y2="1479.168"/>
<g>
	<g>
		<rect x="396.322" y="53.064" fill="none" width="231.668" height="79.666"/>
		<text transform="matrix(1 0 0 1 396.3223 108.3027)" font-family="'Garamond'" font-size="83.8925">Amra</text>
	</g>
	<rect x="593.879" y="46.256" fill="none" width="71.604" height="79.664"/>
	<text transform="matrix(1 0 0 1 593.8809 107.8735)" font-family="'HelveticaNeue-UltraLight'" font-size="86.3048">&amp;</text>
	<path d="M708.586,101.566c-1.066,1.438-2.484,2.729-4.264,3.869c-1.779,1.14-3.559,2.061-5.346,2.765s-3.623,1.151-5.512,1.341
		c-3.912,0.392-7.732-0.257-11.463-1.95c-3.727-1.693-6.572-3.733-8.533-6.126c-1.963-2.39-3.424-5.26-4.389-8.6
		c-1.365-4.737-1.602-9.314-0.699-13.734c0.902-4.421,3.158-7.661,6.777-9.721c4.941,1.416,7.916,2.226,8.926,2.427
		c1.006,0.204,2.205,0.234,3.602,0.095c1.258-0.127,2.381-0.412,3.359-0.859c0.984-0.445,1.705-0.994,2.164-1.649
		c0.459-0.654,0.578-1.362,0.359-2.123c-0.045-0.154-0.109-0.311-0.195-0.469c0-0.01-1.357-4.504-13.846-0.97
		c0,0-0.137,0.047-0.348,0.12c-0.25-0.332-0.641-1.211-0.641-1.211c-0.68-2.356-0.92-4.593-0.719-6.713
		c0.193-2.118,0.705-4.009,1.521-5.672c0.816-1.66,1.781-2.839,2.902-3.535c1.117-0.697,2.49-1.193,4.117-1.484
		c1.348-0.136,2.525-0.104,3.535,0.098c1.004,0.2,1.85,0.611,2.541,1.232c0.688,0.623,1.137,1.289,1.34,2.002
		c0.172,0.586,0.23,1.314,0.18,2.183c0,0-0.131,0.69-0.104,1.573c-0.014,0.16,0.012,0.502,0.033,0.504
		c0.154,1.458,0.836,3.163,3.16,3.271c2.047,0.09,4.109-1.312,4.381-3.429c0.328-2.583-1.984-5.056-4.111-6.279
		c-2.107-1.213-4.012-1.958-5.713-2.239c-1.703-0.283-3.521-0.327-5.455-0.134c-2.336,0.236-4.668,0.828-6.982,1.778
		c-2.32,0.947-4.336,2.055-6.057,3.312c-1.707,1.301-2.932,2.913-3.672,4.834c-0.465,1.202-0.684,2.376-0.656,3.519
		c-0.129,5.242,3.633,8.01,3.633,8.01c-0.363-0.412-0.684-0.855-0.971-1.318c0.287,0.444,0.607,0.882,0.971,1.318
		c-0.941,0.745-2.674,2.158-5.199,4.236c-2.525,2.077-4.539,4.116-6.045,6.114c-1.506,1.999-2.543,4.35-3.102,7.054
		c-0.561,2.709-0.43,5.498,0.398,8.368c0.756,2.619,2.389,5.55,4.896,8.796c2.51,3.244,5.973,5.59,10.395,7.035
		c4.42,1.447,8.195,2.145,11.326,2.09s5.068-0.074,5.814-0.062c0.537-0.054,1.074-0.109,1.617-0.163
		c5.264-0.527,9.664-2.072,13.207-4.632c3.541-2.562,5.615-5.99,6.23-10.287C710.773,98.32,709.652,100.127,708.586,101.566z
		 M692.227,67.635c0.219,0.612,0.064,1.192-0.49,1.74c-0.684,0.676-1.541,1.066-2.576,1.17c-1.934,0.195-3.697,0.025-5.283-0.511
		c-1.594-0.536-2.801-1.521-3.633-2.961C680.244,67.073,690.342,63.355,692.227,67.635z M696.686,51.151
		c1.102,3.542,0.371,5.461-0.447,5.425c-0.816-0.039-0.865-1.806-0.811-2.356c0.051-0.548-0.137-1.915-0.137-1.935
		c-0.057-0.312-0.131-0.654-0.242-1.034c-0.158-0.549-0.307-1.022-0.445-1.423c-0.139-0.397-0.277-0.764-0.422-1.098
		C695.486,49.077,696.32,49.885,696.686,51.151z M671.805,65.576c-0.773-1.138-1.352-2.363-1.725-3.672
		c-1.014-3.504-0.34-6.418,2.021-8.741c1.512-1.541,3.174-2.555,4.99-3.043c-1.898,1.757-3.26,3.694-4.084,5.819
		c-0.818,2.126-0.861,4.476-0.117,7.051c0.633,2.196,1.996,4.122,4.094,5.78c-0.6,0.188-1.422-0.01-2.461-0.601
		C673.486,67.579,672.578,66.715,671.805,65.576z M671.283,107.004c-3.398-1.702-6.057-3.798-7.982-6.282
		c-0.457-0.592-0.879-1.173-1.262-1.746c-0.883-1.381-3.605-6.366-2.344-13.749c0.742-3.057,2.219-6.778,5.137-9.865l3.213-2.695
		c-3.18,4.541-5.127,8.457-5.846,11.75c-0.715,3.292-0.689,6.272,0.08,8.936c0.512,1.776,1.57,3.845,3.178,6.209
		c1.605,2.363,3.756,4.44,6.449,6.239c2.693,1.795,5.654,3.078,8.881,3.842C677.846,109.587,674.678,108.708,671.283,107.004z"/>
	<g>
		<path d="M714.939,47.409c1.291,0,2.918-0.059,4.883-0.179c1.963-0.118,3.197-0.179,3.705-0.179
			c0.16,5.49,0.217,11.178,0.178,17.06c-0.041,5.884-0.125,10.254-0.242,13.111c-0.123,2.857-0.344,7.549-0.666,14.075
			c-0.326,6.527-0.414,10.127-0.273,10.801c0.203,0.95,0.537,1.721,0.998,2.311c0.459,0.59,1.055,0.882,1.787,0.882
			c1.289,0,2.402-0.616,3.35-1.852c0.941-1.231,1.85-2.44,2.723-3.619c-0.271,2.436-1.25,4.559-2.938,6.368
			c-1.691,1.811-3.375,2.799-5.049,2.971c-1.676,0.167-2.75,0.267-3.217,0.296c-0.473,0.028-0.848,0.041-1.129,0.041
			c-1.4,0-2.598-0.279-3.584-0.843c-0.99-0.561-1.65-1.626-1.984-3.2c-0.932-4.379-1.08-10.15-0.443-17.311
			c0.639-7.16,0.988-12.583,1.049-16.261c0.059-3.677,0.129-7.566,0.211-11.667C714.377,56.116,714.59,51.848,714.939,47.409z
			 M716.451,48.588c-0.324,3.758-0.535,9.423-0.637,16.993c-0.102,7.572-0.232,13.882-0.393,18.93
			c-0.162,5.047-0.371,11.583-0.629,19.603c0.109,1.291,0.59,2.243,1.451,2.859c0.857,0.618,1.904,0.925,3.139,0.925
			c1.066,0,1.92-0.193,2.568-0.589c-1.318-0.391-2.26-0.726-2.824-1.009c-0.562-0.279-0.924-0.784-1.078-1.514
			c-0.883-4.149-1.152-9.577-0.809-16.277c0.34-6.704,0.633-12.187,0.875-16.449c0.246-4.262,0.416-8.397,0.518-12.41
			c0.104-4.008,0.086-7.781-0.047-11.314L716.451,48.588z"/>
		<path d="M775.229,78.958c1.072-0.28,2.09-0.422,3.055-0.422c2.156,0,3.588,0.535,4.297,1.599c0.707,1.068,1.244,2.049,1.604,2.945
			c0.357,0.898,0.607,1.655,0.738,2.271c0.334,1.571,0.16,4.585-0.518,9.044c-0.68,4.46-0.797,7.729-0.357,9.801
			c0.158,0.73,0.852,1.095,2.084,1.095c1.01,0,1.781-0.196,2.314-0.589c1.062-1.347,2.15-2.693,3.266-4.039
			c-0.514,2.076-1.568,3.969-3.17,5.68c-1.6,1.712-3.52,2.565-5.764,2.565c-1.965,0-3.66-0.265-5.09-0.799
			c-1.434-0.533-2.379-1.358-2.842-2.482c-0.467-1.12-0.77-2.047-0.926-2.776c-0.432-2.02-0.352-5.133,0.244-9.339
			c0.59-4.206,0.66-7.373,0.207-9.507c-0.191-0.896-0.984-1.346-2.381-1.346c-0.676,0-1.639,0.856-2.896,2.567
			c-1.26,1.711-2.479,4.571-3.67,8.58c-1.188,4.011-2.34,9.044-3.453,15.102h-9.141c0.127-2.284,0.553-6.031,1.27-11.242
			c0.715-5.209,0.672-9.682-0.121-13.416c-0.141-0.666-0.773-1.001-1.893-1.001c-0.672,0-1.59,0.842-2.748,2.524
			c-1.154,1.682-2.32,4.122-3.492,7.318c-1.721,6.674-3.156,12.061-4.303,16.152h-8.75c-0.336-4.487-0.203-10.053,0.402-16.7
			c0.607-6.644,0.936-10.641,0.986-11.987c0.422-0.393,0.992-0.672,1.715-0.843c0.721-0.167,1.504-0.251,2.342-0.251
			c0.787,0,1.643,0.071,2.57,0.21c0.926,0.141,2.004,0.323,3.229,0.548c-0.123,2.579-0.234,5.355-0.334,8.329
			c-0.094,2.973-0.152,5.356-0.162,7.148c1.418-3.587,2.861-7.177,4.334-10.768c2.047-4.038,4.664-6.056,7.848-6.056
			c0.506,0,1.244,0.055,2.217,0.168c0.971,0.113,2.055,0.532,3.244,1.262c1.189,0.728,1.938,1.5,2.25,2.313s0.518,1.444,0.611,1.893
			c0.205,0.954,0.141,2.244-0.184,3.869c-0.328,1.629-0.398,2.891-0.205,3.786c0.061,0.283,0.148,0.703,0.266,1.262
			c1.32-2.859,2.641-5.72,3.963-8.58C769.67,81.762,772.113,79.799,775.229,78.958z M735.871,80.978
			c-0.219,2.132-0.488,5.357-0.807,9.675c-0.314,4.319-0.562,7.768-0.744,10.347c-0.182,2.581-0.295,4.684-0.342,6.31
			c0.307,0.396,0.656,0.589,1.051,0.589c0.627-0.223,1.072-0.362,1.34-0.419c0.254-3.029,0.643-7.207,1.162-12.536
			c0.523-5.327,0.814-9.843,0.867-13.543L735.871,80.978z M754.008,82.407c0.871,0.395,1.34,1.015,1.406,1.857
			c0.213,5.235,0.242,9.258,0.082,12.071c-0.156,2.813-0.547,6.473-1.16,10.973c0.219,0.227,0.58,0.339,1.084,0.339
			s0.971-0.058,1.393-0.17c0.479-3.557,0.965-7.353,1.449-11.39c0.488-4.036,0.576-7.833,0.273-11.391
			c-0.045-0.733-0.395-1.383-1.047-1.948c-0.652-0.562-1.369-0.846-2.156-0.846C754.828,81.903,754.387,82.07,754.008,82.407z
			 M774.363,81.399c0.568,0.952,0.953,1.905,1.154,2.859c0.252,1.177,0.283,2.916,0.102,5.215c-0.184,2.301-0.293,4.362-0.328,6.184
			c-0.033,1.824-0.053,4.163-0.062,7.026c0.285,1.346,0.98,2.51,2.088,3.491c1.105,0.98,2.248,1.473,3.426,1.473
			c0.449,0,0.762-0.112,0.939-0.339c-0.186-0.279-0.652-0.63-1.402-1.05c-0.75-0.421-1.201-0.843-1.352-1.263
			c-0.152-0.419-0.266-0.812-0.346-1.178c-0.074-0.365-0.133-0.632-0.17-0.8c-0.465-2.188-0.41-5.369,0.16-9.55
			c0.57-4.177,0.674-7.107,0.316-8.79l-0.213-1.01c-0.227-0.784-0.783-1.415-1.68-1.894C776.1,81.301,775.223,81.176,774.363,81.399
			z"/>
		<path d="M797.254,81.229c2.064-1.624,4.5-2.438,7.307-2.438c1.736,0,3.361,0.329,4.877,0.989c1.516,0.657,2.928,1.703,4.244,3.134
			c0.568-0.229,0.846-0.689,0.84-1.379s-0.086-1.263-0.24-1.723c0.939-0.346,2.021-0.515,3.26-0.515
			c0.672,0,1.689,0.055,3.064,0.166c1.367,0.112,2.359,0.168,2.975,0.168c-0.09,1.685-0.484,5.035-1.186,10.054
			c-0.699,5.021-0.596,9.663,0.312,13.923c0.213,1.011,0.938,1.514,2.17,1.514c0.451,0,0.924-0.084,1.42-0.252
			c0.498-0.167,0.971-0.518,1.418-1.051c0.447-0.53,0.824-1.19,1.133-1.977c0.312-0.784,0.531-1.402,0.66-1.852
			c0.314,1.474,0.197,2.773-0.344,3.907c-0.547,1.132-1.615,2.306-3.209,3.524c-1.59,1.216-3.398,1.822-5.414,1.822
			c-1.234,0-2.445-0.212-3.627-0.64c-1.188-0.426-2.1-1.165-2.744-2.218c-0.646-1.054-1.273-2.092-1.885-3.115
			c-1.199,1.739-2.621,3.17-4.262,4.29c-1.639,1.124-3.469,1.683-5.49,1.683c-1.174,0-2.773-0.321-4.787-0.967
			c-2.02-0.644-3.594-2.187-4.727-4.627c-1.139-2.44-1.877-4.473-2.225-6.1c-0.691-3.252-0.463-6.269,0.686-9.042
			C792.631,85.732,794.553,83.305,797.254,81.229z M801.551,80.473c-1.562,0.56-2.9,1.262-4.01,2.104
			c-1.113,0.84-2.18,2.089-3.201,3.743s-1.707,3.448-2.055,5.383c-0.344,1.936-0.297,3.94,0.145,6.015
			c0.549,2.581,1.662,5.05,3.34,7.403c0.461,0.058,1.279,0.422,2.465,1.095c1.178,0.673,1.965,1.01,2.357,1.01
			c0.391,0,0.717-0.196,0.967-0.588c-1.568-0.78-2.65-1.463-3.254-2.05c-0.602-0.584-1.102-1.35-1.496-2.299
			c-0.398-0.945-0.744-2.116-1.043-3.512c-0.768-3.62-0.623-7.032,0.436-10.237C797.254,85.336,799.041,82.646,801.551,80.473z
			 M806.986,81.903c-2.67,1.683-4.445,3.954-5.322,6.814c-0.881,2.859-0.93,6.112-0.156,9.757c0.262,1.235,0.576,2.386,0.945,3.45
			c0.365,1.066,0.973,1.949,1.82,2.652c0.852,0.7,1.699,1.05,2.543,1.05c0.445,0,1.49-0.561,3.131-1.682
			c1.641-1.123,2.746-3.436,3.32-6.941c0.574-3.504,0.318-7.809-0.768-12.913c-0.131-0.616-0.631-1.191-1.502-1.726
			c-0.869-0.532-1.752-0.799-2.654-0.799C807.787,81.566,807.334,81.678,806.986,81.903z M816.479,80.641
			c-1.141,4.126-1.848,8.121-2.119,11.996c-0.273,3.873,0.07,8.065,1.033,12.579c0.201,0.947,1.059,1.422,2.574,1.422
			c0.336,0,0.896,0,1.68,0c-0.395-0.281-0.789-0.561-1.189-0.842c-0.391-0.28-0.668-0.644-0.818-1.094
			c-0.152-0.449-0.279-0.925-0.389-1.431c-0.107-0.504-0.189-0.896-0.252-1.176c-0.797-3.76-0.797-7.923-0.002-12.495
			c0.793-4.57,1.238-7.558,1.334-8.96H816.479z"/>
	</g>
</g>
<rect x="141.205" y="211.707" fill="none" width="935.953" height="1130.943"/>
<text transform="matrix(1 0 0 1 141.2051 228.3867)"><tspan x="0" y="0" font-family="'TimesNewRomanPSMT'" font-size="24">To Whom It May Concern:</tspan><tspan x="0" y="84" font-family="'TimesNewRomanPSMT'" font-size="24">Collaboratively administrate empowered markets via plug-and-play networks. Dynamically </tspan><tspan x="0" y="126" font-family="'TimesNewRomanPSMT'" font-size="24">procrastinate B2C users after installed base benefits. Dramatically visualize customer directed </tspan><tspan x="0" y="168" font-family="'TimesNewRomanPSMT'" font-size="24">convergence without revolutionary ROI.</tspan><tspan x="0" y="252" font-family="'TimesNewRomanPSMT'" font-size="24">Efficiently unleash cross-media information without cross-media value. Quickly maximize </tspan><tspan x="0" y="294" font-family="'TimesNewRomanPSMT'" font-size="24">timely deliverables for real-time schemas. Dramatically maintain clicks-and-mortar solutions </tspan><tspan x="0" y="336" font-family="'TimesNewRomanPSMT'" font-size="24">without functional solutions. Completely synergize resource taxing relationships via premier </tspan><tspan x="0" y="378" font-family="'TimesNewRomanPSMT'" font-size="24">niche markets. Professionally cultivate one-to-one customer service with robust ideas. </tspan><tspan x="0" y="420" font-family="'TimesNewRomanPSMT'" font-size="24">Dynamically innovate resource-leveling customer service for state of the art customer service.</tspan><tspan x="0" y="504" font-family="'TimesNewRomanPSMT'" font-size="24">Bacon ipsum dolor amet pariatur pastrami pork chop tri-tip flank pork loin tongue. Pastrami irure </tspan><tspan x="0" y="546" font-family="'TimesNewRomanPSMT'" font-size="24">porchetta meatball, shankle culpa short loin ut chuck enim. Exercitation occaecat laboris, </tspan><tspan x="0" y="588" font-family="'TimesNewRomanPSMT'" font-size="24">cupidatat nostrud bresaola meatball shank eiusmod sed kielbasa nisi ex pancetta est. Strip steak </tspan><tspan x="0" y="630" font-family="'TimesNewRomanPSMT'" font-size="24">in ground round frankfurter labore dolor short ribs shank jerky beef laborum. Drumstick flank </tspan><tspan x="0" y="672" font-family="'TimesNewRomanPSMT'" font-size="24">mollit porchetta, exercitation anim pig shoulder andouille tempor qui meatloaf filet mignon </tspan><tspan x="0" y="714" font-family="'TimesNewRomanPSMT'" font-size="24">chicken. Cupidatat est dolore, quis occaecat ham id tri-tip.</tspan><tspan x="0" y="798" font-family="'TimesNewRomanPSMT'" font-size="24">Sincerely,</tspan><tspan x="0" y="1008" font-family="'TimesNewRomanPSMT'" font-size="24">Elma Beganovic</tspan></text>
<g>
	<g>
		<path d="M148.119,1110.996c12.991,8.664,29.284,12.188,44.345,7.13c15.887-5.335,25.5-19.78,27.038-36.077
			c0.112-1.192-0.41-2.892-1.782-3.174c-16.997-3.504-30.339,13.09-36.257,26.967c-5.91,13.858-8.039,34.923,8.597,42.111
			c14.611,6.314,31.997-5.803,41.8-15.565c9.607-9.566,21.454-26.073,15.286-40.317c-0.717-1.654-3.22-1.625-4.505-0.78
			c-16.699,10.983-21.129,36.663-17.399,55.07c1.256,6.197,4.82,14.735,12.538,13.946c11.315-1.156,18.866-15.307,23.662-23.989
			c-2.523,0.34-5.045,0.681-7.568,1.021c0.756,8.441,4.983,15.965,14.207,16.271c8.169,0.271,16.16-5.833,20.603-12.192
			c-2.165,0.281-4.329,0.563-6.493,0.846c7.866,17.202,29.7,8.642,43.945,8.03c12.712-0.546,25.543,0.585,38.268,0.573
			c7.676-0.007,15.473-1.362,23.104-1.177c-0.838-1.484-1.677-2.968-2.515-4.452c-0.005,0.012-0.01,0.023-0.016,0.035
			c1.438-1.43,2.876-2.859,4.314-4.289c-0.951,0.256-1.942,0.385-2.911,0.551c-4.464,0.761-6.849,9.637-0.754,8.598
			c3.391-0.577,5.758-1.436,7.241-4.876c0.855-1.984-0.252-4.397-2.516-4.452c-6.423-0.156-13.053,1.017-19.497,1.143
			c-12.305,0.24-24.616-0.405-36.919-0.538c-8.321-0.091-16.282,1.482-24.518,2.379c-7.932,0.863-15.913,0.354-19.602-7.716
			c-1.24-2.712-5.3-0.862-6.493,0.846c-2.92,4.18-7.089,7.637-12.397,7.808c-6.416,0.206-8.333-6.586-8.793-11.729
			c-0.417-4.654-6.405-1.085-7.568,1.021c-2.727,4.938-8.808,17.26-14.818,17.467c-4.187,0.145-6.01-7.858-6.627-11.539
			c-1.259-7.509-0.641-15.523,1.107-22.901c1.48-6.248,4.124-14.263,9.805-17.999c-1.501-0.261-3.003-0.521-4.505-0.78
			c4.228,9.763-5.349,21.569-11.521,28.106c-7.513,7.956-20.049,16.717-31.596,13.553c-13.099-3.588-12.054-19.801-8.683-29.928
			c3.297-9.905,12.732-25.111,25.226-22.536c-0.594-1.058-1.188-2.115-1.782-3.174c-1.173,12.425-7.801,22.187-19.974,25.893
			c-12.354,3.763-26.159,0.152-36.644-6.84C150.585,1100.693,144.278,1108.435,148.119,1110.996L148.119,1110.996z"/>
	</g>
</g>
<g>
	<g>
		<path d="M412.855,1098.262c12.26,20.091,37.572,6.229,50.876-5.242c-1.966-0.689-3.933-1.38-5.899-2.07
			c-0.001,21.688,0.735,44.771-6.436,65.539c2.688-0.721,5.377-1.441,8.065-2.162c-0.674-5.679,1.27-12.488,2.683-18.057
			c1.996-7.868,4.564-16.405,9.242-23.148c1.014-1.461,2.722-4.018,4.713-4.27c2.08-0.263,5.65,0.756,4.993,3.398
			c-1.652,6.64-9.053,12.91-14.156,17.061c-2.206,1.794-4.174,7.381,0.309,7.63c4.465,0.249,8.828,0.752,13.115,2.068
			c1.754,0.538,5.356,1.728,6.037,3.759c0.334,0.995,0.729-0.553-0.137,0.483c-0.774,0.927-2.155,1.522-3.186,2.071
			c-4.297,2.286-9.296,3.302-14.031,4.211c0.105,2.725,0.21,5.449,0.316,8.175c16.288-10.508,36.264-12.408,53.333-21.334
			c-1.501-0.261-3.003-0.521-4.505-0.78c4.797,12.057,9.913,25.363,5.208,38.229c2.702-0.369,5.404-0.738,8.105-1.107
			c0.339-14.552,30.31-51.652,40.02-26.453c1.362,3.535,6.288-0.139,7.252-1.944c1.465-2.746,2.635-4.385,5.911-3.818
			c3.054,0.528,5.939,1.91,8.926,2.713c7.236,1.944,13.5-1.182,17.739-7.13c-2.165,0.281-4.329,0.563-6.493,0.846
			c2.306,5.447,6.151,12.175,13.1,9.642c4.873-1.776,7.943-7.728,13.002-8.438c8.797-1.235,17.797,1.534,26.517,2.369
			c9.665,0.926,18.608-1.475,26.258-7.48c2.639-2.072,3.816-8.783-1.354-7.486c-7.343,1.841-19.418,8.923-10.807,17.113
			c6.504,6.187,17.52,8.957,25.91,11.334c11.401,3.229,23.83,2.086,35.549,1.768c13.624-0.372,27.253-1.423,40.883-1.474
			c4.371-0.016,8.423-8.906,2.844-8.885c-10.323,0.038-20.653,0.742-30.966,1.14c-6.583,0.254-13.168,0.449-19.755,0.536
			c-5.758,0.077-12.332,0.75-18.019-0.257c-7.368-1.303-14.758-4.003-21.604-6.945c-3.144-1.351-6.325-2.891-8.828-5.271
			c-1.344-1.277-0.299,0.228-1.818,1.689c1.397-1.345,4.065-1.701,5.857-2.15c-0.451-2.495-0.902-4.991-1.354-7.486
			c-13.592,10.672-30.787,1.146-46.135,2.551c-5.043,0.462-8.462,2.559-12.186,5.894c-1.033,0.926-2.713,3.07-4.205,3.189
			c-2.551,0.202-4.581-5.927-5.264-7.542c-1.175-2.776-5.327-0.791-6.493,0.846c-4.446,6.239-10.527,1.665-16.529,0.334
			c-8.027-1.779-13.967,3.36-17.563,10.099c2.417-0.647,4.834-1.296,7.252-1.944c-2.415-6.267-6.728-10.99-13.68-11.541
			c-6.958-0.553-13.936,4.041-19.099,8.149c-10.781,8.579-22.865,23.819-23.202,38.271c-0.141,6.035,6.851,2.324,8.105-1.107
			c5.514-15.079,0.185-30.256-5.458-44.439c-0.708-1.78-3.193-1.466-4.505-0.78c-17.075,8.929-36.991,10.792-53.333,21.334
			c-2.966,1.913-5.738,9.337,0.316,8.175c9.774-1.876,24.281-5.518,26.51-17.041c2.167-11.205-18.229-12.674-24.711-13.034
			c0.103,2.543,0.206,5.087,0.309,7.63c7.523-6.119,17.308-15.266,18.986-25.292c0.772-4.613-1.349-8.06-5.661-9.705
			c-4.479-1.71-8.839-0.186-12.535,2.462c-8.477,6.07-12.558,18.494-15.479,27.967c-2.607,8.454-5.568,18.593-4.504,27.553
			c0.624,5.256,7.187,0.385,8.065-2.162c7.439-21.546,6.897-45.295,6.898-67.793c0-3.521-3.475-4.16-5.899-2.07
			c-10.139,8.742-30.137,21.245-39.79,5.426C417.814,1087.704,410.526,1094.443,412.855,1098.262L412.855,1098.262z"/>
	</g>
</g>
</svg>
