<?xml version="1.0" encoding="utf-8"?>
<!-- Generator: Adobe Illustrator 15.0.0, SVG Export Plug-In . SVG Version: 6.00 Build 0)  -->
<!DOCTYPE svg PUBLIC "-//W3C//DTD SVG 1.1//EN" "http://www.w3.org/Graphics/SVG/1.1/DTD/svg11.dtd">
<svg version="1.1" id="Layer_1" xmlns="http://www.w3.org/2000/svg" xmlns:xlink="http://www.w3.org/1999/xlink" x="0px" y="0px"
	 width="378px" height="216px" viewBox="0 0 378 216" enable-background="new 0 0 378 216" xml:space="preserve">
<rect x="0.301" width="378" height="216"/>
<g>
	<rect x="51.781" y="54.771" fill="none" width="114.27" height="127.134"/>
	<text transform="matrix(1 0 0 1 51.7812 158.4795)" fill="#FFFFFF" font-family="'Garamond'" font-size="157.4982">A</text>
	<rect x="152.191" y="56.542" fill="none" width="114.27" height="127.137"/>
	
		<text transform="matrix(1 0 0 1 152.1914 154.8789)" fill="#FFFFFF" font-family="'HelveticaNeue-UltraLight'" font-size="137.7291">&amp;</text>
	<path fill="#FFFFFF" d="M321.845,143.232c-1.702,2.299-3.97,4.355-6.806,6.174c-2.838,1.818-5.681,3.291-8.531,4.416
		c-2.851,1.121-5.785,1.833-8.8,2.136c-6.243,0.628-12.34-0.409-18.288-3.111c-5.949-2.7-10.487-5.958-13.619-9.775
		c-3.134-3.816-5.466-8.392-7.004-13.726c-2.179-7.559-2.551-14.863-1.115-21.917c1.438-7.053,5.042-12.224,10.816-15.511
		c7.886,2.259,12.636,3.549,14.242,3.873s3.522,0.372,5.748,0.149c2.008-0.203,3.798-0.658,5.364-1.371
		c1.568-0.71,2.718-1.588,3.449-2.635c0.733-1.042,0.926-2.171,0.575-3.384c-0.072-0.248-0.176-0.498-0.312-0.75
		c-0.004-0.014-2.167-7.185-22.097-1.547c0,0-0.218,0.077-0.556,0.194c-0.396-0.532-1.021-1.935-1.021-1.935
		c-1.083-3.76-1.467-7.329-1.148-10.711c0.315-3.382,1.126-6.397,2.43-9.052c1.302-2.649,2.847-4.53,4.633-5.642
		c1.784-1.112,3.972-1.9,6.571-2.369c2.151-0.217,4.03-0.164,5.64,0.155c1.604,0.321,2.957,0.977,4.057,1.969
		c1.098,0.991,1.811,2.055,2.138,3.191c0.271,0.939,0.366,2.099,0.285,3.486c0,0-0.212,1.1-0.165,2.509
		c-0.018,0.258,0.018,0.8,0.054,0.803c0.248,2.326,1.335,5.05,5.043,5.216c3.267,0.148,6.56-2.087,6.989-5.47
		c0.524-4.121-3.163-8.065-6.561-10.021c-3.365-1.931-6.403-3.123-9.117-3.574c-2.717-0.447-5.616-0.519-8.702-0.209
		c-3.731,0.375-7.447,1.32-11.146,2.836c-3.701,1.515-6.919,3.278-9.663,5.285c-2.725,2.08-4.68,4.65-5.862,7.714
		c-0.74,1.92-1.09,3.792-1.048,5.619c-0.199,8.364,5.799,12.779,5.799,12.779c-0.581-0.658-1.093-1.364-1.55-2.099
		c0.461,0.706,0.974,1.407,1.55,2.099c-1.503,1.19-4.269,3.445-8.295,6.762c-4.031,3.315-7.246,6.568-9.649,9.757
		c-2.402,3.189-4.056,6.942-4.949,11.261c-0.897,4.319-0.684,8.771,0.638,13.352c1.204,4.181,3.81,8.857,7.812,14.036
		c4.005,5.181,9.535,8.923,16.586,11.229c7.054,2.308,13.077,3.42,18.076,3.332c4.997-0.084,8.088-0.119,9.277-0.099
		c0.859-0.086,1.721-0.173,2.584-0.26c8.396-0.842,15.421-3.306,21.073-7.395c5.651-4.087,8.967-9.558,9.943-16.415
		C325.335,138.055,323.543,140.937,321.845,143.232z M295.736,89.084c0.354,0.977,0.1,1.901-0.782,2.774
		c-1.093,1.081-2.463,1.704-4.113,1.869c-3.085,0.311-5.897,0.038-8.435-0.817c-2.532-0.854-4.464-2.427-5.79-4.723
		C276.616,88.188,292.725,82.255,295.736,89.084z M302.853,62.777c1.761,5.654,0.594,8.714-0.714,8.656
		c-1.306-0.059-1.375-2.88-1.294-3.76c0.081-0.873-0.214-3.056-0.219-3.086c-0.088-0.498-0.21-1.042-0.387-1.649
		c-0.25-0.876-0.489-1.632-0.711-2.269c-0.22-0.636-0.442-1.22-0.671-1.754C300.938,59.47,302.27,60.756,302.853,62.777z
		 M263.146,85.797c-1.234-1.816-2.153-3.771-2.754-5.859c-1.614-5.591-0.537-10.241,3.226-13.948
		c2.411-2.46,5.068-4.078,7.967-4.856c-3.033,2.802-5.206,5.896-6.518,9.286c-1.311,3.393-1.373,7.143-0.188,11.251
		c1.008,3.505,3.187,6.58,6.535,9.224c-0.961,0.305-2.272-0.015-3.93-0.957C265.828,88.995,264.382,87.615,263.146,85.797z
		 M262.311,151.911c-5.42-2.718-9.664-6.061-12.735-10.024c-0.73-0.945-1.404-1.875-2.017-2.789
		c-1.408-2.203-5.751-10.159-3.74-21.94c1.188-4.877,3.545-10.817,8.198-15.745l5.128-4.299c-5.073,7.245-8.182,13.497-9.326,18.752
		c-1.142,5.252-1.101,10.007,0.124,14.258c0.821,2.835,2.508,6.138,5.074,9.907c2.564,3.771,5.994,7.088,10.292,9.959
		c4.298,2.863,9.022,4.91,14.173,6.129C272.785,156.034,267.729,154.63,262.311,151.911z"/>
</g>
</svg>
