<?xml version="1.0" encoding="utf-8"?>
<!-- Generator: Adobe Illustrator 15.0.0, SVG Export Plug-In . SVG Version: 6.00 Build 0)  -->
<!DOCTYPE svg PUBLIC "-//W3C//DTD SVG 1.1//EN" "http://www.w3.org/Graphics/SVG/1.1/DTD/svg11.dtd">
<svg version="1.1" id="Layer_1" xmlns="http://www.w3.org/2000/svg" xmlns:xlink="http://www.w3.org/1999/xlink" x="0px" y="0px"
	 width="378px" height="216px" viewBox="0 0 378 216" enable-background="new 0 0 378 216" xml:space="preserve">
<rect x="0.15" fill="#FFFFFF" width="378" height="216"/>
<g>
	<rect x="29.159" y="33.011" fill="none" width="312.749" height="21.5"/>
	<text transform="matrix(1 0 0 1 29.1592 46.3848)" font-family="'Lato-Bold'" font-size="18" letter-spacing="1">ELMA BEGANOVIC</text>
</g>
<g>
	<rect x="28.158" y="68.379" fill="none" width="328.991" height="27.751"/>
	<text transform="matrix(1 0 0 1 28.1582 81.6538)" font-family="'Lato-Regular'" font-size="18" letter-spacing="1">CO-FOUNDER OF AMRA &amp; ELMA</text>
</g>
<g>
	<rect x="57.662" y="109.614" fill="none" width="237.819" height="18.921"/>
	<text transform="matrix(1 0 0 1 57.6621 120.542)" font-family="'Lato-Light'" font-size="15">elmab@clubfashionista.com</text>
</g>
<g>
	<rect x="58.321" y="138.94" fill="none" width="237.16" height="18.92"/>
	<text transform="matrix(1 0 0 1 58.3213 149.8682)" font-family="'Lato-Light'" font-size="15">www.clubfashionista.com</text>
</g>
<g>
	<rect x="59.421" y="167.976" fill="none" width="236.061" height="18.921"/>
	<text transform="matrix(1 0 0 1 59.4209 178.9033)" font-family="'Lato-Light'" font-size="15">@elmabeganovich</text>
</g>
<rect x="29.291" y="108.506" fill="none" width="30.143" height="15.638"/>
<text transform="matrix(1 0 0 1 29.291 121.2832)" font-family="'FontAwesome'" font-size="14.52"></text>
<rect x="29.291" y="136.181" fill="none" width="32.124" height="16.664"/>
<text transform="matrix(1 0 0 1 29.291 150.1201)" font-family="'FontAwesome'" font-size="15.84"></text>
<rect x="29.294" y="164.995" fill="none" width="32.124" height="16.664"/>
<text transform="matrix(1 0 0 1 29.2939 178.9346)" font-family="'FontAwesome'" font-size="15.84"></text>
</svg>
