<?xml version="1.0" encoding="utf-8"?>
<!-- Generator: Adobe Illustrator 15.0.0, SVG Export Plug-In . SVG Version: 6.00 Build 0)  -->
<!DOCTYPE svg PUBLIC "-//W3C//DTD SVG 1.1//EN" "http://www.w3.org/Graphics/SVG/1.1/DTD/svg11.dtd">
<svg version="1.1" id="Layer_1" xmlns="http://www.w3.org/2000/svg" xmlns:xlink="http://www.w3.org/1999/xlink" x="0px" y="0px"
	 width="700px" height="350px" viewBox="0 0 700 350" enable-background="new 0 0 700 350" xml:space="preserve">
<rect fill="#FFFFFF" width="700" height="350"/>
<g>
	<g>
		<rect x="60.104" y="135.447" fill="none" width="313.718" height="107.882"/>
		<text transform="matrix(1 0 0 1 60.1035 210.2529)" font-family="'Garamond'" font-size="113.6044">Amra</text>
	</g>
	<rect x="327.628" y="126.229" fill="none" width="96.964" height="107.878"/>
	<text transform="matrix(1 0 0 1 327.6279 209.6729)" font-family="'HelveticaNeue-UltraLight'" font-size="116.8712">&amp;</text>
	<path d="M482.962,201.125c-1.444,1.951-3.364,3.696-5.773,5.239c-2.41,1.545-4.819,2.791-7.239,3.746
		c-2.42,0.952-4.906,1.559-7.464,1.815c-5.297,0.528-10.471-0.351-15.522-2.641c-5.047-2.295-8.899-5.057-11.555-8.298
		c-2.659-3.234-4.638-7.121-5.944-11.644c-1.848-6.416-2.167-12.614-0.946-18.599c1.222-5.987,4.277-10.375,9.177-13.163
		c6.692,1.917,10.721,3.013,12.088,3.286c1.361,0.276,2.986,0.318,4.876,0.129c1.704-0.172,3.225-0.56,4.551-1.165
		c1.332-0.603,2.31-1.345,2.931-2.233c0.62-0.887,0.781-1.846,0.484-2.875c-0.06-0.208-0.148-0.42-0.263-0.635
		c0-0.013-1.839-6.099-18.75-1.313c0,0-0.186,0.064-0.472,0.163c-0.337-0.449-0.866-1.638-0.866-1.638
		c-0.92-3.192-1.246-6.221-0.973-9.092c0.261-2.868,0.955-5.428,2.06-7.681c1.105-2.248,2.413-3.844,3.93-4.787
		c1.514-0.944,3.372-1.616,5.576-2.01c1.824-0.184,3.42-0.141,4.787,0.132c1.359,0.271,2.506,0.828,3.441,1.669
		c0.932,0.844,1.539,1.746,1.813,2.711c0.232,0.794,0.312,1.78,0.243,2.956c0,0-0.177,0.935-0.14,2.13
		c-0.019,0.217,0.016,0.68,0.045,0.682c0.209,1.974,1.131,4.284,4.279,4.43c2.771,0.121,5.565-1.776,5.933-4.644
		c0.445-3.498-2.688-6.846-5.567-8.502c-2.854-1.644-5.433-2.652-7.736-3.032c-2.307-0.384-4.768-0.444-7.387-0.182
		c-3.163,0.32-6.321,1.122-9.456,2.408c-3.141,1.284-5.871,2.782-8.202,4.486c-2.312,1.761-3.97,3.944-4.971,6.545
		c-0.63,1.628-0.928,3.218-0.889,4.765c-0.176,7.099,4.919,10.847,4.919,10.847c-0.493-0.558-0.928-1.159-1.315-1.785
		c0.388,0.602,0.822,1.194,1.315,1.785c-1.275,1.009-3.621,2.922-7.041,5.737c-3.42,2.812-6.147,5.574-8.188,8.28
		c-2.037,2.706-3.441,5.89-4.198,9.552c-0.76,3.668-0.583,7.445,0.539,11.332c1.022,3.546,3.234,7.517,6.631,11.913
		c3.398,4.39,8.087,7.568,14.076,9.525c5.985,1.958,11.097,2.904,15.339,2.831c4.238-0.075,6.863-0.102,7.873-0.086
		c0.727-0.074,1.454-0.146,2.189-0.222c7.127-0.714,13.085-2.806,17.884-6.272c4.797-3.471,7.604-8.11,8.437-13.929
		C485.924,196.729,484.406,199.177,482.962,201.125z M460.809,155.177c0.295,0.83,0.088,1.615-0.663,2.356
		c-0.928,0.917-2.088,1.445-3.491,1.585c-2.616,0.265-5.004,0.035-7.153-0.691c-2.157-0.727-3.791-2.06-4.919-4.009
		C444.582,154.417,458.257,149.382,460.809,155.177z M466.846,132.855c1.493,4.796,0.504,7.395-0.604,7.346
		c-1.105-0.053-1.173-2.444-1.098-3.19c0.069-0.742-0.186-2.594-0.186-2.621c-0.076-0.423-0.177-0.885-0.328-1.4
		c-0.214-0.744-0.414-1.385-0.604-1.927c-0.188-0.538-0.375-1.035-0.57-1.486C465.224,130.047,466.352,131.141,466.846,132.855z
		 M433.154,152.39c-1.047-1.541-1.83-3.201-2.337-4.973c-1.372-4.744-0.459-8.69,2.738-11.836c2.046-2.086,4.298-3.46,6.759-4.121
		c-2.572,2.379-4.416,5.003-5.531,7.881c-1.108,2.878-1.166,6.06-0.158,9.548c0.855,2.974,2.702,5.582,5.543,7.828
		c-0.812,0.255-1.927-0.014-3.333-0.814C435.432,155.102,434.201,153.932,433.154,152.39z M432.446,208.489
		c-4.601-2.304-8.2-5.144-10.809-8.508c-0.619-0.799-1.189-1.588-1.709-2.365c-1.194-1.867-4.883-8.62-3.173-18.617
		c1.005-4.139,3.005-9.179,6.956-13.359l4.352-3.65c-4.307,6.15-6.943,11.453-7.917,15.911c-0.968,4.459-0.934,8.496,0.109,12.102
		c0.692,2.404,2.125,5.208,4.303,8.407c2.173,3.201,5.085,6.016,8.732,8.449c3.647,2.433,7.658,4.167,12.027,5.205
		C441.335,211.988,437.044,210.798,432.446,208.489z"/>
	<g>
		<path d="M491.564,127.788c1.75,0,3.952-0.08,6.614-0.242c2.658-0.16,4.33-0.242,5.017-0.242c0.217,7.435,0.293,15.137,0.24,23.102
			c-0.055,7.968-0.17,13.886-0.327,17.755c-0.169,3.869-0.466,10.222-0.902,19.06c-0.44,8.841-0.56,13.713-0.371,14.627
			c0.275,1.286,0.727,2.327,1.353,3.127c0.621,0.799,1.429,1.196,2.42,1.196c1.745,0,3.253-0.836,4.535-2.508
			c1.275-1.667,2.504-3.308,3.688-4.901c-0.369,3.298-1.694,6.174-3.978,8.625c-2.291,2.448-4.571,3.787-6.839,4.02
			c-2.27,0.228-3.724,0.363-4.355,0.402c-0.64,0.037-1.148,0.056-1.53,0.056c-1.895,0-3.517-0.379-4.852-1.14
			c-1.341-0.763-2.236-2.203-2.688-4.335c-1.26-5.931-1.464-13.745-0.602-23.442c0.866-9.695,1.339-17.039,1.422-22.019
			c0.078-4.98,0.173-10.247,0.286-15.8C490.805,139.578,491.092,133.799,491.564,127.788z M493.612,129.384
			c-0.438,5.088-0.725,12.76-0.862,23.012c-0.137,10.254-0.314,18.798-0.53,25.634c-0.221,6.834-0.504,15.686-0.853,26.544
			c0.148,1.749,0.799,3.039,1.964,3.873c1.161,0.838,2.579,1.25,4.251,1.25c1.445,0,2.601-0.258,3.479-0.795
			c-1.786-0.528-3.061-0.981-3.824-1.367c-0.762-0.376-1.252-1.062-1.461-2.048c-1.194-5.619-1.56-12.971-1.094-22.042
			c0.459-9.08,0.857-16.504,1.184-22.276c0.335-5.771,0.563-11.372,0.701-16.805c0.141-5.428,0.118-10.538-0.062-15.322
			L493.612,129.384z"/>
		<path d="M573.207,170.511c1.453-0.379,2.829-0.571,4.137-0.571c2.921,0,4.858,0.725,5.818,2.164
			c0.958,1.447,1.686,2.775,2.173,3.989c0.483,1.216,0.821,2.241,0.998,3.076c0.453,2.128,0.216,6.208-0.7,12.249
			c-0.92,6.037-1.08,10.461-0.483,13.271c0.213,0.99,1.152,1.482,2.821,1.482c1.366,0,2.412-0.266,3.133-0.8
			c1.44-1.822,2.913-3.645,4.423-5.469c-0.694,2.812-2.123,5.373-4.292,7.69c-2.167,2.319-4.767,3.476-7.804,3.476
			c-2.662,0-4.957-0.36-6.896-1.083c-1.939-0.722-3.221-1.837-3.847-3.36c-0.632-1.519-1.042-2.772-1.254-3.762
			c-0.585-2.734-0.476-6.95,0.33-12.645c0.8-5.695,0.895-9.984,0.281-12.874c-0.258-1.212-1.334-1.822-3.224-1.822
			c-0.917,0-2.22,1.16-3.922,3.477c-1.707,2.316-3.357,6.19-4.972,11.618c-1.606,5.434-3.168,12.246-4.675,20.451h-12.377
			c0.172-3.095,0.747-8.167,1.719-15.224c0.967-7.054,0.91-13.11-0.165-18.168c-0.19-0.902-1.047-1.355-2.562-1.355
			c-0.91,0-2.153,1.139-3.722,3.418c-1.563,2.276-3.141,5.583-4.73,9.911c-2.328,9.037-4.273,16.331-5.824,21.872h-11.85
			c-0.455-6.078-0.275-13.612,0.544-22.613c0.823-8.997,1.267-14.41,1.336-16.233c0.572-0.532,1.344-0.91,2.323-1.142
			c0.976-0.226,2.036-0.34,3.171-0.34c1.065,0,2.226,0.097,3.479,0.285c1.254,0.19,2.715,0.438,4.373,0.741
			c-0.167,3.493-0.317,7.252-0.452,11.279c-0.127,4.026-0.207,7.254-0.221,9.679c1.921-4.855,3.875-9.717,5.869-14.579
			c2.772-5.468,6.316-8.201,10.627-8.201c0.686,0,1.686,0.074,3.002,0.229c1.316,0.153,2.783,0.721,4.395,1.708
			c1.609,0.985,2.624,2.032,3.046,3.133c0.424,1.101,0.701,1.956,0.829,2.563c0.276,1.292,0.189,3.038-0.25,5.239
			c-0.444,2.205-0.54,3.914-0.276,5.127c0.081,0.384,0.2,0.953,0.357,1.709c1.79-3.873,3.578-7.746,5.367-11.619
			C565.681,174.307,568.988,171.649,573.207,170.511z M519.91,173.245c-0.297,2.888-0.662,7.255-1.093,13.101
			c-0.425,5.849-0.761,10.52-1.007,14.01c-0.247,3.497-0.399,6.344-0.463,8.547c0.415,0.537,0.89,0.795,1.422,0.795
			c0.85-0.301,1.452-0.488,1.814-0.565c0.345-4.102,0.871-9.76,1.575-16.975c0.708-7.216,1.103-13.33,1.174-18.34L519.91,173.245z
			 M544.47,175.182c1.182,0.534,1.816,1.374,1.906,2.515c0.288,7.089,0.327,12.536,0.11,16.347
			c-0.213,3.812-0.74,8.765-1.572,14.859c0.296,0.307,0.786,0.457,1.469,0.457c0.682,0,1.314-0.076,1.885-0.228
			c0.648-4.819,1.309-9.957,1.963-15.424c0.662-5.466,0.78-10.607,0.371-15.425c-0.061-0.994-0.535-1.874-1.417-2.639
			c-0.885-0.762-1.855-1.146-2.922-1.146C545.582,174.499,544.982,174.725,544.47,175.182z M572.035,173.817
			c0.77,1.29,1.29,2.58,1.563,3.872c0.341,1.594,0.384,3.949,0.138,7.062c-0.25,3.115-0.398,5.906-0.445,8.374
			c-0.046,2.471-0.07,5.637-0.084,9.514c0.387,1.822,1.328,3.399,2.826,4.727c1.497,1.328,3.046,1.994,4.64,1.994
			c0.608,0,1.032-0.15,1.272-0.457c-0.25-0.379-0.884-0.855-1.898-1.421c-1.016-0.57-1.628-1.143-1.83-1.711
			c-0.207-0.568-0.361-1.101-0.469-1.596c-0.101-0.494-0.18-0.855-0.229-1.084c-0.63-2.962-0.555-7.268,0.216-12.931
			c0.772-5.656,0.915-9.625,0.429-11.902l-0.288-1.368c-0.307-1.061-1.06-1.917-2.274-2.564
			C574.387,173.683,573.199,173.514,572.035,173.817z"/>
		<path d="M603.032,173.585c2.797-2.2,6.094-3.303,9.894-3.303c2.353,0,4.553,0.446,6.604,1.34c2.055,0.89,3.965,2.306,5.749,4.243
			c0.77-0.311,1.145-0.933,1.138-1.867c-0.01-0.933-0.118-1.71-0.326-2.333c1.272-0.467,2.738-0.696,4.414-0.696
			c0.91,0,2.287,0.074,4.149,0.224c1.852,0.153,3.195,0.228,4.027,0.228c-0.12,2.281-0.654,6.818-1.604,13.613
			c-0.947,6.8-0.809,13.086,0.422,18.855c0.289,1.37,1.271,2.049,2.939,2.049c0.61,0,1.251-0.112,1.923-0.341
			c0.675-0.228,1.313-0.701,1.921-1.424c0.605-0.719,1.115-1.612,1.532-2.676c0.424-1.063,0.72-1.899,0.896-2.508
			c0.425,1.995,0.266,3.756-0.467,5.291c-0.74,1.533-2.187,3.122-4.344,4.772c-2.153,1.648-4.604,2.468-7.333,2.468
			c-1.67,0-3.312-0.285-4.911-0.867c-1.607-0.575-2.844-1.576-3.716-3.002c-0.876-1.425-1.725-2.832-2.553-4.218
			c-1.624,2.354-3.549,4.291-5.772,5.809c-2.218,1.521-4.695,2.278-7.434,2.278c-1.589,0-3.756-0.433-6.481-1.309
			c-2.735-0.87-4.867-2.96-6.401-6.266c-1.542-3.307-2.542-6.058-3.014-8.261c-0.936-4.404-0.626-8.488,0.929-12.242
			C596.772,179.684,599.376,176.396,603.032,173.585z M608.852,172.562c-2.115,0.758-3.928,1.709-5.43,2.85
			c-1.509,1.137-2.95,2.829-4.335,5.068c-1.383,2.241-2.311,4.671-2.782,7.29c-0.467,2.621-0.402,5.335,0.195,8.144
			c0.744,3.497,2.252,6.84,4.523,10.026c0.624,0.077,1.731,0.571,3.337,1.484c1.596,0.909,2.662,1.364,3.192,1.364
			c0.529,0,0.97-0.265,1.31-0.793c-2.124-1.059-3.589-1.983-4.406-2.777c-0.815-0.792-1.491-1.827-2.027-3.113
			c-0.538-1.28-1.006-2.864-1.411-4.756c-1.039-4.9-0.843-9.522,0.59-13.862C603.032,179.147,605.453,175.505,608.852,172.562z
			 M616.213,174.499c-3.615,2.278-6.021,5.354-7.209,9.228c-1.191,3.871-1.258,8.278-0.211,13.213
			c0.355,1.671,0.78,3.232,1.28,4.671c0.494,1.444,1.317,2.64,2.465,3.592c1.154,0.949,2.301,1.423,3.444,1.423
			c0.603,0,2.019-0.759,4.239-2.276c2.222-1.521,3.719-4.653,4.497-9.401c0.777-4.744,0.432-10.573-1.04-17.487
			c-0.177-0.834-0.854-1.612-2.032-2.335c-1.178-0.721-2.374-1.082-3.597-1.082C617.297,174.043,616.684,174.193,616.213,174.499z
			 M629.066,172.79c-1.544,5.586-2.501,10.998-2.87,16.244c-0.37,5.245,0.096,10.921,1.399,17.036
			c0.272,1.279,1.434,1.926,3.485,1.926c0.455,0,1.214,0,2.275,0c-0.534-0.382-1.069-0.763-1.611-1.143
			c-0.529-0.379-0.905-0.871-1.108-1.481c-0.206-0.608-0.378-1.251-0.525-1.936c-0.146-0.683-0.258-1.212-0.342-1.592
			c-1.078-5.093-1.078-10.729-0.002-16.921c1.072-6.188,1.677-10.235,1.806-12.133H629.066z"/>
	</g>
</g>
</svg>
