<?xml version="1.0" encoding="utf-8"?>
<!-- Generator: Adobe Illustrator 15.0.0, SVG Export Plug-In . SVG Version: 6.00 Build 0)  -->
<!DOCTYPE svg PUBLIC "-//W3C//DTD SVG 1.1//EN" "http://www.w3.org/Graphics/SVG/1.1/DTD/svg11.dtd">
<svg version="1.1" id="Layer_1" xmlns="http://www.w3.org/2000/svg" xmlns:xlink="http://www.w3.org/1999/xlink" x="0px" y="0px"
	 width="378px" height="216px" viewBox="0 0 378 216" enable-background="new 0 0 378 216" xml:space="preserve">
<rect x="0.301" width="378" height="216"/>
<rect x="51.781" y="54.771" fill="none" width="114.27" height="127.133"/>
<g enable-background="new    ">
	<path fill="#FFFFFF" d="M50.936,156.019c0.718-0.41,1.357-0.615,1.921-0.615h1.769c0.358,0,0.972-0.025,1.844-0.077
		c3.946-0.357,6.277-0.717,6.996-1.076c1.793-0.974,3.331-2.665,4.612-5.076c2.667-5.229,5.667-12.637,9-22.225
		c1.59-4.562,2.589-7.331,3-8.306c1.281-3.076,2.513-6.306,3.692-9.689l7.23-20.226c1.128-3.179,3.846-10.459,8.154-21.841
		c1.077-2.871,2.384-6.716,3.923-11.536l2.264-0.153l2.689,0.077c2.201,4.358,4.148,9.049,5.837,14.073
		c0.922,2.666,2.432,6.64,4.533,11.92l11.675,31.607l6.222,17.149c3.28,9.741,5.434,15.727,6.459,17.957
		c1.025,2.229,1.973,3.704,2.846,4.422c0.256,0.205,1.217,0.513,2.884,0.923c1.666,0.411,2.832,0.719,3.499,0.923
		c2.357,0.667,3.999,1.23,4.922,1.691c0.204,0.565,0.308,1,0.308,1.308c0,0.257-0.077,0.642-0.23,1.153
		c-1.642,0.052-2.795,0.077-3.461,0.077c-2.615,0-7.229-0.077-13.843-0.23l-7.69-0.173l-9.306,0.115
		c-0.615,0-1.244-0.029-1.884-0.087c-0.642-0.058-1.192-0.086-1.654-0.086h-1.692c-0.564-0.051-1.077-0.205-1.538-0.462
		c0-0.718,0.127-1.409,0.384-2.076c0.615-0.308,1.179-0.487,1.692-0.538l8.072-0.54c2.101-0.103,3.69-0.385,4.767-0.847
		c0.308-0.925,0.461-1.618,0.461-2.08c0-0.926-0.667-3.314-2-7.167c-0.922-2.567-1.728-5.007-2.419-7.318
		c-0.692-2.312-3.418-9.912-8.179-22.806c-2.103-0.359-3.949-0.54-5.537-0.54l-16.458,0.154l-4.845-0.077
		c-1.744,0-3.667,0.129-5.768,0.385c-0.668,1.538-1.104,2.641-1.309,3.307l-6.777,21.148c-2.872,8.05-4.307,12.484-4.307,13.305
		c0,0.461,0.23,1.23,0.692,2.307c1.077,0.308,2.512,0.59,4.307,0.846l10.459,0.923c0.563,0.462,0.846,0.873,0.846,1.23
		c0,0.258-0.077,0.642-0.231,1.154c-2.307,0.051-4.076,0.076-5.306,0.076c-4.103,0-8.871-0.127-14.304-0.384
		c-2.513-0.103-4.307-0.154-5.383-0.154s-2.949,0.052-5.614,0.154c-1.744,0.103-3,0.153-3.769,0.153c-1.23,0-2.82-0.077-4.768-0.23
		v-0.462C50.628,157.122,50.731,156.634,50.936,156.019z M87.631,109.877c5.485,0.308,11.74,0.461,18.765,0.461
		c3.999,0,7.51-0.127,10.536-0.385c-0.513-1.998-1.102-3.869-1.768-5.611c-3.329-8.917-5.17-13.837-5.529-14.76l-6.99-17.757
		l-0.768-1.385c-0.309,0.615-1.438,3.256-3.389,7.918c-3.287,7.995-5.647,14.222-7.085,18.68c-0.668,2-1.361,3.985-2.08,5.958
		c-0.719,1.973-1.168,3.357-1.347,4.151c-0.18,0.796-0.449,1.602-0.809,2.422L87.631,109.877z"/>
</g>
<rect x="152.191" y="56.542" fill="none" width="114.27" height="127.138"/>
<g enable-background="new    ">
	<path fill="#FFFFFF" d="M227.392,154.879l-12.258-15.563c-2.755,5.051-6.497,9.275-11.226,12.671
		c-4.729,3.396-10.583,5.097-17.56,5.097c-3.398,0-6.796-0.552-10.192-1.653c-3.398-1.102-6.404-2.686-9.021-4.752
		c-2.617-2.065-4.752-4.59-6.405-7.574c-1.653-2.983-2.479-6.405-2.479-10.262c0-4.039,0.826-7.644,2.479-10.812
		s3.764-6.036,6.335-8.607c2.57-2.57,5.417-4.89,8.54-6.956c3.12-2.065,6.15-4.016,9.09-5.854c-1.377-1.928-2.892-3.925-4.545-5.991
		c-1.653-2.065-3.237-4.177-4.751-6.335c-1.515-2.156-2.778-4.36-3.788-6.611c-1.012-2.249-1.515-4.521-1.515-6.817
		c0-3.213,0.596-5.968,1.791-8.264c1.192-2.294,2.731-4.177,4.614-5.647c1.881-1.467,4.016-2.569,6.404-3.305
		c2.387-0.734,4.821-1.103,7.3-1.103c2.754,0,5.348,0.413,7.781,1.24c2.432,0.826,4.566,2.021,6.404,3.581
		c1.836,1.562,3.281,3.467,4.338,5.715c1.055,2.251,1.584,4.845,1.584,7.782c0,3.306-0.712,6.222-2.135,8.746
		c-1.424,2.526-3.191,4.82-5.303,6.886c-2.113,2.066-4.454,3.973-7.023,5.716c-2.572,1.745-4.959,3.443-7.162,5.097l25.893,32.779
		c0.918-2.019,1.744-4.498,2.48-7.438c0.732-2.938,1.009-6.243,0.826-9.917h2.754c0.09,4.132-0.23,7.691-0.964,10.675
		c-0.735,2.984-1.79,6.038-3.168,9.158l14.462,18.318H227.392z M177.74,108.326c-2.985,1.929-5.716,4.063-8.195,6.404
		c-2.479,2.342-4.523,4.982-6.129,7.92c-1.608,2.939-2.411,6.335-2.411,10.191c0,3.491,0.734,6.59,2.204,9.297
		c1.467,2.71,3.374,4.982,5.715,6.818c2.342,1.837,5.049,3.215,8.126,4.132c3.076,0.919,6.174,1.377,9.297,1.377
		c6.611,0,12.121-1.653,16.527-4.958c4.408-3.306,7.896-7.575,10.469-12.81l-26.996-33.881
		C183.594,104.562,180.723,106.398,177.74,108.326z M173.677,79.266c0.551,1.562,1.399,3.284,2.548,5.165
		c1.147,1.883,2.617,4.018,4.407,6.404c1.791,2.389,3.925,5.188,6.405,8.401c1.928-1.377,4.084-2.893,6.473-4.545
		c2.387-1.653,4.614-3.465,6.68-5.44c2.066-1.974,3.81-4.153,5.234-6.542c1.422-2.387,2.135-5.004,2.135-7.851
		c0-2.387-0.461-4.545-1.377-6.474c-0.92-1.928-2.183-3.557-3.788-4.889c-1.607-1.33-3.443-2.363-5.509-3.1
		c-2.066-0.733-4.248-1.102-6.543-1.102c-2.388,0-4.637,0.345-6.748,1.033c-2.113,0.688-3.973,1.7-5.578,3.03
		c-1.607,1.332-2.871,2.939-3.788,4.82c-0.919,1.883-1.377,4.018-1.377,6.404C172.851,76.146,173.126,77.705,173.677,79.266z"/>
</g>
<path fill="#FFFFFF" d="M321.846,143.232c-1.703,2.299-3.971,4.354-6.807,6.174c-2.838,1.818-5.682,3.291-8.531,4.416
	c-2.851,1.121-5.785,1.832-8.8,2.136c-6.243,0.628-12.34-0.409-18.288-3.11c-5.949-2.701-10.486-5.959-13.619-9.775
	c-3.134-3.816-5.466-8.393-7.004-13.727c-2.179-7.559-2.551-14.863-1.115-21.917c1.438-7.053,5.043-12.224,10.816-15.511
	c7.886,2.259,12.636,3.549,14.242,3.873c1.605,0.324,3.521,0.372,5.748,0.149c2.008-0.203,3.798-0.658,5.363-1.371
	c1.568-0.71,2.719-1.588,3.449-2.635c0.733-1.042,0.926-2.171,0.575-3.384c-0.071-0.248-0.176-0.498-0.312-0.75
	c-0.004-0.014-2.168-7.185-22.098-1.547c0,0-0.218,0.077-0.556,0.194c-0.396-0.532-1.021-1.936-1.021-1.936
	c-1.084-3.76-1.468-7.329-1.148-10.711c0.314-3.382,1.126-6.397,2.43-9.052c1.303-2.649,2.848-4.53,4.633-5.642
	c1.784-1.112,3.973-1.9,6.571-2.369c2.151-0.217,4.03-0.164,5.64,0.155c1.604,0.321,2.957,0.977,4.058,1.969
	c1.098,0.991,1.812,2.055,2.138,3.191c0.271,0.939,0.366,2.099,0.285,3.486c0,0-0.212,1.1-0.165,2.509
	c-0.019,0.258,0.019,0.8,0.054,0.803c0.248,2.326,1.336,5.05,5.043,5.216c3.268,0.148,6.561-2.087,6.989-5.47
	c0.524-4.121-3.163-8.065-6.562-10.021c-3.364-1.931-6.402-3.123-9.116-3.574c-2.718-0.447-5.616-0.519-8.702-0.209
	c-3.73,0.375-7.447,1.32-11.146,2.836c-3.701,1.515-6.918,3.278-9.662,5.285c-2.726,2.08-4.681,4.65-5.862,7.714
	c-0.74,1.92-1.091,3.792-1.048,5.619c-0.199,8.364,5.799,12.779,5.799,12.779c-0.581-0.658-1.094-1.364-1.551-2.099
	c0.462,0.706,0.975,1.407,1.551,2.099c-1.503,1.19-4.27,3.445-8.295,6.762c-4.031,3.315-7.246,6.568-9.649,9.757
	c-2.401,3.189-4.056,6.941-4.948,11.262c-0.897,4.318-0.685,8.771,0.638,13.352c1.204,4.181,3.81,8.857,7.812,14.035
	c4.006,5.182,9.535,8.924,16.586,11.229c7.055,2.308,13.077,3.42,18.076,3.332c4.997-0.084,8.088-0.119,9.277-0.099
	c0.859-0.086,1.721-0.174,2.584-0.26c8.396-0.842,15.421-3.307,21.072-7.396c5.651-4.087,8.968-9.558,9.943-16.415
	C325.335,138.055,323.543,140.938,321.846,143.232z M295.736,89.084c0.354,0.977,0.1,1.901-0.782,2.774
	c-1.093,1.081-2.463,1.704-4.113,1.869c-3.085,0.311-5.897,0.038-8.435-0.817c-2.532-0.854-4.465-2.427-5.79-4.723
	C276.616,88.188,292.725,82.255,295.736,89.084z M302.854,62.777c1.76,5.654,0.594,8.714-0.715,8.656
	c-1.306-0.059-1.375-2.88-1.293-3.76c0.08-0.873-0.215-3.056-0.22-3.086c-0.088-0.498-0.21-1.042-0.387-1.649
	c-0.25-0.876-0.489-1.632-0.712-2.269c-0.219-0.636-0.441-1.22-0.67-1.754C300.938,59.47,302.27,60.756,302.854,62.777z
	 M263.146,85.797c-1.234-1.816-2.153-3.771-2.754-5.859c-1.615-5.591-0.537-10.241,3.226-13.948c2.411-2.46,5.067-4.078,7.967-4.856
	c-3.032,2.802-5.206,5.896-6.519,9.286c-1.311,3.393-1.373,7.143-0.188,11.251c1.008,3.505,3.188,6.58,6.535,9.224
	c-0.961,0.305-2.271-0.015-3.93-0.957C265.828,88.995,264.382,87.615,263.146,85.797z M262.311,151.911
	c-5.42-2.718-9.664-6.062-12.734-10.024c-0.73-0.945-1.404-1.875-2.018-2.789c-1.408-2.203-5.75-10.158-3.74-21.939
	c1.188-4.877,3.546-10.817,8.199-15.745l5.127-4.299c-5.072,7.245-8.182,13.497-9.326,18.752
	c-1.142,5.252-1.101,10.007,0.125,14.258c0.82,2.835,2.508,6.138,5.074,9.907c2.563,3.771,5.993,7.088,10.291,9.959
	c4.299,2.863,9.022,4.91,14.174,6.129C272.785,156.034,267.729,154.63,262.311,151.911z"/>
</svg>
