<?xml version="1.0" encoding="utf-8"?>
<!-- Generator: Adobe Illustrator 15.0.0, SVG Export Plug-In . SVG Version: 6.00 Build 0)  -->
<!DOCTYPE svg PUBLIC "-//W3C//DTD SVG 1.1//EN" "http://www.w3.org/Graphics/SVG/1.1/DTD/svg11.dtd">
<svg version="1.1" id="Layer_1" xmlns="http://www.w3.org/2000/svg" xmlns:xlink="http://www.w3.org/1999/xlink" x="0px" y="0px"
	 width="700px" height="400px" viewBox="0 0 700 400" enable-background="new 0 0 700 400" xml:space="preserve">
<rect fill="#FFFFFF" width="700" height="400"/>
<rect x="224" y="128" fill="#FFFFFF" width="252" height="144"/>
<g>
	<rect x="120.604" y="107.487" fill="none" width="190.449" height="211.889"/>
	<text transform="matrix(1 0 0 1 120.5957 280.3311)" font-family="'Garamond'" font-size="262.4971">A</text>
	<rect x="287.955" y="110.438" fill="none" width="190.449" height="211.895"/>
	<text transform="matrix(1 0 0 1 287.9473 274.333)" font-family="'HelveticaNeue-UltraLight'" font-size="229.5484">&amp;</text>
	<path d="M570.709,254.923c-2.838,3.832-6.617,7.258-11.344,10.291c-4.729,3.029-9.467,5.482-14.219,7.357
		c-4.75,1.871-9.641,3.059-14.664,3.561c-10.406,1.047-20.566-0.682-30.482-5.184c-9.914-4.502-17.479-9.932-22.697-16.293
		c-5.223-6.363-9.109-13.986-11.672-22.877c-3.633-12.598-4.254-24.773-1.861-36.527c2.398-11.756,8.404-20.375,18.027-25.852
		c13.145,3.764,21.061,5.914,23.738,6.453c2.676,0.541,5.871,0.621,9.58,0.25c3.348-0.336,6.33-1.096,8.941-2.285
		c2.611-1.184,4.527-2.646,5.748-4.393c1.221-1.736,1.543-3.617,0.957-5.639c-0.119-0.414-0.293-0.83-0.518-1.25
		c-0.008-0.023-3.613-11.977-36.828-2.578c0,0-0.363,0.127-0.926,0.322c-0.658-0.887-1.701-3.225-1.701-3.225
		c-1.805-6.268-2.443-12.215-1.914-17.852c0.525-5.639,1.877-10.662,4.049-15.086c2.17-4.418,4.746-7.551,7.721-9.404
		s6.621-3.166,10.953-3.947c3.586-0.363,6.719-0.273,9.398,0.258c2.674,0.535,4.93,1.629,6.76,3.281
		c1.832,1.652,3.021,3.426,3.566,5.32c0.451,1.564,0.609,3.498,0.475,5.811c0,0-0.354,1.834-0.275,4.182
		c-0.029,0.43,0.029,1.332,0.09,1.338c0.414,3.877,2.225,8.416,8.404,8.693c5.443,0.246,10.932-3.479,11.65-9.115
		c0.873-6.869-5.273-13.443-10.936-16.701c-5.607-3.219-10.672-5.207-15.195-5.957c-4.529-0.746-9.361-0.865-14.504-0.35
		c-6.219,0.625-12.412,2.199-18.574,4.727c-6.17,2.523-11.533,5.463-16.107,8.809c-4.539,3.463-7.799,7.748-9.77,12.855
		c-1.232,3.201-1.816,6.322-1.746,9.365c-0.332,13.941,9.664,21.299,9.664,21.299c-0.967-1.096-1.82-2.271-2.584-3.498
		c0.77,1.176,1.623,2.344,2.584,3.498c-2.506,1.986-7.115,5.742-13.824,11.27c-6.719,5.525-12.078,10.947-16.084,16.264
		c-4.004,5.314-6.758,11.568-8.246,18.766c-1.498,7.199-1.141,14.619,1.061,22.254c2.008,6.965,6.348,14.762,13.021,23.391
		c6.674,8.637,15.893,14.873,27.643,18.719c11.756,3.846,21.795,5.699,30.129,5.551c8.326-0.139,13.479-0.197,15.461-0.162
		c1.434-0.145,2.867-0.289,4.307-0.432c13.994-1.404,25.703-5.512,35.121-12.324c9.42-6.812,14.947-15.932,16.572-27.359
		C576.525,246.294,573.541,251.099,570.709,254.923z M527.195,164.677c0.592,1.629,0.166,3.168-1.303,4.625
		c-1.822,1.801-4.105,2.838-6.855,3.113c-5.143,0.52-9.83,0.064-14.059-1.361c-4.221-1.424-7.439-4.045-9.65-7.871
		C495.328,163.183,522.176,153.294,527.195,164.677z M539.057,120.831c2.934,9.424,0.988,14.525-1.191,14.428
		c-2.176-0.098-2.291-4.801-2.156-6.268c0.133-1.455-0.357-5.094-0.363-5.145c-0.148-0.83-0.35-1.736-0.645-2.748
		c-0.418-1.461-0.816-2.721-1.186-3.783c-0.365-1.059-0.736-2.033-1.117-2.922C535.861,115.319,538.084,117.462,539.057,120.831z
		 M472.877,159.198c-2.057-3.027-3.59-6.283-4.59-9.766c-2.691-9.318-0.896-17.068,5.375-23.248
		c4.021-4.098,8.447-6.797,13.279-8.092c-5.057,4.67-8.678,9.826-10.861,15.475c-2.186,5.656-2.291,11.906-0.312,18.754
		c1.68,5.842,5.309,10.967,10.891,15.373c-1.602,0.508-3.787-0.025-6.551-1.594C477.35,164.528,474.938,162.228,472.877,159.198z
		 M471.484,269.388c-9.029-4.531-16.105-10.102-21.225-16.707c-1.219-1.576-2.34-3.123-3.359-4.648
		c-2.35-3.672-9.586-16.932-6.236-36.568c1.98-8.127,5.908-18.027,13.666-26.24l8.547-7.166
		c-8.457,12.076-13.639,22.496-15.545,31.252c-1.902,8.756-1.834,16.68,0.207,23.766c1.367,4.725,4.18,10.23,8.457,16.512
		c4.273,6.285,9.99,11.812,17.154,16.598c7.162,4.773,15.035,8.184,23.621,10.215C488.943,276.259,480.516,273.919,471.484,269.388z
		"/>
</g>
</svg>
