<?xml version="1.0" encoding="utf-8"?>
<!-- Generator: Adobe Illustrator 15.0.0, SVG Export Plug-In . SVG Version: 6.00 Build 0)  -->
<!DOCTYPE svg PUBLIC "-//W3C//DTD SVG 1.1//EN" "http://www.w3.org/Graphics/SVG/1.1/DTD/svg11.dtd">
<svg version="1.1" id="Layer_1" xmlns="http://www.w3.org/2000/svg" xmlns:xlink="http://www.w3.org/1999/xlink" x="0px" y="0px"
	 width="1440px" height="864px" viewBox="0 0 1440 864" enable-background="new 0 0 1440 864" xml:space="preserve">
<pattern  x="360" y="72" width="287.88" height="287.882" patternUnits="userSpaceOnUse" id="catt" viewBox="0 -287.882 287.88 287.882" overflow="visible">
	<g>
		<polygon fill="none" points="0,0 287.88,0 287.88,-287.882 0,-287.882 		"/>
		<polygon fill="#482610" points="287.88,0 0,0 0,-287.882 287.88,-287.882 		"/>
		<path fill="#77533E" d="M44.685-186.615l4.349,6.273c0,0,2.412,2.678,1.969,5.336c0,0-1.766,7.698-8.916,8.328
			c0,0-2.166,0.316-4.705-2.712l-5.76-5.644c0,0-1.822-2.569-1.994-3.857c0,0-2.827-1.268-3.627-3.386l-0.613-1.795
			c0,0-0.656-1.242,0.537-2.267c0,0,2.462-0.918,1.436-2.457c0,0-0.721-0.641-0.541-1.242c0,0-1.111-0.545-0.084-2.169
			c0,0,1.373-1.395,2.434-1.68c0,0,0.888-0.023,1.213,0.883c0,0,0.43-0.364,0.621,0.535c0,0,0.492,0.989,2.508,2.15
			c0,0,0.512,0.48,1.412,0.521c0,0,2.723,0.193,3.195,0.164c0,0,2.06-0.287,3.58,0.517
			C41.697-189.116,43.541-188.383,44.685-186.615z M27.546-185.425c-0.668,0.305-0.546,1.111-0.546,1.111
			c0.199,2.053,2.471,2.938,2.471,2.938c0.609-2.633-0.213-3.783-0.213-3.783C28.648-186.609,27.546-185.425,27.546-185.425z"/>
		<g>
			<path fill="#AB6044" d="M172.627-32.208c0,0,5.463,6.484,10.818,0.761c0,0,0.021,0.646,0.751,0.569c0,0,1.133-0.192,1.161,0.881
				c0,0,0.274,0.746,0.96,0.26c0,0-0.111,0.174,0.381,0.969c0,0-2.107,4.082-0.938,4.759c0,0,1.33,1.021,4.631-2.637
				c0,0,3.426-3.878,3.285-6.3c0,0-0.026-2.019-1.777-0.821c0,0-1.447,1.216-1.971,1.767c0,0-0.891-0.149-1.546,0.406
				c0,0-0.244-1.238-1.118-0.64c0,0-1.212,0.66-1.497-0.714c0,0,0.104-0.43-0.601-0.77c0,0,3.379-6.171-2.951-10.447
				c0,0-2.141-0.971-3.045-1.257l-7.327,9.382L172.627-32.208z"/>
			<path fill="#AB6044" d="M170.761-34.335c0,0,5.821,8.414,12.193,2.306c0,0,3.506-3.443,2.422-7.422c0,0-0.553-3.579-6.205-5.97
				L170.761-34.335z"/>
			<path fill="#AB6044" d="M170.761-34.335c0,0-2.345-3.566-3.766-4.329c0,0-1.085-0.928,2.932-5.668c0,0,2.891-4.226,4.345-3.438
				c0,0,3.108,1.937,4.899,2.349C179.171-45.421,178.213-38.888,170.761-34.335z"/>
			<path fill="#AB6044" d="M173.834-47.471c0.387,0.294-0.762,2.46-2.566,4.84c-1.805,2.378-3.582,4.069-3.969,3.775
				c-0.388-0.294,0.762-2.461,2.565-4.84C171.67-46.075,173.446-47.765,173.834-47.471z"/>
		</g>
		<path fill="#DCA427" d="M268.701-104.614c0,0,0.282,1.047-2.287,1.905c0,0-17.598,6.547-19.291,6.757
			c0,0-0.848,1.689-6.719-10.213c0,0,4.252-6.496,10.264-9.769c0,0,9.388-1.42,11.756-0.655
			C262.424-116.589,266.821-107.016,268.701-104.614z M249.476-107.649c-0.326-0.572-1.013-0.797-1.534-0.5s-0.68,1.002-0.354,1.575
			c0.326,0.572,1.014,0.798,1.535,0.501C249.644-106.37,249.802-107.076,249.476-107.649z M256.029-102.576
			c-0.453-0.797-1.418-1.101-2.157-0.681c-0.738,0.421-0.97,1.406-0.517,2.202c0.453,0.798,1.419,1.102,2.158,0.681
			C256.252-100.794,256.483-101.78,256.029-102.576z M252.54-109.394c-0.384-0.676-1.12-0.981-1.644-0.683
			c-0.523,0.297-0.635,1.085-0.25,1.762c0.385,0.675,1.119,0.982,1.643,0.685C252.812-107.929,252.924-108.718,252.54-109.394z
			 M262.711-105.425c-0.228-0.398-0.777-0.513-1.229-0.256c-0.451,0.258-0.633,0.788-0.406,1.187
			c0.227,0.397,0.775,0.513,1.227,0.255S262.937-105.027,262.711-105.425z M261.422-111.113c-0.466-0.819-1.451-1.137-2.199-0.71
			c-0.748,0.426-0.979,1.436-0.513,2.253c0.466,0.819,1.452,1.138,2.2,0.712C261.659-109.285,261.889-110.294,261.422-111.113z"/>
		<g>
			<path fill="#F2E4B8" d="M51.881-39.575c0,0-1.308-3.422-3.679-5.723c0,0-0.045-1.063-2.127-1.583c0,0-4.462-1.501-11.422,1.443
				c0,0-6.737,3.459-9.134,6.53c0,0-1.648,1.029-1.031,1.864l3.883,5.146l1.506,2.141l1.459,1.424l1.754,3.572
				c0,0,1.615,0.817,2.936-0.358c0,0,7.941-6.855,9.312-7.953C45.337-33.071,52.43-38.354,51.881-39.575z"/>
			<path fill="#F2E4B8" d="M31.06-30.121c0,0,13.69-12.192,15.63-13.766c0,0,0.85-2.076,1.965-0.171c0,0,2.338,2.431,2.887,4.482
				c0,0,0.4,0.288-0.66,1.189L36.296-26.058c0,0-2.074,2.543-3.604,0.68c0,0-6.443-8.316-7.846-11.349c0,0,3.318,4.642,4.267,5.781
				C29.112-30.945,30.265-28.299,31.06-30.121z"/>
		</g>
		<path fill="#A7762B" d="M176.714-178.093c0,0,0.157-1.431-0.91-2.863c0,0-1.76-2.803-2.27-3.768c0,0-0.742-1.299-1.112-1.734
			c0,0-0.903,0.103-0.526-0.871l-0.073-0.295c0,0-0.837-0.184-0.286-1.06c0,0,0.695-1.144,1.344-0.902c0,0,0.42,0.061,0.319,0.565
			l0.464,0.391c0,0,0.486-0.225,0.473,0.298c0,0,1.93,1.889,2.506,2.264c0,0,2.465,1.564,2.93,2.23c0,0,0.869,0.913,1.627,1.076
			c0,0,2.39,0.016,3.696,1.2c0,0,5.191,5.112,5.636,6.057c0,0,2.651,3.252,2.937,3.73c0,0,0.926,0.874,0.614,2.297
			c0,0-1.556,4.605-6.113,4.419c0,0-1.095,0.039-2.454-1.291c0,0-4.73-5.517-6.284-7.339
			C179.229-173.688,176.844-175.969,176.714-178.093z"/>
		<path fill="#77533E" d="M115.574-45.816l4.348,6.273c0,0,2.412,2.678,1.97,5.336c0,0-1.767,7.698-8.917,8.328
			c0,0-2.166,0.316-4.705-2.712l-5.759-5.644c0,0-1.822-2.569-1.995-3.857c0,0-2.826-1.268-3.627-3.386l-0.613-1.795
			c0,0-0.656-1.242,0.537-2.267c0,0,2.463-0.918,1.436-2.457c0,0-0.721-0.641-0.54-1.242c0,0-1.112-0.545-0.085-2.169
			c0,0,1.374-1.395,2.434-1.68c0,0,0.889-0.023,1.213,0.883c0,0,0.43-0.364,0.621,0.535c0,0,0.492,0.989,2.508,2.15
			c0,0,0.512,0.48,1.412,0.521c0,0,2.723,0.193,3.196,0.164c0,0,2.06-0.287,3.58,0.517C112.587-48.317,114.43-47.585,115.574-45.816
			z M98.436-44.627c-0.668,0.305-0.547,1.111-0.547,1.111c0.2,2.053,2.472,2.938,2.472,2.938c0.608-2.633-0.214-3.783-0.214-3.783
			C99.537-45.811,98.436-44.627,98.436-44.627z"/>
		<g>
			<path fill="#AB6044" d="M103.476-173.671c0,0,5.462,6.484,10.817,0.761c0,0,0.021,0.646,0.752,0.569c0,0,1.133-0.192,1.16,0.881
				c0,0,0.275,0.746,0.961,0.26c0,0-0.111,0.174,0.381,0.969c0,0-2.107,4.082-0.938,4.759c0,0,1.33,1.021,4.63-2.637
				c0,0,3.427-3.878,3.286-6.3c0,0-0.027-2.019-1.777-0.821c0,0-1.448,1.216-1.971,1.767c0,0-0.891-0.149-1.547,0.406
				c0,0-0.244-1.238-1.118-0.64c0,0-1.212,0.66-1.497-0.714c0,0,0.104-0.43-0.6-0.77c0,0,3.379-6.171-2.952-10.447
				c0,0-2.14-0.971-3.045-1.257l-7.327,9.382L103.476-173.671z"/>
			<path fill="#AB6044" d="M101.609-175.799c0,0,5.821,8.414,12.192,2.306c0,0,3.507-3.443,2.422-7.422c0,0-0.552-3.579-6.205-5.97
				L101.609-175.799z"/>
			<path fill="#AB6044" d="M101.609-175.799c0,0-2.346-3.566-3.766-4.329c0,0-1.085-0.928,2.932-5.668c0,0,2.891-4.226,4.344-3.438
				c0,0,3.108,1.937,4.899,2.349C110.019-186.885,109.061-180.352,101.609-175.799z"/>
			<path fill="#AB6044" d="M104.682-188.935c0.388,0.294-0.762,2.46-2.566,4.84c-1.805,2.378-3.581,4.069-3.969,3.775
				c-0.387-0.294,0.762-2.461,2.566-4.84S104.295-189.229,104.682-188.935z"/>
		</g>
		<path fill="#DCA427" d="M52.275-106.605c0,0,0.283,1.047-2.287,1.905c0,0-17.598,6.547-19.289,6.757c0,0-0.85,1.689-6.721-10.213
			c0,0,4.252-6.496,10.264-9.769c0,0,9.389-1.42,11.758-0.655C46-118.58,50.396-109.007,52.275-106.605z M33.051-109.641
			c-0.326-0.572-1.014-0.797-1.535-0.5s-0.679,1.002-0.353,1.575c0.326,0.572,1.013,0.798,1.534,0.501
			S33.377-109.067,33.051-109.641z M39.605-104.567c-0.453-0.797-1.42-1.101-2.158-0.681c-0.738,0.421-0.97,1.406-0.516,2.202
			c0.453,0.798,1.418,1.102,2.156,0.681C39.826-102.785,40.059-103.771,39.605-104.567z M36.115-111.385
			c-0.385-0.676-1.121-0.981-1.645-0.683c-0.521,0.297-0.635,1.085-0.25,1.762c0.385,0.675,1.121,0.982,1.644,0.685
			C36.388-109.92,36.5-110.709,36.115-111.385z M46.285-107.416c-0.227-0.398-0.775-0.513-1.228-0.256
			c-0.452,0.258-0.634,0.788-0.406,1.187c0.226,0.397,0.775,0.513,1.227,0.255C46.33-106.488,46.512-107.019,46.285-107.416z
			 M44.996-113.104c-0.465-0.819-1.449-1.137-2.198-0.71c-0.749,0.426-0.978,1.436-0.513,2.253c0.467,0.819,1.451,1.138,2.2,0.712
			C45.234-111.276,45.463-112.285,44.996-113.104z"/>
		<g>
			<path fill="#F2E4B8" d="M196.513-252.239c0,0-1.308-3.422-3.679-5.723c0,0-0.045-1.063-2.127-1.583c0,0-4.463-1.501-11.423,1.443
				c0,0-6.737,3.459-9.134,6.53c0,0-1.647,1.029-1.03,1.864l3.882,5.146l1.506,2.141l1.46,1.424l1.754,3.572
				c0,0,1.615,0.817,2.935-0.358c0,0,7.941-6.855,9.312-7.953C189.969-245.735,197.062-251.017,196.513-252.239z"/>
			<path fill="#F2E4B8" d="M175.69-242.785c0,0,13.691-12.192,15.63-13.766c0,0,0.85-2.076,1.966-0.171c0,0,2.337,2.431,2.887,4.482
				c0,0,0.399,0.288-0.66,1.189l-14.585,12.328c0,0-2.075,2.543-3.604,0.68c0,0-6.443-8.316-7.846-11.349
				c0,0,3.318,4.642,4.266,5.781C173.743-243.609,174.896-240.962,175.69-242.785z"/>
		</g>
		<path fill="#A7762B" d="M32.099-248.189c0,0,0.157-1.431-0.91-2.863c0,0-1.76-2.803-2.27-3.768c0,0-0.742-1.299-1.112-1.734
			c0,0-0.903,0.103-0.526-0.871l-0.073-0.295c0,0-0.837-0.184-0.286-1.06c0,0,0.695-1.144,1.344-0.902c0,0,0.42,0.061,0.319,0.565
			l0.464,0.391c0,0,0.486-0.225,0.473,0.298c0,0,1.93,1.889,2.506,2.264c0,0,2.465,1.564,2.93,2.23c0,0,0.869,0.913,1.627,1.076
			c0,0,2.391,0.016,3.697,1.2c0,0,5.19,5.112,5.635,6.057c0,0,2.652,3.252,2.938,3.73c0,0,0.924,0.874,0.613,2.297
			c0,0-1.557,4.605-6.113,4.419c0,0-1.096,0.039-2.455-1.291c0,0-4.729-5.517-6.283-7.339
			C34.614-243.785,32.229-246.065,32.099-248.189z"/>
		<path fill="#B28856" d="M260.696-246.953c-2.271,3.082-7.054,8.472-7.054,8.472c-3.752,5.809-8.855,1.481-8.855,1.481
			c-2.754-3.087,0.701-8.712,0.701-8.712c0.98-1.691,3.49-5.48,4.996-7.731c0,0,0.366-0.57,0.92-1.37
			c0.176-0.261,0.277-0.411,0.277-0.411c0.014-0.016,0.027-0.03,0.041-0.044c1.384-1.961,3.559-4.776,4.531-4.626
			c0,0,7.128-4.354,8.514,0.676C264.768-259.218,267.75-255.425,260.696-246.953z M252.9-240.017
			c-0.121-1.321-3.828-1.326-3.828-1.326c-1.758-0.609-3.098,0.917-3.098,0.917C247.764-238.078,252.9-240.017,252.9-240.017z
			 M257.304-247.375c0,0-5.549-1.709-6.947-0.347c0,0-1.562,1.165-2.491,1.838c0,0,3.564,1.804,4.715,1.633
			C252.58-244.251,255.883-245.95,257.304-247.375z M263.206-254.713c-1.247-0.077-6.104,0.23-6.104,0.23
			c-1.787-0.192-5.25,2.446-5.25,2.446c1.546,1.138,7.287,0.819,7.287,0.819C261.328-251.738,263.206-254.713,263.206-254.713z"/>
		<path fill="#B28856" d="M186.311-104.748c-2.271,3.081-7.055,8.472-7.055,8.472c-3.751,5.809-8.854,1.48-8.854,1.48
			c-2.754-3.087,0.701-8.712,0.701-8.712c0.979-1.69,3.49-5.479,4.996-7.731c0,0,0.365-0.57,0.92-1.37
			c0.175-0.261,0.276-0.41,0.276-0.41c0.014-0.017,0.027-0.031,0.041-0.045c1.385-1.961,3.559-4.776,4.531-4.626
			c0,0,7.129-4.354,8.514,0.676C190.381-117.014,193.363-113.221,186.311-104.748z M178.514-97.813
			c-0.121-1.321-3.827-1.326-3.827-1.326c-1.758-0.609-3.098,0.917-3.098,0.917C173.378-95.874,178.514-97.813,178.514-97.813z
			 M182.918-105.171c0,0-5.549-1.709-6.948-0.347c0,0-1.562,1.165-2.49,1.838c0,0,3.563,1.804,4.714,1.634
			C178.193-102.046,181.496-103.745,182.918-105.171z M188.82-112.509c-1.248-0.077-6.105,0.231-6.105,0.231
			c-1.787-0.193-5.25,2.445-5.25,2.445c1.547,1.139,7.287,0.819,7.287,0.819C186.941-109.534,188.82-112.509,188.82-112.509z"/>
		<path fill="#C14627" d="M120.863-102.71c0,0-3.184,7.153-10.059,7.891c0,0-2.123,0.738-3.508,0c0,0-6.044-0.046-9.643-5.722
			c0,0-1.478-2.261-1.478-4.799c0,0-1.614-7.567,1.708-10.89c0,0,1.846-3.554,4.291-4.291c0,0,3.645-1.847,5.398-1.662
			c0,0,1.708,0.067,2.723-0.013c0,0,3.184,0.336,4.66,1.675c0,0,1.293,0.968,1.893,1.198c0,0,2.861,2.17,4.014,4.938
			C120.863-114.384,124.002-109.401,120.863-102.71z M117.496-112.677c-1.385,0.509-2.631,0.231-2.631,0.231
			c-0.369-0.046-1.199-0.185-1.199-0.185c-0.693,0-3.139,0.6-3.139,0.6c-1.246,1.245-0.922,0.185-0.922,0.185
			c0.139-0.877,1.66-5.491,1.66-5.491c0.369-1.107,2.077-2.861,2.077-2.861c-0.508,0.139-1.522,0.969-1.522,0.969
			c-0.416,0.692-1.615,2.354-1.615,2.354c-0.692,0.692-1.085,2.262-1.085,2.262c-0.392,1.061-0.484,1.291-0.484,1.291
			c-0.6,2.215-1.153,0.878-1.153,0.878c-0.23-0.323-1.107-1.2-1.107-1.2c-0.369-0.601-0.785-1.353-0.785-1.353
			c-0.553-0.292-1.338-3.539-1.338-3.539c0.047,0.739,0.369,2.4,0.369,2.4c0.369,1.246,1.431,4.66,1.431,4.66
			c-0.369-0.277-2.215-1.246-2.215-1.246c-1.708-0.923-4.106-0.784-4.384-0.692c-0.775,0.259-1.799,0-1.799,0
			c0.645,0.508,1.199,0.277,1.199,0.277c1.338,0,2.769,0.508,2.769,0.508c2.677,0.646,4.522,3.138,4.522,3.138
			c-0.369,0.322-2.308,2.907-2.308,2.907c-2.03,2.906-1.847,4.198-1.847,4.198c0.601-2.215,2.354-3.507,2.354-3.507
			c0.554-0.139,2.584-2.63,2.584-2.63c0.368-1.015,1.846,0.415,1.846,0.415c0.185,0.831,2.999,3.045,2.999,3.045
			c0.646,0.739,1.615,1.754,1.615,1.754c0.23,0.508,1.061,0.923,1.061,0.923c0-0.323-0.553-1.107-0.553-1.107
			c-0.277-0.139-1.523-1.753-1.523-1.753c-0.553-0.785-2.354-3.046-2.354-3.046c-1.107-0.923-0.045-1.984-0.045-1.984
			c0.23-0.461,1.291-0.831,1.291-0.831c0.97-0.092,3.046-0.691,3.046-0.691c0.276-0.322,2.723-0.322,2.723-0.322
			C117.496-112.215,117.496-112.677,117.496-112.677z"/>
		<path fill="#C14627" d="M266.399-31.33c0,0-3.184,7.153-10.06,7.891c0,0-2.123,0.738-3.507,0c0,0-6.044-0.046-9.644-5.722
			c0,0-1.477-2.261-1.477-4.799c0,0-1.615-7.567,1.707-10.89c0,0,1.846-3.554,4.291-4.291c0,0,3.646-1.847,5.398-1.662
			c0,0,1.709,0.067,2.723-0.013c0,0,3.185,0.336,4.661,1.675c0,0,1.292,0.968,1.892,1.198c0,0,2.861,2.17,4.015,4.938
			C266.399-43.004,269.537-38.021,266.399-31.33z M263.031-41.297c-1.385,0.509-2.631,0.231-2.631,0.231
			c-0.369-0.046-1.199-0.185-1.199-0.185c-0.692,0-3.138,0.6-3.138,0.6c-1.246,1.245-0.923,0.185-0.923,0.185
			c0.139-0.877,1.661-5.491,1.661-5.491c0.369-1.107,2.077-2.861,2.077-2.861c-0.508,0.139-1.523,0.969-1.523,0.969
			c-0.416,0.692-1.615,2.354-1.615,2.354c-0.691,0.692-1.084,2.262-1.084,2.262c-0.393,1.061-0.484,1.291-0.484,1.291
			c-0.6,2.215-1.154,0.878-1.154,0.878c-0.23-0.323-1.107-1.2-1.107-1.2c-0.369-0.601-0.784-1.353-0.784-1.353
			c-0.554-0.292-1.338-3.539-1.338-3.539c0.046,0.739,0.368,2.4,0.368,2.4c0.369,1.246,1.432,4.66,1.432,4.66
			c-0.369-0.277-2.215-1.246-2.215-1.246c-1.708-0.923-4.107-0.784-4.385-0.692c-0.775,0.259-1.799,0-1.799,0
			c0.646,0.508,1.199,0.277,1.199,0.277c1.338,0,2.77,0.508,2.77,0.508c2.676,0.646,4.521,3.138,4.521,3.138
			c-0.369,0.322-2.307,2.907-2.307,2.907c-2.031,2.906-1.847,4.198-1.847,4.198c0.601-2.215,2.354-3.507,2.354-3.507
			c0.553-0.139,2.584-2.63,2.584-2.63c0.368-1.015,1.846,0.415,1.846,0.415c0.184,0.831,2.998,3.045,2.998,3.045
			c0.646,0.739,1.615,1.754,1.615,1.754c0.231,0.508,1.062,0.923,1.062,0.923c0-0.323-0.554-1.107-0.554-1.107
			c-0.276-0.139-1.522-1.753-1.522-1.753c-0.554-0.785-2.354-3.046-2.354-3.046c-1.107-0.923-0.046-1.984-0.046-1.984
			c0.23-0.461,1.292-0.831,1.292-0.831c0.97-0.092,3.046-0.691,3.046-0.691c0.276-0.322,2.723-0.322,2.723-0.322
			C263.031-40.835,263.031-41.297,263.031-41.297z"/>
		<path fill="#B28F66" d="M123.385-243.119c-1.654,1.497-1.654,1.497-1.654,1.497l-7.551,6.616c0,0-1.473,1.433-2.943-0.245
			l-10.695-12.207c0,0-1.202-1.481-0.396-2.474c0.805-0.993,2.529-2.792,1.793-5.543c-0.736-2.752-1.998-3.32-2.439-3.604
			c0,0-2.387-0.924-1.027-2.976c0,0,1.461-1.28,2.488,0.165c0,0,0.301,0.453,0.664,1.14c0,0,1.14,2.829,4.261,3.061
			c3.122,0.232,3.128-0.252,4.159-0.822c0,0,1.252-1.191,3.021,0.608l10.623,12.125
			C123.688-245.777,125.039-244.617,123.385-243.119z M100.153-261.279c-0.235-0.269-0.645-0.296-0.913-0.061
			c-0.27,0.235-0.297,0.645-0.062,0.914c0.236,0.269,0.646,0.296,0.915,0.061C100.362-260.6,100.389-261.009,100.153-261.279z"/>
		<path fill="#B28F66" d="M269.034-171.098c-1.655,1.497-1.655,1.497-1.655,1.497l-7.551,6.616c0,0-1.473,1.433-2.942-0.245
			l-10.695-12.207c0,0-1.203-1.481-0.397-2.474c0.805-0.993,2.53-2.792,1.794-5.543c-0.736-2.752-1.999-3.32-2.439-3.604
			c0,0-2.388-0.924-1.027-2.976c0,0,1.461-1.28,2.488,0.165c0,0,0.301,0.453,0.664,1.14c0,0,1.139,2.829,4.26,3.061
			c3.122,0.232,3.128-0.252,4.16-0.822c0,0,1.252-1.191,3.021,0.608l10.624,12.125C269.337-173.756,270.688-172.596,269.034-171.098
			z M245.802-189.258c-0.234-0.269-0.645-0.296-0.913-0.061s-0.296,0.645-0.062,0.914c0.236,0.269,0.646,0.296,0.915,0.061
			S246.038-188.988,245.802-189.258z"/>
	</g>
</pattern>
<rect fill="url(#catt)" width="1440" height="864"/>
</svg>
