<?xml version="1.0" encoding="utf-8"?>
<!-- Generator: Adobe Illustrator 15.0.0, SVG Export Plug-In . SVG Version: 6.00 Build 0)  -->
<!DOCTYPE svg PUBLIC "-//W3C//DTD SVG 1.1//EN" "http://www.w3.org/Graphics/SVG/1.1/DTD/svg11.dtd">
<svg version="1.1" id="Layer_1" xmlns="http://www.w3.org/2000/svg" xmlns:xlink="http://www.w3.org/1999/xlink" x="0px" y="0px"
	 width="612px" height="792px" viewBox="0 0 612 792" enable-background="new 0 0 612 792" xml:space="preserve">
<rect fill="#F2DF8F" width="612" height="792"/>
<rect x="72.987" y="145" fill="none" width="467.346" height="468"/>
<text transform="matrix(1 0 0 1 72.9873 152.1001)"><tspan x="0" y="0" font-family="'MinionPro-Capt'" font-size="10">Ariel Cotton</tspan><tspan x="0" y="12" font-family="'MinionPro-Capt'" font-size="10">Allotrope Creations, Inc.</tspan><tspan x="0" y="24" font-family="'MinionPro-Capt'" font-size="10">247 Carroll Street</tspan><tspan x="0" y="36" font-family="'MinionPro-Capt'" font-size="10">Brooklyn, NY, 11231</tspan><tspan x="0" y="72" font-family="'MinionPro-Capt'" font-size="10">Dear Ms. Cotton:</tspan><tspan x="0" y="96" font-family="'MinionPro-Capt'" font-size="10">Curabitur sem risus, pulvinar a feugiat quis, tristique eget velit. Maecenas massa magna, sagittis eget imperdiet </tspan><tspan x="0" y="108" font-family="'MinionPro-Capt'" font-size="10">eu, tempus eu justo. Nunc non pellentesque ante. Nam fringilla erat id mi congue ullamcorper. Nam vel purus </tspan><tspan x="0" y="120" font-family="'MinionPro-Capt'" font-size="10">elit. Vivamus tempor dapibus mattis. Donec dapibus dui quis nulla tempor in viverra nibh varius. Donec ultrices </tspan><tspan x="0" y="132" font-family="'MinionPro-Capt'" font-size="10">lobortis orci a cursus. Nullam at porttitor augue.</tspan><tspan x="0" y="156" font-family="'MinionPro-Capt'" font-size="10">Integer justo ipsum, porttitor vel scelerisque vel, condimentum gravida augue. Aenean ac nisi justo. Vestibulum </tspan><tspan x="0" y="168" font-family="'MinionPro-Capt'" font-size="10">eu enim nec lacus feugiat sodales quis quis ante. Cras pulvinar sapien et velit interdum tristique. Maecenas at </tspan><tspan x="0" y="180" font-family="'MinionPro-Capt'" font-size="10">ligula ac turpis facilisis aliquam. Sed erat massa, rhoncus eget commodo ac, lobortis in elit. Quisque eget viverra </tspan><tspan x="0" y="192" font-family="'MinionPro-Capt'" font-size="10">dolor. Pellentesque tincidunt tortor sit amet libero venenatis pellentesque ut id nulla.</tspan><tspan x="0" y="216" font-family="'MinionPro-Capt'" font-size="10">Sed at purus justo, nec tempor purus. Vivamus aliquam porta nunc, id feugiat leo auctor a. Duis magna est, </tspan><tspan x="0" y="228" font-family="'MinionPro-Capt'" font-size="10">faucibus in posuere ut, cursus eget nulla. Curabitur ligula odio, vulputate eu viverra ac, consectetur et mi. Mauris </tspan><tspan x="0" y="240" font-family="'MinionPro-Capt'" font-size="10">sed turpis vel libero porta rhoncus at quis nisi. Mauris condimentum metus eleifend mauris egestas nec facilisis </tspan><tspan x="0" y="252" font-family="'MinionPro-Capt'" font-size="10">augue euismod. Morbi commodo, mi id ornare dictum, lacus velit commodo diam, nec pellentesque dolor erat </tspan><tspan x="0" y="264" font-family="'MinionPro-Capt'" font-size="10">nec ligula. Cum sociis natoque penatibus et magnis dis parturient montes, nascetur ridiculus mus. Phasellus </tspan><tspan x="0" y="276" font-family="'MinionPro-Capt'" font-size="10">vulputate tempus tortor, luctus ultricies metus venenatis ut.</tspan><tspan x="0" y="312" font-family="'MinionPro-Capt'" font-size="10">Sincerely,</tspan><tspan x="0" y="396" font-family="'MinionPro-Capt'" font-size="10">Herp Derpington</tspan></text>
<g>
	<g>
		<path fill="#42170E" d="M266.428,31.101c0.491-0.366,1.055-0.631,1.655-0.773c0.781-0.185,2.258-0.379,2.326,0.811
			c0.099,1.706-1.662,2.565-2.991,3.148c-0.449,0.198-1.611,0.665-2.134,0.445c-1.077-0.451-0.294-1.948,0.122-2.564
			C265.686,31.755,266.033,31.396,266.428,31.101z"/>
		<path fill="#42170E" d="M298.055,24.149c-2.648-0.426-5.678,2.138-5.678,2.138c-2.404-0.985-4.059,1.114-4.059,1.114
			c-1.472,1.708-3.139,7.659-3.139,7.659c-0.837,3.089-2.337,3.266-2.337,3.266c-1.004,0.647-2.479,0.202-2.479,0.202
			c-0.665-0.475,0.751-2.184,0.751-2.184c1.472-1.708,1.869-3.453,1.869-3.453c0.344-1.858-1.094-2.925-1.094-2.925
			c-1.887-1.194-5.111,0.4-5.111,0.4c-2.355,0.999-3.24,3.803-3.24,3.803c-1.292,3.13-0.194,5.942-0.194,5.942l-0.762,0.769
			c-1.446,0.916-1.447-0.784-1.447-0.784c-0.369-0.863-0.174-5.104-0.174-5.104c0.048-1.472-1.218-0.833-1.218-0.833
			c-0.462,0.269-2.467,0.939-2.467,0.939c-1.545,0.46-1.713,2.154-1.713,2.154c-0.386,1.404-0.535,4.23-0.535,4.23
			c-0.935-0.88-3.216-0.388-3.216-0.388c1.381-2.391,1.329-4.262,1.329-4.262c-0.399-3.413-2.645-4.052-2.645-4.052
			c-4.254-1.555-6.536,0.693-6.536,0.693c-2.02,1.179-3.022,4.087-3.024,4.094c-0.5,1.456-1.508,3.56-3.166,3.909
			c-0.372,0.078-0.722-0.021-1.076,0.034c-2.912,0.466-4.108,5.041-2.984,7.436c1.377,2.934,4.255,1.555,4.255,1.555
			c3.413-2.155,3.757-5.77,3.757-5.77c0.272-1.408,1.041-4.102,1.041-4.102c-0.548,4.627,0.385,10.776,0.385,10.776
			c0.112,1.761-1.141,3.703-1.141,3.703c-0.716,1.109-0.218,1.466-0.218,1.466c0.363,1.03,0.921,1.276,0.921,1.276
			c2.331,1.492,4.912-1.199,4.912-1.199c1.398-1.202,1.839-4.303,1.839-4.303c1.718,1.189,3.083,1.007,3.083,1.007
			c2.898-0.246,3.999-2.703,3.999-2.703c1.128-1.606,0.857-3.71,0.857-3.71l1.177,0.378c2.41,0.815,3.282-1.083,3.282-1.083
			c0.841-0.992,2.356-5.021,2.356-5.021c2.72,1.731,5.934,0.476,5.934,0.476c2.898-0.302,4.687-3.001,4.687-3.001
			c1.402-1.295,2.052-3.86,2.052-3.86c0.318-1.066,1.043-2.458,1.043-2.458c0.756-0.599,0.77,0.704,0.77,0.704
			c-0.055,1.698-1.179,4.894-1.179,4.894c0.575-0.261,5.302-1.019,5.302-1.019c0.339-1.689,0.64-6.495,0.64-6.495
			c-0.044-1.191,0.378-2.141,0.378-2.141c1.107-0.926,2.375,0.134,2.375,0.134c0.757,1.102,1.896,0.912,1.896,0.912
			c2.389-0.262,2.865-2.739,2.865-2.739C301.313,24.992,298.055,24.149,298.055,24.149z M257.5,41.295c0,0-0.619-3.646-0.123-4.933
			c0,0,1.232-1.319,2.15,0.07c0,0,1.524,3.618-0.47,5.707C259.057,42.14,257.823,43.516,257.5,41.295z M262.325,47.911
			c0,0-1.338,1.09-2.017,1.067c0,0-0.86,0.312-1.229-0.55c0,0-0.66-2.343-1.18-3.777c0,0,0.617-1.453,2.072-1.802
			c0,0,2.292,0.018,3.193,1.917C263.164,44.767,263.482,47.156,262.325,47.911z M278.105,33.074c0,0,0.403-1.914,1.483-2.048
			c0,0,1.355,0.157,1.005,2.185c0,0-0.183,2.147-1.609,4.197C278.984,37.407,277.844,34.141,278.105,33.074z"/>
		<path fill="#42170E" d="M325.434,25.438c-2.964-1.229-5.061,0.571-5.061,0.571c-0.964-1.73-2.883-0.207-2.883-0.207
			c-1.393,0.974-3.279,6.748-3.279,6.748c-0.516,1.909-1.933,1.919-1.933,1.919c-1.072-0.147-1.533-1.636-1.533-1.636
			c-0.348-1.484,1.087-2.061,1.087-2.061c0.632-0.262,2.783-1.949,2.783-1.949c1.229-1.207,1.572-3.008,1.572-3.008
			c0.419-2.422-3.143-2.708-3.143-2.708c-2.996-0.211-5.263,3.285-5.263,3.285c0.438-1.289,0.622-6.892,0.622-6.892
			c-2.164,0.326-5.547-0.181-5.547-0.181l-1.619,9.692c-0.386,4.916-2.644,8.128-2.644,8.128c2.172-0.609,5.669-0.098,5.669-0.098
			c0.374-1.064,1.329-4.319,1.329-4.319c0.069,3.119,2.277,4.89,2.277,4.89c4.53,1.792,6.971-1.813,6.971-1.813
			c1.119-1.323,1.781-5.946,1.781-5.946c0.281-1.691,1.429-2.164,1.429-2.164c1.069,0.206,1.064,2.131,1.064,2.131
			c-0.044,1.358-1.928,6.962-1.928,6.962c0.775,0.592,6.176,1.731,6.176,1.731c0.008-1.926-0.689-6.651-0.689-6.651
			c-0.463-1.432,0.379-2.934,0.379-2.934c1.043-0.702,1.16,0.888,1.16,0.888c0.18,1.478,1.364,1.63,1.364,1.63
			c2.767,0.26,3.14-2.447,3.14-2.447C328.955,26.913,325.434,25.438,325.434,25.438z M309.945,29.579c0,0-1.991,1.974-3.753,2.144
			c0,0,0.418-2.366,2.464-4.338c0,0,1.29-1.318,2.049-0.273C310.705,27.111,311.227,28.488,309.945,29.579z"/>
		<path fill="#42170E" d="M356.15,33.805c-3.883-0.806-10.328,5.726-10.328,5.726l-2.217-1.545l-1.049,0.929l1.664,1.074
			c1.279,0.721-0.045,1.358-0.045,1.358l-2.847,2.229c-3.251,0.63-2.712-2.015-2.712-2.015c0.163-1.524,3.433-4.477,3.433-4.477
			c-0.877-0.935-3.638-3.121-3.638-3.121l-1.507,1.027c-0.804-3.142-5.485-3.805-5.485-3.805c-2.605,0.028-4.907,2.843-4.907,2.843
			c-1.754,3.833,0.5,5.512,0.5,5.512c3.434,2.434,7.729,1.044,7.729,1.044c0.078,4.535,5.353,4.367,5.353,4.367l-3.646,2.374
			c0.443,0.297,6.294,3.265,6.294,3.265l5.347-5.832c0.71-0.939,1.817-0.11,1.817-0.11c0.38,0.465,1.21,1.115,1.21,1.115
			l0.945-1.216l-2.266-1.772c0.432-1.062,1.828-2.207,1.828-2.207c2.187-1.004,2.821,0.375,2.821,0.375
			c0.612,2.059,2.489,1.837,2.489,1.837c3.804-0.272,4.008-3.016,4.008-3.016C361.516,34.314,356.15,33.805,356.15,33.805z
			 M334.568,37.18c0,0-1.723,2.437-4.157,2.357c0,0-1.402-0.386-0.38-2.222c0,0,2.174-2.366,3.723-2.995
			c0,0,1.549-0.573,1.812,0.059C335.566,34.38,335.623,36.083,334.568,37.18z"/>
		<path fill="#42170E" d="M355.413,45.962l5.192-2.891c0,0,4.916,3.898,5.76,4.097l-6.686,3.464l1.588,1.696l-0.992,0.873
			l-1.934-1.479c0,0-0.609-0.417-1.019-0.033c0,0-2.833,1.72-2.21,3.497c0,0,0.412,1.26,3.477,1.077l0.148,0.685
			c0,0-3.303,2.215-6.07,0.255c0,0-3.343-1.752-2.418-5.744c0,0,1.112-2.854,3.434-4.59l-1.375-1.234l1.102-0.814L355.413,45.962z"
			/>
	</g>
	<path fill="#482610" d="M270.08,74.169c0,0,1.695-1.566,1.911-4.424c0,0,0.818-5.24,1.219-6.943c0,0,0.468-2.351,0.479-3.267
		c0,0-1.2-0.826,0.279-1.607l0.221-0.435c0,0-0.818-1.101,0.77-1.582c0,0,2.043-0.651,2.573,0.322c0,0,0.445,0.515-0.208,1.019
		l0.15,0.961c0,0,0.826,0.24,0.258,0.857c0,0,0.349,4.315,0.651,5.374c0,0,1.334,4.484,1.197,5.78c0,0,0.09,2.019,0.836,3.014
		c0,0,2.874,2.532,3.208,5.34c0,0,0.9,11.644,0.445,13.254c0,0-0.213,6.723-0.372,7.602c0,0,0.2,2.029-1.673,3.423
		c0,0-6.727,3.934-12.043-1.085c0,0-1.366-1.105-1.612-4.144c0,0,0.083-11.648,0.119-15.486
		C268.49,82.143,268.003,76.874,270.08,74.169z"/>
	<g>
		<path fill="#7E331E" d="M317.749,70.019c-1.118-2.908-4.271-4.965-4.271-4.965c-0.683-0.524-4.168-4.028-4.168-4.028
			c-1.183-1.125-1.308-2.39-1.308-2.39c-1.37-3.987-0.865-5.922-0.865-5.922c0.809-1.455-0.212-1.47-0.212-1.47
			c0.636-1.624-0.604-2.647-0.604-2.647c-1.786-0.873-5.322-0.604-5.322-0.604c-3.333,0.995-2.465,3.063-2.465,3.063
			c-0.962,0.606-0.742,2.338-0.742,2.338c-0.429,3.322-4.884,1.645-4.884,1.645c-2.847-0.021-3.429,2.454-3.429,2.454l-1.3,3.182
			c-1.428,3.842,0.921,8.938,0.921,8.938c-1.296,1.964-1.866,7.643-1.866,7.643l1.145,14.555c-0.138,7.154,3.195,9.302,3.195,9.302
			c10.511,7.649,22.084-0.758,22.084-0.758c3.766-3.103,3.66-9.628,3.66-9.628l1.531-13.738
			C319.395,73.213,317.749,70.019,317.749,70.019z M296.061,60.614c0,0-0.247,2.548-4.21,5.421c0,0-2.048-3.912,0.121-6.952
			c0,0,0.795-1.246,2.069-0.869C294.04,58.214,296.953,57.911,296.061,60.614z"/>
		<path fill="#FFFFFF" d="M302.227,73.125c0,0-0.538-2.005,3.102-1.304c0,0,2.229,0.483,1.435,1.729
			C306.764,73.55,302.908,75.474,302.227,73.125z"/>
		<path fill="#FFFFFF" d="M309.009,72.618c0,0-0.705-1.437,1.443-1.629c0,0,1.768,0.104,0.748,1.781
			C311.2,72.769,309.763,73.934,309.009,72.618z"/>
		<path fill="#FFFFFF" d="M308.083,75.632c0,0,1.565-1.006,1.44,0.386C309.523,76.018,308.418,78.025,308.083,75.632z"/>
		<path fill="#FFFFFF" d="M303.54,59.598c0,0,0.18,1.75-1.168,0.896C302.372,60.493,302.383,59.982,303.54,59.598z"/>
		<path fill="#FFFFFF" d="M305.675,61.235c0,0,0.485-0.71,0.955,0.411c0,0-0.427,1.395-1.206,0.506
			C305.424,62.151,305.004,62.227,305.675,61.235z"/>
		<path fill="#FFFFFF" d="M302.402,62.103c0,0,1.952-1.056,1.879,1.069c0,0-0.74,1.257-1.681,0.706
			C302.601,63.877,301.46,62.904,302.402,62.103z"/>
	</g>
	<path fill="#6F3A17" d="M327.244,72.593c0,0,1.694-1.565,1.91-4.423c0,0,0.818-5.24,1.219-6.944c0,0,0.469-2.35,0.479-3.267
		c0,0-1.2-0.826,0.279-1.607l0.222-0.436c0,0-0.818-1.101,0.771-1.582c0,0,2.043-0.65,2.572,0.323c0,0,0.445,0.515-0.207,1.019
		l0.149,0.961c0,0,0.826,0.24,0.259,0.856c0,0,0.348,4.316,0.65,5.375c0,0,1.334,4.484,1.197,5.78c0,0,0.09,2.019,0.836,3.014
		c0,0,2.874,2.533,3.209,5.341c0,0,0.9,11.644,0.445,13.253c0,0-0.214,6.722-0.372,7.602c0,0,0.199,2.029-1.673,3.423
		c0,0-6.728,3.934-12.044-1.084c0,0-1.366-1.105-1.611-4.145c0,0,0.083-11.648,0.119-15.486
		C325.653,80.566,325.166,75.298,327.244,72.593z"/>
	<path fill="#482610" d="M326.971,78.435v15.989c0,0-0.37,5.767,4.932,6.736c0,0,6.014,0.929,6.812-4.181c0,0,1.524-11.846,0-17.653
		C338.715,79.325,335.102,74.99,326.971,78.435z"/>
</g>
<g>
	<path fill="none" stroke="#42170E" stroke-width="1.0482" stroke-miterlimit="10" d="M315.479,767.747
		c0,0-9.333-4.033-1.359-11.651"/>
	<path fill="none" stroke="#42170E" stroke-width="1.0482" stroke-miterlimit="10" d="M316.172,759.455c0,0,0.421-2.913,3.845-1.345
		c0,0,1.955,0.896,0,3.81c0,0-1.468,1.122-1.488,3.139"/>
	
		<line fill="none" stroke="#42170E" stroke-width="1.0482" stroke-miterlimit="10" x1="321.87" y1="761.92" x2="320.017" y2="761.92"/>
	<path fill="none" stroke="#42170E" stroke-width="1.0482" stroke-miterlimit="10" d="M324.506,759.007c0,0-0.553,2.913-0.474,4.931
		"/>
	<path fill="none" stroke="#42170E" stroke-width="1.0482" stroke-miterlimit="10" d="M327.697,761.92c0,0,3.585,0.897,2.465,3.139
		c0,0-1.12,2.465-2.465,0c0,0-0.332-0.688,1.627-3.705c0,0,1.258-2.121-0.297-2.347C329.027,759.007,325.231,758.784,327.697,761.92
		z"/>
	<path fill="none" stroke="#42170E" stroke-width="1.0482" stroke-miterlimit="10" d="M332.109,757.647c0,0,7.474,4.944-1.158,10.1"
		/>
	<path fill="none" stroke="#42170E" stroke-width="1.0482" stroke-miterlimit="10" d="M341.309,760.481c0,0,0.955-4.035,2.971-1.227
		c0,0,1.734,1.863-1.485,4.801c0,0-3.893,2.608-1.203-1.095c0,0,2.066-0.948,3.946,1.095c0,0,1.534,1.593,2.827,1.593"/>
	<path fill="none" stroke="#42170E" stroke-width="1.0482" stroke-miterlimit="10" d="M348.761,759.822c0,0,4.93-1.792,2.267,2.017
		l-0.738,1.122c0,0,4.074,2.688-0.856,2.688"/>
	<path fill="none" stroke="#42170E" stroke-width="1.0482" stroke-miterlimit="10" d="M356.828,759.4c0,0,3.361,1.268,0.896,4.655
		c0,0-1.792,3.189-2.689-1.531C355.035,762.524,354.14,760.101,356.828,759.4z"/>
	
		<line fill="none" stroke="#42170E" stroke-width="1.0482" stroke-miterlimit="10" x1="361.957" y1="762.524" x2="364.988" y2="762.524"/>
	<path fill="none" stroke="#42170E" stroke-width="1.0482" stroke-miterlimit="10" d="M366.73,760.481c0,0-1.416-2.438,2.408-2.222
		c0,0,3.551-2.022,1.896,1.116c0,0-1.91,3.808-1.896,6.272c0,0-0.273-3.109,2.335-3.124h-3.665"/>
	<path fill="none" stroke="#42170E" stroke-width="1.0482" stroke-miterlimit="10" d="M376.181,759.255c0,0-3.729,6.171,0,6.394
		c0,0,3.604-3.664-2.385-3.395"/>
	<path fill="none" stroke="#42170E" stroke-width="1.0482" stroke-miterlimit="10" d="M381.646,759.255c0,0,3.77,1.951,1.577,5.854
		c0,0-3.03,2.583-3.62-2.584C379.603,762.524,378.901,759.808,381.646,759.255z"/>
	<path fill="none" stroke="#42170E" stroke-width="1.0482" stroke-miterlimit="10" d="M388.804,760.481c0,0,1.948,4.719,0,5.167
		c0,0-5.809,0.934-2.981-4.015C385.822,761.634,386.719,758.674,388.804,760.481z"/>
</g>
<g>
	<path fill="none" stroke="#42170E" stroke-width="1.0482" stroke-miterlimit="10" d="M107.263,754.687c0,0,1.616,3.585,0,6.946"/>
	<path fill="none" stroke="#42170E" stroke-width="1.0482" stroke-miterlimit="10" d="M113.266,762.755c0,0,3.585-6.946-1.345-8.068
		c0,0-5.016,3.361,1.302,4.033"/>
	<path fill="none" stroke="#42170E" stroke-width="1.0482" stroke-miterlimit="10" d="M117.892,755.68c0,0,1.015,5.199,0.943,7.204"
		/>
	<path fill="none" stroke="#42170E" stroke-width="1.0482" stroke-miterlimit="10" d="M132.081,758.72c0,0-0.514,3.139,1.54,4.035"
		/>
	<path fill="none" stroke="#42170E" stroke-width="1.0482" stroke-miterlimit="10" d="M132.822,756.928"/>
	<path fill="none" stroke="#42170E" stroke-width="1.0482" stroke-miterlimit="10" d="M138.139,755.68c0,0-2.464-4.13-2.688,1.248
		c0,0,1.792,6.947,0,9.412"/>
	<path fill="none" stroke="#42170E" stroke-width="1.0482" stroke-miterlimit="10" d="M139.484,758.16c0,0-0.896,4.817,1.344,4.595"
		/>
	<polyline fill="none" stroke="#42170E" stroke-width="1.0482" stroke-miterlimit="10" points="142.621,759.28 138.139,760.251 
		133.766,760.736 	"/>
	<path fill="none" stroke="#42170E" stroke-width="1.0482" stroke-miterlimit="10" d="M142.621,755.68c0,0-1.792,12.451,2.242,5.953
		c0,0,1.344-2.967,2.689,1.879"/>
	<path fill="none" stroke="#42170E" stroke-width="1.0482" stroke-miterlimit="10" d="M150.688,763.512c0,0,1.568-0.086,3.137-6.584
		c0,0,3.138-5.154,2.914,1.792c0,0-1.322,2.637,0.011,4.792"/>
	
		<line fill="none" stroke="#42170E" stroke-width="1.0482" stroke-miterlimit="10" x1="153.719" y1="760.01" x2="156.75" y2="759.594"/>
	<path fill="none" stroke="#42170E" stroke-width="1.0482" stroke-miterlimit="10" d="M158.182,759.594c0,0,0.515,6.746,2.561,2.039
		c0,0,0.896-2.688,2.255-2.913"/>
	<path fill="none" stroke="#42170E" stroke-width="1.0482" stroke-miterlimit="10" d="M167.656,759.28c0,0,1.467-0.561,0.093,3.475
		c0,0,3.555-7.62,3.331-1.122c0,0,0,1.74,1.344,1.879"/>
	<path fill="none" stroke="#42170E" stroke-width="1.0482" stroke-miterlimit="10" d="M173.993,761.013c0,0,1.344,7.047,3.025,0.247
		"/>
	<path fill="none" stroke="#42170E" stroke-width="1.0482" stroke-miterlimit="10" d="M180.043,762.755c0,0,2.242-4.259,0-3.475
		c0,0-4.481,4.162,2.914,4.938"/>
	<path fill="none" stroke="#42170E" stroke-width="1.0482" stroke-miterlimit="10" d="M164.227,762.077c0,0,3.255-3.544,0.889-3.357
		c0,0-5.397,2.876,1.554,5.52"/>
	<g>
		<path fill="none" stroke="#42170E" stroke-width="1.0482" stroke-miterlimit="10" d="M132.061,754.845
			c0,0-3.716,1.857-5.717,1.857c0,0-0.285,0.286,0,4.002c0,0,0.031,3.573-0.127,5.288"/>
		<path fill="none" stroke="#42170E" stroke-width="1.0482" stroke-miterlimit="10" d="M131.204,760.418
			c0,0-2.971,0.858-4.987,1.144"/>
	</g>
</g>
<g>
	<path fill="none" stroke="#42170E" stroke-width="1.0482" stroke-miterlimit="10" d="M203.531,766.764c0,0-1.121-9.276,1.12-10.62
		c0,0,6.274-0.809,0,5.31c0,0,4.301,0.067,0.694,3.877c0,0-5.624,2.535-3.158-0.672"/>
	<path fill="none" stroke="#42170E" stroke-width="1.0482" stroke-miterlimit="10" d="M209.547,763.41c0,0-1.792-2.465,1.344-3.137"
		/>
	<path fill="none" stroke="#42170E" stroke-width="1.0482" stroke-miterlimit="10" d="M213.999,760.273c0,0,2.719,1.12,0.591,3.137
		c0,0-2.129,0.896-2.129-1.568C212.46,761.842,211.73,760.496,213.999,760.273z"/>
	<path fill="none" stroke="#42170E" stroke-width="1.0482" stroke-miterlimit="10" d="M216.718,762.329c0,0,0.041-2.94,2.7-1.704
		c0,0,1.617,1.648-0.675,2.558C218.744,763.183,217.763,764.357,216.718,762.329z"/>
	<path fill="none" stroke="#42170E" stroke-width="1.0482" stroke-miterlimit="10" d="M222.208,758.257c0,0-0.241,2.913-0.063,5.153
		c0,0,1.297-0.895,2.864-2.578c0,0-4.403,2.132,1.945,2.578"/>
	<path fill="none" stroke="#42170E" stroke-width="1.0482" stroke-miterlimit="10" d="M229.174,756.515c0,0-0.326,5.82-0.901,7.917"
		/>
	<path fill="none" stroke="#42170E" stroke-width="1.0482" stroke-miterlimit="10" d="M242.713,763.41c0,0,1.12,2.964-0.897,4.06"/>
	<path fill="none" stroke="#42170E" stroke-width="1.0482" stroke-miterlimit="10" d="M250.396,764.432
		c0,0-1.186-11.565,0.831-4.164c0,0,4.158,9.663,3.137-2.011"/>
	<path fill="none" stroke="#42170E" stroke-width="1.0482" stroke-miterlimit="10" d="M257.032,756.515c0,0,0.41,11.831,4.799,1.279
		c0,0-2.088,5.417-1.416,7.645c0,0-1.439,4.869-4.51,1.325"/>
	<path fill="none" stroke="#42170E" stroke-width="1.0482" stroke-miterlimit="10" d="M268.57,758.289c0,0,0.202,5.295-0.177,7.265"
		/>
	<path fill="none" stroke="#42170E" stroke-width="1.0482" stroke-miterlimit="10" d="M272.41,765.771c0,0-1.482-3.645,0.256-6.942"
		/>
	<path fill="none" stroke="#42170E" stroke-width="1.0482" stroke-miterlimit="10" d="M275.989,760.832c0,0,0.112-3.036,2.129-0.564
		c0,0,0.447,2.719-2.129,4.164c0,0-2.578-1.693,0-1.568c0,0,3.026,0.348,4.818,2.575"/>
	<path fill="none" stroke="#42170E" stroke-width="1.0482" stroke-miterlimit="10" d="M283.272,760.268c0,0-0.448,1.826,0,5.286"/>
	<path fill="none" stroke="#42170E" stroke-width="1.0482" stroke-miterlimit="10" d="M287.636,760.832c0,0-2.123-3.182,2.134-1.533
		c0,0,3.138-0.434,0,2.623c0,0-0.821,0.381-0.634,3.849"/>
	<path fill="none" stroke="#42170E" stroke-width="1.0482" stroke-miterlimit="10" d="M231.147,760.024c0,0-0.357,2.382,1.548,2.62
		c0,0,1.072-0.238,1.072-2.62c0,0,0.596-0.834,0,3.812c0,0-0.065,0.953,0.265,2.619c0,0,0.688,2.621-1.456,2.502
		c0,0-4.103-0.12-1.456-2.62"/>
	<path fill="none" stroke="#42170E" stroke-width="1.0482" stroke-miterlimit="10" d="M236.745,760.857c0,0,0.476,1.971,0.476,3.605
		c0,0,0.239,1.549,0.715-1.803c0,0,0.477-1.325,1.787-1.803c0,0,1.309-1.039,0.833,1.982c0,0-0.238,2.133,1.191,1.98"/>
</g>
<g>
	<path fill="none" stroke="#42170E" stroke-width="1.0482" stroke-miterlimit="10" d="M407.224,758.534c0,0,1.378-0.672,0.648,2.242
		c0,0-0.067,6.946,2.29,0.896c0,0-0.074-3.362,0.693,1.12c0,0,1.931,4.424,2.246-1.486c0,0,0.091-1.112-1.03-2.838"/>
	<path fill="none" stroke="#42170E" stroke-width="1.0482" stroke-miterlimit="10" d="M414.699,758.534c0,0,1.346,1.345,0.928,3.81
		c0,0-0.192,4.036,2.384-1.903c0,0,0.401-0.125,0.704,3.243c0,0,3.276,1.799,2.35-5.149"/>
	<path fill="none" stroke="#42170E" stroke-width="1.0482" stroke-miterlimit="10" d="M423.306,758.534c0,0-0.491,9.637,1.757,4.259
		c0,0,0.593-5.377,2.652-0.224c0,0,2.55,4.481,2.081-2.913"/>
	
		<ellipse fill="none" stroke="#42170E" stroke-width="1.0482" stroke-miterlimit="10" cx="434.414" cy="762.788" rx="0.748" ry="0.678"/>
	<path fill="none" stroke="#42170E" stroke-width="1.0482" stroke-miterlimit="10" d="M437.618,762.111c0,0,3.137,1.353,4.033-3.577
		c0,0-1.25-6.406-1.521-0.065c0,0-0.617,9.213,2.917,5.423c0,0,1.564-4.704-2.157-1.78"/>
	<path fill="none" stroke="#42170E" stroke-width="1.0482" stroke-miterlimit="10" d="M445.71,760.235c0,0,1.265,2.293,0.844,3.656"
		/>
	<path fill="none" stroke="#42170E" stroke-width="1.0482" stroke-miterlimit="10" d="M448.684,762.111c0,0,4.333-3.801,0.891-3.577
		c0,0-3.516,3.544,0.22,5.357c0,0,0.597,0.203,1.717,0"/>
	<path fill="none" stroke="#42170E" stroke-width="1.0482" stroke-miterlimit="10" d="M459.005,756.74c0,0-0.348,4.218,0,7.151
		c0,0-0.909-1.281,2.409-3.656c0,0-4.882,4.756,2.242,3.656"/>
	<path fill="none" stroke="#42170E" stroke-width="1.0482" stroke-miterlimit="10" d="M478.327,758.534c0,0,0.326-4.614-1.929-2.866
		c0,0-1.582,1.953-1.582,5.544c0,0,2.016,6.733,0,8.976"/>
	<path fill="none" stroke="#42170E" stroke-width="1.0482" stroke-miterlimit="10" d="M481.65,756.74c0,0-2.245,7.412,0.391,8.188"
		/>
	
		<line fill="none" stroke="#42170E" stroke-width="1.0482" stroke-miterlimit="10" x1="484.353" y1="760.835" x2="479.73" y2="761.425"/>
	
		<ellipse fill="none" stroke="#42170E" stroke-width="1.0482" stroke-miterlimit="10" cx="486.469" cy="764.384" rx="0.748" ry="0.677"/>
	<path fill="none" stroke="#42170E" stroke-width="1.0482" stroke-miterlimit="10" d="M491.398,761.212c0,0-1.568-2.958-1.568,1.439
		c0,0-0.174,3.686,2.938,1.24"/>
	<path fill="none" stroke="#42170E" stroke-width="1.0482" stroke-miterlimit="10" d="M494.798,763.706c0,0,0.957,2.854,2.028,0.186
		c0,0,1.844-1.793,0-2.68C496.826,761.212,494.387,759.466,494.798,763.706z"/>
	<path fill="none" stroke="#42170E" stroke-width="1.0482" stroke-miterlimit="10" d="M498.569,761.132c0,0,1.344,1.032,1.12,3.252
		c0,0,1.121-6.978,2.688-1.596c0,0,2.242-4.483,3.139-0.223c0,0,0.447,2.063,2.016,1.818"/>
	<path fill="none" stroke="#42170E" stroke-width="1.0482" stroke-miterlimit="10" d="M452.847,759.607c0,0,0.631,0.252,0.631,3.279
		c0,0,0.505,4.416,0.758-1.64c0,0,0.63-1.892,2.648-1.64"/>
	<path fill="none" stroke="#42170E" stroke-width="1.0482" stroke-miterlimit="10" d="M464.499,760.742c0,0,1.01,1.089,1.01,3.698
		c0,0,0.756,3.154,0.756-1.849c0,0,0-3.283,3.028-3.008"/>
	<path fill="none" stroke="#42170E" stroke-width="1.0482" stroke-miterlimit="10" d="M472.319,761.5c0,0-1.387-1.876-2.27,0.513
		c0,0-0.757,2.515,1.135,1.884c0,0,0.379,0.224,1.135-1.401c0,0,1.01-3.519,1.01,0.519c0,0-0.126,1.662,1.766,2.407
		c0,0,1.177,0.699,4.372-0.98"/>
</g>
<path fill="none" stroke="#42170E" stroke-miterlimit="10" d="M14.548,732.088c0,0,161.199,2.906,212.945,1.444
	c0,0,178.368-1.425,241.843-1.444c0,0,116.379,4.02,133.879,0"/>
<g>
	<g>
		<path d="M72.965,495.876c1.92-4.292,4.79-7.868,8.632-10.6c-0.498,0.033-0.997,0.065-1.495,0.099
			c6.984,11.702,4.952,25.941,6.932,38.884c0.102,0.665,1.948,0.167,1.932-0.518c-0.125-5.439-1.35-10.236-4-15
			c-0.367,0.261-0.734,0.521-1.101,0.782c10.679-1.559,15.957-12.131,11.101-21.782c-0.295-0.587-1.818-0.227-1.931,0.383
			c-2.004,10.872-1.701,24.372,3.999,34.135c0.35,0.601,1.529,0.197,1.864-0.244c2.817-3.715,4.759-6.477,4.068-11.273
			c-0.089-0.622-1.921-0.188-1.931,0.383c-0.025,1.465-0.083,2.528-0.933,3.861c-0.181,0.284,0.028,0.467,0.304,0.531
			c7.061,1.647,13.019-1.019,19.72-3.045c-0.364-0.071-0.729-0.142-1.092-0.213c2.939,5.297,4.009,11.088,5,17
			c0.113,0.675,1.937,0.158,1.932-0.518c-0.056-7.58-1.155-15.736,1.999-22.865c-0.621,0.166-1.242,0.333-1.863,0.499
			c2.313,3.794,3.575,7.724-2.229,9.153c-1.167,0.288-0.906,1.229,0.253,0.943c6.243-1.539,7.012-5.531,3.771-10.847
			c-0.345-0.566-1.67,0.063-1.863,0.499c-3.176,7.179-2.057,15.503-2.001,23.135c0.644-0.173,1.288-0.345,1.932-0.518
			c-0.991-5.912-2.06-11.703-5-17c-0.201-0.363-0.748-0.316-1.092-0.213c-3.18,0.962-6.295,2.119-9.5,3
			c-0.953,0.263-8.77,0.947-7.897-0.42c0.558-0.874,0.472-2.242,0.489-3.232c-0.644,0.128-1.287,0.255-1.931,0.383
			c0.66,4.583-1.297,7.252-3.932,10.727c0.622-0.081,1.243-0.163,1.864-0.244c-5.667-9.707-5.986-23.091-4.001-33.865
			c-0.644,0.128-1.287,0.255-1.931,0.383c4.084,8.117,1.117,18.756-8.899,20.218c-0.211,0.031-1.341,0.351-1.101,0.782
			c2.65,4.764,3.875,9.562,4,15c0.644-0.173,1.288-0.345,1.932-0.518c-2.001-13.085-0.01-27.289-7.068-39.116
			c-0.236-0.396-1.232-0.088-1.495,0.099c-4.155,2.954-7.283,6.738-9.368,11.4C70.775,496.706,72.689,496.492,72.965,495.876
			L72.965,495.876z"/>
	</g>
</g>
<g>
	<g>
		<path d="M155.966,489.741c-0.031-0.896-0.026-1.753-0.236-2.624c-0.161-0.666-1.95-0.141-1.932,0.518
			c0.059,2.104,2.322,5.067,2.981,7.18c1.098,3.518,1.525,7.251,1.876,10.904c0.75,7.816,0.401,15.703,0.379,23.54
			c-0.001,0.56,1.904,0.204,1.93-0.386c0.644-14.519-6.71-26.729-10.999-40.132c-0.368,0.257-0.736,0.514-1.104,0.771
			c15.259-1.25,31.608,31.479,13.015,36.028c0.362,0.111,0.725,0.222,1.087,0.333c0.49-8.205,12.368-8.154,16.932-13.864
			c-0.621,0.083-1.241,0.167-1.862,0.25c0.541,11.399,12.208,3.295,14.93-2.386c-0.644,0.128-1.287,0.257-1.93,0.386
			c1.912,8.916,2.992,17.945,4,27c0.07,0.63,1.946,0.167,1.932-0.518c-0.141-6.836-4.292-18.825,2.628-23.475
			c-0.52-0.003-1.04-0.005-1.56-0.008c0.645,1.442,1.098,2.862,2.067,4.113c0.301,0.388,1.174,0.069,1.492-0.105
			c6.529-3.59,13.945-1.309,20.938-2.64c0.736-0.14,1.469-0.333,2.168-0.604c1.362-0.527,3.378,4.834,3.76,5.781
			c1.53,3.791,1.134,7.662-0.424,11.322c0.643-0.085,1.286-0.169,1.929-0.254c5.074-12.29,8.836-24.738,9.001-38.132
			c-0.644,0.173-1.288,0.345-1.932,0.518c0.06,8.729,0.719,17.545,3,26c0.174,0.646,2.106,0.128,1.932-0.518
			c-2.281-8.455-2.939-17.271-3-26c-0.004-0.575-1.923-0.2-1.932,0.518c-0.165,13.293-3.966,25.68-8.999,37.868
			c-0.244,0.592,1.671,0.35,1.929-0.254c2.822-6.63,0.621-12.439-3.066-18.245c-0.215-0.34-1.009-0.105-1.274-0.002
			c-8.323,3.224-17.185-0.31-25.218,4.107c0.498-0.035,0.995-0.07,1.492-0.105c-0.905-1.167-1.339-2.559-1.933-3.887
			c-0.228-0.51-1.225-0.232-1.56-0.008c-7.752,5.209-3.53,16.872-3.372,24.525c0.644-0.173,1.288-0.345,1.932-0.518
			c-1.008-9.055-2.087-18.084-4-27c-0.157-0.733-1.732-0.027-1.93,0.386c-1.039,2.169-2.396,3.853-4.248,5.387
			c-4.156,3.443-6.638,0.104-6.822-3.772c-0.033-0.693-1.654-0.01-1.862,0.25c-4.677,5.852-16.53,5.13-17.068,14.136
			c-0.031,0.525,0.774,0.409,1.087,0.333c21.035-5.146,4.419-39.397-12.985-37.972c-0.283,0.022-1.25,0.312-1.104,0.771
			c4.251,13.287,11.64,25.471,11.001,39.868c0.644-0.128,1.287-0.257,1.93-0.386c0.021-7.366,0.22-14.723-0.262-22.08
			c-0.246-3.746-0.781-7.46-1.651-11.111c-0.621-2.607-3.253-5.928-3.323-8.433c-0.644,0.173-1.288,0.345-1.932,0.518
			c0.21,0.871,0.205,1.729,0.236,2.624C154.054,490.841,155.991,490.463,155.966,489.741L155.966,489.741z"/>
	</g>
</g>
<g>
	<g>
		<path d="M242.875,516.561c15.519-1,31.305,2.434,46.539,4.983c0.644,0.107,2.284-0.902,1.173-1.088
			c-15.537-2.601-31.632-6.038-47.461-5.017C242.149,515.502,241.54,516.647,242.875,516.561L242.875,516.561z"/>
	</g>
</g>
</svg>
