<?xml version="1.0" encoding="utf-8"?>
<!-- Generator: Adobe Illustrator 15.0.0, SVG Export Plug-In . SVG Version: 6.00 Build 0)  -->
<!DOCTYPE svg PUBLIC "-//W3C//DTD SVG 1.1//EN" "http://www.w3.org/Graphics/SVG/1.1/DTD/svg11.dtd">
<svg version="1.1" id="Layer_1" xmlns="http://www.w3.org/2000/svg" xmlns:xlink="http://www.w3.org/1999/xlink" x="0px" y="0px"
	 width="700px" height="500px" viewBox="0 0 700 500" enable-background="new 0 0 700 500" xml:space="preserve">
<rect fill="#F2DF8E" width="700" height="500"/>
<g>
	<g>
		<path fill="#42170E" d="M173.4,107.901c2.301-1.72,4.949-2.964,7.767-3.63c3.668-0.867,10.604-1.779,10.921,3.805
			c0.463,8.007-7.804,12.039-14.041,14.777c-2.108,0.928-7.558,3.12-10.01,2.091c-5.056-2.118-1.385-9.144,0.568-12.037
			C169.915,110.975,171.548,109.285,173.4,107.901z"/>
		<path fill="#42170E" d="M321.852,75.271c-12.433-2.001-26.65,10.037-26.65,10.037c-11.287-4.625-19.051,5.228-19.051,5.228
			c-6.91,8.017-14.731,35.95-14.731,35.95c-3.935,14.5-10.973,15.333-10.973,15.333c-4.713,3.036-11.636,0.948-11.636,0.948
			c-3.117-2.231,3.528-10.252,3.528-10.252c6.908-8.02,8.77-16.206,8.77-16.206c1.618-8.721-5.139-13.729-5.139-13.729
			c-8.854-5.605-23.991,1.881-23.991,1.881c-11.056,4.688-15.209,17.85-15.209,17.85c-6.061,14.693-0.908,27.892-0.908,27.892
			l-3.573,3.608c-6.785,4.299-6.794-3.68-6.794-3.68c-1.732-4.049-0.816-23.959-0.816-23.959c0.228-6.908-5.721-3.911-5.721-3.911
			c-2.163,1.264-11.58,4.41-11.58,4.41c-7.251,2.158-8.038,10.109-8.038,10.109c-1.816,6.593-2.512,19.857-2.512,19.857
			c-4.389-4.13-15.102-1.819-15.102-1.819c6.486-11.221,6.24-20.004,6.24-20.004c-1.875-16.019-12.414-19.021-12.414-19.021
			c-19.968-7.298-30.68,3.255-30.68,3.255c-9.48,5.535-14.182,19.184-14.19,19.216c-2.352,6.832-7.085,16.71-14.863,18.348
			c-1.744,0.366-3.391-0.103-5.05,0.159c-13.67,2.183-19.278,23.662-14.01,34.901c6.466,13.771,19.974,7.299,19.974,7.299
			c16.02-10.113,17.635-27.083,17.635-27.083c1.282-6.609,4.884-19.249,4.884-19.249c-2.566,21.721,1.807,50.579,1.807,50.579
			c0.531,8.267-5.352,17.379-5.352,17.379c-3.357,5.206-1.025,6.886-1.025,6.886c1.707,4.835,4.325,5.99,4.325,5.99
			c10.944,7.001,23.056-5.629,23.056-5.629c6.565-5.643,8.638-20.2,8.638-20.2c8.066,5.582,14.466,4.73,14.466,4.73
			c13.605-1.155,18.769-12.689,18.769-12.689c5.296-7.536,4.021-17.417,4.021-17.417l5.527,1.777
			c11.315,3.822,15.402-5.083,15.402-5.083c3.951-4.653,11.062-23.57,11.062-23.57c12.766,8.126,27.851,2.231,27.851,2.231
			c13.605-1.416,22.001-14.086,22.001-14.086c6.581-6.08,9.634-18.117,9.634-18.117c1.49-5.004,4.895-11.54,4.895-11.54
			c3.548-2.81,3.612,3.305,3.612,3.305c-0.256,7.971-5.535,22.97-5.535,22.97c2.696-1.226,24.889-4.782,24.889-4.782
			c1.586-7.929,3.002-30.486,3.002-30.486c-0.206-5.593,1.774-10.05,1.774-10.05c5.199-4.348,11.148,0.63,11.148,0.63
			c3.556,5.171,8.903,4.279,8.903,4.279c11.209-1.231,13.446-12.855,13.446-12.855C337.148,79.229,321.852,75.271,321.852,75.271z
			 M131.493,155.752c0,0-2.906-17.114-0.577-23.15c0,0,5.783-6.192,10.095,0.329c0,0,7.152,16.983-2.21,26.786
			C138.801,159.717,133.013,166.177,131.493,155.752z M154.138,186.807c0,0-6.28,5.117-9.462,5.011c0,0-4.043,1.462-5.77-2.585
			c0,0-3.094-11.002-5.543-17.729c0,0,2.897-6.821,9.729-8.453c0,0,10.761,0.082,14.988,8.998
			C158.08,172.048,159.573,183.265,154.138,186.807z M228.212,117.163c0,0,1.89-8.982,6.96-9.615c0,0,6.362,0.737,4.722,10.256
			c0,0-0.863,10.078-7.554,19.701C232.34,137.505,226.984,122.17,228.212,117.163z"/>
		<path fill="#42170E" d="M450.367,81.324c-13.914-5.771-23.756,2.682-23.756,2.682c-4.523-8.123-13.529-0.97-13.529-0.97
			c-6.538,4.572-15.396,31.672-15.396,31.672c-2.417,8.962-9.071,9.009-9.071,9.009c-5.033-0.692-7.196-7.677-7.196-7.677
			c-1.63-6.968,5.104-9.674,5.104-9.674c2.967-1.232,13.062-9.147,13.062-9.147c5.771-5.663,7.382-14.121,7.382-14.121
			c1.967-11.368-14.753-12.714-14.753-12.714c-14.063-0.989-24.702,15.419-24.702,15.419c2.059-6.049,2.92-32.35,2.92-32.35
			c-10.157,1.532-26.036-0.847-26.036-0.847l-7.602,45.492c-1.809,23.075-12.408,38.151-12.408,38.151
			c10.198-2.857,26.61-0.461,26.61-0.461c1.754-4.994,6.243-20.271,6.243-20.271c0.321,14.639,10.687,22.952,10.687,22.952
			c21.263,8.408,32.719-8.511,32.719-8.511c5.251-6.208,8.36-27.911,8.36-27.911c1.321-7.938,6.708-10.156,6.708-10.156
			c5.018,0.966,4.995,10.005,4.995,10.005c-0.206,6.377-9.049,32.678-9.049,32.678c3.64,2.779,28.987,8.128,28.987,8.128
			c0.037-9.04-3.234-31.22-3.234-31.22c-2.172-6.719,1.779-13.771,1.779-13.771c4.895-3.296,5.443,4.168,5.443,4.168
			c0.845,6.938,6.405,7.653,6.405,7.653c12.985,1.222,14.737-11.484,14.737-11.484C466.895,88.243,450.367,81.324,450.367,81.324z
			 M377.664,100.76c0,0-9.346,9.266-17.614,10.061c0,0,1.96-11.104,11.562-20.363c0,0,6.058-6.186,9.618-1.281
			C381.23,89.176,383.68,95.638,377.664,100.76z"/>
		<path fill="#42170E" d="M594.547,120.595c-18.227-3.786-48.479,26.875-48.479,26.875l-10.407-7.255l-4.921,4.36l7.811,5.04
			c6.005,3.386-0.212,6.375-0.212,6.375l-13.362,10.47c-15.26,2.956-12.728-9.46-12.728-9.46
			c0.765-7.154,16.111-21.011,16.111-21.011c-4.117-4.39-17.077-14.649-17.077-14.649l-7.069,4.819
			c-3.773-14.746-25.747-17.859-25.747-17.859c-12.232,0.133-23.037,13.343-23.037,13.343c-8.232,17.996,2.348,25.872,2.348,25.872
			c16.119,11.429,36.276,4.903,36.276,4.903c0.365,21.285,25.126,20.497,25.126,20.497l-17.119,11.147
			c2.082,1.394,29.545,15.324,29.545,15.324l25.097-27.376c3.333-4.41,8.531-0.518,8.531-0.518c1.782,2.187,5.679,5.235,5.679,5.235
			l4.438-5.701l-10.636-8.326c2.027-4.986,8.581-10.358,8.581-10.358c10.264-4.714,13.245,1.764,13.245,1.764
			c2.871,9.669,11.684,8.622,11.684,8.622c17.854-1.274,18.81-14.154,18.81-14.154C619.729,122.986,594.547,120.595,594.547,120.595
			z M493.244,136.438c0,0-8.088,11.44-19.515,11.065c0,0-6.581-1.811-1.783-10.429c0,0,10.204-11.104,17.475-14.058
			c0,0,7.269-2.69,8.507,0.276C497.928,123.293,498.193,131.286,493.244,136.438z"/>
		<path fill="#42170E" d="M591.084,177.658l24.376-13.568c0,0,23.075,18.299,27.034,19.23l-31.382,16.262l7.455,7.958l-4.659,4.099
			l-9.076-6.939c0,0-2.86-1.958-4.779-0.157c0,0-13.298,8.073-10.373,16.41c0,0,1.933,5.914,16.316,5.058l0.697,3.213
			c0,0-15.504,10.395-28.494,1.195c0,0-15.688-8.228-11.349-26.957c0,0,5.22-13.395,16.118-21.549l-6.454-5.793l5.169-3.819
			L591.084,177.658z"/>
	</g>
	<path fill="#482610" d="M190.541,310.064c0,0,7.959-7.354,8.973-20.767c0,0,3.842-24.597,5.72-32.591
		c0,0,2.195-11.037,2.246-15.338c0,0-5.634-3.878,1.311-7.544l1.042-2.045c0,0-3.842-5.161,3.611-7.421c0,0,9.591-3.059,12.08,1.511
		c0,0,2.09,2.418-0.976,4.782l0.704,4.51c0,0,3.877,1.13,1.211,4.024c0,0,1.636,20.253,3.051,25.227c0,0,6.266,21.048,5.62,27.131
		c0,0,0.426,9.474,3.926,14.147c0,0,13.493,11.889,15.061,25.062c0,0,4.228,54.661,2.092,62.214c0,0-0.999,31.557-1.741,35.682
		c0,0,0.934,9.525-7.858,16.07c0,0-31.573,18.462-56.527-5.099c0,0-6.414-5.188-7.564-19.443c0,0,0.386-54.677,0.56-72.691
		C183.08,347.486,180.794,322.753,190.541,310.064z"/>
	<g>
		<path fill="#7E331E" d="M414.295,290.582c-5.248-13.649-20.044-23.303-20.044-23.303c-3.203-2.468-19.565-18.915-19.565-18.915
			c-5.549-5.281-6.138-11.213-6.138-11.213c-6.431-18.716-4.062-27.795-4.062-27.795c3.796-6.831-0.994-6.904-0.994-6.904
			c2.984-7.618-2.834-12.422-2.834-12.422c-8.384-4.099-24.979-2.837-24.979-2.837c-15.643,4.671-11.572,14.378-11.572,14.378
			c-4.513,2.845-3.482,10.976-3.482,10.976c-2.013,15.593-22.919,7.717-22.919,7.717c-13.367-0.095-16.1,11.526-16.1,11.526
			l-6.1,14.933c-6.703,18.034,4.322,41.953,4.322,41.953c-6.084,9.218-8.756,35.872-8.756,35.872l5.373,68.319
			c-0.651,33.581,14.996,43.66,14.996,43.66c49.338,35.906,103.662-3.557,103.662-3.557c17.675-14.563,17.178-45.193,17.178-45.193
			l7.188-64.484C422.018,305.571,414.295,290.582,414.295,290.582z M312.491,246.431c0,0-1.159,11.963-19.766,25.448
			c0,0-9.612-18.362,0.569-32.636c0,0,3.73-5.845,9.714-4.075C303.009,235.168,316.682,233.741,312.491,246.431z"/>
		<path fill="#FFFFFF" d="M341.436,305.158c0,0-2.523-9.415,14.559-6.124c0,0,10.465,2.275,6.736,8.119
			C362.73,307.153,344.633,316.182,341.436,305.158z"/>
		<path fill="#FFFFFF" d="M373.269,302.773c0,0-3.309-6.742,6.778-7.644c0,0,8.294,0.485,3.51,8.36
			C383.557,303.49,376.809,308.955,373.269,302.773z"/>
		<path fill="#FFFFFF" d="M368.924,316.927c0,0,7.348-4.721,6.76,1.81C375.684,318.736,370.497,328.163,368.924,316.927z"/>
		<path fill="#FFFFFF" d="M347.599,241.663c0,0,0.845,8.214-5.481,4.204C342.117,245.867,342.167,243.47,347.599,241.663z"/>
		<path fill="#FFFFFF" d="M357.624,249.345c0,0,2.274-3.33,4.483,1.932c0,0-2.006,6.55-5.665,2.373
			C356.442,253.649,354.472,254.002,357.624,249.345z"/>
		<path fill="#FFFFFF" d="M342.262,253.421c0,0,9.157-4.956,8.817,5.02c0,0-3.469,5.9-7.885,3.309
			C343.194,261.749,337.837,257.183,342.262,253.421z"/>
	</g>
	<path fill="#6F3A17" d="M458.863,302.665c0,0,7.952-7.348,8.967-20.766c0,0,3.842-24.596,5.722-32.591
		c0,0,2.199-11.033,2.246-15.337c0,0-5.636-3.878,1.31-7.545l1.041-2.044c0,0-3.841-5.163,3.618-7.423c0,0,9.588-3.052,12.073,1.518
		c0,0,2.09,2.416-0.974,4.786l0.702,4.51c0,0,3.877,1.122,1.214,4.017c0,0,1.633,20.26,3.054,25.229c0,0,6.26,21.051,5.622,27.128
		c0,0,0.418,9.479,3.921,14.146c0,0,13.489,11.89,15.063,25.074c0,0,4.227,54.649,2.089,62.208c0,0-1,31.551-1.747,35.682
		c0,0,0.937,9.524-7.849,16.063c0,0-31.58,18.465-56.534-5.086c0,0-6.413-5.188-7.564-19.456c0,0,0.392-54.675,0.561-72.689
		C451.397,340.088,449.109,315.362,458.863,302.665z"/>
	<path fill="#482610" d="M457.579,330.085v75.049c0,0-1.735,27.066,23.151,31.619c0,0,28.227,4.359,31.976-19.628
		c0,0,7.155-55.603,0-82.863C512.706,334.262,495.747,313.914,457.579,330.085z"/>
</g>
</svg>
