<?xml version="1.0" encoding="utf-8"?>
<!-- Generator: Adobe Illustrator 15.0.0, SVG Export Plug-In . SVG Version: 6.00 Build 0)  -->
<!DOCTYPE svg PUBLIC "-//W3C//DTD SVG 1.1//EN" "http://www.w3.org/Graphics/SVG/1.1/DTD/svg11.dtd">
<svg version="1.1" id="Layer_1" xmlns="http://www.w3.org/2000/svg" xmlns:xlink="http://www.w3.org/1999/xlink" x="0px" y="0px"
	 width="792px" height="1300px" viewBox="0 0 792 1300" enable-background="new 0 0 792 1300" xml:space="preserve">
<pattern  x="-216" y="254" width="163" height="87" patternUnits="userSpaceOnUse" id="sdfsdf" viewBox="0 -87 163 87" overflow="visible">
	<g>
		<polygon fill="none" points="0,0 163,0 163,-87 0,-87 		"/>
		<polygon fill="#472510" points="163,0 0,0 0,-87 163,-87 		"/>
		<path fill="#DBA951" d="M22.177-47.794c0,0,1.402-1.284,1.59-3.638c0,0,0.692-4.313,1.027-5.715c0,0,0.394-1.934,0.406-2.688
			c0,0-0.985-0.685,0.235-1.323l0.184-0.357c0,0-0.67-0.91,0.64-1.3c0,0,1.686-0.53,2.118,0.274c0,0,0.365,0.426-0.174,0.839
			l0.119,0.792c0,0,0.68,0.201,0.21,0.707c0,0,0.272,3.556,0.518,4.429c0,0,1.084,3.698,0.966,4.766c0,0,0.068,1.663,0.678,2.486
			c0,0,2.36,2.095,2.625,4.41c0,0,0.702,9.593,0.321,10.918c0,0-0.198,5.537-0.331,6.261c0,0,0.156,1.672-1.392,2.813
			c0,0-5.554,3.217-9.916-0.936c0,0-1.121-0.915-1.312-3.42c0,0,0.107-9.594,0.151-12.754C20.84-41.232,20.456-45.574,22.177-47.794
			z"/>
		<path fill="#A97034" d="M95.338-45.303l-1.309,11.311c0,0,0.064,5.375-3.049,7.918c0,0-9.562,6.886-18.192,0.548
			c0,0-2.739-1.78-2.601-7.674l-0.893-11.993c0,0,0.489-4.675,1.563-6.289c0,0-1.917-4.205-0.728-7.365l1.081-2.616
			c0,0,0.487-2.037,2.833-2.008c0,0,3.663,1.396,4.028-1.339c0,0-0.176-1.428,0.619-1.925c0,0-0.707-1.706,2.041-2.514
			c0,0,2.914-0.209,4.382,0.516c0,0,1.018,0.848,0.488,2.184c0,0,0.841,0.016,0.17,1.21c0,0-0.423,1.593,0.692,4.881
			c0,0,0.098,1.043,1.068,1.974c0,0,2.858,2.898,3.419,3.332c0,0,2.59,1.706,3.5,4.104C94.453-51.049,95.798-48.411,95.338-45.303z
			 M74.965-60.854c-1.048-0.315-1.707,0.708-1.707,0.708c-1.798,2.497-0.123,5.725-0.123,5.725c3.274-2.352,3.486-4.45,3.486-4.45
			C77.365-61.094,74.965-60.854,74.965-60.854z"/>
		<path fill="#FFFFFF" d="M81.656-48.544c0,0-0.436-1.653,2.561-1.062c0,0,1.834,0.405,1.176,1.429
			C85.393-48.178,82.21-46.607,81.656-48.544z"/>
		<path fill="#FFFFFF" d="M87.245-48.938c0,0-0.576-1.187,1.195-1.337c0,0,1.454,0.092,0.609,1.469
			C89.05-48.806,87.861-47.852,87.245-48.938z"/>
		<path fill="#FFFFFF" d="M86.473-46.458c0,0,1.293-0.823,1.185,0.322C87.657-46.136,86.74-44.486,86.473-46.458z"/>
		<path fill="#FFFFFF" d="M82.785-59.682c0,0,0.143,1.441-0.965,0.733C81.82-58.948,81.831-59.37,82.785-59.682z"/>
		<path fill="#FFFFFF" d="M84.539-58.325c0,0,0.401-0.584,0.785,0.341c0,0-0.356,1.146-0.996,0.412
			C84.328-57.572,83.982-57.511,84.539-58.325z"/>
		<path fill="#FFFFFF" d="M81.84-57.622c0,0,1.61-0.864,1.544,0.887c0,0-0.613,1.033-1.386,0.576
			C81.998-56.159,81.061-56.966,81.84-57.622z"/>
		<path fill="#9E5227" d="M131.045-47.794c0,0,1.401-1.283,1.59-3.637c0,0,0.691-4.313,1.027-5.716c0,0,0.395-1.933,0.405-2.688
			c0,0-0.985-0.685,0.235-1.323l0.185-0.358c0,0-0.671-0.91,0.641-1.3c0,0,1.685-0.529,2.116,0.275c0,0,0.366,0.426-0.173,0.839
			l0.12,0.792c0,0,0.68,0.2,0.209,0.706c0,0,0.271,3.556,0.518,4.43c0,0,1.084,3.698,0.966,4.765c0,0,0.067,1.663,0.679,2.485
			c0,0,2.358,2.097,2.624,4.41c0,0,0.702,9.595,0.322,10.919c0,0-0.199,5.536-0.333,6.261c0,0,0.156,1.672-1.39,2.812
			c0,0-5.556,3.217-9.917-0.935c0,0-1.122-0.915-1.313-3.419c0,0,0.108-9.595,0.152-12.756
			C129.708-41.232,129.324-45.574,131.045-47.794z"/>
		<path fill="#472510" d="M130.8-42.983l-0.055,13.171c0,0-0.324,4.748,4.038,5.564c0,0,4.951,0.787,5.627-3.42
			c0,0,1.297-9.753,0.061-14.541C140.471-42.209,137.51-45.793,130.8-42.983z"/>
	</g>
</pattern>
<rect x="-0.128" fill="#FFFFFF" width="792" height="1300"/>
<g>
	<rect x="89.744" y="533.449" fill="#F1DE8E" width="612" height="252"/>
	<polyline fill="#472510" points="621.064,467.021 701.43,533.434 89.93,533.443 169.824,467.415 	"/>
	<g>
		<path fill="#472510" d="M169.824,467.415l61.738-51.024c6.62-5.471,19.064-9.948,27.652-9.948h272.93
			c8.588,0,21.032,4.476,27.652,9.947l61.268,50.631"/>
	</g>
	<polygon fill="#472510" points="162.516,473.455 186.044,454.011 605.32,454.011 641.276,483.724 	"/>
	<g>
		<path fill="#F1DE8E" d="M430.957,496.609c-0.405,0.301-0.871,0.516-1.366,0.631c-0.645,0.15-1.861,0.305-1.913-0.676
			c-0.075-1.404,1.378-2.105,2.475-2.582c0.371-0.16,1.329-0.542,1.759-0.359c0.886,0.375,0.236,1.604-0.108,2.111
			C431.57,496.074,431.283,496.367,430.957,496.609z"/>
		<path fill="#F1DE8E" d="M404.882,502.227c2.18,0.359,4.685-1.742,4.685-1.742c1.977,0.82,3.347-0.904,3.347-0.904
			c1.219-1.4,2.611-6.296,2.611-6.296c0.701-2.542,1.937-2.683,1.937-2.683c0.83-0.53,2.043-0.158,2.043-0.158
			c0.545,0.394-0.627,1.797-0.627,1.797c-1.219,1.403-1.551,2.836-1.551,2.836c-0.29,1.529,0.892,2.414,0.892,2.414
			c1.551,0.99,4.212-0.312,4.212-0.312c1.944-0.814,2.683-3.121,2.683-3.121c1.074-2.575,0.18-4.894,0.18-4.894l0.629-0.63
			c1.194-0.75,1.19,0.65,1.19,0.65c0.302,0.711,0.126,4.204,0.126,4.204c-0.046,1.212,1.001,0.691,1.001,0.691
			c0.381-0.221,2.034-0.765,2.034-0.765c1.274-0.374,1.419-1.769,1.419-1.769c0.322-1.155,0.455-3.482,0.455-3.482
			c0.767,0.728,2.648,0.33,2.648,0.33c-1.146,1.965-1.109,3.506-1.109,3.506c0.317,2.813,2.165,3.346,2.165,3.346
			c3.498,1.295,5.386-0.549,5.386-0.549c1.667-0.963,2.502-3.354,2.505-3.361c0.417-1.197,1.255-2.927,2.62-3.208
			c0.308-0.063,0.596,0.02,0.887-0.023c2.4-0.375,3.401-4.139,2.484-6.115c-1.124-2.423-3.5-1.297-3.5-1.297
			c-2.817,1.765-3.113,4.739-3.113,4.739c-0.23,1.159-0.872,3.376-0.872,3.376c0.467-3.811-0.28-8.878-0.28-8.878
			c-0.087-1.45,0.953-3.046,0.953-3.046c0.592-0.912,0.185-1.207,0.185-1.207c-0.297-0.85-0.755-1.054-0.755-1.054
			c-1.916-1.237-4.05,0.971-4.05,0.971c-1.156,0.984-1.53,3.538-1.53,3.538c-1.412-0.985-2.536-0.839-2.536-0.839
			c-2.388,0.192-3.303,2.212-3.303,2.212c-0.935,1.319-0.718,3.054-0.718,3.054l-0.97-0.316c-1.982-0.68-2.706,0.881-2.706,0.881
			c-0.696,0.814-1.958,4.128-1.958,4.128c-2.234-1.436-4.887-0.413-4.887-0.413c-2.389,0.24-3.87,2.457-3.87,2.457
			c-1.16,1.062-1.704,3.172-1.704,3.172c-0.266,0.877-0.868,2.021-0.868,2.021c-0.625,0.49-0.631-0.582-0.631-0.582
			c0.051-1.398,0.988-4.028,0.988-4.028c-0.475,0.214-4.371,0.822-4.371,0.822c-0.284,1.389-0.549,5.346-0.549,5.346
			c0.031,0.982-0.319,1.762-0.319,1.762c-0.915,0.76-1.956-0.117-1.956-0.117c-0.621-0.91-1.559-0.758-1.559-0.758
			c-1.969,0.207-2.37,2.246-2.37,2.246C402.2,501.521,404.882,502.227,404.882,502.227z M438.347,488.242
			c0,0,0.497,3.006,0.084,4.064c0,0-1.02,1.082-1.771-0.064c0,0-1.244-2.987,0.407-4.699
			C437.067,487.542,438.088,486.413,438.347,488.242z M434.396,482.777c0,0,1.105-0.894,1.664-0.871c0,0,0.71-0.256,1.011,0.456
			c0,0,0.535,1.933,0.96,3.115c0,0-0.515,1.194-1.714,1.478c0,0-1.889-0.022-2.624-1.591
			C433.692,485.364,433.439,483.395,434.396,482.777z M421.345,494.945c0,0-0.338,1.574-1.228,1.68c0,0-1.116-0.133-0.821-1.803
			c0,0,0.158-1.768,1.34-3.452C420.636,491.371,421.564,494.066,421.345,494.945z"/>
		<path fill="#F1DE8E" d="M382.334,501.07c2.438,1.023,4.17-0.453,4.17-0.453c0.788,1.428,2.374,0.18,2.374,0.18
			c1.151-0.797,2.725-5.547,2.725-5.547c0.432-1.57,1.599-1.574,1.599-1.574c0.883,0.125,1.257,1.352,1.257,1.352
			c0.282,1.225-0.901,1.695-0.901,1.695c-0.521,0.215-2.3,1.596-2.3,1.596c-1.017,0.988-1.306,2.473-1.306,2.473
			c-0.354,1.992,2.58,2.242,2.58,2.242c2.467,0.184,4.345-2.688,4.345-2.688c-0.364,1.059-0.535,5.674-0.535,5.674
			c1.783-0.262,4.567,0.168,4.567,0.168l1.368-7.979c0.335-4.047,2.205-6.685,2.205-6.685c-1.792,0.493-4.67,0.062-4.67,0.062
			c-0.312,0.875-1.11,3.551-1.11,3.551c-0.045-2.569-1.858-4.034-1.858-4.034c-3.726-1.492-5.747,1.469-5.747,1.469
			c-0.927,1.084-1.488,4.891-1.488,4.891c-0.237,1.393-1.185,1.777-1.185,1.777c-0.88-0.172-0.869-1.758-0.869-1.758
			c0.04-1.119,1.611-5.729,1.611-5.729c-0.637-0.49-5.081-1.447-5.081-1.447c-0.012,1.586,0.546,5.481,0.546,5.481
			c0.376,1.18-0.323,2.416-0.323,2.416c-0.861,0.574-0.952-0.736-0.952-0.736c-0.143-1.219-1.118-1.348-1.118-1.348
			c-2.278-0.223-2.595,2.006-2.595,2.006C379.438,499.844,382.334,501.07,382.334,501.07z M395.106,497.713
			c0,0,1.647-1.619,3.099-1.754c0,0-0.353,1.949-2.045,3.566c0,0-1.067,1.08-1.688,0.217
			C394.472,499.742,394.047,498.607,395.106,497.713z"/>
		<path fill="#F1DE8E" d="M357.062,494.072c3.195,0.678,8.526-4.68,8.526-4.68l1.821,1.279l0.867-0.76l-1.367-0.891
			c-1.052-0.6,0.042-1.119,0.042-1.119l2.352-1.826c2.681-0.509,2.228,1.668,2.228,1.668c-0.14,1.256-2.844,3.676-2.844,3.676
			c0.72,0.773,2.986,2.583,2.986,2.583l1.245-0.84c0.651,2.592,4.505,3.153,4.505,3.153c2.146-0.014,4.053-2.324,4.053-2.324
			c1.457-3.152-0.394-4.542-0.394-4.542c-2.819-2.017-6.362-0.888-6.362-0.888c-0.049-3.735-4.395-3.616-4.395-3.616l3.013-1.941
			c-0.364-0.247-5.174-2.712-5.174-2.712l-4.424,4.786c-0.589,0.771-1.498,0.083-1.498,0.083c-0.311-0.384-0.992-0.923-0.992-0.923
			l-0.783,0.999l1.86,1.468c-0.359,0.873-1.514,1.811-1.514,1.811c-1.805,0.82-2.322-0.318-2.322-0.318
			c-0.497-1.697-2.044-1.521-2.044-1.521c-3.134,0.211-3.312,2.471-3.312,2.471C352.644,493.635,357.062,494.072,357.062,494.072z
			 M374.851,491.367c0,0,1.427-2.002,3.432-1.928c0,0,1.154,0.322,0.306,1.832c0,0-1.799,1.939-3.076,2.454
			c0,0-1.278,0.467-1.493-0.055C374.019,493.67,373.978,492.266,374.851,491.367z"/>
		<path fill="#F1DE8E" d="M357.71,484.06l-4.286,2.363c0,0-4.036-3.228-4.731-3.395l5.521-2.83l-1.303-1.403l0.82-0.716l1.587,1.226
			c0,0,0.501,0.345,0.839,0.031c0,0,2.34-1.407,1.833-2.873c0,0-0.335-1.039-2.86-0.899L355.01,475c0,0,2.729-1.813,5.001-0.189
			c0,0,2.747,1.455,1.972,4.74c0,0-0.927,2.347-2.845,3.769l1.129,1.021l-0.91,0.667L357.71,484.06z"/>
	</g>
	<path fill="#DBA951" d="M428.098,461.121c0,0-1.402,1.284-1.59,3.638c0,0-0.692,4.313-1.027,5.715c0,0-0.394,1.934-0.406,2.688
		c0,0,0.985,0.685-0.235,1.323l-0.184,0.357c0,0,0.67,0.91-0.64,1.3c0,0-1.686,0.53-2.118-0.274c0,0-0.365-0.426,0.174-0.839
		l-0.119-0.792c0,0-0.68-0.201-0.21-0.707c0,0-0.272-3.556-0.518-4.429c0,0-1.084-3.698-0.966-4.766c0,0-0.068-1.663-0.678-2.486
		c0,0-2.36-2.095-2.625-4.41c0,0-0.702-9.593-0.321-10.918c0,0,0.198-5.537,0.331-6.261c0,0-0.156-1.672,1.392-2.813
		c0,0,5.554-3.217,9.916,0.936c0,0,1.121,0.915,1.312,3.42c0,0-0.107,9.594-0.151,12.754
		C429.435,454.558,429.818,458.9,428.098,461.121z"/>
	<path fill="#A97034" d="M388.818,464.375c0.91,2.398,3.5,4.104,3.5,4.104c0.561,0.434,3.419,3.332,3.419,3.332
		c0.971,0.93,1.068,1.974,1.068,1.974c1.115,3.288,0.692,4.881,0.692,4.881c-0.671,1.195,0.17,1.21,0.17,1.21
		c-0.529,1.336,0.488,2.184,0.488,2.184c1.468,0.725,4.382,0.516,4.382,0.516c2.748-0.808,2.041-2.514,2.041-2.514
		c0.795-0.497,0.619-1.925,0.619-1.925c0.365-2.735,4.028-1.339,4.028-1.339c2.346,0.028,2.833-2.008,2.833-2.008l1.081-2.616
		c1.189-3.161-0.728-7.365-0.728-7.365c1.074-1.614,1.563-6.289,1.563-6.289l-0.893-11.993c0.139-5.894-2.601-7.674-2.601-7.674
		c-8.631-6.338-18.192,0.548-18.192,0.548c-3.113,2.543-3.049,7.918-3.049,7.918l-1.309,11.311
		C387.474,461.737,388.818,464.375,388.818,464.375z M406.65,472.196c0,0,0.212-2.098,3.486-4.45c0,0,1.675,3.229-0.123,5.725
		c0,0-0.659,1.024-1.707,0.708C408.307,474.18,405.906,474.42,406.65,472.196z"/>
	<path fill="#FFFFFF" d="M401.615,461.871c0,0,0.436,1.653-2.561,1.062c0,0-1.834-0.405-1.176-1.429
		C397.879,461.504,401.062,459.933,401.615,461.871z"/>
	<path fill="#FFFFFF" d="M396.026,462.264c0,0,0.576,1.187-1.195,1.337c0,0-1.454-0.092-0.609-1.469
		C394.222,462.132,395.41,461.178,396.026,462.264z"/>
	<path fill="#FFFFFF" d="M396.799,459.785c0,0-1.293,0.823-1.185-0.322C395.614,459.462,396.531,457.812,396.799,459.785z"/>
	<path fill="#FFFFFF" d="M400.486,473.008c0,0-0.143-1.441,0.965-0.733C401.451,472.274,401.44,472.696,400.486,473.008z"/>
	<path fill="#FFFFFF" d="M398.732,471.651c0,0-0.401,0.584-0.785-0.341c0,0,0.356-1.146,0.996-0.412
		C398.943,470.898,399.289,470.837,398.732,471.651z"/>
	<path fill="#FFFFFF" d="M401.432,470.948c0,0-1.61,0.864-1.544-0.887c0,0,0.613-1.033,1.386-0.576
		C401.273,469.485,402.211,470.292,401.432,470.948z"/>
	<path fill="#9E5227" d="M381.006,462.222c0,0-1.401,1.283-1.59,3.637c0,0-0.691,4.313-1.027,5.716c0,0-0.395,1.933-0.405,2.688
		c0,0,0.985,0.685-0.235,1.323l-0.185,0.358c0,0,0.671,0.91-0.641,1.3c0,0-1.685,0.529-2.116-0.275c0,0-0.366-0.426,0.173-0.839
		l-0.12-0.792c0,0-0.68-0.2-0.209-0.706c0,0-0.271-3.556-0.518-4.43c0,0-1.084-3.698-0.966-4.765c0,0-0.067-1.663-0.679-2.485
		c0,0-2.358-2.097-2.624-4.41c0,0-0.702-9.595-0.322-10.919c0,0,0.199-5.536,0.333-6.261c0,0-0.156-1.672,1.39-2.812
		c0,0,5.556-3.217,9.917,0.935c0,0,1.122,0.915,1.313,3.419c0,0-0.108,9.595-0.152,12.756
		C382.343,455.66,382.727,460.001,381.006,462.222z"/>
	<path fill="#472510" d="M381.251,457.411l0.055-13.171c0,0,0.324-4.748-4.038-5.564c0,0-4.951-0.787-5.627,3.42
		c0,0-1.297,9.753-0.061,14.541C371.58,456.636,374.541,460.22,381.251,457.411z"/>
</g>
<g>
	<rect x="90.233" y="988.187" fill="#F1DE8E" width="612" height="252.001"/>
	<pattern  id="SVGID_1_" xlink:href="#sdfsdf" patternTransform="matrix(1 0 0 1 -0.1133 140.0601)">
	</pattern>
	<polyline fill="url(#SVGID_1_)" stroke="#F1DE8E" stroke-miterlimit="10" points="621.553,921.758 701.918,988.17 90.418,988.18 
		170.313,922.152 	"/>
	<g>
		<pattern  id="SVGID_2_" xlink:href="#sdfsdf" patternTransform="matrix(1 0 0 1 -0.1133 140.0601)">
		</pattern>
		<path fill="url(#SVGID_2_)" d="M170.313,922.152l61.739-51.024c6.62-5.472,19.063-9.948,27.652-9.948h272.929
			c8.588,0,21.032,4.477,27.652,9.947l61.268,50.631"/>
		<path fill="none" stroke="#F1DE8E" stroke-miterlimit="10" d="M170.313,922.152l61.739-51.024
			c6.62-5.472,19.063-9.948,27.652-9.948h272.929c8.588,0,21.032,4.477,27.652,9.947l61.268,50.631"/>
	</g>
	<pattern  id="SVGID_3_" xlink:href="#sdfsdf" patternTransform="matrix(1 0 0 1 -0.1133 140.0601)">
	</pattern>
	<polygon fill="url(#SVGID_3_)" points="163.004,928.191 186.533,908.748 605.809,908.748 641.766,938.461 	"/>
	<pattern  id="SVGID_4_" xlink:href="#sdfsdf" patternTransform="matrix(1 0 0 1 -0.1133 140.0601)">
	</pattern>
	<polyline fill="url(#SVGID_4_)" points="702.691,988.185 520.691,1128.185 272.692,1128.186 90.692,988.186 	"/>
	<g>
		<path fill="#F1DE8E" d="M90.233,1240.188l136.219-129.621c5.737-5.459,16.912-9.926,24.832-9.926H542.1
			c7.92,0,19.08,4.48,24.801,9.959l135.332,129.588"/>
		<path fill="none" stroke="#8D6828" stroke-miterlimit="10" d="M90.233,1240.188l136.219-129.621
			c5.737-5.459,16.912-9.926,24.832-9.926H542.1c7.92,0,19.08,4.48,24.801,9.959l135.332,129.588"/>
	</g>
	<line fill="#F1DE8E" stroke="#8D6828" stroke-miterlimit="10" x1="90.233" y1="987.204" x2="701.918" y2="987.204"/>
</g>
<g>
	<rect x="89.009" y="74.977" fill="#F1DE8E" width="612" height="252"/>
	<line fill="#F1DE8E" stroke="#8D6828" stroke-miterlimit="10" x1="89.009" y1="326.977" x2="271.009" y2="186.977"/>
	<line fill="#F1DE8E" stroke="#8D6828" stroke-miterlimit="10" x1="701.009" y1="326.977" x2="519.009" y2="186.977"/>
	<g>
		<path fill="#472510" d="M621.486,141.004l-61.738,51.024c-6.62,5.471-19.064,9.948-27.652,9.948h-272.93
			c-8.588,0-21.032-4.476-27.652-9.947l-61.268-50.63"/>
	</g>
	<polyline fill="#472510" points="170.246,141.398 89.881,74.986 701.381,74.976 621.486,141.004 	"/>
	<polygon fill="#472510" points="628.795,134.965 605.267,154.409 185.99,154.409 150.034,124.695 	"/>
	<g>
		<path fill="#F1DE8E" d="M360.354,111.81c0.405-0.3,0.871-0.516,1.366-0.631c0.645-0.149,1.861-0.305,1.913,0.676
			c0.075,1.405-1.378,2.106-2.475,2.583c-0.371,0.161-1.329,0.542-1.759,0.36c-0.886-0.376-0.236-1.605,0.108-2.113
			C359.74,112.346,360.027,112.052,360.354,111.81z"/>
		<path fill="#F1DE8E" d="M386.429,106.192c-2.18-0.359-4.685,1.742-4.685,1.742c-1.977-0.82-3.347,0.904-3.347,0.904
			c-1.219,1.401-2.611,6.297-2.611,6.297c-0.701,2.542-1.937,2.683-1.937,2.683c-0.83,0.53-2.043,0.158-2.043,0.158
			c-0.545-0.394,0.627-1.796,0.627-1.796c1.219-1.402,1.551-2.837,1.551-2.837c0.29-1.529-0.892-2.413-0.892-2.413
			c-1.551-0.99-4.212,0.312-4.212,0.312c-1.944,0.815-2.683,3.122-2.683,3.122c-1.074,2.574-0.18,4.893-0.18,4.893l-0.629,0.63
			c-1.194,0.75-1.19-0.65-1.19-0.65c-0.302-0.712-0.126-4.205-0.126-4.205c0.046-1.213-1.001-0.691-1.001-0.691
			c-0.381,0.221-2.034,0.766-2.034,0.766c-1.274,0.375-1.419,1.769-1.419,1.769c-0.322,1.155-0.455,3.483-0.455,3.483
			c-0.767-0.728-2.648-0.331-2.648-0.331c1.146-1.964,1.109-3.506,1.109-3.506c-0.317-2.812-2.165-3.347-2.165-3.347
			c-3.498-1.295-5.386,0.549-5.386,0.549c-1.667,0.963-2.502,3.355-2.505,3.361c-0.417,1.197-1.255,2.927-2.62,3.208
			c-0.308,0.063-0.596-0.02-0.887,0.023c-2.4,0.374-3.401,4.138-2.484,6.115c1.124,2.422,3.5,1.296,3.5,1.296
			c2.817-1.765,3.113-4.739,3.113-4.739c0.23-1.16,0.872-3.375,0.872-3.375c-0.467,3.81,0.28,8.877,0.28,8.877
			c0.087,1.45-0.953,3.046-0.953,3.046c-0.592,0.912-0.185,1.207-0.185,1.207c0.297,0.85,0.755,1.054,0.755,1.054
			c1.916,1.237,4.05-0.971,4.05-0.971c1.156-0.984,1.53-3.538,1.53-3.538c1.412,0.985,2.536,0.839,2.536,0.839
			c2.388-0.192,3.303-2.212,3.303-2.212c0.935-1.319,0.718-3.053,0.718-3.053l0.97,0.316c1.982,0.68,2.706-0.881,2.706-0.881
			c0.696-0.814,1.958-4.128,1.958-4.128c2.234,1.436,4.887,0.413,4.887,0.413c2.389-0.24,3.87-2.457,3.87-2.457
			c1.16-1.062,1.704-3.172,1.704-3.172c0.266-0.877,0.868-2.021,0.868-2.021c0.625-0.491,0.631,0.582,0.631,0.582
			c-0.051,1.399-0.988,4.027-0.988,4.027c0.475-0.214,4.371-0.822,4.371-0.822c0.284-1.39,0.549-5.347,0.549-5.347
			c-0.031-0.981,0.319-1.762,0.319-1.762c0.915-0.76,1.956,0.118,1.956,0.118c0.621,0.91,1.559,0.757,1.559,0.757
			c1.969-0.208,2.37-2.246,2.37-2.246C389.11,106.899,386.429,106.192,386.429,106.192z M352.964,120.177
			c0,0-0.497-3.006-0.084-4.064c0,0,1.02-1.082,1.771,0.065c0,0,1.244,2.987-0.407,4.699
			C354.243,120.877,353.223,122.007,352.964,120.177z M356.915,125.643c0,0-1.105,0.894-1.664,0.872c0,0-0.71,0.255-1.011-0.457
			c0,0-0.535-1.932-0.96-3.115c0,0,0.515-1.194,1.714-1.478c0,0,1.889,0.022,2.624,1.591
			C357.618,123.056,357.871,125.024,356.915,125.643z M369.966,113.475c0,0,0.338-1.574,1.228-1.681c0,0,1.116,0.134,0.821,1.803
			c0,0-0.158,1.769-1.34,3.452C370.675,117.048,369.746,114.354,369.966,113.475z"/>
		<path fill="#F1DE8E" d="M408.977,107.35c-2.438-1.023-4.17,0.453-4.17,0.453c-0.788-1.429-2.374-0.179-2.374-0.179
			c-1.151,0.797-2.725,5.546-2.725,5.546c-0.432,1.571-1.599,1.574-1.599,1.574c-0.883-0.125-1.257-1.352-1.257-1.352
			c-0.282-1.224,0.901-1.694,0.901-1.694c0.521-0.215,2.3-1.596,2.3-1.596c1.017-0.99,1.306-2.473,1.306-2.473
			c0.354-1.993-2.58-2.243-2.58-2.243c-2.467-0.184-4.345,2.688-4.345,2.688c0.364-1.06,0.535-5.674,0.535-5.674
			c-1.783,0.261-4.567-0.168-4.567-0.168l-1.368,7.979c-0.335,4.048-2.205,6.685-2.205,6.685c1.792-0.494,4.67-0.061,4.67-0.061
			c0.312-0.875,1.11-3.552,1.11-3.552c0.045,2.569,1.858,4.035,1.858,4.035c3.726,1.492,5.747-1.469,5.747-1.469
			c0.927-1.085,1.488-4.892,1.488-4.892c0.237-1.392,1.185-1.777,1.185-1.777c0.88,0.172,0.869,1.758,0.869,1.758
			c-0.04,1.119-1.611,5.728-1.611,5.728c0.637,0.49,5.081,1.448,5.081,1.448c0.012-1.586-0.546-5.48-0.546-5.48
			c-0.376-1.181,0.323-2.416,0.323-2.416c0.861-0.575,0.952,0.735,0.952,0.735c0.143,1.219,1.118,1.348,1.118,1.348
			c2.278,0.223,2.595-2.005,2.595-2.005C411.872,108.577,408.977,107.35,408.977,107.35z M396.204,110.707
			c0,0-1.647,1.62-3.099,1.753c0,0,0.353-1.948,2.045-3.566c0,0,1.067-1.081,1.688-0.217
			C396.839,108.677,397.264,109.812,396.204,110.707z"/>
		<path fill="#F1DE8E" d="M434.249,114.347c-3.195-0.677-8.526,4.681-8.526,4.681l-1.821-1.28l-0.867,0.761l1.367,0.891
			c1.052,0.599-0.042,1.119-0.042,1.119l-2.352,1.826c-2.681,0.508-2.228-1.668-2.228-1.668c0.14-1.256,2.844-3.676,2.844-3.676
			c-0.72-0.773-2.986-2.583-2.986-2.583l-1.245,0.84c-0.651-2.591-4.505-3.153-4.505-3.153c-2.146,0.014-4.053,2.324-4.053,2.324
			c-1.457,3.152,0.394,4.542,0.394,4.542c2.819,2.016,6.362,0.887,6.362,0.887c0.049,3.736,4.395,3.616,4.395,3.616l-3.013,1.942
			c0.364,0.247,5.174,2.712,5.174,2.712l4.424-4.786c0.589-0.771,1.498-0.083,1.498-0.083c0.311,0.384,0.992,0.922,0.992,0.922
			l0.783-0.999l-1.86-1.467c0.359-0.874,1.514-1.812,1.514-1.812c1.805-0.82,2.322,0.319,2.322,0.319
			c0.497,1.697,2.044,1.522,2.044,1.522c3.134-0.212,3.312-2.471,3.312-2.471C438.667,114.786,434.249,114.347,434.249,114.347z
			 M416.46,117.053c0,0-1.427,2.001-3.432,1.928c0,0-1.154-0.323-0.306-1.832c0,0,1.799-1.94,3.076-2.453
			c0,0,1.278-0.468,1.493,0.054C417.292,114.75,417.333,116.153,416.46,117.053z"/>
		<path fill="#F1DE8E" d="M433.601,124.359l4.286-2.363c0,0,4.036,3.228,4.731,3.395l-5.521,2.83l1.303,1.403l-0.82,0.716
			l-1.587-1.226c0,0-0.501-0.345-0.839-0.031c0,0-2.34,1.407-1.833,2.873c0,0,0.335,1.039,2.86,0.899l0.119,0.564
			c0,0-2.729,1.813-5.001,0.189c0,0-2.747-1.455-1.972-4.74c0,0,0.927-2.347,2.845-3.769l-1.129-1.021l0.91-0.667L433.601,124.359z"
			/>
	</g>
	<path fill="#DBA951" d="M363.213,147.299c0,0,1.402-1.284,1.59-3.638c0,0,0.692-4.313,1.027-5.715c0,0,0.394-1.934,0.406-2.688
		c0,0-0.985-0.685,0.235-1.323l0.184-0.357c0,0-0.67-0.91,0.64-1.3c0,0,1.686-0.53,2.118,0.274c0,0,0.365,0.426-0.174,0.839
		l0.119,0.792c0,0,0.68,0.201,0.21,0.707c0,0,0.272,3.556,0.518,4.429c0,0,1.084,3.698,0.966,4.766c0,0,0.068,1.663,0.678,2.486
		c0,0,2.36,2.095,2.625,4.41c0,0,0.702,9.593,0.321,10.919c0,0-0.198,5.537-0.331,6.26c0,0,0.156,1.672-1.392,2.813
		c0,0-5.554,3.217-9.916-0.935c0,0-1.121-0.916-1.312-3.42c0,0,0.107-9.594,0.151-12.754
		C361.876,153.861,361.492,149.52,363.213,147.299z"/>
	<path fill="#A97034" d="M402.492,144.044c-0.91-2.398-3.5-4.104-3.5-4.104c-0.561-0.434-3.419-3.332-3.419-3.332
		c-0.971-0.93-1.068-1.974-1.068-1.974c-1.115-3.288-0.692-4.881-0.692-4.881c0.671-1.195-0.17-1.211-0.17-1.211
		c0.529-1.336-0.488-2.183-0.488-2.183c-1.468-0.724-4.382-0.515-4.382-0.515c-2.748,0.807-2.041,2.514-2.041,2.514
		c-0.795,0.497-0.619,1.924-0.619,1.924c-0.365,2.735-4.028,1.339-4.028,1.339c-2.346-0.028-2.833,2.008-2.833,2.008l-1.081,2.616
		c-1.189,3.161,0.728,7.365,0.728,7.365c-1.074,1.614-1.563,6.289-1.563,6.289l0.893,11.994c-0.139,5.893,2.601,7.673,2.601,7.673
		c8.631,6.338,18.192-0.547,18.192-0.547c3.113-2.543,3.049-7.918,3.049-7.918l1.309-11.311
		C403.837,146.682,402.492,144.044,402.492,144.044z M384.66,136.223c0,0-0.212,2.098-3.486,4.45c0,0-1.675-3.229,0.123-5.725
		c0,0,0.659-1.024,1.707-0.708C383.004,134.239,385.404,134,384.66,136.223z"/>
	<path fill="#FFFFFF" d="M389.695,146.549c0,0-0.436-1.653,2.561-1.062c0,0,1.834,0.405,1.176,1.429
		C393.432,146.915,390.249,148.487,389.695,146.549z"/>
	<path fill="#FFFFFF" d="M395.284,146.155c0,0-0.576-1.187,1.195-1.337c0,0,1.454,0.092,0.609,1.469
		C397.089,146.287,395.9,147.242,395.284,146.155z"/>
	<path fill="#FFFFFF" d="M394.512,148.635c0,0,1.293-0.823,1.185,0.323C395.696,148.958,394.779,150.607,394.512,148.635z"/>
	<path fill="#FFFFFF" d="M390.824,135.412c0,0,0.143,1.441-0.965,0.733C389.859,136.145,389.87,135.724,390.824,135.412z"/>
	<path fill="#FFFFFF" d="M392.578,136.768c0,0,0.401-0.584,0.785,0.341c0,0-0.356,1.146-0.996,0.412
		C392.367,137.521,392.021,137.582,392.578,136.768z"/>
	<path fill="#FFFFFF" d="M389.879,137.471c0,0,1.61-0.864,1.544,0.887c0,0-0.613,1.033-1.386,0.576
		C390.037,138.934,389.1,138.127,389.879,137.471z"/>
	<path fill="#9E5227" d="M410.305,146.198c0,0,1.401-1.283,1.59-3.637c0,0,0.691-4.313,1.027-5.716c0,0,0.395-1.933,0.405-2.688
		c0,0-0.985-0.685,0.235-1.323l0.185-0.358c0,0-0.671-0.91,0.641-1.3c0,0,1.685-0.529,2.116,0.275c0,0,0.366,0.426-0.173,0.839
		l0.12,0.792c0,0,0.68,0.2,0.209,0.706c0,0,0.271,3.556,0.518,4.43c0,0,1.084,3.698,0.966,4.765c0,0,0.067,1.663,0.679,2.485
		c0,0,2.358,2.097,2.624,4.41c0,0,0.702,9.595,0.322,10.919c0,0-0.199,5.537-0.333,6.26c0,0,0.156,1.672-1.39,2.813
		c0,0-5.556,3.217-9.917-0.935c0,0-1.122-0.916-1.313-3.419c0,0,0.108-9.594,0.152-12.755
		C408.968,152.76,408.584,148.418,410.305,146.198z"/>
	<path fill="#472510" d="M410.06,151.009l-0.055,13.17c0,0-0.324,4.749,4.038,5.565c0,0,4.951,0.787,5.627-3.42
		c0,0,1.297-9.753,0.061-14.542C419.73,151.783,416.77,148.199,410.06,151.009z"/>
</g>
</svg>
