<?xml version="1.0" encoding="utf-8"?>
<!-- Generator: Adobe Illustrator 15.0.0, SVG Export Plug-In . SVG Version: 6.00 Build 0)  -->
<!DOCTYPE svg PUBLIC "-//W3C//DTD SVG 1.1//EN" "http://www.w3.org/Graphics/SVG/1.1/DTD/svg11.dtd">
<svg version="1.1" id="Layer_1" xmlns="http://www.w3.org/2000/svg" xmlns:xlink="http://www.w3.org/1999/xlink" x="0px" y="0px"
	 width="1310px" height="792px" viewBox="0 0 1310 792" enable-background="new 0 0 1310 792" xml:space="preserve">
<rect x="0.001" fill="#FFFFFF" width="1310" height="792"/>
<g>
	<path fill="#231F20" d="M1156.92,337.696l19.533-19.525l-0.001-3.565h39.97c0.658,0,1.236-0.122,1.743-0.33v20.921l-44.218,44.219
		h-65.41l-12.863-12.843v-15.793l13.083-13.082L1156.92,337.696L1156.92,337.696z"/>
	<path fill="#231F20" d="M1205.301,238.283h-69.213l-40.414,40.413v27.361c0.508-0.208,1.086-0.33,1.743-0.33h39.972l0.005-9.384
		l16.18-16.547l51.729-0.229l12.863-12.864v-15.792L1205.301,238.283z"/>
	<polygon fill="#231F20" points="1201.121,296.439 1095.674,296.439 1095.674,305.434 1111.688,321.448 1218.133,321.448 
		1218.133,313.451 	"/>
	
		<rect x="1129.51" y="290.221" transform="matrix(0.7071 0.7071 -0.7071 0.7071 546.2185 -722.323)" fill="#231F20" width="31.067" height="15.944"/>
	
		<rect x="1153.616" y="312.361" transform="matrix(0.7071 0.7071 -0.7071 0.7071 568.9444 -732.8901)" fill="#231F20" width="31.066" height="15.942"/>
	<rect x="1132.332" y="276.119" fill="#231F20" width="15.941" height="31.066"/>
	<rect x="1163.398" y="310.613" fill="#231F20" width="15.94" height="31.066"/>
</g>
<g>
	<polygon fill="#231F20" points="146.054,544.072 133.183,556.342 118.538,556.342 104.335,541.869 104.335,428.992 
		118.981,415.211 133.183,415.211 146.054,428.068 	"/>
	<polygon fill="#231F20" points="120.313,415.076 76.363,415.076 63.506,427.945 63.506,442.148 77.289,456.793 120.313,456.793 	
		"/>
	<polygon fill="#231F20" points="173.71,415.076 110.532,415.076 110.532,456.793 171.507,456.793 185.979,442.592 185.979,427.945 
			"/>
</g>
<polygon fill="#231F20" points="287.801,554.809 220.187,554.809 193.13,526.629 192.669,427.295 205.54,414.438 219.743,414.438 
	234.388,428.221 234.388,506.031 241.071,512.27 267.828,512.449 273.443,506.031 273.904,429.039 288.55,415.256 302.752,415.256 
	315.622,428.113 315.622,525.625 "/>
<g>
	<polygon fill="#231F20" points="388.057,556.688 367.659,556.688 319.177,507.785 319.177,429.338 333.822,415.557 
		348.023,415.557 360.895,428.412 360.895,490.504 378.067,507.678 399.949,486.121 399.949,428.646 414.595,414.863 
		428.797,414.863 441.667,427.721 441.667,503.775 	"/>
	<rect x="361.782" y="497.934" fill="#231F20" width="32.149" height="11.447"/>
</g>
<polygon fill="#231F20" points="708.25,462.119 748.973,503.609 748.973,543.84 763.175,558.312 777.82,558.312 790.691,546.045 
	790.691,500.695 831.52,458.887 831.52,430.084 818.648,417.229 804.447,417.229 789.801,431.01 789.801,442.361 768.646,463.518 
	749.968,444.84 749.968,430.299 737.098,417.443 722.896,417.443 708.25,431.225 "/>
<polygon fill="#231F20" points="943.307,558.355 853.938,558.369 835.172,539.602 835.363,518.727 894.754,458.941 849.07,458.891 
	835.288,444.244 835.288,430.043 848.145,417.172 938.061,417.172 957.479,437.047 957.779,455.092 896.475,516.592 945.51,516.637 
	957.779,529.508 957.779,544.152 "/>
<g>
	<path fill="#231F20" d="M1062.459,236.334h-82.111l-16.861,16.862v109.799l14.472,14.471h13.477l13.921-13.92v-44.445h55.535
		l25.088-25.24v-34.52L1062.459,236.334z M1044.41,288.684l-6.228,5.711l-32.534-0.09v-16.569l32.534,0.317l6.228,5.601V288.684z"/>
	<path fill="#231F20" d="M1048.196,312.127c-0.598,0.332-1.315,0.529-2.163,0.529h-56.305l65.189,65.19l20.276,0.191l10.354-10.356
		l0.426-17.775L1048.196,312.127z"/>
</g>
<g>
	<path fill="#231F20" d="M687.971,415.836H673.77l-14.646,13.783v11.35l-21.155,21.156l-18.678-18.678v-14.539l-12.87-12.857
		h-14.202l-14.646,13.783v30.893l33.891,34.529c0.673-0.514,1.55-0.832,2.632-0.832h50.684l36.063-36.928v-28.803L687.971,415.836z"
		/>
	<path fill="#231F20" d="M661.678,475.16c-0.625,0.389-1.395,0.621-2.313,0.625c-15.368,0.049-30.692,1.205-45.981-0.24
		l-35.81,36.486v30.893l14.646,13.783h14.202l12.87-12.857v-14.539l18.678-18.678l21.155,21.156v11.35l14.646,13.783h14.201
		l12.871-12.856v-28.802L661.678,475.16z"/>
</g>
<polygon fill="#231F20" points="476.863,555.188 462.218,555.188 448.016,540.717 448.016,427.84 462.661,414.057 476.863,414.057 
	489.733,426.914 489.733,466.201 500.496,455.438 520.412,455.438 529.646,464.672 529.646,427.84 544.292,414.057 558.494,414.057 
	571.364,426.914 571.364,542.92 558.494,555.188 543.849,555.188 529.646,540.717 529.232,522.934 511.389,505.09 489.733,526.744 
	489.733,542.92 "/>
<g>
	<polygon fill="#231F20" points="92.879,202.146 77.9,202.146 63.429,187.675 63.429,103.055 105.469,61.016 144.203,61.016 
		185.92,101.847 185.92,190.33 174.103,202.146 154.853,202.147 144.202,191.496 144.203,102.734 105.146,102.439 105.147,189.878 	
		"/>
	<rect x="85.619" y="119.077" fill="#231F20" width="68.938" height="25.01"/>
	
		<rect x="121.42" y="82.171" transform="matrix(0.7071 0.7071 -0.7071 0.7071 111.9969 -75.8644)" fill="#231F20" width="52.309" height="30.178"/>
	
		<rect x="78.993" y="79.209" transform="matrix(0.7071 -0.7071 0.7071 0.7071 -35.882 101.9712)" fill="#231F20" width="52.31" height="30.179"/>
</g>
<path fill="#231F20" d="M313.432,84.022l-23.007-23.007h-82.622L190.94,77.878v109.797l14.473,14.472h80.658l27.36-27.36v-26.265
	l-14.464-14.463l14.464-14.464L313.432,84.022L313.432,84.022z M271.418,154.215l-5.926,6.212h-32.833v-16.341h33.408l5.352,5.351
	L271.418,154.215L271.418,154.215z M271.565,112.862l-5.926,6.213h-32.833v-16.342h33.408l5.352,5.351L271.565,112.862
	L271.565,112.862z"/>
<polygon fill="#231F20" points="428.985,202.147 363.576,202.147 319.358,157.929 319.358,101.43 359.772,61.017 428.985,61.017 
	441.849,73.646 441.849,89.438 428.985,102.302 377.256,102.53 361.076,119.078 361.07,140.905 380.604,160.43 428.766,160.43 
	441.849,173.511 441.849,189.305 "/>
<g>
	<polygon fill="#231F20" points="459.716,202.147 525.126,202.147 569.344,157.929 569.344,101.43 528.93,61.017 459.716,61.017 
		446.854,73.646 446.854,89.438 459.716,102.302 511.446,102.53 527.626,119.078 527.632,140.905 508.099,160.43 459.936,160.43 
		446.854,173.511 446.854,189.305 	"/>
	<rect x="446.854" y="75.218" fill="#231F20" width="42.013" height="107.697"/>
</g>
<g>
	<polygon fill="#231F20" points="641.581,160.403 615.542,160.403 615.542,144.06 641.581,144.06 641.581,119.049 615.689,119.049 
		615.689,102.708 641.581,102.708 641.581,60.99 590.688,60.99 573.824,77.852 573.824,187.65 588.297,202.121 641.581,202.121 	"/>
	<polygon fill="#231F20" points="682.561,60.99 633.626,60.99 633.626,102.492 682.561,102.276 695.424,89.413 695.424,73.619 	"/>
	<polygon fill="#231F20" points="634.179,160.403 633.626,159.851 633.626,202.121 682.561,202.121 695.424,189.278 
		695.424,173.486 682.342,160.403 	"/>
	<polygon fill="#231F20" points="640.693,119.049 646.275,119.049 653.709,126.483 653.709,135.848 645.497,144.06 640.693,144.06 	
		"/>
</g>
<polygon fill="#231F20" points="714.591,202.147 729.114,202.147 741.837,188.859 741.837,144.086 771.791,144.086 780.003,135.875 
	780.003,126.509 772.569,119.076 741.984,119.076 741.984,102.734 808.855,102.303 821.719,89.439 821.719,73.646 808.855,61.017 
	716.981,61.017 700.119,77.878 700.119,187.677 "/>
<polygon fill="#231F20" points="977.301,202.147 962.655,202.147 948.454,187.675 948.454,74.798 963.1,61.016 977.301,61.016 
	990.172,73.873 990.172,119.077 1029.227,119.077 1029.227,73.799 1042.011,61.016 1057.188,61.016 1070.944,74.206 
	1070.944,190.33 1059.127,202.146 1039.877,202.147 1029.227,191.496 1029.227,144.086 990.172,144.086 990.172,189.878 "/>
<polygon fill="#231F20" points="931.347,202.147 865.938,202.147 821.719,157.928 821.719,101.429 862.133,61.016 931.347,61.016 
	944.21,73.645 944.21,89.438 930.609,102.832 879.616,102.53 863.438,119.077 863.431,140.904 882.964,160.429 901.762,160.429 
	901.762,144.184 879.193,144.199 870.98,135.986 870.98,126.621 878.415,119.188 930.609,119.188 944.21,132.322 944.21,189.305 "/>
<polygon fill="#231F20" points="1119.257,189.876 1106.386,202.145 1091.741,202.145 1077.539,187.672 1077.539,74.796 
	1092.186,61.014 1106.386,61.014 1119.257,73.871 "/>
<polygon fill="#231F20" points="1138.76,202.145 1125.896,189.302 1125.896,173.509 1138.979,160.427 1187.142,160.427 
	1207.134,140.438 1207.134,74.796 1221.778,61.014 1235.98,61.014 1248.851,73.871 1248.388,157.926 1204.169,202.145 "/>
<g>
	<polygon fill="#231F20" points="105.583,367.779 92.713,380.048 78.067,380.048 63.865,365.576 63.865,252.7 78.511,238.917 
		92.713,238.917 105.583,251.774 	"/>
	<polygon fill="#231F20" points="104.579,350.314 86.803,349.89 76.446,339.533 76.637,319.259 156.453,239.442 176.555,240.053 
		186.597,250.096 186.607,268.287 	"/>
	<path fill="#231F20" d="M132.396,297.955c-3.935,2.785-8.774,4.285-13.526,5.897c3.254,6.528,6.389,13.104,8.746,19.97
		c1.333,3.883-3.3,6.732-6.52,5.012c-3.972-2.123-7.171-6.132-9.941-9.572c-2.093-2.599-4.109-5.267-6.027-8.005
		c-0.213,0.221-0.438,0.428-0.642,0.663c-2.871,3.311-4.921,6.846-7.585,9.539l58.398,58.398l20.276,0.19l10.355-10.355
		l0.427-17.775L132.396,297.955z"/>
</g>
<polygon fill="#231F20" points="206.424,378.699 192.517,364.483 192.968,250.425 205.839,237.568 220.041,237.568 234.687,251.351 
	234.687,336.968 302.84,336.981 315.923,350.062 315.923,365.856 303.06,378.699 "/>
<g>
	<polygon fill="#231F20" points="494.595,366.177 481.725,378.446 467.079,378.446 452.877,363.974 452.877,251.098 
		467.521,237.315 481.725,237.315 494.595,250.172 	"/>
	<path fill="#231F20" d="M488.395,244.052c-0.248,16.575-5.957,32.238-11.061,47.938l56.934,56.935l20.275,0.191l10.356-10.357
		l0.425-17.775L488.395,244.052z"/>
	<polygon fill="#231F20" points="575.368,366.177 562.497,378.446 547.852,378.446 533.649,363.974 533.649,251.098 
		548.296,237.315 562.497,237.315 575.368,250.172 	"/>
</g>
<path fill="#231F20" d="M1048.253,418.363h-40.926l-40.414,40.412v56.498l44.218,44.221h33.318l44.218-44.248v-56.471
	L1048.253,418.363z M1047.686,504.156l-13.906,13.901h-12.426l-13.019-13.02v-32.254l13.019-13.021h12.426l13.906,14.5V504.156z"/>
<g>
	<path fill="#231F20" d="M936.135,329.45c-3.502,4.117-7.865,7.555-12.429,10.685c-6.888,4.727-14.921,9.028-20.202,15.683
		L926,378.312l20.273,0.189l10.356-10.355l0.425-17.775L936.135,329.45z"/>
	<path fill="#231F20" d="M916.641,237.372h-40.925l-40.415,40.412v56.499l44.219,44.22h33.318l44.218-44.247v-56.472
		L916.641,237.372z M916.074,323.166l-13.906,13.901h-12.426l-13.02-13.021v-32.254l13.02-13.02h12.426l13.906,14.5V323.166z"/>
	<path fill="#231F20" d="M906.751,359.68c3.502-4.114,7.865-7.553,12.429-10.684c6.888-4.728,14.922-9.027,20.201-15.684
		l-22.495-22.495l-20.273-0.19l-10.357,10.356l-0.424,17.774L906.751,359.68z"/>
</g>
<path fill="#231F20" d="M805.742,238.922h-82.111l-16.862,16.862v109.798l14.474,14.472h13.476l13.921-13.92v-44.444h55.535
	l25.087-25.241v-34.519L805.742,238.922z M787.693,291.272l-6.228,5.71l-32.536-0.089v-16.57l32.536,0.317l6.228,5.602V291.272z"/>
<polygon fill="#231F20" points="353.095,378.471 338.449,378.471 324.247,363.999 324.247,251.122 338.893,237.34 353.095,237.34 
	385.188,269.897 419.029,237.34 433.23,237.34 446.102,250.197 446.102,366.203 433.23,378.471 418.586,378.471 404.384,363.999 
	404.383,309.828 393.737,320.475 376.64,320.475 365.965,309.673 365.965,366.203 "/>
<polygon fill="#231F20" stroke="#FFFFFF" stroke-miterlimit="10" points="1099.197,473.777 1099.195,453.5 1136.739,417.457 
	1150.941,417.457 1163.812,430.312 1163.812,546.318 1150.941,558.588 1136.295,558.588 1122.094,544.115 1122.094,484.432 
	1110.138,484.559 "/>
<path fill="#231F20" d="M671.277,236.041l-59.272-0.026l-31.888,31.909v79.047l31.688,30.816h59.472l31.768-30.816V267.4
	L671.277,236.041z M661.938,327.658l-6.551,6.549h-27.69l-4.619-4.619v-46.229l4.358-4.358h27.951l6.551,6.288V327.658z"/>
<polygon fill="#231F20" points="125.301,673.305 173.965,673.305 186.735,660.535 186.735,639.984 186.768,622.293 156.28,589.861 
	78.027,589.861 63.868,604.48 63.868,618.662 77.829,632.82 140.459,632.82 145.05,637.412 145.05,641.795 139.663,647.182 
	100.629,647.182 90.27,647.182 63.868,673.584 63.868,717.25 78.159,730.986 174.559,730.986 186.768,718.777 186.768,699.938 
	174.858,688.027 111.543,688.027 106.827,683.311 106.827,677.354 110.875,673.305 "/>
<polygon fill="#231F20" points="207.795,632.715 193.833,618.555 193.833,604.375 207.992,589.756 286.245,589.756 316.734,622.188 
	316.701,647.42 303.421,659.785 316.701,672.945 316.734,698.18 286.245,730.611 207.992,730.611 193.833,715.992 193.833,701.811 
	207.795,687.652 270.425,687.652 275.017,683.061 275.017,678.678 269.628,673.291 245.184,673.197 236.792,664.807 
	236.792,654.086 243.71,647.168 269.103,647.168 275.017,641.688 275.017,637.307 270.425,632.715 "/>
<polygon fill="#231F20" points="340.059,672.971 325.832,659.879 325.832,603.4 340.478,589.619 354.68,589.619 367.55,602.475 
	367.55,646.787 406.662,646.787 406.662,603.4 421.308,589.617 435.51,589.617 448.38,602.475 448.38,718.48 435.51,730.748 
	420.864,730.748 406.662,716.277 406.662,673.057 "/>
<polygon fill="#231F20" points="471.658,589.859 567.324,590.238 579.593,603.109 579.593,617.754 565.121,631.957 500.039,631.957 
	500.062,647.555 555.095,647.555 579.98,673.295 579.98,707.879 556.849,731.01 470.229,731.01 457.08,717.863 457.08,699.627 
	468.655,688.051 533.644,688.104 538.263,684.373 538.263,678 533.558,673.295 469.473,673.295 457.433,661.254 457.433,603.725 "/>
<polygon fill="#231F20" points="761.097,730.477 743.321,730.053 732.965,719.695 733.156,699.42 800.804,631.773 746.892,631.123 
	733.109,616.477 733.109,602.275 745.966,589.404 835.882,589.404 855.301,609.279 855.301,635.781 "/>
<path fill="#231F20" d="M994.438,612.275l-23.131-23.134l-78.961,1.033l-20.874,22.101v34.584l12.647,13.082l-12.647,13.08v34.584
	l23.132,23.133h76.703l23.131-23.133v-34.584l-12.646-13.08l12.646-13.082V612.275z M952.61,683.115l-5.324,4.705h-29.502
	l-4.705-4.705v-6.373l4.619-3.73l30.321,0.023l4.591,3.707V683.115L952.61,683.115z M952.721,642.154l-5.322,4.705h-29.502
	l-4.705-4.705v-6.373l4.619-3.73l30.321,0.023l4.589,3.707V642.154z"/>
<g>
	<path fill="#231F20" d="M688.847,647.059l-55.013,0.322l-0.042-15.918h8.088h56.994l14.472-14.203v-14.645l-12.269-12.871
		l-70.83-0.379l-39.062,39.061v72.728l29.292,29.338l70.124,0.024l23.133-23.131v-34.584L688.847,647.059z M672.016,683.879
		l-4.619,3.73h-30.47l-3.135-3.136l-0.473-7.034l4.582-4.58l29.408-0.06l4.705,4.705L672.016,683.879L672.016,683.879z"/>
	<polygon fill="#231F20" points="632.896,640.445 624.958,637.617 624.958,619.422 648.864,619.422 641.88,631.463 	"/>
</g>
<g>
	<path fill="#231F20" d="M1035.396,672.822l55.013-0.322l0.043,15.92h-8.088h-56.994l-14.474,14.201v14.646l12.271,12.869
		l70.83,0.381l39.062-39.062v-72.728l-29.293-29.336l-70.123-0.026l-23.132,23.133v34.584L1035.396,672.822z M1052.229,636.004
		l4.619-3.729h30.471l3.135,3.135l0.472,7.033l-4.582,4.582l-29.407,0.059l-4.705-4.705v-6.374H1052.229z"/>
	<polygon fill="#231F20" points="1091.348,679.438 1099.286,682.264 1099.286,700.461 1075.38,700.461 1082.364,688.42 	"/>
</g>
</svg>
