<?xml version="1.0" encoding="utf-8"?>
<!-- Generator: Adobe Illustrator 15.0.0, SVG Export Plug-In . SVG Version: 6.00 Build 0)  -->
<!DOCTYPE svg PUBLIC "-//W3C//DTD SVG 1.1//EN" "http://www.w3.org/Graphics/SVG/1.1/DTD/svg11.dtd">
<svg version="1.1" id="Layer_1" xmlns="http://www.w3.org/2000/svg" xmlns:xlink="http://www.w3.org/1999/xlink" x="0px" y="0px"
	 width="1310px" height="792px" viewBox="0 0 1310 792" enable-background="new 0 0 1310 792" xml:space="preserve">
<rect fill="#FFFFFF" width="1310" height="792"/>
<g>
	<polygon fill="#231F20" points="88.789,205.711 71.602,205.711 55.004,189.11 55.004,92.04 103.229,43.816 147.661,43.816 
		195.516,90.654 195.516,192.154 181.961,205.711 159.881,205.711 147.661,193.493 147.661,91.671 102.863,91.333 102.863,191.637 	
		"/>
	<rect x="80.457" y="110.419" fill="#231F20" width="79.08" height="28.688"/>
	
		<rect x="121.533" y="68.08" transform="matrix(0.7071 0.7071 -0.7071 0.7071 104.7639 -82.1426)" fill="#231F20" width="60.007" height="34.62"/>
	
		<rect x="72.859" y="64.681" transform="matrix(0.7071 -0.7071 0.7071 0.7071 -27.8493 96.7488)" fill="#231F20" width="60.004" height="34.62"/>
</g>
<polyline fill="none" stroke="#FFFFFF" stroke-width="8.5117" stroke-miterlimit="10" points="70.549,185.171 70.549,168.1 
	70.549,94.113 105.578,59.086 144.286,59.086 180.242,95.044 180.242,150.789 180.242,168.1 180.242,185.171 "/>
<polyline fill="none" stroke="#FFFFFF" stroke-width="8.5117" stroke-miterlimit="10" points="98.436,91.671 113.028,77.079 
	136.832,77.079 151.426,91.671 "/>
<polyline fill="none" stroke="#FFFFFF" stroke-width="8.5117" stroke-miterlimit="10" points="88.539,185.171 88.539,170.138 
	88.539,152.957 "/>
<circle fill="#FFFFFF" cx="180.461" cy="189.117" r="5.234"/>
<circle fill="#FFFFFF" cx="70.424" cy="189.117" r="5.234"/>
<circle fill="#FFFFFF" cx="162.251" cy="189.515" r="5.233"/>
<circle fill="#FFFFFF" cx="88.538" cy="189.386" r="5.233"/>
<circle fill="#FFFFFF" cx="88.538" cy="148.414" r="5.233"/>
<circle fill="#FFFFFF" cx="162.03" cy="148.415" r="5.234"/>
<circle fill="#FFFFFF" cx="153.785" cy="94.786" r="5.235"/>
<circle fill="#FFFFFF" cx="95.251" cy="94.791" r="5.233"/>
<line fill="none" stroke="#FFFFFF" stroke-width="8.5117" stroke-miterlimit="10" x1="88.539" y1="124.763" x2="162.251" y2="124.763"/>
<circle fill="#FFFFFF" cx="166.247" cy="124.763" r="5.233"/>
<path fill="#FFFFFF" d="M79.093,125.082c0,2.89,2.34,5.234,5.233,5.234c2.888,0,5.232-2.344,5.232-5.234
	c0-2.891-2.345-5.234-5.232-5.234C81.433,119.847,79.093,122.19,79.093,125.082z"/>
<polyline fill="none" stroke="#FFFFFF" stroke-width="8.5117" stroke-miterlimit="10" points="162.031,184.986 162.031,169.954 
	162.031,152.771 "/>
<path fill="#231F20" d="M345.199,70.208l-26.391-26.392h-94.779l-19.344,19.343V189.11l16.604,16.601h92.525l31.385-31.385v-30.129
	l-16.591-16.591l16.591-16.591V70.208L345.199,70.208z M297.006,150.728l-6.799,7.125h-37.662v-18.746h38.322l6.139,6.137V150.728z
	 M297.174,103.291l-6.798,7.127h-37.661V91.671h38.319l6.14,6.138V103.291z"/>
<polyline fill="none" stroke="#FFFFFF" stroke-width="8.5117" stroke-miterlimit="10" points="330.398,156.43 330.398,171.703 
	311.268,189.695 238.382,189.695 220.393,171.703 220.393,78.413 238.697,59.84 311.521,59.84 330.398,77.831 330.398,93.104 "/>
<path fill="#FFFFFF" d="M325.164,98.211c0,2.89,2.34,5.232,5.234,5.232c2.889,0,5.232-2.343,5.232-5.232
	c0-2.892-2.344-5.235-5.232-5.235C327.504,92.976,325.164,95.319,325.164,98.211z"/>
<path fill="#FFFFFF" d="M325.164,151.069c0,2.892,2.34,5.236,5.234,5.236c2.889,0,5.232-2.344,5.232-5.236
	c0-2.891-2.344-5.234-5.232-5.234C327.504,145.835,325.164,148.179,325.164,151.069z"/>
<polyline fill="none" stroke="#FFFFFF" stroke-width="8.5117" stroke-miterlimit="10" points="312.406,149.912 312.406,160.38 
	297.438,175.782 252.592,175.782 237.322,160.509 237.322,149.912 "/>
<polyline fill="none" stroke="#FFFFFF" stroke-width="8.5117" stroke-miterlimit="10" points="312.033,102.846 312.033,88.9 
	297.814,73.754 253.966,73.754 238.697,89.026 238.697,102.846 "/>
<circle fill="#FFFFFF" cx="312.406" cy="107.951" r="5.235"/>
<circle fill="#FFFFFF" cx="312.406" cy="145.57" r="5.235"/>
<path fill="#FFFFFF" d="M233.457,107.824c0,2.892,2.346,5.236,5.24,5.236c2.891,0,5.234-2.344,5.234-5.236
	c0-2.891-2.344-5.234-5.234-5.234C235.803,102.59,233.457,104.933,233.457,107.824z"/>
<circle fill="#FFFFFF" cx="237.321" cy="145.57" r="5.235"/>
<line fill="none" stroke="#FFFFFF" stroke-width="8.5117" stroke-miterlimit="10" x1="238.65" y1="126.642" x2="312.359" y2="126.642"/>
<path fill="#FFFFFF" d="M311.123,126.642c0,2.891,2.34,5.234,5.234,5.234c2.891,0,5.232-2.343,5.232-5.234
	c0-2.893-2.342-5.234-5.232-5.234C313.463,121.407,311.123,123.749,311.123,126.642z"/>
<circle fill="#FFFFFF" cx="234.434" cy="126.959" r="5.232"/>
<polygon fill="#231F20" points="480.73,206.028 405.695,206.028 354.973,155.303 354.973,90.492 401.336,44.134 480.73,44.134 
	495.482,58.623 495.482,76.737 480.73,91.494 421.391,91.755 402.832,110.735 402.822,135.774 425.229,158.172 480.475,158.172 
	495.482,173.179 495.482,191.296 "/>
<polyline fill="none" stroke="#FFFFFF" stroke-width="8.5117" stroke-miterlimit="10" points="471.768,60.402 462.316,60.402 
	403.773,60.402 370.68,93.492 370.68,155.096 404.25,189.713 462.316,189.713 471.768,189.713 "/>
<polyline fill="none" stroke="#FFFFFF" stroke-width="8.5117" stroke-miterlimit="10" points="462.316,172.022 420.098,172.022 
	404.25,156.176 "/>
<line fill="none" stroke="#FFFFFF" stroke-width="8.5117" stroke-miterlimit="10" x1="384.902" y1="140.904" x2="384.902" y2="108.024"/>
<polyline fill="none" stroke="#FFFFFF" stroke-width="8.5117" stroke-miterlimit="10" points="403.582,93.42 418.857,78.149 
	462.316,78.149 "/>
<path fill="#FFFFFF" d="M461.299,172.022c0,2.89,2.34,5.235,5.229,5.235c2.895,0,5.239-2.345,5.239-5.235
	c0-2.893-2.346-5.234-5.239-5.234C463.639,166.789,461.299,169.13,461.299,172.022z"/>
<path fill="#FFFFFF" d="M461.299,78.149c0,2.891,2.34,5.234,5.229,5.234c2.895,0,5.239-2.344,5.239-5.234
	c0-2.892-2.346-5.235-5.239-5.235C463.639,72.914,461.299,75.258,461.299,78.149z"/>
<path fill="#FFFFFF" d="M470.748,190.406c0,2.89,2.34,5.233,5.232,5.233c2.891,0,5.233-2.344,5.233-5.233
	c0-2.894-2.344-5.235-5.233-5.235C473.088,185.171,470.748,187.513,470.748,190.406z"/>
<circle fill="#FFFFFF" cx="475.041" cy="60.402" r="5.234"/>
<circle fill="#FFFFFF" cx="401.542" cy="153.649" r="5.234"/>
<path fill="#FFFFFF" d="M396.168,94.791c0,2.891,2.346,5.234,5.234,5.234c2.893,0,5.237-2.343,5.237-5.234
	c0-2.892-2.346-5.234-5.237-5.234C398.514,89.557,396.168,91.899,396.168,94.791z"/>
<circle fill="#FFFFFF" cx="384.902" cy="145.835" r="5.234"/>
<circle fill="#FFFFFF" cx="384.902" cy="103.443" r="5.234"/>
<g>
	<g>
		<polygon fill="#231F20" points="519.744,205.41 594.775,205.41 645.501,154.687 645.501,89.875 599.139,43.515 519.744,43.515 
			504.984,58.004 504.984,76.119 519.744,90.875 579.081,91.136 597.643,110.119 597.651,135.157 575.242,157.555 519.992,157.555 
			504.984,172.562 504.984,190.679 		"/>
		<rect x="504.984" y="59.807" fill="#231F20" width="48.196" height="123.543"/>
	</g>
	<polyline fill="none" stroke="#FFFFFF" stroke-width="8.5117" stroke-miterlimit="10" points="565.494,58.256 598.112,58.256 
		630.659,90.837 631.164,153.969 598.074,187.568 565.494,187.568 	"/>
	<circle fill="#FFFFFF" cx="562.311" cy="58.521" r="5.232"/>
	<circle fill="#FFFFFF" cx="563.17" cy="188.377" r="5.235"/>
	
		<line fill="none" stroke="#FFFFFF" stroke-width="8.5117" stroke-miterlimit="10" x1="539.02" y1="91.856" x2="539.02" y2="155.111"/>
	<polyline fill="none" stroke="#FFFFFF" stroke-width="8.5117" stroke-miterlimit="10" points="539.02,58.521 520.691,76.075 
		520.691,170.766 537.492,187.568 	"/>
	<path fill="#FFFFFF" d="M535.738,57.827c0,2.893,2.346,5.236,5.237,5.236c2.89,0,5.234-2.343,5.234-5.236
		c0-2.891-2.346-5.234-5.234-5.234C538.084,52.593,535.738,54.937,535.738,57.827z"/>
	<path fill="#FFFFFF" d="M534.779,189.397c0,2.889,2.342,5.231,5.233,5.231c2.89,0,5.232-2.342,5.232-5.231
		c0-2.893-2.344-5.234-5.232-5.234C537.121,184.164,534.779,186.504,534.779,189.397z"/>
	<polyline fill="none" stroke="#FFFFFF" stroke-width="8.5117" stroke-miterlimit="10" points="553.785,76.075 582.043,76.075 
		612.329,106.622 612.329,140.731 583.057,170.385 553.785,170.385 	"/>
	<path fill="#FFFFFF" d="M546.084,76.512c0,2.889,2.345,5.234,5.232,5.234c2.893,0,5.234-2.345,5.234-5.234
		c0-2.891-2.343-5.234-5.234-5.234C548.429,71.278,546.084,73.622,546.084,76.512z"/>
	<circle fill="#FFFFFF" cx="551.19" cy="170.385" r="5.236"/>
	<path fill="#FFFFFF" d="M533.756,89.184c0,2.89,2.344,5.234,5.24,5.234c2.888,0,5.232-2.344,5.232-5.234
		c0-2.891-2.346-5.234-5.232-5.234C536.1,83.949,533.756,86.292,533.756,89.184z"/>
	<path fill="#FFFFFF" d="M533.756,157.403c0,2.891,2.344,5.236,5.24,5.236c2.888,0,5.232-2.345,5.232-5.236
		c0-2.892-2.346-5.234-5.232-5.234C536.1,152.169,533.756,154.512,533.756,157.403z"/>
</g>
<g>
	<g>
		<polygon fill="#231F20" points="732.01,156.854 702.137,156.854 702.137,138.107 732.01,138.107 732.01,109.417 702.309,109.417 
			702.309,90.673 732.01,90.673 732.01,42.816 673.627,42.816 654.281,62.159 654.281,188.11 670.885,204.71 732.01,204.71 		"/>
		<polygon fill="#231F20" points="779.018,42.816 722.881,42.816 722.881,90.424 779.018,90.176 793.771,75.421 793.771,57.304 		
			"/>
		<polygon fill="#231F20" points="723.516,156.854 722.881,156.221 722.881,204.71 779.018,204.71 793.771,189.979 793.771,171.862 
			778.767,156.854 		"/>
		<polygon fill="#231F20" points="730.988,109.417 737.391,109.417 745.918,117.946 745.918,128.688 736.497,138.107 
			730.988,138.107 		"/>
	</g>
	
		<line fill="none" stroke="#FFFFFF" stroke-width="8.5117" stroke-miterlimit="10" x1="688.287" y1="123.603" x2="725.252" y2="123.603"/>
	<circle fill="#FFFFFF" cx="729.251" cy="123.603" r="5.233"/>
	<circle fill="#FFFFFF" cx="683.054" cy="123.603" r="5.233"/>
	<path fill="#FFFFFF" d="M774.17,188.639c0,2.89,2.344,5.232,5.232,5.232c2.893,0,5.239-2.342,5.239-5.232
		c0-2.893-2.348-5.237-5.239-5.237C776.514,183.402,774.17,185.746,774.17,188.639z"/>
	<circle fill="#FFFFFF" cx="779.863" cy="59.187" r="5.235"/>
	<polyline fill="none" stroke="#FFFFFF" stroke-width="8.5117" stroke-miterlimit="10" points="779.402,188.639 687.549,188.639 
		669.986,171.08 669.986,76.385 687.293,59.076 779.993,59.076 	"/>
	<polyline fill="none" stroke="#FFFFFF" stroke-width="8.5117" stroke-miterlimit="10" points="762.133,170.57 703.188,170.57 
		687.805,155.298 687.805,145.114 	"/>
	<polyline fill="none" stroke="#FFFFFF" stroke-width="8.5117" stroke-miterlimit="10" points="762.008,76.824 703.062,76.824 
		687.678,92.096 687.678,102.279 	"/>
	<path fill="#FFFFFF" d="M757.787,76.824c0,2.891,2.338,5.234,5.229,5.234c2.896,0,5.236-2.343,5.236-5.234
		c0-2.891-2.34-5.236-5.236-5.236C760.125,71.588,757.787,73.933,757.787,76.824z"/>
	<circle fill="#FFFFFF" cx="762.134" cy="170.57" r="5.233"/>
	<path fill="#FFFFFF" d="M683.055,143.214c0,2.89,2.347,5.234,5.232,5.234c2.892,0,5.234-2.345,5.234-5.234
		c0-2.89-2.344-5.234-5.234-5.234C685.4,137.98,683.055,140.324,683.055,143.214z"/>
	<path fill="#FFFFFF" d="M683.055,104.056c0,2.89,2.347,5.234,5.232,5.234c2.892,0,5.234-2.344,5.234-5.234
		c0-2.891-2.344-5.235-5.234-5.235C685.4,98.821,683.055,101.166,683.055,104.056z"/>
</g>
<polygon fill="#231F20" points="819.055,205.715 835.711,205.715 850.309,190.47 850.309,139.113 884.67,139.113 894.088,129.691 
	894.088,118.948 885.561,110.42 850.477,110.42 850.477,91.676 927.186,91.181 941.942,76.425 941.942,58.308 927.186,43.821 
	821.795,43.821 802.453,63.162 802.453,189.116 "/>
<line fill="none" stroke="#FFFFFF" stroke-width="8.5117" stroke-miterlimit="10" x1="835.451" y1="124.514" x2="872.414" y2="124.514"/>
<circle fill="#FFFFFF" cx="876.411" cy="124.514" r="5.233"/>
<circle fill="#FFFFFF" cx="830.217" cy="124.514" r="5.234"/>
<path fill="#FFFFFF" d="M921.791,60.096c0,2.891,2.34,5.235,5.232,5.235c2.892,0,5.231-2.345,5.231-5.235
	c0-2.892-2.34-5.233-5.231-5.233C924.131,54.863,921.791,57.205,921.791,60.096z"/>
<polyline fill="none" stroke="#FFFFFF" stroke-width="8.5117" stroke-miterlimit="10" points="927.148,59.986 834.455,59.986 
	817.148,77.295 817.148,163.843 817.148,189.596 "/>
<polyline fill="none" stroke="#FFFFFF" stroke-width="8.5117" stroke-miterlimit="10" points="909.168,77.733 850.225,77.733 
	834.839,93.007 834.839,103.189 "/>
<path fill="#FFFFFF" d="M904.948,77.733c0,2.891,2.339,5.235,5.232,5.235c2.89,0,5.232-2.345,5.232-5.235
	c0-2.891-2.344-5.233-5.232-5.233C907.287,72.5,904.948,74.842,904.948,77.733z"/>
<circle fill="#FFFFFF" cx="835.451" cy="144.125" r="5.235"/>
<circle fill="#FFFFFF" cx="835.451" cy="104.964" r="5.235"/>
<line fill="none" stroke="#FFFFFF" stroke-width="8.5117" stroke-miterlimit="10" x1="835.451" y1="149.358" x2="835.451" y2="189.547"/>
<circle fill="#FFFFFF" cx="835.451" cy="190.289" r="5.235"/>
<path fill="#FFFFFF" d="M811.912,189.596c0,2.893,2.343,5.237,5.236,5.237c2.891,0,5.233-2.345,5.233-5.237
	c0-2.889-2.344-5.231-5.233-5.231C814.255,184.365,811.912,186.707,811.912,189.596z"/>
<polygon fill="#231F20" points="1077.381,206.028 1002.348,206.028 951.625,155.303 951.625,90.492 997.986,44.134 1077.381,44.134 
	1092.139,58.62 1092.139,76.737 1076.538,92.102 1018.041,91.755 999.48,110.735 999.473,135.773 1021.881,158.172 
	1043.444,158.172 1043.444,139.538 1017.557,139.555 1008.135,130.134 1008.135,119.391 1016.66,110.864 1076.538,110.864 
	1092.139,125.93 1092.139,191.296 "/>
<polyline fill="none" stroke="#FFFFFF" stroke-width="8.5117" stroke-miterlimit="10" points="1070.631,60.158 1061.183,60.158 
	1002.635,60.158 969.543,93.249 969.543,154.851 1003.119,189.471 1044.754,189.471 1060.629,189.471 1076.752,173.348 
	1076.752,145.592 "/>
<polyline fill="none" stroke="#FFFFFF" stroke-width="8.5117" stroke-miterlimit="10" points="1003.119,155.933 1018.961,171.777 
	1036.059,171.777 1044.751,171.777 1058.465,157.132 1058.465,145.592 "/>
<line fill="none" stroke="#FFFFFF" stroke-width="8.5117" stroke-miterlimit="10" x1="983.77" y1="140.66" x2="983.77" y2="107.779"/>
<polyline fill="none" stroke="#FFFFFF" stroke-width="8.5117" stroke-miterlimit="10" points="1002.449,93.177 1017.721,77.904 
	1061.183,77.904 "/>
<circle fill="#FFFFFF" cx="1065.396" cy="77.904" r="5.235"/>
<circle fill="#FFFFFF" cx="1073.905" cy="60.158" r="5.235"/>
<circle fill="#FFFFFF" cx="1000.406" cy="153.405" r="5.234"/>
<circle fill="#FFFFFF" cx="1000.27" cy="94.547" r="5.235"/>
<circle fill="#FFFFFF" cx="983.768" cy="145.592" r="5.235"/>
<circle fill="#FFFFFF" cx="983.768" cy="103.201" r="5.235"/>
<line fill="none" stroke="#FFFFFF" stroke-width="8.5117" stroke-miterlimit="10" x1="1030.557" y1="124.22" x2="1067.52" y2="124.22"/>
<path fill="#FFFFFF" d="M1066.283,124.22c0,2.89,2.34,5.234,5.233,5.234c2.89,0,5.234-2.344,5.234-5.234
	c0-2.893-2.346-5.235-5.234-5.235C1068.623,118.985,1066.283,121.327,1066.283,124.22z"/>
<circle fill="#FFFFFF" cx="1025.321" cy="124.22" r="5.235"/>
<circle fill="#FFFFFF" cx="1076.751" cy="145.592" r="5.233"/>
<path fill="#FFFFFF" d="M1053.229,145.592c0,2.891,2.341,5.234,5.236,5.234c2.888,0,5.232-2.343,5.232-5.234
	c0-2.893-2.346-5.234-5.232-5.234C1055.568,140.357,1053.229,142.699,1053.229,145.592z"/>
<polygon fill="#231F20" points="1134.951,206.028 1118.15,206.028 1101.855,189.428 1101.855,59.944 1118.658,44.134 
	1134.951,44.134 1149.713,58.883 1149.713,110.735 1194.514,110.735 1194.514,58.797 1209.176,44.134 1226.587,44.134 
	1242.369,59.264 1242.369,192.473 1228.812,206.026 1206.73,206.028 1194.514,193.81 1194.514,139.425 1149.713,139.425 
	1149.713,191.956 "/>
<polyline fill="none" stroke="#FFFFFF" stroke-width="8.5117" stroke-miterlimit="10" points="1117.869,186.58 1117.869,169.511 
	1117.869,100.112 1117.749,60.158 "/>
<polyline fill="none" stroke="#FFFFFF" stroke-width="8.5117" stroke-miterlimit="10" points="1135.864,186.58 1135.864,171.548 
	1135.864,154.368 "/>
<path fill="#FFFFFF" d="M1222.553,190.528c0,2.891,2.341,5.232,5.234,5.232c2.889,0,5.232-2.341,5.232-5.232
	c0-2.893-2.345-5.236-5.232-5.236C1224.895,185.292,1222.553,187.635,1222.553,190.528z"/>
<path fill="#FFFFFF" d="M1112.516,190.528c0,2.891,2.34,5.232,5.233,5.232c2.892,0,5.232-2.341,5.232-5.232
	c0-2.893-2.341-5.236-5.232-5.236C1114.855,185.292,1112.516,187.635,1112.516,190.528z"/>
<circle fill="#FFFFFF" cx="1209.573" cy="190.925" r="5.233"/>
<path fill="#FFFFFF" d="M1130.63,190.796c0,2.892,2.341,5.234,5.234,5.234c2.893,0,5.232-2.342,5.232-5.234s-2.34-5.236-5.232-5.236
	C1132.971,185.56,1130.63,187.904,1130.63,190.796z"/>
<path fill="#FFFFFF" d="M1130.63,149.822c0,2.893,2.341,5.234,5.234,5.234c2.893,0,5.232-2.342,5.232-5.234
	c0-2.891-2.34-5.234-5.232-5.234C1132.971,144.588,1130.63,146.932,1130.63,149.822z"/>
<circle fill="#FFFFFF" cx="1209.355" cy="149.826" r="5.233"/>
<line fill="none" stroke="#FFFFFF" stroke-width="8.5117" stroke-miterlimit="10" x1="1135.864" y1="126.173" x2="1209.576" y2="126.173"/>
<circle fill="#FFFFFF" cx="1213.574" cy="126.173" r="5.236"/>
<circle fill="#FFFFFF" cx="1131.648" cy="126.49" r="5.234"/>
<polyline fill="none" stroke="#FFFFFF" stroke-width="8.5117" stroke-miterlimit="10" points="1209.355,186.396 1209.355,171.362 
	1209.355,154.181 "/>
<polyline fill="none" stroke="#FFFFFF" stroke-width="8.5117" stroke-miterlimit="10" points="1227.566,186.453 1227.566,169.384 
	1227.566,99.986 1227.443,60.03 "/>
<circle fill="#FFFFFF" cx="1227.443" cy="60.03" r="5.234"/>
<path fill="#FFFFFF" d="M1112.516,60.158c0,2.89,2.34,5.234,5.233,5.234c2.892,0,5.232-2.344,5.232-5.234
	c0-2.891-2.341-5.234-5.232-5.234C1114.855,54.924,1112.516,57.267,1112.516,60.158z"/>
<circle fill="#FFFFFF" cx="1209.793" cy="101.256" r="5.235"/>
<circle fill="#FFFFFF" cx="1209.573" cy="60.158" r="5.233"/>
<polyline fill="none" stroke="#FFFFFF" stroke-width="8.5117" stroke-miterlimit="10" points="1209.576,96.728 1209.576,81.694 
	1209.576,64.514 "/>
<circle fill="#FFFFFF" cx="1136.083" cy="101.256" r="5.233"/>
<path fill="#FFFFFF" d="M1130.63,60.158c0,2.89,2.341,5.234,5.234,5.234c2.893,0,5.232-2.344,5.232-5.234
	c0-2.891-2.34-5.234-5.232-5.234C1132.971,54.924,1130.63,57.267,1130.63,60.158z"/>
<polyline fill="none" stroke="#FFFFFF" stroke-width="8.5117" stroke-miterlimit="10" points="1135.864,96.728 1135.864,81.694 
	1135.864,64.514 "/>
<polygon fill="#231F20" points="102.349,369.084 87.585,383.157 70.783,383.157 54.492,366.557 54.492,237.074 71.293,221.264 
	87.585,221.264 102.349,236.01 "/>
<polyline fill="none" stroke="#FFFFFF" stroke-width="8.5117" stroke-miterlimit="10" points="70.631,363.024 70.631,345.954 
	70.631,276.556 70.51,236.602 "/>
<circle fill="#FFFFFF" cx="70.509" cy="366.97" r="5.235"/>
<path fill="#FFFFFF" d="M65.273,236.602c0,2.892,2.346,5.233,5.236,5.233c2.889,0,5.234-2.342,5.234-5.233
	c0-2.894-2.346-5.235-5.234-5.235C67.619,231.367,65.273,233.708,65.273,236.602z"/>
<polyline fill="none" stroke="#FFFFFF" stroke-width="8.5117" stroke-miterlimit="10" points="88.623,363.024 88.623,345.954 
	88.623,276.556 88.502,236.602 "/>
<path fill="#FFFFFF" d="M83.267,366.97c0,2.89,2.339,5.235,5.235,5.235c2.891,0,5.235-2.346,5.235-5.235
	c0-2.891-2.345-5.233-5.235-5.233C85.605,361.735,83.267,364.079,83.267,366.97z"/>
<path fill="#FFFFFF" d="M83.267,236.602c0,2.892,2.339,5.233,5.235,5.233c2.891,0,5.235-2.342,5.235-5.233
	c0-2.894-2.345-5.235-5.235-5.235C85.605,231.367,83.267,233.708,83.267,236.602z"/>
<polygon fill="#231F20" points="126.601,383.157 111.846,368.425 111.846,350.309 126.853,335.302 182.105,335.302 205.035,312.374 
	205.035,237.074 221.836,221.264 238.123,221.264 252.891,236.01 252.358,332.433 201.635,383.157 "/>
<polyline fill="none" stroke="#FFFFFF" stroke-width="8.5117" stroke-miterlimit="10" points="136.152,367.465 145.605,367.465 
	203.668,367.465 237.244,332.847 237.244,277.192 237.201,236.973 "/>
<path fill="#FFFFFF" d="M137.174,368.157c0,2.89-2.342,5.235-5.232,5.235c-2.893,0-5.232-2.346-5.232-5.235
	c0-2.891,2.34-5.234,5.232-5.234C134.832,362.922,137.174,365.267,137.174,368.157z"/>
<circle fill="#FFFFFF" cx="237.204" cy="236.973" r="5.235"/>
<polyline fill="none" stroke="#FFFFFF" stroke-width="8.5117" stroke-miterlimit="10" points="141.492,348.866 183.711,348.866 
	199.557,333.02 "/>
<polyline fill="none" stroke="#FFFFFF" stroke-width="8.5117" stroke-miterlimit="10" points="218.906,317.75 218.906,284.869 
	218.91,245.627 218.91,241.776 "/>
<circle fill="#FFFFFF" cx="137.281" cy="348.866" r="5.234"/>
<circle fill="#FFFFFF" cx="202.266" cy="330.496" r="5.234"/>
<circle fill="#FFFFFF" cx="218.907" cy="322.682" r="5.233"/>
<path fill="#FFFFFF" d="M224.485,236.727c0,2.89-2.345,5.235-5.237,5.235c-2.889,0-5.23-2.345-5.23-5.235s2.342-5.234,5.23-5.234
	C222.141,231.493,224.485,233.837,224.485,236.727z"/>
<g>
	<polygon fill="#231F20" points="311.051,369.093 296.287,383.167 279.484,383.167 263.193,366.565 263.193,237.083 
		279.995,221.271 296.287,221.271 311.051,236.018 	"/>
	<polygon fill="#231F20" points="309.898,349.059 289.508,348.572 277.625,336.691 277.848,313.434 369.405,221.874 
		392.461,222.574 403.984,234.096 403.993,254.962 	"/>
	<path fill="#231F20" d="M341.809,288.997c-4.514,3.195-10.066,4.915-15.517,6.765c3.733,7.486,7.327,15.029,10.03,22.908
		c1.527,4.454-3.785,7.724-7.48,5.75c-4.553-2.435-8.225-7.036-11.402-10.98c-2.4-2.982-4.711-6.043-6.912-9.184
		c-0.246,0.253-0.504,0.489-0.737,0.761c-3.29,3.795-5.645,7.852-8.7,10.941l66.992,66.99l23.256,0.221l11.877-11.88l0.49-20.391
		L341.809,288.997z"/>
</g>
<polyline fill="none" stroke="#FFFFFF" stroke-width="8.5117" stroke-miterlimit="10" points="279.095,363.161 279.095,346.089 
	279.095,276.693 278.967,236.735 "/>
<path fill="#FFFFFF" d="M273.732,367.106c0,2.891,2.34,5.233,5.234,5.233c2.891,0,5.235-2.343,5.235-5.233
	c0-2.893-2.345-5.234-5.235-5.234C276.072,361.872,273.732,364.214,273.732,367.106z"/>
<path fill="#FFFFFF" d="M273.732,236.735c0,2.893,2.34,5.236,5.234,5.236c2.891,0,5.235-2.344,5.235-5.236
	c0-2.889-2.345-5.231-5.235-5.231C276.072,231.504,273.732,233.846,273.732,236.735z"/>
<polyline fill="none" stroke="#FFFFFF" stroke-width="8.5117" stroke-miterlimit="10" points="379.904,232.054 355.107,257.026 
	311.888,300.247 301.258,310.877 296.477,315.481 296.957,366.543 "/>
<circle fill="#FFFFFF" cx="379.904" cy="232.055" r="5.234"/>
<line fill="none" stroke="#FFFFFF" stroke-width="8.5117" stroke-miterlimit="10" x1="296.477" y1="236.982" x2="296.477" y2="288.997"/>
<circle fill="#FFFFFF" cx="296.476" cy="292.191" r="5.233"/>
<path fill="#FFFFFF" d="M291.723,236.735c0,2.893,2.343,5.236,5.234,5.236s5.232-2.344,5.232-5.236c0-2.889-2.342-5.231-5.232-5.231
	C294.065,231.504,291.723,233.846,291.723,236.735z"/>
<path fill="#FFFFFF" d="M292.111,367.663c0,2.891,2.344,5.237,5.232,5.237c2.892,0,5.234-2.348,5.234-5.237
	s-2.343-5.233-5.234-5.233C294.455,362.43,292.111,364.773,292.111,367.663z"/>
<polyline fill="none" stroke="#FFFFFF" stroke-width="8.5117" stroke-miterlimit="10" points="388.664,248.739 346.879,292.191 
	346.879,314.822 388.664,356.606 "/>
<line fill="none" stroke="#FFFFFF" stroke-width="8.5117" stroke-miterlimit="10" x1="322.006" y1="315.395" x2="374.669" y2="368.055"/>
<circle fill="#FFFFFF" cx="390.7" cy="246.7" r="5.235"/>
<path fill="#FFFFFF" d="M384.959,352.906c-2.039,2.043-2.043,5.356,0,7.401c2.047,2.042,5.363,2.042,7.406,0
	c2.041-2.045,2.041-5.358,0-7.401C390.32,350.861,387.006,350.861,384.959,352.906z"/>
<path fill="#FFFFFF" d="M373.359,366.412c-2.047,2.043-2.047,5.357,0,7.403c2.045,2.042,5.357,2.042,7.4,0
	c2.045-2.046,2.045-5.36,0-7.403C378.717,364.368,375.404,364.368,373.359,366.412z"/>
<path fill="#FFFFFF" d="M319.326,311.694c-2.044,2.043-2.044,5.356,0,7.401s5.359,2.045,7.405,0
	c2.042-2.045,2.042-5.358-0.005-7.401C324.683,309.649,321.37,309.649,319.326,311.694z"/>
<path fill="#FFFFFF" d="M533.791,366.871c0,2.887,2.344,5.234,5.238,5.234c2.888,0,5.229-2.348,5.229-5.234
	c0-2.894-2.343-5.234-5.229-5.234C536.135,361.637,533.791,363.978,533.791,366.871z"/>
<circle fill="#FFFFFF" cx="521.755" cy="348.8" r="5.233"/>
<polygon fill="#231F20" points="429.857,383.62 413.9,367.312 414.424,236.475 429.184,221.724 445.479,221.724 462.277,237.535 
	462.277,335.748 540.459,335.764 555.463,350.772 555.463,368.889 540.711,383.62 "/>
<path fill="#FFFFFF" d="M533.791,366.871c0,2.887,2.344,5.234,5.238,5.234c2.888,0,5.229-2.348,5.229-5.234
	c0-2.894-2.343-5.234-5.229-5.234C536.135,361.637,533.791,363.978,533.791,366.871z"/>
<polyline fill="none" stroke="#FFFFFF" stroke-width="8.5117" stroke-miterlimit="10" points="539.029,366.871 447.168,366.871 
	429.609,349.31 429.609,270.328 429.609,237.062 "/>
<circle fill="#FFFFFF" cx="429.607" cy="237.062" r="5.234"/>
<polyline fill="none" stroke="#FFFFFF" stroke-width="8.5117" stroke-miterlimit="10" points="521.074,350.219 462.131,350.219 
	446.747,334.946 446.747,324.764 "/>
<path fill="#FFFFFF" d="M515.84,350.219c0,2.892,2.34,5.234,5.234,5.234c2.891,0,5.233-2.343,5.233-5.234s-2.344-5.232-5.233-5.232
	C518.18,344.986,515.84,347.327,515.84,350.219z"/>
<circle fill="#FFFFFF" cx="447.229" cy="322.864" r="5.236"/>
<line fill="none" stroke="#FFFFFF" stroke-width="8.5117" stroke-miterlimit="10" x1="447.428" y1="237.309" x2="447.428" y2="298.909"/>
<circle fill="#FFFFFF" cx="447.425" cy="301.69" r="5.234"/>
<circle fill="#FFFFFF" cx="447.911" cy="237.062" r="5.233"/>
<g>
	<polygon fill="#231F20" points="598.6,383.888 581.795,383.888 565.508,367.286 565.508,237.802 582.31,221.993 598.6,221.993 
		635.416,259.339 674.234,221.993 690.525,221.993 705.291,236.739 705.291,369.812 690.525,383.888 673.727,383.888 
		657.435,367.286 657.432,305.144 645.22,317.358 625.611,317.358 613.367,304.968 613.367,369.812 	"/>
	<polyline fill="none" stroke="#FFFFFF" stroke-width="8.5117" stroke-miterlimit="10" points="581.188,364.218 581.188,347.148 
		581.188,277.749 581.065,237.796 	"/>
	<circle fill="#FFFFFF" cx="581.065" cy="368.166" r="5.234"/>
	<circle fill="#FFFFFF" cx="581.065" cy="237.796" r="5.234"/>
	<polyline fill="none" stroke="#FFFFFF" stroke-width="8.5117" stroke-miterlimit="10" points="690.744,364.218 690.744,347.148 
		690.744,277.749 690.622,237.796 	"/>
	<circle fill="#FFFFFF" cx="690.619" cy="368.166" r="5.236"/>
	<circle fill="#FFFFFF" cx="690.619" cy="237.796" r="5.236"/>
	<polyline fill="none" stroke="#FFFFFF" stroke-width="8.5117" stroke-miterlimit="10" points="676.326,237.531 646.033,268.002 
		626.398,268.002 595.928,237.531 	"/>
	<circle fill="#FFFFFF" cx="676.326" cy="237.531" r="5.232"/>
	<circle fill="#FFFFFF" cx="595.93" cy="237.531" r="5.234"/>
	
		<line fill="none" stroke="#FFFFFF" stroke-width="8.5117" stroke-miterlimit="10" x1="598.916" y1="364.184" x2="598.916" y2="285.51"/>
	
		<line fill="none" stroke="#FFFFFF" stroke-width="8.5117" stroke-miterlimit="10" x1="672.63" y1="364.45" x2="672.63" y2="285.774"/>
	<polyline fill="none" stroke="#FFFFFF" stroke-width="8.5117" stroke-miterlimit="10" points="594.006,260.032 627.254,293.279 
		647.141,293.279 680.387,260.032 	"/>
	<circle fill="#FFFFFF" cx="679.524" cy="260.032" r="5.235"/>
	<circle fill="#FFFFFF" cx="594.008" cy="260.032" r="5.234"/>
	<circle fill="#FFFFFF" cx="598.916" cy="368.166" r="5.234"/>
	<circle fill="#FFFFFF" cx="672.63" cy="368.166" r="5.235"/>
	<path fill="#FFFFFF" d="M667.395,285.51c0,2.89,2.345,5.233,5.236,5.233c2.891,0,5.235-2.343,5.235-5.233
		c0-2.893-2.347-5.234-5.235-5.234C669.738,280.276,667.395,282.617,667.395,285.51z"/>
	<path fill="#FFFFFF" d="M594.01,285.51c0,2.89,2.342,5.233,5.233,5.233c2.89,0,5.232-2.343,5.232-5.233
		c0-2.893-2.344-5.234-5.232-5.234C596.352,280.276,594.01,282.617,594.01,285.51z"/>
</g>
<g>
	<g>
		<polygon fill="#231F20" points="761.677,369.546 746.918,383.62 730.113,383.62 713.821,367.018 713.821,237.535 730.623,221.724 
			746.918,221.724 761.677,236.475 		"/>
		<path fill="#231F20" d="M754.566,229.453c-0.283,19.015-6.833,36.981-12.688,54.991l65.312,65.312l23.258,0.217l11.879-11.88
			l0.492-20.391L754.566,229.453z"/>
		<polygon fill="#231F20" points="854.334,369.546 839.574,383.62 822.773,383.62 806.479,367.018 806.479,237.535 823.283,221.724 
			839.574,221.724 854.334,236.475 		"/>
	</g>
	<polyline fill="none" stroke="#FFFFFF" stroke-width="8.5117" stroke-miterlimit="10" points="729.411,363.785 729.411,346.715 
		729.411,277.316 729.286,237.359 	"/>
	<circle fill="#FFFFFF" cx="729.285" cy="367.729" r="5.234"/>
	<circle fill="#FFFFFF" cx="729.285" cy="237.359" r="5.234"/>
	<polyline fill="none" stroke="#FFFFFF" stroke-width="8.5117" stroke-miterlimit="10" points="839.229,363.912 839.229,346.84 
		839.229,277.442 839.104,237.489 	"/>
	<path fill="#FFFFFF" d="M833.871,367.857c0,2.89,2.338,5.232,5.23,5.232c2.894,0,5.233-2.343,5.233-5.232
		c0-2.894-2.34-5.237-5.233-5.237C836.209,362.62,833.871,364.965,833.871,367.857z"/>
	<path fill="#FFFFFF" d="M833.871,237.489c0,2.89,2.338,5.231,5.23,5.231c2.894,0,5.233-2.341,5.233-5.231
		c0-2.893-2.34-5.233-5.233-5.233C836.209,232.256,833.871,234.596,833.871,237.489z"/>
	<polyline fill="none" stroke="#FFFFFF" stroke-width="8.5117" stroke-miterlimit="10" points="825.504,318.685 814.508,307.691 
		769.82,263.002 744.008,237.362 	"/>
	<path fill="#FFFFFF" d="M823.664,324.084c2.045,2.043,5.357,2.044,7.404,0c2.041-2.045,2.041-5.359,0-7.403
		c-2.047-2.044-5.362-2.044-7.404-0.001C821.619,318.725,821.619,322.039,823.664,324.084z"/>
	<path fill="#FFFFFF" d="M740.305,241.062c2.045,2.044,5.357,2.045,7.404,0c2.041-2.043,2.041-5.357,0-7.403
		c-2.047-2.043-5.359-2.043-7.404,0C738.26,235.705,738.26,239.018,740.305,241.062z"/>
	<polyline fill="none" stroke="#FFFFFF" stroke-width="8.5117" stroke-miterlimit="10" points="741.77,259.001 766.762,283.816 
		810.02,327.071 820.658,337.712 820.658,363.912 	"/>
	<path fill="#FFFFFF" d="M817.41,371.558c2.042,2.044,5.359,2.046,7.4,0c2.045-2.044,2.045-5.357,0-7.4
		c-2.041-2.045-5.358-2.045-7.4-0.001C815.363,366.2,815.365,369.513,817.41,371.558z"/>
	
		<line fill="none" stroke="#FFFFFF" stroke-width="8.5117" stroke-miterlimit="10" x1="820.658" y1="237.489" x2="820.658" y2="294.429"/>
	
		<line fill="none" stroke="#FFFFFF" stroke-width="8.5117" stroke-miterlimit="10" x1="747.402" y1="286.283" x2="747.402" y2="366.833"/>
	<path fill="#FFFFFF" d="M817.552,300.661c2.044,2.045,5.36,2.045,7.405,0c2.039-2.042,2.039-5.359,0-7.401
		c-2.045-2.045-5.361-2.044-7.405,0C815.508,295.303,815.508,298.617,817.552,300.661z"/>
	<path fill="#FFFFFF" d="M817.552,241.121c2.044,2.043,5.36,2.046,7.405,0c2.039-2.044,2.039-5.357,0-7.401
		c-2.045-2.043-5.361-2.043-7.405-0.001C815.508,235.764,815.508,239.077,817.552,241.121z"/>
	<path fill="#FFFFFF" d="M743.699,371.553c2.047,2.045,5.356,2.045,7.401,0c2.045-2.043,2.045-5.354,0-7.401
		c-2.045-2.045-5.354-2.042-7.401,0C741.654,366.197,741.656,369.51,743.699,371.553z"/>
	<path fill="#FFFFFF" d="M743.699,290.501c2.047,2.042,5.356,2.046,7.401,0c2.045-2.043,2.045-5.358,0-7.402s-5.354-2.044-7.401,0
		C741.654,285.144,741.656,288.458,743.699,290.501z"/>
	<path fill="#FFFFFF" d="M740.112,264.741c2.042,2.043,5.355,2.045,7.402,0c2.041-2.045,2.041-5.358,0-7.402
		c-2.047-2.045-5.36-2.045-7.402-0.001C738.066,259.383,738.066,262.696,740.112,264.741z"/>
</g>
<path fill="#231F20" d="M1127.264,221.993h-94.194l-19.338,19.343V367.29l16.601,16.599h15.462l15.965-15.969v-50.982h63.705
	l28.777-28.955v-39.598L1127.264,221.993z M1106.562,282.045l-7.144,6.549l-37.322-0.102v-19.006l37.322,0.362l7.144,6.425V282.045z
	"/>
<line fill="none" stroke="#FFFFFF" stroke-width="8.5117" stroke-miterlimit="10" x1="1047.223" y1="302.536" x2="1084.189" y2="302.536"/>
<circle fill="#FFFFFF" cx="1088.186" cy="302.536" r="5.233"/>
<circle fill="#FFFFFF" cx="1041.987" cy="302.536" r="5.235"/>
<polyline fill="none" stroke="#FFFFFF" stroke-width="8.5117" stroke-miterlimit="10" points="1028.922,367.62 1028.922,341.866 
	1028.922,255.317 1046.23,238.008 1121.451,238.008 1139.439,255.755 1139.402,279.999 "/>
<polyline fill="none" stroke="#FFFFFF" stroke-width="8.5117" stroke-miterlimit="10" points="1046.611,281.21 1046.611,271.029 
	1061.996,255.755 1115.025,255.755 1121.586,262.181 1121.586,287.003 1121.586,294.988 1112.172,302.971 "/>
<circle fill="#FFFFFF" cx="1047.222" cy="322.147" r="5.233"/>
<path fill="#FFFFFF" d="M1041.988,282.988c0,2.89,2.342,5.232,5.233,5.232s5.232-2.343,5.232-5.232c0-2.893-2.342-5.234-5.232-5.234
	C1044.33,277.754,1041.988,280.096,1041.988,282.988z"/>
<line fill="none" stroke="#FFFFFF" stroke-width="8.5117" stroke-miterlimit="10" x1="1047.223" y1="327.381" x2="1047.223" y2="367.57"/>
<path fill="#FFFFFF" d="M1041.988,368.312c0,2.89,2.342,5.232,5.233,5.232s5.232-2.344,5.232-5.232c0-2.895-2.342-5.235-5.232-5.235
	C1044.33,363.077,1041.988,365.419,1041.988,368.312z"/>
<path fill="#FFFFFF" d="M1023.688,367.62c0,2.892,2.342,5.233,5.234,5.233c2.889,0,5.232-2.342,5.232-5.233
	c0-2.894-2.344-5.234-5.232-5.234C1026.028,362.385,1023.688,364.727,1023.688,367.62z"/>
<path fill="#FFFFFF" d="M1104.594,302.598c0,2.892,2.344,5.236,5.238,5.236c2.891,0,5.232-2.344,5.232-5.236
	c0-2.891-2.343-5.233-5.232-5.233C1106.938,297.364,1104.594,299.707,1104.594,302.598z"/>
<circle fill="#FFFFFF" cx="1139.4" cy="279.999" r="5.233"/>
<path fill="#231F20" d="M956.754,221.513h-46.947l-46.36,46.358v64.812l50.723,50.729h38.221l50.724-50.759v-64.78L956.754,221.513z
	 M956.102,319.929l-15.953,15.946h-14.25l-14.936-14.934v-37l14.936-14.937h14.25l15.953,16.633V319.929z"/>
<polyline fill="none" stroke="#FFFFFF" stroke-width="8.5117" stroke-miterlimit="10" points="920.496,236.399 911.525,236.399 
	878.432,269.489 878.432,331.092 912.006,365.71 921.006,365.71 "/>
<polyline fill="none" stroke="#FFFFFF" stroke-width="8.5117" stroke-miterlimit="10" points="906.911,334.213 922.755,350.058 
	941.016,350.058 946.113,350.058 961.961,334.213 "/>
<line fill="none" stroke="#FFFFFF" stroke-width="8.5117" stroke-miterlimit="10" x1="893.674" y1="315.882" x2="893.674" y2="283"/>
<polyline fill="none" stroke="#FFFFFF" stroke-width="8.5117" stroke-miterlimit="10" points="908.275,268.4 923.549,253.127 
	946.547,253.127 964.279,269.769 "/>
<circle fill="#FFFFFF" cx="904.201" cy="331.686" r="5.232"/>
<circle fill="#FFFFFF" cx="906.1" cy="269.769" r="5.234"/>
<circle fill="#FFFFFF" cx="893.675" cy="320.814" r="5.235"/>
<circle fill="#FFFFFF" cx="893.675" cy="278.424" r="5.235"/>
<circle fill="#FFFFFF" cx="965.028" cy="270.357" r="5.233"/>
<path fill="#FFFFFF" d="M958.992,331.649c0,2.891,2.346,5.235,5.236,5.235c2.889,0,5.229-2.346,5.229-5.235
	c0-2.891-2.342-5.234-5.229-5.234C961.338,326.416,958.992,328.759,958.992,331.649z"/>
<line fill="none" stroke="#FFFFFF" stroke-width="8.5117" stroke-miterlimit="10" x1="974.959" y1="317.977" x2="974.959" y2="285.095"/>
<circle fill="#FFFFFF" cx="974.955" cy="322.906" r="5.234"/>
<circle fill="#FFFFFF" cx="974.955" cy="280.518" r="5.234"/>
<polyline fill="none" stroke="#FFFFFF" stroke-width="8.5117" stroke-miterlimit="10" points="947.828,236.272 956.799,236.272 
	989.893,269.363 989.893,330.965 956.317,365.583 947.32,365.583 "/>
<circle fill="#FFFFFF" cx="946.111" cy="236.399" r="5.232"/>
<circle fill="#FFFFFF" cx="920.497" cy="236.399" r="5.233"/>
<path fill="#FFFFFF" d="M915.77,365.71c0,2.892,2.345,5.234,5.236,5.234c2.891,0,5.23-2.343,5.23-5.234
	c0-2.891-2.34-5.233-5.23-5.233C918.113,360.478,915.77,362.819,915.77,365.71z"/>
<path fill="#FFFFFF" d="M942.086,365.583c0,2.89,2.342,5.234,5.23,5.234c2.894,0,5.237-2.345,5.237-5.234
	c0-2.893-2.345-5.234-5.237-5.234C944.428,360.349,942.086,362.69,942.086,365.583z"/>
<g>
	<path fill="#231F20" d="M170.502,511.479c-4.017,4.724-9.021,8.668-14.259,12.257c-7.896,5.423-17.112,10.355-23.17,17.989
		l25.806,25.805l23.256,0.221l11.88-11.882l0.485-20.388L170.502,511.479z"/>
	<path fill="#231F20" d="M148.141,405.854h-46.944l-46.362,46.359v64.812l50.726,50.726h38.221l50.72-50.758v-64.778
		L148.141,405.854z M147.492,504.27l-15.955,15.948h-14.251l-14.935-14.937v-37l14.935-14.935h14.251l15.955,16.635V504.27z"/>
	<path fill="#231F20" d="M136.799,546.156c4.016-4.721,9.021-8.664,14.255-12.256c7.901-5.422,17.116-10.354,23.173-17.99
		l-25.805-25.805l-23.254-0.221l-11.883,11.882l-0.488,20.392L136.799,546.156z"/>
</g>
<polyline fill="none" stroke="#FFFFFF" stroke-width="8.5117" stroke-miterlimit="10" points="112.291,420.499 103.314,420.499 
	70.223,453.59 70.223,515.19 103.797,549.811 112.797,549.811 144.385,549.811 "/>
<polyline fill="none" stroke="#FFFFFF" stroke-width="8.5117" stroke-miterlimit="10" points="98.703,518.309 114.548,534.157 
	124.794,534.157 "/>
<line fill="none" stroke="#FFFFFF" stroke-width="8.5117" stroke-miterlimit="10" x1="85.465" y1="499.98" x2="85.465" y2="467.1"/>
<polyline fill="none" stroke="#FFFFFF" stroke-width="8.5117" stroke-miterlimit="10" points="100.07,452.497 115.34,437.225 
	138.34,437.225 156.07,453.868 "/>
<circle fill="#FFFFFF" cx="95.993" cy="515.784" r="5.233"/>
<circle fill="#FFFFFF" cx="97.893" cy="453.868" r="5.234"/>
<circle fill="#FFFFFF" cx="85.466" cy="504.912" r="5.234"/>
<path fill="#FFFFFF" d="M80.232,462.521c0,2.893,2.34,5.232,5.232,5.232c2.891,0,5.235-2.341,5.235-5.232
	c0-2.895-2.345-5.234-5.235-5.234C82.572,457.287,80.232,459.628,80.232,462.521z"/>
<circle fill="#FFFFFF" cx="156.82" cy="454.457" r="5.236"/>
<circle fill="#FFFFFF" cx="127.939" cy="534.075" r="5.234"/>
<line fill="none" stroke="#FFFFFF" stroke-width="8.5117" stroke-miterlimit="10" x1="166.748" y1="502.074" x2="166.748" y2="469.192"/>
<path fill="#FFFFFF" d="M161.512,507.006c0,2.894,2.344,5.232,5.232,5.232c2.893,0,5.235-2.34,5.235-5.232
	c0-2.892-2.343-5.232-5.235-5.232C163.855,501.772,161.512,504.114,161.512,507.006z"/>
<circle fill="#FFFFFF" cx="166.746" cy="464.614" r="5.234"/>
<polyline fill="none" stroke="#FFFFFF" stroke-width="8.5117" stroke-miterlimit="10" points="139.615,420.368 148.592,420.368 
	181.682,453.46 181.682,506.456 "/>
<circle fill="#FFFFFF" cx="137.904" cy="420.499" r="5.234"/>
<circle fill="#FFFFFF" cx="112.288" cy="420.499" r="5.235"/>
<circle fill="#FFFFFF" cx="144.392" cy="549.811" r="5.233"/>
<path fill="#FFFFFF" d="M176.446,509.044c0,2.895,2.347,5.234,5.235,5.234c2.888,0,5.238-2.341,5.238-5.234
	c0-2.891-2.35-5.233-5.238-5.233C178.793,503.811,176.446,506.153,176.446,509.044z"/>
<line fill="none" stroke="#FFFFFF" stroke-width="8.5117" stroke-miterlimit="10" x1="141.725" y1="502.074" x2="185.807" y2="546.156"/>
<line fill="none" stroke="#FFFFFF" stroke-width="8.5117" stroke-miterlimit="10" x1="122.705" y1="508.499" x2="170.691" y2="556.488"/>
<path fill="#FFFFFF" d="M135.475,502.075c0,2.89,2.336,5.234,5.229,5.234s5.234-2.346,5.234-5.234c0-2.892-2.342-5.233-5.234-5.233
	S135.475,499.185,135.475,502.075z"/>
<circle fill="#FFFFFF" cx="125.711" cy="511.504" r="5.235"/>
<path fill="#FFFFFF" d="M178.535,544.576c0,2.889,2.346,5.233,5.233,5.233c2.891,0,5.235-2.346,5.235-5.233
	c0-2.894-2.345-5.233-5.235-5.233C180.881,539.343,178.535,541.684,178.535,544.576z"/>
<circle fill="#FFFFFF" cx="169.838" cy="555.633" r="5.232"/>
<g>
	<g>
		<path fill="#231F20" d="M318.138,404.358H223.95l-19.342,19.344v125.951l16.602,16.603h15.461l15.967-15.971v-50.984h63.705
			l28.777-28.952v-39.598L318.138,404.358z M297.434,464.41l-7.139,6.552l-37.322-0.104v-19.007l37.322,0.363l7.139,6.425V464.41z"
			/>
		<path fill="#231F20" d="M301.779,491.302c-0.682,0.381-1.508,0.608-2.479,0.608h-64.59l74.78,74.782l23.264,0.219l11.879-11.881
			l0.486-20.389L301.779,491.302z"/>
	</g>
	
		<line fill="none" stroke="#FFFFFF" stroke-width="8.5117" stroke-miterlimit="10" x1="237.924" y1="484.902" x2="274.891" y2="484.902"/>
	<circle fill="#FFFFFF" cx="278.884" cy="484.902" r="5.235"/>
	<circle fill="#FFFFFF" cx="232.689" cy="484.902" r="5.235"/>
	<polyline fill="none" stroke="#FFFFFF" stroke-width="8.5117" stroke-miterlimit="10" points="219.621,549.984 219.621,524.231 
		219.621,437.681 236.932,420.375 312.15,420.375 330.141,438.12 330.102,462.366 	"/>
	<polyline fill="none" stroke="#FFFFFF" stroke-width="8.5117" stroke-miterlimit="10" points="237.312,463.577 237.312,453.395 
		252.701,438.12 305.723,438.12 312.283,444.547 312.283,469.368 312.283,477.353 302.873,485.338 	"/>
	<circle fill="#FFFFFF" cx="237.925" cy="504.513" r="5.233"/>
	<circle fill="#FFFFFF" cx="237.925" cy="465.353" r="5.233"/>
	
		<line fill="none" stroke="#FFFFFF" stroke-width="8.5117" stroke-miterlimit="10" x1="237.924" y1="509.746" x2="237.924" y2="549.936"/>
	<circle fill="#FFFFFF" cx="237.925" cy="550.677" r="5.233"/>
	<circle fill="#FFFFFF" cx="219.623" cy="549.984" r="5.234"/>
	<path fill="#FFFFFF" d="M295.297,484.962c0,2.895,2.34,5.236,5.234,5.236c2.889,0,5.233-2.343,5.233-5.236
		c0-2.889-2.345-5.233-5.233-5.233C297.637,479.729,295.297,482.073,295.297,484.962z"/>
	<path fill="#FFFFFF" d="M324.868,462.366c0,2.889,2.346,5.232,5.229,5.232c2.895,0,5.24-2.345,5.24-5.232
		c0-2.894-2.346-5.234-5.24-5.234C327.214,457.132,324.868,459.474,324.868,462.366z"/>
	
		<line fill="none" stroke="#FFFFFF" stroke-width="8.5117" stroke-miterlimit="10" x1="268.4" y1="504.513" x2="311.416" y2="547.529"/>
	
		<line fill="none" stroke="#FFFFFF" stroke-width="8.5117" stroke-miterlimit="10" x1="289.916" y1="499.277" x2="330.143" y2="540.814"/>
	<circle fill="#FFFFFF" cx="289.917" cy="499.277" r="5.233"/>
	<circle fill="#FFFFFF" cx="330.584" cy="542.797" r="5.234"/>
	<circle fill="#FFFFFF" cx="268.397" cy="504.513" r="5.235"/>
	<circle fill="#FFFFFF" cx="313.451" cy="549.936" r="5.232"/>
</g>
<g>
	<path fill="#231F20" d="M424.373,518.727l22.408-22.397v-4.09h45.847c0.757,0,1.421-0.141,2.002-0.379v23.998l-50.724,50.725
		h-75.035l-14.754-14.733v-18.115l15.006-15.007L424.373,518.727L424.373,518.727z"/>
	<path fill="#231F20" d="M479.875,404.688h-79.396l-46.36,46.357v31.388c0.58-0.237,1.246-0.377,1.998-0.377h45.856l0.002-10.766
		l18.56-18.98l59.342-0.264l14.755-14.757v-18.115L479.875,404.688z"/>
	<polygon fill="#231F20" points="475.076,471.399 354.117,471.399 354.117,481.722 372.484,500.089 494.592,500.089 
		494.592,490.915 	"/>
	
		<rect x="392.913" y="464.262" transform="matrix(0.7071 0.7071 -0.7071 0.7071 455.0495 -151.7742)" fill="#231F20" width="35.638" height="18.289"/>
	<polygon fill="#231F20" points="432.287,479.717 457.492,504.916 444.559,517.845 419.357,492.647 	"/>
	<rect x="396.168" y="448.09" fill="#231F20" width="18.289" height="35.639"/>
	<rect x="431.807" y="487.66" fill="#231F20" width="18.289" height="35.639"/>
</g>
<polyline fill="none" stroke="#FFFFFF" stroke-width="8.5117" stroke-miterlimit="10" points="478.878,419.508 402.486,419.508 
	368.911,453.618 368.911,479.071 "/>
<polyline fill="none" stroke="#FFFFFF" stroke-width="8.5117" stroke-miterlimit="10" points="368.768,550.986 445.161,550.986 
	478.732,516.876 478.732,491.423 "/>
<circle fill="#FFFFFF" cx="479.761" cy="420.28" r="5.233"/>
<path fill="#FFFFFF" d="M363.678,479.071c0,2.892,2.34,5.235,5.233,5.235c2.888,0,5.233-2.345,5.233-5.235s-2.346-5.233-5.233-5.233
	C366.018,473.838,363.678,476.182,363.678,479.071z"/>
<circle fill="#FFFFFF" cx="478.73" cy="491.423" r="5.233"/>
<circle fill="#FFFFFF" cx="368.765" cy="550.986" r="5.233"/>
<line fill="none" stroke="#FFFFFF" stroke-width="8.5117" stroke-miterlimit="10" x1="387.148" y1="485.166" x2="460.863" y2="485.166"/>
<circle fill="#FFFFFF" cx="464.855" cy="485.166" r="5.233"/>
<path fill="#FFFFFF" d="M377.7,485.484c0,2.892,2.341,5.232,5.229,5.232c2.895,0,5.24-2.342,5.24-5.232
	c0-2.892-2.346-5.235-5.24-5.235C380.041,480.249,377.7,482.594,377.7,485.484z"/>
<polyline fill="none" stroke="#FFFFFF" stroke-width="8.5117" stroke-miterlimit="10" points="368.911,532.146 438.424,532.146 
	454.439,514.711 454.439,501.866 "/>
<polyline fill="none" stroke="#FFFFFF" stroke-width="8.5117" stroke-miterlimit="10" points="478.912,438.273 409.398,438.273 
	393.382,455.711 393.382,468.553 "/>
<path fill="#FFFFFF" d="M473.672,438.273c0,2.893,2.346,5.232,5.236,5.232c2.895,0,5.235-2.341,5.235-5.232
	c0-2.895-2.342-5.234-5.235-5.234C476.018,433.039,473.672,435.38,473.672,438.273z"/>
<path fill="#FFFFFF" d="M388.149,468.553c0,2.893,2.34,5.234,5.232,5.234c2.891,0,5.229-2.343,5.229-5.234
	c0-2.893-2.341-5.234-5.229-5.234C390.489,463.317,388.149,465.66,388.149,468.553z"/>
<path fill="#FFFFFF" d="M449.206,501.866c0,2.89,2.341,5.234,5.231,5.234c2.894,0,5.235-2.346,5.235-5.234
	c0-2.892-2.343-5.234-5.235-5.234C451.547,496.632,449.206,498.976,449.206,501.866z"/>
<path fill="#FFFFFF" d="M363.674,532.146c0,2.892,2.344,5.232,5.237,5.232c2.888,0,5.233-2.342,5.233-5.232
	c0-2.894-2.346-5.233-5.233-5.233C366.018,526.913,363.674,529.254,363.674,532.146z"/>
<g>
	<polygon fill="#231F20" points="600.278,553.751 585.515,567.824 568.713,567.824 552.422,551.224 552.422,421.741 
		569.223,405.932 585.515,405.932 600.278,420.679 	"/>
	<polygon fill="#231F20" points="570.75,405.776 520.332,405.776 505.587,420.54 505.587,436.831 521.396,453.631 570.75,453.631 	
		"/>
	<polygon fill="#231F20" points="632.003,405.776 559.532,405.776 559.532,453.631 629.475,453.631 646.078,437.34 646.078,420.54 	
		"/>
</g>
<polyline fill="none" stroke="#FFFFFF" stroke-width="8.5117" stroke-miterlimit="10" points="567.352,547.026 567.352,529.954 
	567.352,460.557 567.33,454.38 552.441,439.178 520.682,439.178 "/>
<path fill="#FFFFFF" d="M561.992,550.972c0,2.891,2.34,5.234,5.232,5.234c2.892,0,5.233-2.345,5.233-5.234
	c0-2.893-2.343-5.232-5.233-5.232C564.332,545.738,561.992,548.079,561.992,550.972z"/>
<polyline fill="none" stroke="#FFFFFF" stroke-width="8.5117" stroke-miterlimit="10" points="585.34,547.026 585.34,529.954 
	585.34,460.557 585.32,453.631 597.752,438.669 630.371,438.669 "/>
<path fill="#FFFFFF" d="M579.985,550.972c0,2.891,2.341,5.234,5.234,5.234c2.89,0,5.232-2.345,5.232-5.234
	c0-2.893-2.344-5.232-5.232-5.232C582.326,545.738,579.985,548.079,579.985,550.972z"/>
<line fill="none" stroke="#FFFFFF" stroke-width="8.5117" stroke-miterlimit="10" x1="519.861" y1="421.358" x2="630.371" y2="421.358"/>
<circle fill="#FFFFFF" cx="630.374" cy="438.826" r="5.235"/>
<path fill="#FFFFFF" d="M625.139,421.115c0,2.891,2.345,5.232,5.232,5.232c2.891,0,5.238-2.343,5.238-5.232
	c0-2.893-2.349-5.235-5.238-5.235C627.482,415.88,625.139,418.224,625.139,421.115z"/>
<path fill="#FFFFFF" d="M515.445,439.106c0,2.891,2.342,5.233,5.235,5.233c2.89,0,5.23-2.344,5.23-5.233
	c0-2.894-2.342-5.234-5.23-5.234C517.787,433.872,515.445,436.214,515.445,439.106z"/>
<circle fill="#FFFFFF" cx="519.862" cy="421.358" r="5.233"/>
<polygon fill="#231F20" points="763.861,565.996 686.302,565.996 655.264,533.672 654.732,419.722 669.499,404.975 685.791,404.975 
	702.588,420.784 702.588,510.044 710.258,517.199 740.952,517.406 747.391,510.044 747.92,421.724 764.72,405.913 781.012,405.913 
	795.777,420.663 795.777,532.519 "/>
<polyline fill="none" stroke="#FFFFFF" stroke-width="8.5117" stroke-miterlimit="10" points="780.756,420.964 780.756,525.427 
	756.115,550.068 694.041,550.068 671.098,527.128 671.098,420.964 "/>
<circle fill="#FFFFFF" cx="780.753" cy="420.964" r="5.233"/>
<path fill="#FFFFFF" d="M666.666,420.025c0,2.889,2.346,5.232,5.233,5.232c2.896,0,5.238-2.345,5.238-5.232
	c0-2.895-2.344-5.233-5.238-5.233C669.012,414.792,666.666,417.132,666.666,420.025z"/>
<polyline fill="none" stroke="#FFFFFF" stroke-width="8.5117" stroke-miterlimit="10" points="762.803,517.938 748.211,532.529 
	701.493,532.078 686.218,516.804 "/>
<line fill="none" stroke="#FFFFFF" stroke-width="8.5117" stroke-miterlimit="10" x1="689.09" y1="420.025" x2="689.09" y2="497.027"/>
<line fill="none" stroke="#FFFFFF" stroke-width="8.5117" stroke-miterlimit="10" x1="762.803" y1="419.942" x2="762.803" y2="496.944"/>
<path fill="#FFFFFF" d="M757.568,419.942c0,2.892,2.342,5.235,5.233,5.235s5.23-2.345,5.23-5.235c0-2.892-2.34-5.232-5.23-5.232
	C759.91,414.71,757.568,417.051,757.568,419.942z"/>
<path fill="#FFFFFF" d="M683.854,420.025c0,2.889,2.347,5.232,5.236,5.232c2.891,0,5.234-2.345,5.234-5.232
	c0-2.895-2.344-5.233-5.234-5.233C686.2,414.792,683.854,417.132,683.854,420.025z"/>
<circle fill="#FFFFFF" cx="762.802" cy="497.027" r="5.233"/>
<circle fill="#FFFFFF" cx="689.089" cy="497.027" r="5.235"/>
<circle fill="#FFFFFF" cx="763.818" cy="516.804" r="5.234"/>
<path fill="#FFFFFF" d="M681.232,516.72c0,2.892,2.342,5.236,5.237,5.236c2.892,0,5.232-2.346,5.232-5.236
	c0-2.89-2.342-5.231-5.232-5.231C683.574,511.487,681.232,513.83,681.232,516.72z"/>
<g>
	<polygon fill="#231F20" points="885.989,565.49 862.59,565.49 806.975,509.396 806.975,419.409 823.775,403.599 840.069,403.599 
		854.83,418.346 854.83,489.572 874.531,509.272 899.631,484.546 899.631,418.614 916.43,402.805 932.725,402.805 947.486,417.553 
		947.486,504.796 	"/>
	<rect x="855.848" y="498.098" fill="#231F20" width="36.881" height="13.131"/>
</g>
<polyline fill="none" stroke="#FFFFFF" stroke-width="8.5117" stroke-miterlimit="10" points="822.207,417.878 822.207,499.842 
	871.593,548.209 883.301,548.209 932.217,498.098 932.217,417.878 "/>
<path fill="#FFFFFF" d="M926.979,418.144c0,2.89,2.345,5.23,5.238,5.23c2.889,0,5.232-2.342,5.232-5.23
	c0-2.893-2.344-5.235-5.232-5.235C929.322,412.907,926.979,415.251,926.979,418.144z"/>
<circle fill="#FFFFFF" cx="822.208" cy="417.878" r="5.235"/>
<polyline fill="none" stroke="#FFFFFF" stroke-width="8.5117" stroke-miterlimit="10" points="840.436,418.013 840.561,442.587 
	840.561,485.271 840.561,495.771 859.885,514.099 "/>
<circle fill="#FFFFFF" cx="840.438" cy="418.013" r="5.235"/>
<path fill="#FFFFFF" d="M854.83,514.099c0,2.892,2.341,5.231,5.232,5.231c2.889,0,5.233-2.341,5.233-5.231
	c0-2.893-2.346-5.233-5.233-5.233C857.171,508.864,854.83,511.206,854.83,514.099z"/>
<polyline fill="none" stroke="#FFFFFF" stroke-width="8.5117" stroke-miterlimit="10" points="914.348,417.886 914.223,442.458 
	914.223,485.145 914.223,495.642 894.9,513.969 "/>
<circle fill="#FFFFFF" cx="914.349" cy="417.886" r="5.235"/>
<circle fill="#FFFFFF" cx="894.72" cy="513.969" r="5.233"/>
<polygon fill="#231F20" points="991.268,565.255 974.468,565.255 958.174,548.653 958.174,419.169 974.975,403.358 991.268,403.358 
	1006.029,418.107 1006.029,463.177 1018.373,450.828 1041.221,450.828 1051.812,461.419 1051.812,419.169 1068.615,403.358 
	1084.905,403.358 1099.672,418.107 1099.672,551.182 1084.905,565.255 1068.109,565.255 1051.812,548.653 1051.34,528.255 
	1030.87,507.783 1006.029,532.628 1006.029,551.182 "/>
<polyline fill="none" stroke="#FFFFFF" stroke-width="8.5117" stroke-miterlimit="10" points="974.191,545.418 974.191,528.349 
	974.191,458.948 974.068,418.995 "/>
<circle fill="#FFFFFF" cx="974.069" cy="549.364" r="5.233"/>
<path fill="#FFFFFF" d="M968.836,418.995c0,2.893,2.34,5.236,5.232,5.236c2.892,0,5.233-2.345,5.233-5.236
	c0-2.889-2.342-5.233-5.233-5.233C971.176,413.762,968.836,416.106,968.836,418.995z"/>
<polyline fill="none" stroke="#FFFFFF" stroke-width="8.5117" stroke-miterlimit="10" points="1083.885,545.418 1083.885,528.349 
	1083.885,458.948 1083.758,418.995 "/>
<path fill="#FFFFFF" d="M1078.525,549.364c0,2.889,2.343,5.232,5.231,5.232c2.896,0,5.234-2.345,5.234-5.232
	c0-2.892-2.34-5.234-5.234-5.234C1080.868,544.13,1078.525,546.474,1078.525,549.364z"/>
<path fill="#FFFFFF" d="M1078.525,418.995c0,2.893,2.343,5.233,5.231,5.233c2.896,0,5.234-2.342,5.234-5.233
	c0-2.893-2.34-5.234-5.234-5.234C1080.868,413.761,1078.525,416.103,1078.525,418.995z"/>
<polyline fill="none" stroke="#FFFFFF" stroke-width="8.5117" stroke-miterlimit="10" points="994.246,548.636 994.246,521.453 
	1019.701,495.688 1038.979,495.688 1068.211,524.198 1068.211,548.636 "/>
<polyline fill="none" stroke="#FFFFFF" stroke-width="8.5117" stroke-miterlimit="10" points="992.18,502.062 992.18,490.842 
	992.18,445.219 992.059,418.95 "/>
<polyline fill="none" stroke="#FFFFFF" stroke-width="8.5117" stroke-miterlimit="10" points="1065.891,501.938 1065.891,490.713 
	1065.891,445.09 1065.77,418.823 "/>
<circle fill="#FFFFFF" cx="994.098" cy="549.491" r="5.233"/>
<path fill="#FFFFFF" d="M986.824,419.125c0,2.888,2.342,5.231,5.233,5.231c2.893,0,5.234-2.345,5.234-5.231
	c0-2.894-2.342-5.233-5.234-5.233C989.166,413.892,986.824,416.231,986.824,419.125z"/>
<circle fill="#FFFFFF" cx="992.059" cy="502.063" r="5.234"/>
<circle fill="#FFFFFF" cx="1068.211" cy="549.491" r="5.233"/>
<path fill="#FFFFFF" d="M1060.939,419.125c0,2.888,2.342,5.231,5.235,5.231c2.89,0,5.229-2.345,5.229-5.231
	c0-2.894-2.34-5.233-5.229-5.233C1063.281,413.892,1060.939,416.231,1060.939,419.125z"/>
<path fill="#FFFFFF" d="M1060.939,502.062c0,2.893,2.342,5.234,5.235,5.234c2.89,0,5.229-2.343,5.229-5.234
	c0-2.89-2.34-5.233-5.229-5.233C1063.281,496.829,1060.939,499.174,1060.939,502.062z"/>
<polyline fill="none" stroke="#FFFFFF" stroke-width="8.5117" stroke-miterlimit="10" points="1006.462,480.924 1017.662,471.252 
	1037.946,471.252 1047.623,480.924 "/>
<path fill="#FFFFFF" d="M1044.779,482.142c0,2.893,2.344,5.234,5.235,5.234c2.888,0,5.234-2.343,5.234-5.234
	c0-2.891-2.348-5.232-5.234-5.232C1047.123,476.908,1044.779,479.25,1044.779,482.142z"/>
<path fill="#FFFFFF" d="M1001.855,482.047c0,2.893,2.345,5.236,5.236,5.236c2.891,0,5.231-2.346,5.231-5.236
	s-2.341-5.231-5.231-5.231C1004.2,476.814,1001.855,479.156,1001.855,482.047z"/>
<g>
	<path fill="#231F20" d="M1237.205,405.097h-16.291l-16.803,15.812v13.021l-24.268,24.271l-21.428-21.425v-16.681l-14.763-14.748
		h-16.289l-16.802,15.811v35.438l38.876,39.609c0.771-0.592,1.778-0.954,3.02-0.954h58.14l41.369-42.363v-33.039L1237.205,405.097z"
		/>
	<path fill="#231F20" d="M1207.041,473.15c-0.717,0.442-1.598,0.712-2.656,0.716c-17.623,0.056-35.207,1.382-52.744-0.273
		l-41.076,41.852v35.44l16.802,15.81h16.289l14.763-14.747v-16.68l21.428-21.425l24.268,24.27v13.018l16.803,15.812h16.291
		l14.763-14.748v-33.039L1207.041,473.15z"/>
</g>
<polyline fill="none" stroke="#FFFFFF" stroke-width="8.5117" stroke-miterlimit="10" points="1144.6,551.182 1144.6,532.662 
	1170.561,505.362 "/>
<polyline fill="none" stroke="#FFFFFF" stroke-width="8.5117" stroke-miterlimit="10" points="1217.816,551.273 1217.816,532.754 
	1191.854,505.454 "/>
<polyline fill="none" stroke="#FFFFFF" stroke-width="8.5117" stroke-miterlimit="10" points="1144.242,421.169 1144.242,439.686 
	1170.205,466.987 "/>
<polyline fill="none" stroke="#FFFFFF" stroke-width="8.5117" stroke-miterlimit="10" points="1217.461,421.075 1217.461,439.594 
	1191.5,466.893 "/>
<polyline fill="none" stroke="#FFFFFF" stroke-width="8.5117" stroke-miterlimit="10" points="1126.576,421.169 1126.512,444.078 
	1158.848,476.85 1158.848,492.965 1126.512,525.305 1125.984,551.273 "/>
<polyline fill="none" stroke="#FFFFFF" stroke-width="8.5117" stroke-miterlimit="10" points="1235.885,421.169 1235.953,444.078 
	1203.615,476.85 1203.615,492.965 1235.953,525.305 1236.48,551.273 "/>
<path fill="#FFFFFF" d="M1139.357,551.182c0,2.89,2.348,5.232,5.235,5.232c2.891,0,5.235-2.344,5.235-5.232
	c0-2.894-2.346-5.233-5.235-5.233C1141.705,545.947,1139.357,548.288,1139.357,551.182z"/>
<circle fill="#FFFFFF" cx="1125.983" cy="551.273" r="5.233"/>
<path fill="#FFFFFF" d="M1231.242,551.273c0,2.891,2.344,5.235,5.233,5.235s5.237-2.346,5.237-5.235
	c0-2.891-2.349-5.234-5.237-5.234C1233.586,546.039,1231.242,548.383,1231.242,551.273z"/>
<path fill="#FFFFFF" d="M1212.58,551.273c0,2.891,2.34,5.235,5.232,5.235c2.891,0,5.234-2.346,5.234-5.235
	c0-2.891-2.345-5.234-5.234-5.234C1214.92,546.039,1212.58,548.383,1212.58,551.273z"/>
<circle fill="#FFFFFF" cx="1235.883" cy="421.169" r="5.235"/>
<circle fill="#FFFFFF" cx="1218.279" cy="421.115" r="5.235"/>
<path fill="#FFFFFF" d="M1121.342,421.169c0,2.889,2.346,5.234,5.234,5.234c2.891,0,5.238-2.347,5.238-5.234
	c0-2.891-2.349-5.234-5.238-5.234C1123.688,415.935,1121.342,418.278,1121.342,421.169z"/>
<path fill="#FFFFFF" d="M1139.008,421.867c0,2.892,2.342,5.235,5.234,5.235c2.894,0,5.232-2.345,5.232-5.235
	s-2.34-5.233-5.232-5.233S1139.008,418.978,1139.008,421.867z"/>
<circle fill="#FFFFFF" cx="1170.561" cy="466.896" r="5.236"/>
<path fill="#FFFFFF" d="M1186.264,466.893c0,2.894,2.343,5.237,5.233,5.237c2.89,0,5.232-2.345,5.232-5.237
	c0-2.89-2.344-5.23-5.232-5.23C1188.605,461.661,1186.264,464.003,1186.264,466.893z"/>
<path fill="#FFFFFF" d="M1165.68,505.456c0,2.891,2.34,5.235,5.233,5.235c2.89,0,5.233-2.346,5.233-5.235
	c0-2.892-2.345-5.233-5.233-5.233C1168.02,500.223,1165.68,502.564,1165.68,505.456z"/>
<circle fill="#FFFFFF" cx="1191.851" cy="505.454" r="5.235"/>
<polygon fill="#231F20" points="54.095,635.573 100.805,683.167 100.805,729.318 117.096,745.92 133.898,745.92 148.66,731.849 
	148.66,679.825 195.496,631.864 195.496,598.825 180.736,584.076 164.444,584.076 147.641,599.886 147.641,612.906 123.373,637.177 
	101.949,615.752 101.949,599.072 87.184,584.325 70.894,584.325 54.095,600.134 "/>
<polyline fill="none" stroke="#FFFFFF" stroke-width="8.5117" stroke-miterlimit="10" points="68.906,600.68 68.906,623.08 
	115.799,669.539 115.799,729.781 "/>
<polyline fill="none" stroke="#FFFFFF" stroke-width="8.5117" stroke-miterlimit="10" points="180.685,600.68 180.685,623.08 
	133.791,669.539 133.791,729.781 "/>
<polyline fill="none" stroke="#FFFFFF" stroke-width="8.5117" stroke-miterlimit="10" points="87.207,600.68 87.234,614.938 
	115.799,644.099 "/>
<polyline fill="none" stroke="#FFFFFF" stroke-width="8.5117" stroke-miterlimit="10" points="160.625,600.68 160.596,614.938 
	132.031,644.099 "/>
<circle fill="#FFFFFF" cx="180.683" cy="600.68" r="5.234"/>
<path fill="#FFFFFF" d="M63.672,599.658c0,2.893,2.342,5.236,5.234,5.236c2.889,0,5.232-2.345,5.232-5.236
	c0-2.889-2.344-5.231-5.232-5.231C66.014,594.427,63.672,596.77,63.672,599.658z"/>
<circle fill="#FFFFFF" cx="87.207" cy="599.533" r="5.234"/>
<circle fill="#FFFFFF" cx="160.623" cy="600.552" r="5.232"/>
<circle fill="#FFFFFF" cx="134.822" cy="729.849" r="5.235"/>
<path fill="#FFFFFF" d="M110.553,729.72c0,2.889,2.338,5.232,5.229,5.232c2.893,0,5.236-2.345,5.236-5.232
	c0-2.893-2.344-5.236-5.236-5.236C112.891,724.482,110.553,726.827,110.553,729.72z"/>
<path fill="#FFFFFF" d="M126.622,644.463c0,2.891,2.346,5.234,5.239,5.234c2.891,0,5.233-2.346,5.233-5.234
	c0-2.895-2.343-5.234-5.233-5.234C128.968,639.229,126.622,641.568,126.622,644.463z"/>
<path fill="#FFFFFF" d="M110.643,644.332c0,2.889,2.344,5.236,5.236,5.236c2.891,0,5.232-2.349,5.232-5.236
	c0-2.891-2.342-5.234-5.232-5.234C112.986,639.098,110.643,641.441,110.643,644.332z"/>
<path fill="none" stroke="#FFFFFF" stroke-width="8.5117" stroke-miterlimit="10" d="M238.576,599.998"/>
<polygon fill="#231F20" points="328.615,746.201 226.098,746.217 204.568,724.689 204.787,700.739 272.916,632.162 220.512,632.102 
	204.703,615.302 204.703,599.011 219.451,584.246 322.598,584.246 344.871,607.045 345.215,627.745 274.891,698.291 
	331.143,698.343 345.215,713.109 345.215,729.909 "/>
<line fill="none" stroke="#FFFFFF" stroke-width="8.5117" stroke-miterlimit="10" x1="221.84" y1="600.384" x2="312.877" y2="600.384"/>
<path fill="#FFFFFF" d="M307.639,601.017c0,2.892,2.346,5.233,5.238,5.233c2.891,0,5.23-2.343,5.23-5.233
	c0-2.89-2.34-5.233-5.23-5.233C309.984,595.782,307.639,598.126,307.639,601.017z"/>
<circle fill="#FFFFFF" cx="221.842" cy="600.384" r="5.234"/>
<line fill="none" stroke="#FFFFFF" stroke-width="8.5117" stroke-miterlimit="10" x1="238.172" y1="730.507" x2="329.206" y2="730.507"/>
<circle fill="#FFFFFF" cx="329.206" cy="731.136" r="5.233"/>
<path fill="#FFFFFF" d="M232.938,730.507c0,2.89,2.342,5.233,5.234,5.233c2.891,0,5.23-2.346,5.23-5.233
	c0-2.893-2.34-5.233-5.23-5.233C235.279,725.271,232.938,727.614,232.938,730.507z"/>
<polyline fill="none" stroke="#FFFFFF" stroke-width="8.5117" stroke-miterlimit="10" points="330.281,601.017 330.238,619.854 
	251.551,698.983 "/>
<polyline fill="none" stroke="#FFFFFF" stroke-width="8.5117" stroke-miterlimit="10" points="219.836,726.364 219.873,707.526 
	298.82,628.143 "/>
<path fill="#FFFFFF" d="M296.602,625.454c0,2.89,2.34,5.231,5.229,5.231c2.895,0,5.24-2.343,5.24-5.231
	c0-2.893-2.346-5.235-5.24-5.235C298.941,620.219,296.602,622.562,296.602,625.454z"/>
<path fill="#FFFFFF" d="M246.74,698.893c0,2.887,2.342,5.231,5.234,5.231c2.889,0,5.234-2.346,5.234-5.231
	c0-2.893-2.346-5.231-5.234-5.231C249.082,693.66,246.74,696,246.74,698.893z"/>
<circle fill="#FFFFFF" cx="330.224" cy="605.618" r="5.233"/>
<path fill="#FFFFFF" d="M215.353,725.146c0,2.891,2.34,5.233,5.233,5.233c2.891,0,5.232-2.344,5.232-5.233
	c0-2.896-2.342-5.234-5.232-5.234C217.692,719.911,215.353,722.251,215.353,725.146z"/>
<line fill="none" stroke="#FFFFFF" stroke-width="8.5117" stroke-miterlimit="10" x1="239.248" y1="711.496" x2="330.281" y2="711.496"/>
<path fill="#FFFFFF" d="M325.048,712.13c0,2.889,2.343,5.233,5.233,5.233c2.889,0,5.233-2.346,5.233-5.233
	c0-2.895-2.345-5.233-5.233-5.233C327.391,706.896,325.048,709.235,325.048,712.13z"/>
<circle fill="#FFFFFF" cx="239.246" cy="711.496" r="5.233"/>
<line fill="none" stroke="#FFFFFF" stroke-width="8.5117" stroke-miterlimit="10" x1="224.312" y1="615.586" x2="315.346" y2="615.586"/>
<path fill="#FFFFFF" d="M310.111,616.218c0,2.89,2.344,5.231,5.234,5.231c2.889,0,5.234-2.343,5.234-5.231
	c0-2.894-2.346-5.237-5.234-5.237C312.455,610.979,310.111,613.324,310.111,616.218z"/>
<path fill="#FFFFFF" d="M219.075,615.586c0,2.89,2.345,5.234,5.237,5.234c2.889,0,5.229-2.346,5.229-5.234
	c0-2.893-2.341-5.232-5.229-5.232C221.42,610.354,219.075,612.693,219.075,615.586z"/>
</svg>
