<?xml version="1.0" encoding="utf-8"?>
<!-- Generator: Adobe Illustrator 15.0.0, SVG Export Plug-In . SVG Version: 6.00 Build 0)  -->
<!DOCTYPE svg PUBLIC "-//W3C//DTD SVG 1.1//EN" "http://www.w3.org/Graphics/SVG/1.1/DTD/svg11.dtd">
<svg version="1.1" id="Layer_1" xmlns="http://www.w3.org/2000/svg" xmlns:xlink="http://www.w3.org/1999/xlink" x="0px" y="0px"
	 width="1310px" height="792px" viewBox="0 0 1310 792" enable-background="new 0 0 1310 792" xml:space="preserve">
<rect fill="#FFFFFF" width="1310" height="792"/>
<g>
	<polyline fill="none" stroke="#231F20" stroke-width="3" stroke-miterlimit="10" points="83.089,187.474 83.089,170.708 
		83.089,98.044 117.489,63.645 155.509,63.645 190.822,98.958 190.822,153.708 190.822,170.708 190.822,187.474 	"/>
	<polyline fill="none" stroke="#231F20" stroke-width="3" stroke-miterlimit="10" points="110.479,95.645 124.81,81.314 
		148.188,81.314 162.521,95.646 	"/>
	<polyline fill="none" stroke="#231F20" stroke-width="3" stroke-miterlimit="10" points="100.759,187.474 100.759,172.709 
		100.759,155.835 	"/>
	<circle fill="#231F20" cx="191.036" cy="191.349" r="5.141"/>
	<circle fill="#231F20" cx="82.968" cy="191.349" r="5.141"/>
	<circle fill="#231F20" cx="173.152" cy="191.739" r="5.141"/>
	<circle fill="#231F20" cx="100.759" cy="191.613" r="5.141"/>
	<circle fill="#231F20" cx="100.759" cy="151.373" r="5.141"/>
	<circle fill="#231F20" cx="172.938" cy="151.375" r="5.141"/>
	<circle fill="#231F20" cx="164.838" cy="98.704" r="5.141"/>
	<circle fill="#231F20" cx="107.352" cy="98.709" r="5.141"/>
	
		<line fill="none" stroke="#231F20" stroke-width="3" stroke-miterlimit="10" x1="100.759" y1="128.146" x2="173.153" y2="128.146"/>
	<circle fill="#231F20" cx="177.077" cy="128.146" r="5.141"/>
	<circle fill="#231F20" cx="96.619" cy="128.458" r="5.141"/>
	<polyline fill="none" stroke="#231F20" stroke-width="3" stroke-miterlimit="10" points="172.938,187.292 172.938,172.527 
		172.938,155.653 	"/>
</g>
<polyline fill="none" stroke="#231F20" stroke-width="3" stroke-miterlimit="10" points="338.293,159.248 338.293,174.247 
	319.507,191.917 247.923,191.917 230.253,174.247 230.253,82.625 248.229,64.383 319.755,64.383 338.293,82.053 338.293,97.052 "/>
<circle fill="#231F20" cx="338.293" cy="102.068" r="5.142"/>
<circle fill="#231F20" cx="338.293" cy="153.982" r="5.142"/>
<polyline fill="none" stroke="#231F20" stroke-width="3" stroke-miterlimit="10" points="320.623,152.846 320.623,163.127 
	305.923,178.251 261.878,178.251 246.879,163.252 246.879,152.846 "/>
<polyline fill="none" stroke="#231F20" stroke-width="3" stroke-miterlimit="10" points="320.255,106.619 320.255,92.923 
	306.292,78.049 263.229,78.049 248.229,93.048 248.229,106.619 "/>
<circle fill="#231F20" cx="320.623" cy="111.635" r="5.141"/>
<circle fill="#231F20" cx="320.623" cy="148.581" r="5.141"/>
<circle fill="#231F20" cx="248.229" cy="111.51" r="5.141"/>
<circle fill="#231F20" cx="246.878" cy="148.581" r="5.14"/>
<line fill="none" stroke="#231F20" stroke-width="3" stroke-miterlimit="10" x1="248.183" y1="129.991" x2="320.577" y2="129.991"/>
<circle fill="#231F20" cx="324.502" cy="129.991" r="5.141"/>
<circle fill="#231F20" cx="244.043" cy="130.303" r="5.142"/>
<polyline fill="none" stroke="#231F20" stroke-width="3" stroke-miterlimit="10" points="477.133,64.936 467.854,64.936 
	410.354,64.936 377.853,97.435 377.853,157.936 410.827,191.936 467.854,191.936 477.133,191.936 "/>
<polyline fill="none" stroke="#231F20" stroke-width="3" stroke-miterlimit="10" points="467.854,174.56 426.39,174.56 
	410.827,158.997 "/>
<line fill="none" stroke="#231F20" stroke-width="3" stroke-miterlimit="10" x1="391.824" y1="143.998" x2="391.824" y2="111.705"/>
<polyline fill="none" stroke="#231F20" stroke-width="3" stroke-miterlimit="10" points="410.169,97.364 425.168,82.365 
	467.854,82.365 "/>
<circle fill="#231F20" cx="471.993" cy="174.56" r="5.14"/>
<circle fill="#231F20" cx="471.993" cy="82.365" r="5.14"/>
<circle fill="#231F20" cx="481.271" cy="192.614" r="5.141"/>
<circle fill="#231F20" cx="480.35" cy="64.936" r="5.141"/>
<circle fill="#231F20" cx="408.166" cy="156.516" r="5.141"/>
<circle fill="#231F20" cx="408.03" cy="98.709" r="5.141"/>
<circle fill="#231F20" cx="391.823" cy="148.842" r="5.141"/>
<circle fill="#231F20" cx="391.823" cy="107.208" r="5.141"/>
<g>
	<polyline fill="none" stroke="#231F20" stroke-width="3" stroke-miterlimit="10" points="569.185,62.828 601.222,62.828 
		633.185,94.828 633.685,156.828 601.185,189.828 569.185,189.828 	"/>
	<circle fill="#231F20" cx="566.06" cy="63.088" r="5.141"/>
	<circle fill="#231F20" cx="566.9" cy="190.622" r="5.141"/>
	<line fill="none" stroke="#231F20" stroke-width="3" stroke-miterlimit="10" x1="543.185" y1="95.828" x2="543.185" y2="157.953"/>
	<polyline fill="none" stroke="#231F20" stroke-width="3" stroke-miterlimit="10" points="543.185,63.088 525.185,80.328 
		525.185,173.327 541.685,189.828 	"/>
	<circle fill="#231F20" cx="545.105" cy="62.408" r="5.14"/>
	<circle fill="#231F20" cx="544.16" cy="191.624" r="5.141"/>
	<polyline fill="none" stroke="#231F20" stroke-width="3" stroke-miterlimit="10" points="557.685,80.328 585.435,80.328 
		615.185,110.328 615.185,143.829 586.435,172.952 557.685,172.952 	"/>
	<circle fill="#231F20" cx="555.263" cy="80.758" r="5.141"/>
	<circle fill="#231F20" cx="555.138" cy="172.952" r="5.141"/>
	<circle fill="#231F20" cx="543.159" cy="93.203" r="5.141"/>
	<circle fill="#231F20" cx="543.159" cy="160.203" r="5.141"/>
</g>
<g>
	<line fill="none" stroke="#231F20" stroke-width="3" stroke-miterlimit="10" x1="689.784" y1="127.007" x2="726.09" y2="127.007"/>
	<circle fill="#231F20" cx="730.015" cy="127.007" r="5.141"/>
	<circle fill="#231F20" cx="684.644" cy="127.007" r="5.14"/>
	<circle fill="#231F20" cx="779.271" cy="190.879" r="5.141"/>
	<circle fill="#231F20" cx="779.722" cy="63.742" r="5.141"/>
	<polyline fill="none" stroke="#231F20" stroke-width="3" stroke-miterlimit="10" points="779.271,190.879 689.057,190.879 
		671.811,173.634 671.811,80.633 688.811,63.634 779.849,63.634 	"/>
	<polyline fill="none" stroke="#231F20" stroke-width="3" stroke-miterlimit="10" points="762.311,173.134 704.42,173.134 
		689.311,158.134 689.311,148.134 	"/>
	<polyline fill="none" stroke="#231F20" stroke-width="3" stroke-miterlimit="10" points="762.186,81.063 704.294,81.063 
		689.186,96.063 689.186,106.063 	"/>
	<circle fill="#231F20" cx="763.179" cy="81.063" r="5.14"/>
	<circle fill="#231F20" cx="762.31" cy="173.134" r="5.141"/>
	<circle fill="#231F20" cx="689.785" cy="146.268" r="5.141"/>
	<circle fill="#231F20" cx="689.785" cy="107.809" r="5.141"/>
</g>
<line fill="none" stroke="#231F20" stroke-width="3" stroke-miterlimit="10" x1="834.314" y1="127.901" x2="870.619" y2="127.901"/>
<circle fill="#231F20" cx="874.544" cy="127.901" r="5.141"/>
<circle fill="#231F20" cx="829.173" cy="127.901" r="5.141"/>
<circle fill="#231F20" cx="924.252" cy="64.635" r="5.141"/>
<polyline fill="none" stroke="#231F20" stroke-width="3" stroke-miterlimit="10" points="924.378,64.527 833.34,64.527 
	816.34,81.526 816.34,166.527 816.34,191.821 "/>
<polyline fill="none" stroke="#231F20" stroke-width="3" stroke-miterlimit="10" points="906.714,81.957 848.824,81.957 
	833.714,96.957 833.714,106.957 "/>
<circle fill="#231F20" cx="907.709" cy="81.957" r="5.142"/>
<circle fill="#231F20" cx="834.314" cy="147.161" r="5.141"/>
<circle fill="#231F20" cx="834.314" cy="108.702" r="5.141"/>
<line fill="none" stroke="#231F20" stroke-width="3" stroke-miterlimit="10" x1="834.314" y1="152.302" x2="834.314" y2="191.772"/>
<circle fill="#231F20" cx="834.314" cy="192.501" r="5.141"/>
<circle fill="#231F20" cx="816.339" cy="191.821" r="5.14"/>
<polyline fill="none" stroke="#231F20" stroke-width="3" stroke-miterlimit="10" points="1065.29,64.696 1056.011,64.696 
	998.511,64.696 966.011,97.195 966.011,157.696 998.982,191.696 1039.876,191.696 1055.466,191.696 1071.301,175.862 
	1071.301,148.602 "/>
<polyline fill="none" stroke="#231F20" stroke-width="3" stroke-miterlimit="10" points="998.982,158.757 1014.546,174.32 
	1031.337,174.32 1039.874,174.32 1053.337,159.936 1053.337,148.602 "/>
<line fill="none" stroke="#231F20" stroke-width="3" stroke-miterlimit="10" x1="979.98" y1="143.758" x2="979.98" y2="111.465"/>
<polyline fill="none" stroke="#231F20" stroke-width="3" stroke-miterlimit="10" points="998.325,97.125 1013.325,82.125 
	1056.011,82.125 "/>
<circle fill="#231F20" cx="1060.149" cy="82.125" r="5.141"/>
<circle fill="#231F20" cx="1068.507" cy="64.696" r="5.141"/>
<circle fill="#231F20" cx="996.323" cy="156.276" r="5.141"/>
<circle fill="#231F20" cx="996.188" cy="98.47" r="5.141"/>
<circle fill="#231F20" cx="979.979" cy="148.602" r="5.141"/>
<circle fill="#231F20" cx="979.979" cy="106.969" r="5.141"/>
<line fill="none" stroke="#231F20" stroke-width="3" stroke-miterlimit="10" x1="1025.931" y1="127.612" x2="1062.235" y2="127.612"/>
<circle fill="#231F20" cx="1066.16" cy="127.612" r="5.141"/>
<circle fill="#231F20" cx="1020.79" cy="127.612" r="5.141"/>
<circle fill="#231F20" cx="1071.3" cy="148.602" r="5.14"/>
<circle fill="#231F20" cx="1053.337" cy="148.602" r="5.141"/>
<polyline fill="none" stroke="#231F20" stroke-width="3" stroke-miterlimit="10" points="1111.688,188.858 1111.688,172.093 
	1111.688,103.936 1111.566,64.696 "/>
<polyline fill="none" stroke="#231F20" stroke-width="3" stroke-miterlimit="10" points="1129.357,188.858 1129.357,174.094 
	1129.357,157.22 "/>
<circle fill="#231F20" cx="1219.634" cy="192.733" r="5.141"/>
<circle fill="#231F20" cx="1111.566" cy="192.733" r="5.14"/>
<circle fill="#231F20" cx="1201.751" cy="193.124" r="5.141"/>
<circle fill="#231F20" cx="1129.357" cy="192.998" r="5.14"/>
<circle fill="#231F20" cx="1129.357" cy="152.758" r="5.14"/>
<circle fill="#231F20" cx="1201.537" cy="152.76" r="5.141"/>
<line fill="none" stroke="#231F20" stroke-width="3" stroke-miterlimit="10" x1="1129.357" y1="129.531" x2="1201.752" y2="129.531"/>
<circle fill="#231F20" cx="1205.677" cy="129.531" r="5.141"/>
<circle fill="#231F20" cx="1125.218" cy="129.843" r="5.141"/>
<polyline fill="none" stroke="#231F20" stroke-width="3" stroke-miterlimit="10" points="1201.536,188.677 1201.536,173.912 
	1201.536,157.038 "/>
<polyline fill="none" stroke="#231F20" stroke-width="3" stroke-miterlimit="10" points="1219.421,188.733 1219.421,171.968 
	1219.421,103.811 1219.3,64.571 "/>
<circle fill="#231F20" cx="1219.3" cy="64.571" r="5.141"/>
<circle fill="#231F20" cx="1111.566" cy="64.696" r="5.14"/>
<circle fill="#231F20" cx="1201.965" cy="105.059" r="5.141"/>
<circle fill="#231F20" cx="1201.751" cy="64.696" r="5.141"/>
<polyline fill="none" stroke="#231F20" stroke-width="3" stroke-miterlimit="10" points="1201.751,100.612 1201.751,85.848 
	1201.751,68.974 "/>
<circle fill="#231F20" cx="1129.571" cy="105.059" r="5.141"/>
<circle fill="#231F20" cx="1129.357" cy="64.696" r="5.14"/>
<polyline fill="none" stroke="#231F20" stroke-width="3" stroke-miterlimit="10" points="1129.357,100.612 1129.357,85.848 
	1129.357,68.974 "/>
<polyline fill="none" stroke="#231F20" stroke-width="3" stroke-miterlimit="10" points="83.171,362.147 83.171,345.381 
	83.171,277.224 83.05,237.984 "/>
<circle fill="#231F20" cx="83.05" cy="366.022" r="5.141"/>
<circle fill="#231F20" cx="83.05" cy="237.984" r="5.141"/>
<polyline fill="none" stroke="#231F20" stroke-width="3" stroke-miterlimit="10" points="100.841,362.147 100.841,345.381 
	100.841,277.224 100.72,237.984 "/>
<circle fill="#231F20" cx="100.72" cy="366.022" r="5.141"/>
<circle fill="#231F20" cx="100.72" cy="237.984" r="5.141"/>
<polyline fill="none" stroke="#231F20" stroke-width="3" stroke-miterlimit="10" points="147.523,366.51 156.802,366.51 
	213.829,366.51 246.802,332.51 246.802,277.849 246.765,238.349 "/>
<circle fill="#231F20" cx="143.384" cy="367.188" r="5.141"/>
<circle fill="#231F20" cx="246.765" cy="238.349" r="5.141"/>
<polyline fill="none" stroke="#231F20" stroke-width="3" stroke-miterlimit="10" points="152.765,348.243 194.229,348.243 
	209.791,332.681 "/>
<polyline fill="none" stroke="#231F20" stroke-width="3" stroke-miterlimit="10" points="228.794,317.682 228.794,285.389 
	228.797,246.849 228.797,243.067 "/>
<circle fill="#231F20" cx="148.626" cy="348.243" r="5.141"/>
<circle fill="#231F20" cx="212.452" cy="330.2" r="5.141"/>
<circle fill="#231F20" cx="228.794" cy="322.525" r="5.141"/>
<circle fill="#231F20" cx="229.132" cy="238.108" r="5.141"/>
<polyline fill="none" stroke="#231F20" stroke-width="3" stroke-miterlimit="10" points="287.903,362.281 287.903,345.515 
	287.903,277.358 287.782,238.118 "/>
<circle fill="#231F20" cx="287.782" cy="366.156" r="5.141"/>
<circle fill="#231F20" cx="287.782" cy="238.118" r="5.141"/>
<polyline fill="none" stroke="#231F20" stroke-width="3" stroke-miterlimit="10" points="386.912,233.521 362.561,258.043 
	320.113,300.491 309.673,310.932 304.978,315.455 305.452,365.604 "/>
<circle fill="#231F20" cx="386.913" cy="233.521" r="5.141"/>
<line fill="none" stroke="#231F20" stroke-width="3" stroke-miterlimit="10" x1="304.978" y1="238.358" x2="304.978" y2="289.442"/>
<circle fill="#231F20" cx="304.978" cy="292.581" r="5.141"/>
<circle fill="#231F20" cx="305.452" cy="238.118" r="5.141"/>
<circle fill="#231F20" cx="305.832" cy="366.704" r="5.141"/>
<polyline fill="none" stroke="#231F20" stroke-width="3" stroke-miterlimit="10" points="395.517,249.905 354.478,292.581 
	354.478,314.806 395.517,355.844 "/>
<line fill="none" stroke="#231F20" stroke-width="3" stroke-miterlimit="10" x1="330.052" y1="315.368" x2="381.772" y2="367.088"/>
<circle fill="#231F20" cx="397.517" cy="247.903" r="5.14"/>
<circle fill="#231F20" cx="395.515" cy="355.844" r="5.141"/>
<circle fill="#231F20" cx="384.119" cy="369.109" r="5.141"/>
<circle fill="#231F20" cx="331.053" cy="315.369" r="5.141"/>
<g>
	<circle fill="#231F20" cx="543.191" cy="365.924" r="5.141"/>
	<circle fill="#231F20" cx="526.229" cy="348.178" r="5.141"/>
	<circle fill="#231F20" cx="543.191" cy="365.924" r="5.141"/>
	<polyline fill="none" stroke="#231F20" stroke-width="3" stroke-miterlimit="10" points="543.191,365.924 452.976,365.924 
		435.729,348.678 435.729,271.108 435.729,238.438 	"/>
	<circle fill="#231F20" cx="435.729" cy="238.439" r="5.141"/>
	<polyline fill="none" stroke="#231F20" stroke-width="3" stroke-miterlimit="10" points="525.56,349.571 467.669,349.571 
		452.56,334.571 452.56,324.571 	"/>
	<circle fill="#231F20" cx="525.56" cy="349.571" r="5.141"/>
	<circle fill="#231F20" cx="453.034" cy="322.705" r="5.141"/>
	
		<line fill="none" stroke="#231F20" stroke-width="3" stroke-miterlimit="10" x1="453.229" y1="238.678" x2="453.229" y2="299.178"/>
	<circle fill="#231F20" cx="453.229" cy="301.91" r="5.141"/>
	<circle fill="#231F20" cx="453.704" cy="238.438" r="5.141"/>
</g>
<polyline fill="none" stroke="#231F20" stroke-width="3" stroke-miterlimit="10" points="584.599,363.321 584.599,346.555 
	584.599,278.398 584.479,239.158 "/>
<circle fill="#231F20" cx="584.479" cy="367.196" r="5.141"/>
<circle fill="#231F20" cx="584.479" cy="239.158" r="5.141"/>
<polyline fill="none" stroke="#231F20" stroke-width="3" stroke-miterlimit="10" points="692.195,363.321 692.195,346.555 
	692.195,278.398 692.074,239.158 "/>
<circle fill="#231F20" cx="692.074" cy="367.196" r="5.14"/>
<circle fill="#231F20" cx="692.074" cy="239.158" r="5.14"/>
<polyline fill="none" stroke="#231F20" stroke-width="3" stroke-miterlimit="10" points="678.036,238.898 648.286,268.824 
	629.005,268.824 599.079,238.898 "/>
<circle fill="#231F20" cx="678.036" cy="238.898" r="5.141"/>
<circle fill="#231F20" cx="599.079" cy="238.898" r="5.141"/>
<line fill="none" stroke="#231F20" stroke-width="3" stroke-miterlimit="10" x1="602.011" y1="363.286" x2="602.011" y2="286.018"/>
<line fill="none" stroke="#231F20" stroke-width="3" stroke-miterlimit="10" x1="674.405" y1="363.546" x2="674.405" y2="286.277"/>
<polyline fill="none" stroke="#231F20" stroke-width="3" stroke-miterlimit="10" points="597.189,260.996 629.842,293.648 
	649.372,293.648 682.024,260.996 "/>
<circle fill="#231F20" cx="681.179" cy="260.996" r="5.141"/>
<circle fill="#231F20" cx="597.189" cy="260.996" r="5.14"/>
<circle fill="#231F20" cx="602.011" cy="367.196" r="5.14"/>
<circle fill="#231F20" cx="674.405" cy="367.196" r="5.141"/>
<circle fill="#231F20" cx="674.407" cy="286.018" r="5.141"/>
<circle fill="#231F20" cx="602.332" cy="286.018" r="5.141"/>
<g>
	<polyline fill="none" stroke="#231F20" stroke-width="3" stroke-miterlimit="10" points="730.169,362.893 730.169,346.127 
		730.169,277.97 730.049,238.73 	"/>
	<circle fill="#231F20" cx="730.049" cy="366.768" r="5.141"/>
	<circle fill="#231F20" cx="730.049" cy="238.73" r="5.141"/>
	<polyline fill="none" stroke="#231F20" stroke-width="3" stroke-miterlimit="10" points="838.023,363.018 838.023,346.252 
		838.023,278.095 837.903,238.855 	"/>
	<circle fill="#231F20" cx="837.903" cy="366.893" r="5.141"/>
	<circle fill="#231F20" cx="837.903" cy="238.855" r="5.141"/>
	<polyline fill="none" stroke="#231F20" stroke-width="3" stroke-miterlimit="10" points="824.546,318.6 813.749,307.803 
		769.859,263.914 744.506,238.731 	"/>
	<circle fill="#231F20" cx="826.375" cy="320.267" r="5.14"/>
	<circle fill="#231F20" cx="744.506" cy="238.731" r="5.141"/>
	<polyline fill="none" stroke="#231F20" stroke-width="3" stroke-miterlimit="10" points="742.312,259.984 766.855,284.355 
		809.337,326.837 819.786,337.287 819.786,363.018 	"/>
	<circle fill="#231F20" cx="820.232" cy="366.893" r="5.14"/>
	
		<line fill="none" stroke="#231F20" stroke-width="3" stroke-miterlimit="10" x1="819.786" y1="238.855" x2="819.786" y2="294.778"/>
	
		<line fill="none" stroke="#231F20" stroke-width="3" stroke-miterlimit="10" x1="747.839" y1="286.778" x2="747.839" y2="365.888"/>
	<circle fill="#231F20" cx="820.372" cy="297.264" r="5.14"/>
	<circle fill="#231F20" cx="820.372" cy="238.789" r="5.14"/>
	<circle fill="#231F20" cx="747.84" cy="366.889" r="5.141"/>
	<circle fill="#231F20" cx="747.84" cy="287.286" r="5.141"/>
	<circle fill="#231F20" cx="744.315" cy="261.986" r="5.14"/>
</g>
<line fill="none" stroke="#231F20" stroke-width="3" stroke-miterlimit="10" x1="1042.302" y1="302.74" x2="1078.605" y2="302.74"/>
<circle fill="#231F20" cx="1082.532" cy="302.74" r="5.14"/>
<circle fill="#231F20" cx="1037.161" cy="302.74" r="5.141"/>
<polyline fill="none" stroke="#231F20" stroke-width="3" stroke-miterlimit="10" points="1024.327,366.66 1024.327,341.366 
	1024.327,256.365 1041.327,239.366 1115.2,239.366 1132.87,256.796 1132.832,280.606 "/>
<polyline fill="none" stroke="#231F20" stroke-width="3" stroke-miterlimit="10" points="1041.702,281.796 1041.702,271.796 
	1056.812,256.796 1108.89,256.796 1115.332,263.106 1115.332,287.484 1115.332,295.326 1106.089,303.168 "/>
<circle fill="#231F20" cx="1042.302" cy="322" r="5.141"/>
<circle fill="#231F20" cx="1042.302" cy="283.541" r="5.141"/>
<line fill="none" stroke="#231F20" stroke-width="3" stroke-miterlimit="10" x1="1042.302" y1="327.141" x2="1042.302" y2="366.611"/>
<circle fill="#231F20" cx="1042.302" cy="367.34" r="5.141"/>
<circle fill="#231F20" cx="1024.327" cy="366.66" r="5.141"/>
<circle fill="#231F20" cx="1103.788" cy="302.801" r="5.141"/>
<circle fill="#231F20" cx="1132.831" cy="280.606" r="5.141"/>
<g>
	<polyline fill="none" stroke="#231F20" stroke-width="3" stroke-miterlimit="10" points="917.842,237.786 909.028,237.786 
		876.528,270.285 876.528,330.786 909.501,364.786 918.34,364.786 	"/>
	<polyline fill="none" stroke="#231F20" stroke-width="3" stroke-miterlimit="10" points="904.497,333.85 920.061,349.412 
		937.993,349.412 942.999,349.412 958.562,333.85 	"/>
	<line fill="none" stroke="#231F20" stroke-width="3" stroke-miterlimit="10" x1="891.5" y1="315.848" x2="891.5" y2="283.555"/>
	<polyline fill="none" stroke="#231F20" stroke-width="3" stroke-miterlimit="10" points="905.841,269.214 920.839,254.215 
		943.426,254.215 960.839,270.559 	"/>
	<circle fill="#231F20" cx="901.836" cy="331.369" r="5.141"/>
	<circle fill="#231F20" cx="903.702" cy="270.559" r="5.141"/>
	<circle fill="#231F20" cx="891.499" cy="320.691" r="5.141"/>
	<circle fill="#231F20" cx="891.499" cy="279.059" r="5.141"/>
	<circle fill="#231F20" cx="961.575" cy="271.137" r="5.141"/>
	<circle fill="#231F20" cx="960.79" cy="331.334" r="5.141"/>
	
		<line fill="none" stroke="#231F20" stroke-width="3" stroke-miterlimit="10" x1="971.325" y1="317.904" x2="971.325" y2="285.611"/>
	<circle fill="#231F20" cx="971.325" cy="322.748" r="5.141"/>
	<circle fill="#231F20" cx="971.325" cy="281.115" r="5.141"/>
	<polyline fill="none" stroke="#231F20" stroke-width="3" stroke-miterlimit="10" points="944.683,237.66 953.495,237.66 
		985.995,270.16 985.995,330.66 953.021,364.66 944.186,364.66 	"/>
	<circle fill="#231F20" cx="942.997" cy="237.786" r="5.141"/>
	<circle fill="#231F20" cx="917.841" cy="237.786" r="5.141"/>
	<circle fill="#231F20" cx="918.339" cy="364.786" r="5.141"/>
	<circle fill="#231F20" cx="944.183" cy="364.66" r="5.141"/>
</g>
<polyline fill="none" stroke="#231F20" stroke-width="3" stroke-miterlimit="10" points="124.084,418.594 115.271,418.594 
	82.771,451.094 82.771,511.594 115.744,545.594 124.581,545.594 155.607,545.594 "/>
<polyline fill="none" stroke="#231F20" stroke-width="3" stroke-miterlimit="10" points="110.739,514.656 126.302,530.219 
	136.366,530.219 "/>
<line fill="none" stroke="#231F20" stroke-width="3" stroke-miterlimit="10" x1="97.742" y1="496.654" x2="97.742" y2="464.361"/>
<polyline fill="none" stroke="#231F20" stroke-width="3" stroke-miterlimit="10" points="112.083,450.021 127.081,435.021 
	149.668,435.021 167.081,451.367 "/>
<circle fill="#231F20" cx="108.077" cy="512.176" r="5.141"/>
<circle fill="#231F20" cx="109.944" cy="451.367" r="5.141"/>
<circle fill="#231F20" cx="97.741" cy="501.498" r="5.141"/>
<circle fill="#231F20" cx="97.741" cy="459.865" r="5.141"/>
<circle fill="#231F20" cx="167.817" cy="451.945" r="5.141"/>
<circle fill="#231F20" cx="139.456" cy="530.141" r="5.141"/>
<line fill="none" stroke="#231F20" stroke-width="3" stroke-miterlimit="10" x1="177.567" y1="498.711" x2="177.567" y2="466.418"/>
<circle fill="#231F20" cx="177.567" cy="503.555" r="5.141"/>
<circle fill="#231F20" cx="177.567" cy="461.922" r="5.141"/>
<polyline fill="none" stroke="#231F20" stroke-width="3" stroke-miterlimit="10" points="150.924,418.467 159.737,418.467 
	192.237,450.967 192.237,503.016 "/>
<circle fill="#231F20" cx="149.241" cy="418.594" r="5.14"/>
<circle fill="#231F20" cx="124.083" cy="418.594" r="5.141"/>
<circle fill="#231F20" cx="155.611" cy="545.594" r="5.141"/>
<circle fill="#231F20" cx="192.237" cy="505.557" r="5.141"/>
<line fill="none" stroke="#231F20" stroke-width="3" stroke-miterlimit="10" x1="152.993" y1="498.711" x2="196.288" y2="542.006"/>
<line fill="none" stroke="#231F20" stroke-width="3" stroke-miterlimit="10" x1="134.315" y1="505.021" x2="181.445" y2="552.152"/>
<circle fill="#231F20" cx="151.991" cy="498.713" r="5.141"/>
<circle fill="#231F20" cx="137.266" cy="507.973" r="5.141"/>
<circle fill="#231F20" cx="194.286" cy="540.453" r="5.141"/>
<circle fill="#231F20" cx="180.604" cy="551.312" r="5.141"/>
<line fill="none" stroke="#231F20" stroke-width="3" stroke-miterlimit="10" x1="247.473" y1="481.846" x2="283.777" y2="481.846"/>
<circle fill="#231F20" cx="287.702" cy="481.846" r="5.141"/>
<circle fill="#231F20" cx="242.332" cy="481.846" r="5.141"/>
<polyline fill="none" stroke="#231F20" stroke-width="3" stroke-miterlimit="10" points="229.497,545.766 229.497,520.473 
	229.497,435.471 246.497,418.473 320.37,418.473 338.041,435.902 338.003,459.713 "/>
<polyline fill="none" stroke="#231F20" stroke-width="3" stroke-miterlimit="10" points="246.873,460.902 246.873,450.902 
	261.982,435.902 314.061,435.902 320.503,442.213 320.503,466.59 320.503,474.432 311.26,482.273 "/>
<circle fill="#231F20" cx="247.473" cy="501.105" r="5.141"/>
<circle fill="#231F20" cx="247.473" cy="462.646" r="5.141"/>
<line fill="none" stroke="#231F20" stroke-width="3" stroke-miterlimit="10" x1="247.473" y1="506.246" x2="247.473" y2="545.717"/>
<circle fill="#231F20" cx="247.473" cy="546.445" r="5.141"/>
<circle fill="#231F20" cx="229.498" cy="545.766" r="5.141"/>
<circle fill="#231F20" cx="308.959" cy="481.906" r="5.141"/>
<circle fill="#231F20" cx="338.002" cy="459.713" r="5.141"/>
<line fill="none" stroke="#231F20" stroke-width="3" stroke-miterlimit="10" x1="277.401" y1="501.105" x2="319.647" y2="543.354"/>
<line fill="none" stroke="#231F20" stroke-width="3" stroke-miterlimit="10" x1="298.532" y1="495.965" x2="338.042" y2="536.76"/>
<circle fill="#231F20" cx="298.534" cy="495.965" r="5.14"/>
<circle fill="#231F20" cx="338.476" cy="538.707" r="5.141"/>
<circle fill="#231F20" cx="277.399" cy="501.105" r="5.141"/>
<circle fill="#231F20" cx="321.65" cy="545.717" r="5.141"/>
<g>
	<polyline fill="none" stroke="#231F20" stroke-width="3" stroke-miterlimit="10" points="484.118,417.621 409.092,417.621 
		376.118,451.121 376.118,476.121 	"/>
	<polyline fill="none" stroke="#231F20" stroke-width="3" stroke-miterlimit="10" points="375.976,546.748 451.001,546.748 
		483.976,513.248 483.976,488.25 	"/>
	<circle fill="#231F20" cx="484.985" cy="418.381" r="5.141"/>
	<circle fill="#231F20" cx="376.118" cy="476.121" r="5.141"/>
	<circle fill="#231F20" cx="483.974" cy="488.25" r="5.141"/>
	<circle fill="#231F20" cx="375.974" cy="546.748" r="5.141"/>
	
		<line fill="none" stroke="#231F20" stroke-width="3" stroke-miterlimit="10" x1="394.028" y1="482.105" x2="466.423" y2="482.105"/>
	<circle fill="#231F20" cx="470.347" cy="482.105" r="5.14"/>
	<circle fill="#231F20" cx="389.889" cy="482.418" r="5.141"/>
	<polyline fill="none" stroke="#231F20" stroke-width="3" stroke-miterlimit="10" points="376.118,528.246 444.388,528.246 
		460.118,511.121 460.118,498.508 	"/>
	<polyline fill="none" stroke="#231F20" stroke-width="3" stroke-miterlimit="10" points="484.151,436.051 415.882,436.051 
		400.151,453.176 400.151,465.789 	"/>
	<circle fill="#231F20" cx="484.15" cy="436.051" r="5.141"/>
	<circle fill="#231F20" cx="400.15" cy="465.789" r="5.141"/>
	<circle fill="#231F20" cx="460.117" cy="498.508" r="5.141"/>
	<circle fill="#231F20" cx="376.117" cy="528.246" r="5.141"/>
</g>
<g>
	<polyline fill="none" stroke="#231F20" stroke-width="3" stroke-miterlimit="10" points="571.007,542.859 571.007,526.094 
		571.007,457.936 570.989,451.869 556.367,436.939 525.172,436.939 	"/>
	<circle fill="#231F20" cx="570.886" cy="546.734" r="5.141"/>
	<polyline fill="none" stroke="#231F20" stroke-width="3" stroke-miterlimit="10" points="588.678,542.859 588.678,526.094 
		588.678,457.936 588.656,451.135 600.867,436.439 632.905,436.439 	"/>
	<circle fill="#231F20" cx="588.556" cy="546.734" r="5.14"/>
	
		<line fill="none" stroke="#231F20" stroke-width="3" stroke-miterlimit="10" x1="524.367" y1="419.439" x2="632.905" y2="419.439"/>
	<circle fill="#231F20" cx="632.905" cy="436.594" r="5.141"/>
	<circle fill="#231F20" cx="632.905" cy="419.199" r="5.141"/>
	<circle fill="#231F20" cx="525.172" cy="436.869" r="5.141"/>
	<circle fill="#231F20" cx="524.367" cy="419.439" r="5.141"/>
</g>
<polyline fill="none" stroke="#231F20" stroke-width="3" stroke-miterlimit="10" points="780.598,419.053 780.598,521.646 
	756.396,545.848 695.435,545.848 672.902,523.316 672.902,419.053 "/>
<circle fill="#231F20" cx="780.597" cy="419.053" r="5.141"/>
<circle fill="#231F20" cx="673.69" cy="418.129" r="5.141"/>
<polyline fill="none" stroke="#231F20" stroke-width="3" stroke-miterlimit="10" points="762.966,514.291 748.634,528.621 
	702.752,528.178 687.753,513.178 "/>
<line fill="none" stroke="#231F20" stroke-width="3" stroke-miterlimit="10" x1="690.572" y1="418.129" x2="690.572" y2="493.754"/>
<line fill="none" stroke="#231F20" stroke-width="3" stroke-miterlimit="10" x1="762.966" y1="418.049" x2="762.966" y2="493.674"/>
<circle fill="#231F20" cx="762.965" cy="418.049" r="5.141"/>
<circle fill="#231F20" cx="690.571" cy="418.129" r="5.141"/>
<circle fill="#231F20" cx="762.966" cy="493.754" r="5.141"/>
<circle fill="#231F20" cx="690.571" cy="493.754" r="5.141"/>
<circle fill="#231F20" cx="763.966" cy="513.178" r="5.141"/>
<circle fill="#231F20" cx="687.998" cy="513.096" r="5.141"/>
<polyline fill="none" stroke="#231F20" stroke-width="3" stroke-miterlimit="10" points="821.312,416.02 821.312,496.52 
	869.812,544.02 881.312,544.02 929.352,494.805 929.352,416.02 "/>
<circle fill="#231F20" cx="929.35" cy="416.279" r="5.141"/>
<circle fill="#231F20" cx="821.312" cy="416.02" r="5.141"/>
<polyline fill="none" stroke="#231F20" stroke-width="3" stroke-miterlimit="10" points="839.213,416.152 839.333,440.287 
	839.333,482.209 839.333,492.52 858.312,510.52 "/>
<circle fill="#231F20" cx="839.213" cy="416.152" r="5.141"/>
<circle fill="#231F20" cx="858.488" cy="510.52" r="5.141"/>
<polyline fill="none" stroke="#231F20" stroke-width="3" stroke-miterlimit="10" points="911.801,416.027 911.679,440.162 
	911.679,482.084 911.679,492.395 892.702,510.395 "/>
<circle fill="#231F20" cx="911.801" cy="416.027" r="5.141"/>
<circle fill="#231F20" cx="892.525" cy="510.395" r="5.14"/>
<polyline fill="none" stroke="#231F20" stroke-width="3" stroke-miterlimit="10" points="970.573,541.281 970.573,524.516 
	970.573,456.357 970.452,417.119 "/>
<circle fill="#231F20" cx="970.453" cy="545.156" r="5.141"/>
<circle fill="#231F20" cx="970.453" cy="417.119" r="5.141"/>
<polyline fill="none" stroke="#231F20" stroke-width="3" stroke-miterlimit="10" points="1078.308,541.281 1078.308,524.516 
	1078.308,456.357 1078.188,417.117 "/>
<circle fill="#231F20" cx="1078.188" cy="545.156" r="5.141"/>
<circle fill="#231F20" cx="1078.188" cy="417.117" r="5.141"/>
<polyline fill="none" stroke="#231F20" stroke-width="3" stroke-miterlimit="10" points="990.271,544.439 990.271,517.744 
	1015.271,492.439 1034.204,492.439 1062.915,520.439 1062.915,544.439 "/>
<polyline fill="none" stroke="#231F20" stroke-width="3" stroke-miterlimit="10" points="988.244,498.701 988.244,487.68 
	988.244,442.871 988.122,417.074 "/>
<polyline fill="none" stroke="#231F20" stroke-width="3" stroke-miterlimit="10" points="1060.638,498.576 1060.638,487.555 
	1060.638,442.746 1060.517,416.949 "/>
<circle fill="#231F20" cx="990.125" cy="545.281" r="5.142"/>
<circle fill="#231F20" cx="988.123" cy="417.244" r="5.14"/>
<circle fill="#231F20" cx="988.123" cy="498.701" r="5.14"/>
<circle fill="#231F20" cx="1062.915" cy="545.281" r="5.141"/>
<circle fill="#231F20" cx="1060.913" cy="417.244" r="5.141"/>
<circle fill="#231F20" cx="1060.913" cy="498.701" r="5.141"/>
<polyline fill="none" stroke="#231F20" stroke-width="3" stroke-miterlimit="10" points="1002.27,477.939 1013.27,468.439 
	1033.191,468.439 1042.691,477.939 "/>
<circle fill="#231F20" cx="1045.043" cy="479.135" r="5.141"/>
<circle fill="#231F20" cx="1002.886" cy="479.043" r="5.141"/>
<polyline fill="none" stroke="#231F20" stroke-width="3" stroke-miterlimit="10" points="1137.936,546.939 1137.936,528.752 
	1163.436,501.939 "/>
<polyline fill="none" stroke="#231F20" stroke-width="3" stroke-miterlimit="10" points="1209.845,547.031 1209.845,528.844 
	1184.345,502.031 "/>
<polyline fill="none" stroke="#231F20" stroke-width="3" stroke-miterlimit="10" points="1137.585,419.252 1137.585,437.439 
	1163.085,464.252 "/>
<polyline fill="none" stroke="#231F20" stroke-width="3" stroke-miterlimit="10" points="1209.497,419.16 1209.497,437.348 
	1183.997,464.16 "/>
<polyline fill="none" stroke="#231F20" stroke-width="3" stroke-miterlimit="10" points="1120.238,419.252 1120.172,441.752 
	1151.936,473.939 1151.936,489.764 1120.172,521.525 1119.653,547.031 "/>
<polyline fill="none" stroke="#231F20" stroke-width="3" stroke-miterlimit="10" points="1227.59,419.252 1227.656,441.752 
	1195.895,473.939 1195.895,489.764 1227.656,521.525 1228.175,547.031 "/>
<circle fill="#231F20" cx="1137.931" cy="546.939" r="5.14"/>
<circle fill="#231F20" cx="1119.651" cy="547.031" r="5.141"/>
<circle fill="#231F20" cx="1228.173" cy="547.031" r="5.141"/>
<circle fill="#231F20" cx="1209.843" cy="547.031" r="5.141"/>
<circle fill="#231F20" cx="1227.587" cy="419.252" r="5.14"/>
<circle fill="#231F20" cx="1210.3" cy="419.199" r="5.141"/>
<circle fill="#231F20" cx="1120.236" cy="419.252" r="5.141"/>
<circle fill="#231F20" cx="1137.585" cy="419.939" r="5.141"/>
<circle fill="#231F20" cx="1163.433" cy="464.162" r="5.14"/>
<circle fill="#231F20" cx="1183.996" cy="464.16" r="5.141"/>
<circle fill="#231F20" cx="1163.78" cy="502.033" r="5.141"/>
<circle fill="#231F20" cx="1184.343" cy="502.031" r="5.141"/>
<polyline fill="none" stroke="#231F20" stroke-width="3" stroke-miterlimit="10" points="81.477,595.555 81.477,617.555 
	127.531,663.184 127.531,722.348 "/>
<polyline fill="none" stroke="#231F20" stroke-width="3" stroke-miterlimit="10" points="191.256,595.555 191.256,617.555 
	145.2,663.184 145.2,722.348 "/>
<polyline fill="none" stroke="#231F20" stroke-width="3" stroke-miterlimit="10" points="99.451,595.555 99.477,609.555 
	127.531,638.195 "/>
<polyline fill="none" stroke="#231F20" stroke-width="3" stroke-miterlimit="10" points="171.554,595.555 171.528,609.555 
	143.474,638.195 "/>
<circle fill="#231F20" cx="191.254" cy="595.555" r="5.141"/>
<circle fill="#231F20" cx="81.476" cy="594.553" r="5.141"/>
<circle fill="#231F20" cx="99.452" cy="594.428" r="5.141"/>
<circle fill="#231F20" cx="171.554" cy="595.428" r="5.141"/>
<circle fill="#231F20" cx="146.216" cy="722.412" r="5.141"/>
<circle fill="#231F20" cx="127.517" cy="722.285" r="5.141"/>
<circle fill="#231F20" cx="143.304" cy="638.553" r="5.141"/>
<circle fill="#231F20" cx="127.607" cy="638.426" r="5.141"/>
<path fill="#231F20" d="M248.113,594.883"/>
<line fill="none" stroke="#231F20" stroke-width="3" stroke-miterlimit="10" x1="231.677" y1="595.264" x2="321.083" y2="595.264"/>
<circle fill="#231F20" cx="321.083" cy="595.885" r="5.141"/>
<circle fill="#231F20" cx="231.677" cy="595.264" r="5.141"/>
<line fill="none" stroke="#231F20" stroke-width="3" stroke-miterlimit="10" x1="247.714" y1="723.059" x2="337.12" y2="723.059"/>
<circle fill="#231F20" cx="337.121" cy="723.678" r="5.141"/>
<circle fill="#231F20" cx="247.715" cy="723.059" r="5.141"/>
<polyline fill="none" stroke="#231F20" stroke-width="3" stroke-miterlimit="10" points="338.177,595.885 338.139,614.385 
	260.853,692.102 "/>
<polyline fill="none" stroke="#231F20" stroke-width="3" stroke-miterlimit="10" points="229.706,718.99 229.744,700.49 
	307.28,622.525 "/>
<circle fill="#231F20" cx="310.239" cy="619.885" r="5.141"/>
<circle fill="#231F20" cx="261.271" cy="692.01" r="5.141"/>
<circle fill="#231F20" cx="338.122" cy="600.404" r="5.141"/>
<circle fill="#231F20" cx="230.443" cy="717.793" r="5.141"/>
<line fill="none" stroke="#231F20" stroke-width="3" stroke-miterlimit="10" x1="248.771" y1="704.389" x2="338.177" y2="704.389"/>
<circle fill="#231F20" cx="338.177" cy="705.01" r="5.141"/>
<circle fill="#231F20" cx="248.771" cy="704.389" r="5.141"/>
<line fill="none" stroke="#231F20" stroke-width="3" stroke-miterlimit="10" x1="234.103" y1="610.193" x2="323.51" y2="610.193"/>
<circle fill="#231F20" cx="323.509" cy="610.812" r="5.141"/>
<circle fill="#231F20" cx="234.104" cy="610.193" r="5.141"/>
</svg>
