<?xml version="1.0" encoding="utf-8"?>
<!-- Generator: Adobe Illustrator 15.0.0, SVG Export Plug-In . SVG Version: 6.00 Build 0)  -->
<!DOCTYPE svg PUBLIC "-//W3C//DTD SVG 1.1//EN" "http://www.w3.org/Graphics/SVG/1.1/DTD/svg11.dtd">
<svg version="1.1" id="Layer_1" xmlns="http://www.w3.org/2000/svg" xmlns:xlink="http://www.w3.org/1999/xlink" x="0px" y="0px"
	 width="1152px" height="1440px" viewBox="0 0 1152 1440" enable-background="new 0 0 1152 1440" xml:space="preserve">
<rect fill="#FBEFB1" width="1152" height="1440"/>
<g>
	<polyline fill="none" stroke="#000000" stroke-width="2.0357" stroke-miterlimit="10" points="151.873,138.443 151.873,127.066 
		151.873,80.816 151.861,76.699 141.939,66.569 120.771,66.569 	"/>
	<circle cx="151.792" cy="141.072" r="3.489"/>
	<polyline fill="none" stroke="#000000" stroke-width="2.0357" stroke-miterlimit="10" points="163.864,138.443 163.864,127.066 
		163.864,80.816 163.849,76.201 172.135,66.229 193.875,66.229 	"/>
	<circle cx="163.781" cy="141.072" r="3.488"/>
	
		<line fill="none" stroke="#000000" stroke-width="2.0357" stroke-miterlimit="10" x1="120.225" y1="54.694" x2="193.875" y2="54.694"/>
	<circle cx="193.875" cy="66.334" r="3.488"/>
	<circle cx="193.875" cy="54.531" r="3.488"/>
	<circle cx="120.771" cy="66.521" r="3.488"/>
	<circle cx="120.225" cy="54.694" r="3.488"/>
</g>
<g>
	<polyline fill="none" stroke="#000000" stroke-width="2.0357" stroke-miterlimit="10" points="216.058,140.013 216.058,128.636 
		216.058,82.387 215.977,55.76 	"/>
	<polyline fill="none" stroke="#000000" stroke-width="2.0357" stroke-miterlimit="10" points="228.049,140.013 228.049,129.994 
		228.049,118.543 	"/>
	<circle cx="289.308" cy="142.642" r="3.489"/>
	<circle cx="215.976" cy="142.642" r="3.488"/>
	<circle cx="277.173" cy="142.907" r="3.488"/>
	<circle cx="228.049" cy="142.822" r="3.488"/>
	<circle cx="228.049" cy="115.516" r="3.488"/>
	<circle cx="277.028" cy="115.517" r="3.489"/>
	
		<line fill="none" stroke="#000000" stroke-width="2.0357" stroke-miterlimit="10" x1="228.049" y1="99.755" x2="277.174" y2="99.755"/>
	<circle cx="279.837" cy="99.755" r="3.488"/>
	<circle cx="225.24" cy="99.967" r="3.488"/>
	<polyline fill="none" stroke="#000000" stroke-width="2.0357" stroke-miterlimit="10" points="277.027,139.89 277.027,129.871 
		277.027,118.42 	"/>
	<polyline fill="none" stroke="#000000" stroke-width="2.0357" stroke-miterlimit="10" points="289.163,139.928 289.163,128.551 
		289.163,82.302 289.081,55.675 	"/>
	<circle cx="289.081" cy="55.675" r="3.488"/>
	<circle cx="215.976" cy="55.76" r="3.488"/>
	<circle cx="277.318" cy="83.149" r="3.489"/>
	<circle cx="277.173" cy="55.76" r="3.488"/>
	<polyline fill="none" stroke="#000000" stroke-width="2.0357" stroke-miterlimit="10" points="277.173,80.132 277.173,70.113 
		277.173,58.663 	"/>
	<circle cx="228.194" cy="83.149" r="3.489"/>
	<circle cx="228.049" cy="55.76" r="3.488"/>
	<polyline fill="none" stroke="#000000" stroke-width="2.0357" stroke-miterlimit="10" points="228.049,80.132 228.049,70.113 
		228.049,58.663 	"/>
</g>
<g>
	
		<line fill="none" stroke="#000000" stroke-width="2.0357" stroke-miterlimit="10" x1="322.598" y1="98.955" x2="347.233" y2="98.955"/>
	<circle cx="349.897" cy="98.955" r="3.488"/>
	<circle cx="319.11" cy="98.955" r="3.488"/>
	<circle cx="383.322" cy="142.295" r="3.488"/>
	<circle cx="383.627" cy="56.024" r="3.489"/>
	<polyline fill="none" stroke="#000000" stroke-width="2.0357" stroke-miterlimit="10" points="383.321,142.295 322.104,142.295 
		310.402,130.594 310.402,67.486 321.937,55.951 383.713,55.951 	"/>
	<polyline fill="none" stroke="#000000" stroke-width="2.0357" stroke-miterlimit="10" points="371.812,130.254 332.529,130.254 
		322.276,120.076 322.276,113.29 	"/>
	<polyline fill="none" stroke="#000000" stroke-width="2.0357" stroke-miterlimit="10" points="371.727,67.778 332.444,67.778 
		322.192,77.957 322.192,84.743 	"/>
	<circle cx="372.402" cy="67.778" r="3.488"/>
	<circle cx="371.812" cy="130.254" r="3.489"/>
	<circle cx="322.598" cy="112.023" r="3.489"/>
	<circle cx="322.598" cy="85.927" r="3.489"/>
</g>
<g>
	
		<line fill="none" stroke="#000000" stroke-width="2.0357" stroke-miterlimit="10" x1="468.727" y1="99.173" x2="493.362" y2="99.173"/>
	<circle cx="496.025" cy="99.173" r="3.488"/>
	<circle cx="465.238" cy="99.173" r="3.488"/>
	<polyline fill="none" stroke="#000000" stroke-width="2.0357" stroke-miterlimit="10" points="456.53,142.547 456.53,125.383 
		456.53,67.705 468.065,56.17 518.193,56.17 530.184,67.997 530.157,84.154 	"/>
	<polyline fill="none" stroke="#000000" stroke-width="2.0357" stroke-miterlimit="10" points="468.319,84.961 468.319,78.175 
		478.572,67.997 513.911,67.997 518.282,72.279 518.282,88.821 518.282,94.142 512.011,99.464 	"/>
	<circle cx="468.727" cy="112.242" r="3.488"/>
	<circle cx="468.727" cy="86.146" r="3.488"/>
	
		<line fill="none" stroke="#000000" stroke-width="2.0357" stroke-miterlimit="10" x1="468.727" y1="115.731" x2="468.727" y2="142.514"/>
	<circle cx="468.727" cy="143.008" r="3.488"/>
	<circle cx="456.53" cy="142.547" r="3.488"/>
	<circle cx="510.449" cy="99.214" r="3.489"/>
	<circle cx="530.157" cy="84.154" r="3.488"/>
</g>
<g>
	<polyline fill="none" stroke="#000000" stroke-width="2.0357" stroke-miterlimit="10" points="553.176,139.127 553.176,127.751 
		553.176,78.444 576.519,55.102 602.317,55.102 626.28,79.063 626.28,116.215 626.28,127.751 626.28,139.127 	"/>
	<polyline fill="none" stroke="#000000" stroke-width="2.0357" stroke-miterlimit="10" points="571.762,76.816 581.485,67.092 
		597.351,67.092 607.076,76.816 	"/>
	<polyline fill="none" stroke="#000000" stroke-width="2.0357" stroke-miterlimit="10" points="565.167,139.127 565.167,129.109 
		565.167,117.659 	"/>
	<circle cx="626.426" cy="141.757" r="3.488"/>
	<circle cx="553.094" cy="141.757" r="3.488"/>
	<circle cx="614.29" cy="142.022" r="3.488"/>
	<circle cx="565.167" cy="141.937" r="3.489"/>
	<circle cx="565.167" cy="114.631" r="3.489"/>
	<circle cx="614.146" cy="114.633" r="3.488"/>
	<circle cx="608.648" cy="78.892" r="3.488"/>
	<circle cx="569.64" cy="78.896" r="3.488"/>
	
		<line fill="none" stroke="#000000" stroke-width="2.0357" stroke-miterlimit="10" x1="565.167" y1="98.871" x2="614.29" y2="98.871"/>
	<circle cx="616.954" cy="98.871" r="3.489"/>
	<circle cx="562.357" cy="99.082" r="3.488"/>
	<polyline fill="none" stroke="#000000" stroke-width="2.0357" stroke-miterlimit="10" points="614.146,139.005 614.146,128.987 
		614.146,117.536 	"/>
</g>
<g>
	<polyline fill="none" stroke="#000000" stroke-width="2.0357" stroke-miterlimit="10" points="680.146,139.925 680.146,128.549 
		680.146,82.299 680.134,78.183 670.212,68.051 649.043,68.051 	"/>
	<circle cx="680.064" cy="142.555" r="3.489"/>
	<polyline fill="none" stroke="#000000" stroke-width="2.0357" stroke-miterlimit="10" points="692.137,139.925 692.137,128.549 
		692.137,82.299 692.122,77.685 700.407,67.713 722.147,67.713 	"/>
	<circle cx="692.054" cy="142.555" r="3.488"/>
	
		<line fill="none" stroke="#000000" stroke-width="2.0357" stroke-miterlimit="10" x1="648.497" y1="56.177" x2="722.147" y2="56.177"/>
	<circle cx="722.147" cy="67.817" r="3.488"/>
	<circle cx="722.147" cy="56.014" r="3.488"/>
	<circle cx="649.043" cy="68.004" r="3.488"/>
	<circle cx="648.497" cy="56.177" r="3.488"/>
</g>
<g>
	<polyline fill="none" stroke="#000000" stroke-width="2.0357" stroke-miterlimit="10" points="744.33,139.81 744.33,128.434 
		744.33,82.184 744.25,55.557 	"/>
	<polyline fill="none" stroke="#000000" stroke-width="2.0357" stroke-miterlimit="10" points="756.321,139.81 756.321,129.792 
		756.321,118.341 	"/>
	<circle cx="817.58" cy="142.439" r="3.488"/>
	<circle cx="744.249" cy="142.439" r="3.488"/>
	<circle cx="805.445" cy="142.704" r="3.488"/>
	<circle cx="756.321" cy="142.619" r="3.488"/>
	<circle cx="756.321" cy="115.313" r="3.488"/>
	<circle cx="805.3" cy="115.315" r="3.489"/>
	
		<line fill="none" stroke="#000000" stroke-width="2.0357" stroke-miterlimit="10" x1="756.321" y1="99.552" x2="805.446" y2="99.552"/>
	<circle cx="808.109" cy="99.552" r="3.488"/>
	<circle cx="753.512" cy="99.764" r="3.488"/>
	<polyline fill="none" stroke="#000000" stroke-width="2.0357" stroke-miterlimit="10" points="805.3,139.687 805.3,129.668 
		805.3,118.218 	"/>
	<polyline fill="none" stroke="#000000" stroke-width="2.0357" stroke-miterlimit="10" points="817.436,139.725 817.436,128.349 
		817.436,82.099 817.354,55.472 	"/>
	<circle cx="817.354" cy="55.472" r="3.488"/>
	<circle cx="744.249" cy="55.557" r="3.488"/>
	<circle cx="805.591" cy="82.946" r="3.488"/>
	<circle cx="805.445" cy="55.557" r="3.488"/>
	<polyline fill="none" stroke="#000000" stroke-width="2.0357" stroke-miterlimit="10" points="805.446,79.929 805.446,69.91 
		805.446,58.46 	"/>
	<circle cx="756.467" cy="82.946" r="3.488"/>
	<circle cx="756.321" cy="55.557" r="3.488"/>
	<polyline fill="none" stroke="#000000" stroke-width="2.0357" stroke-miterlimit="10" points="756.321,79.929 756.321,69.91 
		756.321,58.46 	"/>
</g>
<g>
	<polyline fill="none" stroke="#000000" stroke-width="2.0357" stroke-miterlimit="10" points="904.854,56.719 898.873,56.719 
		876.819,78.771 876.819,119.826 899.193,142.897 905.191,142.897 	"/>
	<polyline fill="none" stroke="#000000" stroke-width="2.0357" stroke-miterlimit="10" points="895.798,121.904 906.358,132.464 
		918.527,132.464 921.925,132.464 932.485,121.904 	"/>
	
		<line fill="none" stroke="#000000" stroke-width="2.0357" stroke-miterlimit="10" x1="886.979" y1="109.689" x2="886.979" y2="87.776"/>
	<polyline fill="none" stroke="#000000" stroke-width="2.0357" stroke-miterlimit="10" points="896.71,78.045 906.887,67.867 
		922.214,67.867 934.029,78.958 	"/>
	<circle cx="893.993" cy="120.221" r="3.488"/>
	<circle cx="895.258" cy="78.958" r="3.489"/>
	<circle cx="886.978" cy="112.976" r="3.488"/>
	<circle cx="886.978" cy="84.725" r="3.488"/>
	<circle cx="934.529" cy="79.35" r="3.488"/>
	<circle cx="933.997" cy="120.197" r="3.488"/>
	
		<line fill="none" stroke="#000000" stroke-width="2.0357" stroke-miterlimit="10" x1="941.146" y1="111.084" x2="941.146" y2="89.172"/>
	<circle cx="941.146" cy="114.371" r="3.488"/>
	<circle cx="941.146" cy="86.121" r="3.488"/>
	<polyline fill="none" stroke="#000000" stroke-width="2.0357" stroke-miterlimit="10" points="923.066,56.633 929.046,56.633 
		951.1,78.687 951.1,119.74 928.726,142.812 922.729,142.812 	"/>
	<circle cx="921.923" cy="56.719" r="3.488"/>
	<circle cx="904.853" cy="56.719" r="3.488"/>
	<circle cx="905.19" cy="142.897" r="3.488"/>
	<circle cx="922.727" cy="142.812" r="3.488"/>
</g>
<g>
	
		<line fill="none" stroke="#000000" stroke-width="2.0357" stroke-miterlimit="10" x1="978.856" y1="98.279" x2="1003.491" y2="98.279"/>
	<circle cx="1006.156" cy="98.279" r="3.489"/>
	<circle cx="975.368" cy="98.279" r="3.488"/>
	<circle cx="1039.886" cy="55.35" r="3.489"/>
	<polyline fill="none" stroke="#000000" stroke-width="2.0357" stroke-miterlimit="10" points="1039.971,55.276 978.195,55.276 
		966.659,66.811 966.659,124.49 966.659,141.654 	"/>
	<polyline fill="none" stroke="#000000" stroke-width="2.0357" stroke-miterlimit="10" points="1027.985,67.104 988.703,67.104 
		978.45,77.282 978.45,84.068 	"/>
	<circle cx="1028.66" cy="67.104" r="3.489"/>
	<circle cx="978.856" cy="111.349" r="3.488"/>
	<circle cx="978.856" cy="85.252" r="3.488"/>
	
		<line fill="none" stroke="#000000" stroke-width="2.0357" stroke-miterlimit="10" x1="978.856" y1="114.837" x2="978.856" y2="141.621"/>
	<circle cx="978.856" cy="142.115" r="3.488"/>
	<circle cx="966.659" cy="141.654" r="3.488"/>
</g>
<circle fill="#FFFFFF" cx="315.953" cy="309.02" r="5.141"/>
<circle fill="#FFFFFF" cx="298.991" cy="291.273" r="5.141"/>
<polygon fill="#EE9521" points="208.734,325.47 193.066,309.454 193.575,180.954 208.075,166.47 224.075,166.47 240.575,181.997 
	240.575,278.454 317.358,278.47 332.098,293.208 332.098,311.001 317.605,325.47 "/>
<circle fill="#FFFFFF" cx="314.952" cy="310.021" r="5.141"/>
<polyline fill="none" stroke="#FFFFFF" stroke-width="3" stroke-miterlimit="10" points="207.49,181.533 207.49,214.203 
	207.49,285.468 207.489,303.605 213.766,310.021 229.358,310.021 314.952,310.021 "/>
<circle fill="#FFFFFF" cx="207.489" cy="181.534" r="5.141"/>
<polyline fill="none" stroke="#FFFFFF" stroke-width="3" stroke-miterlimit="10" points="298.321,292.666 240.431,292.666 
	225.321,277.666 225.321,267.666 "/>
<circle fill="#FFFFFF" cx="298.321" cy="292.666" r="5.141"/>
<circle fill="#FFFFFF" cx="225.796" cy="265.8" r="5.141"/>
<line fill="none" stroke="#FFFFFF" stroke-width="3" stroke-miterlimit="10" x1="224.99" y1="181.773" x2="224.99" y2="242.273"/>
<circle fill="#FFFFFF" cx="224.99" cy="245.005" r="5.141"/>
<circle fill="#FFFFFF" cx="225.465" cy="181.533" r="5.141"/>
<polygon fill="#EE9521" points="429.204,277.505 399.868,277.505 399.868,259.093 429.204,259.093 429.204,230.915 400.034,230.915 
	400.034,212.505 429.204,212.505 429.204,165.505 371.865,165.505 352.868,184.502 352.868,308.202 369.173,324.505 
	429.204,324.505 "/>
<polygon fill="#EE9521" points="475.372,165.505 420.241,165.505 420.241,212.262 475.372,212.019 489.864,197.526 489.864,179.733 
	"/>
<polygon fill="#EE9521" points="420.864,277.505 420.241,276.883 420.241,324.505 475.372,324.505 489.864,310.036 489.864,292.245 
	475.125,277.505 "/>
<polygon fill="#EE9521" points="428.203,230.915 434.492,230.915 442.867,239.291 442.867,249.841 433.615,259.093 428.203,259.093 
	"/>
<line fill="none" stroke="#FFFFFF" stroke-width="3" stroke-miterlimit="10" x1="386.268" y1="244.848" x2="422.572" y2="244.848"/>
<circle fill="#FFFFFF" cx="426.497" cy="244.848" r="5.141"/>
<circle fill="#FFFFFF" cx="382.128" cy="244.848" r="5.141"/>
<circle fill="#FFFFFF" cx="475.755" cy="308.72" r="5.141"/>
<circle fill="#FFFFFF" cx="476.205" cy="181.583" r="5.141"/>
<polyline fill="none" stroke="#FFFFFF" stroke-width="3" stroke-miterlimit="10" points="476.331,181.475 393.829,181.475 
	378.579,181.583 368.293,190.964 368.293,207.214 368.293,280.963 368.293,301.005 375.986,308.72 394.079,308.72 475.755,308.72 
	"/>
<polyline fill="none" stroke="#FFFFFF" stroke-width="3" stroke-miterlimit="10" points="458.793,290.975 400.902,290.975 
	385.793,275.975 385.793,265.975 "/>
<polyline fill="none" stroke="#FFFFFF" stroke-width="3" stroke-miterlimit="10" points="458.668,198.904 400.777,198.904 
	385.668,213.904 385.668,223.904 "/>
<circle fill="#FFFFFF" cx="459.662" cy="198.904" r="5.141"/>
<circle fill="#FFFFFF" cx="458.793" cy="290.975" r="5.141"/>
<circle fill="#FFFFFF" cx="386.268" cy="264.108" r="5.141"/>
<circle fill="#FFFFFF" cx="386.268" cy="225.649" r="5.141"/>
<polygon fill="#EE9521" points="545.015,323.154 528.139,323.154 511.836,306.85 511.836,211.516 559.198,164.154 602.837,164.154 
	649.836,210.155 649.836,309.84 636.522,323.154 614.835,323.155 602.836,311.155 602.837,211.154 558.835,210.822 558.836,309.333 
	"/>
<rect x="536.835" y="229.566" fill="#EE9521" width="77.667" height="28.177"/>
<rect x="577.169" y="187.985" transform="matrix(-0.7071 -0.7071 0.7071 -0.7071 890.645 778.887)" fill="#EE9521" width="58.933" height="34"/>
<rect x="529.369" y="184.65" transform="matrix(-0.7071 0.7071 -0.7071 -0.7071 1096.5811 -50.9179)" fill="#EE9521" width="58.933" height="34"/>
<polyline fill="none" stroke="#FFFFFF" stroke-width="3" stroke-miterlimit="10" points="527.102,302.982 527.102,286.216 
	527.102,213.553 561.502,179.153 599.521,179.153 634.835,214.466 634.835,269.216 634.835,286.216 634.835,302.982 "/>
<polyline fill="none" stroke="#FFFFFF" stroke-width="3" stroke-miterlimit="10" points="554.491,211.153 568.822,196.823 
	592.201,196.823 606.533,211.154 "/>
<polyline fill="none" stroke="#FFFFFF" stroke-width="3" stroke-miterlimit="10" points="544.771,302.982 544.771,288.217 
	544.771,271.343 "/>
<circle fill="#FFFFFF" cx="635.049" cy="306.857" r="5.141"/>
<circle fill="#FFFFFF" cx="526.98" cy="306.857" r="5.141"/>
<circle fill="#FFFFFF" cx="617.165" cy="307.247" r="5.141"/>
<circle fill="#FFFFFF" cx="544.771" cy="307.122" r="5.141"/>
<circle fill="#FFFFFF" cx="544.771" cy="266.881" r="5.141"/>
<circle fill="#FFFFFF" cx="616.951" cy="266.884" r="5.141"/>
<circle fill="#FFFFFF" cx="608.851" cy="214.212" r="5.141"/>
<circle fill="#FFFFFF" cx="551.364" cy="214.218" r="5.141"/>
<line fill="none" stroke="#FFFFFF" stroke-width="3" stroke-miterlimit="10" x1="544.771" y1="243.654" x2="617.166" y2="243.654"/>
<circle fill="#FFFFFF" cx="621.091" cy="243.654" r="5.141"/>
<circle fill="#FFFFFF" cx="540.632" cy="243.966" r="5.141"/>
<polyline fill="none" stroke="#FFFFFF" stroke-width="3" stroke-miterlimit="10" points="616.951,302.8 616.951,288.036 
	616.951,271.162 "/>
<path fill="#EE9521" d="M737.612,276.275l22.006-21.997v-4.019h45.029c0.742,0,1.393-0.137,1.965-0.371v23.569l-49.816,49.817
	h-73.691l-14.492-14.469v-17.793l14.738-14.738H737.612z"/>
<path fill="#EE9521" d="M792.12,164.275h-77.977l-45.531,45.53v30.825c0.57-0.234,1.223-0.371,1.963-0.371h45.033l0.004-10.572
	l18.229-18.643l58.279-0.257l14.492-14.493v-17.791L792.12,164.275z"/>
<polygon fill="#EE9521" points="787.409,229.794 668.612,229.794 668.612,239.929 686.653,257.97 806.575,257.97 806.575,248.96 "/>
<rect x="706.726" y="222.78" transform="matrix(-0.7071 -0.7071 0.7071 -0.7071 1072.4663 907.7381)" fill="#EE9521" width="35.001" height="17.961"/>
<rect x="733.91" y="247.705" transform="matrix(-0.7071 -0.7071 0.7071 -0.7071 1101.2471 969.5107)" fill="#EE9521" width="35.001" height="17.961"/>
<rect x="709.911" y="206.902" fill="#EE9521" width="17.961" height="35.001"/>
<rect x="744.911" y="245.763" fill="#EE9521" width="17.961" height="35.001"/>
<polyline fill="none" stroke="#FFFFFF" stroke-width="3" stroke-miterlimit="10" points="791.142,178.831 728.37,178.831 
	721.37,178.831 683.013,215.77 682.998,235.973 "/>
<polyline fill="none" stroke="#FFFFFF" stroke-width="3" stroke-miterlimit="10" points="682.998,307.958 744.12,307.958 
	751.411,307.943 792.212,267.493 792.212,252.034 "/>
<circle fill="#FFFFFF" cx="792.009" cy="179.59" r="5.141"/>
<circle fill="#FFFFFF" cx="683.142" cy="237.331" r="5.141"/>
<circle fill="#FFFFFF" cx="791.999" cy="250.459" r="5.141"/>
<circle fill="#FFFFFF" cx="682.998" cy="307.958" r="5.141"/>
<line fill="none" stroke="#FFFFFF" stroke-width="3" stroke-miterlimit="10" x1="701.052" y1="243.315" x2="773.446" y2="243.315"/>
<circle fill="#FFFFFF" cx="777.371" cy="243.315" r="5.141"/>
<circle fill="#FFFFFF" cx="696.912" cy="243.627" r="5.141"/>
<polyline fill="none" stroke="#FFFFFF" stroke-width="3" stroke-miterlimit="10" points="683.142,289.455 741.37,289.455 
	742.952,289.455 769.602,264.66 "/>
<polyline fill="none" stroke="#FFFFFF" stroke-width="3" stroke-miterlimit="10" points="791.175,197.26 727.872,197.26 
	702.17,222.838 "/>
<circle fill="#FFFFFF" cx="791.174" cy="197.26" r="5.141"/>
<circle fill="#FFFFFF" cx="702.169" cy="224.997" r="5.141"/>
<circle fill="#FFFFFF" cx="772.146" cy="260.717" r="5.141"/>
<circle fill="#FFFFFF" cx="683.141" cy="289.455" r="5.141"/>
<polygon fill="#EE9521" points="919.069,309.635 904.569,323.458 888.069,323.458 872.069,307.153 872.069,179.985 888.569,164.458 
	904.569,164.458 919.069,178.942 "/>
<polygon fill="#EE9521" points="890.069,164.305 840.554,164.305 826.069,178.805 826.069,194.805 841.597,211.305 890.069,211.305 
	"/>
<polygon fill="#EE9521" points="950.228,164.305 879.05,164.305 879.05,211.305 947.745,211.305 964.05,195.305 964.05,178.805 "/>
<polyline fill="none" stroke="#FFFFFF" stroke-width="3" stroke-miterlimit="10" points="886.729,303.029 886.729,286.263 
	886.729,218.106 886.711,212.039 872.089,197.11 840.894,197.11 "/>
<circle fill="#FFFFFF" cx="886.608" cy="306.904" r="5.141"/>
<polyline fill="none" stroke="#FFFFFF" stroke-width="3" stroke-miterlimit="10" points="904.399,303.029 904.399,286.263 
	904.399,218.106 904.378,211.305 916.589,196.61 948.627,196.61 "/>
<circle fill="#FFFFFF" cx="904.278" cy="306.904" r="5.141"/>
<line fill="none" stroke="#FFFFFF" stroke-width="3" stroke-miterlimit="10" x1="840.089" y1="177.608" x2="948.627" y2="177.608"/>
<circle fill="#FFFFFF" cx="948.627" cy="196.764" r="5.141"/>
<circle fill="#FFFFFF" cx="948.627" cy="177.368" r="5.141"/>
<circle fill="#FFFFFF" cx="840.894" cy="197.04" r="5.141"/>
<circle fill="#FFFFFF" cx="840.089" cy="177.608" r="5.141"/>
<path fill="#EE9521" d="M106.779,345.531H36.131l-14.507,14.508v94.471l12.452,12.451H45.67l11.978-11.977v-38.24h47.782
	l21.585-21.717v-29.7L106.779,345.531z M91.25,390.572l-5.356,4.914l-27.995-0.077v-14.257l27.995,0.273l5.356,4.819V390.572z"/>
<path fill="#EE9521" d="M94.508,410.743c-0.514,0.285-1.131,0.456-1.86,0.456H44.202l56.09,56.09l17.446,0.165l8.911-8.911
	l0.365-15.294L94.508,410.743z"/>
<line fill="none" stroke="#FFFFFF" stroke-width="2.2911" stroke-miterlimit="10" x1="46.613" y1="405.942" x2="74.339" y2="405.942"/>
<circle fill="#FFFFFF" cx="77.337" cy="405.942" r="3.926"/>
<circle fill="#FFFFFF" cx="42.687" cy="405.942" r="3.926"/>
<polyline fill="none" stroke="#FFFFFF" stroke-width="2.2911" stroke-miterlimit="10" points="115.751,389.039 115.781,370.854 
	102.286,357.543 54.283,357.543 41.045,357.708 32.886,365.677 32.886,379.424 32.886,435.441 32.886,454.758 "/>
<polyline fill="none" stroke="#FFFFFF" stroke-width="2.2911" stroke-miterlimit="10" points="46.155,389.947 46.155,382.31 
	57.694,370.854 82.031,370.854 89.534,370.854 101.734,380.883 101.734,394.16 93.33,403.588 "/>
<circle fill="#FFFFFF" cx="46.613" cy="421.416" r="3.926"/>
<circle fill="#FFFFFF" cx="46.613" cy="391.28" r="3.926"/>
<line fill="none" stroke="#FFFFFF" stroke-width="2.2911" stroke-miterlimit="10" x1="46.613" y1="424.577" x2="46.613" y2="454.721"/>
<circle fill="#FFFFFF" cx="46.613" cy="455.277" r="3.926"/>
<circle fill="#FFFFFF" cx="32.886" cy="454.758" r="3.926"/>
<circle fill="#FFFFFF" cx="93.57" cy="404.46" r="3.926"/>
<circle fill="#FFFFFF" cx="115.751" cy="389.039" r="3.926"/>
<line fill="none" stroke="#FFFFFF" stroke-width="2.2911" stroke-miterlimit="10" x1="69.47" y1="420.651" x2="101.734" y2="452.915"/>
<line fill="none" stroke="#FFFFFF" stroke-width="2.2911" stroke-miterlimit="10" x1="85.608" y1="416.725" x2="115.781" y2="447.88"/>
<circle fill="#FFFFFF" cx="85.608" cy="416.725" r="3.926"/>
<circle fill="#FFFFFF" cx="116.112" cy="449.368" r="3.926"/>
<circle fill="#FFFFFF" cx="69.469" cy="420.651" r="3.926"/>
<circle fill="#FFFFFF" cx="103.263" cy="454.721" r="3.926"/>
<polygon fill="#EE9521" points="200.322,430.548 177.918,430.548 177.918,416.486 200.322,416.486 200.322,394.967 178.045,394.967 
	178.045,380.907 200.322,380.907 200.322,345.013 156.533,345.013 142.025,359.521 142.025,453.992 154.477,466.442 
	200.322,466.442 "/>
<polygon fill="#EE9521" points="235.582,345.013 193.478,345.013 193.478,380.721 235.582,380.536 246.649,369.468 246.649,355.879 
	"/>
<polygon fill="#EE9521" points="193.954,430.548 193.478,430.073 193.478,466.442 235.582,466.442 246.649,455.392 246.649,441.805 
	235.393,430.548 "/>
<polygon fill="#EE9521" points="199.559,394.967 204.361,394.967 210.757,401.364 210.757,409.421 203.691,416.486 199.559,416.486 
	"/>
<line fill="none" stroke="#FFFFFF" stroke-width="2.2911" stroke-miterlimit="10" x1="167.532" y1="405.608" x2="195.258" y2="405.608"/>
<circle fill="#FFFFFF" cx="198.255" cy="405.608" r="3.926"/>
<circle fill="#FFFFFF" cx="164.37" cy="405.608" r="3.926"/>
<circle fill="#FFFFFF" cx="235.874" cy="454.387" r="3.926"/>
<circle fill="#FFFFFF" cx="236.217" cy="357.292" r="3.926"/>
<polyline fill="none" stroke="#FFFFFF" stroke-width="2.2911" stroke-miterlimit="10" points="236.313,357.209 173.307,357.209 
	161.66,357.292 153.805,364.457 153.805,376.866 153.805,433.189 153.805,448.495 159.68,454.387 173.498,454.387 235.874,454.387 
	"/>
<polyline fill="none" stroke="#FFFFFF" stroke-width="2.2911" stroke-miterlimit="10" points="222.919,440.835 178.708,440.835 
	167.169,429.379 167.169,421.742 "/>
<polyline fill="none" stroke="#FFFFFF" stroke-width="2.2911" stroke-miterlimit="10" points="222.824,370.521 178.613,370.521 
	167.074,381.976 167.074,389.613 "/>
<circle fill="#FFFFFF" cx="223.584" cy="370.521" r="3.926"/>
<circle fill="#FFFFFF" cx="222.92" cy="440.835" r="3.926"/>
<circle fill="#FFFFFF" cx="167.532" cy="420.317" r="3.926"/>
<circle fill="#FFFFFF" cx="167.532" cy="390.946" r="3.926"/>
<path fill="#EE9521" d="M314.204,430.762l16.806-16.799v-3.068h34.389c0.567,0,1.063-0.104,1.5-0.284v18l-38.045,38.046h-56.278
	l-11.068-11.049v-13.589l11.255-11.255H314.204z"/>
<path fill="#EE9521" d="M355.832,345.228h-59.551l-34.772,34.771v23.541c0.436-0.179,0.934-0.283,1.499-0.283h34.392l0.003-8.074
	l13.921-14.238l44.509-0.196l11.067-11.069v-13.587L355.832,345.228z"/>
<polygon fill="#EE9521" points="352.234,395.265 261.508,395.265 261.508,403.005 275.287,416.783 366.871,416.783 366.871,409.902 
	"/>
<rect x="290.616" y="389.908" transform="matrix(-0.7071 -0.7071 0.7071 -0.7071 238.3917 892.2728)" fill="#EE9521" width="26.73" height="13.717"/>
<rect x="311.376" y="408.944" transform="matrix(-0.7071 -0.7071 0.7071 -0.7071 260.3648 939.4472)" fill="#EE9521" width="26.731" height="13.717"/>
<rect x="293.049" y="377.782" fill="#EE9521" width="13.717" height="26.73"/>
<rect x="319.778" y="407.46" fill="#EE9521" width="13.717" height="26.73"/>
<polyline fill="none" stroke="#FFFFFF" stroke-width="2.2911" stroke-miterlimit="10" points="355.084,356.344 307.146,356.344 
	301.8,356.344 272.506,384.555 272.495,399.984 "/>
<polyline fill="none" stroke="#FFFFFF" stroke-width="2.2911" stroke-miterlimit="10" points="272.495,454.958 319.174,454.958 
	324.742,454.947 355.902,424.056 355.902,412.25 "/>
<circle fill="#FFFFFF" cx="355.747" cy="356.924" r="3.926"/>
<circle fill="#FFFFFF" cx="272.605" cy="401.021" r="3.926"/>
<circle fill="#FFFFFF" cx="355.74" cy="411.047" r="3.926"/>
<circle fill="#FFFFFF" cx="272.495" cy="454.958" r="3.926"/>
<line fill="none" stroke="#FFFFFF" stroke-width="2.2911" stroke-miterlimit="10" x1="286.282" y1="405.591" x2="341.57" y2="405.591"/>
<circle fill="#FFFFFF" cx="344.568" cy="405.591" r="3.926"/>
<circle fill="#FFFFFF" cx="283.121" cy="405.829" r="3.926"/>
<polyline fill="none" stroke="#FFFFFF" stroke-width="2.2911" stroke-miterlimit="10" points="272.604,440.828 317.074,440.828 
	318.282,440.828 338.634,421.892 "/>
<polyline fill="none" stroke="#FFFFFF" stroke-width="2.2911" stroke-miterlimit="10" points="355.11,370.419 306.766,370.419 
	287.137,389.953 "/>
<circle fill="#FFFFFF" cx="355.109" cy="370.419" r="3.926"/>
<circle fill="#FFFFFF" cx="287.135" cy="391.601" r="3.926"/>
<circle fill="#FFFFFF" cx="340.577" cy="418.881" r="3.926"/>
<circle fill="#FFFFFF" cx="272.604" cy="440.828" r="3.926"/>
<polygon fill="#EE9521" points="417.653,457.015 406.579,467.571 393.978,467.571 381.759,455.119 381.759,358 394.36,346.142 
	406.579,346.142 417.653,357.204 "/>
<polyline fill="none" stroke="#FFFFFF" stroke-width="2.2911" stroke-miterlimit="10" points="393.864,452.47 393.864,439.666 
	393.864,387.614 393.771,357.646 "/>
<circle fill="#FFFFFF" cx="393.771" cy="455.429" r="3.926"/>
<circle fill="#FFFFFF" cx="393.771" cy="357.646" r="3.926"/>
<polyline fill="none" stroke="#FFFFFF" stroke-width="2.2911" stroke-miterlimit="10" points="407.358,452.47 407.358,439.666 
	407.358,387.614 407.266,357.646 "/>
<circle fill="#FFFFFF" cx="407.266" cy="455.429" r="3.926"/>
<circle fill="#FFFFFF" cx="407.266" cy="357.646" r="3.926"/>
<path fill="#EE9521" d="M485.208,432.077l16.806-16.799v-3.069h34.389c0.567,0,1.064-0.104,1.5-0.284v18l-38.045,38.045H443.58
	l-11.068-11.049v-13.589l11.256-11.256H485.208z"/>
<path fill="#EE9521" d="M526.835,346.542h-59.551l-34.772,34.772v23.541c0.436-0.179,0.934-0.284,1.499-0.284h34.393l0.002-8.074
	l13.921-14.237l44.508-0.196l11.067-11.069v-13.587L526.835,346.542z"/>
<polygon fill="#EE9521" points="523.237,396.579 432.512,396.579 432.512,404.32 446.29,418.098 537.875,418.098 537.875,411.217 
	"/>
<rect x="461.62" y="391.222" transform="matrix(-0.7071 -0.7071 0.7071 -0.7071 529.3801 1015.4301)" fill="#EE9521" width="26.731" height="13.717"/>
<rect x="482.38" y="410.258" transform="matrix(-0.7071 -0.7071 0.7071 -0.7071 551.3525 1062.6069)" fill="#EE9521" width="26.73" height="13.717"/>
<rect x="464.052" y="379.097" fill="#EE9521" width="13.717" height="26.73"/>
<rect x="490.782" y="408.775" fill="#EE9521" width="13.717" height="26.731"/>
<polyline fill="none" stroke="#FFFFFF" stroke-width="2.2911" stroke-miterlimit="10" points="526.088,357.658 478.149,357.658 
	472.803,357.658 443.509,385.869 443.498,401.298 "/>
<polyline fill="none" stroke="#FFFFFF" stroke-width="2.2911" stroke-miterlimit="10" points="443.498,456.273 490.177,456.273 
	495.746,456.262 526.905,425.37 526.905,413.564 "/>
<circle fill="#FFFFFF" cx="526.75" cy="358.239" r="3.926"/>
<circle fill="#FFFFFF" cx="443.608" cy="402.335" r="3.926"/>
<circle fill="#FFFFFF" cx="526.743" cy="412.361" r="3.926"/>
<circle fill="#FFFFFF" cx="443.498" cy="456.273" r="3.926"/>
<line fill="none" stroke="#FFFFFF" stroke-width="2.2911" stroke-miterlimit="10" x1="457.286" y1="406.905" x2="512.574" y2="406.905"/>
<circle fill="#FFFFFF" cx="515.571" cy="406.905" r="3.926"/>
<circle fill="#FFFFFF" cx="454.124" cy="407.144" r="3.926"/>
<polyline fill="none" stroke="#FFFFFF" stroke-width="2.2911" stroke-miterlimit="10" points="443.607,442.143 488.077,442.143 
	489.286,442.143 509.637,423.207 "/>
<polyline fill="none" stroke="#FFFFFF" stroke-width="2.2911" stroke-miterlimit="10" points="526.113,371.733 477.769,371.733 
	458.14,391.267 "/>
<circle fill="#FFFFFF" cx="526.112" cy="371.733" r="3.926"/>
<circle fill="#FFFFFF" cx="458.139" cy="392.915" r="3.926"/>
<circle fill="#FFFFFF" cx="511.581" cy="420.195" r="3.926"/>
<circle fill="#FFFFFF" cx="443.607" cy="442.143" r="3.926"/>
<polygon fill="#EE9521" points="623.787,457.335 612.713,467.892 600.112,467.892 587.893,455.439 587.893,358.321 600.493,346.463 
	612.713,346.463 623.787,357.524 "/>
<polygon fill="#EE9521" points="601.64,346.346 563.824,346.346 552.762,357.42 552.762,369.639 564.62,382.241 601.64,382.241 "/>
<polygon fill="#EE9521" points="647.582,346.346 593.224,346.346 593.224,382.241 645.687,382.241 658.139,370.021 658.139,357.42 
	"/>
<polyline fill="none" stroke="#FFFFFF" stroke-width="2.2911" stroke-miterlimit="10" points="599.088,452.29 599.088,439.486 
	599.088,387.434 599.074,382.8 587.908,371.399 564.083,371.399 "/>
<circle fill="#FFFFFF" cx="598.996" cy="455.25" r="3.926"/>
<polyline fill="none" stroke="#FFFFFF" stroke-width="2.2911" stroke-miterlimit="10" points="612.583,452.29 612.583,439.486 
	612.583,387.434 612.566,382.241 621.893,371.017 646.359,371.017 "/>
<circle fill="#FFFFFF" cx="612.491" cy="455.25" r="3.926"/>
<line fill="none" stroke="#FFFFFF" stroke-width="2.2911" stroke-miterlimit="10" x1="563.469" y1="356.506" x2="646.359" y2="356.506"/>
<circle fill="#FFFFFF" cx="646.359" cy="371.136" r="3.926"/>
<circle fill="#FFFFFF" cx="646.359" cy="356.322" r="3.926"/>
<circle fill="#FFFFFF" cx="564.084" cy="371.346" r="3.926"/>
<circle fill="#FFFFFF" cx="563.469" cy="356.506" r="3.926"/>
<polygon fill="#EE9521" points="698.551,466.441 685.662,466.441 673.211,453.989 673.211,381.183 709.383,345.012 742.71,345.012 
	778.603,380.143 778.603,456.273 768.436,466.441 751.873,466.441 742.708,457.277 742.71,380.906 709.105,380.652 709.105,455.885 
	"/>
<rect x="692.304" y="394.967" fill="#EE9521" width="59.313" height="21.519"/>
<rect x="723.107" y="363.212" transform="matrix(-0.7071 -0.7071 0.7071 -0.7071 1006.8207 1169.4325)" fill="#EE9521" width="45.007" height="25.966"/>
<rect x="686.601" y="360.665" transform="matrix(-0.7071 0.7071 -0.7071 -0.7071 1474.7316 136.4557)" fill="#EE9521" width="45.008" height="25.966"/>
<polyline fill="none" stroke="#FFFFFF" stroke-width="2.2911" stroke-miterlimit="10" points="684.869,451.035 684.869,438.231 
	684.869,382.738 711.141,356.467 740.178,356.467 767.146,383.436 767.146,425.249 767.146,438.231 767.146,451.035 "/>
<polyline fill="none" stroke="#FFFFFF" stroke-width="2.2911" stroke-miterlimit="10" points="705.787,380.905 716.732,369.961 
	734.586,369.961 745.532,380.906 "/>
<polyline fill="none" stroke="#FFFFFF" stroke-width="2.2911" stroke-miterlimit="10" points="698.364,451.035 698.364,439.759 
	698.364,426.873 "/>
<circle fill="#FFFFFF" cx="767.309" cy="453.995" r="3.926"/>
<circle fill="#FFFFFF" cx="684.777" cy="453.995" r="3.926"/>
<circle fill="#FFFFFF" cx="753.652" cy="454.292" r="3.926"/>
<circle fill="#FFFFFF" cx="698.364" cy="454.197" r="3.926"/>
<circle fill="#FFFFFF" cx="698.364" cy="423.465" r="3.926"/>
<circle fill="#FFFFFF" cx="753.488" cy="423.467" r="3.926"/>
<circle fill="#FFFFFF" cx="747.302" cy="383.242" r="3.925"/>
<circle fill="#FFFFFF" cx="703.4" cy="383.246" r="3.926"/>
<line fill="none" stroke="#FFFFFF" stroke-width="2.2911" stroke-miterlimit="10" x1="698.364" y1="405.727" x2="753.652" y2="405.727"/>
<circle fill="#FFFFFF" cx="756.65" cy="405.727" r="3.926"/>
<circle fill="#FFFFFF" cx="695.204" cy="405.965" r="3.925"/>
<polyline fill="none" stroke="#FFFFFF" stroke-width="2.2911" stroke-miterlimit="10" points="753.488,450.896 753.488,439.621 
	753.488,426.734 "/>
<polygon fill="#EE9521" points="829.354,456.646 818.281,467.202 805.68,467.202 793.46,454.75 793.46,357.631 806.061,345.773 
	818.281,345.773 829.354,356.835 "/>
<path fill="#EE9521" d="M824.019,351.57c-0.213,14.261-5.125,27.737-9.517,41.245l48.986,48.987l17.444,0.164l8.911-8.911
	l0.365-15.294L824.019,351.57z"/>
<polygon fill="#EE9521" points="898.852,456.646 887.778,467.202 875.177,467.202 862.957,454.75 862.957,357.631 875.558,345.773 
	887.778,345.773 898.852,356.835 "/>
<polyline fill="none" stroke="#FFFFFF" stroke-width="2.2911" stroke-miterlimit="10" points="805.15,452.324 805.15,439.52 
	805.15,387.468 805.058,357.501 "/>
<circle fill="#FFFFFF" cx="805.058" cy="455.283" r="3.926"/>
<circle fill="#FFFFFF" cx="805.058" cy="357.501" r="3.926"/>
<polyline fill="none" stroke="#FFFFFF" stroke-width="2.2911" stroke-miterlimit="10" points="888.283,452.42 888.283,439.615 
	888.283,387.563 888.191,357.596 "/>
<circle fill="#FFFFFF" cx="888.19" cy="455.379" r="3.926"/>
<circle fill="#FFFFFF" cx="888.19" cy="357.596" r="3.926"/>
<polyline fill="none" stroke="#FFFFFF" stroke-width="2.2911" stroke-miterlimit="10" points="877.225,418.497 868.979,410.252 
	835.461,376.733 816.099,357.501 "/>
<circle fill="#FFFFFF" cx="878.622" cy="419.77" r="3.926"/>
<circle fill="#FFFFFF" cx="816.098" cy="357.501" r="3.926"/>
<polyline fill="none" stroke="#FFFFFF" stroke-width="2.2911" stroke-miterlimit="10" points="814.423,373.732 833.166,392.345 
	865.609,424.788 873.589,432.769 873.589,452.42 "/>
<circle fill="#FFFFFF" cx="873.931" cy="455.379" r="3.926"/>
<line fill="none" stroke="#FFFFFF" stroke-width="2.2911" stroke-miterlimit="10" x1="873.589" y1="357.596" x2="873.589" y2="400.305"/>
<line fill="none" stroke="#FFFFFF" stroke-width="2.2911" stroke-miterlimit="10" x1="818.645" y1="394.195" x2="818.645" y2="454.611"/>
<circle fill="#FFFFFF" cx="874.037" cy="402.203" r="3.926"/>
<circle fill="#FFFFFF" cx="874.037" cy="357.545" r="3.925"/>
<circle fill="#FFFFFF" cx="818.644" cy="455.376" r="3.926"/>
<circle fill="#FFFFFF" cx="818.644" cy="394.582" r="3.926"/>
<circle fill="#FFFFFF" cx="815.953" cy="375.261" r="3.926"/>
<polygon fill="#EE9521" points="1009.542,467.302 953.264,467.302 915.219,429.256 915.219,380.645 949.991,345.873 
	1009.542,345.873 1020.609,356.739 1020.609,370.326 1009.542,381.395 965.033,381.591 951.112,395.828 951.107,414.608 
	967.914,431.408 1009.354,431.408 1020.609,442.663 1020.609,456.251 "/>
<polyline fill="none" stroke="#FFFFFF" stroke-width="2.2911" stroke-miterlimit="10" points="1002.817,455.065 994.597,455.065 
	957.819,455.065 926.998,424.114 926.998,419.314 926.998,382.895 951.818,358.075 995.73,358.075 1002.817,358.075 "/>
<polyline fill="none" stroke="#FFFFFF" stroke-width="2.2911" stroke-miterlimit="10" points="995.73,441.795 964.066,441.795 
	952.181,429.91 "/>
<line fill="none" stroke="#FFFFFF" stroke-width="2.2911" stroke-miterlimit="10" x1="939.196" y1="418.455" x2="939.196" y2="393.793"/>
<polyline fill="none" stroke="#FFFFFF" stroke-width="2.2911" stroke-miterlimit="10" points="995.73,371.386 972.816,371.386 
	971.287,371.386 961.604,371.386 950.149,382.84 "/>
<circle fill="#FFFFFF" cx="998.892" cy="441.795" r="3.926"/>
<circle fill="#FFFFFF" cx="998.892" cy="371.386" r="3.926"/>
<circle fill="#FFFFFF" cx="1005.98" cy="455.583" r="3.926"/>
<circle fill="#FFFFFF" cx="1005.274" cy="358.075" r="3.926"/>
<circle fill="#FFFFFF" cx="950.148" cy="428.015" r="3.926"/>
<circle fill="#FFFFFF" cx="948.516" cy="383.868" r="3.926"/>
<circle fill="#FFFFFF" cx="939.196" cy="422.154" r="3.926"/>
<circle fill="#FFFFFF" cx="939.196" cy="390.358" r="3.926"/>
<polygon fill="#EE9521" points="1093.765,432.158 1071.359,432.158 1071.359,418.097 1093.765,418.097 1093.765,396.577 
	1071.486,396.577 1071.486,382.517 1093.765,382.517 1093.765,346.623 1049.975,346.623 1035.467,361.131 1035.467,455.602 
	1047.918,468.052 1093.765,468.052 "/>
<polygon fill="#EE9521" points="1129.023,346.623 1086.92,346.623 1086.92,382.331 1129.023,382.146 1140.091,371.078 
	1140.091,357.489 "/>
<polygon fill="#EE9521" points="1087.395,432.158 1086.92,431.683 1086.92,468.052 1129.023,468.052 1140.091,457.002 
	1140.091,443.415 1128.835,432.158 "/>
<polygon fill="#EE9521" points="1093.001,396.577 1097.803,396.577 1104.199,402.974 1104.199,411.031 1097.134,418.097 
	1093.001,418.097 "/>
<line fill="none" stroke="#FFFFFF" stroke-width="2.2911" stroke-miterlimit="10" x1="1060.975" y1="407.218" x2="1088.701" y2="407.218"/>
<circle fill="#FFFFFF" cx="1091.697" cy="407.218" r="3.926"/>
<circle fill="#FFFFFF" cx="1057.812" cy="407.218" r="3.926"/>
<circle fill="#FFFFFF" cx="1129.315" cy="455.997" r="3.926"/>
<circle fill="#FFFFFF" cx="1129.66" cy="358.902" r="3.926"/>
<polyline fill="none" stroke="#FFFFFF" stroke-width="2.2911" stroke-miterlimit="10" points="1129.755,358.819 1066.748,358.819 
	1055.102,358.902 1047.247,366.066 1047.247,378.476 1047.247,434.799 1047.247,450.105 1053.122,455.997 1066.939,455.997 
	1129.315,455.997 "/>
<polyline fill="none" stroke="#FFFFFF" stroke-width="2.2911" stroke-miterlimit="10" points="1116.362,442.445 1072.15,442.445 
	1060.611,430.989 1060.611,423.352 "/>
<polyline fill="none" stroke="#FFFFFF" stroke-width="2.2911" stroke-miterlimit="10" points="1116.267,372.13 1072.055,372.13 
	1060.517,383.585 1060.517,391.223 "/>
<circle fill="#FFFFFF" cx="1117.026" cy="372.13" r="3.926"/>
<circle fill="#FFFFFF" cx="1116.362" cy="442.445" r="3.926"/>
<circle fill="#FFFFFF" cx="1060.974" cy="421.927" r="3.925"/>
<circle fill="#FFFFFF" cx="1060.974" cy="392.556" r="3.925"/>
<g>
	<circle cx="295.387" cy="594.828" r="3.773"/>
	<circle cx="282.937" cy="581.802" r="3.773"/>
	<circle cx="295.387" cy="594.828" r="3.773"/>
	<polyline fill="none" stroke="#000000" stroke-width="2.202" stroke-miterlimit="10" points="295.387,594.828 229.168,594.828 
		216.51,582.169 216.51,525.232 216.51,501.252 	"/>
	<circle cx="216.509" cy="501.254" r="3.773"/>
	<polyline fill="none" stroke="#000000" stroke-width="2.202" stroke-miterlimit="10" points="282.445,582.824 239.954,582.824 
		228.863,571.814 228.863,564.474 	"/>
	<circle cx="282.445" cy="582.824" r="3.773"/>
	<circle cx="229.212" cy="563.105" r="3.773"/>
	
		<line fill="none" stroke="#000000" stroke-width="2.202" stroke-miterlimit="10" x1="229.355" y1="501.429" x2="229.355" y2="545.835"/>
	<circle cx="229.355" cy="547.841" r="3.773"/>
	<circle cx="229.703" cy="501.252" r="3.773"/>
</g>
<g>
	
		<line fill="none" stroke="#000000" stroke-width="2.202" stroke-miterlimit="10" x1="328.333" y1="547.62" x2="354.981" y2="547.62"/>
	<circle cx="357.862" cy="547.62" r="3.773"/>
	<circle cx="324.56" cy="547.62" r="3.773"/>
	<circle cx="394.017" cy="594.5" r="3.773"/>
	<circle cx="394.347" cy="501.182" r="3.774"/>
	<polyline fill="none" stroke="#000000" stroke-width="2.202" stroke-miterlimit="10" points="394.017,594.5 327.799,594.5 
		315.14,581.842 315.14,513.58 327.618,501.103 394.44,501.103 	"/>
	<polyline fill="none" stroke="#000000" stroke-width="2.202" stroke-miterlimit="10" points="381.567,581.475 339.076,581.475 
		327.985,570.465 327.985,563.125 	"/>
	<polyline fill="none" stroke="#000000" stroke-width="2.202" stroke-miterlimit="10" points="381.476,513.896 338.983,513.896 
		327.894,524.906 327.894,532.246 	"/>
	<circle cx="382.205" cy="513.896" r="3.773"/>
	<circle cx="381.567" cy="581.475" r="3.773"/>
	<circle cx="328.333" cy="561.756" r="3.774"/>
	<circle cx="328.333" cy="533.527" r="3.774"/>
</g>
<g>
	<polyline fill="none" stroke="#000000" stroke-width="2.202" stroke-miterlimit="10" points="418.687,590.035 418.687,577.728 
		418.687,524.394 443.937,499.144 471.843,499.144 497.763,525.064 497.763,565.25 497.763,577.728 497.763,590.035 	"/>
	<polyline fill="none" stroke="#000000" stroke-width="2.202" stroke-miterlimit="10" points="438.791,522.632 449.31,512.114 
		466.47,512.114 476.989,522.632 	"/>
	<polyline fill="none" stroke="#000000" stroke-width="2.202" stroke-miterlimit="10" points="431.656,590.035 431.656,579.197 
		431.656,566.812 	"/>
	<circle cx="497.92" cy="592.878" r="3.773"/>
	<circle cx="418.598" cy="592.878" r="3.773"/>
	<circle cx="484.793" cy="593.165" r="3.773"/>
	<circle cx="431.656" cy="593.073" r="3.773"/>
	<circle cx="431.656" cy="563.537" r="3.773"/>
	<circle cx="484.636" cy="563.538" r="3.773"/>
	<circle cx="478.69" cy="524.877" r="3.773"/>
	<circle cx="436.495" cy="524.881" r="3.773"/>
	
		<line fill="none" stroke="#000000" stroke-width="2.202" stroke-miterlimit="10" x1="431.656" y1="546.488" x2="484.794" y2="546.488"/>
	<circle cx="487.674" cy="546.488" r="3.773"/>
	<circle cx="428.618" cy="546.717" r="3.773"/>
	<polyline fill="none" stroke="#000000" stroke-width="2.202" stroke-miterlimit="10" points="484.636,589.901 484.636,579.064 
		484.636,566.678 	"/>
</g>
<g>
	<polyline fill="none" stroke="#000000" stroke-width="2.202" stroke-miterlimit="10" points="552.109,501.754 575.625,501.754 
		599.086,525.243 599.452,570.75 575.598,594.972 552.109,594.972 	"/>
	<circle cx="549.816" cy="501.945" r="3.773"/>
	<circle cx="550.433" cy="595.555" r="3.773"/>
	
		<line fill="none" stroke="#000000" stroke-width="2.202" stroke-miterlimit="10" x1="533.026" y1="525.977" x2="533.026" y2="571.576"/>
	<polyline fill="none" stroke="#000000" stroke-width="2.202" stroke-miterlimit="10" points="533.026,501.945 519.813,514.599 
		519.813,582.861 531.925,594.972 	"/>
	<circle cx="534.435" cy="501.446" r="3.773"/>
	<circle cx="533.741" cy="596.29" r="3.774"/>
	<polyline fill="none" stroke="#000000" stroke-width="2.202" stroke-miterlimit="10" points="543.669,514.599 564.037,514.599 
		585.873,536.62 585.873,561.208 564.771,582.585 543.669,582.585 	"/>
	<circle cx="541.891" cy="514.915" r="3.773"/>
	<circle cx="541.799" cy="582.585" r="3.773"/>
	<circle cx="533.007" cy="524.05" r="3.773"/>
	<circle cx="533.007" cy="573.228" r="3.773"/>
</g>
<g>
	<polyline fill="none" stroke="#000000" stroke-width="2.202" stroke-miterlimit="10" points="696.164,500.173 641.095,500.173 
		616.893,524.762 616.893,543.112 	"/>
	<polyline fill="none" stroke="#000000" stroke-width="2.202" stroke-miterlimit="10" points="616.787,594.953 671.855,594.953 
		696.06,570.364 696.06,552.015 	"/>
	<circle cx="696.801" cy="500.73" r="3.773"/>
	<circle cx="616.892" cy="543.112" r="3.773"/>
	<circle cx="696.059" cy="552.015" r="3.773"/>
	<circle cx="616.787" cy="594.953" r="3.774"/>
	
		<line fill="none" stroke="#000000" stroke-width="2.202" stroke-miterlimit="10" x1="630.038" y1="547.504" x2="683.176" y2="547.504"/>
	<circle cx="686.056" cy="547.504" r="3.773"/>
	<circle cx="627" cy="547.734" r="3.773"/>
	<polyline fill="none" stroke="#000000" stroke-width="2.202" stroke-miterlimit="10" points="616.893,581.372 667.002,581.372 
		678.548,568.802 678.548,559.544 	"/>
	<polyline fill="none" stroke="#000000" stroke-width="2.202" stroke-miterlimit="10" points="696.188,513.7 646.078,513.7 
		634.532,526.27 634.532,535.528 	"/>
	<circle cx="696.188" cy="513.7" r="3.773"/>
	<circle cx="634.531" cy="535.528" r="3.773"/>
	<circle cx="678.547" cy="559.544" r="3.773"/>
	<circle cx="616.891" cy="581.372" r="3.773"/>
</g>
<g>
	<polyline fill="none" stroke="#000000" stroke-width="2.202" stroke-miterlimit="10" points="804.76,590.846 804.76,578.541 
		804.76,528.512 804.747,524.059 794.015,513.101 771.117,513.101 	"/>
	<circle cx="804.672" cy="593.691" r="3.773"/>
	<polyline fill="none" stroke="#000000" stroke-width="2.202" stroke-miterlimit="10" points="817.73,590.846 817.73,578.541 
		817.73,528.512 817.715,523.52 826.678,512.734 850.193,512.734 	"/>
	<circle cx="817.641" cy="593.691" r="3.773"/>
	
		<line fill="none" stroke="#000000" stroke-width="2.202" stroke-miterlimit="10" x1="770.526" y1="500.255" x2="850.193" y2="500.255"/>
	<circle cx="850.194" cy="512.847" r="3.773"/>
	<circle cx="850.194" cy="500.079" r="3.773"/>
	<circle cx="771.117" cy="513.049" r="3.773"/>
	<circle cx="770.527" cy="500.255" r="3.773"/>
</g>
<g>
	<polyline fill="none" stroke="#000000" stroke-width="2.202" stroke-miterlimit="10" points="896.793,497.98 890.324,497.98 
		866.47,521.834 866.47,566.242 890.671,591.198 897.159,591.198 	"/>
	<polyline fill="none" stroke="#000000" stroke-width="2.202" stroke-miterlimit="10" points="886.998,568.491 898.421,579.914 
		911.585,579.914 915.259,579.914 926.683,568.491 	"/>
	
		<line fill="none" stroke="#000000" stroke-width="2.202" stroke-miterlimit="10" x1="877.458" y1="555.277" x2="877.458" y2="531.574"/>
	<polyline fill="none" stroke="#000000" stroke-width="2.202" stroke-miterlimit="10" points="887.984,521.048 898.993,510.039 
		915.572,510.039 928.354,522.035 	"/>
	<circle cx="885.045" cy="566.669" r="3.773"/>
	<circle cx="886.415" cy="522.035" r="3.773"/>
	<circle cx="877.458" cy="558.833" r="3.773"/>
	<circle cx="877.458" cy="528.274" r="3.773"/>
	<circle cx="928.894" cy="522.459" r="3.773"/>
	<circle cx="928.317" cy="566.644" r="3.773"/>
	
		<line fill="none" stroke="#000000" stroke-width="2.202" stroke-miterlimit="10" x1="936.05" y1="556.787" x2="936.05" y2="533.083"/>
	<circle cx="936.05" cy="560.341" r="3.773"/>
	<circle cx="936.05" cy="529.783" r="3.773"/>
	<polyline fill="none" stroke="#000000" stroke-width="2.202" stroke-miterlimit="10" points="916.494,497.887 922.963,497.887 
		946.817,521.742 946.817,566.149 922.615,591.105 916.129,591.105 	"/>
	<circle cx="915.257" cy="497.98" r="3.773"/>
	<circle cx="896.792" cy="497.98" r="3.773"/>
	<circle cx="897.158" cy="591.198" r="3.773"/>
	<circle cx="916.127" cy="591.105" r="3.773"/>
</g>
<g>
	<path fill="#A16DAE" d="M887.7,874.717l19.533-19.525l-0.001-3.566h39.97c0.658,0,1.236-0.122,1.743-0.33v20.921l-44.218,44.219
		h-65.41l-12.863-12.843v-15.793l13.083-13.082H887.7z"/>
	<path fill="#A16DAE" d="M936.081,775.304h-69.213l-40.414,40.413v27.361c0.508-0.208,1.086-0.33,1.743-0.33h39.972l0.004-9.384
		l16.18-16.547l51.729-0.229l12.864-12.864v-15.792L936.081,775.304z"/>
	<polygon fill="#A16DAE" points="931.901,833.46 826.454,833.46 826.454,842.455 842.469,858.469 948.913,858.469 948.913,850.472 	
		"/>
	
		<rect x="860.285" y="827.233" transform="matrix(-0.7071 -0.7071 0.7071 -0.7071 904.5367 2045.0806)" fill="#A16DAE" width="31.067" height="15.944"/>
	
		<rect x="884.414" y="849.358" transform="matrix(-0.7071 -0.7071 0.7071 -0.7071 930.0553 2099.9119)" fill="#A16DAE" width="31.066" height="15.942"/>
	<rect x="863.112" y="813.14" fill="#A16DAE" width="15.941" height="31.067"/>
	<rect x="894.179" y="847.634" fill="#A16DAE" width="15.941" height="31.067"/>
</g>
<g>
	<polygon fill="#A16DAE" points="468.313,916.059 447.916,916.059 399.434,867.156 399.434,788.71 414.079,774.928 428.28,774.928 
		441.151,787.784 441.151,849.876 458.324,867.05 480.206,845.493 480.206,788.018 494.852,774.235 509.054,774.235 
		521.924,787.092 521.924,863.146 	"/>
	<rect x="442.039" y="857.306" fill="#A16DAE" width="32.149" height="11.447"/>
</g>
<g>
	<path fill="#A16DAE" d="M326.53,615.2h-82.111l-16.862,16.862v109.799l14.472,14.471h13.477l13.921-13.92v-44.445h55.535
		l25.087-25.24v-34.52L326.53,615.2z M308.481,667.55l-6.227,5.711l-32.535-0.09v-16.569l32.535,0.317l6.227,5.601V667.55z"/>
	<path fill="#A16DAE" d="M312.268,690.993c-0.597,0.332-1.315,0.529-2.163,0.529H253.8l65.19,65.191l20.276,0.191l10.355-10.356
		l0.426-17.776L312.268,690.993z"/>
</g>
<polygon fill="#A16DAE" points="198.834,756.618 133.425,756.618 89.207,712.399 89.207,655.9 129.621,615.487 198.834,615.487 
	211.698,628.116 211.698,643.907 198.834,656.772 147.105,657 130.925,673.548 130.919,695.375 150.453,714.899 198.615,714.899 
	211.698,727.981 211.698,743.774 "/>
<g>
	<polygon fill="#A16DAE" points="951.221,756.331 1016.631,756.331 1060.85,712.112 1060.85,655.613 1020.436,615.2 951.221,615.2 
		938.357,627.829 938.357,643.62 951.221,656.485 1002.951,656.713 1019.131,673.261 1019.137,695.088 999.604,714.612 
		951.441,714.612 938.357,727.694 938.357,743.487 	"/>
	<rect x="938.357" y="629.401" fill="#A16DAE" width="42.014" height="107.697"/>
</g>
<g>
	<polygon fill="#A16DAE" points="866.855,714.9 840.816,714.9 840.816,698.558 866.855,698.558 866.855,673.546 840.964,673.546 
		840.964,657.205 866.855,657.205 866.855,615.487 815.961,615.487 799.099,632.35 799.099,742.147 813.571,756.618 
		866.855,756.618 	"/>
	<polygon fill="#A16DAE" points="907.835,615.487 858.9,615.487 858.9,656.989 907.835,656.773 920.698,643.91 920.698,628.116 	"/>
	<polygon fill="#A16DAE" points="859.453,714.9 858.9,714.349 858.9,756.618 907.835,756.618 920.698,743.775 920.698,727.983 
		907.616,714.9 	"/>
	<polygon fill="#A16DAE" points="865.968,673.546 871.55,673.546 878.983,680.981 878.983,690.345 870.771,698.558 865.968,698.558 
			"/>
</g>
<polygon fill="#A16DAE" points="378.961,903.223 366.09,915.49 351.445,915.49 337.243,901.019 337.243,788.143 351.889,774.359 
	366.09,774.359 378.961,787.217 "/>
<g>
	<polygon fill="#A16DAE" points="696.951,744.062 684.08,756.331 669.436,756.331 655.232,741.858 655.232,628.982 669.879,615.2 
		684.08,615.2 696.951,628.057 	"/>
	<polygon fill="#A16DAE" points="695.946,726.597 678.171,726.173 667.814,715.815 668.005,695.542 747.82,615.726 767.922,616.335 
		777.965,626.378 777.975,644.569 	"/>
	<path fill="#A16DAE" d="M723.764,674.237c-3.936,2.785-8.774,4.285-13.527,5.897c3.254,6.528,6.39,13.104,8.746,19.97
		c1.334,3.884-3.299,6.734-6.52,5.012c-3.971-2.122-7.17-6.132-9.941-9.571c-2.093-2.599-4.109-5.267-6.026-8.005
		c-0.214,0.221-0.438,0.428-0.642,0.662c-2.871,3.311-4.921,6.846-7.586,9.539l58.398,58.398l20.275,0.191l10.355-10.357
		l0.428-17.774L723.764,674.237z"/>
</g>
<path fill="#A16DAE" d="M449.655,615.201h-40.926l-40.414,40.413v56.498l44.218,44.22h33.318l44.218-44.247v-56.471L449.655,615.201
	z M449.087,700.995l-13.907,13.902h-12.425l-13.019-13.02v-32.255l13.019-13.019h12.425l13.907,14.499V700.995z"/>
<path fill="#A16DAE" d="M592.681,615.201h-40.926l-40.414,40.413v56.498l44.219,44.22h33.318l44.217-44.247v-56.471L592.681,615.201
	z M592.114,700.995l-13.908,13.902h-12.424l-13.02-13.02v-32.255l13.02-13.019h12.424l13.908,14.499V700.995z"/>
<g>
	<path fill="#A16DAE" d="M296.406,773.35h-82.111l-16.862,16.862v109.799l14.472,14.471h13.477l13.921-13.92v-44.445h55.535
		l25.087-25.24v-34.52L296.406,773.35z M278.357,825.699l-6.227,5.711l-32.535-0.09v-16.569l32.535,0.317l6.227,5.601V825.699z"/>
	<path fill="#A16DAE" d="M282.143,849.143c-0.597,0.332-1.315,0.529-2.163,0.529h-56.305l65.19,65.191l20.276,0.191l10.355-10.356
		l0.426-17.776L282.143,849.143z"/>
</g>
<g>
	<polygon fill="#A16DAE" points="611.101,872.994 585.062,872.994 585.062,856.651 611.101,856.651 611.101,831.64 585.209,831.64 
		585.209,815.299 611.101,815.299 611.101,773.581 560.206,773.581 543.344,790.443 543.344,900.241 557.816,914.712 
		611.101,914.712 	"/>
	<polygon fill="#A16DAE" points="652.08,773.581 603.146,773.581 603.146,815.083 652.08,814.867 664.943,802.004 664.943,786.21 	
		"/>
	<polygon fill="#A16DAE" points="603.698,872.994 603.146,872.442 603.146,914.712 652.08,914.712 664.943,901.869 664.943,886.077 
		651.861,872.994 	"/>
	<polygon fill="#A16DAE" points="610.213,831.64 615.795,831.64 623.229,839.075 623.229,848.438 615.017,856.651 610.213,856.651 	
		"/>
</g>
<g>
	<path fill="#A16DAE" d="M785.758,774.072h-82.111l-16.862,16.862v109.799l14.472,14.471h13.477l13.921-13.92v-44.445h55.535
		l25.087-25.24v-34.52L785.758,774.072z M767.709,826.422l-6.227,5.711l-32.535-0.09v-16.569l32.535,0.317l6.227,5.601V826.422z"/>
	<path fill="#A16DAE" d="M771.495,849.865c-0.597,0.332-1.315,0.529-2.163,0.529h-56.305l65.19,65.191l20.276,0.191l10.355-10.356
		l0.426-17.776L771.495,849.865z"/>
</g>
<g>
	<polyline fill="none" stroke="#000000" stroke-width="1.8383" stroke-miterlimit="10" points="460.696,1017.329 460.696,1007.056 
		460.696,962.53 481.775,941.451 505.073,941.451 526.711,963.091 526.711,996.64 526.711,1007.056 526.711,1017.329 	"/>
	<polyline fill="none" stroke="#000000" stroke-width="1.8383" stroke-miterlimit="10" points="477.479,961.06 486.261,952.279 
		500.587,952.279 509.369,961.061 	"/>
	<polyline fill="none" stroke="#000000" stroke-width="1.8383" stroke-miterlimit="10" points="471.524,1017.329 471.524,1008.282 
		471.524,997.942 	"/>
	<circle cx="526.843" cy="1019.704" r="3.15"/>
	<circle cx="460.622" cy="1019.704" r="3.15"/>
	<circle cx="515.884" cy="1019.942" r="3.15"/>
	<circle cx="471.524" cy="1019.866" r="3.15"/>
	<circle cx="471.524" cy="995.208" r="3.15"/>
	<circle cx="515.753" cy="995.21" r="3.15"/>
	<circle cx="510.789" cy="962.935" r="3.15"/>
	<circle cx="475.564" cy="962.938" r="3.15"/>
	
		<line fill="none" stroke="#000000" stroke-width="1.8383" stroke-miterlimit="10" x1="471.524" y1="980.976" x2="515.885" y2="980.976"/>
	<circle cx="518.289" cy="980.976" r="3.15"/>
	<circle cx="468.987" cy="981.167" r="3.15"/>
	<polyline fill="none" stroke="#000000" stroke-width="1.8383" stroke-miterlimit="10" points="515.753,1017.218 515.753,1008.171 
		515.753,997.831 	"/>
</g>
<g>
	<polyline fill="none" stroke="#000000" stroke-width="1.8383" stroke-miterlimit="10" points="546.77,1017.874 546.77,1007.601 
		546.77,965.837 546.696,941.792 	"/>
	<circle cx="546.697" cy="1020.249" r="3.15"/>
	<circle cx="546.697" cy="941.792" r="3.15"/>
	<polyline fill="none" stroke="#000000" stroke-width="1.8383" stroke-miterlimit="10" points="612.86,1017.95 612.86,1007.677 
		612.86,965.913 612.786,941.868 	"/>
	<circle cx="612.786" cy="1020.325" r="3.15"/>
	<circle cx="612.786" cy="941.868" r="3.15"/>
	<polyline fill="none" stroke="#000000" stroke-width="1.8383" stroke-miterlimit="10" points="604.601,990.733 597.984,984.117 
		571.091,957.224 555.555,941.792 	"/>
	<circle cx="605.722" cy="991.755" r="3.15"/>
	<circle cx="555.556" cy="941.792" r="3.15"/>
	<polyline fill="none" stroke="#000000" stroke-width="1.8383" stroke-miterlimit="10" points="554.211,954.815 569.25,969.749 
		595.281,995.78 601.685,1002.184 601.685,1017.95 	"/>
	<circle cx="601.958" cy="1020.325" r="3.15"/>
	
		<line fill="none" stroke="#000000" stroke-width="1.8383" stroke-miterlimit="10" x1="601.685" y1="941.868" x2="601.685" y2="976.136"/>
	
		<line fill="none" stroke="#000000" stroke-width="1.8383" stroke-miterlimit="10" x1="557.598" y1="971.233" x2="557.598" y2="1019.71"/>
	<circle cx="602.043" cy="977.659" r="3.15"/>
	<circle cx="602.043" cy="941.828" r="3.15"/>
	<circle cx="557.598" cy="1020.323" r="3.15"/>
	<circle cx="557.598" cy="971.544" r="3.15"/>
	<circle cx="555.438" cy="956.042" r="3.15"/>
</g>
<g>
	<polyline fill="none" stroke="#000000" stroke-width="1.8383" stroke-miterlimit="10" points="654.825,940.579 674.457,940.579 
		694.042,960.188 694.349,998.179 674.434,1018.4 654.825,1018.4 	"/>
	<circle cx="652.911" cy="940.738" r="3.15"/>
	<circle cx="653.426" cy="1018.887" r="3.15"/>
	
		<line fill="none" stroke="#000000" stroke-width="1.8383" stroke-miterlimit="10" x1="638.894" y1="960.8" x2="638.894" y2="998.868"/>
	<polyline fill="none" stroke="#000000" stroke-width="1.8383" stroke-miterlimit="10" points="638.894,940.738 627.863,951.303 
		627.863,1008.289 637.975,1018.4 	"/>
	<circle cx="640.07" cy="940.321" r="3.149"/>
	<circle cx="639.491" cy="1019.5" r="3.15"/>
	<polyline fill="none" stroke="#000000" stroke-width="1.8383" stroke-miterlimit="10" points="647.778,951.303 664.783,951.303 
		683.013,969.686 683.013,990.213 665.396,1008.06 647.778,1008.06 	"/>
	<circle cx="646.294" cy="951.565" r="3.15"/>
	<circle cx="646.218" cy="1008.06" r="3.15"/>
	<circle cx="638.877" cy="959.191" r="3.15"/>
	<circle cx="638.877" cy="1000.247" r="3.15"/>
</g>
<polygon fill="#E487B8" points="147.387,1205.982 72.352,1205.982 21.629,1155.257 21.629,1090.445 67.993,1044.088 
	147.387,1044.088 162.139,1058.576 162.139,1076.691 147.387,1091.447 88.047,1091.709 69.489,1110.689 69.479,1135.729 
	91.885,1158.127 147.131,1158.127 162.139,1173.133 162.139,1191.25 "/>
<polyline fill="none" stroke="#FFFFFF" stroke-width="8.5117" stroke-miterlimit="10" points="138.424,1060.356 128.973,1060.356 
	70.43,1060.356 37.336,1093.446 37.336,1155.051 70.907,1189.667 128.973,1189.667 138.424,1189.667 "/>
<polyline fill="none" stroke="#FFFFFF" stroke-width="8.5117" stroke-miterlimit="10" points="128.973,1171.977 86.754,1171.977 
	70.907,1156.131 "/>
<line fill="none" stroke="#FFFFFF" stroke-width="8.5117" stroke-miterlimit="10" x1="51.559" y1="1140.857" x2="51.559" y2="1107.979"/>
<polyline fill="none" stroke="#FFFFFF" stroke-width="8.5117" stroke-miterlimit="10" points="70.239,1093.375 85.514,1078.104 
	128.973,1078.104 "/>
<path fill="#FFFFFF" d="M127.956,1171.977c0,2.89,2.34,5.234,5.229,5.234c2.895,0,5.24-2.345,5.24-5.234
	c0-2.893-2.346-5.234-5.24-5.234C130.295,1166.742,127.956,1169.084,127.956,1171.977z"/>
<path fill="#FFFFFF" d="M127.956,1078.104c0,2.891,2.34,5.234,5.229,5.234c2.895,0,5.24-2.344,5.24-5.234
	c0-2.892-2.346-5.235-5.24-5.235C130.295,1072.868,127.956,1075.212,127.956,1078.104z"/>
<path fill="#FFFFFF" d="M137.405,1190.36c0,2.89,2.34,5.233,5.233,5.233c2.89,0,5.233-2.344,5.233-5.233
	c0-2.894-2.344-5.235-5.233-5.235C139.745,1185.125,137.405,1187.467,137.405,1190.36z"/>
<circle fill="#FFFFFF" cx="141.698" cy="1060.356" r="5.234"/>
<circle fill="#FFFFFF" cx="68.199" cy="1153.604" r="5.234"/>
<path fill="#FFFFFF" d="M62.825,1094.745c0,2.892,2.346,5.234,5.234,5.234c2.893,0,5.238-2.343,5.238-5.234
	s-2.346-5.233-5.238-5.233C65.17,1089.512,62.825,1091.854,62.825,1094.745z"/>
<circle fill="#FFFFFF" cx="51.559" cy="1145.789" r="5.234"/>
<circle fill="#FFFFFF" cx="51.559" cy="1103.397" r="5.234"/>
<g>
	<path fill="#E487B8" d="M296.947,1043.759h-94.188l-19.342,19.344v125.951l16.602,16.603h15.461l15.967-15.971v-50.984h63.705
		l28.777-28.952v-39.598L296.947,1043.759z M276.243,1103.811l-7.139,6.552l-37.322-0.105v-19.006l37.322,0.363l7.139,6.425
		V1103.811z"/>
	<path fill="#E487B8" d="M280.588,1130.702c-0.682,0.381-1.508,0.608-2.479,0.608h-64.591l74.78,74.782l23.264,0.219l11.879-11.881
		l0.486-20.388L280.588,1130.702z"/>
</g>
<line fill="none" stroke="#FFFFFF" stroke-width="8.5117" stroke-miterlimit="10" x1="216.733" y1="1124.303" x2="253.7" y2="1124.303"/>
<circle fill="#FFFFFF" cx="257.693" cy="1124.303" r="5.235"/>
<circle fill="#FFFFFF" cx="211.498" cy="1124.303" r="5.235"/>
<polyline fill="none" stroke="#FFFFFF" stroke-width="8.5117" stroke-miterlimit="10" points="198.43,1189.385 198.43,1163.632 
	198.43,1077.081 215.741,1059.775 290.959,1059.775 308.95,1077.521 308.911,1101.767 "/>
<polyline fill="none" stroke="#FFFFFF" stroke-width="8.5117" stroke-miterlimit="10" points="216.122,1102.978 216.122,1092.795 
	231.51,1077.521 284.532,1077.521 291.092,1083.947 291.092,1108.769 291.092,1116.753 281.682,1124.738 "/>
<circle fill="#FFFFFF" cx="216.734" cy="1143.913" r="5.233"/>
<circle fill="#FFFFFF" cx="216.734" cy="1104.753" r="5.233"/>
<line fill="none" stroke="#FFFFFF" stroke-width="8.5117" stroke-miterlimit="10" x1="216.733" y1="1149.146" x2="216.733" y2="1189.336"/>
<circle fill="#FFFFFF" cx="216.734" cy="1190.077" r="5.233"/>
<circle fill="#FFFFFF" cx="198.432" cy="1189.385" r="5.234"/>
<path fill="#FFFFFF" d="M274.106,1124.362c0,2.894,2.34,5.236,5.234,5.236c2.889,0,5.233-2.343,5.233-5.236
	c0-2.889-2.345-5.233-5.233-5.233C276.446,1119.129,274.106,1121.474,274.106,1124.362z"/>
<path fill="#FFFFFF" d="M303.677,1101.767c0,2.889,2.346,5.233,5.229,5.233c2.895,0,5.24-2.345,5.24-5.233
	c0-2.893-2.346-5.234-5.24-5.234C306.023,1096.532,303.677,1098.874,303.677,1101.767z"/>
<line fill="none" stroke="#FFFFFF" stroke-width="8.5117" stroke-miterlimit="10" x1="247.209" y1="1143.913" x2="290.225" y2="1186.93"/>
<line fill="none" stroke="#FFFFFF" stroke-width="8.5117" stroke-miterlimit="10" x1="268.725" y1="1138.678" x2="308.952" y2="1180.215"/>
<circle fill="#FFFFFF" cx="268.726" cy="1138.678" r="5.233"/>
<circle fill="#FFFFFF" cx="309.393" cy="1182.197" r="5.234"/>
<circle fill="#FFFFFF" cx="247.207" cy="1143.913" r="5.235"/>
<circle fill="#FFFFFF" cx="292.26" cy="1189.336" r="5.232"/>
<path fill="#E487B8" d="M438.543,1043.354h-46.947l-46.361,46.357v64.812l50.723,50.727h38.221l50.723-50.759v-64.78
	L438.543,1043.354z M437.891,1141.77l-15.953,15.946h-14.251l-14.935-14.934v-36.999l14.935-14.937h14.251l15.953,16.634V1141.77z"
	/>
<polyline fill="none" stroke="#FFFFFF" stroke-width="8.5117" stroke-miterlimit="10" points="402.286,1058.24 393.315,1058.24 
	360.221,1091.33 360.221,1152.934 393.795,1187.551 402.795,1187.551 "/>
<polyline fill="none" stroke="#FFFFFF" stroke-width="8.5117" stroke-miterlimit="10" points="388.701,1156.054 404.544,1171.898 
	422.805,1171.898 427.903,1171.898 443.75,1156.054 "/>
<line fill="none" stroke="#FFFFFF" stroke-width="8.5117" stroke-miterlimit="10" x1="375.463" y1="1137.723" x2="375.463" y2="1104.842"/>
<polyline fill="none" stroke="#FFFFFF" stroke-width="8.5117" stroke-miterlimit="10" points="390.065,1090.241 405.338,1074.968 
	428.336,1074.968 446.069,1091.609 "/>
<circle fill="#FFFFFF" cx="385.991" cy="1153.526" r="5.232"/>
<circle fill="#FFFFFF" cx="387.89" cy="1091.609" r="5.234"/>
<circle fill="#FFFFFF" cx="375.464" cy="1142.655" r="5.235"/>
<circle fill="#FFFFFF" cx="375.464" cy="1100.265" r="5.235"/>
<path fill="#FFFFFF" d="M441.584,1092.198c0,2.892,2.34,5.233,5.232,5.233c2.891,0,5.234-2.342,5.234-5.233
	c0-2.894-2.344-5.233-5.234-5.233C443.924,1086.965,441.584,1089.305,441.584,1092.198z"/>
<path fill="#FFFFFF" d="M440.782,1153.49c0,2.891,2.346,5.236,5.236,5.236c2.889,0,5.23-2.346,5.23-5.236s-2.342-5.234-5.23-5.234
	C443.127,1148.256,440.782,1150.6,440.782,1153.49z"/>
<line fill="none" stroke="#FFFFFF" stroke-width="8.5117" stroke-miterlimit="10" x1="456.749" y1="1139.817" x2="456.749" y2="1106.936"/>
<path fill="#FFFFFF" d="M451.51,1144.747c0,2.892,2.345,5.237,5.234,5.237c2.889,0,5.234-2.346,5.234-5.237
	c0-2.89-2.346-5.233-5.234-5.233C453.855,1139.514,451.51,1141.857,451.51,1144.747z"/>
<circle fill="#FFFFFF" cx="456.745" cy="1102.359" r="5.234"/>
<polyline fill="none" stroke="#FFFFFF" stroke-width="8.5117" stroke-miterlimit="10" points="429.618,1058.113 438.588,1058.113 
	471.682,1091.203 471.682,1152.807 438.107,1187.424 429.11,1187.424 "/>
<circle fill="#FFFFFF" cx="427.901" cy="1058.24" r="5.232"/>
<circle fill="#FFFFFF" cx="402.287" cy="1058.24" r="5.233"/>
<path fill="#FFFFFF" d="M397.558,1187.551c0,2.893,2.345,5.234,5.237,5.234c2.891,0,5.23-2.342,5.23-5.234
	c0-2.891-2.34-5.232-5.23-5.232C399.903,1182.318,397.558,1184.66,397.558,1187.551z"/>
<path fill="#FFFFFF" d="M423.875,1187.424c0,2.891,2.342,5.234,5.23,5.234c2.894,0,5.238-2.344,5.238-5.234
	c0-2.893-2.345-5.234-5.238-5.234C426.217,1182.189,423.875,1184.531,423.875,1187.424z"/>
<path fill="#E487B8" d="M599.458,1044.087h-46.947l-46.361,46.357v64.812l50.723,50.727h38.221l50.723-50.759v-64.78
	L599.458,1044.087z M598.806,1142.503l-15.953,15.946h-14.252l-14.934-14.934v-36.999l14.934-14.937h14.252l15.953,16.634V1142.503z
	"/>
<polyline fill="none" stroke="#FFFFFF" stroke-width="8.5117" stroke-miterlimit="10" points="563.2,1058.974 554.229,1058.974 
	521.136,1092.063 521.136,1153.667 554.71,1188.284 563.71,1188.284 "/>
<polyline fill="none" stroke="#FFFFFF" stroke-width="8.5117" stroke-miterlimit="10" points="549.614,1156.787 565.458,1172.632 
	583.72,1172.632 588.817,1172.632 604.665,1156.787 "/>
<line fill="none" stroke="#FFFFFF" stroke-width="8.5117" stroke-miterlimit="10" x1="536.378" y1="1138.456" x2="536.378" y2="1105.575"/>
<polyline fill="none" stroke="#FFFFFF" stroke-width="8.5117" stroke-miterlimit="10" points="550.979,1090.975 566.253,1075.701 
	589.251,1075.701 606.983,1092.343 "/>
<circle fill="#FFFFFF" cx="546.905" cy="1154.26" r="5.232"/>
<circle fill="#FFFFFF" cx="548.804" cy="1092.343" r="5.234"/>
<circle fill="#FFFFFF" cx="536.379" cy="1143.389" r="5.235"/>
<circle fill="#FFFFFF" cx="536.379" cy="1100.998" r="5.235"/>
<path fill="#FFFFFF" d="M602.499,1092.932c0,2.892,2.34,5.233,5.232,5.233c2.891,0,5.234-2.342,5.234-5.233
	c0-2.894-2.344-5.233-5.234-5.233C604.839,1087.698,602.499,1090.038,602.499,1092.932z"/>
<path fill="#FFFFFF" d="M601.696,1154.224c0,2.891,2.346,5.236,5.236,5.236c2.889,0,5.23-2.346,5.23-5.236s-2.342-5.234-5.23-5.234
	C604.042,1148.989,601.696,1151.333,601.696,1154.224z"/>
<line fill="none" stroke="#FFFFFF" stroke-width="8.5117" stroke-miterlimit="10" x1="617.663" y1="1140.551" x2="617.663" y2="1107.669"/>
<path fill="#FFFFFF" d="M612.425,1145.48c0,2.892,2.344,5.237,5.234,5.237c2.889,0,5.234-2.346,5.234-5.237
	c0-2.89-2.346-5.233-5.234-5.233C614.769,1140.247,612.425,1142.591,612.425,1145.48z"/>
<circle fill="#FFFFFF" cx="617.659" cy="1103.093" r="5.234"/>
<polyline fill="none" stroke="#FFFFFF" stroke-width="8.5117" stroke-miterlimit="10" points="590.532,1058.847 599.503,1058.847 
	632.597,1091.937 632.597,1153.54 599.021,1188.157 590.024,1188.157 "/>
<circle fill="#FFFFFF" cx="588.815" cy="1058.974" r="5.232"/>
<circle fill="#FFFFFF" cx="563.201" cy="1058.974" r="5.233"/>
<path fill="#FFFFFF" d="M558.472,1188.284c0,2.893,2.346,5.234,5.238,5.234c2.891,0,5.23-2.342,5.23-5.234
	c0-2.891-2.34-5.232-5.23-5.232C560.817,1183.052,558.472,1185.394,558.472,1188.284z"/>
<path fill="#FFFFFF" d="M584.79,1188.157c0,2.891,2.342,5.234,5.23,5.234c2.893,0,5.238-2.344,5.238-5.234
	c0-2.893-2.346-5.234-5.238-5.234C587.132,1182.923,584.79,1185.265,584.79,1188.157z"/>
<g>
	<polygon fill="#E487B8" points="713.929,1191.909 699.165,1205.983 682.362,1205.983 666.071,1189.382 666.071,1059.899 
		682.873,1044.088 699.165,1044.088 713.929,1058.835 	"/>
	<polygon fill="#E487B8" points="712.776,1171.875 692.386,1171.389 680.503,1159.508 680.726,1136.25 772.283,1044.69 
		795.339,1045.391 806.862,1056.912 806.871,1077.778 	"/>
	<path fill="#E487B8" d="M744.687,1111.813c-4.514,3.194-10.066,4.914-15.517,6.764c3.733,7.486,7.327,15.029,10.03,22.908
		c1.527,4.454-3.785,7.725-7.48,5.75c-4.553-2.436-8.225-7.036-11.402-10.981c-2.4-2.982-4.711-6.043-6.912-9.183
		c-0.246,0.254-0.504,0.489-0.737,0.761c-3.29,3.796-5.645,7.852-8.7,10.941l66.992,66.989l23.256,0.221l11.877-11.879l0.49-20.391
		L744.687,1111.813z"/>
</g>
<polyline fill="none" stroke="#FFFFFF" stroke-width="8.5117" stroke-miterlimit="10" points="681.973,1185.978 681.973,1168.905 
	681.973,1099.509 681.845,1059.552 "/>
<path fill="#FFFFFF" d="M676.61,1189.923c0,2.891,2.34,5.233,5.234,5.233c2.891,0,5.235-2.343,5.235-5.233
	c0-2.893-2.345-5.234-5.235-5.234C678.95,1184.688,676.61,1187.03,676.61,1189.923z"/>
<path fill="#FFFFFF" d="M676.61,1059.552c0,2.893,2.34,5.236,5.234,5.236c2.891,0,5.235-2.344,5.235-5.236
	c0-2.889-2.345-5.23-5.235-5.23C678.95,1054.321,676.61,1056.663,676.61,1059.552z"/>
<polyline fill="none" stroke="#FFFFFF" stroke-width="8.5117" stroke-miterlimit="10" points="782.782,1054.87 757.985,1079.843 
	714.766,1123.063 704.136,1133.693 699.354,1138.298 699.835,1189.36 "/>
<circle fill="#FFFFFF" cx="782.782" cy="1054.872" r="5.234"/>
<line fill="none" stroke="#FFFFFF" stroke-width="8.5117" stroke-miterlimit="10" x1="699.354" y1="1059.799" x2="699.354" y2="1111.813"/>
<circle fill="#FFFFFF" cx="699.354" cy="1115.008" r="5.233"/>
<path fill="#FFFFFF" d="M694.601,1059.552c0,2.893,2.343,5.236,5.234,5.236c2.891,0,5.232-2.344,5.232-5.236
	c0-2.889-2.342-5.23-5.232-5.23C696.943,1054.321,694.601,1056.663,694.601,1059.552z"/>
<path fill="#FFFFFF" d="M694.989,1190.479c0,2.891,2.344,5.237,5.232,5.237c2.892,0,5.234-2.347,5.234-5.237
	c0-2.89-2.343-5.232-5.234-5.232C697.333,1185.247,694.989,1187.59,694.989,1190.479z"/>
<polyline fill="none" stroke="#FFFFFF" stroke-width="8.5117" stroke-miterlimit="10" points="791.542,1071.556 749.757,1115.008 
	749.757,1137.639 791.542,1179.423 "/>
<line fill="none" stroke="#FFFFFF" stroke-width="8.5117" stroke-miterlimit="10" x1="724.884" y1="1138.211" x2="777.547" y2="1190.872"/>
<circle fill="#FFFFFF" cx="793.578" cy="1069.517" r="5.235"/>
<path fill="#FFFFFF" d="M787.837,1175.722c-2.039,2.043-2.043,5.357,0,7.402c2.047,2.043,5.363,2.043,7.406,0
	c2.041-2.045,2.041-5.359,0-7.402C793.198,1173.677,789.884,1173.677,787.837,1175.722z"/>
<path fill="#FFFFFF" d="M776.237,1189.229c-2.047,2.043-2.047,5.358,0,7.403c2.045,2.042,5.357,2.042,7.4,0
	c2.045-2.045,2.045-5.36,0-7.403C781.595,1187.185,778.282,1187.185,776.237,1189.229z"/>
<path fill="#FFFFFF" d="M722.204,1134.511c-2.044,2.043-2.044,5.357,0,7.402s5.359,2.045,7.405,0
	c2.042-2.045,2.042-5.359-0.005-7.402C727.561,1132.466,724.248,1132.466,722.204,1134.511z"/>
<g>
	<polygon fill="#E487B8" points="904.949,1155.987 875.076,1155.987 875.076,1137.24 904.949,1137.24 904.949,1108.55 
		875.248,1108.55 875.248,1089.806 904.949,1089.806 904.949,1041.948 846.566,1041.948 827.221,1061.292 827.221,1187.243 
		843.824,1203.843 904.949,1203.843 	"/>
	<polygon fill="#E487B8" points="951.957,1041.948 895.82,1041.948 895.82,1089.558 951.957,1089.309 966.712,1074.554 
		966.712,1056.437 	"/>
	<polygon fill="#E487B8" points="896.455,1155.987 895.82,1155.354 895.82,1203.843 951.957,1203.843 966.712,1189.112 
		966.712,1170.995 951.706,1155.987 	"/>
	<polygon fill="#E487B8" points="903.928,1108.55 910.33,1108.55 918.857,1117.079 918.857,1127.82 909.437,1137.24 
		903.928,1137.24 	"/>
</g>
<line fill="none" stroke="#FFFFFF" stroke-width="8.5117" stroke-miterlimit="10" x1="861.227" y1="1122.735" x2="898.191" y2="1122.735"/>
<circle fill="#FFFFFF" cx="902.19" cy="1122.735" r="5.233"/>
<circle fill="#FFFFFF" cx="855.994" cy="1122.735" r="5.233"/>
<path fill="#FFFFFF" d="M947.109,1187.772c0,2.89,2.344,5.232,5.232,5.232c2.893,0,5.24-2.343,5.24-5.232
	c0-2.894-2.348-5.237-5.24-5.237C949.453,1182.535,947.109,1184.879,947.109,1187.772z"/>
<circle fill="#FFFFFF" cx="952.802" cy="1058.319" r="5.235"/>
<polyline fill="none" stroke="#FFFFFF" stroke-width="8.5117" stroke-miterlimit="10" points="952.342,1187.772 860.488,1187.772 
	842.926,1170.212 842.926,1075.519 860.232,1058.208 952.933,1058.208 "/>
<polyline fill="none" stroke="#FFFFFF" stroke-width="8.5117" stroke-miterlimit="10" points="935.072,1169.703 876.127,1169.703 
	860.744,1154.431 860.744,1144.247 "/>
<polyline fill="none" stroke="#FFFFFF" stroke-width="8.5117" stroke-miterlimit="10" points="934.947,1075.957 876.002,1075.957 
	860.617,1091.229 860.617,1101.411 "/>
<path fill="#FFFFFF" d="M930.727,1075.957c0,2.891,2.338,5.233,5.23,5.233c2.896,0,5.236-2.343,5.236-5.233
	c0-2.892-2.34-5.235-5.236-5.235C933.064,1070.722,930.727,1073.065,930.727,1075.957z"/>
<circle fill="#FFFFFF" cx="935.073" cy="1169.703" r="5.233"/>
<path fill="#FFFFFF" d="M855.994,1142.347c0,2.891,2.346,5.234,5.232,5.234c2.892,0,5.234-2.344,5.234-5.234
	c0-2.89-2.343-5.233-5.234-5.233C858.34,1137.113,855.994,1139.457,855.994,1142.347z"/>
<path fill="#FFFFFF" d="M855.994,1103.188c0,2.891,2.346,5.234,5.232,5.234c2.892,0,5.234-2.344,5.234-5.234
	s-2.343-5.234-5.234-5.234C858.34,1097.954,855.994,1100.298,855.994,1103.188z"/>
<g>
	<polygon fill="#E487B8" points="1003.136,1205.058 1078.167,1205.058 1128.893,1154.334 1128.893,1089.523 1082.53,1043.162 
		1003.136,1043.162 988.376,1057.651 988.376,1075.767 1003.136,1090.523 1062.473,1090.783 1081.034,1109.766 1081.043,1134.805 
		1058.634,1157.202 1003.384,1157.202 988.376,1172.209 988.376,1190.326 	"/>
	<rect x="988.376" y="1059.455" fill="#E487B8" width="48.197" height="123.543"/>
</g>
<polyline fill="none" stroke="#FFFFFF" stroke-width="8.5117" stroke-miterlimit="10" points="1048.886,1057.904 1081.504,1057.904 
	1114.051,1090.484 1114.556,1153.616 1081.466,1187.216 1048.886,1187.216 "/>
<circle fill="#FFFFFF" cx="1045.702" cy="1058.168" r="5.232"/>
<path fill="#FFFFFF" d="M1041.326,1188.025c0,2.891,2.343,5.233,5.233,5.233s5.237-2.343,5.237-5.233
	c0-2.894-2.347-5.236-5.237-5.236S1041.326,1185.132,1041.326,1188.025z"/>
<line fill="none" stroke="#FFFFFF" stroke-width="8.5117" stroke-miterlimit="10" x1="1022.411" y1="1091.504" x2="1022.411" y2="1154.759"/>
<polyline fill="none" stroke="#FFFFFF" stroke-width="8.5117" stroke-miterlimit="10" points="1022.411,1058.168 1004.083,1075.723 
	1004.083,1170.414 1020.884,1187.216 "/>
<path fill="#FFFFFF" d="M1019.13,1057.475c0,2.893,2.346,5.236,5.238,5.236c2.889,0,5.234-2.344,5.234-5.236
	c0-2.891-2.346-5.234-5.234-5.234C1021.476,1052.24,1019.13,1054.584,1019.13,1057.475z"/>
<path fill="#FFFFFF" d="M1018.171,1189.045c0,2.889,2.342,5.23,5.234,5.23c2.889,0,5.232-2.342,5.232-5.23
	c0-2.893-2.344-5.234-5.232-5.234C1020.513,1183.811,1018.171,1186.152,1018.171,1189.045z"/>
<polyline fill="none" stroke="#FFFFFF" stroke-width="8.5117" stroke-miterlimit="10" points="1037.177,1075.723 1065.435,1075.723 
	1095.721,1106.27 1095.721,1140.379 1066.448,1170.033 1037.177,1170.033 "/>
<path fill="#FFFFFF" d="M1029.476,1076.16c0,2.889,2.345,5.233,5.232,5.233c2.893,0,5.235-2.345,5.235-5.233
	c0-2.891-2.343-5.234-5.235-5.234C1031.82,1070.926,1029.476,1073.27,1029.476,1076.16z"/>
<circle fill="#FFFFFF" cx="1034.582" cy="1170.033" r="5.236"/>
<path fill="#FFFFFF" d="M1017.147,1088.831c0,2.89,2.344,5.233,5.24,5.233c2.888,0,5.233-2.344,5.233-5.233
	c0-2.892-2.346-5.234-5.233-5.234C1019.491,1083.597,1017.147,1085.939,1017.147,1088.831z"/>
<path fill="#FFFFFF" d="M1017.147,1157.051c0,2.891,2.344,5.236,5.24,5.236c2.888,0,5.233-2.346,5.233-5.236
	c0-2.892-2.346-5.234-5.233-5.234C1019.491,1151.816,1017.147,1154.159,1017.147,1157.051z"/>
<g>
	<polygon fill="#E487B8" points="588.824,1338.929 558.951,1338.929 558.951,1320.182 588.824,1320.182 588.824,1291.491 
		559.123,1291.491 559.123,1272.747 588.824,1272.747 588.824,1224.89 530.441,1224.89 511.096,1244.233 511.096,1370.185 
		527.699,1386.784 588.824,1386.784 	"/>
	<polygon fill="#E487B8" points="635.832,1224.89 579.695,1224.89 579.695,1272.499 635.832,1272.25 650.587,1257.495 
		650.587,1239.378 	"/>
	<polygon fill="#E487B8" points="580.33,1338.929 579.695,1338.296 579.695,1386.784 635.832,1386.784 650.587,1372.054 
		650.587,1353.937 635.581,1338.929 	"/>
	<polygon fill="#E487B8" points="587.803,1291.491 594.205,1291.491 602.732,1300.021 602.732,1310.762 593.312,1320.182 
		587.803,1320.182 	"/>
</g>
<line fill="none" stroke="#FFFFFF" stroke-width="8.5117" stroke-miterlimit="10" x1="545.102" y1="1305.677" x2="582.066" y2="1305.677"/>
<circle fill="#FFFFFF" cx="586.065" cy="1305.677" r="5.233"/>
<circle fill="#FFFFFF" cx="539.869" cy="1305.677" r="5.233"/>
<path fill="#FFFFFF" d="M630.984,1370.714c0,2.89,2.344,5.232,5.232,5.232c2.893,0,5.24-2.343,5.24-5.232
	c0-2.894-2.348-5.237-5.24-5.237C633.328,1365.477,630.984,1367.82,630.984,1370.714z"/>
<circle fill="#FFFFFF" cx="636.677" cy="1241.261" r="5.235"/>
<polyline fill="none" stroke="#FFFFFF" stroke-width="8.5117" stroke-miterlimit="10" points="636.217,1370.714 544.363,1370.714 
	526.801,1353.153 526.801,1258.46 544.107,1241.149 636.808,1241.149 "/>
<polyline fill="none" stroke="#FFFFFF" stroke-width="8.5117" stroke-miterlimit="10" points="618.947,1352.645 560.002,1352.645 
	544.619,1337.372 544.619,1327.188 "/>
<polyline fill="none" stroke="#FFFFFF" stroke-width="8.5117" stroke-miterlimit="10" points="618.822,1258.898 559.877,1258.898 
	544.492,1274.17 544.492,1284.353 "/>
<path fill="#FFFFFF" d="M614.602,1258.898c0,2.891,2.338,5.233,5.23,5.233c2.896,0,5.236-2.343,5.236-5.233
	c0-2.892-2.34-5.235-5.236-5.235C616.939,1253.663,614.602,1256.007,614.602,1258.898z"/>
<circle fill="#FFFFFF" cx="618.948" cy="1352.645" r="5.233"/>
<path fill="#FFFFFF" d="M539.869,1325.288c0,2.891,2.346,5.234,5.232,5.234c2.892,0,5.234-2.344,5.234-5.234
	c0-2.89-2.343-5.233-5.234-5.233C542.215,1320.055,539.869,1322.398,539.869,1325.288z"/>
<path fill="#FFFFFF" d="M539.869,1286.13c0,2.891,2.346,5.234,5.232,5.234c2.892,0,5.234-2.344,5.234-5.234
	s-2.343-5.234-5.234-5.234C542.215,1280.896,539.869,1283.239,539.869,1286.13z"/>
<polygon fill="#E487B8" points="379.531,1386.879 362.727,1386.879 346.439,1370.277 346.439,1240.793 363.241,1224.984 
	379.531,1224.984 416.348,1262.33 455.166,1224.984 471.457,1224.984 486.223,1239.73 486.223,1372.805 471.457,1386.879 
	454.658,1386.879 438.366,1370.277 438.363,1308.135 426.151,1320.35 406.543,1320.35 394.299,1307.959 394.299,1372.805 "/>
<polyline fill="none" stroke="#FFFFFF" stroke-width="8.5117" stroke-miterlimit="10" points="362.119,1367.209 362.119,1350.14 
	362.119,1280.74 361.997,1240.787 "/>
<path fill="#FFFFFF" d="M356.763,1371.157c0,2.89,2.343,5.233,5.234,5.233c2.89,0,5.233-2.344,5.233-5.233
	c0-2.894-2.344-5.236-5.233-5.236C359.105,1365.921,356.763,1368.264,356.763,1371.157z"/>
<circle fill="#FFFFFF" cx="361.997" cy="1240.787" r="5.234"/>
<polyline fill="none" stroke="#FFFFFF" stroke-width="8.5117" stroke-miterlimit="10" points="471.676,1367.209 471.676,1350.14 
	471.676,1280.74 471.554,1240.787 "/>
<path fill="#FFFFFF" d="M466.314,1371.157c0,2.89,2.346,5.233,5.239,5.233c2.89,0,5.233-2.344,5.233-5.233
	c0-2.894-2.344-5.236-5.233-5.236C468.66,1365.921,466.314,1368.264,466.314,1371.157z"/>
<circle fill="#FFFFFF" cx="471.551" cy="1240.787" r="5.236"/>
<polyline fill="none" stroke="#FFFFFF" stroke-width="8.5117" stroke-miterlimit="10" points="457.258,1240.522 426.965,1270.993 
	407.33,1270.993 376.859,1240.522 "/>
<circle fill="#FFFFFF" cx="457.258" cy="1240.522" r="5.232"/>
<circle fill="#FFFFFF" cx="376.861" cy="1240.522" r="5.234"/>
<line fill="none" stroke="#FFFFFF" stroke-width="8.5117" stroke-miterlimit="10" x1="379.848" y1="1367.175" x2="379.848" y2="1288.501"/>
<line fill="none" stroke="#FFFFFF" stroke-width="8.5117" stroke-miterlimit="10" x1="453.562" y1="1367.441" x2="453.562" y2="1288.766"/>
<polyline fill="none" stroke="#FFFFFF" stroke-width="8.5117" stroke-miterlimit="10" points="374.938,1263.023 408.186,1296.271 
	428.072,1296.271 461.318,1263.023 "/>
<circle fill="#FFFFFF" cx="460.456" cy="1263.023" r="5.235"/>
<circle fill="#FFFFFF" cx="374.939" cy="1263.023" r="5.234"/>
<path fill="#FFFFFF" d="M374.613,1371.157c0,2.89,2.344,5.233,5.234,5.233s5.234-2.344,5.234-5.233c0-2.894-2.344-5.236-5.234-5.236
	S374.613,1368.264,374.613,1371.157z"/>
<path fill="#FFFFFF" d="M448.326,1371.157c0,2.89,2.344,5.233,5.235,5.233c2.89,0,5.235-2.344,5.235-5.233
	c0-2.894-2.346-5.236-5.235-5.236C450.67,1365.921,448.326,1368.264,448.326,1371.157z"/>
<path fill="#FFFFFF" d="M448.326,1288.501c0,2.89,2.344,5.233,5.236,5.233c2.89,0,5.235-2.344,5.235-5.233
	c0-2.894-2.346-5.233-5.235-5.233C450.67,1283.268,448.326,1285.607,448.326,1288.501z"/>
<path fill="#FFFFFF" d="M374.941,1288.501c0,2.89,2.342,5.233,5.233,5.233c2.89,0,5.233-2.344,5.233-5.233
	c0-2.894-2.344-5.233-5.233-5.233C377.283,1283.268,374.941,1285.607,374.941,1288.501z"/>
<g>
	<polygon fill="#E487B8" points="718.633,1371.667 703.874,1385.741 687.069,1385.741 670.777,1369.14 670.777,1239.655 
		687.579,1223.845 703.874,1223.845 718.633,1238.596 	"/>
	<path fill="#E487B8" d="M711.522,1231.573c-0.283,19.016-6.833,36.981-12.688,54.991l65.311,65.312l23.258,0.217l11.879-11.879
		l0.492-20.391L711.522,1231.573z"/>
	<polygon fill="#E487B8" points="811.29,1371.667 796.53,1385.741 779.729,1385.741 763.435,1369.14 763.435,1239.655 
		780.239,1223.845 796.53,1223.845 811.29,1238.596 	"/>
</g>
<polyline fill="none" stroke="#FFFFFF" stroke-width="8.5117" stroke-miterlimit="10" points="686.367,1365.906 686.367,1348.837 
	686.367,1279.437 686.242,1239.48 "/>
<circle fill="#FFFFFF" cx="686.241" cy="1369.851" r="5.234"/>
<circle fill="#FFFFFF" cx="686.241" cy="1239.48" r="5.234"/>
<polyline fill="none" stroke="#FFFFFF" stroke-width="8.5117" stroke-miterlimit="10" points="796.185,1366.032 796.185,1348.961 
	796.185,1279.563 796.059,1239.61 "/>
<path fill="#FFFFFF" d="M790.827,1369.979c0,2.89,2.338,5.233,5.231,5.233s5.233-2.344,5.233-5.233c0-2.893-2.34-5.237-5.233-5.237
	S790.827,1367.086,790.827,1369.979z"/>
<path fill="#FFFFFF" d="M790.827,1239.61c0,2.89,2.338,5.23,5.231,5.23s5.233-2.341,5.233-5.23c0-2.894-2.34-5.234-5.233-5.234
	S790.827,1236.717,790.827,1239.61z"/>
<polyline fill="none" stroke="#FFFFFF" stroke-width="8.5117" stroke-miterlimit="10" points="782.46,1320.806 771.464,1309.812 
	726.776,1265.123 700.964,1239.483 "/>
<path fill="#FFFFFF" d="M780.62,1326.205c2.045,2.043,5.357,2.044,7.404,0c2.041-2.046,2.041-5.358,0-7.403
	c-2.047-2.044-5.362-2.044-7.404-0.001C778.575,1320.847,778.575,1324.159,780.62,1326.205z"/>
<path fill="#FFFFFF" d="M697.261,1243.184c2.045,2.044,5.357,2.045,7.404,0c2.041-2.044,2.041-5.357,0-7.403
	c-2.047-2.043-5.359-2.043-7.404,0C695.216,1237.826,695.216,1241.139,697.261,1243.184z"/>
<polyline fill="none" stroke="#FFFFFF" stroke-width="8.5117" stroke-miterlimit="10" points="698.726,1261.122 723.718,1285.938 
	766.976,1329.192 777.614,1339.833 777.614,1366.032 "/>
<path fill="#FFFFFF" d="M774.366,1373.679c2.042,2.044,5.359,2.046,7.4,0c2.045-2.045,2.045-5.357,0-7.4
	c-2.041-2.046-5.358-2.046-7.4-0.002C772.319,1368.321,772.321,1371.634,774.366,1373.679z"/>
<line fill="none" stroke="#FFFFFF" stroke-width="8.5117" stroke-miterlimit="10" x1="777.614" y1="1239.61" x2="777.614" y2="1296.55"/>
<line fill="none" stroke="#FFFFFF" stroke-width="8.5117" stroke-miterlimit="10" x1="704.358" y1="1288.404" x2="704.358" y2="1368.954"/>
<path fill="#FFFFFF" d="M774.508,1302.782c2.044,2.045,5.36,2.045,7.405,0c2.039-2.043,2.039-5.359,0-7.402
	c-2.045-2.045-5.361-2.044-7.405,0C772.464,1297.425,772.464,1300.737,774.508,1302.782z"/>
<path fill="#FFFFFF" d="M774.508,1243.242c2.044,2.044,5.36,2.046,7.405,0c2.039-2.044,2.039-5.356,0-7.401
	c-2.045-2.043-5.361-2.043-7.405-0.001C772.464,1237.886,772.464,1241.198,774.508,1243.242z"/>
<path fill="#FFFFFF" d="M700.655,1373.674c2.047,2.046,5.357,2.046,7.402,0c2.045-2.043,2.045-5.355,0-7.401s-5.355-2.043-7.402,0
	C698.61,1368.318,698.612,1371.631,700.655,1373.674z"/>
<path fill="#FFFFFF" d="M700.655,1292.622c2.047,2.043,5.357,2.047,7.402,0c2.045-2.043,2.045-5.357,0-7.402
	c-2.045-2.043-5.355-2.043-7.402,0C698.61,1287.265,698.612,1290.579,700.655,1292.622z"/>
<path fill="#FFFFFF" d="M697.068,1266.862c2.042,2.043,5.356,2.045,7.403,0c2.041-2.045,2.041-5.357,0-7.402
	c-2.047-2.045-5.361-2.045-7.403-0.001C695.022,1261.505,695.022,1264.817,697.068,1266.862z"/>
</svg>
