<?xml version="1.0" encoding="utf-8"?>
<!-- Generator: Adobe Illustrator 15.0.0, SVG Export Plug-In . SVG Version: 6.00 Build 0)  -->
<!DOCTYPE svg PUBLIC "-//W3C//DTD SVG 1.1//EN" "http://www.w3.org/Graphics/SVG/1.1/DTD/svg11.dtd">
<svg version="1.1" xmlns="http://www.w3.org/2000/svg" xmlns:xlink="http://www.w3.org/1999/xlink" x="0px" y="0px" width="700px"
	 height="1230px" viewBox="0 0 700 1230" enable-background="new 0 0 700 1230" xml:space="preserve">
<g id="Layer_1">
	<rect y="-1.103" fill="#FFFFFF" width="700" height="1231.103"/>
	<circle fill-rule="evenodd" clip-rule="evenodd" fill="#472F91" cx="431.313" cy="109.586" r="62.568"/>
	<path fill-rule="evenodd" clip-rule="evenodd" fill="#FFC222" d="M438.254,76.281h-30.608c-3.36,0-6.082,2.724-6.082,6.082v54.445
		c0,3.359,2.722,6.082,6.082,6.082h46.627c3.36,0,6.081-2.723,6.081-6.082V98.38C452.987,91.015,445.622,83.648,438.254,76.281z"/>
	<circle fill-rule="evenodd" clip-rule="evenodd" fill="#FFC222" cx="116.447" cy="110.664" r="62.567"/>
	<circle fill-rule="evenodd" clip-rule="evenodd" fill="#F78E1E" cx="274.13" cy="110.442" r="62.567"/>
	<g>
		<g>
			<path fill-rule="evenodd" clip-rule="evenodd" fill="#472F91" d="M130.838,110.043c0,2.576-2.108,4.684-4.684,4.684h-20.19
				c-2.576,0-4.684-2.108-4.684-4.684V74.627c0-2.576,2.108-4.684,4.684-4.684h20.19c2.576,0,4.684,2.108,4.684,4.684V110.043z"/>
		</g>
		<g>
			<path fill-rule="evenodd" clip-rule="evenodd" fill="#472F91" d="M90.555,105.357c-2.576,0-3.254,1.548-1.506,3.441
				l24.222,26.231c1.748,1.893,4.607,1.893,6.355,0l24.221-26.231c1.748-1.893,1.07-3.441-1.506-3.441H90.555z"/>
		</g>
	</g>
	<path fill-rule="evenodd" clip-rule="evenodd" fill="#F78E1E" d="M438.434,76.359v15.564c0,0,0,6.618,6.784,6.618
		c6.785,0,15.136,0,15.136,0L438.434,76.359z"/>
	<rect x="410.249" y="92.193" fill-rule="evenodd" clip-rule="evenodd" fill="#472F91" width="20.356" height="4.175"/>
	<rect x="410.249" y="100.622" fill-rule="evenodd" clip-rule="evenodd" fill="#472F91" width="20.356" height="4.175"/>
	<rect x="410.249" y="108.894" fill-rule="evenodd" clip-rule="evenodd" fill="#472F91" width="39.841" height="4.175"/>
	<rect x="410.162" y="117.245" fill-rule="evenodd" clip-rule="evenodd" fill="#472F91" width="39.841" height="4.176"/>
	<rect x="410.162" y="125.596" fill-rule="evenodd" clip-rule="evenodd" fill="#472F91" width="39.841" height="4.175"/>
	<g>
		<path fill="#C8DF8E" d="M290.24,103.95c-2.479-1.587-7.345-4.661-7.345-4.661s-3.367-2.48-8.923-2.48
			c-5.554,0-8.92,2.48-8.92,2.48s-4.866,3.074-7.345,4.661c-2.48,1.588-1.29,4.265-1.29,4.265c1.29,2.976,4.96,1.29,4.96,1.29
			s2.181-1.191,3.57-2.282c1.389-1.091,1.488,0,1.488,0s0,21.326,0,25.193c0,3.868,3.57,3.968,3.57,3.968
			c2.876,0,3.273-3.273,3.273-3.273s0-8.628,0-10.514c0-1.885,1.389-1.885,1.389,0c0,1.886,0,10.514,0,10.514
			s0.396,3.273,3.272,3.273c0,0,3.57-0.1,3.57-3.968c0-3.867,0-25.193,0-25.193s0.099-1.091,1.487,0s3.572,2.282,3.572,2.282
			s3.669,1.686,4.958-1.29C291.529,108.215,292.72,105.538,290.24,103.95z"/>
		<circle fill="#C8DF8E" cx="273.974" cy="89.568" r="6.446"/>
	</g>
	<g>
		<path fill="#C8DF8E" d="M258.999,103.95c-2.479-1.587-7.345-4.661-7.345-4.661s-3.366-2.48-8.921-2.48
			c-5.554,0-8.921,2.48-8.921,2.48s-4.867,3.074-7.345,4.661c-2.48,1.588-1.291,4.265-1.291,4.265
			c1.291,2.976,4.959,1.29,4.959,1.29s2.183-1.191,3.571-2.282c1.388-1.091,1.488,0,1.488,0s0,21.326,0,25.193
			c0,3.868,3.569,3.968,3.569,3.968c2.878,0,3.273-3.273,3.273-3.273s0-8.628,0-10.514c0-1.885,1.388-1.885,1.388,0
			c0,1.886,0,10.514,0,10.514s0.398,3.273,3.274,3.273c0,0,3.57-0.1,3.57-3.968c0-3.867,0-25.193,0-25.193s0.101-1.091,1.489,0
			s3.569,2.282,3.569,2.282s3.67,1.686,4.96-1.29C260.289,108.215,261.479,105.538,258.999,103.95z"/>
		<circle fill="#C8DF8E" cx="242.733" cy="89.568" r="6.447"/>
	</g>
	<path fill-rule="evenodd" clip-rule="evenodd" fill="#472F91" d="M145.844,148.256c0,2.849-2.31,5.158-5.158,5.158H92.21
		c-2.849,0-5.158-2.31-5.158-5.158l0,0c0-2.849,2.31-5.157,5.158-5.157h48.476C143.534,143.099,145.844,145.407,145.844,148.256
		L145.844,148.256z"/>
	<g>
		<path fill="#C8DF8E" d="M321.42,103.95c-2.479-1.587-7.345-4.661-7.345-4.661s-3.366-2.48-8.922-2.48
			c-5.554,0-8.919,2.48-8.919,2.48s-4.867,3.074-7.346,4.661c-2.48,1.588-1.291,4.265-1.291,4.265c1.291,2.976,4.96,1.29,4.96,1.29
			s2.182-1.191,3.571-2.282c1.389-1.091,1.488,0,1.488,0s0,21.326,0,25.193c0,3.868,3.569,3.968,3.569,3.968
			c2.877,0,3.274-3.273,3.274-3.273s0-8.628,0-10.514c0-1.885,1.388-1.885,1.388,0c0,1.886,0,10.514,0,10.514
			s0.397,3.273,3.273,3.273c0,0,3.569-0.1,3.569-3.968c0-3.867,0-25.193,0-25.193s0.1-1.091,1.488,0
			c1.388,1.091,3.571,2.282,3.571,2.282s3.669,1.686,4.959-1.29C322.71,108.215,323.901,105.538,321.42,103.95z"/>
		<circle fill="#C8DF8E" cx="305.154" cy="89.568" r="6.446"/>
	</g>
	<circle fill-rule="evenodd" clip-rule="evenodd" fill="#C8DF8E" cx="588.334" cy="109.778" r="62.568"/>
	<circle fill-rule="evenodd" clip-rule="evenodd" fill="#005AB6" cx="115.644" cy="303.018" r="62.566"/>
	<circle fill-rule="evenodd" clip-rule="evenodd" fill="#F78E1E" cx="95.859" cy="277.816" r="12.348"/>
	<circle fill-rule="evenodd" clip-rule="evenodd" fill="#F78E1E" cx="127.024" cy="277.816" r="12.348"/>
	<path fill-rule="evenodd" clip-rule="evenodd" fill="#F78E1E" d="M139.318,293.307H85.187c-3.359,0-6.082,2.723-6.082,6.081v29.501
		c0,3.359,2.723,6.08,6.082,6.08h54.132c3.358,0,6.081-2.721,6.081-6.08v-29.501C145.399,296.03,142.677,293.307,139.318,293.307z
		 M127.023,322.079c0,1.623-1.317,2.939-2.94,2.939H91.152c-1.622,0-2.94-1.316-2.94-2.939v-15.816c0-1.622,1.318-2.938,2.94-2.938
		h32.931c1.623,0,2.94,1.316,2.94,2.938V322.079z M135.402,309.2c-2.191,0-3.969-1.777-3.969-3.97c0-2.193,1.777-3.969,3.969-3.969
		s3.97,1.775,3.97,3.969C139.372,307.422,137.594,309.2,135.402,309.2z"/>
	<g>
		<path fill-rule="evenodd" clip-rule="evenodd" fill="#F78E1E" d="M157.584,325.411c3.167,1.076,5.759-0.78,5.759-4.125v-13.687
			c0-3.345-2.606-5.246-5.792-4.225l-4.534,1.455c-3.186,1.021-5.792,4.594-5.792,7.939v3.041c0,3.345,2.592,6.962,5.759,8.039
			L157.584,325.411z"/>
	</g>
	<path fill="#005AB6" d="M590.083,88.667c1.218-4.174,2.276-9.951,0.146-13.184c-0.453-0.84-2.424-4.099-6.772-6.528l-0.085-0.045
		c-0.044-0.023-4.366-2.317-4.542-6.357l-0.075-1.722l-5.229,0.228l0.074,1.722c0.304,6.979,6.652,10.417,7.318,10.754
		c3.352,1.878,4.712,4.447,4.716,4.452l0.22,0.367c0.838,1.173,0.283,5.626-1.225,10.228c-10.812,1.038-19.115,9.147-19.115,18.9
		v32.513c0,10.485,9.629,19.016,21.463,19.016c11.836,0,21.463-8.53,21.463-19.016v-32.513
		C608.438,97.912,600.54,89.998,590.083,88.667z M590.04,110.088c0,1.602-1.502,2.9-3.356,2.9c-1.854,0-3.354-1.299-3.354-2.9
		v-9.242c0-1.602,1.5-2.901,3.354-2.901c1.854,0,3.356,1.3,3.356,2.901V110.088z"/>
	<circle fill-rule="evenodd" clip-rule="evenodd" fill="#472F91" cx="273.73" cy="303.019" r="62.567"/>
	<g>
		<path fill="#F78E1E" d="M236.488,323.115l5.271-26.611c1.031-5.2,6.604-9.417,12.449-9.417h46.812
			c0.803,0,1.566,0.083,2.288,0.234c-1.687-3.611-5.346-6.114-9.593-6.114H270.31v-1.909c0-5.845-4.738-10.584-10.582-10.584
			h-12.823c-5.845,0-10.582,4.739-10.582,10.584v8.965c0,0.601,0.052,1.19,0.148,1.764c-0.097,0.573-0.148,1.162-0.148,1.766V321.7
			c0,0.557,0.043,1.104,0.127,1.64C236.462,323.264,236.473,323.19,236.488,323.115z"/>
	</g>
	<path fill="#FFC222" d="M308.458,327.583c-1.028,5.2-6.602,9.416-12.447,9.416h-46.812c-5.845,0-9.746-4.216-8.718-9.416
		l5.274-26.611c1.031-5.2,6.604-9.415,12.448-9.415h46.812c5.846,0,9.747,4.215,8.716,9.415L308.458,327.583z"/>
	<rect x="212.974" y="187.604" fill="none" width="122" height="40"/>
	<text transform="matrix(1 0 0 1 236.7388 198.5161)" font-family="'MiloComp'" font-size="16">Community</text>
	<rect x="370.313" y="187.604" fill="none" width="122" height="40"/>
	<text transform="matrix(1 0 0 1 407.334 198.5161)" font-family="'MiloComp'" font-size="16">Articles</text>
	<rect x="527.335" y="187.577" fill="none" width="122" height="40"/>
	<text transform="matrix(1 0 0 1 550.9482 198.4888)" font-family="'MiloComp'" font-size="16">Interactives</text>
	<rect x="57.014" y="187.604" fill="none" width="122" height="40"/>
	<text transform="matrix(1 0 0 1 82.5386 198.5161)" font-family="'MiloComp'" font-size="16">Downloads</text>
	<rect x="54.644" y="379.979" fill="none" width="122" height="40"/>
	<text transform="matrix(1 0 0 1 97.3242 390.8906)" font-family="'MiloComp'" font-size="16">Video</text>
	<rect x="216.107" y="379.979" fill="none" width="122" height="40"/>
	<text transform="matrix(1 0 0 1 260.46 390.8906)" font-family="'MiloComp'" font-size="16">Tools</text>
	<circle fill-rule="evenodd" clip-rule="evenodd" fill="#005AB6" cx="587.333" cy="302.664" r="62.521"/>
	<path fill="#FFFFFF" d="M603.944,299.216h-11.301c8.369-2.563,14.455-10.35,14.455-19.561c0-11.297-9.158-20.456-20.455-20.456
		c-11.298,0-20.457,9.158-20.457,20.456c0,9.21,6.088,16.997,14.459,19.561h-11.303c-7.941,0-14.381,6.439-14.381,14.38v17.999
		v14.38h14.381h34.602h14.381v-14.38v-17.999C618.325,305.655,611.887,299.216,603.944,299.216z"/>
	<g>
		<path fill="#005AB6" d="M587.553,301.894c-0.5-1.385-1.318-1.385-1.818,0l-8.127,22.512c-0.5,1.385-0.023,3.336,1.059,4.335
			l6.01,5.55c1.082,0.999,2.854,0.999,3.936,0l6.01-5.55c1.082-0.999,1.559-2.95,1.059-4.335L587.553,301.894z"/>
	</g>
	<circle fill-rule="evenodd" clip-rule="evenodd" fill="#005AB6" cx="115.864" cy="496.773" r="62.521"/>
	<g>
		<g>
			<path fill-rule="evenodd" clip-rule="evenodd" fill="#FFFFFF" d="M130.244,477.578c0-2.574-2.106-4.681-4.68-4.681h-20.177
				c-2.574,0-4.68,2.106-4.68,4.681v35.391c0,2.574,2.106,4.68,4.68,4.68h20.177c2.574,0,4.68-2.105,4.68-4.68V477.578z"/>
		</g>
		<g>
			<path fill-rule="evenodd" clip-rule="evenodd" fill="#FFFFFF" d="M89.99,482.26c-2.574,0-3.251-1.547-1.505-3.438l24.204-26.214
				c1.747-1.892,4.604-1.892,6.351,0.001l24.203,26.212c1.747,1.892,1.069,3.438-1.505,3.438H89.99z"/>
		</g>
	</g>
	<path fill-rule="evenodd" clip-rule="evenodd" fill="#FFFFFF" d="M130.244,526.628c0,2.403-1.947,4.351-4.35,4.351h-20.838
		c-2.402,0-4.35-1.947-4.35-4.351l0,0c0-2.401,1.947-4.349,4.35-4.349h20.838C128.297,522.279,130.244,524.227,130.244,526.628
		L130.244,526.628z"/>
	<circle fill-rule="evenodd" clip-rule="evenodd" fill="#005AB6" cx="430.312" cy="302.257" r="62.521"/>
	<g>
		<path fill="#FFFFFF" d="M448.582,318.366c-2.918-1.869-8.646-5.488-8.646-5.488s-3.964-2.919-10.502-2.919
			c-4.054,0-7.108,1.12-8.852,1.973v40.314c0.228,4.178,4.18,4.301,4.18,4.301c3.388,0,3.854-3.854,3.854-3.854s0-10.157,0-12.377
			c0-2.218,1.633-2.218,1.633,0c0,2.22,0,12.377,0,12.377s0.469,3.854,3.854,3.854c0,0,4.204-0.117,4.204-4.671s0-29.658,0-29.658
			s0.118-1.284,1.753,0c1.635,1.283,4.202,2.687,4.202,2.687s4.319,1.983,5.837-1.519
			C450.1,323.386,451.503,320.233,448.582,318.366z"/>
		<circle fill="#FFFFFF" cx="429.434" cy="301.434" r="7.589"/>
	</g>
	<path fill="#FFFFFF" d="M450.438,322.054c0,1.912-1.549,3.46-3.461,3.46l0,0c-1.91,0-3.459-1.548-3.459-3.46v-10.436
		c0-1.909,1.549-3.459,3.459-3.459l0,0c1.912,0,3.461,1.55,3.461,3.459V322.054z"/>
	<path fill="#FFFFFF" d="M424.084,309.958c1.912,0,3.461,1.547,3.461,3.459l0,0c0,1.911-1.549,3.46-3.461,3.46h-10.436
		c-1.91,0-3.459-1.549-3.459-3.46l0,0c0-1.912,1.549-3.459,3.459-3.459H424.084z"/>
	<path fill="#FFFFFF" d="M417.169,313.732c-0.634,1.803-2.607,2.75-4.411,2.118l0,0c-1.802-0.633-2.751-2.608-2.117-4.411
		l3.459-9.848c0.633-1.802,2.607-2.751,4.41-2.118l0,0c1.803,0.634,2.751,2.608,2.117,4.412L417.169,313.732z"/>
	<rect x="419.386" y="309.976" fill="#FFFFFF" width="10.413" height="2.893"/>
	<g>
		<path fill="#FFFFFF" d="M439.068,251.167l-0.072-0.086c-2.678-2.899-5.748-4.37-9.128-4.37c-2.135,0-4.346,0.63-6.571,1.87
			l-0.17,0.11c-3.678,2.771-5.543,6.122-5.543,9.958c0,0.914,0.346,3.112,3.542,3.794l0.308,0.032c1.244,0,2.373-0.642,3.355-1.907
			l0.21-0.271l0.647-3.163c1.341-2.396,2.9-2.678,3.969-2.678c0.314,0,0.898,0.065,1.922,0.371c2.342,1.376,2.617,2.889,2.617,3.915
			c0,1.303-0.446,2.402-1.364,3.357c-4.355,2.737-6.563,6.337-6.563,10.701v0.691c0,1.062,0.447,2.942,3.438,3.605l0.158,0.036
			h0.161c2.173,0,3.612-1.326,3.948-3.635l0.016-0.213c0-2.062,0.944-3.541,2.97-4.653l0.257-0.179
			c3.135-2.724,4.725-5.906,4.725-9.457C441.898,256.179,440.946,253.545,439.068,251.167z"/>
		<path fill="#FFFFFF" d="M430.146,279.529h-0.438l-0.287,0.028c-2.564,0.509-3.977,2.135-3.977,4.582
			c0,1.313,0.525,3.632,4.045,4.391l0.311,0.034c2.514,0,4.166-1.426,4.653-4.014l0.025-1.295l-0.075-0.227
			C433.389,279.983,431.3,279.529,430.146,279.529z"/>
	</g>
	<path fill-rule="evenodd" clip-rule="evenodd" fill="#FFFFFF" d="M130.633,537.885c0,1.453-1.179,2.633-2.633,2.633h-24.271
		c-1.455,0-2.633-1.18-2.633-2.633l0,0c0-1.455,1.179-2.633,2.633-2.633H128C129.454,535.252,130.633,536.43,130.633,537.885
		L130.633,537.885z"/>
	<rect x="55.562" y="574.804" fill="none" width="122" height="40"/>
	<text transform="matrix(1 0 0 1 90.5898 585.6787)" font-family="'MiloComp'" font-size="16">Uploads</text>
	<rect x="525.64" y="379.617" fill="none" width="122" height="40"/>
	<text transform="matrix(1 0 0 1 556.4619 390.4917)" font-family="'MiloComp'" font-size="16">Specialist</text>
	<rect x="368.434" y="380.212" fill="none" width="122.001" height="40"/>
	<text transform="matrix(1 0 0 1 385.3838 391.0879)" font-family="'MiloComp'" font-size="16">More Options</text>
	<g>
		<path fill="#005AB6" d="M299.052,491.406c0.474-3.642,0.814-6.217,1.014-7.721c6.803-6.793,12.555-16.777,12.217-31.039
			l-0.213-0.213c-14.182-0.335-24.135,5.35-30.927,12.105c-1.467,0.193-4.114,0.543-7.917,1.04
			c-6.151,0.8-18.859,14.291-20.552,16.069c-1.698,1.783,0.805,1.739,0.805,1.739l17.19-3.763c-1.661,3.537-2.353,5.963-2.353,5.963
			l5.3,5.301l0.213,0.214l5.299,5.298c0,0,2.372-0.675,5.846-2.297l-3.731,17.049c0,0-0.044,2.501,1.739,0.805
			C284.76,510.263,298.253,497.559,299.052,491.406z"/>
		<path fill="#005AB6" d="M271.311,507.752l0.005-0.082c0.023-0.029,0.047-0.064,0.07-0.095c5.337-7.488,0.127-14.374,0.127-14.374
			s-6.973-5.278-14.52,0.234c0,0-0.676,0.379-2.751,2.752c0,0,4.663-0.502,6.378,0.874l0,0c-1.194,2.305-2.295,5.503-1.231,8.264
			c2.763,1.067,5.963-0.035,8.271-1.234c0.009,0.011,0.017,0.022,0.025,0.034c1.376,1.716,0.874,6.379,0.874,6.379
			C270.932,508.428,271.311,507.752,271.311,507.752z"/>
	</g>
	<path fill="none" stroke="#005AB6" stroke-width="3.7362" stroke-miterlimit="10" d="M252.995,506.765
		c0,0-8.587,1.104-10.824,15.181c0,0-0.992,10.963-10.956,10.963"/>
	<path fill="none" stroke="#005AB6" stroke-width="3.7362" stroke-miterlimit="10" d="M262.015,514.981
		c0,0-8.586,1.104-10.825,15.182c0,0-0.993,10.964-10.956,10.964"/>
	<rect x="204.011" y="574.806" fill="none" width="139.658" height="40"/>
	<text transform="matrix(1 0 0 1 206.2324 585.6973)" font-family="'MiloComp'" font-size="16">Rocket (General Use)</text>
	<path fill-rule="evenodd" clip-rule="evenodd" fill="#005AB6" d="M470.613,525.709c0,0,0-65.622,0-69.398
		c0-3.779-2.747-3.436-2.747-3.436s-58.411,0-69.405,0c-10.99,0-9.962,13.736-9.962,13.736s0,54.979,0,63.904
		c0,8.938,9.791,10.314,9.791,10.314s52.224,0,56.688,0c4.47,0,4.639-4.816,4.639-4.816s0-54.631,0-61.324
		c0-6.703-4.639-5.325-4.639-5.325s-53.08,0-54.113,0c-1.029,0-7.214,0.17-7.045-5.329c0.176-5.494,5.841-5.668,5.841-5.668
		s59.442,0,62.704,0s3.095,3.95,3.095,3.95l-0.175,67.168c0,0-1.027,0.353,2.407,0.353S470.613,525.709,470.613,525.709z
		 M437.971,491.945c2.977,0,5.389,2.409,5.389,5.385s-2.412,5.391-5.389,5.391c-2.976,0-5.387-2.415-5.387-5.391
		S434.995,491.945,437.971,491.945z M411.245,491.945c2.976,0,5.388,2.409,5.388,5.385s-2.412,5.391-5.388,5.391
		s-5.388-2.415-5.388-5.391S408.27,491.945,411.245,491.945z M405.857,516.913l1.547-1.603c0,0.002,0.002,0.003,0.004,0.004l0,0l0,0
		c0.717,0.687,16.819,15.742,34.465-0.061l2.971,3.318c-6.95,6.225-13.764,8.303-19.76,8.303c-11.94,0-20.646-8.235-20.775-8.362
		l3.1-3.198l0,0L405.857,516.913z"/>
	<rect x="367.167" y="574.806" fill="none" width="122" height="40"/>
	<text transform="matrix(1 0 0 1 390.2832 585.6807)" font-family="'MiloComp'" font-size="16">Great Starts</text>
	<path fill-rule="evenodd" clip-rule="evenodd" fill="#005AB6" d="M588.645,451.836c-24.86,0-45.013,20.152-45.013,45.012
		c0,24.858,20.152,45.013,45.013,45.013c24.857,0,45.01-20.154,45.01-45.013C633.654,471.988,613.502,451.836,588.645,451.836z
		 M553.949,500.984c-2.284,0-4.137-1.854-4.137-4.137s1.853-4.136,4.137-4.136c2.285,0,4.135,1.853,4.135,4.136
		S556.234,500.984,553.949,500.984z M586.545,457.903c2.283,0,4.137,1.851,4.137,4.136c0,2.284-1.854,4.135-4.137,4.135
		s-4.135-1.851-4.135-4.135C582.41,459.754,584.262,457.903,586.545,457.903z M586.569,535.792c-2.284,0-4.136-1.853-4.136-4.136
		c0-2.285,1.852-4.135,4.136-4.135s4.136,1.85,4.136,4.135C590.705,533.939,588.854,535.792,586.569,535.792z M606.68,495.947
		l-17.621,7.628c-1.61,0.698-3.416,0.281-4.578-0.898c-1.227-0.718-2.059-2.032-2.059-3.556V479.92c0-2.285,1.851-4.135,4.136-4.135
		c2.284,0,4.136,1.85,4.136,4.135v13.935l12.701-5.499c2.096-0.906,4.529,0.057,5.438,2.152
		C609.74,492.604,608.776,495.039,606.68,495.947z M623.566,500.961c-2.284,0-4.136-1.853-4.136-4.136
		c0-2.284,1.852-4.138,4.136-4.138c2.283,0,4.136,1.854,4.136,4.138C627.702,499.108,625.85,500.961,623.566,500.961z"/>
	<rect x="527.018" y="574.805" fill="none" width="122" height="40"/>
	<text transform="matrix(1 0 0 1 551.3584 585.6797)" font-family="'MiloComp'" font-size="16">Reschedule</text>
	<g>
		<path fill-rule="evenodd" clip-rule="evenodd" fill="#005AB6" d="M143.33,641.688H89.793c-6.359,0-11.522,5.164-11.522,11.526
			v73.771c0,6.367,5.163,11.521,11.522,11.521h53.536c6.361,0,11.522-5.154,11.522-11.521v-73.771
			C154.852,646.852,149.69,641.688,143.33,641.688z M113.877,733.128c-2.547,0-4.613-2.058-4.613-4.61
			c0-2.539,2.066-4.615,4.613-4.615c2.537,0,4.604,2.076,4.604,4.615C118.481,731.07,116.414,733.128,113.877,733.128z
			 M146.658,713.658c0,2.121-1.724,3.846-3.847,3.846H88.517c-2.123,0-3.846-1.725-3.846-3.846v-60.699
			c0-2.123,1.724-3.842,3.846-3.842h54.293c2.123,0,3.847,1.719,3.847,3.842V713.658z"/>
		<g>
			<path fill="#005AB6" d="M124.833,694.577c-0.709,0.934-1.864,1.144-2.415,0.562c-0.089-0.089-0.177-0.178-0.266-0.267
				c-0.551-0.579-0.46-1.564,0.075-2.274c3.332-4.374,3.333-10.473,0.006-14.849c-0.534-0.71-0.632-1.703-0.082-2.283
				c0.089-0.088,0.177-0.177,0.266-0.266c0.551-0.583,1.715-0.361,2.423,0.572C129.054,681.314,129.051,689.038,124.833,694.577z"/>
		</g>
		<g>
			<path fill="#005AB6" d="M133.296,699.025c-0.699,0.84-1.798,1.008-2.351,0.435c-0.091-0.09-0.181-0.181-0.271-0.271
				c-0.562-0.58-0.468-1.562,0.108-2.256c5.671-6.796,5.671-16.724,0-23.52c-0.583-0.701-0.67-1.676-0.108-2.256
				c0.09-0.091,0.181-0.182,0.271-0.271c0.552-0.573,1.645-0.413,2.351,0.435C139.977,679.325,139.977,691.021,133.296,699.025z"/>
		</g>
		<path fill="#005AB6" d="M116.973,685.073l-0.008-15.608c0,0,0.104-0.926-0.829-1.412c-0.927-0.482-1.956,0.355-1.956,0.355
			l-10.278,8.916H93.768c-0.797,0-1.443,0.647-1.443,1.445v12.608c0,0.798,0.646,1.444,1.443,1.444h10.134l10.278,8.93
			c0,0,1.029,0.829,1.956,0.352c0.933-0.488,0.829-1.421,0.829-1.421L116.973,685.073z"/>
	</g>
	<rect x="55.468" y="765.571" fill="none" width="122" height="40"/>
	<text transform="matrix(1 0 0 1 74.1445 776.4463)" font-family="'MiloComp'" font-size="16">Get Listening</text>
	<path fill-rule="evenodd" clip-rule="evenodd" fill="#005AB6" d="M313.51,649.584c-0.155-1.885-1.448-3.4-3.148-3.938
		c-1.407-0.498-3.024-0.297-4.289,0.688l-21.28,16.584c-1.973,1.537-2.325,4.379-0.789,6.35c1.537,1.973,4.379,2.324,6.352,0.787
		l6.68-5.203l-10.733,29.635l-22.211-19.578c-0.965-0.851-2.177-1.238-3.369-1.189c-1.756-0.064-3.482,0.835-4.386,2.48
		l-26.747,48.65c-1.277,2.324-0.43,5.244,1.895,6.521c2.324,1.276,5.243,0.43,6.521-1.895l23.982-43.622l22.39,19.735
		c0.862,0.76,1.921,1.154,2.986,1.195c2.392,0.656,4.924-0.621,5.783-2.992l12.834-35.436l0.731,8.861
		c0.207,2.49,2.393,4.342,4.883,4.136c2.492-0.204,4.344-2.391,4.137-4.882L313.51,649.584z"/>
	<rect x="212.371" y="765.535" fill="none" width="122" height="40"/>
	<text transform="matrix(1 0 0 1 228.1675 776.4102)" font-family="'MiloComp'" font-size="16">View Progress</text>
	<path fill-rule="evenodd" clip-rule="evenodd" fill="#005AB6" d="M431.128,646.242h-33.421c-5.086,0-9.213,4.123-9.213,9.211
		v16.211c0,5.088,4.127,9.213,9.213,9.213h6.536c-0.821,3.119-1.837,6.096-2.864,8.732c-0.211,0.543-3.051,8.115,4.768,0.979
		c2.971-3.389,5.332-6.627,7.185-9.711h17.797c5.087,0,9.21-4.125,9.21-9.213v-16.211
		C440.338,650.365,436.215,646.242,431.128,646.242z"/>
	<path fill-rule="evenodd" clip-rule="evenodd" fill="#005AB6" d="M428.242,685.35h33.422c5.088,0,9.213,4.121,9.213,9.211v16.211
		c0,5.086-4.125,9.211-9.213,9.211h-6.535c0.82,3.119,1.836,6.097,2.861,8.733c0.213,0.544,3.053,8.112-4.766,0.978
		c-2.971-3.387-5.332-6.627-7.184-9.711h-17.799c-5.085,0-9.211-4.125-9.211-9.211v-16.211
		C419.031,689.471,423.157,685.35,428.242,685.35z"/>
	<rect x="399.064" y="667.713" fill-rule="evenodd" clip-rule="evenodd" fill="#FFFFFF" width="30.639" height="3.211"/>
	<rect x="399.064" y="661.289" fill-rule="evenodd" clip-rule="evenodd" fill="#FFFFFF" width="30.639" height="3.213"/>
	<rect x="399.129" y="654.869" fill-rule="evenodd" clip-rule="evenodd" fill="#FFFFFF" width="30.641" height="3.211"/>
	<rect x="429.602" y="706.479" fill-rule="evenodd" clip-rule="evenodd" fill="#FFFFFF" width="30.639" height="3.211"/>
	<rect x="429.602" y="700.057" fill-rule="evenodd" clip-rule="evenodd" fill="#FFFFFF" width="30.639" height="3.211"/>
	<rect x="429.668" y="693.633" fill-rule="evenodd" clip-rule="evenodd" fill="#FFFFFF" width="30.639" height="3.213"/>
	<rect x="368.168" y="765.535" fill="none" width="122" height="40"/>
	<text transform="matrix(1 0 0 1 388.6357 776.4102)" font-family="'MiloComp'" font-size="16">Consultation</text>
	<g>
		<path fill="#005AB6" d="M585.151,647.794c7.237,0,13.781,3.167,19.632,9.507c4.086,5.174,6.131,10.799,6.131,16.875
			c0,7.611-3.432,14.399-10.294,20.361c-6.075,3.337-9.112,8.174-9.112,14.514c-0.562,3.861-2.588,5.793-6.075,5.793
			c-3.712-0.826-5.569-2.588-5.569-5.287v-1.688c0-9.488,4.895-17.252,14.682-23.287c3.112-3.076,4.669-6.75,4.669-11.025
			c0-5.363-2.851-9.658-8.55-12.881c-2.551-0.788-4.594-1.182-6.131-1.182c-5.589,0-9.957,2.962-13.107,8.887l-1.518,7.426
			c-1.688,2.174-3.47,3.262-5.344,3.262c-3.863-0.826-5.795-2.738-5.795-5.736c0-8.213,4.031-15.357,12.094-21.432
			C575.775,649.162,580.539,647.794,585.151,647.794z M584.758,717.263h1.068c3.299,0,5.625,2.024,6.975,6.075v1.912
			c-0.863,4.574-3.469,6.863-7.818,6.863c-4.688-1.014-7.031-3.414-7.031-7.201C577.951,720.711,580.22,718.162,584.758,717.263z"/>
	</g>
	<rect x="515" y="765.499" fill="none" width="142" height="40"/>
	<text transform="matrix(1 0 0 1 524.4258 776.4111)" font-family="'MiloComp'" font-size="16">Audiobook How-To</text>
	<circle fill-rule="evenodd" clip-rule="evenodd" fill="#005AB6" cx="115.755" cy="880.007" r="61.991"/>
	<path fill="#FFFFFF" d="M137.422,851.446c-6.968-9.682-22.069-14.501-37.917-11.065c-19.701,4.27-33.086,19.675-29.893,34.408
		c1.915,8.833,9.359,15.412,19.256,18.349c1.046-5.757,5.499-14.362,17.283-16.277c13.824-2.246,15.554-9.856,15.565-9.933
		c0.169-1.517,1.538-2.601,3.051-2.434c1.517,0.17,2.609,1.542,2.44,3.058c-0.362,3.254-4.691,12.248-20.171,14.764
		c-12.356,2.007-12.878,12.78-12.894,13.238c-0.007,0.162-0.031,0.318-0.064,0.472c3.403,2.296,7.876,3.694,12.783,3.694
		c6.02,0,11.394-2.099,14.929-5.386c3.879,1.727,8.311,2.709,13.021,2.709c15.221,0,27.56-10.231,27.56-22.851
		C162.369,862.304,151.417,852.538,137.422,851.446z"/>
	<path fill="#FFFFFF" d="M114.481,903.081c0,0,8.595-3.113,10.589-3.361c0,0,3.611,4.607,5.107,11.085
		c1.494,6.479,2.242,9.469,2.242,9.469s0.748,2.738-2.242,2.738c-2.991,0-4.858,1.745-7.224-4.731
		C120.585,911.802,116.227,904.826,114.481,903.081z"/>
	<path fill="#FFFFFF" d="M131.175,901.339c0,0,2.465,6.547,3.274,12.14c0,0,16.694,0.819,17.063-13.919l0.166-1.108
		C151.678,898.451,149.274,900.638,131.175,901.339z"/>
	<rect x="49.945" y="956.704" fill="none" width="130.386" height="40"/>
	<text transform="matrix(1 0 0 1 52.4116 967.5957)" font-family="'MiloComp'" font-size="16">Brain (General Use)</text>
	<path fill="#005AB6" d="M297.85,872.728v-9.809c0-14.607-10.916-26.492-24.332-26.492c-13.417,0-24.332,11.885-24.332,26.492v9.842
		c-4.531,0.666-8.009,4.568-8.009,9.283v33.045c0,5.183,4.202,9.385,9.385,9.385h46.167c5.184,0,9.386-4.202,9.386-9.385v-33.045
		C306.116,877.241,302.505,873.282,297.85,872.728z M273.519,846.663c7.773,0,14.097,7.291,14.097,16.256v9.74h-28.194v-9.74
		C259.421,853.954,265.746,846.663,273.519,846.663z M279.931,911.709h-12.482l2.732-10.558c-2.184-1.228-3.661-3.566-3.661-6.25
		c0-3.96,3.21-7.17,7.169-7.17c3.96,0,7.169,3.21,7.169,7.17c0,2.684-1.476,5.022-3.66,6.25L279.931,911.709z"/>
	<rect x="211.203" y="956.704" fill="none" width="125.563" height="40"/>
	<text transform="matrix(1 0 0 1 222.8979 967.5957)" font-family="'MiloComp'" font-size="16">Private Webinar</text>
	<g>
		<rect x="386.574" y="894.22" fill="#005AB6" width="32.189" height="30.045"/>
		<path fill="#005AB6" d="M465.422,871.836c-1.998,1.175-4.322,1.849-6.805,1.849c-2.158,0-4.197-0.513-6.008-1.419
			c-5.252,2.456-8.98,7.619-9.392,13.694v8.26v7.983v22.062h32.649v-22.062v-7.983v-7.143
			C475.867,880.133,471.533,874.202,465.422,871.836z"/>
		<circle fill="#005AB6" cx="408.875" cy="857.583" r="2.385"/>
		<path fill="#005AB6" d="M413.385,867.708c0.907-0.39,1.262-0.701,1.67-1.354c0.004-0.198,0.021-0.391,0.045-0.581
			c-0.596,0.39-1.426,0.681-2.591,0.681c-3.409,0-3.892-2.465-3.937-2.744l0.002,0.012l-2.424,0.324
			c0.217,1.641,1.775,4.703,6.062,4.842C412.456,868.372,412.844,867.94,413.385,867.708z"/>
		<path fill="#005AB6" d="M403.477,873.761c-7.807,0-14.158-6.352-14.158-14.16c0-7.807,6.352-14.159,14.158-14.159
			c7.809,0,14.162,6.353,14.162,14.159C417.639,867.409,411.285,873.761,403.477,873.761z M403.477,847.789
			c-6.514,0-11.812,5.298-11.812,11.812c0,6.516,5.299,11.813,11.812,11.813c6.516,0,11.812-5.298,11.812-11.813
			C415.289,853.087,409.992,847.789,403.477,847.789z"/>
		<path fill="#005AB6" d="M450.82,857.583c0,1.318,1.068,2.386,2.383,2.386c1.32,0,2.388-1.067,2.388-2.386
			c0-1.316-1.067-2.385-2.388-2.385C451.889,855.198,450.82,856.267,450.82,857.583z"/>
		<path fill="#005AB6" d="M448.695,867.708c-0.907-0.39-1.262-0.701-1.668-1.354c-0.005-0.198-0.023-0.391-0.047-0.581
			c0.595,0.39,1.424,0.681,2.591,0.681c3.41,0,3.892-2.465,3.935-2.744v0.012l2.424,0.324c-0.217,1.641-1.775,4.703-6.062,4.842
			C449.624,868.372,449.236,867.94,448.695,867.708z"/>
		<path fill="#005AB6" d="M444.443,859.601c0-7.807,6.352-14.159,14.16-14.159c7.807,0,14.16,6.353,14.16,14.159
			c0,7.809-6.354,14.16-14.16,14.16C450.795,873.761,444.443,867.409,444.443,859.601z M446.791,859.601
			c0,6.516,5.299,11.813,11.812,11.813s11.812-5.298,11.812-11.813c0-6.514-5.299-11.812-11.812-11.812
			S446.791,853.087,446.791,859.601z"/>
		<path fill="#005AB6" d="M430.256,890.124h-10.992v-3.047c0-6.555-3.861-12.207-9.434-14.812c-1.809,0.906-3.85,1.419-6.008,1.419
			c-2.48,0-4.805-0.674-6.803-1.849c-6.111,2.366-10.445,8.297-10.445,15.241v15.126h22.377c0.002,0,0.005,0,0.008,0h21.297V890.124
			z"/>
		<path fill="#005AB6" d="M431.629,902.214h-2.375v-12.057h2.375c3.324,0,6.027,2.705,6.027,6.029S434.953,902.214,431.629,902.214z
			 M431.273,900.196h0.355c2.209,0,4.01-1.8,4.01-4.01c0-2.211-1.801-4.01-4.01-4.01h-0.355V900.196z"/>
	</g>
	<rect x="368.476" y="956.704" fill="none" width="125.562" height="40"/>
	<text transform="matrix(1 0 0 1 401.1055 967.5957)" font-family="'MiloComp'" font-size="16">In Person</text>
	<g>
		<path fill="#005AB6" d="M581.887,886.495c-0.402,0.381-0.947,0.668-1.648,0.807c-0.139,0.025-0.275,0.042-0.414,0.066
			c-0.654,0.312-1.318,0.605-1.993,0.869c-0.567,0.653-1.409,1.091-2.532,1.091c-0.215,0-0.416-0.021-0.609-0.051
			c-0.551,0.47-1.285,0.767-2.215,0.765c-4.555-0.016-9.18-0.548-12.602-3.579c-8.686,4.147-14.705,13.06-14.705,23.403v1.323
			h51.309v-1.323C596.477,899.563,590.516,890.667,581.887,886.495z"/>
		<circle fill="#005AB6" cx="563.064" cy="866.968" r="3.588"/>
		<circle fill="#005AB6" cx="578.706" cy="866.968" r="3.589"/>
		<path fill="#005AB6" d="M570.81,883.989c-6.798,0-9.229-4.777-9.565-7.303l3.646-0.486l-0.002-0.019
			c0.067,0.422,0.791,4.128,5.921,4.128c5.173,0,6.009-3.75,6.087-4.178l-0.004,0.02l3.635,0.586
			C580.123,879.245,577.57,883.989,570.81,883.989z"/>
		<path fill="#005AB6" d="M570.586,891.302c-11.744,0-21.299-9.556-21.299-21.301c0-11.744,9.555-21.299,21.299-21.299
			c11.745,0,21.301,9.555,21.301,21.299C591.887,881.746,582.331,891.302,570.586,891.302z M570.586,852.232
			c-9.798,0-17.77,7.971-17.77,17.769c0,9.799,7.972,17.771,17.77,17.771c9.799,0,17.77-7.972,17.77-17.771
			C588.355,860.203,580.385,852.232,570.586,852.232z"/>
		<path fill="#005AB6" d="M622.382,891.628c-0.321,0.303-0.757,0.53-1.319,0.639c-0.109,0.021-0.221,0.034-0.331,0.053
			c-0.524,0.248-1.054,0.48-1.595,0.689c-0.453,0.518-1.125,0.863-2.025,0.863c-0.17,0-0.332-0.016-0.486-0.041
			c-0.439,0.373-1.028,0.609-1.771,0.607c-3.642-0.013-7.34-0.435-10.076-2.836c-6.945,3.285-11.759,10.344-11.759,18.54v1.047
			h41.03v-1.047C634.049,901.981,629.281,894.933,622.382,891.628z"/>
		<circle fill="#005AB6" cx="607.329" cy="876.013" r="2.87"/>
		<circle fill="#005AB6" cx="619.837" cy="876.013" r="2.87"/>
		<path fill="#005AB6" d="M613.522,889.626c-5.435,0-7.38-3.822-7.649-5.84l2.918-0.389l-0.002-0.016
			c0.053,0.338,0.633,3.3,4.733,3.3c4.136,0,4.806-2.997,4.869-3.34l-0.003,0.015l2.905,0.469
			C620.971,885.831,618.929,889.626,613.522,889.626z"/>
		<path fill="#005AB6" d="M613.346,895.474c-9.394,0-17.033-7.643-17.033-17.035c0-9.391,7.64-17.033,17.033-17.033
			c9.391,0,17.033,7.643,17.033,17.033C630.379,887.831,622.736,895.474,613.346,895.474z M613.346,864.229
			c-7.837,0-14.213,6.375-14.213,14.209c0,7.836,6.376,14.212,14.213,14.212c7.834,0,14.207-6.376,14.207-14.212
			C627.553,870.604,621.18,864.229,613.346,864.229z"/>
		<rect x="545.168" y="910.143" fill="#005AB6" width="88.881" height="13.992"/>
	</g>
	<rect x="526.827" y="956.704" fill="none" width="125.562" height="40"/>
	<text transform="matrix(1 0 0 1 541.4092 967.5957)" font-family="'MiloComp'" font-size="16">Public Webinar</text>
	<g>
		<path fill="#005AB6" d="M161.675,1049.533c0,0-33.781-12.768-39.869-14.998s-12.765,0-12.765,0l-41.636,15.979
			c-5.134,1.971,0.982,4.125,0.982,4.125l5.499,1.799v28.128l-5.853,10.138h17.009l-5.854-10.138v-26.392
			c0,0,23.372-9.82,26.514-10.803c3.142-0.981,4.518,0,4.518,0c3.535,1.768-0.589,3.339-0.589,3.339l-25.335,9.82
			c0,0,18.069,7.071,25.335,9.819c7.266,2.75,11.784,0,11.784,0s34.172-12.961,41.047-15.711
			C169.335,1051.889,161.675,1049.533,161.675,1049.533z"/>
		<path fill="#005AB6" d="M110.903,1090.875c0,2.113-1.715,3.828-3.83,3.828c-2.116,0-3.83-1.715-3.83-3.828
			c0-2.117,1.713-3.832,3.83-3.832C109.188,1087.043,110.903,1088.758,110.903,1090.875z"/>
		<path fill="#005AB6" d="M127.596,1090.875c0,2.113-1.713,3.828-3.829,3.828s-3.83-1.715-3.83-3.828
			c0-2.117,1.715-3.832,3.83-3.832S127.596,1088.758,127.596,1090.875z"/>
		<path fill="#005AB6" d="M115.339,1109.041c-7.254,0-9.85-5.098-10.209-7.793l3.894-0.519l-0.002-0.021
			c0.07,0.45,0.844,4.403,6.318,4.403c5.52,0,6.413-4.001,6.497-4.457l-0.004,0.021l3.878,0.625
			C125.278,1103.979,122.554,1109.041,115.339,1109.041z"/>
		<path fill="#005AB6" d="M143.998,1070.086v-3.467l-22.584,8.739c0,0-4.911,2.456-11.194,0c-6.285-2.454-22.417-8.739-22.417-8.739
			l0.03,3.458c-0.044,1.112-0.93,27.376,11.387,40.095c4.321,4.463,9.745,6.725,16.122,6.725c0.065,0,0.13,0,0.194,0
			c7.069-0.05,12.983-2.504,17.575-7.291c4.908-5.117,8.224-12.785,9.855-22.789
			C144.122,1079.729,144.109,1073.292,143.998,1070.086z M130.276,1106.886c-3.832,3.993-8.8,6.04-14.768,6.083
			c-0.055,0-0.109,0-0.161,0c-5.275,0-9.75-1.857-13.301-5.523c-7.514-7.754-9.577-21.841-10.122-30.283
			c3.192,2.846,10.179,6.936,24,6.936c14.212,0,21.104-4.324,24.103-7.176C139.632,1085.652,137.736,1099.108,130.276,1106.886z"/>
	</g>
	<g>
		<path fill="#005AB6" d="M319.754,1048.113c0,0-33.778-12.764-39.868-14.996c-6.087-2.229-12.766,0-12.766,0l-41.638,15.979
			c-5.133,1.971,0.983,4.125,0.983,4.125l5.5,1.8v28.127l-5.853,10.137h17.009l-5.854-10.137v-26.392
			c0,0,23.372-9.821,26.514-10.803c3.143-0.981,4.516,0,4.516,0c3.536,1.768-0.588,3.339-0.588,3.339l-25.335,9.82
			c0,0,18.068,7.069,25.335,9.82c7.268,2.748,11.784,0,11.784,0s34.173-12.964,41.048-15.712
			C327.416,1050.473,319.754,1048.113,319.754,1048.113z"/>
		<path fill="#005AB6" d="M273.418,1107.623c-7.254,0-9.85-5.098-10.209-7.793l3.893-0.52l-0.003-0.02
			c0.07,0.451,0.844,4.404,6.319,4.404c5.52,0,6.413-4,6.495-4.457l-0.001,0.02l3.877,0.626
			C283.357,1102.561,280.635,1107.623,273.418,1107.623z"/>
		<path fill="#005AB6" d="M302.078,1068.668v-3.466l-22.585,8.739c0,0-4.909,2.455-11.195,0c-6.284-2.456-22.417-8.739-22.417-8.739
			l0.03,3.458c-0.044,1.11-0.929,27.376,11.388,40.096c4.322,4.462,9.745,6.725,16.122,6.723c0.065,0,0.131,0,0.194,0
			c7.07-0.051,12.981-2.503,17.575-7.292c4.907-5.115,8.224-12.783,9.854-22.789
			C302.201,1078.312,302.189,1071.874,302.078,1068.668z M288.356,1105.469c-3.831,3.993-8.799,6.039-14.77,6.082
			c-0.052,0.001-0.107,0.001-0.16,0.001c-5.273,0-9.749-1.858-13.3-5.524c-7.515-7.754-9.578-21.841-10.123-30.283
			c3.192,2.847,10.18,6.936,23.999,6.936c14.212,0,21.104-4.324,24.103-7.175C297.711,1084.236,295.816,1097.691,288.356,1105.469z"
			/>
		<path fill="#005AB6" d="M259.371,1085.549c0.313,0.669,0.629,1.229,0.982,1.678c0.349,0.449,0.727,0.748,1.082,0.93
			c0.362,0.18,0.717,0.274,1.135,0.342c0.416,0.066,0.888,0.095,1.398,0.095c0.512,0,0.986-0.026,1.4-0.09
			c0.417-0.065,0.765-0.158,1.118-0.331c0.351-0.176,0.722-0.476,1.061-0.929c0.347-0.453,0.651-1.02,0.954-1.694
			c0.241,0.293,0.402,0.632,0.525,0.986c0.121,0.358,0.189,0.736,0.206,1.133c0.029,0.788-0.191,1.674-0.731,2.424
			c-0.265,0.376-0.6,0.708-0.97,0.979c-0.37,0.272-0.77,0.482-1.175,0.64c-0.812,0.312-1.629,0.418-2.396,0.417
			c-0.769-0.005-1.585-0.117-2.393-0.435c-0.805-0.311-1.601-0.864-2.129-1.613c-0.537-0.74-0.767-1.613-0.752-2.399
			c0.008-0.396,0.068-0.775,0.181-1.134C258.983,1086.189,259.137,1085.847,259.371,1085.549z"/>
		<path fill="#005AB6" d="M278.284,1085.688c0.314,0.67,0.63,1.229,0.985,1.677c0.348,0.45,0.725,0.749,1.082,0.931
			c0.36,0.181,0.716,0.275,1.133,0.342c0.415,0.066,0.888,0.094,1.399,0.094c0.512,0,0.985-0.024,1.4-0.089
			c0.417-0.065,0.766-0.156,1.119-0.33c0.348-0.178,0.72-0.477,1.06-0.931c0.347-0.451,0.651-1.018,0.954-1.693
			c0.24,0.293,0.403,0.633,0.525,0.988c0.123,0.355,0.189,0.735,0.205,1.133c0.031,0.786-0.189,1.672-0.73,2.422
			c-0.263,0.376-0.601,0.709-0.969,0.98c-0.371,0.271-0.771,0.482-1.175,0.638c-0.812,0.312-1.63,0.42-2.396,0.418
			c-0.771-0.005-1.587-0.117-2.396-0.435c-0.803-0.311-1.599-0.863-2.127-1.613c-0.537-0.74-0.767-1.613-0.752-2.398
			c0.009-0.396,0.068-0.776,0.183-1.135C277.896,1086.328,278.052,1085.985,278.284,1085.688z"/>
	</g>
	<g>
		<path fill="#005AB6" d="M477.594,1048.531c0,0-33.781-12.766-39.869-14.996s-12.766,0-12.766,0l-41.637,15.978
			c-5.132,1.97,0.982,4.125,0.982,4.125l5.499,1.8v28.127l-5.853,10.137h17.008l-5.852-10.137v-26.392
			c0,0,23.371-9.821,26.513-10.802c3.142-0.982,4.517,0,4.517,0c3.535,1.767-0.588,3.338-0.588,3.338l-25.336,9.82
			c0,0,18.068,7.07,25.336,9.82c7.267,2.748,11.783,0,11.783,0s34.172-12.962,41.047-15.712
			C485.253,1050.888,477.594,1048.531,477.594,1048.531z"/>
		<path fill="#005AB6" d="M459.917,1069.086v-3.468l-22.585,8.738c0,0-4.91,2.456-11.195,0c-6.283-2.454-22.416-8.738-22.416-8.738
			l0.027,3.457c-0.042,1.112-0.928,27.376,11.391,40.095c4.32,4.463,9.744,6.727,16.122,6.727c0.063,0,0.129-0.001,0.192-0.001
			c7.07-0.052,12.982-2.505,17.576-7.293c4.908-5.116,8.224-12.782,9.855-22.789
			C460.041,1078.728,460.026,1072.291,459.917,1069.086z M446.193,1105.885c-3.83,3.992-8.799,6.041-14.768,6.082
			c-0.055,0-0.107,0.002-0.161,0.002c-5.272,0-9.747-1.859-13.301-5.525c-7.513-7.754-9.577-21.841-10.12-30.283
			c3.19,2.846,10.178,6.938,23.999,6.938c14.212,0,21.104-4.326,24.103-7.176C455.551,1084.652,453.654,1098.107,446.193,1105.885z"
			/>
		<g>
			<path fill="#005AB6" d="M431.34,1086.248c1.975,0,3.76,0.865,5.355,2.594c1.115,1.412,1.674,2.945,1.674,4.604
				c0,2.076-0.937,3.928-2.809,5.555c-1.658,0.908-2.486,2.229-2.486,3.958c-0.152,1.054-0.705,1.581-1.656,1.581
				c-1.013-0.226-1.518-0.707-1.518-1.443v-0.459c0-2.588,1.332-4.706,4.002-6.354c0.85-0.838,1.273-1.841,1.273-3.006
				c0-1.463-0.775-2.635-2.332-3.515c-0.693-0.216-1.252-0.321-1.672-0.321c-1.523,0-2.715,0.807-3.575,2.424l-0.413,2.025
				c-0.462,0.592-0.947,0.889-1.459,0.889c-1.053-0.225-1.58-0.747-1.58-1.564c0-2.24,1.1-4.189,3.299-5.846
				C428.783,1086.623,430.084,1086.248,431.34,1086.248z M431.232,1105.197h0.293c0.9,0,1.533,0.554,1.902,1.658v0.523
				c-0.236,1.246-0.947,1.871-2.135,1.871c-1.277-0.277-1.916-0.933-1.916-1.965
				C429.377,1106.141,429.996,1105.443,431.232,1105.197z"/>
		</g>
	</g>
	<g>
		<g>
			<path fill="#005AB6" d="M584.12,1097.502c0-3.338,2.704-6.042,6.043-6.042c0.011,0,0.024,0.001,0.038,0.001v2.822l4.68-4.581
				l-4.68-4.583v2.759c-0.004,0-0.006,0-0.008,0c-5.312,0-9.616,4.306-9.616,9.618c0,2.788,1.188,5.299,3.085,7.057l2.47-2.549
				C584.896,1100.896,584.12,1099.291,584.12,1097.502z"/>
			<path fill="#005AB6" d="M599.811,1097.496c0-2.867-1.256-5.441-3.248-7.203l-2.508,2.59c1.312,1.108,2.15,2.766,2.15,4.619
				c0,3.236-2.543,5.877-5.74,6.035v-2.928l-4.68,4.58l4.68,4.583v-2.668C595.651,1106.961,599.811,1102.717,599.811,1097.496z"/>
		</g>
		<path fill="#005AB6" d="M635.944,1048.53c0,0-33.778-12.766-39.868-14.996c-6.086-2.231-12.766,0-12.766,0l-41.637,15.979
			c-5.133,1.97,0.982,4.123,0.982,4.123l5.5,1.799v28.129l-5.854,10.138h17.009l-5.853-10.138v-26.393
			c0,0,23.371-9.818,26.513-10.802c3.144-0.981,4.517,0,4.517,0c3.535,1.769-0.588,3.339-0.588,3.339l-25.336,9.82
			c0,0,18.068,7.07,25.336,9.82c7.267,2.748,11.783,0,11.783,0s34.172-12.964,41.047-15.713
			C643.605,1050.887,635.944,1048.53,635.944,1048.53z"/>
		<path fill="#005AB6" d="M618.269,1069.085v-3.468l-22.585,8.74c0,0-4.91,2.454-11.195,0c-6.283-2.455-22.416-8.74-22.416-8.74
			l0.029,3.457c-0.045,1.113-0.93,27.378,11.389,40.096c4.321,4.463,9.744,6.727,16.121,6.725c0.066,0,0.131,0,0.195,0
			c7.068-0.051,12.98-2.504,17.574-7.291c4.907-5.117,8.224-12.784,9.854-22.791
			C618.391,1078.729,618.379,1072.291,618.269,1069.085z M604.547,1105.885c-3.832,3.993-8.799,6.039-14.77,6.082
			c-0.053,0-0.107,0-0.16,0c-5.273,0-9.748-1.857-13.301-5.525c-7.514-7.751-9.576-21.838-10.122-30.281
			c3.192,2.847,10.18,6.938,23.999,6.938c14.213,0,21.104-4.326,24.104-7.177C613.902,1084.652,612.007,1098.107,604.547,1105.885z"
			/>
	</g>
	<rect x="53.143" y="1147.909" fill="none" width="125.562" height="40"/>
	<text transform="matrix(1 0 0 1 69.1016 1158.8008)" font-family="'MiloComp'" font-size="16">Active Student</text>
	<rect x="210.636" y="1147.918" fill="none" width="125.562" height="40"/>
	<text transform="matrix(1 0 0 1 218.1387 1158.8096)" font-family="'MiloComp'" font-size="16">Archived Student</text>
	<rect x="361.469" y="1147.918" fill="none" width="141.858" height="40"/>
	<text transform="matrix(1 0 0 1 362.9209 1158.8008)" font-family="'MiloComp'" font-size="16">Awaiting Certification</text>
	<rect x="518.802" y="1147.927" fill="none" width="141.858" height="40"/>
	<text transform="matrix(1 0 0 1 544.4531 1158.8096)" font-family="'MiloComp'" font-size="16">Needs Update</text>
</g>
<g id="Layer_2" display="none">
</g>
</svg>
