<?xml version="1.0" encoding="utf-8"?>
<!-- Generator: Adobe Illustrator 15.0.0, SVG Export Plug-In . SVG Version: 6.00 Build 0)  -->
<!DOCTYPE svg PUBLIC "-//W3C//DTD SVG 1.1//EN" "http://www.w3.org/Graphics/SVG/1.1/DTD/svg11.dtd">
<svg version="1.1" id="Layer_1" xmlns="http://www.w3.org/2000/svg" xmlns:xlink="http://www.w3.org/1999/xlink" x="0px" y="0px"
	 width="705.422px" height="620px" viewBox="0 0 705.422 620" enable-background="new 0 0 705.422 620" xml:space="preserve">
<rect x="-5.689" y="-5" fill="#415582" width="716.8" height="630"/>
<path fill="#FCFCF7" d="M559.746,545.582v-38.797c0-76.357-70.771-138.256-158.076-138.256h-91.705
	c-87.304,0-158.076,61.898-158.076,138.256v38.797H559.746z"/>
<polygon fill="#9B9CB0" points="311.829,369.447 354.957,530.816 398.084,369.447 "/>
<g>
	<g>
		<path fill="#415582" d="M358.369,405.693c-1.288-4.352-3.397-4.352-4.686,0l-23.073,77.912
			c-1.289,4.352,0.123,10.688,3.138,14.081l16.798,18.908c3.015,3.393,7.947,3.393,10.961,0l16.798-18.908
			c3.014-3.393,4.426-9.729,3.138-14.081L358.369,405.693z"/>
	</g>
	<g>
		<path fill="#415582" d="M353.408,386.395c-14.31,0-21.006,10.581-14.881,23.514l5.536,11.689c6.125,12.933,16.148,12.933,22.272,0
			l5.537-11.689c6.124-12.933-0.572-23.514-14.882-23.514H353.408z"/>
	</g>
</g>
<polygon fill="#D6CEC8" points="354.957,530.816 419.86,441.639 383.001,425.882 427.113,415.734 427.113,372.273 397.446,365.385 
	"/>
<polygon fill="#D6CEC8" points="355.458,530.56 290.555,441.383 327.414,425.625 283.302,415.478 283.302,372.016 312.969,365.13 
	"/>
<path fill="none" stroke="#9B9CB0" stroke-width="14" stroke-miterlimit="10" d="M217.435,516.052c0,0,18.59,7.247,30.297,1.647
	c0,0,12.646-5.016,18.425-13.328c5.78-8.308,11.115-22.334,12.97-37.299c1.857-14.965-1.357-35.783-3.684-43.137"/>
<path stroke="#000000" stroke-width="14" stroke-miterlimit="10" d="M214.4,521.327l-8.481-2.005c0,0-5.259-1.497-3.779-6.757
	c1.477-5.263,2.794-7.341,8.649-6.319l8.484,4.029c0,0,4.059,2.031,2.795,6.389C220.801,521.021,218.813,522.364,214.4,521.327z"/>
<path fill="none" stroke="#9B9CB0" stroke-width="14" stroke-miterlimit="10" d="M293.348,516.162c0,0-18.832,6.594-30.336,0.592
	c0,0-12.464-5.456-17.95-13.961c-5.486-8.506-10.332-22.709-11.665-37.729c-1.334-15.02,2.599-35.711,5.18-42.98"/>
<path stroke="#000000" stroke-width="14" stroke-miterlimit="10" d="M296.196,521.535l8.547-1.703c0,0,5.307-1.31,4.013-6.621
	c-1.295-5.312-2.542-7.439-8.424-6.621l-8.622,3.734c0,0-4.126,1.888-3.014,6.291C289.812,521.012,291.752,522.42,296.196,521.535z"
	/>
<path fill="none" stroke="#000000" stroke-width="18.9417" stroke-linecap="round" stroke-miterlimit="10" d="M237.461,425.761
	c0,0,3.45-33.2,18.328-33.2c14.874,0,19.139,28.625,20.176,33.2"/>
<path fill="none" stroke="#000000" stroke-width="18.9417" stroke-linecap="round" stroke-miterlimit="10" d="M257.303,391.1
	c10.433-20.246,35.631-41.458,95.402-41.595c114.496-0.266,86.55,144.329,84.748,162.989"/>
<circle fill="#9B9CB0" cx="437.303" cy="494.85" r="34.451"/>
<circle fill="#D6CEC8" cx="437.303" cy="494.85" r="21.809"/>
<path fill="#F4D19D" d="M474.184,242.318c-9.958-11.38-21.08-7.682-28.546-2.718c-0.055-0.247-0.122-0.469-0.181-0.711
	c51.504-130.301-72.377-143.254-89.703-144.421l0,0c-0.002,0-0.006,0-0.008,0c-1.275-0.085-1.994-0.11-1.994-0.11v0.02
	c-0.312-0.005-0.601-0.005-0.873-0.002v-0.018c0,0-0.326,0.011-0.942,0.044c-0.656,0.028-1.063,0.065-1.063,0.065l0,0
	c-17.352,1.17-141.433,14.147-89.562,144.779c-7.454-4.778-18.272-8.035-27.989,3.071c0,0-7.247,71.264,18.117,65.224
	c5.538-1.318,9.521-2.523,12.363-3.597c2.246,18.147,7.864,31.437,29.912,51.91c33.82,31.405,27.781,36.235,60.393,36.235
	c32.612,0,26.574-4.83,60.393-36.235c21.947-20.379,27.613-33.643,29.88-51.664c2.79,1.013,6.563,2.13,11.687,3.351
	C481.431,313.582,474.184,242.318,474.184,242.318z M262.482,240.02c-0.108-0.075-0.225-0.147-0.335-0.222
	c0.127-0.052,0.267-0.113,0.435-0.187C262.551,239.753,262.513,239.876,262.482,240.02z"/>
<circle fill="#14151A" cx="307.547" cy="253.111" r="6.644"/>
<circle fill="#14151A" cx="399.958" cy="253.111" r="6.644"/>
<path fill="#7A5237" d="M287.564,229.367c0,0,28.624-8.408,42.115,3.688C329.68,233.054,338.793,212.024,287.564,229.367z"/>
<path fill="#7A5237" d="M419.941,229.367c0,0-28.623-8.409-42.114,3.684C377.827,233.051,368.713,212.024,419.941,229.367z"/>
<path fill="#D61E1E" d="M397.443,313.029c0,0-19.823,11.281-44.948,11.432c-25.124-0.15-44.948-11.432-44.948-11.432
	c7.841,17.139,23.445,30.49,42.482,32.203C371.13,347.129,388.953,331.591,397.443,313.029z"/>
<path fill="#FCFCF7" d="M379.557,323.9c0,0-12.057,4.433-27.337,4.491c-15.279-0.059-27.337-4.491-27.337-4.491
	c4.77,6.733,14.26,11.979,25.837,12.651C363.555,337.299,374.393,331.194,379.557,323.9z"/>
<path fill="#7A5237" d="M262.147,239.798c0,0,24.671-31.683,25.417-68.399c0.747-36.717,58.146-37.791,58.146-37.791l-72.8-10.126
	c0,0-36.403,22.502-24.501,111.351C248.41,234.833,256.284,235.715,262.147,239.798z"/>
<path fill="#7A5237" d="M445.609,239.798c0,0-24.67-31.683-25.416-68.399c-0.747-36.717-58.146-37.791-58.146-37.791l72.799-10.126
	c0,0,36.403,22.502,24.502,111.351C459.348,234.833,451.473,235.715,445.609,239.798z"/>
<path d="M463.785,187.826l-109.99-13.933v-0.011l-0.042,0.005l-0.042-0.005v0.011l-109.99,13.933c0,0-5.365,10.122,8.333,24.072
	c13.698,13.951,22.944,8.371,41.436,4.186c18.478-4.182,43.177-5.229,60.263-5.231c17.087,0.002,41.786,1.049,60.263,5.231
	c18.492,4.185,27.739,9.766,41.438-4.186C469.15,197.948,463.785,187.826,463.785,187.826z"/>
<g>
	<path fill="#1F2259" d="M443.215,83.134c-27.897-13.566-59.827-23.295-67.443-25.276c0.001-0.014-11.813-3.456-22.08-3.417
		c-10.266-0.039-22.08,3.402-22.078,3.417c-7.618,1.981-39.546,11.709-67.444,25.276c-31.881,15.712-26.276,32.555-26.312,32.324
		c2.64,18.118,5.283,36.258,7.931,54.42c28.306-6.286,57.023-10.068,85.826-11.347c7.355-0.326,14.717-0.49,22.078-0.49
		c7.362,0,14.723,0.164,22.08,0.49c28.802,1.279,57.52,5.062,85.825,11.347c2.647-18.162,5.291-36.302,7.931-54.42
		C469.491,115.689,475.096,98.847,443.215,83.134z"/>
</g>
<g>
	<path d="M463.536,187.182c-72.947-9.215-146.765-9.215-219.712,0c0-10.522,0-21.044,0-31.566c72.947-9.215,146.765-9.215,219.712,0
		C463.536,166.138,463.536,176.66,463.536,187.182z"/>
</g>
<g>
	<path fill="#F7DF00" d="M463.545,187.875c-72.977-9.219-146.824-9.219-219.801,0c0-6.767,0-13.533,0-20.3
		c72.977-9.219,146.824-9.219,219.801,0C463.545,174.342,463.545,181.109,463.545,187.875z"/>
</g>
<rect x="477.971" y="489.895" fill="none" width="53.2" height="32.199"/>
<text transform="matrix(1 0 0 1 477.9658 512.9941)" stroke="#000000" stroke-width="1.4" stroke-miterlimit="1" font-family="'Futura-Medium'" font-size="28">MP</text>
<g>
	<path fill="#F7DF00" d="M364.465,117.527c0,0,8.141-2.286,8.141-20.906h53.248l-7.188,7.186h-36.26v3.638h31.033l-5.553,7.796
		H377.18v4.115h20.906l-2.928,6.142h-30.693V117.527z"/>
	<path fill="#F7DF00" d="M343.042,117.527c0,0-8.142-2.286-8.142-20.906h-53.247l7.187,7.186h36.26v3.638h-31.034l5.554,7.796
		h30.706v4.115h-20.906l2.927,6.142h30.694V117.527z"/>
	<g>
		<circle fill="#F7DF00" cx="353.752" cy="121.843" r="14.89"/>
		<rect x="350.613" y="111.646" fill="#EA0A0A" width="6.277" height="20.396"/>
		<rect x="343.651" y="118.866" fill="#EA0A0A" width="20.324" height="6.142"/>
	</g>
</g>
</svg>
