<?xml version="1.0" encoding="utf-8"?>
<!-- Generator: Adobe Illustrator 15.0.0, SVG Export Plug-In . SVG Version: 6.00 Build 0)  -->
<!DOCTYPE svg PUBLIC "-//W3C//DTD SVG 1.1//EN" "http://www.w3.org/Graphics/SVG/1.1/DTD/svg11.dtd">
<svg version="1.1" id="Layer_1" xmlns="http://www.w3.org/2000/svg" xmlns:xlink="http://www.w3.org/1999/xlink" x="0px" y="0px"
	 width="710px" height="710px" viewBox="95 95 710 710" enable-background="new 95 95 710 710" xml:space="preserve">
<rect x="90" y="90" fill="#3AC897" width="720" height="720"/>
<path fill="#FCFCF7" d="M651.019,726.77v-42.811c0-84.26-69.71-152.562-155.702-152.562h-90.327
	c-85.993,0-155.702,68.302-155.702,152.562v42.811H651.019L651.019,726.77z"/>
<polygon fill="#357FDC" points="403.277,530.752 452.566,715.174 501.854,530.752 "/>
<g>
	<g>
		<path fill="#0E4E89" d="M456.467,572.979c-1.473-4.975-3.883-4.975-5.355,0l-26.37,89.04c-1.473,4.974,0.141,12.216,3.586,16.093
			l19.199,21.61c3.445,3.878,9.082,3.878,12.527-0.001l19.197-21.609c3.445-3.878,5.059-11.119,3.585-16.093L456.467,572.979z"/>
	</g>
	<g>
		<path fill="#0E4E89" d="M450.796,550.922c-16.354,0-24.006,12.092-17.006,26.873l6.328,13.357c7,14.78,18.453,14.78,25.453,0
			l6.327-13.357c7-14.781-0.653-26.873-17.007-26.873H450.796z"/>
	</g>
</g>
<polygon fill="#D6CEC8" points="452.566,715.975 526.742,614.342 484.617,596.383 535.031,584.816 535.031,535.285 501.125,527.436 
	"/>
<polygon fill="#D6CEC8" points="453.139,715.683 378.964,614.05 421.089,596.09 370.676,584.525 370.676,534.992 404.581,527.145 
	"/>
<path fill="none" stroke="#000000" stroke-width="13.5532" stroke-linecap="round" stroke-miterlimit="10" d="M350.571,560.073
	c11.924-20.497,40.721-41.972,109.031-42.11c97.551-0.199,104.627,81.104,101.058,130.33"/>
<path fill="none" stroke="#9B9CB0" stroke-width="11.2" stroke-miterlimit="10" d="M293.114,670.465c0,0,16.208,9.994,28.16,6.745
	c0,0,12.733-2.538,19.584-9.351c6.851-6.807,14.267-19.06,18.577-32.79c4.312-13.729,4.866-33.824,3.944-41.128"/>
<path stroke="#000000" stroke-width="10.6886" stroke-miterlimit="10" d="M289.361,674.896l-7.618-3.336
	c0,0-4.681-2.309-2.389-6.992c2.29-4.688,3.883-6.412,9.205-4.449l7.273,5.239c0,0,3.461,2.603,1.529,6.477
	C295.421,675.709,293.325,676.628,289.361,674.896z"/>
<path fill="none" stroke="#9B9CB0" stroke-width="11.2" stroke-miterlimit="10" d="M364.362,683.596c0,0-18.811,2.959-28.582-4.65
	c0,0-10.765-7.262-14.455-16.188s-5.803-23.09-4.477-37.42c1.324-14.33,8.568-33.078,12.238-39.461"/>
<path stroke="#000000" stroke-width="10.6886" stroke-miterlimit="10" d="M366.114,689.129l8.316-0.133c0,0,5.207-0.318,4.903-5.527
	c-0.304-5.209-1.11-7.419-6.772-7.662l-8.735,2.027c0,0-4.198,1.063-3.909,5.389C360.209,687.541,361.79,689.197,366.114,689.129z"
	/>
<path fill="none" stroke="#000000" stroke-width="13.5532" stroke-linecap="round" stroke-miterlimit="10" d="M327.409,589.137
	c0,0,8.936-30.576,22.903-28.023c13.963,2.553,13.055,30.159,13.244,34.632"/>
<circle fill="#9B9CB0" cx="561.08" cy="653.26" r="28.972"/>
<circle fill="#D6CEC8" cx="561.08" cy="653.26" r="18.34"/>
<path fill="#D8BA98" d="M500.514,490.387H452.85h-0.308h-47.664c0,0,9.709,17.129,1.387,41.562c0,0,14.571,23.609,46.275,23.768
	v0.008c0.052,0,0.102-0.004,0.153-0.004s0.103,0.004,0.153,0.004v-0.008c31.706-0.158,46.277-23.768,46.277-23.768
	C490.804,507.518,500.514,490.387,500.514,490.387z"/>
<path fill="#F4E0C6" d="M348.39,443.08c0,0,37.332,76.1,101.049,78.5h4.034c63.717-2.4,101.049-78.5,101.049-78.5l0.242,0.3
	c0-0.006,0.001-0.012,0.002-0.018c3.189,1.157,7.502,2.434,13.355,3.83c28.987,6.902,20.706-74.542,20.706-74.542
	c-11.382-13.005-24.091-8.779-32.624-3.106c-0.062-0.283-0.139-0.536-0.207-0.812c58.861-148.916-82.717-163.719-102.517-165.054
	c-0.003,0-0.008,0-0.009,0c-1.459-0.097-2.28-0.125-2.28-0.125v0.022c-0.355-0.006-0.687-0.006-0.997-0.001v-0.02
	c0,0-0.373,0.013-1.077,0.05c-0.75,0.032-1.216,0.075-1.216,0.075c-19.831,1.337-161.637,16.168-102.356,165.462
	c-8.519-5.46-20.882-9.182-31.988,3.511c0,0-8.283,81.444,20.705,74.542C340.59,445.684,345.141,444.307,348.39,443.08z
	 M346.996,369.555c-0.036,0.162-0.08,0.303-0.115,0.467c-0.125-0.085-0.257-0.168-0.382-0.253
	C346.644,369.709,346.803,369.64,346.996,369.555z"/>
<circle fill="#3A3A3A" cx="398.383" cy="384.983" r="7.593"/>
<circle fill="#3A3A3A" cx="503.996" cy="384.983" r="7.593"/>
<path fill="#8E605B" d="M375.547,357.848c0,0,32.712-9.609,48.131,4.215C423.678,362.062,434.094,338.027,375.547,357.848z"/>
<path fill="#8E605B" d="M526.835,357.848c0,0-32.714-9.611-48.132,4.211C478.703,362.058,468.288,338.027,526.835,357.848z"/>
<path fill="#8E605B" d="M346.499,369.77c0,0,28.195-36.209,29.048-78.171C376.4,249.637,442,248.41,442,248.41l-83.2-11.573
	c0,0-41.603,25.717-28.001,127.259C330.798,364.095,339.797,365.102,346.499,369.77z"/>
<path fill="#8E605B" d="M556.17,369.77c0,0-28.195-36.209-29.049-78.171c-0.854-41.961-66.453-43.188-66.453-43.188l83.201-11.573
	c0,0,41.603,25.717,28.001,127.259C571.87,364.095,562.87,365.102,556.17,369.77z"/>
<path fill="#0E4E89" d="M576.941,310.373l-125.703-15.924v-0.012l-0.048,0.007l-0.048-0.007v0.012L325.44,310.373
	c0,0-6.131,11.567,9.523,27.512c15.654,15.944,26.221,9.566,47.355,4.783c21.117-4.78,49.345-5.977,68.871-5.979
	c19.527,0.002,47.755,1.199,68.872,5.979c21.134,4.784,31.702,11.161,47.355-4.783C583.073,321.94,576.941,310.373,576.941,310.373z
	"/>
<g>
	<path fill="#357FDC" d="M553.433,190.725c-31.883-15.504-68.374-26.623-77.079-28.887c0.001-0.016-13.5-3.95-25.232-3.905
		c-11.733-0.045-25.234,3.889-25.233,3.905c-8.707,2.264-45.195,13.381-77.08,28.887c-36.435,17.957-30.029,37.205-30.071,36.941
		c3.017,20.706,6.039,41.438,9.064,62.194c32.35-7.184,65.17-11.507,98.087-12.968c8.406-0.373,16.819-0.561,25.233-0.561
		c8.413,0,16.824,0.187,25.232,0.561c32.916,1.461,65.738,5.784,98.086,12.968c3.025-20.757,6.048-41.488,9.064-62.194
		C583.463,227.931,589.869,208.682,553.433,190.725z"/>
</g>
<g>
	<path fill="#0E4E89" d="M576.656,309.637c-83.368-10.532-167.73-10.532-251.099,0c0-12.025,0-24.05,0-36.076
		c83.369-10.532,167.731-10.532,251.099,0C576.656,285.585,576.656,297.611,576.656,309.637z"/>
</g>
<g>
	<path fill="#F2DE7D" d="M576.667,310.429c-83.402-10.536-167.798-10.536-251.201,0c0-7.733,0-15.466,0-23.2
		c83.402-10.536,167.798-10.536,251.201,0C576.667,294.962,576.667,302.696,576.667,310.429z"/>
</g>
<path fill="#F2DE7D" d="M463.433,230.03c0,0,9.304-2.613,9.304-23.893h60.854l-8.215,8.213h-41.439v4.157h35.467l-6.346,8.911
	h-35.094v4.703h23.893l-3.346,7.019h-35.078L463.433,230.03L463.433,230.03z"/>
<path fill="#F2DE7D" d="M438.95,230.03c0,0-9.305-2.613-9.305-23.893h-60.853l8.213,8.213h41.44v4.157h-35.467l6.347,8.911h35.093
	v4.703h-23.893l3.346,7.019h35.079V230.03L438.95,230.03z"/>
<circle fill="#F2DE7D" cx="451.189" cy="234.964" r="17.018"/>
<polygon fill="#EA4949" points="462.871,231.561 454.777,231.561 454.777,223.31 447.602,223.31 447.602,231.561 439.645,231.561 
	439.645,238.579 447.602,238.579 447.602,246.618 454.777,246.618 454.777,238.579 462.871,238.579 "/>
<path fill="#EA4949" d="M449.686,474.776c-6.549,0-12.481-1.026-17.511-2.417c-15.561-4.299-25.768-12.824-26.195-13.186
	c-2.362-1.996-2.659-5.529-0.663-7.891c1.994-2.361,5.524-2.658,7.886-0.668c1.496,1.25,35.203,28.697,71.267-0.094
	c2.416-1.93,5.939-1.534,7.869,0.883c1.93,2.416,1.535,5.939-0.883,7.869C476.637,471.105,462.062,474.776,449.686,474.776z"/>
</svg>
