<?xml version="1.0" encoding="utf-8"?>
<!-- Generator: Adobe Illustrator 15.0.0, SVG Export Plug-In . SVG Version: 6.00 Build 0)  -->
<!DOCTYPE svg PUBLIC "-//W3C//DTD SVG 1.1//EN" "http://www.w3.org/Graphics/SVG/1.1/DTD/svg11.dtd">
<svg version="1.1" id="Layer_1" xmlns="http://www.w3.org/2000/svg" xmlns:xlink="http://www.w3.org/1999/xlink" x="0px" y="0px"
	 width="700px" height="400px" viewBox="-100 50 700 400" enable-background="new -100 50 700 400" xml:space="preserve">
<rect x="-110" y="39.5" fill="#605F5C" width="720" height="424"/>
<g>
	
		<image overflow="visible" opacity="0.15" enable-background="new    " width="463" height="120" xlink:href="../F2761995.png"  transform="matrix(1.2 0 0 1.2 -28.4014 178.0986)">
	</image>
	<g>
		<g>
			<path fill="#50BEED" d="M223.463,245.642v-9.874c0-0.136,0.015-0.259,0.021-0.391c-0.094,0.055-0.194,0.106-0.287,0.167v-29.626
				h-16.374v56.928c0.877-0.316,1.866-0.494,2.972-0.494c1.447,0,2.686,0.316,3.747,0.83c0.826-2.148,2.467-3.945,4.936-4.693
				c0.127-1.707,0.792-3.445,2.238-5.031c0.823-0.9,1.595-1.665,2.313-2.377C222.646,249.276,222.807,247.351,223.463,245.642"/>
			<path fill="#50BEED" d="M256.139,253.387c-0.044-0.083-0.076-0.168-0.123-0.255c-4.94-9.053-16.333-12.401-25.394-7.458
				c-9.057,4.941-12.403,16.336-7.461,25.393c0.047,0.082,0.101,0.156,0.147,0.238l-12.56,6.855
				c-0.047-0.084-0.101-0.156-0.146-0.238c-8.726-15.982-2.815-36.084,13.166-44.807c15.984-8.724,36.083-2.818,44.81,13.164
				c0.045,0.085,0.076,0.172,0.119,0.254L256.139,253.387z"/>
			<path fill="#E48B40" d="M191.904,267.933v-0.025c0.001-0.152,0.01-0.316,0.01-0.457h-0.01v-38.055h-16.376
				c0,0-0.043,40.11,0.022,40.155c-0.711,3.695-3.527,10.203-14.609,10.203c-11.373,0-12.692-6.195-12.732-8.709l0.006,0.051v-41.7
				h-16.123v41.403c-0.015,1.557,0.234,10.158,6.951,17.047c0.162,0.168,0.345,0.309,0.512,0.467
				c5.994,4.672,13.504,7.486,21.675,7.555c1.941-0.012,3.774-0.139,5.486-0.377c0.036-0.006,0.067-0.01,0.105-0.018
				c0.726-0.102,1.423-0.229,2.106-0.373c0.513-0.109,1.024-0.229,1.527-0.359c0.198-0.051,0.395-0.1,0.587-0.152
				c0.572-0.158,1.134-0.33,1.691-0.516c0.229-0.076,0.456-0.152,0.676-0.23c0.349-0.121,0.687-0.258,1.029-0.389
				c2.015-0.816,3.824-1.797,5.425-2.918c0.042,0.062,0.095,0.115,0.143,0.178c1.313-0.797,2.565-1.68,3.761-2.627
				c0.113,0.102,0.25,0.201,0.371,0.303c0.65-1.77,1.828-3.324,3.555-4.229c0.005-0.002,0.808-0.504,1.151-0.684
				c0.057-0.062,0.143-0.146,0.222-0.223C183.762,279.476,184.716,269.485,191.904,267.933"/>
			<path fill="#E48B40" d="M-2.876,286.097l6.599-11.121c8.067,5.256,15.883,7.943,23.586,7.943c6.841,0,10.998-2.566,10.998-7.09
				c0-4.518-4.276-6.107-15.151-8.672C6.413,263.243,0.3,259.089,0.3,249.314c0-13.075,11.123-21.142,25.785-21.142
				c9.044,0,18.454,3.054,26.276,7.944l-6.723,10.14c-7.088-4.518-13.323-6.476-19.678-6.476c-5.863,0-10.385,2.2-10.385,7.21
				c0,4.399,3.3,5.624,13.075,8.063c18.213,4.4,25.544,8.555,25.544,19.309c0,12.469-10.387,20.287-26.521,20.287
				C17.164,294.651,4.699,291.354-2.876,286.097"/>
			<polygon fill="#E48B40" points="108.199,293.429 89.628,265.692 80.828,274.364 80.828,293.429 64.453,293.429 64.453,204.22 
				80.828,204.22 80.828,258.356 106.49,229.519 123.966,229.519 100.013,256.646 125.675,293.429 			"/>
			<path fill="#50BEED" d="M421.101,293.429h-16.376v-35.928c0-10.263-3.789-14.786-10.144-14.786
				c-6.601,0-14.174,5.623-16.617,13.319v37.395h-16.376v-64.035h14.787v11.854c4.765-8.065,14.172-12.954,25.414-12.954
				c16.013,0,19.311,12.71,19.311,25.174L421.101,293.429L421.101,293.429z"/>
			<path fill="#50BEED" d="M310.689,295.667c-18.209,0-33.021-14.816-33.021-33.027c0-18.207,14.812-33.021,33.021-33.021
				c18.211,0,33.025,14.813,33.025,33.021C343.715,280.851,328.9,295.667,310.689,295.667 M310.689,243.927
				c-10.318,0-18.713,8.394-18.713,18.71c0,10.318,8.395,18.719,18.713,18.719s18.714-8.4,18.714-18.719
				C329.403,252.321,321.008,243.927,310.689,243.927"/>
			<path fill="#50BEED" d="M345.954,274.612v-19.923c0-0.264-0.022-0.507-0.024-0.765v-25.512h-15.176v31.04h6.747
				c0.525,6.486,1.064,13.043-0.609,19.305c-0.893,3.365-2.399,6.15-4.354,8.508c1.011,4.197,4.146,6.904,9.99,7.021
				c1.957,0,4.768-0.244,7.823-0.857v-13.93C347.174,279.378,345.954,278.032,345.954,274.612"/>
			<path fill="#50BEED" d="M496.936,274.612v-19.923c0-6.397-1.529-11.716-4.412-15.869c-0.555,3.665-2.527,6.901-4.923,9.963
				c0.238,0.768,0.385,1.609,0.398,2.54c0.161,9.025,2.247,18.529-0.125,27.434c-0.895,3.365-2.402,6.15-4.354,8.508
				c1.01,4.197,4.146,6.904,9.994,7.021c1.953,0,4.767-0.244,7.82-0.857v-13.93C498.16,279.378,496.936,278.032,496.936,274.612"/>
			<path fill="#50BEED" d="M463.108,295.667c-18.207,0-33.021-14.816-33.021-33.027c0-18.207,14.813-33.021,33.021-33.021
				c18.211,0,33.023,14.813,33.023,33.021C496.131,280.851,481.319,295.667,463.108,295.667 M463.108,243.927
				c-10.318,0-18.714,8.394-18.714,18.71c0,10.318,8.396,18.719,18.714,18.719c10.323,0,18.72-8.4,18.72-18.719
				C481.827,252.321,473.431,243.927,463.108,243.927"/>
			<rect x="481.734" y="228.414" fill="#50BEED" width="15.174" height="31.042"/>
			<polygon fill="#E48B40" points="277.306,245.19 255.064,235.768 250.953,259.569 			"/>
			<path fill="#E48B40" d="M191.876,274.612v-10.848c-1.336,1.211-3.164,1.982-5.49,1.982c-0.931,0-1.776-0.131-2.552-0.355
				c0.228,4.514,0.144,9.016-1.018,13.367c-0.898,3.363-2.401,6.148-4.355,8.508c1.01,4.195,4.147,6.902,9.993,7.02
				c1.953,0,4.767-0.244,7.821-0.857v-13.928C193.097,279.378,191.876,278.032,191.876,274.612"/>
			<path fill="#E48B40" d="M223.207,271.054c0.126,0.26,0.23,0.521,0.366,0.773c4.946,9.059,16.337,12.404,25.394,7.461
				c9.061-4.941,12.407-16.336,7.464-25.395c-0.137-0.255-0.3-0.483-0.447-0.727l12.562-6.853c0.144,0.25,0.308,0.473,0.443,0.727
				c8.725,15.986,2.818,36.083-13.167,44.808c-15.98,8.721-36.081,2.818-44.804-13.17c-0.141-0.252-0.241-0.516-0.371-0.768
				L223.207,271.054z"/>
			<polygon fill="#50BEED" points="228.502,265.372 224.395,289.175 202.149,279.751 			"/>
		</g>
	</g>
</g>
</svg>
