<?xml version="1.0" encoding="utf-8"?>
<!-- Generator: Adobe Illustrator 15.0.0, SVG Export Plug-In . SVG Version: 6.00 Build 0)  -->
<!DOCTYPE svg PUBLIC "-//W3C//DTD SVG 1.1//EN" "http://www.w3.org/Graphics/SVG/1.1/DTD/svg11.dtd">
<svg version="1.1" id="Layer_1" xmlns="http://www.w3.org/2000/svg" xmlns:xlink="http://www.w3.org/1999/xlink" x="0px" y="0px"
	 width="1008px" height="1224px" viewBox="0 0 1008 1224" enable-background="new 0 0 1008 1224" xml:space="preserve">
<rect x="0.002" fill="#B0594A" width="1008" height="1224"/>
<circle fill="#EADE95" cx="499.802" cy="719.984" r="398.085"/>
<path fill="#1F0F12" d="M676.614,750.122c-12.8-9.385,3.412-13.9,3.412-13.9c8.534,17.671,21.821,8.271,21.821,8.271
	c-21.699-0.511-14.142-13.998-14.142-13.998c26.452-23.038,7.681-28.157,7.681-28.157c-8.532,2.559-9.386-4.267-9.386-4.267
	c3.413-9.386-3.885-15.359-3.885-15.359c-21.805,2.561-2.09-15.359-2.09-15.359c11.093-17.066-25.599-45.226-25.599-45.226
	c-9.386-11.092-17.919-14.506-17.919-14.506c-15.36,0-17.065-2.56-17.065-2.56c-12.8-17.066-31.574-23.893-31.574-23.893
	c-52.904-63.144-81.062-32.425-81.062-32.425c-13.653-28.16-47.786-12.8-47.786-12.8c-15.539,1.688-31.334,9.533-44.76,18.39
	c-33.208-7.048-58.488,23.423-58.488,23.423c-9.092,7.343-13.603,18.266-15.767,28.602c-6.481-1.629-15.94-1.327-24.341,9.322
	c0,0-16.883,17.338-1.47,37.868c-7.87,13.478-6.209,28.311-6.209,28.311c-9.388,20.479,14.507,45.225,14.507,45.225
	c12.799,6.827,6.823,17.41,6.823,17.41c-17.064-1.364-16.211-19.116-16.211-19.116c-9.386,12.8-9.386,32.426-9.386,32.426
	c-4.267,17.918,23.039,26.451,23.039,26.451c19.626,12.8,1.707,9.388,1.707,9.388c-8.533,0-8.533,9.387-8.533,9.387
	c1.707,13.651,17.919,23.039,17.919,23.039c2.561,15.357,20.479,19.624,20.479,19.624c-6.826,10.241-24.746-0.852-24.746-0.852
	c23.893,23.891,37.119-2.605,37.119-2.605c-3.84,23.421,17.919,13.658,17.919,13.658c14.079,2.522,2.561,8.999,2.561,8.999
	c-19.655,23.048-11.52,29.111-11.52,29.111c-16.64,25.271,21.76,31.628,21.76,31.628c11.519,33.858,25.599,0,25.599,0
	c17.918-5.818,10.239-43.017,10.239-43.017c-7.84-6.724-13.872-15.021-18.477-23.297c-14.431-18.107-16.711-41.885-20.28-64.122
	c-4.252-26.506-13.777-53.558-0.048-78.986c0.76-1.406,1.788-2.295,2.923-2.765c5.415-13.993,11.562-23.913,11.562-23.913
	c12.8-5.128,19.199-33.272,19.199-33.272c28.159-55.039,62.719-46.077,62.719-46.077c12.799,4.266,17.065-1.706,17.065-1.706
	c16.212-8.533,29.012,14.505,29.012,14.505c9.388,17.064,19.626,24.746,19.626,24.746c8.532,10.239,15.361,21.332,15.361,21.332
	c7.68,16.212,15.359,22.187,15.359,22.187c9.386,8.533,6.825,16.212,6.825,16.212c-5.974,11.945,2.559,18.774,2.559,18.774
	c5.975,11.945,0.854,28.157,0.854,28.157c-0.853,31.574-10.238,81.918-10.238,81.918c-8.533,29.865-24.746,43.52-24.746,43.52
	l-0.854,12.799c-2.56,40.105,24.745,38.399,24.745,38.399c35.838,3.412,30.719-38.399,30.719-38.399
	c-17.065-8.532,0-12.799,0-12.799c16.213-10.242,5.976-19.629,5.976-19.629c12.8,6.829,21.331,1.708,21.331,1.708
	c19.628-4.267,12.799-41.812,12.799-41.812c15.36-1.706,19.628-16.212,19.628-16.212c22.186,0,10.239-17.066,10.239-17.066
	C698.801,769.748,676.614,750.122,676.614,750.122z M338.651,634.922l0.089-0.021c-10.579,3.21-17.553,8.801-22.16,15.024
	c0.027-2.896-0.356-7.146-1.766-13.293c0,0,2.355-31.134,23.323-26.451c0,0,0.364,0.348,1.022,0.933
	C337.251,624.035,338.651,634.922,338.651,634.922z M352.358,632.367c-1.23,0.106-2.419,0.244-3.582,0.399
	c-1.38-5.66-1.825-10.815-1.694-15.417c2.819,1.971,6.119,4.012,9.618,5.663C354.581,628.777,352.358,632.367,352.358,632.367z
	 M371.984,606.768c0,0-8.533-0.854,8.532-14.507C380.517,592.261,378.812,602.5,371.984,606.768z M378.812,583.729
	c-14.509,4.267-18.775,25.911-18.775,25.911c-0.234,1.812-0.558,3.55-0.93,5.21c-3.127-0.803-6.914-2.312-11.245-5.103
	c2.001-11.173,7.056-17.486,7.056-17.486c11.887-21.071,32.317-26.742,45.711-28.071
	C387.472,574.537,378.812,583.729,378.812,583.729z"/>
<g>
	<path fill="none" stroke="#B15A4B" stroke-width="3.8399" stroke-miterlimit="10" stroke-dasharray="15.1373,15.1373" d="
		M565.527,881.405c5.355-5.766,11.521-11.093,15.361-18.774c1.279-2.558,2.561-6.398,3.839-8.959
		c12.799-37.118,15.359-76.797,16.64-116.476c1.279-7.68-6.399-14.08-5.12-21.759c0-5.121,1.279-10.239-1.279-15.36
		c-3.841-7.679-10.24-11.519-14.079-17.92c-3.841-8.959-8.962-16.638-14.081-24.318c-6.399-8.959-14.079-15.358-20.478-23.039
		c-3.841-5.12-6.4-11.52-10.241-16.64c-2.56-1.279-3.841-3.839-6.399-6.399c-3.84-2.561-7.681-5.121-12.8-3.84
		c-6.399,3.84-15.899,7.81-22.462,4.479c-10.512-5.333-17.752,0.517-17.752,0.517c-25.063,7.804-44.264,32.122-49.383,59.001
		c-6.4,8.96-12.799,16.641-17.92,25.6c-14.079,21.76-19.199,44.799-16.639,70.398c1.279,8.959,2.56,19.198,5.119,28.159
		c5.119,20.479,8.959,39.677,16.641,58.877c3.84,7.679,8.959,14.08,12.909,20.179c0,0,36.365,38.825,69.402,39.679
		c0,0,17.679,4.267,38.157-10.239C534.963,904.57,560.19,887.152,565.527,881.405z"/>
</g>
<g>
	<path fill="#B0594A" d="M482.648,726.613c0,1.974-0.765,3.723-2.292,5.251c-1.53,1.529-3.279,2.292-5.251,2.292h-1.479
		c-2.07,0-3.846-0.763-5.324-2.292c-1.479-1.528-2.219-3.277-2.219-5.251v-11.39c0-2.267,0.763-4.116,2.292-5.547
		c1.528-1.428,3.377-2.292,5.547-2.588c2.563-0.296,4.683-0.541,6.36-0.739c1.676-0.197,3.303-0.345,4.881-0.444
		c1.576-0.097,3.229-0.171,4.955-0.222c1.725-0.049,3.869-0.074,6.435-0.074c5.126,0,10.081,0.444,14.865,1.331
		c4.781,0.888,9.022,2.467,12.72,4.733c3.698,2.27,6.679,5.325,8.948,9.171c2.268,3.846,3.402,8.777,3.402,14.791
		c0,6.312-1.604,11.735-4.807,16.27c-3.206,4.537-7.174,8.579-11.907,12.129l-15.53,11.833c-1.479,1.086-2.466,2.366-2.959,3.846
		c-0.494,1.479-0.739,3.106-0.739,4.881v3.254c0,1.775-0.665,3.328-1.997,4.659c-1.331,1.331-2.884,1.997-4.659,1.997h-3.993
		c-1.874,0-3.476-0.688-4.807-2.07c-1.332-1.38-1.997-2.908-1.997-4.586v-4.732c0-2.268,0.097-4.239,0.296-5.917
		c0.196-1.676,0.541-3.154,1.035-4.438c0.492-1.28,1.158-2.415,1.997-3.401c0.836-0.984,1.849-1.923,3.032-2.811l16.27-12.572
		c3.056-2.367,5.718-4.979,7.987-7.84c2.268-2.858,3.402-6.309,3.402-10.354c0-3.351-0.913-5.99-2.736-7.913
		c-1.826-1.923-4.067-3.376-6.73-4.363c-2.662-0.984-5.523-1.602-8.578-1.849c-3.058-0.245-5.819-0.37-8.283-0.37
		c-1.087,0-2.293,0-3.624,0s-2.836,0.1-4.512,0.296V726.613z M502.765,814.916c0,3.156-1.061,5.819-3.18,7.986
		c-2.122,2.168-4.71,3.255-7.766,3.255c-3.157,0-5.794-1.109-7.913-3.328c-2.122-2.219-3.181-4.855-3.181-7.913
		c0-3.056,1.059-5.67,3.181-7.84c2.119-2.168,4.756-3.254,7.913-3.254c3.154,0,5.769,1.061,7.839,3.18
		C501.729,809.124,502.765,811.761,502.765,814.916z"/>
</g>
<g>
	<path fill="#EFB9BB" d="M959.479,564.51c0,0,24.863,19.149,13.977,35.531c0,0-30.938,47.569-22.703,60.634
		c0,0-0.635,25.443-10.25,29.046c0,0-15.849,3.116-20.815,18.901c0,0-0.183-0.145-23.511,11.411c0,0-66.546,35.309-85.77,26.729
		c0,0-56.242-3.766-72.723-31.915l-0.194-38.62l67.57-51.312l120.564-69.926l17.97-1.899L959.479,564.51z"/>
	<path fill="#AF8186" d="M949.007,549.949c0,0,9.05,14.47,19.638,24.787c0,0-26.044-13.155-44.065,4.53
		c0,0,10.092,39.381-20.512,28.916c0,0-22.104-3.798-18.435,10.691c0,0-6.617-2.941-12.996,0.172l-0.098-40.575l-11.627-29.293
		c0,0,23.345-9.938,32.725-8.521C893.637,540.655,938.488,528.371,949.007,549.949z"/>
	<path fill="#CC8390" d="M873.904,629.686c0,0-24.352,13.025-28.357,20.839c0,0,0.081,17.078-12.512,9.019
		c0,0-25.754-12.631-14.686,10.406c0,0-23.973-14.508-3.139-27.25l51.64-24.947C866.851,617.752,871.609,621.791,873.904,629.686z"
		/>
	<path fill="#C3B7D3" d="M895.16,640.734l-13.191,17.173l5.422,9.35c0,0,10.442,12.625,16.39,14.171l10.073-5.844l0.357-7.439
		l-4.621-13.762L895.16,640.734z"/>
	<path fill="#9A6991" d="M894.545,645.809c0,0-16.055,8.197,1.788,28.758c0,0,5.435,5.464,13.568,3.311c0,0,4.405,6.651-4.98,5.519
		c0,0-10.11-3.812-16.893-10.823c0,0-14.222-13.033-11.875,6.887c0,0-11.634-31.398,4.239-28.977c0,0,16.828-4.77-0.102-12.645
		c0,0-12.304-13.424,4.731-8.446c0,0,16.554,16.732,11.954,3.165c0,0-10.899-12.105-0.428-9.851c0,0,17.977,6.952,22.693,21.06
		C919.242,643.766,922.831,669.458,894.545,645.809z"/>
	
		<ellipse transform="matrix(-0.5017 -0.8651 0.8651 -0.5017 781.1201 1769.571)" fill="#616193" cx="900.25" cy="659.799" rx="10.808" ry="10.798"/>
	<path fill="#703847" d="M892.237,640.966c0,0,9.083-3.49,21.333,14.396c0,0,10.237,15.767,1.699,25.319
		c0,0-7.976,7.922-5.368-2.804c0,0,2.935-8.5,1.331-14.865C911.232,663.012,896.154,643.297,892.237,640.966z"/>
	<polygon fill="#82809D" points="841.955,558.135 832.116,571.954 840.686,604.25 857.041,614.932 871.764,603.014 858.25,565.785 	
		"/>
	<path fill="#4F3C71" d="M849.678,574.042c0,0-14.385,7.101-6.521,16.948c0,0,7.111,6.354,15.463,2.86
		C858.62,593.85,859.578,588.031,849.678,574.042z"/>
	<path fill="#513040" d="M874.751,608.166c0,0,7.558-10.207,7.187-19.316c0,0-0.456-25.96-9.803-35.724c0,0-6.496-6.316,6.313-8.043
		c0,0,23.571-2.448,39.02-5.293c0,0,18.249-2.547,31.539,10.16c0,0-0.905-10.632-19.486-14.321c0,0-36.638,3.729-43.467,3.296
		c0,0-17.8-0.017-32.845,7.286c0,0-6.279-0.236-13.347,2.007c-0.823,0.26-1.655,0.553-2.488,0.884
		c-8.017,3.188-0.454,7.353-0.454,7.353s29.543,40.442,29.441,53.073L874.751,608.166z"/>
	<path fill="#836868" d="M862.49,563.983c0,0-17.082-11.796-10,5.8l2.516,9.719c0,0,6.326,20.535,9.6,24.487l5.135-4.466
		C869.74,599.523,875.245,576.379,862.49,563.983z"/>
	<path fill="#7D5066" d="M779.973,586.193c0,0,11.779-19.373,29.201-22.22l15.879,0.02l11.865,16.238
		c0,0,5.607,13.249,11.265,19.423l1.659,12.898l-10.628,12.719l-23.435,13.591l-2.277,15.35c0,0-8.77,9.761-17.849,10.352
		c0,0-4.816,0.917-3.938,8.78l-4.843,2.809l-22.375-41.525L779.973,586.193z"/>
	<path fill="#6F4959" d="M764.292,682.754c0,0-13.999-29.805-20.359-2.221c0,0,5.204,4.435-0.801,14.492
		c0,0-10.531,13.59,0.294,26.587c0,0-28.51-25.346-11.443-70.756c0,0-0.237-28.141,25.711-51.741c0,0,17.278-11.337,24.836-20.98
		c0,0,11.256-10.438,19.54-15.052c0,0-31.431,27.473-18.462,54.345c0,0,12.951,26.885,26.373,4.632c0,0-1.871-27.413,24.605-14.27
		l6.993,24.619l-31.667,22.995c0,0-14.785-6.37-20.438-12.927c0,0-13.762-2.695,2.469,15.691c0,0,1.591,4.996-5.598,11.795
		l-5.334,19.314c0,0-5.836,2.053,3.662,16.722c0,0-2.052,11.739-5.776-1.466C778.897,704.533,774.302,692.073,764.292,682.754z"/>
	<path fill="#7B4A63" d="M870.646,622.387c0,0-9.553,12.588-27.077,20.545c0,0-38.427,8.205-30.349,23.267l-8.692-20.077
		c0,0,0.39-16.917,13.898-14.031l8.711,1.502c0,0,27.606,0.64,34.494-11.677L870.646,622.387z"/>
	<path fill="#452237" d="M873.529,541.139c0,0-16.141,2.37-12.086,12.272c0,0-26.021-2.006-10.621,12.077
		c0,0,14.802,17.352,10.786,26.629c0,0-9.231-22.454-17.3-22.942c0,0-14.132,2.37-3.557,21.885c0,0-8.61,3.677-15.764-13.875
		c0,0-13.049-16.4-14.526,8.277c0,0,0.827-12.169-11.012-9.904c0,0-22.631,0.356,10.901-17.092c0,0,13.517-4.305,24.705-8.824
		C835.057,549.641,861.691,543.402,873.529,541.139z"/>
	<path fill="#572B44" d="M808.354,635.127c0,0,6.082-4.253,10.379,2.023c0,0-0.239,2.99,14.631,0.281
		c0,0,39.586-11.121,45.766-26.544c0,0,4.169-9.149,3.632-18.916c0,0-1.884-14.355-9.298,5.745c0,0-2.061,15.728-2.598-5.61
		c0,0,0.4,2.957-4.896-8.441c0,0,3.561,8.405-2.587,15.946c0,0-10.196,5.938-19.492-3.14c0,0-17.041,4.531-10.738,14.323
		c0,0-25.108,1.122-7.085,14.059c0,0,37.669-0.061,9.978,5.108C836.045,629.961,812.848,623.599,808.354,635.127z"/>
	<path fill="#BA667D" d="M792.645,676.832c0,0,3.332,8.59,8.607,12.106c0,0,9.152,3.022,3.356,17.782c0,0-10.266,0.253-21.03-6.214
		c0,0-10.801-10.519-14.082-24.278l-0.629-10.157l13.804-0.112L792.645,676.832z"/>
	<path fill="#AF4D6D" d="M797.801,698.386c0,0-2.099,0.349-8.929-8.405l-7.86-0.703c0,0-3.979-0.924,2.112-4.731
		c0,0,3.771-5.256-1.878-4.172c0,0-8.53,3.193-2.094-3.608c0,0,0.188-7.122-4.209-6.325c0,0-4.798-2.918-5.447,5.788
		c0,0-6.523-17.416-1.188-17.603c0,0,20.588-1.104,24.336,18.206C792.645,676.832,790.953,682.618,797.801,698.386z"/>
	<path fill="#23132C" d="M923.517,710.096c3.773-2.189-1.208-8.505-1.208-8.505c6.607-11.287,0.414-23.478,0.414-23.478
		c-15.99-35.885-42.78-43.145-42.78-43.145c-0.027-5.529-12.367-21.323-12.367-21.323c4.42-15.058-25.62-55.511-25.62-55.511
		c-9.731-14.324-22.341-10.935-22.341-10.935c-3.235-5.576-6.072-3.054-6.072-3.054c-3.217,1.865,0.466,5.868,0.466,5.868
		c-4,4.074-5.727,19.981-5.727,19.981c-6.484,16.035,28.351,48.882,28.351,48.882c7.002,6.023,24.429,2.053,24.429,2.053
		c7.703-1.836,10.951,11.625,10.951,11.625c3.571,4.943-4.68,12.799-4.68,12.799c-5.728,9.021-1.194,19.104-1.194,19.104
		c4.151,9.429,15.603,26.901,15.603,26.901c6.555,9.791,8.6,10.795,8.6,10.795c8.646,3.315,27.29,3.464,27.29,3.464
		C921.625,712.508,923.517,710.096,923.517,710.096z M850.896,617.399c-15.615,4.453-32.855-25.664-32.855-25.664
		c-14.242-20.018-0.207-32.105-0.207-32.105c5.924-11.328,18.424,1.153,18.424,1.153c19.94,17.371,26.829,46.257,26.829,46.257
		C865.271,617.611,850.896,617.399,850.896,617.399z M892.337,700.559c-7.776-2.067-24.26-41.828-24.26-41.828
		c-2.313-8.522,3.012-10.296,3.012-10.296c8.669,2.862,9.202-10.597,9.202-10.597c3.809-0.237,10.756,4.939,10.756,4.939
		c16.102,13.021,28.738,35.942,28.738,35.942c2.836,12.824-0.045,18.441-0.045,18.441
		C914.429,708.79,892.337,700.559,892.337,700.559z"/>
	<path fill="#4F1832" d="M770.205,654.772c0,0,16.666,16.642,20.562,30.164c0,0-3.14-1.248,4.708,6.038
		c0,0,8.386,7.849,9.133,15.746c0,0-0.655,3.013,3.749,3.526c0,0-2.105,5.167-3.712,3.907c0,0-1.091-1.122-2.476-4.266
		c0,0-0.211-9.522-15.557-26.49c0,0-2.309-2.135-3.797-6.548c0,0-6.162-13.982-11.345-15.359
		C771.472,661.491,762.207,654.588,770.205,654.772z"/>
	<path fill="#C58B92" d="M804.752,672.003c0,0-10.16-1.12-6.831,7.907c0,0,9.296,9.953,9.997,2.093
		C807.918,682.003,809.708,671.307,804.752,672.003z"/>
	<path fill="#2D1522" d="M882.761,591.972c2.454-7.716-7.009-27.351-7.009-27.351c-2.917-8.34-10.545-14.147-17.606-17.919
		c-6.052-0.896-12.107-0.904-17.804,1.849c-0.044,0.021-0.088,0.036-0.133,0.057c1.879,0.536,3.502,0.838,3.502,0.838
		c9.469,1.962,18.891,11.405,18.891,11.405c11.01,7.643,10.504,24.158,10.504,24.158
		C878.507,598.098,882.761,591.972,882.761,591.972z"/>
	<path fill="#6D404B" d="M906.76,631.691c0,0,11.75,5.899,19.861,16.102c0,0,9.769,12.311,9.383,25.248
		c0,0,1.597,20.558-3.976,14.144c0,0,2.794-9.513-1.502-17.981c0,0,2.221-4.797-12.438-16.462
		C918.088,652.741,888.025,622.827,906.76,631.691z"/>
	<path fill="#6E3A4F" d="M804.569,638.81c0,0-4.027,7.795,6.937,11.959c0,0-4.828,8.683,1.143,14.443
		C812.648,665.212,801.207,655.688,804.569,638.81z"/>
	<path fill="none" stroke="#452237" stroke-width="1.1378" stroke-miterlimit="10" d="M864.54,583.443
		c0,0-4.456-13.707-16.672-16.242"/>
	<path fill="#623341" d="M799.972,571.944c0,0-22.531,10.961-24.777,23.598c0,0-8.425,15.188-15.52,18.427
		c0,0-19.642,11.093-16.339,34.916c0,0,0.699,20.426-1.325,36.27c0,0-13.384,10.207-9.659,20.965c0,0-11.64-27.004-2.317-49.52
		c0,0,1.646-28.39,19.095-48.473c0,0,5.737-7.719,20.248-17.523c0,0,4.817-3.03,13.152-12.468
		C782.529,578.135,818.473,548.466,799.972,571.944z"/>
	<path fill="#0A0B12" d="M852.981,580.336c0,0-9.605,3.017-2.113,7.949C850.868,588.285,861.654,591.5,852.981,580.336z"/>
	
		<ellipse transform="matrix(-0.5017 -0.8651 0.8651 -0.5017 781.9778 1769.1206)" fill="#0A0B12" cx="900.544" cy="659.329" rx="4.081" ry="4.329"/>
	<path fill="#D18996" d="M825.115,674.234c0,0,5.77-0.258,9.567,6.292C834.683,680.526,811.554,674.66,825.115,674.234z"/>
	<path fill="#E59EA5" d="M844.269,663.126c0,0-8.183,7.343-5.458,11.475c0,0,4.513,8.352-2.04,9.522c0,0,8.315,9.8,10.019-5.403
		c0,0-2.193-8.315,3.071-11.712C849.86,667.008,861.678,658.083,844.269,663.126z"/>
</g>
<g>
	<polygon fill="#CA829D" points="251.677,697.523 213.349,727.602 171.673,720.67 171.501,690.707 206.62,639.691 230.725,635.914 	
		"/>
	<path fill="#B85779" d="M204.882,704.717c0,0-6.073-3.631-2.124-11.059l20.016-27.934c0,0,12.333-5.057,19.915,4.917l8.843,17.259
		l-30.847,30.188L204.882,704.717z"/>
	<path fill="#914765" d="M188.551,674.078c0,0,10.76,2.604,18.512-7.479l0.14,7.997l-11.938,23.892c0,0-4.275,10.201-10.383,5.055
		l-12.634-16.987l10.077-21.307C182.324,665.248,183.526,673.863,188.551,674.078z"/>
	<path fill="#762C4C" d="M203.537,710.684c0,0-7.719-5.449,1.508-5.842c0,0,21.023,4.61,33.183-6.321l-25.938,17.192
		L203.537,710.684z"/>
	<path fill="#65213D" d="M208.508,696.205c0,0-5.7,0.659-8.771,4.543c0,0-10.133,7.947-7.965-6.143l17.572-22.787l9.048-19.913
		c0,0,10.896-5.208,8.495,2.154c0,0-1.812,5.306-1.623,13.585c0,0,2.971,3.271,0.188,8.279L208.508,696.205z"/>
	<path fill="#A96777" d="M212.982,688.891c0,0-3.058-7.268-2.307-13.806c0,0,6.521-19.514,12.775-3.914
		C223.451,671.171,222.18,684.168,212.982,688.891z"/>
	<path fill="#F4B8C1" d="M227.979,704.483c0,0,15.863-18.208,13.389-27.487c0,0-7.778-16.969-9.349-23.261
		c0,0-1.544-10.64-11.62-9.689c0,0-11.984,4.562-19.645,14.208c0,0-5.58,11.399-15.596,14.742l-46.625-7.711l-74.103-61.252
		L42.628,561.55c0,0,14.899-23.496,23.972-23.664c0,0,21.267-8.843,38.879-1.356c0,0,32.069,2.127,44.858-1.078
		c0,0,9.115-8.395,17.168,3.606c0,0,8.506,13.995,20.809,7.383c0,0,3.993,2.76,11.294,8.595c0.988,0.79,2.037,1.637,3.146,2.54
		c9.291,7.576,30.376,32.777,40.247,45.89c0,0,38.638,60.03,25.59,99.514c0,0-13.706,32.665-37.54,21.915L227.979,704.483z"/>
	<path fill="#B27C8A" d="M106.027,610.441c0,0-15.396-5.806-10.98,2.756c0,0,8.179,11.004-8.809,0.025
		c0,0,5.479-13.351-3.354-20.628c0,0-8.798-9.112,0.188-9.167c0,0,22.045,10.85,28.725,13.85c6.678,2.997-6.68-3-6.68-3
		l14.373,1.312c0,0-13.692-5.056-13.188-10.17c0,0-7.088-15.785-19.412-14.97c0,0-26.592,17.534-24.955-3.32
		c0,0-5.078-31.774-13.771-5.337l-12.91,22.986l2.597,26.962l22.889,23.383l22.739,9.24l25.012-17.131l7.201-9.338L106.027,610.441z
		"/>
	<path fill="#B9828C" d="M162.9,577.068c0,0,3.558,29.517,14.942,6.193c0,0,14.367-12.178,8.635,18.533
		c0,0-19.185,33.407-42.034,18.079l-10.033-5.158l3.445-19.367L162.9,577.068z"/>
	<path fill="#A96E80" d="M121.788,613.283c0,0,7.95,15.828,8.433,2.244c0,0-3.576-8.503,0.52-6.221c0,0,4.129,0.325,0.166-4.915
		c0,0-9.252,3.412-9.312,0.154c0,0-8.079-2.991-8.782-6.333c0,0,0.327-8.341,5.757-7.464c0,0,5.592,2.937,6.562-10.762
		c0,0,7.146-21.513,10.881-19.912l5.5,0.5c0,0-5.14,10.414-0.461,11.302c0,0,7.395-3.031,14.451-9.513
		c0,0,11.396-7.778,14.688-7.019l-17.281,34.369c0,0-16.408,11.655-9.663,21.44l-12.225,12.527l-5.511,9.717l-20.545-17.039
		c0,0-7.734-15.705,0.263-10.563c0,0,1.047,6.42,6.926,5.34C112.153,611.136,119.687,609.652,121.788,613.283z"/>
	<path fill="#CCB9D5" d="M142.327,598.796l10.996-1.465c0,0,13.81-12.704,13.856-22.293l-0.326-5.754l-4.109-6.179
		c0,0-8.513,5.618-11.946,13.976C150.798,577.081,141.314,594.084,142.327,598.796z"/>
	<path fill="#6B517C" d="M144.561,590.573c0,0,10.303,3.896,15.34-6.723c0,0,4.037-6.563-4.596-12.614L144.561,590.573z"/>
	<path fill="#5C517A" d="M147.363,585.438c0,0,11.536,3.305,9.153-6.748l-4.364-3.366L147.363,585.438z"/>
	
		<ellipse transform="matrix(-0.6107 0.7918 -0.7918 -0.6107 704.8207 815.4125)" fill="#23132C" cx="151.978" cy="580.955" rx="2.545" ry="2.373"/>
	
		<ellipse transform="matrix(-0.6105 0.792 -0.792 -0.6105 705.553 807.0321)" fill="#A789B5" cx="154.333" cy="577.006" rx="2.218" ry="2.757"/>
	<path fill="#4D2232" d="M136.201,581.468c0,0,11.998-10.52,17.525-16.803c0,0-10.097,20.4-11.101,28.813
		c0,0-6.438,11.745-4.758,21.325l-5.262,6.823c0,0,6.379-15.482-1.284-33.829l2.41-8.744L136.201,581.468z"/>
	<path fill="#846385" d="M142.626,593.478c0,0,12.778,9.429,21.015-12.096c0,0,3.734-9.387-1.188-13.199c0,0,0.846-2.558-3.87-2.983
		l4.413-3.937c0,0,5.905,4.554,6.499,8.681c0,0,0.042,8.517-4.401,16.899c0,0-6.426,5.007-6.633,9.44c0,0,2.077,7.698-6.236,10.465
		c0,0-8.721,0.749-2.842-2.192c0,0,1.846-4.311-4.146-1.69c0,0-4.324,2.121-3.616-0.974L142.626,593.478z"/>
	<path fill="#D08296" d="M134.214,622.865c0,0,6.952,0.442,9.032,5.26c0,0,4.901,7.105,10.486,6.997c0,0,21.031,6.416,20.225,15.596
		c0,0-1.812,6.258,5.526,9.294c0,0,9.292,4.6,9.933-10.501c0,0,3.178,7.77-3.009,16.39l-16.637,4.92l-41.539-31.174l-2.195-3.698
		L134.214,622.865z"/>
	<path fill="#D08B9E" d="M177.237,623.204c0,0,9.883-8.778,26.282-7.448c0,0,42.342,11.701,1.051,8.751L177.237,623.204z"/>
	<path fill="#684455" d="M103.262,614.027c0,0-0.205,11.783-9.683,6.874c0,0-13.456-7.483-21.291-2.077
		c0,0-9.678,8.979-18.905-5.219c0,0-14.14-7.833-9.789-22.396c0,0,6.326-15.337,7.535-29.993c0,0-6.852-8.953-14.381,10.92
		c0,0-11.931,17.124-5.91,34.195l10.364,18.311l5.646,17.655c0,0,13.834,21.052,16.975,24.245l15.971,12.315l27.95-7.487
		l20.099-26.064l-8.766-18.065L103.262,614.027z"/>
	<path fill="#3C2139" d="M84.38,667.111c0,0-8.518,8.033-12.583-4.237c0,0-18.583-6.955-20.537-21.304
		c0,0-3.042-14.727-10.143-21.578c0,0-8.508-12.753-8.443-21.759c0,0-7.378-6.491,0.681,15.772c0,0,7.348,20.8,11.481,26.741
		c0,0,6.824,13.058,15.428,23.359c0,0,3.963,19.118,21.094,31.324l11.27-21.96L84.38,667.111z"/>
	<path fill="#6F4F64" d="M86.697,661.687c0,0-8.37,4.46-12.844-4.984c0,0-9.178,1.726-13.656-12.092c0,0-7.947-13.48,4.208-16.16
		c0,0,10.813-0.642,8.622,7.853c0,0-5.219,11.461,1.449,8.194c0,0,6.017-10.741,3.609-17.136c0,0,7.823-8.068,12.424,3.202
		l-8.713,11.298c0,0,10.176-1.568,9.087,4.297L86.697,661.687z"/>
	<path fill="#61304C" d="M95.811,628.23c0,0,13.716-2.26,6.984-9.059c0,0-6.284-17,6.437-4.896c0,0,13.63,7.641,18.352,13.864
		l-10.761,13.954c0,0-9.67-12.559-27.2-5.838L95.811,628.23z"/>
	<path fill="#3E1529" d="M114.287,637.943c0,0-10.807-4.802-16.919,4.287c0,0-12.399-0.006,11.877-11.265
		c0,0,10.316-8.879,13.266,0.809L114.287,637.943z"/>
	<path fill="#824D62" d="M190.141,655.112c0,0-0.962,9.57-7.816,10.136c0,0-7.037,3.175-14.999-4.34c0,0-8.527-3.712-13.748-15.13
		l-10.96-3.377c0,0-5.954-10.643-13.709-13.411l-3.477,7.638l9.315,14.004l2.381,25.054l11.443,11.921l11.83,4.881l13.038-12.019
		C173.439,680.469,192.805,667.714,190.141,655.112z"/>
	<polygon fill="#7C6985" points="87.668,669.647 100.07,671.999 113.596,663.672 122.039,648.458 113.051,641.525 103.602,647.31 
		96.57,643.265 85.149,658.074 	"/>
	<path fill="#443051" d="M107.927,643.079c0,0,6.867,7.711,4.568,14.299l-11.906,13.06c0,0-7.11-5.051-8.632-8.03l-5.264,1.215
		l-2.772,3.595l3.112,6.069l9.494,4.799l10.303-0.874l9.297-7.298l5.156-13.307l7.248-14.376l-4.561-4.721l-3.846-4.973
		L107.927,643.079z"/>
	<path fill="#4F3E5F" d="M105.599,646.1c0,0,3.47,6.573,1.466,11.219c0,0-3.691,8.832-11.045,7.762c0,0-7.372,1.216-9.322-3.394
		l5.551-12.817C92.248,648.869,100.46,639.383,105.599,646.1z"/>
	<path fill="#4B4E72" d="M94.178,660.909c0,0,7.662,3.146,9.991-2.849c0,0,2.571-3.335-2.329-7.087L94.178,660.909z"/>
	<path fill="#9886B9" d="M97.134,652.629c0,0-1.815-0.931,1.719-4.624c0,0,2.557-3.991,4.749-0.695l-4.989,6.468L97.134,652.629z"/>
	<path fill="#201117" d="M84.882,672.964c0,0-5.393-13.212,0.688-19.913c0,0,5.452-17.485,23.45-11.389c0,0-8.738-0.249-11.318,6.65
		c0,0-10.961,11.239-6.688,16.701L84.882,672.964z"/>
	<path fill="#6E4852" d="M158.814,683.243c0,0,11.366-4.926,15.232-11.726c0,0,4.856,0.841,8.479-1.181c0,0,4.252-0.159,1.986,6.347
		c0,0-1.539,9.132,0.372,20.925c0,0-3.076,18.265,14.101,12.938c0,0,6.604-0.534,14.511,0.81c0,0,12.06,0.417,20.548-15.051
		c0,0-6.592,12.115-0.786,17.968c0,0,24.643,20.677,34.854-16.653c0,0,3.793,7.453-7.771,22.508c0,0-10.672,9.435-22.259,10.189
		l-39.561,6.699l-35.561-3.843l-33.448-15.666l-23.465-11.411l21.017-32.038L158.814,683.243z"/>
	<path fill="#593542" d="M123.219,704.472c0,0-3.301,6.02,24.214,16.729c0,0,36.594,14.097,55.553,10.919
		c0,0,17.03-0.675,25.408-6.186c0,0,8.761-4.225,14.675-1.189c0,0,12.131,2.109,19.699-9.488c0,0-4.783,15.121-23.071,18.323
		c0,0-13.177,3.704-18.759,5.591c0,0-32.713,3.361-49.948,0.196c0,0-38.553-12.687-60.192-25.971c0,0-12.835-4.673-25-13.917
		l3.911-14.04l27.526,7.468L123.219,704.472z"/>
	<path fill="#673349" d="M129.295,634.104c0,0,10.086,2.964,17.675,6.062c0,0,5.703-2.48,7.447,9.529c0,0-2.442,4.953,5.828,11.178
		c0,0,10.621,10.057-0.566,6.98c0,0-10.478,1.55-2.195,9.313c0,0-1.563,11.178-6.319,8.197l-12.188-9.399l-12.298-9.483l1.263-30.62
		L129.295,634.104z"/>
	<path fill="#68465A" d="M104.615,664.923c0,0,13.985-18.367,16.295-25.56l6.409-3.88l4.481,4.69l4.057,14.402
		c0,0-15.155,27.245,7.317,8.805c0,0,6.815-4.375,5.574,7.05c0,0-3.566,13.542,10.065,12.812c0,0,31.34,43.212-7.841,28.01
		c0,0-34.853-5.104-46.349-16.988l-16.337-12.598L104.615,664.923z"/>
	<path fill="#623848" d="M106.218,668.975c0,0-8.396,18.186,9.417,19.741c0,0-3.322,9.07-19.706,9.577l-12.738-6.187
		c0,0-1.794-12.005,2.957-18.166l3.818-7.567C89.966,666.373,98.922,672.675,106.218,668.975z"/>
	<path fill="#3E2330" d="M90.897,667.781c0,0,9.556,4.616,17.009-6.833c0,0,7.539-1.674-1.688,8.026c0,0-8.831,1.287-7.064,13.427
		c0,0-1.986,15.668-7.906-6.096c0,0-5.836-7.766-7.772-4.602C83.475,671.704,86.258,662.14,90.897,667.781z"/>
	<path fill="#301A2F" d="M135.551,654.339c0,0-4.736-15.069-8.532-6.579c0,0-14.565,15.32-7.371-1.146c0,0,2.671-6.836,0.312-10.566
		c0,0,1.244-4.265,7.18-3.606C127.139,632.44,143.331,650.295,135.551,654.339z"/>
	<path fill="#87505D" d="M135.301,583.433c0,0-6.196,19.569-13.77,17.856c0,0-28.729-9.129-3.965-5.811
		c0,0,5.744,2.941,10.131-13.139L135.301,583.433z"/>
	<path fill="#23132C" d="M191.391,546.692c-3.25-2.623-7.192,3.994-7.192,3.994c-12.356-2.039-21.134,7.678-21.134,7.678
		c-26.602,26.596-23.912,53.04-23.912,53.04c-4.934,1.92-14.828,18.368-14.828,18.368c-14.979,1.209-40.85,41.933-40.85,41.933
		c-9.471,13.613-2.117,23.726-2.117,23.726c-3.878,4.804-0.652,6.477-0.652,6.477c2.771,2.235,5.092-2.428,5.092-2.428
		c5.008,2.181,19.824-1.729,19.824-1.729c16.56,0.3,33.988-42.106,33.988-42.106c2.988-8.324-6.537-22.544-6.537-22.544
		c-4.281-6.26,6.64-13.777,6.64-13.777c3.196-4.89,13.048-0.202,13.048-0.202c10.028,2.028,17.492-5.48,17.492-5.48
		c7.006-6.946,18.705-23.174,18.705-23.174c6.506-9.216,6.705-11.389,6.705-11.389c0.002-8.868-6.259-25.586-6.259-25.586
		C194.193,547.555,191.391,546.692,191.391,546.692z M133.399,643.396c9.335,12.436-11.683,38.174-11.683,38.174
		c-13.02,19.596-28.635,11.189-28.635,11.189c-12.16-1.415-5.287-16.868-5.287-16.868c8.697-23.783,32.164-39.845,32.164-39.845
		C128.662,630.471,133.399,643.396,133.399,643.396z M193.553,577.839c0.813,7.661-29.088,36.03-29.088,36.03
		c-6.826,4.987-10.236,0.836-10.236,0.836c-0.413-8.735-12.631-4.595-12.631-4.595c-1.517-3.325,0.729-11.313,0.729-11.313
		c6.125-18.858,22.288-38.015,22.288-38.015c10.494-6.931,16.503-6.279,16.503-6.279
		C193.336,555.263,193.553,577.839,193.553,577.839z"/>
	<path fill="#3D1823" d="M63.628,663.951c0,0,4.793-8,4.103-13.349c0,0,4.163-9.859,9.314-12.078c0,0,11.875-16.293,17.853-15.123
		c0,0,11.056,4.397-0.183,13.617c0,0-12.361,3.54-18.222,18.278c0,0-5.089,10.521-3.208,18.163
		C73.285,673.46,64.768,684.776,63.628,663.951z"/>
	<path fill="#6F4149" d="M139.932,571.014c0,0-7.432,26.352-13.186,17.098c0,0,2.333-17.462,6.888-24.955
		c0,0,4.79-8.689,9.143-8.087c0,0,9.555-14.643,18.233-11.389c0,0-11.647,6.839-9.313,12.078c0,0-3.726,8.134-5.523,2.622
		C146.173,558.381,137.048,565.599,139.932,571.014z"/>
	<path fill="#D5BFBC" d="M204.277,673.352c0,0,0.873-8.269,6.985-9.058c0,0-2.806-8.058,3.551-7.774c0,0-0.8-3.861,3.579-4.614
		c0,0,7.104,5.34-0.32,7.127c0,0,3.762,4.472-1.129,7.923c0,0,0.717,7.775-5.332,12.053c0,0-4.621,10.883-11.466,9.731
		c0,0-0.796,8.474-8.373,5.866c0,0-0.115-9.09,5.96-7.728C197.732,686.878,194.801,681.181,204.277,673.352z"/>
	<path fill="#23132C" d="M96.783,659.229c0,0,10.139,0.145,5.62-7.289C102.403,651.939,96.102,653.184,96.783,659.229z"/>
	<path fill="#9E757A" d="M208.451,692.623c0,0,1.746-7.619,6.05-7.845c0,0,0.034-7.184,5.261-6.823c0,0,2.594-8.12,6.107-7.919
		c0,0,1.828,1.197-0.416,5.888c0,0-6.127,12.702-14.415,18.694C211.038,694.618,204.123,699.938,208.451,692.623z"/>
	<path fill="#BC6986" d="M176.375,624.322c0,0,19.156,2.388,26.928,2.419c0,0,21.657-0.726,4.215-5.464
		C207.518,621.277,165.07,623.044,176.375,624.322z"/>
	<path fill="#C28593" d="M191.32,669.638c0,0,5.926-13.632,6.352-18.346C197.672,651.292,203.082,658.846,191.32,669.638z"/>
</g>
<g>
	<polygon fill="#A16871" points="641.429,1015.644 660.949,1033.049 656.027,1036.515 635.883,1025.279 	"/>
	<polygon fill="#CF8499" points="656.291,1033.594 651.99,1025.343 661.399,1009.152 680.111,989.887 696.065,1000.021 	"/>
	<polygon fill="#C5647B" points="709.781,968.288 671.797,995.365 649.271,1025.277 642.255,1016.964 631.75,1000.199 
		647.717,979.459 678.139,956.235 	"/>
	<path fill="#EFBABA" d="M691.644,996.703c0,0-13.854,7.434-18.269,15.587c0,0-7.752,12.918-18.922,15.972
		c0,0,1.664,6.542-5.09,2.284c0,0-10.228-8.886-1.924-6.858c0,0,2.278-0.458-1.125-6.812c0,0-3.854-24.344,3.213-31.679
		c0,0,14.184-12.458,17.537-13.401l18.117-12.122l-18.804-15.604c0,0-27.181-12.405-46.567,21.632c0,0-5.457,12.954-6.429,32.922
		c0,0-3.475,34.45,8.147,60.434c0,0,12.643,20.21,20.144,29.098c0,0,11.433,9.561,13.498,19.814c0,0,9.25,19.435,20.076,23.785
		c0,0,6.103,1.08,11.916,9.13c0,0,8.675,12.023,25.133,9.423c0,0,13.771,0.163,24.979,4.938c0,0,23.924,15.646,41.59,11.045
		c0,0,16.117,1.124,23.008-11.072c0,0,3.547-6.853,8.942-9.48l9.39-16.305l5.106-15.604l-8.853-14.619L691.644,996.703z"/>
	<path fill="#B36E7D" d="M701.522,1017.999c0,0-3.129,3.132-0.88,11.543c0,0,1.846,7.257,11.368,13.466
		c0,0,5.647,5.018,9.556,11.321c0,0,8.582,10.592,13.42,10.61l9.705-5.387l-28.328-42.298L701.522,1017.999z"/>
	<path fill="#874359" d="M682.577,980.288c0,0-18.726,8.246-28.151,32.202l0.445,4.923l25.24-27.526l9.108-5.912L682.577,980.288z"
		/>
	<path fill="#7E3050" d="M657.852,1018.037c0,0-5.886,10.666-7.7,8.858c0,0-2.021-2.055-0.153-3.912c0,0,2.187-0.903,3.093-7.68
		C653.091,1015.304,659.516,999.94,657.852,1018.037z"/>
	<path fill="#743D58" d="M668.388,1003.949c0,0,13.653-10.71,19.18-5.214l14.327-0.938l8.954-11.726l3.015-15.313l-17.947-10.872
		l-7.91,2.259l5.521,13.995l-13.416,13.747C680.111,989.887,666.387,997.991,668.388,1003.949z"/>
	<path fill="#7E284D" d="M690.541,976.925c0,0-4.891-4.444-13.386-0.709c0,0,0.904-3.119-4.815-5.707l14.026-9.434
		c0,0,15.729,9.617,12.055,14.282L690.541,976.925z"/>
	<path fill="#C68591" d="M727.832,1066.338c0,0-21.521-12.12-28.645-6.6c0,0-26.466,11.718-25.771,25.292L727.832,1066.338z"/>
	<path fill="#CD8C9A" d="M690.012,1051.773c0,0-15.613,8.759-21.173,6.577c0,0-11.118,3.004-17.231-4.602
		c0,0-18.841-13.77-3.426-7.908c0,0,4.688-0.032-1.889-8.228c0,0-12.646-10.805-11.363-17.106c0,0,1.332-6.521,6.074,3.313
		c0,0,4.24,6.822,8.717,11.88c0,0,5.797,3.585,9.15,8.48C658.871,1044.181,689.355,1046.925,690.012,1051.773z"/>
	<path fill="#D5A0A7" d="M720.635,1071.769c0,0-10.282-13.93-25.489-4.021l-18.526,15.636c0,0-10.866,4.581-12.673,16.077
		c0,0-5.056,17.819,5.565,24.585c0,0,22.313,3.14,31.025-9.791l25.944-29.596l0.136-11.722L720.635,1071.769z"/>
	<path fill="#36141E" d="M705.598,974.79c0,0-7.454-3.655-12.07,1.35c0,0-10.078,2.162-13.387,6.207c0,0,4.657,4.041,6.477,1.419
		l2.603,0.209C689.22,983.975,706.038,978.968,705.598,974.79z"/>
	<path fill="#905B5F" d="M730.008,1070.075c0,0,6.861,4.058,0.789,11.985c0,0-9.443,16.948,1.936,6.363c0,0,4.734,0.377,2.127,6.012
		l-17.716,21.144c0,0-2.725-13.89-13.446-5.976l11.482-12.306L730.008,1070.075z"/>
	<path fill="#FACCD1" d="M675.369,1084.438c0,0-1.208,17.776-2.695,23.576c0,0-8.562,14.858-3.834-17.924L675.369,1084.438z"/>
	<path fill="#FACCD1" d="M697.11,1109.45c0,0-4.007,8.226-15.538,6.778c0,0-7.572-2.126,5.318-6.854
		C686.891,1109.374,698.678,1103.585,697.11,1109.45z"/>
	<path fill="#854C5C" d="M720.712,1086.494c0,0-7.262-16.21-17.858-7.264c0,0-11.123,11.224-15.189,20.366
		c0,0-5.152,9.91,0.711,10.148c0,0,9.762,0.487,14.995-1.731C703.37,1108.014,721.021,1093.352,720.712,1086.494z"/>
	<path fill="#B28D99" d="M697.2,1106.824c0,0-8.074,1.487-7.493-4.807c0,0,13.349-18.502,19.08-18.693c0,0,11.046,1.455,8.675,8.244
		C717.462,1091.568,712.92,1105.089,697.2,1106.824z"/>
	<path fill="#6B5B78" d="M715.314,1094.521c0,0-6.066-11.812-14.842-4.181c0,0-9.025,7.342-0.692,14.309l5.13,1.819
		L715.314,1094.521z"/>
	<path fill="#463D60" d="M709.895,1096.273c0,0-1.945-6.958-6.836,0.042c0,0-2.087,2.212,1.554,4.416c0,0,0.573,4.503-7.412,6.093
		c0,0-8.521,6.772,2.905,0.533c0,0,3.729,0.264,7.58-2.986l10.881-9.184C718.566,1095.188,723.167,1089.894,709.895,1096.273z"/>
	<path fill="#683137" d="M730.008,1070.075c0,0,2.405,2.847-1.271,10.132c0,0-2.578,3.92-4.014,9.783
		c0,0,0.266,10.098-12.534,15.976l-8.505,5.634l7.854-10.479c0,0,14.96-17.171,13.136-27.478L730.008,1070.075z"/>
	<path fill="#794A61" d="M693.793,1009.846c0,0,0.503-13.24-8.738-10.351c0,0,10.781-1.673,20.868-17.614
		c0,0,8.079-11.73-4.197-11.676c0,0-9.689-8.516-27.456,0.097c0,0-9.479,0.437-14.144,5.948c0,0,13.716-13.931,8.17-20.542
		c0,0-9.667-16.39-25.201-9.661c0,0-20.604,10.028-23.284,19.653c0,0,4.354-10.549,9.758-14.619c0,0,15.548-12.802,26.464-15.04
		l20.865-0.362c0,0,25.591-3.432,46.467,6.44l22.437,13.464l36.859,32.224l-16.305,33.895l-27.619,19.628
		C738.736,1041.329,701.434,1008.079,693.793,1009.846z"/>
	<path fill="#6E425B" d="M696.826,1009.689c0,0-7.034-6.828,6.867-19.546c0,0,12.266-11.334,9.41-15.796
		c0,0,0.712-3.564,4.387,0.706c0,0-4.064,10.809-5.23,16.699c0,0,0.305,4.65,4.114,9.781L696.826,1009.689z"/>
	<path fill="#7B4558" d="M737.524,1061.656c0,0-4.438-9.421-12.615-8.656c0,0-7.811-7.621-7.618-12.582
		c0,0,2.613-10.232-3.546-15.203c0,0-12.917-3.685-12.223-7.216c0,0-9.704-15.273-16.269-0.946c0,0-2.062-8.527,9.416-9.917
		c0,0,5.441,0.762,8.925-2.67c0,0,11.951-9.106,17.134-2.676l19.131,43.504L737.524,1061.656z"/>
	<path fill="#905C73" d="M743.268,1016.627c0,0-17.582-5.769-14.655-21.493c0,0-10.787-20.353,11.058-14.244
		c0,0,27.298,2.619,27.012,18.017l-7.465,16.546l-7.806,10.18L743.268,1016.627z"/>
	<path fill="#7E5C65" d="M832.313,1110.779c0,0-9.711,37.251-23.837,34.936c0,0-18.506-4.018-0.884-20.367
		c-0.002,0,15.901-3.389,6.25-15.615c-0.362-0.461-0.759-0.932-1.199-1.415c-12.065-13.384-17.865-1.613-15.728-14.219
		c0,0,6.908-15.648-10.405-12.327c0,0-10.336-9.934-25.793-0.322c0,0-19.706-0.047-17.775-7.085c0,0-8.46-7.463-4.856-12.042
		l38.572-17.172l36.914,0.032L832.313,1110.779z"/>
	<path fill="#4F293B" d="M816.689,1064.153c0,0,1.75-16.695-11.967-5.608c0,0-32.503,16.17-39.943,14.335
		c0,0-15.054,5.433-13.502-1.453c0,0,7.699-5.924-2.933-5.222c0,0-7.337-1.866-8.007-5.783l11.082-13.733l26.729-21.911
		l25.389-12.236l13.912,18.372c0,0,8.916,27.039,8.249,37.911c0,0,7.388,16.348,7.096,22.978c0,0,1.544,16.37-2.102,24.849
		c0,0-1.799,1.519-1.878-9.706c0,0-4.422-29.165-9.089-30.624C819.726,1076.32,812.062,1073.949,816.689,1064.153z"/>
	<path fill="#8F6B6F" d="M785.863,1040.094c0,0-8.128,12.793-20.549,15.389c0,0-4.991-0.025,2.543-5.666
		C767.857,1049.816,783.109,1041.8,785.863,1040.094z"/>
	<path fill="#624558" d="M788.346,1004.367c0,0-7.2-17.963-28.934,0.497l-24.691,27.46l0.15,12.268l9.201,8.297l17.822-7.856
		l28.027-30.196L788.346,1004.367z"/>
	<path fill="#75667B" d="M789.465,1028.947c0,0-26.549,23.899-33.193,23.488l-3.238-9.177c0,0,13.66-19.877,30.104-25.411
		C783.137,1017.848,797.062,1022.534,789.465,1028.947z"/>
	<path fill="#422D3B" d="M762.036,1048.358c0,0-5.001-1.604-6.261-7.415c0,0-7.619,6.428-11.193,3.064c0,0-6.895-4.301-7.27-10.068
		c0,0-1.971,12.207,1.181,18.271c0,0,6.728,5.644,12.158,3.933l12.205-4.736L762.036,1048.358z"/>
	<path fill="#522C3D" d="M784.919,1003.089c0,0,1.047,6.477-11.522,16.596c0,0-12.586,13.593-19.176,12.762
		c0,0-10.197-1.027-6.431,5.762c0,0,5.692,14.308,9.866,6.456c0,0,0.625-6.819,10.804-15.411c0,0,9.033-7.586,15.93-3.208
		l7.185,4.106l10.332-8.721l-4.395-13.647L784.919,1003.089z"/>
	<path fill="#281318" d="M785.441,1035.702c0,0-0.422-9.807-3.988-11.125c0,0,4.626-3.823,10.36,2.388l5.538-8.561l3.67-12.935
		c0,0,15.066,19.426,18.402,30.355c0,0,5.321,28.064-8.691,0.757l-6.021,5.083c0,0,4.713-22.919-8.146-12.562
		c0,0-5.451,9.018-11.211,15.104C785.354,1044.208,793.094,1034.14,785.441,1035.702z"/>
	<path fill="#46223C" d="M768.877,1046.323c0,0-6.417-4.11-3.897-10.433c0,0,8.911-12.707,18.807-2.151L768.877,1046.323z"/>
	<path fill="#363659" d="M781.868,1035.358c0,0-7.843-10.272-15.163,3.739c0,0-1.341,3.066,2.172,7.226L781.868,1035.358z"/>
	<path fill="#4F2A3C" d="M784.652,1013.248c0,0-5.609-23.883-19.219-13.466c0,0-4.605-7.785,2.014-16.807
		c0,0,4.302-3.63-11.858-14.051c0,0-45.329-37.838-69.554-31.138c0,0-32.5-2.518-41.737,2.826c0,0,11.738-7.455,37.381-7.986
		c0,0,8.212,0.926,13.304,0.555c0,0,32.822,2.244,54.923,17.958c0,0,10.63,9.685,15.712,15.706c0,0,3.961,3.53,10.432,8.868
		c0,0,17.491,10.83,20.681,20.135c0,0,11.829,23.616,6.999,27.2C803.729,1023.049,788.537,1018.43,784.652,1013.248z"/>
	<path fill="#61283C" d="M720.729,1001.79c0,0,7.784,11.837-1.436,12.257c0,0-15.366-2.499-2.257,7.795c0,0,8.308,5.479,3.181,14.24
		c0,0-2.16,8.841,9.808,11.618c0,0,7.319,3.461,6.782,11.974l5.381-4.543c0,0-7.497-11.471-5.471-20.44l14.581-19.578
		c0,0-4.816-6.369-12.587,5.361c0,0-9.82,7.564-8.449-3.902C730.262,1016.571,733.256,1000.052,720.729,1001.79z"/>
	<path fill="#23132C" d="M659.798,1128.401c2.709,3.358,8.134-2.465,8.134-2.465c12.032,4.758,23.016-3.139,23.016-3.139
		c32.67-21.05,35.722-48.343,35.722-48.343c5.401-0.86,18.981-15.309,18.981-15.309c15.391,2.045,50.402-33.43,50.402-33.43
		c12.535-11.678,7.315-23.495,7.315-23.495c4.965-4.003,2.072-6.396,2.072-6.396c-2.31-2.864-5.669,1.342-5.669,1.342
		c-4.584-3.295-20.398-2.582-20.398-2.582c-16.656-3.918-43.511,35.099-43.511,35.099c-4.832,7.755,1.68,24.192,1.68,24.192
		c2.961,7.255-9.71,12.462-9.71,12.462c-4.294,4.239-13.218-2.643-13.218-2.643c-9.684-4.237-18.861,1.717-18.861,1.717
		c-8.59,5.485-23.946,19.316-23.946,19.316c-8.58,7.89-9.257,10.039-9.257,10.039c-1.935,8.955,0.737,27.206,0.737,27.206
		C657.156,1126.917,659.798,1128.401,659.798,1128.401z M739.463,1043.404c-6.715-14.592,20.128-35.996,20.128-35.996
		c17.421-16.944,31.356-5.049,31.356-5.049c11.97,4.083,1.656,18.188,1.656,18.188c-13.972,22.117-41.175,33.213-41.175,33.213
		C741.424,1057.492,739.463,1043.404,739.463,1043.404z M664.414,1096.478c0.848-7.913,37.232-30.034,37.232-30.034
		c7.984-3.545,10.52,1.39,10.52,1.39c-1.488,8.911,11.752,7.396,11.752,7.396c0.808,3.688-3.206,11.265-3.206,11.265
		c-10.3,17.709-30.802,33.522-30.802,33.522c-12.111,4.709-18.036,2.741-18.036,2.741
		C659.703,1119.322,664.414,1096.478,664.414,1096.478z"/>
	<path fill="#211016" d="M813.887,1035.353c-1.363,5.104-5.143,9.121-6.004,14.141c0,0.004-1.578,9.183-11.756,9.923
		c0,0-8.574,3.801-13.115,7.144c0,0-7.664,4.505-13.252,1.855c0,0-8.98-0.274,4.863-6.559c0,0,16.021-3.704,22.774-14.314
		c0,0,7.173-8.368,10.692-15.828c0.799-1.687,0.935-8.916,3.147-9.368c4.665-0.948,3.321,8.913,3.026,11.134
		C814.18,1034.123,814.052,1034.745,813.887,1035.353z"/>
	<path fill="#232249" d="M777.245,1034.602c0,0-5.243-2.446-7.237,2.672c0,0-0.701,4.488,3.139,3.719
		C773.146,1040.992,779.697,1040.882,777.245,1034.602z"/>
	<path fill="#7D5A69" d="M772.353,1006.817c0,0,6.14,4.138-5.997,14.884c0,0-8.529,12.111-13.086,6.135
		c0,0-5.193-3.108-0.443-10.916C752.826,1016.92,772.572,998.356,772.353,1006.817z"/>
	<path fill="#87646D" d="M798.33,1042.826c0,0-2.5-8.195-15.039,3.124c0,0-8.532,10.25-17.678,13.377c0,0-1.17,3.864,13.068-1.388
		C778.682,1057.939,791.146,1053.518,798.33,1042.826z"/>
	<path fill="#84606C" d="M721.409,967.826c0,0-13.429-3.885-21.294-10.992c0,0-12.74-18.702,3.568-6.94c0,0,13.801,9.954,19,11.456
		C722.684,961.35,732.786,969.514,721.409,967.826z"/>
	<path fill="#6F4153" d="M739.599,1091.907c0,0-7.995,19.025-21.231,30.688c0,0-2.651,6.166-13.01,9.018
		c0,0-10.764,4.695-15.982,4.912c0,0-2.867-2.231,8.028-6.776c0,0,7.278,1.063,13.843-9.192c0,0,10.647-21.122,16.535-22.873
		C727.781,1097.684,740.717,1078.692,739.599,1091.907z"/>
	<path fill="#B1868B" d="M664.547,1009.933c2.91-6.114,7.871-10.683,13.523-14.337c2.075-2.147,4.129-4.281,5.988-6.224
		c3.8-1.264,9.349-3.508,9.461-5.859c0,0,2.378-2.174-4.206-2.347c-8.088-0.331-7.099,3.787-7.099,3.787
		c-7.205,0.19-9.699,5.978-9.699,5.978c-12.372,4.551-10.084,10.722-10.084,10.722c-6.249,3.066-3.252,10.108-3.252,10.108
		c-7.363-2.621-1.328,6.276-1.328,6.276C659.951,1015.283,662.32,1012.466,664.547,1009.933z"/>
	<path fill="#B77281" d="M684.248,1052.218c0,0-8.446,5.167-15.738,1.011c0,0-4.169-1.39-12.052-3.573
		C656.458,1049.655,681.954,1046.298,684.248,1052.218z"/>
</g>
<g>
	<polygon fill="#5C5780" points="327.277,1122.02 332.822,1105.382 302.919,1077.523 286.203,1099.322 311.755,1122.085 	"/>
	<polygon fill="#B95978" points="351.47,1012.151 359.881,992.153 317.697,966.565 303.662,987.463 	"/>
	<path fill="#642943" d="M334.099,1012.561l5.765-8.582l12.146,3.106l0.711-6.799c0,0,1.832-7.211-7.369-13.534l8.717-0.577
		l22.489,23.131l-10.843,16.143l-21.945,1.308l-15.116,2.888L334.099,1012.561z"/>
	<path fill="#882C51" d="M329.947,996.956c0,0,7.388-0.249,15.563,5.896c0,0,6.22,3.397,6.825-0.713c0,0,1.872-5.067-1.983-10.434
		c0,0,14.894,20.782,8.888,20.367L329.947,996.956z"/>
	<path fill="#CA8095" d="M295.277,972.3l11.984,5.229l11.621,12.736c0,0,11.975,4.337,18.408,11.623c0,0,18.986,14.395,9.296,17.21
		l-7.886,2.062l-40.758-25.184L295.277,972.3z"/>
	<path fill="#AF526B" d="M332.332,1001.954c0,0,0.729-5.258-8.471-8.346c0,0-10.934-0.038-16.764-11.26c0,0-7.998,3.233-7.37-1.702
		l4.87-11.684l5.284,4.663c0,0-0.571,8.099,5.398,12.107c0,0,13.627,8.113,17.003,10.181c0,0,11.205,10.874,15.535,11.673
		c0,0-1.812,8.253-8.473,6.138C339.346,1013.725,330.953,1011.426,332.332,1001.954z"/>
	<path fill="#ECA6AE" d="M207.158,1033.84c4.529,6.804-7.766,27.844-7.766,27.844c-6.396,9.479,2.352,20.208,2.352,20.208
		c10.043,8.913-0.141,57.521-0.141,57.521c-4.689,18.509,10.356,24.032,10.356,24.032c10.099-0.831,14.046,4.133,14.046,4.133
		c-3.208,10.488,26.484,16.493,26.484,16.493l15.473-13.085l30.785-51.099l8.143-13.511c-1.463-0.25-2.871-0.928-4.122-2.197
		c-1.485-1.506-1.863-3.25-1.769-5.091c-3.205,0.276-6.523-1.747-6.139-5.523c0.258-2.521,0.988-4.944,1.125-7.477
		c0.346-6.562,9.914-6.319,10.72-0.473c2.975-0.369,5.161,1.524,6.025,4.277c0.206,0.662,0.292,1.35,0.312,2.048
		c0.898-0.403,1.815-0.439,2.68-0.224l29.596-49.125l-2.457-25.102c-4.713-2.064-10.177-5.882-10.177-5.882
		c-3.761-6.213-11.825-10.303-11.825-10.303c-11.406-4.931-16.654-20.9-16.654-20.9c-3.676-9.894,7.536-0.367,7.536-0.367
		c5.523-1.775,14.134-0.184,14.134-0.184c10.67,1.1,16.342,6.116,16.342,6.116l6.965,1.74l9.221-2.904l10.094-16.18l-14.985-19.163
		c-5.67-2.51-23.682-7.21-23.682-7.21c-20.19-5.296-60.124,19.748-60.124,19.748c-16.96,8.48-47.18,51.54-47.18,51.54
		C209.705,1028.76,207.158,1033.84,207.158,1033.84z"/>
	<path fill="#7C698E" d="M248.239,1063.731c0,0-5.526,5.386-10.168,5.304l16.739,11.243c0,0,15.873-3.634,16.776-5.627
		c0,0-8.64-10.568-6.228-16.311c2.413-5.745,0.07-2.273,0.07-2.273L248.239,1063.731z"/>
	<path fill="#7F5981" d="M258.571,1068.337c0,0-2.263-1.004,4.06,0.3c0,0,8.458,1.812-0.021-3.579c0,0-1.681-2.273,1.728-3.476
		c0,0,13.827-1.881-5.764-10.121c0,0-31.7-19.249-24.929-5.465L258.571,1068.337z"/>
	<path fill="#8F79A4" d="M235.892,1047.873c0,0,22.665,8.466,19.944,18.625C253.114,1076.661,234.502,1051.938,235.892,1047.873z"/>
	<path fill="#514C7D" d="M251.92,1064.499c0,0,3.262-4.767-2.311-8.728c0,0-5.027-5.409-9.451-1.404c0,0-2.089-0.496-2.584-4.727
		c0,0-6.551-7.472-5.383-2.117c0,0,5.088,11.658,9.536,16.058c0,0,9.323,8.105,15.415,6.131c0,0,5.943-4.871-1.307-3.214
		C255.836,1066.498,253.054,1067.884,251.92,1064.499z"/>
	
		<ellipse transform="matrix(-0.7779 -0.6284 0.6284 -0.7779 -228.8 2037.4453)" fill="#291F46" cx="245.645" cy="1059.155" rx="5.652" ry="3.511"/>
	<path fill="#41446B" d="M322.818,1113.824c0,0,4.99-8.645-4.26-12.323c0,0-4.207-3.657-7.94,0.713c0,0-6.279-5.386,0.091-8.09
		l-1.867-7.013c0,0-7.24,3.594-5.058,10.514l-1.063,6.924l18.918,17.483L322.818,1113.824z"/>
	<path fill="#291F46" d="M310.35,1102.613c1.082-1.609,4.192-1.416,6.951,0.438c2.754,1.85,4.111,4.654,3.029,6.266
		c-1.081,1.609-4.191,1.415-6.947-0.437C310.625,1107.029,309.269,1104.225,310.35,1102.613z"/>
	<path fill="#291F46" d="M323.852,1118.74c0,0,5.638-11.696,4.625-16.277l9.9,9.48l-4.527,13.512L323.852,1118.74z"/>
	<path fill="#D39299" d="M280.914,1078.509c0,0-0.928-9.912,0.89-16.488c0,0,5.974-14.054-5.932-24.063
		c0,0-14.25-11.096-3.421,1.866c0,0,5.014,1.046,3.293,12.063c0,0,2.079,12.289-2.141,16.552l-0.443,7.27
		C273.16,1075.708,278.273,1082.121,280.914,1078.509z"/>
	<path fill="#8F576A" d="M312.443,1022.818c0,0,6.123-2.375,19.292,1.693l14.577,9.792l-11.891,6.416
		C334.422,1040.72,322.199,1023.696,312.443,1022.818z"/>
	<path fill="#7E4D52" d="M235.509,1077.412c0,0,11.714,0.622,8.008-6.762c0,0,25.776,4.863,20.214,12.488
		c0,0-5.855,2.254,0.725,4.711c0,0,3.82,4.632-0.36,10.855c0,0-10.339,13.803-8.482,3.129c0,0,5.157-4.559-6.125-10.405
		c0,0-14.292-0.979-17.625-9.235L235.509,1077.412z"/>
	<path fill="#915E6D" d="M287.475,1085.323c0,0-1.199,2.938-7.43,5.112c0,0-3.854,3.56-4.559,9.794c0,0-11.99,13.605,0.741,10.894
		c0,0,8.268-0.945,6.915,5.945c0,0-9.699,6.48-9.759,19.438c0,0,11.159,9.227-4.613,23.323c0,0-7.37,14.544-20.649,14.291
		c0,0-12.504,16.294,28.3,7.961l9.579-9.811l22.711-16.803l16.305-13.311L287.475,1085.323z"/>
	<path fill="#532F44" d="M289.831,1086.904c0,0-3.374,7.949-7.408,9.877c0,0-16.88,12.654-1.343,10.168c0,0,4.987,1.512,7.877,1.461
		l10.288,10.737l11.819,15.807l7.39,2.797c0,0,5.376,4.912-6.215,9.257c0,0-9.229,5.5-19.823,15.709
		c0,0-11.099,12.041-21.583,15.828c0,0-6.358,11.326,15.696-1.586c0,0,13.109-6.793,16.936-11.154c0,0,4.114-5.424,12.207-7.156
		c0,0,14.441-7.145,22.021-13.679c0,0,11.606-10.562,16.212-12.93l-2.311-7.768l-12.809,0.308c0,0-8.973-1.015-16.758-5.947
		c0,0-27.103-18.148-27.904-25.551L289.831,1086.904z"/>
	<path fill="#8C6372" d="M300.005,1108.592c-5.562-1.115,3.097,7.5,3.097,7.5c6.957,15.187,15.307,13.4,15.307,13.4
		c4.078,0.822,4.784-2.475,4.582-5.65l5.564-4.969c0,0-19.38-11.178-21.996-18.569c0,0-4.635-4.972-6.679-3.246L300.005,1108.592z"
		/>
	<path fill="#9C6276" d="M315.328,942.446c0,0,35.775-2.352,48.059,7.151l8.894,18.516l-1.534,32.78l-10.421-1.536
		c0,0-19.946-16.163-31.228-20.974c0,0-11.171-8.2,1.525-2.271c0,0,14.878,13.46,19.332,6.92c0,0-8.47-9.157,1.041-10.132
		c0,0,5.228-1.688,2.456-7.884c0,0,0.203-1.592,2.904-3.678c0,0,1.311-3.887-3.961-8.29
		C352.396,953.049,334.688,939.422,315.328,942.446z"/>
	<path fill="#4E3040" d="M334.741,1113.504c0,0-16.073-16.075-24.032-19.38c0,0-5.828-2.168-7.73-6.591l-0.065-10.562l5.995-7.576
		l26.557,5.303l31.736,10.456l2.358,9.691l-10.477,22.389l-5.998,12.154c0,0-20.237-2.107-25.808-7.369
		C327.277,1122.02,334.577,1118.924,334.741,1113.504z"/>
	<path fill="#704E5C" d="M365.799,1087.244c0,0-7.502,12.021-21.479,11.998c0,0-29.133,0.98-22.852-13.181
		c0,0-0.173-2.438,7.685-5.312l16.438-15.742l14.598-3.19L365.799,1087.244z"/>
	<path fill="#3A293C" d="M310.41,1076.47c0,0-2.354,4.914,1.038,6.759c0,0,12.784,14.588,0.244,7.962c0,0-9.41-6.493-11.886-1.151
		c0,0-2.622,4.878,3.439,13.729c0,0-14.112-12.34-9.927-18.087L310.41,1076.47z"/>
	<path fill="#3E1E2E" d="M327.328,1119.944c0,0,12.423-9.474,1.148-17.481c0,0-17.849-11.121-1.015-4.578
		c0,0,11.644,3.947,10.915,14.059c0,0,0.375,5.244,5.373,3.61c0,0,2.94,4.026,0.226,10.243l-5.19-1.217
		c0,0-0.052-10.643-6.494-2.313L327.328,1119.944z"/>
	<path fill="#673A4C" d="M366.049,1019.583c0,0,7.513-4.527-2.886-16.779c0,0-4.072-5.403-9.773-10.532
		c0,0,19.653,8.434,15.106-12.384c0,0,2.093-9.421-6.281-11.146c0,0-1.684-3.296-0.077-6.982c0,0,3.757-10.104-2.924-14.991
		c0,0,13.463,8.911,16.456,12.332l9.809,22.232l9.513,27.617l2.501,16.912l-4.426,20.782l-19.697,14.493l-14.467-3.976
		l-23.951-8.925l-3.398-13.346l4.86-7.236L366.049,1019.583z"/>
	<path fill="#6B4A57" d="M378.714,1048.034c0,0,18.086-33.105,2.954-61.028c0,0-2.877,1.533-3.715,14.4
		c0,0,2.405,24.573-22.795,16.743c0,0-18.348-4.99-20.406,1.872c-2.06,6.867-1.145,0.551-1.145,0.551s-3.471,14.562,12.705,13.731
		c0,0,10.35,1.335,14.702,8.142l2.665,12.479l8.107,3.421L378.714,1048.034z"/>
	<path fill="#C58291" d="M281.736,1081.468c0,0,13.523-16.91,17.443-25.973c0,0,1.947-15.15,10.025-14.925
		c0,0,10.991,1.619,15.332-6.489l4.684,6.934l-20.678,28.137l-17.253,18.734L281.736,1081.468z"/>
	<path fill="#815265" d="M348.17,1041.614c0,0,24.266,1.561,28.119-17.723c0,0,5.831-26.733,3.392,7.209
		c0,0-0.451,16.796-16.001,23.823l-17.611-2.159L348.17,1041.614z"/>
	<path fill="#6D425B" d="M333.91,1082.398c0,0,6.665,1.767,13.364-3.695c0,0,8.216-10.943,14.847,4.34c0,0,4.453,8.85,0.487,17.334
		l4.772,4.501l20.949-44.087l5.463-22.323c0,0-17.854,17.551-33.264,8.889c0,0-15.624-14.219-26.107-6.637l-26.857,32.54
		L333.91,1082.398z"/>
	<path fill="#6B324E" d="M326.522,1032.275c0,0,10.101-8.999,10.426,4.682C336.948,1036.957,329.613,1042.58,326.522,1032.275z"/>
	<path fill="#804D5B" d="M291.203,1083.71c0,0,9.095-22.134,13.029-26.704c0,0,19.256-8.257,18.475-20.202
		c0,0,3.205-10.141-8.158-12.572c0,0-4.185-1.51-7.08-0.424c0,0,7.084-5.036,19.114,7.226c0,0,4.688,4.99,10.365,5.924
		c0,0,8.255,6.133,3.35,11.501c0,0-5.829,7.398-14.36,6.816l-12.958,9.923l-17.995,21.052L291.203,1083.71z"/>
	<path fill="#361634" d="M335.759,1083.326c0,0,16.061,7.959,25.017,13.974c0,0,3.271,6.096,11.092-5.546
		c0,0,7.243-18.526,12.564-28.384c0,0,15.371-32.561,2.913-64.322c0,0-6.456-36.823-19.189-46.246c0,0,12.245,6.926,19.859,25.902
		c0,0,4.455,9.491,6.727,15.782c0,0,11.088,25.42-0.349,58.569c0,0-17.146,42.814-24.479,55.147c0,0-6.109,7.264-10.225,15.224
		l-0.771-7.88c0,0,2.948-7.986-10.106-20.104L335.759,1083.326z"/>
	<path fill="#5D283F" d="M322.007,1077.148c0,0,12.933-7.166,1.276-11.096c0,0-5.537-2.166,2.517-5.413
		c0.452-0.182,0.949-0.367,1.493-0.558c10.187-3.556,14.777-5.236,13.005-11.624c0,0-6.505,6.462-14.673,3.14
		c0,0-16.51,4.588-21.608,13.469c0,0-9.268,11.969-10.448,17.545l16.842-6.142L322.007,1077.148z"/>
	<path fill="#23132C" d="M204.413,1030.582c-2.385,3.385,4.413,6.852,4.413,6.852c-1.217,12.34,8.952,20.384,8.952,20.384
		c28.004,24.563,53.958,20.194,53.958,20.194c2.218,4.749,19.109,13.457,19.109,13.457c2.168,14.723,44.081,37.65,44.081,37.65
		c14.063,8.476,23.581,0.557,23.581,0.557c4.998,3.52,6.439,0.226,6.439,0.226c2.033-2.886-2.727-4.874-2.727-4.874
		c1.83-5.094-2.991-19.477-2.991-19.477c-0.778-16.383-43.808-30.861-43.808-30.861c-8.42-2.41-21.854,7.922-21.854,7.922
		c-5.906,4.637-14.043-5.667-14.043-5.667c-5.035-2.843-1.045-12.88-1.045-12.88c1.355-10.041-6.549-16.929-6.549-16.929
		c-7.316-6.475-24.108-16.982-24.108-16.982c-9.528-5.831-11.688-5.888-11.688-5.888c-8.763,0.573-24.878,7.841-24.878,7.841
		C205.084,1027.756,204.413,1030.582,204.413,1030.582z M303.723,1081.622c11.682-10.028,38.477,9.073,38.477,9.073
		c20.207,11.593,12.914,27.568,12.914,27.568c-0.614,12.107-16.328,6.316-16.328,6.316c-24.064-7.053-41.455-29.201-41.455-29.201
		C291.256,1087.139,303.723,1081.622,303.723,1081.622z M235.049,1026.434c7.516-1.306,37.484,26.404,37.484,26.404
		c5.373,6.427,1.491,10.062,1.491,10.062c-8.605,0.972-3.724,12.776-3.724,12.776c-3.188,1.717-11.227,0.013-11.227,0.013
		c-19.029-4.83-39.005-19.562-39.005-19.562c-7.529-9.919-7.276-15.899-7.276-15.899
		C212.755,1028.105,235.049,1026.434,235.049,1026.434z"/>
	<path fill="#481C2B" d="M345.847,1008.108c0,0,9.261,4.593,12.398,5.726c0,0,14.28,5.743,8.986-0.599c0,0-0.252-0.593-0.728-1.578
		c-1.409,0.816-3.101,0.951-4.588,0.42c-0.722,0.173-2.585-0.384-6.592-2.478c0,0-8.998-3.01-14.567-7.62
		c0,0-6.507-5.789-10.52-6.909C330.237,995.07,342.559,1007.197,345.847,1008.108z"/>
	<path fill="#603B49" d="M356.642,1023.479c0,0,9.656,5.618,14.468-1.546c0,0,6.291-2.271-1.32,6.477c0,0-9.989,4.556-18.16,2.533
		c0,0-13.375,3.145-5.374-3.61c0,0,6.012-7.658-5.272-4.406c0,0-4.594,1.682-8.29,3.963c0,0-9.583,0.494,0.915-6.316
		c0,0,9.761-5.144,16.104-2.615C349.711,1017.957,350.426,1021.458,356.642,1023.479z"/>
	<path fill="#724152" d="M332.316,1048.729c0,0-4.793,1.979-2.179-4.496c0,0-0.365-9.775,4.411-6.567
		C334.549,1037.666,345.489,1047.178,332.316,1048.729z"/>
	<path fill="#C37888" d="M310.542,1019.233c0,0-6.464,4.465-10.845,1.955c0,0-3.176-4.301-5.872-3.512
		C293.825,1017.677,306.533,1014.232,310.542,1019.233z"/>
	<path fill="#241216" d="M307.324,1124.211c0,0-4.818-6.011-12.299-13.546c0,0-14.779-11.572-7.672,0.135
		c0,0,6.819-0.186,3.62,5.897c0,0,3.802,9.051,10.907,13.39c0,0,2.902,0.215,4.745,4.92c0,0,3.144,7.308,9.422,6.329
		c0,0,5.284-0.784,8.968,0.822c0,0,7.972,2.322,11.669,0.043c0,0,15.819-6.787-5.741-7.582c0,0-11.276,1.468-18.115-5.277
		C312.828,1129.342,311.26,1128.83,307.324,1124.211z"/>
	<path fill="#683146" d="M258.621,1086.215c0,0-11.416-8.155-21.123-8.539c0,0-12.085-4.581-17.459-8.189
		c0,0,0.269-3.61,4.501-3.476c0,0-5.178-2.61-10.449-7.017c0,0-9.86-13.698-8.835-2.974c0,0,6.412,11.741,12.578,16.75
		c0,0,8.396,13.942,14.028,9.423C231.862,1082.193,250.254,1094.122,258.621,1086.215z"/>
	<path fill="#C78D98" d="M332.685,1011.609c0,0-0.019-5.321-8.149-5.473c0,0-9.891,3.832,0.301,5.711
		C324.836,1011.848,328.473,1021.895,332.685,1011.609z"/>
	<path fill="#DD98A6" d="M291.27,1018.9c0,0-4.101-8.729-2.98-14.909c0,0,0.466-15.357,2.51-17.844c0,0,1.316-24.616-8.637-0.771
		c0,0,0.719,4.739-3.863,12.201c0,0-10.359,10.72-0.211,16.347c0,0,7.062,3.123,9.923,12.411c0,0,0.428,20.646,5.345,12.684
		C293.355,1039.02,289.088,1028.602,291.27,1018.9z"/>
	<path fill="#5C6593" d="M245.498,1061.892c0,0-4.879-4.816-2.382-4.751C243.116,1057.141,250.094,1060.216,245.498,1061.892z"/>
</g>
<g>
	<polygon fill="#D991A6" points="492.395,418.603 496.862,436.886 525.101,440.02 559.217,443.199 569.328,418.842 560.563,407.576 
			"/>
	<path fill="#BA5B80" d="M500.72,430.082c0,0,7.309-5.593,15.69,0c0,0,13.33,2.421,21.864,2.94l23.112-4.566l2.166,11.563
		l-14.506,20.873l-37.056,12.129l-33.789-6.048l13.22-31.465L500.72,430.082z"/>
	<path fill="#703B58" d="M505.707,422.748c0,0-6.179,12.352,2.881,15.307l-26.575,1.964l-19.14-1.964l9.098-21.161L505.707,422.748z
		"/>
	<path fill="#812F50" d="M551.791,427.849l8.772-7.004l2.989,9.972c0,0-7.138-4.715-10.338,2.206c0,0-8.573,7.885-12.805,9.408
		c0,0-16.656,8.671-28.419,5.83c0,0-9.859-0.929-14.193,0c0,0-1.914,4.486,5.054,6.976c0,0,1.657,7.115,5.736,10.315l-20.225-6.662
		l-16.112-19.739c0,0,1.908-7.198,10.54-6.128l25.473,6.998l27.522-1.964L551.791,427.849z"/>
	<path fill="#231218" d="M491.422,434.091c0,0-6.143-0.164-8.631-1.069c0,0-8.13,0.683-0.778,2.486c0,0,5.661,8.944,12.535,9.769
		c0,0,5.355-1.269,2.314-5.258L491.422,434.091z"/>
	<path fill="#E1AFB0" d="M539.706,254.908c0,0,3.549,6.132,12.085,15.379c0,0,23.475,39.123,29.52,35.213
		c0,0,11.383,11.023,12.806,18.138c0,0,0.713,21.963,4.624,27.699c0,0,1.777,18.241,1.424,27.992c0,0,3.912,45.706-3.202,53.693
		c0,0-19.605,35.019-29.899,43.2c0,0-20.668,20.1-27.364,22.999l-14.598-3.793l-11.011-20.274l5.986-11.505
		c0,0,15.304-0.23,23.865-10.19c0,0,12.591-20.433,16.622-23.376l6.499-2.253l-2.031-6.984l-5.814,3.804
		c0,0,1.847-1.324-9.547,0.759c0,0-16.137-3.272-29.594-0.594l-19.356-10.356l-13.287-51.362l9.43-52.261l17.585-55.927H539.706z"/>
	<path fill="#935F6A" d="M520.076,350.669c0,0,2.195-8.836,7.886-11.176c0,0,12.08-1.434,5.296-6.238l15.789-5.879
		c0,0,3.218,5.182,11.517,5.879c0,0,7.222-0.637,11.327,4.481l-22.844,8.091l-10.416-3.341c0,0-12.991,5.021-15.221,9.795
		L520.076,350.669z"/>
	<path fill="#592E3E" d="M535.786,343.635c0,0,3.899-9.655,15.821-10.379c0,0,5.924,4.352,11.945,4.481L535.786,343.635z"/>
	<path fill="#B7818C" d="M508.588,328.973l36.803-3.49l9.865-5.399c0,0-30.556,1.774-24.124-9.607c0,0-2.667-9.083-7.722-12.366
		c0,0-18.902-6.485-7-22.135c0,0,12.711-21.338,26.005-16.359c0,0-5.204-12.683-15.164-11.32c0,0-12.404,2.361-18.987,1.317
		l-16.842,5.023l-18.111,8.038l-8.336,21.127l3.363,39.028l14.645,15.795l15.104,0.635L508.588,328.973z"/>
	<path fill="#B87089" d="M531.163,372.187c0,0-1.579,7.647,17.884,8.004c0,0,10-3.219,11.517,2.653c0,0,10.79,6.95,9.011,1.615
		c0,0-5.462-7.369,2.508-8.276C572.082,376.182,532.844,373.479,531.163,372.187z"/>
	<path fill="#7B527A" d="M539.706,341.439c0,0-8.172,9.824,0,11.661c0,0-10.677,2.023-1.432,6.02c0,0,13.161,9.614,16.008,6.451
		c0,0,1.423-4.045-2.491-6.451c0,0-3.505-2.244,5.361-3.036c0,0,13.489-3.792,17.758-7.271c0,0,2.468-7.776,0-10.061
		C574.91,338.752,557.497,336.833,539.706,341.439z"/>
	<path fill="#ADA6C8" d="M567.062,338.752c0,0,8.203,5.16,3.224,8.36c0,0-10.824,5.346-21.239,4.273c0,0-10.465-1.298-5.105-8.833
		C543.941,342.553,556.593,337.799,567.062,338.752z"/>
	<path fill="#5E5680" d="M549.047,341.138c0,0-4.524,7.398,0,9.532c0,0,8.484,2.694,14.506-2.745c0,0,3.325-4.515,0-7.977
		C563.553,339.947,558.751,336.586,549.047,341.138z"/>
	<path fill="#495187" d="M560.563,344.975c0,2.121-1.963,3.838-4.384,3.838c-2.426,0-4.389-1.718-4.389-3.838
		c0-2.12,1.963-3.837,4.389-3.837C558.601,341.138,560.563,342.855,560.563,344.975z"/>
	<ellipse fill="#7A86AD" cx="561.385" cy="343.635" rx="2.168" ry="2.193"/>
	<path fill="#9F6B80" d="M496.862,461.019c0,0,11.683,5.243,26.548,2.042c0,0,8.742-1.595,9.848-2.042
		c1.105-0.448-1.105,0.447-1.105,0.447s-12.016,14.043-3.835,19.734c0,0,4.455,13.406,9.957,14.227c0,0-12.426,9.959-29.687,4.269
		l-14.04-29.167L496.862,461.019z"/>
	<path fill="#BA7585" d="M527.606,416.895c0,0-5.691,6.906,3.557,3.95c0,0-9.944,6.173-22.575,4.16l-7.868-6.163l2.132-4.384h5.736
		C508.588,414.458,520.492,424.079,527.606,416.895z"/>
	<polygon fill="#887C93" points="453.812,339.304 489.826,339.26 491.422,365.672 452.521,366.94 	"/>
	<path fill="#4E4C70" d="M482.791,346.045c0,0,5.684,7.992,0.547,13.075l13.524,1.069v-13.077l-9.43-7.619L482.791,346.045z"/>
	<ellipse fill="#442D4A" cx="472.251" cy="351.385" rx="7.825" ry="6.533"/>
	<path fill="#2A2558" d="M469.987,350.669c0,1.964,1.485,3.556,3.323,3.556c1.833,0,3.321-1.591,3.321-3.556
		s-1.488-3.557-3.321-3.557C471.473,347.112,469.987,348.705,469.987,350.669z"/>
	<ellipse fill="#665F7D" cx="476.633" cy="348.813" rx="2.377" ry="1.701"/>
	<path fill="#925C69" d="M540.41,331.055c0,0-19.562,8.13-16.718,0c0,0,10.21-12.338,32.31-10.845L540.41,331.055z"/>
	<path fill="#CF8391" d="M491.422,329.122c0,0,13.492-0.013,20.569-3.638c0,0,8.501,1.978,4.231,6.468c0,0-5.426,3.421,1.2,4.312
		c0,0,6.221,3.376,0,4.801c0,0-7.493,8.174-2.266,11.736c0,0,3.558,9.25,2.133,13.518c0,0-0.118,13.537,2.786,15.659
		c0,0,8.241,2.24,3.616,11.429c0,0-4.246,14.403-15.104,11.974L491.422,329.122z"/>
	<path fill="#6C4854" d="M498.086,339.26l-14.748-13.504c0,0-5.144-4.253,0-17.056c0,0,5.213-18.14-5.136-19.563
		c0,0-8.535-13.872,9.23-20.273c0,0,8.453-1.424,13.287-8.537c0,0,0.128-7.468,10.483-9.96c0,0-19.668-6.301-35.066,3.075
		l-11.646,17.556l-17.79,31.655l-4.812,20.628l4.812,20.412c0,0,31.612,0.035,36.637,1.904l11.21,2.327L498.086,339.26z"/>
	<path fill="#95717F" d="M465.957,339.528c0,0,16.668-1.092,21.066,1.537l4.398,6.047c0,0-20.111-3.993-23.084-3.419
		L465.957,339.528z"/>
	<path fill="#B57F88" d="M560.563,406.774c0,0,3.946,13.961-1.347,17.874c0,0,5.141,0.197,1.347,5.434c0,0,6.571-1.028,2.989,7.973
		c0,0-0.754,23.161,5.666,1.964c0,0,4.144-13.309,5.691-25.562l-11.357-14.708L560.563,406.774z"/>
	<path fill="#743D50" d="M511.27,370.292c0,0,2.535,13.098,0.722,14.52c0,0-6.743,8.893-0.722,16.005c0,0,1.47,7.266,0.722,10.214
		c0,0,2.099,10.895,11.701,7.811c0,0-4.349,4.508-12.489,0h-19.781l-9.409-1.947l5.011-26.747L511.27,370.292z"/>
	<path fill="#755468" d="M462.452,357.838c0,0,6.753,4.61,22.119-1.753l12.557,3.036l5.458-0.627l-4.604,28.394l-6.561,6.52
		l-8.902,17.625c0,0,4.48,7.552,14.469,5.783c0,0,9.905-0.578,14.215,2.028c0,0-8.116,3.317-2.615,6.163
		c0,0-25.188-0.382-28.164,2.096l-7.571,0.748l5.35,10.207c0,0,10.925,22.516,22.518,24.295c0,0,0.282,31.654,11.271,33.077
		c0,0,8.501,8.536,26.283,0c0,0,11.738-0.237,1.424,3.793c0,0-10.397,6.933-28.495,4.238c0,0-23.21-6.609-29.19-17.634
		l-19.14-15.671l-19.52-30.133l-7.932-39.596l3.266-42.998L462.452,357.838z"/>
	<path fill="#683F55" d="M498.797,416.895c-13.518,0.07-10.434-12.163-10.434-12.163v-7.793
		c-10.434,5.009-13.476,14.093-13.476,14.093c-2.214,8.079-3.478,9.349-3.478,9.349c-4.268,1.066-2.846,7.468-2.846,7.468
		c2.844,8.321,4.848,12.606,6.261,14.521c-0.169,23.214,13.538,26.737,13.538,26.737c10.551-0.354,1.541-9.246,1.541-9.246
		c-6.397-2.843-11.806-19.814-11.813-19.839c0.108-1.074,0.111-1.965,0.111-1.965c-8.856-4.734,3.811-11.983,3.811-11.983
		c9.894-4.625,20.339-2.692,20.339-2.692C511.6,421.753,498.797,416.895,498.797,416.895z"/>
	<path fill="#693C50" d="M450.076,378.414c0,0-16.18,19.642,0,36.044c0,0,5.685,6.278,3.193,13.391c0,0-0.688,22.053,12.46,31.655
		c0,0,7.608,10.143,9.158,18.2h-3.478c0,0-18.117-15.551-24.709-23.535l-12.269-30.789l-4.28-36.493l9.604-30.802
		C439.756,356.084,441.904,372.015,450.076,378.414z"/>
	<path fill="#553952" d="M466.014,358.896c0,0,13.933,0.47,18.558-2.811c0,0,5.554-2.282,7.884-5.998c0,0,9.544,0.031,8.119,5.998
		l-4.168,14.208c0,0-1.404-5.04-8.043-5.04c0,0-8.417,1.374-7.35-2.157C481.014,363.096,464.886,362.496,466.014,358.896z"/>
	<path fill="#936670" d="M446.701,369.163c0,0,1.067-3.557,13.779-1.778c0,0,4.171,0,10.573-3.557c0,0,11.024-2.846,5.69,2.668
		c0,0-3.201,1.957-8.18,2.667c0,0-5.465-2.603-6.112,2.611C462.452,371.774,453.65,386.234,446.701,369.163z"/>
	<path fill="#4A2835" d="M455.403,364.895c0,0-7.467-9.247-15.647,4.269c0,0-7.443,7.586-5.323,24.243
		c0,0,3.188,20.929,2.832,28.398c0,0,5.691,24.54,18.139,38.412c0,0,16.008,18.14,23.831,19.206c0,0,6.401,2.135,4.979-9.248
		c0,0,2.848,6.404,5.691,7.115c0,0-3.725,8.535,1.518,13.159c0,0,12.71,14.938,30.85,11.736c0,0-16.717,6.403-36.28-8.89
		c0,0-34.476-26.32-39.29-35.926c0,0-14.414-20.024-16.194-42.911c0,0-6.757-34.624,0-50.273c0,0,2.161-32.23,3.926-38.701
		c0,0,1.41-10.381,6.032-18.918c0,0,17.786-35.567,22.408-40.546c0,0,10.67-13.518,18.141-14.584c0,0,2.489,0.357-6.758,9.959
		c0,0-10.837,14.229-13.775,24.542c0,0-2.586,12.449-6.5,17.428c0,0-10.27,14.361,0.355,19.917l-0.711,4.624
		c0,0-12.809,16.095,3.91,14.45l-5.688,10.446l11.026,6.319C462.873,359.12,465.688,366.677,455.403,364.895z"/>
	<path fill="#2F182D" d="M457.604,346.14c0,0-3.266,13.251,12.028,12.98c0,0-13.16,5.963-18.852,0c0,0-6.792-9.39-2.845-12.98
		c0,0,13.161-13.69,26.32-2.447C474.256,343.693,457.668,340.862,457.604,346.14z"/>
	<path fill="#663347" d="M491.422,342.487c0,0,5.952-5.065-4.363-10.536l-24.186-6.468c0,0,4.27-10.478,17.783-5.273
		c0,0,16.362,11.167,20.631,11.741c0,0,14.143,6.268,9.916,10.536c0,0-5.021-1.422,0,14.938c0,0,0.315,8.781,0,14.349
		c0,0-3.869,16.596-6.36,19.796l-10.295,1.836v-16.773l6.026-20.549l-9.152-12.392"/>
	<path fill="#602541" d="M508.043,389.793c0,0-4.268,20.274-8.535,8.536c0,0-0.317-7.116-4.96-0.713c0,0-6.658-1.421-6.185,7.115
		c0,0-7.707,3.913-3.084-7.47c0,0,14.702-19.917,3.084-11.736c0,0-11.98,4.944-3.084-3.548c0,0,2.135-1.787,7.115-9.614
		l7.468-13.244l-1.421-7.028l-10.078-4.625c0,0,0.475-6.402-14.107-9.248c0,0,10.67-0.709,18.493,3.202
		c0,0,16.005,10.858,13.873,17.7c0,0-7.471,17.534-7.825,22.857c0,0-4.978,6.625,2.845,4.909
		C501.642,386.886,510.89,380.733,508.043,389.793z"/>
	<path fill="#C77A93" d="M559.217,389.793c0,0,8.225-4.865,14.27,3.613c0,0,12.828,32.872-1.588,23.877l-11.335-13.662l-8.772-7.071
		c0,0-7.112-8.064-10.669-3.144c0,0-0.711,8.124-5.336,5.991c0,0-5.69-3.846,0-10.993c0,0,3.204-3.417,5.691,0
		C541.478,388.404,554.227,391.168,559.217,389.793z"/>
	<path fill="#23132C" d="M604.479,352.045c0.091-4.09-7.4-3.191-7.4-3.191c-5.809-10.801-18.594-11.798-18.594-11.798
		c-36.538-4.727-55.436,13.175-55.436,13.175c-4.441-2.678-23.113-0.512-23.113-0.512c-9.898-10.894-56.952-6.605-56.952-6.605
		c-16.223,0.797-19.667,12.549-19.667,12.549c-6.046-0.136-5.412,3.365-5.412,3.365c-0.078,3.488,4.924,2.497,4.924,2.497
		c1.31,5.19,13.201,14.341,13.201,14.341c9.671,13.024,52.981,1.181,52.981,1.181c8.244-2.664,13.575-18.555,13.575-18.555
		c2.293-7.065,14.656-3.09,14.656-3.09c5.702-0.443,7.96,9.997,7.96,9.997c4.424,8.992,14.714,10.289,14.714,10.289
		c9.574,1.281,29.156,0.651,29.156,0.651c11.04-0.467,12.846-1.612,12.846-1.612c6.876-5.302,16.101-20.158,16.101-20.158
		C605.485,354.734,604.479,352.045,604.479,352.045z M494.795,364.906c-4.062,14.675-36.595,13.768-36.595,13.768
		c-22.983,1.625-25.802-15.514-25.802-15.514c-6.175-10.279,9.921-14.189,9.921-14.189c23.647-7.479,50.136,1.116,50.136,1.116
		C501.986,353.5,494.795,364.906,494.795,364.906z M581.613,372.348c-5.452,5.215-45.337-1.008-45.337-1.008
		c-7.953-2.312-6.772-7.44-6.772-7.44c6.527-5.544-3.988-12.543-3.988-12.543c1.671-3.168,9.209-6.201,9.209-6.201
		c18.289-6.53,42.811-5.45,42.811-5.45c11.653,3.993,14.743,9.043,14.743,9.043C598.994,358.681,581.613,372.348,581.613,372.348z"
		/>
	<path fill="#C0949B" d="M520.137,445.633c0,0,3.914,3.912,11.382,0l8.892-3.203l5.335-3.201v-3.91c0,0,5.337,2.843,6.046-7.471
		c0,0-11.381,2.847-15.826,4.625c0,0-12.272,6.403-35.034,3.2c0,0-19.917-5.334-9.604,3.556c0,0,1.067,3.915,6.403,4.269
		c0,0,4.268,4.189,8.892,3.873C506.622,447.372,518.715,450.258,520.137,445.633z"/>
	<path fill="#2F1528" d="M435.843,331.818c0,0,7.469-7.469,10.315-5.335c0,0,8.178-8.535,12.093-5.691c0,0,9.956,2.49,14.937,2.49
		c0,0,19.562,3.558,20.629,8.537c0,0,3.674,3.913-5.453,1.423c0,0-2.016,2.014-7.35,0.828c0,0-16.007-9.364-27.389-3.317
		c0,0-12.742,8.101-15.262,12.942C438.363,343.693,431.576,340.353,435.843,331.818z"/>
	<path fill="#693C4E" d="M564.951,324.349c0,0-9.602,3.556-13.16,4.978c0,0-13.869,6.672-16.005,2.624
		c0,0,0.356-5.469,11.026-10.093c0,0,9.873-3.911,12.404-3.203c0,0,6.802-2.939,14.982,1.554c0,0,12.447,4.495,14.582,6.984
		c0,0,6.758,8.805-1.777,4.757c0,0-2.76-4.414-6.335-5.998c-0.483-0.214-0.981-0.376-1.491-0.47
		C574.91,324.705,571.074,322.062,564.951,324.349z"/>
	<path fill="#A65F74" d="M551.791,393.705c0,0,9.604,8.536,15.295,11.381c0,0,5.337,6.402,4.979,10.67
		c0,0-1.424,14.228-3.557,18.139c0,0-3.38,7.216-1.067-8.891c0,0,6.451-5.337-3.889-15.652
		C563.553,409.353,541.479,390.858,551.791,393.705z"/>
	<path fill="#9A6F79" d="M464.491,425.004c0,0,4.43,15.293,7.274,21.34c0,0,4.107,9.604-3.639,10.314c0,0-8.099-9.247-9.521-23.475
		C458.605,433.184,462.553,418.603,464.491,425.004z"/>
	<path fill="#9F687E" d="M451.136,386.886c0,0-6.045,16.421,4.979,19.98c0,0,6.76,12.447,13.517-5.693c0,0,20.699-8.535,8.57-9.603
		c0,0-5.528,0.587-3.314-4.684c0,0,2.924-6.342-7.39-3.141C467.498,383.745,452.318,382.372,451.136,386.886z"/>
	<path fill="#95717F" d="M454.336,333.255c0,0,10.343-4.951,17.074,0c0,0,11.737,1.761-1.778,3.008
		C469.632,336.264,450.426,341.096,454.336,333.255z"/>
</g>
<g>
	<path fill="#FFFFFF" d="M204.154,54.239h-15v57.36h6.895c1.208,0,2.315,0.24,3.324,0.716s1.916,1.093,2.723,1.847
		c0.806,0.755,1.431,1.65,1.873,2.683c0.442,1.033,0.666,2.105,0.666,3.217v1.192c0,2.306-0.84,4.292-2.52,5.961
		c-1.68,1.668-3.681,2.503-6,2.503h-31.56c-2.321,0-4.32-0.834-6-2.503c-1.68-1.669-2.52-3.655-2.52-5.961v-1.192
		c0-2.224,0.84-4.19,2.52-5.9c1.68-1.708,3.679-2.563,6-2.563h6.48v-57.36h-14.76v6.48c0,2.321-0.84,4.32-2.52,6
		c-1.68,1.68-3.681,2.52-6,2.52h-1.08c-2.321,0-4.32-0.84-6-2.52s-2.52-3.679-2.52-6v-15.42c0-1.192,0.24-2.344,0.72-3.458
		c0.48-1.112,1.14-2.085,1.98-2.919c0.84-0.834,1.818-1.509,2.94-2.027c1.119-0.518,2.28-0.776,3.48-0.776h65.88
		c1.2,0,2.34,0.259,3.42,0.776s2.04,1.192,2.88,2.027c0.84,0.834,1.519,1.808,2.04,2.919c0.52,1.114,0.78,2.265,0.78,3.458v15.42
		c0,2.321-0.84,4.32-2.52,6c-1.68,1.68-3.681,2.52-6,2.52h-1.08c-2.321,0-4.32-0.84-6-2.52s-2.52-3.679-2.52-6V54.239z"/>
	<path fill="#FFFFFF" d="M284.434,34.199c6.559,0,12.84,1.181,18.84,3.54c6,2.361,11.28,5.661,15.84,9.9
		c4.56,4.241,8.179,9.36,10.86,15.36c2.679,6,4.02,12.642,4.02,19.92c0,7.2-1.341,13.8-4.02,19.8c-2.682,6-6.3,11.121-10.86,15.36
		c-4.56,4.241-9.84,7.542-15.84,9.9c-6,2.359-12.281,3.54-18.84,3.54c-6.642,0-12.941-1.161-18.9-3.48
		c-5.96-2.319-11.22-5.619-15.78-9.9c-4.56-4.279-8.181-9.399-10.86-15.36c-2.681-5.959-4.02-12.58-4.02-19.86
		c0-7.279,1.339-13.92,4.02-19.92c2.679-6,6.3-11.119,10.86-15.36c4.56-4.239,9.819-7.539,15.78-9.9
		C271.493,35.38,277.792,34.199,284.434,34.199z M284.434,52.319c-4.579,0-8.775,0.823-12.589,2.465
		c-3.814,1.643-7.127,3.848-9.938,6.613s-4.999,5.993-6.564,9.679c-1.567,3.687-2.349,7.614-2.349,11.783
		c0,4.087,0.782,7.995,2.349,11.722c1.565,3.728,3.754,6.975,6.564,9.741s6.124,4.971,9.938,6.613
		c3.813,1.643,8.01,2.464,12.589,2.464c4.577,0,8.773-0.821,12.587-2.464c3.813-1.643,7.126-3.848,9.938-6.613
		c2.811-2.766,4.999-6.013,6.566-9.741c1.566-3.728,2.35-7.635,2.35-11.722c0-4.168-0.784-8.096-2.35-11.783
		c-1.567-3.686-3.755-6.913-6.566-9.679c-2.811-2.766-6.124-4.971-9.938-6.613C293.207,53.142,289.011,52.319,284.434,52.319z"/>
	<path fill="#FFFFFF" d="M429.151,113.759c2.641,0,5.419-0.219,8.341-0.66c2.919-0.438,5.599-1.159,8.04-2.16
		c2.438-1,4.479-2.26,6.119-3.78c1.64-1.519,2.46-3.36,2.46-5.52c0-2.88-0.82-5.1-2.46-6.66c-1.641-1.56-3.681-2.7-6.119-3.42
		c-2.441-0.72-5.101-1.14-7.98-1.26s-5.562-0.18-8.04-0.18h-12.96c-3.281,0-6.62-0.48-10.02-1.44c-3.401-0.96-6.48-2.439-9.24-4.44
		c-2.76-1.999-5.021-4.579-6.78-7.74c-1.761-3.159-2.64-6.979-2.64-11.46c0-5.119,1.26-9.6,3.78-13.44
		c2.52-3.84,5.739-7.02,9.66-9.54c3.919-2.52,8.221-4.398,12.9-5.64c4.68-1.24,9.18-1.86,13.5-1.86c4.08,0,7.979,0.3,11.7,0.9
		c3.72,0.6,7.099,1.46,10.14,2.58c1.519-2.079,3.559-3.12,6.12-3.12h1.08c2.238,0,4.14,0.84,5.7,2.52c1.56,1.68,2.34,3.68,2.34,6
		v14.88c0,2.321-0.78,4.32-2.34,6c-1.561,1.68-3.462,2.52-5.7,2.52h-1.08c-2.16,0-4.041-0.84-5.64-2.52c-1.602-1.68-2.4-3.679-2.4-6
		v-0.72c-1.44-0.799-2.802-1.5-4.08-2.1c-1.28-0.6-2.66-1.119-4.14-1.56c-1.481-0.439-3.141-0.76-4.98-0.96
		c-1.841-0.199-4.001-0.3-6.479-0.3c-2.4,0-4.901,0.259-7.5,0.776c-2.601,0.518-4.962,1.271-7.08,2.265
		c-2.121,0.994-3.882,2.267-5.28,3.817c-1.4,1.55-2.1,3.358-2.1,5.424c0,4.691,4.038,7.037,12.119,7.037h11.521
		c5.52,0,10.839,0.422,15.96,1.264c5.119,0.842,9.66,2.385,13.62,4.629c3.96,2.244,7.119,5.271,9.479,9.077
		c2.359,3.808,3.54,8.719,3.54,14.73c0,5.051-1.199,9.459-3.6,13.226c-2.4,3.769-5.621,6.915-9.66,9.439
		c-4.04,2.525-8.721,4.41-14.04,5.651c-5.321,1.241-10.901,1.864-16.74,1.864c-5.76,0-10.94-0.582-15.54-1.74
		c-4.601-1.159-8.621-2.539-12.06-4.14c-0.641,1.361-1.601,2.46-2.88,3.3c-1.281,0.84-2.681,1.26-4.2,1.26h-1.08
		c-2.24,0-4.14-0.84-5.7-2.52c-1.56-1.68-2.34-3.679-2.34-6v-14.88c0-2.319,0.78-4.32,2.34-6s3.459-2.52,5.7-2.52h1.08
		c2.08,0,3.919,0.84,5.52,2.52c1.6,1.68,2.44,3.641,2.52,5.88c2.719,2.481,6.24,4.221,10.56,5.22
		C416.431,113.26,422.111,113.759,429.151,113.759z"/>
	<path fill="#FFFFFF" d="M599.791,36.479c2.318,0,4.318,0.855,6,2.563c1.68,1.71,2.52,3.677,2.52,5.9v1.192
		c0,2.307-0.84,4.292-2.52,5.961c-1.682,1.668-3.682,2.503-6,2.503h-6.602v57h6.602c2.318,0,4.318,0.855,6,2.563
		c1.68,1.71,2.52,3.677,2.52,5.9v1.192c0,2.306-0.84,4.292-2.52,5.961c-1.682,1.668-3.682,2.503-6,2.503h-15.602
		c-2.561,0-4.721-0.859-6.479-2.58c-1.762-1.719-2.641-3.859-2.641-6.42v-43.92c-3.281,5.76-6.48,11.441-9.6,17.04
		c-3.121,5.601-6.24,11.28-9.361,17.04c-0.801,1.361-1.92,2.46-3.359,3.3s-3,1.26-4.68,1.26s-3.221-0.42-4.621-1.26
		s-2.539-1.98-3.42-3.42l-18.959-34.08v44.04c0,2.4-0.9,4.5-2.699,6.3c-1.801,1.8-3.941,2.7-6.422,2.7H496.35
		c-2.321,0-4.32-0.834-6-2.503c-1.68-1.669-2.52-3.655-2.52-5.961v-1.192c0-2.224,0.84-4.19,2.52-5.9
		c1.68-1.708,3.679-2.563,6-2.563h6.6v-57h-6.6c-2.321,0-4.32-0.834-6-2.503c-1.68-1.669-2.52-3.654-2.52-5.961v-1.192
		c0-2.224,0.84-4.19,2.52-5.9c1.68-1.708,3.679-2.563,6-2.563h18.121c1.6,0,3.119,0.441,4.559,1.32c1.441,0.881,2.6,2.04,3.48,3.48
		c4.158,7.601,8.379,15.321,12.66,23.16c4.279,7.841,8.58,15.72,12.9,23.64l25.561-46.8c0.799-1.44,1.92-2.599,3.359-3.48
		c1.439-0.879,2.959-1.32,4.561-1.32H599.791z"/>
	<path fill="#FFFFFF" d="M641.43,111.599v-57.48h-6.6c-2.322,0-4.32-0.834-6-2.503c-1.68-1.669-2.521-3.654-2.521-5.961v-1.192
		c0-2.224,0.842-4.19,2.521-5.9c1.68-1.708,3.678-2.563,6-2.563h31.439c1.199,0,2.299,0.24,3.301,0.716
		c0.998,0.477,1.898,1.093,2.699,1.847c0.799,0.755,1.42,1.65,1.859,2.683s0.66,2.105,0.66,3.217v1.192
		c0,2.307-0.84,4.292-2.52,5.961c-1.68,1.668-3.682,2.503-6,2.503h-6.721v57.48h6.721c1.199,0,2.299,0.24,3.301,0.716
		c0.998,0.476,1.898,1.093,2.699,1.847c0.799,0.755,1.42,1.65,1.859,2.683c0.439,1.033,0.66,2.105,0.66,3.217v1.192
		c0,2.306-0.84,4.292-2.52,5.961c-1.68,1.668-3.682,2.503-6,2.503H634.83c-2.322,0-4.32-0.834-6-2.503
		c-1.68-1.669-2.521-3.655-2.521-5.961v-1.192c0-2.224,0.842-4.19,2.521-5.9c1.68-1.708,3.678-2.563,6-2.563H641.43z"/>
	<path fill="#FFFFFF" d="M760.828,104.759c0-1.2,0.24-2.299,0.721-3.3c0.479-1,1.098-1.899,1.859-2.7
		c0.76-0.799,1.66-1.419,2.699-1.86c1.039-0.439,2.119-0.66,3.24-0.66h1.08c2.4,0,4.42,0.84,6.061,2.52
		c1.639,1.68,2.461,3.681,2.461,6v16.02c0,1.192-0.262,2.325-0.781,3.397c-0.521,1.072-1.199,2.027-2.039,2.861
		s-1.82,1.491-2.941,1.967s-2.279,0.714-3.479,0.714h-66.721c-2.32,0-4.32-0.834-6-2.503c-1.68-1.669-2.52-3.655-2.52-5.961v-1.192
		c0-2.224,0.84-4.19,2.52-5.9c1.68-1.708,3.68-2.563,6-2.563h4.801v-57.48h-6.361c-2.32,0-4.32-0.834-6-2.503
		c-1.68-1.669-2.52-3.654-2.52-5.961v-1.192c0-2.224,0.84-4.19,2.52-5.9c1.68-1.708,3.68-2.563,6-2.563h31.561
		c1.199,0,2.299,0.24,3.301,0.716c0.998,0.477,1.898,1.093,2.699,1.847c0.799,0.755,1.42,1.65,1.859,2.683s0.66,2.105,0.66,3.217
		v1.192c0,2.307-0.84,4.292-2.52,5.961c-1.68,1.668-3.68,2.503-6,2.503h-7.08v57.6h34.92V104.759z"/>
	<path fill="#FFFFFF" d="M851.547,110.759c0-2.319,0.84-4.32,2.52-6s3.68-2.52,6-2.52h1.08c2.318,0,4.32,0.84,6,2.52
		s2.52,3.681,2.52,6v10.02c-0.16,2.304-1.1,4.371-2.82,6.199s-3.82,2.741-6.299,2.741h-39.6c-3.682,0-7.221-0.6-10.621-1.8
		c-3.4-1.2-6.4-2.959-9-5.28c-2.6-2.319-4.68-5.199-6.24-8.64c-1.559-3.438-2.34-7.44-2.34-12c0-2.079,0.279-4.059,0.84-5.94
		c0.559-1.878,1.279-3.619,2.16-5.22c0.879-1.6,1.859-3.06,2.939-4.38c1.08-1.32,2.102-2.5,3.061-3.54
		c-0.959-1.039-1.98-2.239-3.061-3.6c-1.08-1.359-2.061-2.839-2.939-4.44c-0.881-1.6-1.602-3.339-2.16-5.22
		c-0.561-1.879-0.84-3.859-0.84-5.94c0-4.56,0.781-8.56,2.34-12c1.561-3.439,3.641-6.339,6.24-8.7c2.6-2.358,5.6-4.14,9-5.34
		s6.939-1.8,10.621-1.8h39.6c2.479,0,4.578,0.92,6.299,2.76c1.721,1.841,2.66,3.921,2.82,6.24v10.08c0,2.321-0.84,4.32-2.52,6
		c-1.68,1.68-3.682,2.52-6,2.52h-1.08c-2.32,0-4.32-0.84-6-2.52c-1.68-1.68-2.52-3.679-2.52-6v-0.72h-30.6
		c-1.682,0-3.141,0.3-4.381,0.9c-1.242,0.6-2.279,1.341-3.119,2.22c-0.842,0.881-1.482,1.901-1.92,3.06
		c-0.441,1.161-0.66,2.261-0.66,3.3c0,1.041,0.219,2.141,0.66,3.3c0.438,1.161,1.078,2.22,1.92,3.18
		c0.84,0.96,1.877,1.761,3.119,2.4c1.24,0.642,2.699,0.96,4.381,0.96h32.639c1.6,0,3,0.261,4.201,0.78
		c1.199,0.521,2.219,1.221,3.059,2.1c0.84,0.881,1.48,1.88,1.92,3c0.439,1.121,0.66,2.28,0.66,3.48c0,2.321-0.84,4.421-2.52,6.3
		c-1.68,1.881-4.121,2.82-7.32,2.82h-32.639c-1.682,0-3.141,0.323-4.381,0.966c-1.242,0.645-2.279,1.449-3.119,2.415
		c-0.842,0.967-1.482,2.053-1.92,3.261c-0.441,1.208-0.66,2.334-0.66,3.38s0.219,2.134,0.66,3.261
		c0.438,1.127,1.078,2.152,1.92,3.079c0.84,0.926,1.877,1.689,3.119,2.293c1.24,0.604,2.699,0.905,4.381,0.905h30.6V110.759z"/>
</g>
<g>
	<path fill="#EFB9BB" d="M171.342,187.153c0-2.85,0.462-5.562,1.388-8.138c0.924-2.574,2.35-4.849,4.275-6.825
		c1.924-1.975,4.337-3.55,7.237-4.725c2.899-1.174,6.349-1.763,10.35-1.763c4,0,7.462,0.588,10.388,1.763
		c2.925,1.175,5.336,2.737,7.237,4.688c1.899,1.95,3.312,4.226,4.237,6.825c0.925,2.6,1.388,5.325,1.388,8.175
		c0,2.801-0.476,5.501-1.425,8.1c-0.951,2.6-2.375,4.888-4.275,6.862c-1.9,1.976-4.312,3.551-7.237,4.725s-6.363,1.763-10.312,1.763
		c-3.95,0-7.388-0.588-10.312-1.763s-5.338-2.749-7.237-4.725c-1.901-1.975-3.326-4.262-4.275-6.862
		C171.816,192.654,171.342,189.954,171.342,187.153z M179.742,187.153c0,1.8,0.3,3.525,0.9,5.175c0.6,1.65,1.512,3.113,2.738,4.388
		c1.225,1.275,2.762,2.288,4.612,3.038c1.849,0.75,4.05,1.125,6.6,1.125s4.75-0.375,6.6-1.125c1.849-0.75,3.387-1.763,4.612-3.038
		c1.225-1.275,2.138-2.737,2.738-4.388c0.6-1.65,0.9-3.375,0.9-5.175c0-1.849-0.3-3.6-0.9-5.25c-0.6-1.65-1.5-3.1-2.7-4.35
		c-1.2-1.249-2.737-2.25-4.612-3s-4.088-1.125-6.638-1.125s-4.763,0.375-6.638,1.125s-3.412,1.751-4.612,3
		c-1.2,1.25-2.1,2.713-2.7,4.388C180.042,183.616,179.742,185.353,179.742,187.153z"/>
	<path fill="#EFB9BB" d="M231.417,175.078c-1.151,0-2.138-0.387-2.963-1.162c-0.825-0.775-1.237-1.737-1.237-2.888
		c0-1.149,0.413-2.112,1.237-2.888c0.825-0.774,1.812-1.162,2.963-1.162h9.3c1.05,0,1.95,0.375,2.7,1.125s1.125,1.65,1.125,2.7
		v1.725c1.699-2.1,3.387-3.612,5.062-4.538c1.674-0.924,3.836-1.387,6.487-1.387c0.349,0,0.7,0,1.05,0
		c0.35,0,0.725,0.025,1.125,0.075c1.1,0.101,2.012,0.5,2.738,1.2c0.724,0.701,1.087,1.575,1.087,2.625v0.525
		c0,0.95-0.2,1.676-0.6,2.175c-0.401,0.5-0.851,0.875-1.35,1.125c-0.551,0.3-1.2,0.476-1.95,0.525c-2.201,0-4.138,0.326-5.812,0.975
		c-1.676,0.65-3.088,1.463-4.238,2.438c-1.15,0.975-2.025,2.014-2.625,3.113c-0.6,1.1-0.9,2.1-0.9,3v14.85h7.125
		c1.15,0,2.138,0.388,2.962,1.162c0.825,0.776,1.238,1.738,1.238,2.888c0,1.151-0.413,2.113-1.238,2.888
		c-0.825,0.775-1.812,1.162-2.962,1.162h-20.175c-1.151,0-2.138-0.387-2.962-1.162c-0.825-0.775-1.238-1.737-1.238-2.888
		c0-1.149,0.413-2.112,1.238-2.888c0.825-0.774,1.812-1.162,2.962-1.162h4.875v-24.15H231.417z"/>
	<path fill="#EFB9BB" d="M345.715,199.228c1.149,0,2.138,0.388,2.962,1.162c0.825,0.776,1.238,1.738,1.238,2.888
		c0,1.151-0.413,2.113-1.238,2.888c-0.825,0.775-1.813,1.162-2.962,1.162h-9.075c-1.05,0-1.95-0.387-2.7-1.162
		c-0.75-0.775-1.125-1.587-1.125-2.438v-20.1c0-0.949-0.188-1.95-0.562-3c-0.375-1.05-0.988-2.025-1.837-2.925
		c-0.851-0.9-2-1.637-3.45-2.212c-1.451-0.574-3.251-0.862-5.4-0.862c-1.4,0-2.775,0.3-4.125,0.9s-2.55,1.376-3.6,2.325
		c-1.05,0.95-1.901,2-2.55,3.15c-0.65,1.151-0.975,2.276-0.975,3.375v14.85h4.65c1.149,0,2.138,0.388,2.962,1.162
		c0.825,0.776,1.238,1.738,1.238,2.888c0,1.151-0.413,2.113-1.238,2.888c-0.825,0.775-1.813,1.162-2.962,1.162h-17.925
		c-1.151,0-2.138-0.387-2.963-1.162c-0.825-0.775-1.237-1.737-1.237-2.888c0-1.149,0.413-2.112,1.237-2.888
		c0.825-0.774,1.812-1.162,2.963-1.162h5.025v-24.15h-5.025c-1.151,0-2.138-0.387-2.963-1.162c-0.825-0.775-1.237-1.737-1.237-2.888
		c0-1.149,0.413-2.112,1.237-2.888c0.825-0.774,1.812-1.162,2.963-1.162h9.3c1.05,0,1.95,0.375,2.7,1.125s1.125,1.65,1.125,2.7
		v1.725c1.449-1.8,3.112-3.25,4.987-4.35c1.875-1.099,4.037-1.65,6.487-1.65c3.5,0,6.475,0.438,8.925,1.312
		c2.449,0.875,4.45,2.088,6,3.638c1.549,1.55,2.674,3.363,3.375,5.438c0.7,2.075,1.05,4.312,1.05,6.712v15.6H345.715z"/>
	<path fill="#EFB9BB" d="M354.79,187.153c0-2.85,0.462-5.562,1.388-8.138c0.924-2.574,2.35-4.849,4.275-6.825
		c1.924-1.975,4.337-3.55,7.237-4.725c2.899-1.174,6.349-1.763,10.35-1.763c4,0,7.462,0.588,10.388,1.763
		c2.925,1.175,5.336,2.737,7.237,4.688c1.899,1.95,3.312,4.226,4.237,6.825c0.925,2.6,1.388,5.325,1.388,8.175
		c0,2.801-0.476,5.501-1.425,8.1c-0.951,2.6-2.375,4.888-4.275,6.862c-1.9,1.976-4.312,3.551-7.237,4.725s-6.363,1.763-10.312,1.763
		c-3.95,0-7.388-0.588-10.312-1.763s-5.338-2.749-7.237-4.725c-1.901-1.975-3.326-4.262-4.275-6.862
		C355.264,192.654,354.79,189.954,354.79,187.153z M363.189,187.153c0,1.8,0.3,3.525,0.9,5.175c0.6,1.65,1.512,3.113,2.738,4.388
		c1.225,1.275,2.762,2.288,4.612,3.038c1.849,0.75,4.05,1.125,6.6,1.125s4.75-0.375,6.6-1.125c1.849-0.75,3.387-1.763,4.612-3.038
		c1.225-1.275,2.138-2.737,2.738-4.388c0.6-1.65,0.9-3.375,0.9-5.175c0-1.849-0.3-3.6-0.9-5.25c-0.6-1.65-1.5-3.1-2.7-4.35
		c-1.2-1.249-2.737-2.25-4.612-3s-4.088-1.125-6.638-1.125s-4.763,0.375-6.638,1.125s-3.412,1.751-4.612,3
		c-1.2,1.25-2.1,2.713-2.7,4.388C363.49,183.616,363.189,185.353,363.189,187.153z"/>
	<path fill="#EFB9BB" d="M435.189,201.028c0.55,0.351,0.975,0.788,1.275,1.312c0.3,0.525,0.45,1.213,0.45,2.062
		c0,1.25-0.513,2.188-1.538,2.812c-1.025,0.625-2.113,0.938-3.262,0.938c-1.001,0-2.213-0.438-3.638-1.312s-2.788-2.237-4.087-4.087
		c-1.301-1.849-2.413-4.163-3.337-6.938c-0.926-2.775-1.388-6.087-1.388-9.938v-10.725h-9.3c-1.001,0-1.888-0.387-2.663-1.163
		c-0.776-0.774-1.163-1.662-1.163-2.663v-0.45c0-1.05,0.387-1.95,1.163-2.7c0.774-0.75,1.662-1.125,2.663-1.125h9.3v-11.925
		c0-1.15,0.387-2.074,1.163-2.775c0.774-0.7,1.662-1.05,2.663-1.05h0.75c1,0,1.887,0.351,2.662,1.05
		c0.775,0.701,1.163,1.625,1.163,2.775v11.925h11.025c1.05,0,1.95,0.375,2.7,1.125s1.125,1.65,1.125,2.7v0.45
		c0,1.001-0.375,1.888-1.125,2.663c-0.75,0.776-1.65,1.163-2.7,1.163h-11.025v11.1c0,2.9,0.362,5.288,1.087,7.163
		c0.725,1.875,1.538,3.388,2.438,4.537C432.639,199.253,433.839,200.278,435.189,201.028z"/>
	<path fill="#EFB9BB" d="M497.662,201.028c0.55,0.351,0.975,0.788,1.275,1.312c0.3,0.525,0.45,1.213,0.45,2.062
		c0,1.25-0.513,2.188-1.538,2.812c-1.025,0.625-2.113,0.938-3.262,0.938c-1.001,0-2.213-0.438-3.638-1.312s-2.788-2.237-4.087-4.087
		c-1.301-1.849-2.413-4.163-3.337-6.938c-0.926-2.775-1.388-6.087-1.388-9.938v-10.725h-9.3c-1.001,0-1.888-0.387-2.663-1.163
		c-0.776-0.774-1.163-1.662-1.163-2.663v-0.45c0-1.05,0.387-1.95,1.163-2.7c0.774-0.75,1.662-1.125,2.663-1.125h9.3v-11.925
		c0-1.15,0.387-2.074,1.163-2.775c0.774-0.7,1.662-1.05,2.663-1.05h0.75c1,0,1.887,0.351,2.662,1.05
		c0.775,0.701,1.163,1.625,1.163,2.775v11.925h11.025c1.05,0,1.95,0.375,2.7,1.125c0.75,0.75,1.125,1.65,1.125,2.7v0.45
		c0,1.001-0.375,1.888-1.125,2.663c-0.75,0.776-1.65,1.163-2.7,1.163h-11.025v11.1c0,2.9,0.362,5.288,1.087,7.163
		c0.725,1.875,1.538,3.388,2.438,4.537C495.112,199.253,496.312,200.278,497.662,201.028z"/>
	<path fill="#EFB9BB" d="M511.986,187.153c0-2.85,0.462-5.562,1.388-8.138c0.925-2.574,2.35-4.849,4.274-6.825
		c1.925-1.975,4.338-3.55,7.238-4.725c2.898-1.174,6.349-1.763,10.35-1.763c4,0,7.463,0.588,10.388,1.763
		c2.925,1.175,5.337,2.737,7.237,4.688c1.899,1.95,3.312,4.226,4.237,6.825c0.925,2.6,1.388,5.325,1.388,8.175
		c0,2.801-0.476,5.501-1.425,8.1c-0.95,2.6-2.376,4.888-4.275,6.862c-1.9,1.976-4.312,3.551-7.237,4.725s-6.363,1.763-10.312,1.763
		c-3.95,0-7.388-0.588-10.312-1.763s-5.338-2.749-7.237-4.725c-1.901-1.975-3.326-4.262-4.275-6.862
		C512.461,192.654,511.986,189.954,511.986,187.153z M520.387,187.153c0,1.8,0.3,3.525,0.899,5.175
		c0.601,1.65,1.512,3.113,2.737,4.388c1.225,1.275,2.763,2.288,4.613,3.038c1.849,0.75,4.05,1.125,6.6,1.125s4.75-0.375,6.6-1.125
		s3.387-1.763,4.613-3.038c1.225-1.275,2.137-2.737,2.737-4.388c0.6-1.65,0.899-3.375,0.899-5.175c0-1.849-0.3-3.6-0.899-5.25
		c-0.601-1.65-1.5-3.1-2.7-4.35c-1.2-1.249-2.737-2.25-4.612-3s-4.088-1.125-6.638-1.125s-4.763,0.375-6.638,1.125
		s-3.412,1.751-4.612,3c-1.2,1.25-2.1,2.713-2.7,4.388C520.687,183.616,520.387,185.353,520.387,187.153z"/>
	<path fill="#EFB9BB" d="M597.335,205.903c-0.8,1.101-1.875,1.65-3.226,1.65h-0.375c-1.1-0.05-2-0.461-2.699-1.237
		c-0.701-0.775-1.051-1.688-1.051-2.738v-5.925c0.1-1,0.525-1.862,1.275-2.587c0.75-0.724,1.625-1.087,2.625-1.087h0.375
		c1,0,1.85,0.326,2.551,0.975c0.699,0.65,1.099,1.451,1.199,2.4c1.549,0.75,3.1,1.375,4.65,1.875c1.549,0.5,3.012,0.888,4.387,1.162
		c1.375,0.275,2.65,0.476,3.826,0.6c1.174,0.125,2.162,0.188,2.962,0.188c0.999,0,2.138-0.1,3.413-0.3
		c1.274-0.199,2.475-0.525,3.6-0.975s2.062-1.05,2.812-1.8s1.125-1.699,1.125-2.85c0-0.799-0.201-1.5-0.6-2.1
		c-0.401-0.6-0.9-1.099-1.5-1.5c-0.601-0.399-1.264-0.7-1.988-0.9c-0.725-0.199-1.413-0.3-2.062-0.3l-12.074-0.375
		c-2.451-0.049-4.602-0.412-6.451-1.087c-1.85-0.675-3.387-1.549-4.611-2.625c-1.227-1.075-2.139-2.312-2.738-3.712
		c-0.6-1.399-0.9-2.899-0.9-4.5c0-1.5,0.301-2.987,0.9-4.462c0.6-1.474,1.637-2.8,3.113-3.975c1.474-1.174,3.424-2.125,5.85-2.85
		c2.424-0.724,5.462-1.087,9.112-1.087c1.999,0,3.999,0.213,6,0.638c1.999,0.425,3.825,0.988,5.476,1.688
		c0.799-1.1,1.875-1.65,3.225-1.65h0.375c1.1,0.051,1.999,0.463,2.699,1.238c0.7,0.776,1.051,1.688,1.051,2.737v5.475
		c-0.102,1.001-0.525,1.863-1.275,2.587c-0.75,0.726-1.625,1.087-2.625,1.087h-0.375c-1.05,0-1.938-0.362-2.662-1.087
		c-0.726-0.724-1.113-1.586-1.162-2.587c-1.451-0.649-3.126-1.225-5.025-1.725c-1.9-0.499-4.227-0.75-6.975-0.75
		c-1.051,0-2.15,0.088-3.301,0.263c-1.15,0.176-2.188,0.463-3.112,0.862c-0.926,0.401-1.688,0.913-2.288,1.538
		c-0.6,0.626-0.899,1.388-0.899,2.288c0,0.8,0.249,1.462,0.75,1.987c0.499,0.525,1.112,0.963,1.837,1.312
		c0.725,0.351,1.5,0.6,2.326,0.75c0.824,0.15,1.586,0.225,2.287,0.225l10.5,0.375c4.65,0.15,8.35,1.188,11.1,3.112
		c2.75,1.926,4.125,5.014,4.125,9.263c0,1.8-0.363,3.5-1.088,5.1c-0.725,1.601-1.863,3-3.412,4.2c-1.551,1.2-3.525,2.15-5.925,2.85
		s-5.276,1.05-8.625,1.05c-2.95,0-5.876-0.238-8.774-0.713C602.16,207.415,599.585,206.753,597.335,205.903z"/>
	<path fill="#EFB9BB" d="M679.309,183.028c0-0.949-0.088-1.937-0.262-2.962c-0.176-1.024-0.576-1.95-1.201-2.775
		c-0.625-0.825-1.537-1.5-2.736-2.025c-1.201-0.525-2.826-0.787-4.875-0.787c-1.4,0-2.751,0.312-4.051,0.938
		c-1.301,0.625-2.438,1.425-3.412,2.4s-1.751,2.038-2.325,3.188c-0.575,1.151-0.862,2.276-0.862,3.375v14.85h4.8
		c1.149,0,2.138,0.388,2.962,1.162c0.826,0.776,1.238,1.738,1.238,2.888c0,1.151-0.412,2.113-1.238,2.888
		c-0.824,0.775-1.812,1.162-2.962,1.162h-17.925c-1.15,0-2.138-0.387-2.963-1.162c-0.824-0.775-1.237-1.737-1.237-2.888
		c0-1.149,0.413-2.112,1.237-2.888c0.825-0.774,1.812-1.162,2.963-1.162h5.025v-24.15h-5.025c-1.15,0-2.138-0.387-2.963-1.162
		c-0.824-0.775-1.237-1.737-1.237-2.888c0-1.149,0.413-2.112,1.237-2.888c0.825-0.774,1.812-1.162,2.963-1.162h9.3
		c1.05,0,1.95,0.375,2.7,1.125s1.125,1.65,1.125,2.7v1.725c1.449-1.8,2.986-3.25,4.612-4.35c1.624-1.099,3.662-1.65,6.112-1.65
		c2.4,0,4.375,0.163,5.926,0.487c1.549,0.326,2.861,0.763,3.938,1.312c1.074,0.551,1.961,1.176,2.662,1.875
		c0.699,0.701,1.375,1.425,2.025,2.175c1.449-1.8,3.287-3.225,5.512-4.275c2.225-1.05,4.562-1.575,7.013-1.575
		c3.7,0,6.712,0.438,9.038,1.312c2.324,0.875,4.137,2.088,5.438,3.638c1.299,1.55,2.186,3.363,2.662,5.438
		c0.475,2.075,0.713,4.312,0.713,6.712v15.6h5.024c1.149,0,2.138,0.388,2.962,1.162c0.826,0.776,1.238,1.738,1.238,2.888
		c0,1.151-0.412,2.113-1.238,2.888c-0.824,0.775-1.812,1.162-2.962,1.162h-9.3c-1.051,0-1.95-0.387-2.7-1.162
		c-0.75-0.775-1.125-1.587-1.125-2.438v-20.1c0-0.949-0.088-1.95-0.263-3c-0.176-1.05-0.575-2.025-1.199-2.925
		c-0.627-0.9-1.538-1.637-2.738-2.212c-1.199-0.574-2.825-0.862-4.875-0.862c-1.25,0-2.5,0.3-3.75,0.9s-2.389,1.376-3.412,2.325
		c-1.025,0.95-1.863,1.987-2.513,3.112c-0.65,1.125-0.976,2.238-0.976,3.337v14.925h4.801c1.149,0,2.137,0.388,2.963,1.162
		c0.824,0.776,1.236,1.738,1.236,2.888c0,1.151-0.412,2.113-1.236,2.888c-0.826,0.775-1.813,1.162-2.963,1.162h-9.075
		c-1.05,0-1.95-0.387-2.7-1.162c-0.75-0.775-1.125-1.587-1.125-2.438V183.028z"/>
	<path fill="#EFB9BB" d="M742.158,175.153h-4.875c-1.151,0-2.138-0.387-2.963-1.163c-0.825-0.774-1.237-1.737-1.237-2.887
		c0-1.15,0.412-2.112,1.237-2.888c0.825-0.774,1.812-1.163,2.963-1.163h9.3c1.05,0,1.95,0.375,2.7,1.125s1.125,1.65,1.125,2.7v28.35
		h4.8c1.149,0,2.138,0.388,2.963,1.162c0.824,0.776,1.237,1.738,1.237,2.888c0,1.151-0.413,2.113-1.237,2.888
		c-0.825,0.775-1.813,1.162-2.963,1.162h-17.925c-1.151,0-2.138-0.387-2.963-1.162c-0.825-0.775-1.237-1.737-1.237-2.888
		c0-1.149,0.412-2.112,1.237-2.888c0.825-0.774,1.812-1.162,2.963-1.162h4.875V175.153z M751.308,155.053
		c0,1.451-0.5,2.663-1.5,3.638s-2.175,1.462-3.524,1.462c-1.451,0-2.651-0.512-3.601-1.538c-0.95-1.024-1.425-2.212-1.425-3.562
		s0.475-2.524,1.425-3.525c0.949-1,2.149-1.5,3.601-1.5c1.449,0,2.649,0.476,3.6,1.425
		C750.832,152.403,751.308,153.603,751.308,155.053z"/>
	<path fill="#EFB9BB" d="M773.958,157.003h-4.725c-1.151,0-2.138-0.387-2.963-1.163c-0.825-0.774-1.237-1.737-1.237-2.888
		c0-1.149,0.412-2.111,1.237-2.887c0.825-0.775,1.812-1.163,2.963-1.163h9.3c1.05,0,1.95,0.375,2.7,1.125s1.125,1.65,1.125,2.7
		v33.525c0,2.9,0.362,5.288,1.087,7.163s1.538,3.388,2.438,4.537c1.051,1.301,2.25,2.325,3.601,3.075
		c0.55,0.351,0.975,0.788,1.274,1.312c0.301,0.525,0.45,1.213,0.45,2.062c0,1.25-0.513,2.188-1.537,2.812
		c-1.025,0.625-2.113,0.938-3.263,0.938c-1.001,0-2.213-0.438-3.638-1.312s-2.788-2.237-4.087-4.087
		c-1.301-1.849-2.413-4.163-3.338-6.938c-0.926-2.775-1.388-6.087-1.388-9.938V157.003z"/>
	<path fill="#EFB9BB" d="M821.732,201.103c1.35,0,2.699-0.137,4.05-0.413c1.35-0.274,2.637-0.625,3.862-1.05
		c1.225-0.424,2.374-0.9,3.45-1.425c1.074-0.525,1.987-1.013,2.737-1.462c0.649-0.4,1.324-0.6,2.025-0.6
		c1.149,0,2.124,0.351,2.925,1.05c0.799,0.701,1.2,1.625,1.2,2.775c0,1.55-0.813,2.863-2.438,3.938
		c-1.626,1.076-3.551,1.963-5.775,2.662c-2.226,0.701-4.476,1.212-6.75,1.538c-2.275,0.325-4.062,0.488-5.362,0.488
		c-3.2,0-6.188-0.463-8.963-1.388c-2.774-0.925-5.2-2.288-7.274-4.087c-2.076-1.8-3.713-4.037-4.913-6.712
		c-1.2-2.674-1.8-5.762-1.8-9.263c0-3.499,0.6-6.587,1.8-9.263c1.2-2.674,2.837-4.912,4.913-6.712c2.074-1.8,4.5-3.162,7.274-4.087
		c2.775-0.925,5.763-1.388,8.963-1.388c3.049,0,5.824,0.413,8.325,1.238c2.499,0.825,4.637,2,6.412,3.525
		c1.774,1.526,3.15,3.401,4.125,5.625c0.975,2.226,1.463,4.738,1.463,7.538c0,2.25-0.801,4.076-2.4,5.475
		c-1.601,1.4-3.525,2.1-5.775,2.1h-26.774c0.85,3.15,2.612,5.588,5.287,7.312C814.994,200.24,818.132,201.103,821.732,201.103z
		 M831.632,183.853c0.75,0,1.212-0.225,1.388-0.675c0.175-0.45,0.263-1.05,0.263-1.8c-0.051-1.5-0.438-2.775-1.163-3.825
		c-0.725-1.05-1.649-1.899-2.774-2.55c-1.125-0.649-2.362-1.112-3.713-1.388c-1.35-0.274-2.625-0.413-3.825-0.413
		c-1.8,0-3.5,0.251-5.1,0.75c-1.601,0.5-3.051,1.226-4.35,2.175c-1.301,0.95-2.4,2.075-3.301,3.375
		c-0.899,1.301-1.55,2.75-1.949,4.35H831.632z"/>
</g>
</svg>
