<?xml version="1.0" encoding="utf-8"?>
<!-- Generator: Adobe Illustrator 15.0.0, SVG Export Plug-In . SVG Version: 6.00 Build 0)  -->
<!DOCTYPE svg PUBLIC "-//W3C//DTD SVG 1.1//EN" "http://www.w3.org/Graphics/SVG/1.1/DTD/svg11.dtd">
<svg version="1.1" id="Layer_1" xmlns="http://www.w3.org/2000/svg" xmlns:xlink="http://www.w3.org/1999/xlink" x="0px" y="0px"
	 width="612px" height="550px" viewBox="0 0 612 550" enable-background="new 0 0 612 550" xml:space="preserve">
<rect x="-19.067" y="-31.44" fill="#615370" width="646.067" height="599.922"/>
<path fill="#1F0F12" d="M490.98,258.562c-12.98-9.519,3.461-14.098,3.461-14.098c8.653,17.921,22.129,8.389,22.129,8.389
	c-22.006-0.518-14.342-14.193-14.342-14.193c26.825-23.365,7.788-28.557,7.788-28.557c-8.651,2.596-9.518-4.327-9.518-4.327
	c3.461-9.519-3.938-15.576-3.938-15.576c-22.113,2.597-2.119-15.577-2.119-15.577c11.25-17.307-25.961-45.863-25.961-45.863
	c-9.521-11.25-18.173-14.711-18.173-14.711c-15.577,0-17.307-2.597-17.307-2.597c-12.979-17.308-32.021-24.229-32.021-24.229
	c-53.651-64.037-82.207-32.884-82.207-32.884c-13.846-28.558-48.461-12.98-48.461-12.98c-15.758,1.712-31.776,9.667-45.393,18.649
	c-33.676-7.148-59.313,23.754-59.313,23.754c-9.222,7.446-13.796,18.523-15.988,29.006c-6.574-1.652-16.166-1.346-24.687,9.453
	c0,0-17.121,17.582-1.489,38.403c-7.98,13.668-6.298,28.71-6.298,28.71c-9.52,20.77,14.712,45.864,14.712,45.864
	c12.979,6.923,6.922,17.655,6.922,17.655c-17.308-1.383-16.441-19.387-16.441-19.387c-9.52,12.98-9.52,32.885-9.52,32.885
	c-4.326,18.172,23.364,26.826,23.364,26.826c19.904,12.979,1.73,9.518,1.73,9.518c-8.652,0-8.652,9.52-8.652,9.52
	c1.73,13.848,18.172,23.365,18.172,23.365c2.599,15.576,20.771,19.902,20.771,19.902c-6.924,10.385-25.096-0.865-25.096-0.865
	c24.229,24.23,37.643-2.641,37.643-2.641c-3.896,23.752,18.172,13.852,18.172,13.852c14.279,2.557,2.596,9.125,2.596,9.125
	c-19.932,23.373-11.682,29.523-11.682,29.523c-16.875,25.629,22.066,32.074,22.066,32.074c11.684,34.336,25.961,0,25.961,0
	c18.172-5.9,10.385-43.625,10.385-43.625c-7.951-6.818-14.068-15.232-18.738-23.625c-14.633-18.365-16.946-42.477-20.565-65.029
	c-4.312-26.879-13.972-54.312-0.049-80.101c0.771-1.427,1.813-2.327,2.965-2.805c5.491-14.19,11.727-24.251,11.727-24.251
	c12.98-5.2,19.469-33.742,19.469-33.742c28.56-55.814,63.605-46.729,63.605-46.729c12.979,4.326,17.307-1.73,17.307-1.73
	c16.441-8.653,29.422,14.711,29.422,14.711c9.521,17.307,19.904,25.096,19.904,25.096c8.652,10.384,15.576,21.633,15.576,21.633
	c7.789,16.441,15.576,22.5,15.576,22.5c9.52,8.653,6.922,16.441,6.922,16.441c-6.057,12.115,2.596,19.039,2.596,19.039
	c6.06,12.115,0.867,28.557,0.867,28.557c-0.865,32.019-10.385,83.074-10.385,83.074c-8.654,30.287-25.096,44.133-25.096,44.133
	l-0.865,12.98c-2.596,40.672,25.094,38.939,25.094,38.939c36.346,3.461,31.152-38.939,31.152-38.939c-17.308-8.654,0-12.98,0-12.98
	c16.442-10.385,6.061-19.904,6.061-19.904c12.98,6.924,21.633,1.73,21.633,1.73c19.904-4.326,12.98-42.402,12.98-42.402
	c15.576-1.73,19.904-16.441,19.904-16.441c22.498,0,10.383-17.307,10.383-17.307C513.48,278.467,490.98,258.562,490.98,258.562z
	 M148.244,141.735l0.09-0.02c-10.729,3.255-17.801,8.924-22.473,15.236c0.026-2.938-0.361-7.247-1.791-13.48
	c0,0,2.389-31.574,23.651-26.826c0,0,0.371,0.354,1.037,0.947C146.824,130.695,148.244,141.735,148.244,141.735z M162.145,139.145
	c-1.248,0.107-2.452,0.247-3.633,0.404c-1.399-5.739-1.852-10.969-1.719-15.633c2.859,1.996,6.205,4.066,9.754,5.741
	C164.398,135.505,162.145,139.145,162.145,139.145z M182.049,113.184c0,0-8.654-0.866,8.652-14.712
	C190.701,98.472,188.973,108.855,182.049,113.184z M188.973,89.819c-14.713,4.327-19.041,26.277-19.041,26.277
	c-0.237,1.838-0.563,3.599-0.942,5.283c-3.17-0.812-7.013-2.344-11.404-5.174c2.031-11.332,7.156-17.733,7.156-17.733
	c12.055-21.368,32.772-27.12,46.354-28.468C197.754,80.497,188.973,89.819,188.973,89.819z"/>
<g>
	<path fill="none" stroke="#ECA495" stroke-width="3.8941" stroke-miterlimit="10" stroke-dasharray="15.3511,15.3511" d="
		M378.324,391.699c5.432-5.846,11.684-11.25,15.578-19.037c1.297-2.598,2.596-6.49,3.893-9.086
		c12.98-37.645,15.576-77.883,16.875-118.122c1.299-7.788-6.49-14.278-5.191-22.067c0-5.191,1.297-10.384-1.299-15.576
		c-3.895-7.787-10.385-11.682-14.276-18.172c-3.896-9.086-9.089-16.875-14.279-24.662c-6.49-9.087-14.277-15.577-20.769-23.365
		c-3.895-5.192-6.489-11.683-10.385-16.875c-2.596-1.297-3.895-3.894-6.49-6.49c-3.895-2.596-7.788-5.191-12.979-3.895
		c-6.49,3.895-16.125,7.919-22.779,4.543c-10.66-5.409-18.004,0.523-18.004,0.523c-25.416,7.914-44.887,32.577-50.08,59.835
		c-6.489,9.086-12.979,16.875-18.172,25.961c-14.279,22.066-19.471,45.432-16.875,71.393c1.299,9.086,2.596,19.472,5.193,28.558
		c5.19,20.768,9.086,40.238,16.873,59.709c3.895,7.789,9.088,14.279,13.092,20.465c0,0,36.881,39.373,70.383,40.238
		c0,0,17.931,4.326,38.697-10.383C347.328,415.193,372.912,397.529,378.324,391.699z"/>
</g>
<g>
	<path fill="#ECA495" d="M294.273,234.779c0,2.002-0.775,3.776-2.325,5.325c-1.552,1.552-3.325,2.325-5.325,2.325h-1.5
		c-2.1,0-3.9-0.773-5.4-2.325c-1.5-1.549-2.25-3.323-2.25-5.325v-11.55c0-2.299,0.773-4.174,2.326-5.625
		c1.549-1.448,3.424-2.325,5.625-2.625c2.6-0.3,4.748-0.548,6.449-0.75c1.699-0.199,3.35-0.349,4.95-0.45
		c1.599-0.098,3.273-0.173,5.023-0.225c1.749-0.049,3.925-0.075,6.525-0.075c5.199,0,10.224,0.45,15.075,1.35
		c4.849,0.9,9.148,2.5,12.898,4.8c3.75,2.302,6.773,5.4,9.076,9.3c2.299,3.9,3.449,8.901,3.449,15c0,6.4-1.627,11.901-4.875,16.5
		c-3.25,4.601-7.275,8.7-12.074,12.3l-15.75,12c-1.5,1.103-2.502,2.4-3,3.9c-0.502,1.5-0.75,3.149-0.75,4.95v3.3
		c0,1.799-0.676,3.375-2.024,4.725c-1.35,1.35-2.927,2.025-4.726,2.025h-4.051c-1.9,0-3.525-0.699-4.875-2.102
		c-1.35-1.398-2.025-2.947-2.025-4.648v-4.8c0-2.3,0.101-4.299,0.302-6c0.198-1.699,0.549-3.199,1.05-4.5
		c0.499-1.299,1.175-2.449,2.023-3.45c0.851-0.999,1.875-1.95,3.076-2.851l16.5-12.75c3.099-2.399,5.799-5.048,8.101-7.95
		c2.299-2.898,3.448-6.397,3.448-10.5c0-3.398-0.926-6.075-2.773-8.025c-1.853-1.95-4.125-3.424-6.825-4.425
		c-2.699-0.999-5.602-1.624-8.699-1.875c-3.102-0.249-5.901-0.375-8.399-0.375c-1.103,0-2.325,0-3.676,0s-2.875,0.101-4.574,0.3
		V234.779L294.273,234.779z M314.674,324.328c0,3.201-1.076,5.9-3.226,8.1c-2.151,2.199-4.776,3.301-7.875,3.301
		c-3.202,0-5.876-1.125-8.024-3.375c-2.152-2.25-3.226-4.924-3.226-8.025c0-3.1,1.073-5.75,3.226-7.949
		c2.148-2.199,4.822-3.301,8.024-3.301c3.198,0,5.851,1.076,7.95,3.225C313.623,318.455,314.674,321.129,314.674,324.328z"/>
</g>
<g>
	<path fill="#FFFFFF" d="M34.765,478.5h0.815l2.699-7.531h1.354l2.697,7.531h0.815v0.936h-2.938V478.5h0.899l-0.66-1.883H37.45
		l-0.66,1.883h0.912v0.936h-2.938L34.765,478.5L34.765,478.5z M40.15,475.658l-1.032-2.938c-0.12-0.348-0.145-0.646-0.145-0.646
		h-0.036c0,0-0.035,0.299-0.144,0.646l-1.044,2.938H40.15z"/>
	<path fill="#FFFFFF" d="M46.86,478.537h0.946v-4.271H46.8v-0.9h1.007v-0.299c0-1.943,1.465-2.184,2.184-2.184
		c0.324,0,0.553,0.037,0.553,0.037v0.959c0,0-0.156-0.037-0.433-0.037c-0.385,0-1.141,0.107-1.141,1.199v0.324h1.464v0.9H48.97v4.27
		h1.115v0.898h-3.226L46.86,478.537L46.86,478.537z"/>
	<path fill="#FFFFFF" d="M54.719,475.705h0.385v-0.229c0-0.959-0.553-1.295-1.297-1.295c-0.959,0-1.737,0.588-1.737,0.588
		l-0.47-0.828c0,0,0.89-0.719,2.304-0.719c1.548,0,2.362,0.803,2.362,2.338v2.709c0,0.182,0.097,0.266,0.265,0.266h0.61v0.898H55.93
		c-0.539,0-0.756-0.264-0.756-0.66v-0.084c0-0.24,0.049-0.396,0.049-0.396h-0.023c0,0-0.528,1.283-2.004,1.283
		c-1.008,0-2.015-0.588-2.015-1.834C51.181,475.838,53.711,475.705,54.719,475.705z M53.447,478.68c1.031,0,1.667-1.055,1.667-1.967
		v-0.252h-0.3c-0.553,0-2.459,0.023-2.459,1.188C52.355,478.188,52.752,478.68,53.447,478.68z"/>
	<path fill="#FFFFFF" d="M61.139,473.223c0.898,0,2.375,0.336,2.375,1.379v0.744h-1.031v-0.42c0-0.467-0.769-0.695-1.309-0.695
		c-1.223,0-2.062,0.863-2.062,2.16c0,1.379,0.972,2.184,2.135,2.184c1.031,0,1.727-0.613,1.942-0.781l0.443,0.852
		c-0.275,0.252-1.15,0.938-2.435,0.938c-1.751,0-3.274-1.211-3.274-3.168C57.924,474.555,59.327,473.223,61.139,473.223z"/>
	<path fill="#FFFFFF" d="M64.656,478.537h0.947v-4.271h-1.009v-0.9h2.171v5.17h0.96v0.898h-3.069V478.537z M65.579,470.969h1.224
		v1.188h-1.224V470.969z"/>
	<path fill="#FFFFFF" d="M72.046,475.705h0.384v-0.229c0-0.959-0.551-1.295-1.295-1.295c-0.959,0-1.738,0.588-1.738,0.588
		l-0.469-0.828c0,0,0.889-0.719,2.303-0.719c1.548,0,2.363,0.803,2.363,2.338v2.709c0,0.182,0.096,0.266,0.265,0.266h0.61v0.898
		h-1.211c-0.54,0-0.756-0.264-0.756-0.66v-0.084c0-0.24,0.048-0.396,0.048-0.396h-0.024c0,0-0.526,1.283-2.002,1.283
		c-1.008,0-2.016-0.588-2.016-1.834C68.508,475.838,71.039,475.705,72.046,475.705z M70.775,478.68c1.03,0,1.666-1.055,1.666-1.967
		v-0.252h-0.299c-0.554,0-2.459,0.023-2.459,1.188C69.684,478.188,70.079,478.68,70.775,478.68z"/>
	<path fill="#FFFFFF" d="M75.721,471.867h-1.008v-0.898h2.17v6.668c0,0.516,0.121,0.863,0.648,0.863c0.19,0,0.323-0.014,0.323-0.014
		l-0.013,0.959c0,0-0.239,0.025-0.516,0.025c-0.863,0-1.606-0.348-1.606-1.764L75.721,471.867L75.721,471.867z"/>
	<path fill="#FFFFFF" d="M84.742,473.223c1.728,0,2.627,1.271,2.627,2.842c0,0.156-0.035,0.445-0.035,0.445h-4.438
		c0.071,1.342,1.021,2.062,2.099,2.062c1.057,0,1.812-0.684,1.812-0.684l0.479,0.852c0,0-0.911,0.84-2.362,0.84
		c-1.907,0-3.214-1.379-3.214-3.178C81.709,474.471,83.016,473.223,84.742,473.223z M86.17,475.766
		c-0.035-1.068-0.684-1.619-1.451-1.619c-0.887,0-1.607,0.6-1.775,1.619H86.17z"/>
	<path fill="#FFFFFF" d="M88.32,478.537h0.912l1.45-2.232l-1.344-2.039h-0.983v-0.9h1.702l1.08,1.764
		c0.107,0.18,0.204,0.396,0.204,0.396h0.024c0,0,0.096-0.205,0.215-0.396l1.104-1.764h1.607v0.9h-0.924l-1.355,2.027l1.5,2.244
		h0.815v0.898H92.78l-1.224-1.967c-0.119-0.18-0.216-0.385-0.216-0.385h-0.023c0,0-0.084,0.191-0.216,0.396l-1.199,1.955h-1.583
		L88.32,478.537L88.32,478.537z"/>
	<path fill="#FFFFFF" d="M96.096,480.934v-6.404c0-0.18-0.096-0.264-0.264-0.264h-0.744v-0.898h1.344c0.539,0,0.743,0.238,0.743,0.6
		v0.047c0,0.193-0.024,0.348-0.024,0.348h0.024c0,0,0.504-1.139,2.039-1.139c1.631,0,2.663,1.295,2.663,3.178
		c0,1.932-1.164,3.18-2.747,3.18c-1.331,0-1.883-1.033-1.883-1.033h-0.024c0,0,0.036,0.217,0.036,0.529v1.857h0.96v0.9h-3.07v-0.9
		H96.096z M98.949,478.572c0.96,0,1.752-0.779,1.752-2.158c0-1.32-0.708-2.172-1.728-2.172c-0.899,0-1.739,0.637-1.739,2.184
		C97.234,477.504,97.822,478.572,98.949,478.572z"/>
	<path fill="#FFFFFF" d="M102.984,478.537h0.91v-4.008c0-0.18-0.097-0.264-0.264-0.264h-0.756v-0.898h1.367
		c0.527,0,0.779,0.215,0.779,0.707v0.385c0,0.238-0.023,0.418-0.023,0.418h0.023c0.275-0.887,0.982-1.582,1.918-1.582
		c0.156,0,0.302,0.023,0.302,0.023v1.15c0,0-0.146-0.035-0.336-0.035c-1.296,0-1.849,1.307-1.849,2.494v1.607h0.9v0.898h-2.975
		v-0.896H102.984z"/>
	<path fill="#FFFFFF" d="M110.986,473.223c1.727,0,2.627,1.271,2.627,2.842c0,0.156-0.037,0.445-0.037,0.445h-4.438
		c0.072,1.342,1.021,2.062,2.101,2.062c1.055,0,1.811-0.684,1.811-0.684l0.48,0.852c0,0-0.912,0.84-2.363,0.84
		c-1.907,0-3.215-1.379-3.215-3.178C107.951,474.471,109.259,473.223,110.986,473.223z M112.413,475.766
		c-0.036-1.068-0.685-1.619-1.451-1.619c-0.888,0-1.606,0.6-1.774,1.619H112.413z"/>
	<path fill="#FFFFFF" d="M114.6,477.48h1.021v0.396c0,0.516,0.719,0.754,1.391,0.754c0.685,0,1.225-0.275,1.225-0.779
		c0-0.611-0.673-0.803-1.512-1.104c-0.899-0.336-1.896-0.744-1.896-1.848c0-1.197,1.188-1.678,2.243-1.678
		c0.852,0,2.099,0.334,2.099,1.223v0.73h-1.02v-0.395c0-0.373-0.479-0.625-1.067-0.625c-0.576,0-1.08,0.24-1.08,0.732
		c0,0.576,0.672,0.814,1.404,1.066c0.936,0.312,2.002,0.709,2.002,1.836c0,1.15-1.056,1.787-2.435,1.787
		c-1.104,0-2.375-0.492-2.375-1.451V477.48L114.6,477.48z"/>
	<path fill="#FFFFFF" d="M120.371,477.48h1.02v0.396c0,0.516,0.721,0.754,1.393,0.754c0.684,0,1.224-0.275,1.224-0.779
		c0-0.611-0.672-0.803-1.512-1.104c-0.899-0.336-1.896-0.744-1.896-1.848c0-1.197,1.188-1.678,2.242-1.678
		c0.853,0,2.1,0.334,2.1,1.223v0.73h-1.02v-0.395c0-0.373-0.48-0.625-1.068-0.625c-0.574,0-1.078,0.24-1.078,0.732
		c0,0.576,0.672,0.814,1.402,1.066c0.937,0.312,2.003,0.709,2.003,1.836c0,1.15-1.056,1.787-2.435,1.787
		c-1.104,0-2.375-0.492-2.375-1.451V477.48L120.371,477.48z"/>
	<path fill="#FFFFFF" d="M126.239,478.537h0.946v-4.271h-1.007v-0.9h2.171v5.17h0.959v0.898h-3.069V478.537L126.239,478.537z
		 M127.162,470.969h1.225v1.188h-1.225V470.969z"/>
	<path fill="#FFFFFF" d="M133.39,473.223c1.812,0,3.274,1.332,3.274,3.166c0,1.848-1.463,3.191-3.274,3.191
		c-1.811,0-3.273-1.344-3.273-3.191C130.115,474.555,131.578,473.223,133.39,473.223z M133.39,478.572
		c1.141,0,2.087-0.912,2.087-2.184c0-1.258-0.946-2.158-2.087-2.158c-1.15,0-2.087,0.898-2.087,2.158
		C131.303,477.66,132.238,478.572,133.39,478.572z"/>
	<path fill="#FFFFFF" d="M137.676,478.537h0.947v-4.008c0-0.18-0.096-0.264-0.264-0.264h-0.744v-0.898h1.367
		c0.526,0,0.768,0.227,0.768,0.672v0.311c0,0.191-0.035,0.35-0.035,0.35h0.023c0.118-0.324,0.827-1.477,2.362-1.477
		c1.392,0,2.015,0.779,2.015,2.328v2.986h0.96v0.898h-2.123v-3.623c0-0.852-0.167-1.521-1.141-1.521
		c-1.223,0-2.025,1.115-2.025,2.326v1.92h0.96v0.898h-3.07V478.537L137.676,478.537z"/>
	<path fill="#FFFFFF" d="M152.062,473.223c0.898,0,2.375,0.336,2.375,1.379v0.744h-1.032v-0.42c0-0.467-0.769-0.695-1.308-0.695
		c-1.223,0-2.062,0.863-2.062,2.16c0,1.379,0.971,2.184,2.135,2.184c1.031,0,1.728-0.613,1.942-0.781l0.443,0.852
		c-0.275,0.252-1.151,0.938-2.436,0.938c-1.75,0-3.273-1.211-3.273-3.168C148.848,474.555,150.25,473.223,152.062,473.223z"/>
	<path fill="#FFFFFF" d="M158.938,475.705h0.385v-0.229c0-0.959-0.553-1.295-1.296-1.295c-0.959,0-1.738,0.588-1.738,0.588
		l-0.469-0.828c0,0,0.889-0.719,2.303-0.719c1.548,0,2.363,0.803,2.363,2.338v2.709c0,0.182,0.096,0.266,0.264,0.266h0.611v0.898
		h-1.212c-0.538,0-0.756-0.264-0.756-0.66v-0.084c0-0.24,0.049-0.396,0.049-0.396h-0.023c0,0-0.528,1.283-2.003,1.283
		c-1.009,0-2.016-0.588-2.016-1.834C155.398,475.838,157.93,475.705,158.938,475.705z M157.666,478.68
		c1.031,0,1.667-1.055,1.667-1.967v-0.252h-0.3c-0.553,0-2.459,0.023-2.459,1.188C156.574,478.188,156.971,478.68,157.666,478.68z"
		/>
	<path fill="#FFFFFF" d="M162.238,478.537h0.946v-4.008c0-0.18-0.096-0.264-0.264-0.264h-0.743v-0.898h1.367
		c0.527,0,0.768,0.227,0.768,0.672v0.311c0,0.191-0.036,0.35-0.036,0.35h0.024c0.12-0.324,0.827-1.477,2.362-1.477
		c1.392,0,2.016,0.779,2.016,2.328v2.986h0.959v0.898h-2.123v-3.623c0-0.852-0.168-1.521-1.139-1.521
		c-1.225,0-2.027,1.115-2.027,2.326v1.92h0.959v0.898h-3.069V478.537L162.238,478.537z"/>
	<path fill="#FFFFFF" d="M176.625,473.223c0.899,0,2.375,0.336,2.375,1.379v0.744h-1.031v-0.42c0-0.467-0.768-0.695-1.308-0.695
		c-1.224,0-2.063,0.863-2.063,2.16c0,1.379,0.974,2.184,2.136,2.184c1.031,0,1.728-0.613,1.942-0.781l0.443,0.852
		c-0.275,0.252-1.15,0.938-2.434,0.938c-1.752,0-3.274-1.211-3.274-3.168C173.411,474.555,174.814,473.223,176.625,473.223z"/>
	<path fill="#FFFFFF" d="M183.32,473.223c1.812,0,3.274,1.332,3.274,3.166c0,1.848-1.464,3.191-3.274,3.191
		c-1.812,0-3.273-1.344-3.273-3.191C180.047,474.555,181.51,473.223,183.32,473.223z M183.32,478.572
		c1.14,0,2.088-0.912,2.088-2.184c0-1.258-0.948-2.158-2.088-2.158c-1.15,0-2.086,0.898-2.086,2.158
		C181.234,477.66,182.17,478.572,183.32,478.572z"/>
	<path fill="#FFFFFF" d="M187.605,478.537h0.947v-4.008c0-0.18-0.096-0.264-0.264-0.264h-0.743v-0.898h1.367
		c0.527,0,0.768,0.227,0.768,0.672v0.311c0,0.191-0.036,0.35-0.036,0.35h0.024c0.12-0.324,0.827-1.477,2.362-1.477
		c1.392,0,2.016,0.779,2.016,2.328v2.986h0.959v0.898h-2.123v-3.623c0-0.852-0.168-1.521-1.139-1.521
		c-1.225,0-2.027,1.115-2.027,2.326v1.92h0.959v0.898h-3.07V478.537L187.605,478.537z"/>
	<path fill="#FFFFFF" d="M195.238,473.367h2.723v0.9h-0.779l1.283,3.537c0.096,0.264,0.133,0.564,0.133,0.564h0.035
		c0,0,0.036-0.301,0.132-0.564l1.296-3.537h-0.778v-0.9h2.71v0.9h-0.756l-1.968,5.168h-1.308l-1.955-5.168h-0.768V473.367z"/>
	<path fill="#FFFFFF" d="M205.58,473.223c1.727,0,2.627,1.271,2.627,2.842c0,0.156-0.036,0.445-0.036,0.445h-4.438
		c0.071,1.342,1.021,2.062,2.1,2.062c1.056,0,1.811-0.684,1.811-0.684l0.48,0.852c0,0-0.912,0.84-2.363,0.84
		c-1.906,0-3.214-1.379-3.214-3.178C202.546,474.471,203.854,473.223,205.58,473.223z M207.008,475.766
		c-0.036-1.068-0.684-1.619-1.451-1.619c-0.888,0-1.606,0.6-1.774,1.619H207.008z"/>
	<path fill="#FFFFFF" d="M210.346,480.982c0.517,0,0.911-0.359,1.115-0.84l0.252-0.6l-2.123-5.277h-0.768v-0.898h2.771v0.898h-0.804
		l1.354,3.611c0.084,0.264,0.107,0.527,0.107,0.527h0.037c0,0,0.047-0.264,0.143-0.527l1.345-3.611h-0.779v-0.898h2.687v0.898
		h-0.756l-2.397,6.129c-0.407,1.031-1.199,1.559-2.136,1.559c-0.779,0-1.308-0.385-1.308-0.385l0.396-0.875
		C209.482,480.695,209.83,480.982,210.346,480.982z"/>
	<path fill="#FFFFFF" d="M219.273,477.48h1.02v0.396c0,0.516,0.721,0.754,1.393,0.754c0.685,0,1.224-0.275,1.224-0.779
		c0-0.611-0.672-0.803-1.513-1.104c-0.897-0.336-1.895-0.744-1.895-1.848c0-1.197,1.188-1.678,2.242-1.678
		c0.852,0,2.1,0.334,2.1,1.223v0.73h-1.02v-0.395c0-0.373-0.479-0.625-1.067-0.625c-0.575,0-1.079,0.24-1.079,0.732
		c0,0.576,0.672,0.814,1.402,1.066c0.936,0.312,2.004,0.709,2.004,1.836c0,1.15-1.057,1.787-2.437,1.787
		c-1.104,0-2.374-0.492-2.374-1.451V477.48L219.273,477.48z"/>
	<path fill="#FFFFFF" d="M228.32,473.223c1.811,0,3.273,1.332,3.273,3.166c0,1.848-1.464,3.191-3.273,3.191
		c-1.811,0-3.274-1.344-3.274-3.191C225.046,474.555,226.51,473.223,228.32,473.223z M228.32,478.572
		c1.14,0,2.087-0.912,2.087-2.184c0-1.258-0.947-2.158-2.087-2.158c-1.151,0-2.088,0.898-2.088,2.158
		C226.232,477.66,227.169,478.572,228.32,478.572z"/>
	<path fill="#FFFFFF" d="M235.654,478.537h0.946v-4.02c0-0.166-0.096-0.25-0.264-0.25h-0.744v-0.9h1.367
		c0.516,0,0.768,0.229,0.768,0.672v0.312c0,0.191-0.035,0.348-0.035,0.348h0.023c0.3-0.721,1.176-1.475,2.158-1.475
		c0.973,0,1.571,0.443,1.774,1.426h0.023c0.336-0.756,1.176-1.426,2.172-1.426c1.343,0,1.979,0.779,1.979,2.326v2.986h0.959v0.898
		h-2.123v-3.633c0-0.852-0.154-1.523-1.065-1.523c-1.141,0-1.787,1.164-1.787,2.363v1.895h0.947v0.898h-2.111v-3.633
		c0-0.793-0.119-1.523-1.055-1.523c-1.151,0-1.823,1.225-1.823,2.41v1.848h0.96v0.898h-3.07L235.654,478.537L235.654,478.537z"/>
	<path fill="#FFFFFF" d="M248.254,474.266h-1.02v-0.9h2.184v3.646c0,0.84,0.167,1.512,1.139,1.512c1.211,0,1.968-1.164,1.968-2.363
		v-1.895h-1.021v-0.9h2.184v4.916c0,0.168,0.097,0.266,0.265,0.266h0.635v0.887h-1.259c-0.528,0-0.768-0.24-0.768-0.672v-0.264
		c0-0.203,0.023-0.359,0.023-0.359h-0.023c-0.12,0.324-0.805,1.439-2.315,1.439c-1.307,0-1.99-0.721-1.99-2.328L248.254,474.266
		L248.254,474.266z"/>
	<path fill="#FFFFFF" d="M258.62,473.223c0.899,0,2.375,0.336,2.375,1.379v0.744h-1.032v-0.42c0-0.467-0.768-0.695-1.307-0.695
		c-1.224,0-2.062,0.863-2.062,2.16c0,1.379,0.971,2.184,2.135,2.184c1.031,0,1.728-0.613,1.942-0.781l0.444,0.852
		c-0.276,0.252-1.152,0.938-2.437,0.938c-1.75,0-3.272-1.211-3.272-3.168C255.406,474.555,256.809,473.223,258.62,473.223z"/>
	<path fill="#FFFFFF" d="M261.945,478.537h0.96v-6.668h-1.021v-0.9h2.171v3.143c0,0.287-0.036,0.504-0.036,0.504h0.024
		c0.264-0.588,1.055-1.391,2.267-1.391c1.428,0,2.088,0.779,2.088,2.326v2.986h0.946v0.898h-2.11v-3.621
		c0-0.852-0.181-1.523-1.15-1.523c-1.188,0-2.027,1.008-2.027,2.303v1.943h0.959v0.898h-3.069L261.945,478.537L261.945,478.537z"/>
	<path fill="#FFFFFF" d="M273.226,478.537h0.947v-4.271h-1.007v-0.9h2.17v5.17h0.96v0.898h-3.069L273.226,478.537L273.226,478.537z
		 M274.148,470.969h1.225v1.188h-1.225V470.969z"/>
	<path fill="#FFFFFF" d="M277.258,478.537h0.947v-4.008c0-0.18-0.096-0.264-0.264-0.264h-0.744v-0.898h1.366
		c0.528,0,0.769,0.227,0.769,0.672v0.311c0,0.191-0.035,0.35-0.035,0.35h0.022c0.12-0.324,0.828-1.477,2.363-1.477
		c1.392,0,2.015,0.779,2.015,2.328v2.986h0.961v0.898h-2.123v-3.623c0-0.852-0.168-1.521-1.141-1.521
		c-1.224,0-2.025,1.115-2.025,2.326v1.92h0.959v0.898h-3.07V478.537L277.258,478.537z"/>
	<path fill="#FFFFFF" d="M291.884,475.705h0.384v-0.229c0-0.959-0.551-1.295-1.295-1.295c-0.959,0-1.738,0.588-1.738,0.588
		l-0.469-0.828c0,0,0.889-0.719,2.303-0.719c1.548,0,2.363,0.803,2.363,2.338v2.709c0,0.182,0.096,0.266,0.265,0.266h0.61v0.898
		h-1.211c-0.54,0-0.756-0.264-0.756-0.66v-0.084c0-0.24,0.048-0.396,0.048-0.396h-0.024c0,0-0.526,1.283-2.002,1.283
		c-1.008,0-2.016-0.588-2.016-1.834C288.346,475.838,290.877,475.705,291.884,475.705z M290.613,478.68
		c1.03,0,1.666-1.055,1.666-1.967v-0.252h-0.299c-0.554,0-2.459,0.023-2.459,1.188C289.521,478.188,289.917,478.68,290.613,478.68z"
		/>
	<path fill="#FFFFFF" d="M298.186,478.537h0.947v-4.02c0-0.166-0.096-0.25-0.264-0.25h-0.744v-0.9h1.367
		c0.517,0,0.768,0.229,0.768,0.672v0.312c0,0.191-0.035,0.348-0.035,0.348h0.023c0.301-0.721,1.176-1.475,2.158-1.475
		c0.973,0,1.571,0.443,1.774,1.426h0.024c0.336-0.756,1.176-1.426,2.171-1.426c1.344,0,1.979,0.779,1.979,2.326v2.986h0.96v0.898
		h-2.123v-3.633c0-0.852-0.154-1.523-1.066-1.523c-1.14,0-1.787,1.164-1.787,2.363v1.895h0.947v0.898h-2.11v-3.633
		c0-0.793-0.12-1.523-1.056-1.523c-1.151,0-1.822,1.225-1.822,2.41v1.848h0.959v0.898h-3.07V478.537L298.186,478.537z"/>
	<path fill="#FFFFFF" d="M313.544,475.705h0.384v-0.229c0-0.959-0.552-1.295-1.295-1.295c-0.96,0-1.74,0.588-1.74,0.588
		l-0.467-0.828c0,0,0.887-0.719,2.303-0.719c1.547,0,2.362,0.803,2.362,2.338v2.709c0,0.182,0.097,0.266,0.265,0.266h0.611v0.898
		h-1.212c-0.54,0-0.755-0.264-0.755-0.66v-0.084c0-0.24,0.047-0.396,0.047-0.396h-0.022c0,0-0.527,1.283-2.003,1.283
		c-1.008,0-2.016-0.588-2.016-1.834C310.006,475.838,312.536,475.705,313.544,475.705z M312.271,478.68
		c1.031,0,1.668-1.055,1.668-1.967v-0.252h-0.301c-0.552,0-2.458,0.023-2.458,1.188C311.182,478.188,311.576,478.68,312.271,478.68z
		"/>
	<path fill="#FFFFFF" d="M317.422,474.266h-1.02v-0.9h1.043v-1.666h1.14v1.666h1.452v0.9h-1.452v2.842
		c0,1.236,0.84,1.393,1.296,1.393c0.168,0,0.275-0.014,0.275-0.014v0.973c0,0-0.168,0.023-0.42,0.023
		c-0.769,0-2.314-0.24-2.314-2.268V474.266z"/>
	<path fill="#FFFFFF" d="M321.742,474.266h-1.021v-0.9h1.043v-1.666h1.141v1.666h1.45v0.9h-1.45v2.842
		c0,1.236,0.839,1.393,1.295,1.393c0.168,0,0.275-0.014,0.275-0.014v0.973c0,0-0.168,0.023-0.42,0.023
		c-0.768,0-2.313-0.24-2.313-2.268V474.266z"/>
	<path fill="#FFFFFF" d="M328.352,473.223c1.729,0,2.627,1.271,2.627,2.842c0,0.156-0.035,0.445-0.035,0.445h-4.438
		c0.071,1.342,1.02,2.062,2.098,2.062c1.058,0,1.812-0.684,1.812-0.684l0.479,0.852c0,0-0.91,0.84-2.361,0.84
		c-1.907,0-3.215-1.379-3.215-3.178C325.318,474.471,326.625,473.223,328.352,473.223z M329.779,475.766
		c-0.035-1.068-0.685-1.619-1.451-1.619c-0.887,0-1.607,0.6-1.775,1.619H329.779z"/>
	<path fill="#FFFFFF" d="M332.086,478.537h0.912v-4.008c0-0.18-0.098-0.264-0.266-0.264h-0.755v-0.898h1.367
		c0.527,0,0.779,0.215,0.779,0.707v0.385c0,0.238-0.023,0.418-0.023,0.418h0.023c0.274-0.887,0.983-1.582,1.919-1.582
		c0.155,0,0.3,0.023,0.3,0.023v1.15c0,0-0.145-0.035-0.336-0.035c-1.295,0-1.848,1.307-1.848,2.494v1.607h0.899v0.898h-2.975v-0.896
		H332.086z"/>
	<path fill="#FFFFFF" d="M343.316,473.223c1.811,0,3.272,1.332,3.272,3.166c0,1.848-1.463,3.191-3.272,3.191
		c-1.812,0-3.274-1.344-3.274-3.191C340.042,474.555,341.505,473.223,343.316,473.223z M343.316,478.572
		c1.139,0,2.086-0.912,2.086-2.184c0-1.258-0.947-2.158-2.086-2.158c-1.152,0-2.089,0.898-2.089,2.158
		C341.229,477.66,342.164,478.572,343.316,478.572z"/>
	<path fill="#FFFFFF" d="M347.602,478.537h0.947v-4.271h-1.008v-0.9h1.008v-0.299c0-1.943,1.463-2.184,2.184-2.184
		c0.322,0,0.552,0.037,0.552,0.037v0.959c0,0-0.156-0.037-0.433-0.037c-0.385,0-1.14,0.107-1.14,1.199v0.324h1.464v0.9h-1.464v4.27
		h1.115v0.898h-3.227L347.602,478.537L347.602,478.537z"/>
	<path fill="#FFFFFF" d="M355.005,477.48h1.021v0.396c0,0.516,0.72,0.754,1.392,0.754c0.684,0,1.223-0.275,1.223-0.779
		c0-0.611-0.672-0.803-1.511-1.104c-0.898-0.336-1.896-0.744-1.896-1.848c0-1.197,1.188-1.678,2.243-1.678
		c0.852,0,2.099,0.334,2.099,1.223v0.73h-1.021v-0.395c0-0.373-0.479-0.625-1.065-0.625c-0.576,0-1.08,0.24-1.08,0.732
		c0,0.576,0.672,0.814,1.403,1.066c0.936,0.312,2.003,0.709,2.003,1.836c0,1.15-1.056,1.787-2.436,1.787
		c-1.104,0-2.375-0.492-2.375-1.451V477.48z"/>
	<path fill="#FFFFFF" d="M363.823,473.223c1.728,0,2.627,1.271,2.627,2.842c0,0.156-0.036,0.445-0.036,0.445h-4.438
		c0.072,1.342,1.021,2.062,2.1,2.062c1.056,0,1.812-0.684,1.812-0.684l0.479,0.852c0,0-0.911,0.84-2.362,0.84
		c-1.908,0-3.215-1.379-3.215-3.178C360.789,474.471,362.096,473.223,363.823,473.223z M365.25,475.766
		c-0.035-1.068-0.684-1.619-1.451-1.619c-0.887,0-1.605,0.6-1.773,1.619H365.25z"/>
	<path fill="#FFFFFF" d="M367.064,473.367h2.724v0.9h-0.78l1.283,3.537c0.097,0.264,0.133,0.564,0.133,0.564h0.035
		c0,0,0.037-0.301,0.133-0.564l1.295-3.537h-0.778v-0.9h2.711v0.9h-0.756l-1.968,5.168h-1.308l-1.955-5.168h-0.768L367.064,473.367
		L367.064,473.367z"/>
	<path fill="#FFFFFF" d="M377.407,473.223c1.728,0,2.627,1.271,2.627,2.842c0,0.156-0.036,0.445-0.036,0.445h-4.438
		c0.072,1.342,1.021,2.062,2.1,2.062c1.056,0,1.812-0.684,1.812-0.684l0.479,0.852c0,0-0.911,0.84-2.362,0.84
		c-1.908,0-3.215-1.379-3.215-3.178C374.373,474.471,375.68,473.223,377.407,473.223z M378.834,475.766
		c-0.035-1.068-0.684-1.619-1.451-1.619c-0.887,0-1.605,0.6-1.773,1.619H378.834z"/>
	<path fill="#FFFFFF" d="M381.141,478.537h0.912v-4.008c0-0.18-0.096-0.264-0.264-0.264h-0.756v-0.898h1.367
		c0.526,0,0.778,0.215,0.778,0.707v0.385c0,0.238-0.022,0.418-0.022,0.418h0.022c0.276-0.887,0.984-1.582,1.92-1.582
		c0.155,0,0.3,0.023,0.3,0.023v1.15c0,0-0.145-0.035-0.337-0.035c-1.295,0-1.847,1.307-1.847,2.494v1.607h0.899v0.898h-2.976v-0.896
		H381.141z"/>
	<path fill="#FFFFFF" d="M389.551,475.705h0.385v-0.229c0-0.959-0.553-1.295-1.296-1.295c-0.96,0-1.738,0.588-1.738,0.588
		l-0.469-0.828c0,0,0.889-0.719,2.304-0.719c1.548,0,2.361,0.803,2.361,2.338v2.709c0,0.182,0.098,0.266,0.265,0.266h0.612v0.898
		h-1.213c-0.539,0-0.755-0.264-0.755-0.66v-0.084c0-0.24,0.048-0.396,0.048-0.396h-0.022c0,0-0.528,1.283-2.004,1.283
		c-1.007,0-2.015-0.588-2.015-1.834C386.014,475.838,388.543,475.705,389.551,475.705z M388.279,478.68
		c1.03,0,1.668-1.055,1.668-1.967v-0.252h-0.302c-0.551,0-2.458,0.023-2.458,1.188C387.189,478.188,387.584,478.68,388.279,478.68z"
		/>
	<path fill="#FFFFFF" d="M393.225,471.867h-1.008v-0.898h2.171v6.668c0,0.516,0.12,0.863,0.647,0.863
		c0.191,0,0.324-0.014,0.324-0.014l-0.013,0.959c0,0-0.239,0.025-0.516,0.025c-0.863,0-1.607-0.348-1.607-1.764L393.225,471.867
		L393.225,471.867z"/>
	<path fill="#FFFFFF" d="M399.201,477.48h1.02v0.396c0,0.516,0.719,0.754,1.392,0.754c0.684,0,1.224-0.275,1.224-0.779
		c0-0.611-0.672-0.803-1.511-1.104c-0.9-0.336-1.896-0.744-1.896-1.848c0-1.197,1.188-1.678,2.243-1.678
		c0.853,0,2.1,0.334,2.1,1.223v0.73h-1.021v-0.395c0-0.373-0.479-0.625-1.067-0.625c-0.576,0-1.08,0.24-1.08,0.732
		c0,0.576,0.673,0.814,1.404,1.066c0.937,0.312,2.002,0.709,2.002,1.836c0,1.15-1.055,1.787-2.434,1.787
		c-1.104,0-2.375-0.492-2.375-1.451V477.48L399.201,477.48z"/>
	<path fill="#FFFFFF" d="M408.02,473.223c1.728,0,2.627,1.271,2.627,2.842c0,0.156-0.036,0.445-0.036,0.445h-4.438
		c0.072,1.342,1.021,2.062,2.1,2.062c1.056,0,1.812-0.684,1.812-0.684l0.479,0.852c0,0-0.911,0.84-2.362,0.84
		c-1.907,0-3.215-1.379-3.215-3.178C404.984,474.471,406.292,473.223,408.02,473.223z M409.446,475.766
		c-0.036-1.068-0.685-1.619-1.451-1.619c-0.888,0-1.606,0.6-1.774,1.619H409.446z"/>
	<path fill="#FFFFFF" d="M414.848,473.223c0.898,0,2.375,0.336,2.375,1.379v0.744h-1.031v-0.42c0-0.467-0.769-0.695-1.309-0.695
		c-1.223,0-2.062,0.863-2.062,2.16c0,1.379,0.972,2.184,2.135,2.184c1.031,0,1.728-0.613,1.943-0.781l0.442,0.852
		c-0.274,0.252-1.15,0.938-2.435,0.938c-1.751,0-3.274-1.211-3.274-3.168C411.633,474.555,413.036,473.223,414.848,473.223z"/>
	<path fill="#FFFFFF" d="M421.543,473.223c1.811,0,3.274,1.332,3.274,3.166c0,1.848-1.464,3.191-3.274,3.191
		s-3.274-1.344-3.274-3.191C418.269,474.555,419.732,473.223,421.543,473.223z M421.543,478.572c1.14,0,2.087-0.912,2.087-2.184
		c0-1.258-0.947-2.158-2.087-2.158c-1.151,0-2.087,0.898-2.087,2.158C419.456,477.66,420.392,478.572,421.543,478.572z"/>
	<path fill="#FFFFFF" d="M425.828,478.537h0.947v-4.008c0-0.18-0.097-0.264-0.265-0.264h-0.743v-0.898h1.367
		c0.528,0,0.768,0.227,0.768,0.672v0.311c0,0.191-0.035,0.35-0.035,0.35h0.023c0.12-0.324,0.827-1.477,2.362-1.477
		c1.392,0,2.016,0.779,2.016,2.328v2.986h0.959v0.898h-2.123v-3.623c0-0.852-0.168-1.521-1.139-1.521
		c-1.224,0-2.027,1.115-2.027,2.326v1.92h0.959v0.898h-3.069V478.537L425.828,478.537z"/>
	<path fill="#FFFFFF" d="M436.783,473.223c1.379,0,1.871,1.02,1.871,1.02h0.022c0,0-0.036-0.191-0.036-0.455v-1.92h-1.007v-0.898
		h2.17v7.303c0,0.182,0.097,0.266,0.265,0.266h0.611v0.898h-1.212c-0.539,0-0.755-0.264-0.755-0.66v-0.084
		c0-0.205,0.036-0.324,0.036-0.324h-0.024c0,0-0.49,1.211-2.051,1.211c-1.632,0-2.65-1.295-2.65-3.178
		C434.023,474.471,435.151,473.223,436.783,473.223z M436.927,478.572c0.899,0,1.751-0.648,1.751-2.158
		c0-1.115-0.563-2.172-1.715-2.172c-0.972,0-1.752,0.779-1.752,2.158C435.211,477.721,435.919,478.572,436.927,478.572z"/>
	<path fill="#FFFFFF" d="M441.548,477.48h1.021v0.396c0,0.516,0.72,0.754,1.392,0.754c0.684,0,1.223-0.275,1.223-0.779
		c0-0.611-0.672-0.803-1.511-1.104c-0.898-0.336-1.896-0.744-1.896-1.848c0-1.197,1.188-1.678,2.243-1.678
		c0.852,0,2.099,0.334,2.099,1.223v0.73h-1.021v-0.395c0-0.373-0.479-0.625-1.065-0.625c-0.576,0-1.08,0.24-1.08,0.732
		c0,0.576,0.672,0.814,1.403,1.066c0.936,0.312,2.003,0.709,2.003,1.836c0,1.15-1.056,1.787-2.436,1.787
		c-1.104,0-2.375-0.492-2.375-1.451V477.48z"/>
	<path fill="#FFFFFF" d="M447.752,478.176H449v1.26h-1.248V478.176z"/>
	<path fill="#FFFFFF" d="M453.104,470.969h3.012v0.922h-1.007l1.317,5.553c0.062,0.301,0.096,0.637,0.096,0.637h0.037
		c0,0,0.047-0.336,0.119-0.637l1.775-6.477h1.02l1.764,6.477c0.084,0.301,0.119,0.637,0.119,0.637h0.049
		c0,0,0.023-0.336,0.084-0.637l1.318-5.553h-1.008v-0.922h3.023v0.922h-0.816l-1.896,7.545h-1.366l-1.655-6.01
		c-0.084-0.299-0.108-0.67-0.108-0.67h-0.048c0,0-0.024,0.371-0.108,0.67l-1.653,6.01h-1.367l-1.883-7.545h-0.816L453.104,470.969
		L453.104,470.969z"/>
	<path fill="#FFFFFF" d="M465.404,478.537h0.959v-6.668h-1.021v-0.9h2.172v3.143c0,0.287-0.037,0.504-0.037,0.504h0.024
		c0.265-0.588,1.056-1.391,2.267-1.391c1.429,0,2.089,0.779,2.089,2.326v2.986h0.946v0.898h-2.11v-3.621
		c0-0.852-0.181-1.523-1.151-1.523c-1.188,0-2.026,1.008-2.026,2.303v1.943h0.959v0.898h-3.069L465.404,478.537L465.404,478.537z"/>
	<path fill="#FFFFFF" d="M477.042,475.705h0.384v-0.229c0-0.959-0.551-1.295-1.295-1.295c-0.959,0-1.739,0.588-1.739,0.588
		l-0.468-0.828c0,0,0.888-0.719,2.303-0.719c1.547,0,2.363,0.803,2.363,2.338v2.709c0,0.182,0.096,0.266,0.264,0.266h0.611v0.898
		h-1.211c-0.54,0-0.756-0.264-0.756-0.66v-0.084c0-0.24,0.048-0.396,0.048-0.396h-0.024c0,0-0.526,1.283-2.002,1.283
		c-1.008,0-2.016-0.588-2.016-1.834C473.504,475.838,476.035,475.705,477.042,475.705z M475.771,478.68
		c1.031,0,1.666-1.055,1.666-1.967v-0.252h-0.299c-0.553,0-2.459,0.023-2.459,1.188C474.68,478.188,475.075,478.68,475.771,478.68z"
		/>
	<path fill="#FFFFFF" d="M480.92,474.266h-1.02v-0.9h1.043v-1.666h1.14v1.666h1.452v0.9h-1.452v2.842
		c0,1.236,0.84,1.393,1.296,1.393c0.168,0,0.275-0.014,0.275-0.014v0.973c0,0-0.168,0.023-0.42,0.023
		c-0.769,0-2.314-0.24-2.314-2.268V474.266z"/>
	<path fill="#FFFFFF" d="M490.939,475.705h0.384v-0.229c0-0.959-0.552-1.295-1.295-1.295c-0.96,0-1.74,0.588-1.74,0.588
		l-0.467-0.828c0,0,0.887-0.719,2.303-0.719c1.547,0,2.362,0.803,2.362,2.338v2.709c0,0.182,0.097,0.266,0.264,0.266h0.612v0.898
		h-1.212c-0.54,0-0.756-0.264-0.756-0.66v-0.084c0-0.24,0.048-0.396,0.048-0.396h-0.023c0,0-0.526,1.283-2.003,1.283
		c-1.007,0-2.015-0.588-2.015-1.834C487.4,475.838,489.931,475.705,490.939,475.705z M489.667,478.68
		c1.031,0,1.667-1.055,1.667-1.967v-0.252h-0.3c-0.552,0-2.458,0.023-2.458,1.188C488.576,478.188,488.971,478.68,489.667,478.68z"
		/>
	<path fill="#FFFFFF" d="M494.24,478.537h0.947v-4.02c0-0.166-0.097-0.25-0.265-0.25h-0.744v-0.9h1.367
		c0.516,0,0.768,0.229,0.768,0.672v0.312c0,0.191-0.034,0.348-0.034,0.348h0.022c0.3-0.721,1.176-1.475,2.158-1.475
		c0.973,0,1.571,0.443,1.774,1.426h0.023c0.336-0.756,1.176-1.426,2.172-1.426c1.343,0,1.979,0.779,1.979,2.326v2.986h0.959v0.898
		h-2.123v-3.633c0-0.852-0.154-1.523-1.065-1.523c-1.14,0-1.787,1.164-1.787,2.363v1.895h0.947v0.898h-2.111v-3.633
		c0-0.793-0.119-1.523-1.055-1.523c-1.151,0-1.823,1.225-1.823,2.41v1.848h0.96v0.898h-3.07L494.24,478.537L494.24,478.537z"/>
	<path fill="#FFFFFF" d="M509.3,478.5h1.056v-6.607H509.3v-0.924h3.322v0.924h-1.067v6.607h1.067v0.936H509.3V478.5z"/>
	<path fill="#FFFFFF" d="M517.482,474.266h-1.02v-0.9h1.044v-1.666h1.139v1.666h1.451v0.9h-1.451v2.842
		c0,1.236,0.841,1.393,1.296,1.393c0.168,0,0.275-0.014,0.275-0.014v0.973c0,0-0.168,0.023-0.42,0.023
		c-0.768,0-2.314-0.24-2.314-2.268V474.266z"/>
	<path fill="#FFFFFF" d="M521.168,478.537h0.911v-4.008c0-0.18-0.097-0.264-0.265-0.264h-0.756v-0.898h1.367
		c0.528,0,0.78,0.215,0.78,0.707v0.385c0,0.238-0.024,0.418-0.024,0.418h0.024c0.274-0.887,0.981-1.582,1.918-1.582
		c0.156,0,0.301,0.023,0.301,0.023v1.15c0,0-0.145-0.035-0.336-0.035c-1.296,0-1.848,1.307-1.848,2.494v1.607h0.899v0.898h-2.973
		V478.537z"/>
	<path fill="#FFFFFF" d="M527.273,480.982c0.518,0,0.911-0.359,1.116-0.84l0.252-0.6l-2.123-5.277h-0.768v-0.898h2.77v0.898h-0.803
		l1.355,3.611c0.084,0.264,0.106,0.527,0.106,0.527h0.036c0,0,0.048-0.264,0.145-0.527l1.344-3.611h-0.779v-0.898h2.687v0.898
		h-0.756l-2.398,6.129c-0.407,1.031-1.199,1.559-2.135,1.559c-0.779,0-1.308-0.385-1.308-0.385l0.396-0.875
		C526.411,480.695,526.759,480.982,527.273,480.982z"/>
	<path fill="#FFFFFF" d="M533.299,478.537h0.947v-4.271h-1.007v-0.9h2.171v5.17h0.959v0.898h-3.07V478.537L533.299,478.537z
		 M534.223,470.969h1.225v1.188h-1.225V470.969z"/>
	<path fill="#FFFFFF" d="M537.332,478.537h0.947v-4.008c0-0.18-0.097-0.264-0.265-0.264h-0.744v-0.898h1.367
		c0.527,0,0.769,0.227,0.769,0.672v0.311c0,0.191-0.035,0.35-0.035,0.35h0.022c0.119-0.324,0.828-1.477,2.363-1.477
		c1.391,0,2.014,0.779,2.014,2.328v2.986h0.96v0.898h-2.123v-3.623c0-0.852-0.167-1.521-1.14-1.521
		c-1.224,0-2.026,1.115-2.026,2.326v1.92h0.96v0.898h-3.069V478.537L537.332,478.537z"/>
	<path fill="#FFFFFF" d="M548.143,480.971c1.056,0,1.918-0.479,1.918-1.727v-0.48c0-0.189,0.037-0.383,0.037-0.383h-0.023
		c-0.36,0.6-0.937,0.984-1.823,0.984c-1.679,0-2.711-1.355-2.711-3.107c0-1.738,0.973-3.033,2.663-3.033
		c0.792,0,1.632,0.299,1.967,0.994h0.023c0,0-0.023-0.084-0.023-0.24c0-0.383,0.191-0.611,0.696-0.611h1.295v0.9h-0.672
		c-0.156,0-0.265,0.084-0.265,0.24v4.676c0,2.004-1.522,2.771-3.059,2.771c-0.731,0-1.475-0.203-2.074-0.504l0.383-0.887
		C546.475,480.562,547.23,480.971,548.143,480.971z M550.085,476.27c0-1.584-0.768-2.039-1.715-2.039
		c-1.044,0-1.645,0.768-1.645,2.002c0,1.26,0.66,2.123,1.752,2.123C549.317,478.355,550.085,477.852,550.085,476.27z"/>
	<path fill="#FFFFFF" d="M556.771,474.266h-1.02v-0.9h1.043v-1.666h1.14v1.666h1.451v0.9h-1.451v2.842
		c0,1.236,0.839,1.393,1.296,1.393c0.168,0,0.275-0.014,0.275-0.014v0.973c0,0-0.168,0.023-0.42,0.023
		c-0.768,0-2.314-0.24-2.314-2.268V474.266z"/>
	<path fill="#FFFFFF" d="M563.609,473.223c1.811,0,3.273,1.332,3.273,3.166c0,1.848-1.464,3.191-3.273,3.191
		c-1.811,0-3.274-1.344-3.274-3.191C560.335,474.555,561.799,473.223,563.609,473.223z M563.609,478.572
		c1.14,0,2.087-0.912,2.087-2.184c0-1.258-0.947-2.158-2.087-2.158c-1.151,0-2.088,0.898-2.088,2.158
		C561.521,477.66,562.458,478.572,563.609,478.572z"/>
	<path fill="#FFFFFF" d="M38.326,487.623c0.899,0,2.375,0.336,2.375,1.379v0.744H39.67v-0.42c0-0.467-0.768-0.695-1.307-0.695
		c-1.225,0-2.063,0.863-2.063,2.16c0,1.379,0.972,2.182,2.135,2.182c1.032,0,1.729-0.611,1.942-0.779l0.444,0.852
		c-0.276,0.252-1.151,0.936-2.436,0.936c-1.751,0-3.274-1.211-3.274-3.166C35.112,488.955,36.516,487.623,38.326,487.623z"/>
	<path fill="#FFFFFF" d="M45.021,487.623c1.812,0,3.274,1.332,3.274,3.166c0,1.848-1.463,3.189-3.274,3.189
		c-1.811,0-3.273-1.342-3.273-3.189C41.748,488.955,43.211,487.623,45.021,487.623z M45.021,492.973
		c1.141,0,2.088-0.912,2.088-2.184c0-1.258-0.947-2.158-2.088-2.158c-1.15,0-2.087,0.898-2.087,2.158
		C42.936,492.061,43.871,492.973,45.021,492.973z"/>
	<path fill="#FFFFFF" d="M49.309,492.936h0.947v-4.006c0-0.18-0.096-0.264-0.264-0.264h-0.744v-0.9h1.367
		c0.526,0,0.768,0.229,0.768,0.672v0.312c0,0.191-0.035,0.348-0.035,0.348h0.023c0.119-0.324,0.828-1.475,2.362-1.475
		c1.392,0,2.015,0.779,2.015,2.328v2.984h0.96v0.9h-2.123v-3.623c0-0.852-0.167-1.523-1.141-1.523c-1.223,0-2.025,1.115-2.025,2.328
		v1.918h0.96v0.9h-3.07V492.936L49.309,492.936z"/>
	<path fill="#FFFFFF" d="M56.939,487.768h2.724v0.9h-0.78l1.283,3.537c0.097,0.264,0.133,0.562,0.133,0.562h0.035
		c0,0,0.037-0.299,0.133-0.562l1.295-3.537h-0.778v-0.9h2.711v0.9h-0.756l-1.968,5.168h-1.308l-1.955-5.168H56.94L56.939,487.768
		L56.939,487.768z"/>
	<path fill="#FFFFFF" d="M67.283,487.623c1.727,0,2.627,1.271,2.627,2.842c0,0.156-0.037,0.443-0.037,0.443h-4.438
		c0.072,1.344,1.021,2.064,2.101,2.064c1.055,0,1.811-0.684,1.811-0.684l0.48,0.852c0,0-0.912,0.84-2.363,0.84
		c-1.907,0-3.215-1.379-3.215-3.178C64.248,488.871,65.556,487.623,67.283,487.623z M68.71,490.166
		c-0.036-1.066-0.684-1.619-1.451-1.619c-0.888,0-1.605,0.6-1.774,1.619H68.71z"/>
	<path fill="#FFFFFF" d="M72.048,495.383c0.517,0,0.911-0.359,1.116-0.84l0.252-0.6l-2.123-5.277h-0.768v-0.9h2.77v0.9h-0.803
		l1.354,3.609c0.084,0.266,0.107,0.529,0.107,0.529h0.036c0,0,0.048-0.264,0.144-0.529l1.345-3.609h-0.779v-0.9h2.686v0.9h-0.756
		l-2.397,6.129c-0.407,1.031-1.199,1.559-2.136,1.559c-0.778,0-1.307-0.385-1.307-0.385l0.396-0.875
		C71.185,495.096,71.532,495.383,72.048,495.383z"/>
	<path fill="#FFFFFF" d="M81.732,488.668h-1.021v-0.9h1.043V486.1h1.14v1.668h1.452v0.9h-1.452v2.842
		c0,1.234,0.84,1.391,1.297,1.391c0.168,0,0.274-0.012,0.274-0.012v0.971c0,0-0.168,0.023-0.42,0.023
		c-0.768,0-2.313-0.24-2.313-2.268V488.668z"/>
	<path fill="#FFFFFF" d="M85.201,492.936h0.959v-6.668H85.14v-0.898h2.171v3.143c0,0.287-0.035,0.504-0.035,0.504h0.022
		c0.265-0.588,1.057-1.391,2.268-1.391c1.429,0,2.087,0.777,2.087,2.326v2.986H92.6v0.898H90.49v-3.621
		c0-0.852-0.181-1.523-1.152-1.523c-1.188,0-2.026,1.008-2.026,2.303v1.943h0.96v0.898h-3.069L85.201,492.936L85.201,492.936z"/>
	<path fill="#FFFFFF" d="M96.658,487.623c1.812,0,3.274,1.332,3.274,3.166c0,1.848-1.464,3.189-3.274,3.189
		c-1.812,0-3.273-1.342-3.273-3.189C93.385,488.955,94.848,487.623,96.658,487.623z M96.658,492.973c1.14,0,2.088-0.912,2.088-2.184
		c0-1.258-0.948-2.158-2.088-2.158c-1.15,0-2.086,0.898-2.086,2.158C94.572,492.061,95.508,492.973,96.658,492.973z"/>
	<path fill="#FFFFFF" d="M101.676,488.668h-1.02v-0.9h2.184v3.646c0,0.84,0.167,1.51,1.139,1.51c1.212,0,1.968-1.162,1.968-2.363
		v-1.895h-1.021v-0.9h2.185v4.918c0,0.168,0.096,0.264,0.264,0.264h0.635v0.889h-1.259c-0.528,0-0.768-0.24-0.768-0.672v-0.266
		c0-0.203,0.023-0.359,0.023-0.359h-0.023c-0.12,0.324-0.805,1.439-2.315,1.439c-1.307,0-1.99-0.721-1.99-2.328L101.676,488.668
		L101.676,488.668z"/>
	<path fill="#FFFFFF" d="M111.467,495.371c1.055,0,1.918-0.479,1.918-1.727v-0.48c0-0.191,0.037-0.383,0.037-0.383h-0.024
		c-0.359,0.6-0.936,0.982-1.822,0.982c-1.68,0-2.712-1.354-2.712-3.105c0-1.738,0.974-3.033,2.663-3.033
		c0.792,0,1.632,0.299,1.968,0.994h0.023c0,0-0.023-0.084-0.023-0.24c0-0.383,0.191-0.611,0.695-0.611h1.295v0.9h-0.672
		c-0.155,0-0.264,0.084-0.264,0.24v4.676c0,2.004-1.523,2.771-3.059,2.771c-0.731,0-1.476-0.205-2.074-0.504l0.383-0.887
		C109.799,494.963,110.555,495.371,111.467,495.371z M113.409,490.67c0-1.582-0.769-2.039-1.715-2.039
		c-1.044,0-1.645,0.768-1.645,2.004c0,1.258,0.66,2.123,1.752,2.123C112.642,492.756,113.409,492.254,113.409,490.67z"/>
	<path fill="#FFFFFF" d="M116.184,492.936h0.96v-6.668h-1.02v-0.898h2.171v3.143c0,0.287-0.036,0.504-0.036,0.504h0.024
		c0.264-0.588,1.055-1.391,2.267-1.391c1.427,0,2.087,0.777,2.087,2.326v2.986h0.947v0.898h-2.111v-3.621
		c0-0.852-0.18-1.523-1.149-1.523c-1.188,0-2.027,1.008-2.027,2.303v1.943h0.959v0.898h-3.069v-0.9H116.184z"/>
	<path fill="#FFFFFF" d="M125.663,490.945c0-1.822,2.039-2.086,2.039-3.467c0-0.672-0.575-1.188-1.367-1.188
		c-0.756,0-1.367,0.504-1.367,0.504l-0.646-0.828c0,0,0.791-0.768,2.099-0.768c1.354,0,2.507,0.863,2.507,2.195
		c0,1.979-2.123,2.184-2.123,3.621v0.492h-1.14L125.663,490.945L125.663,490.945z M125.627,492.66h1.211v1.176h-1.211V492.66z"/>
	<path fill="#FFFFFF" d="M134.256,491.293v0.625c0,0.623,0.803,0.996,1.69,0.996c0.972,0,1.679-0.457,1.679-1.295
		c0-0.984-0.995-1.309-2.039-1.717c-1.115-0.42-2.254-0.898-2.254-2.398c0-1.594,1.283-2.279,2.71-2.279
		c1.271,0,2.567,0.48,2.567,1.404v0.996h-1.116v-0.588c0-0.492-0.755-0.756-1.451-0.756c-0.827,0-1.487,0.385-1.487,1.162
		c0,0.9,0.853,1.199,1.799,1.561c1.248,0.467,2.482,0.947,2.482,2.518c0,1.619-1.318,2.459-2.891,2.459
		c-1.318,0-2.793-0.588-2.793-1.799v-0.887h1.104V491.293z"/>
	<path fill="#FFFFFF" d="M139.836,492.936h0.959v-6.668h-1.02v-0.898h2.172v3.143c0,0.287-0.037,0.504-0.037,0.504h0.023
		c0.266-0.588,1.057-1.391,2.268-1.391c1.428,0,2.088,0.777,2.088,2.326v2.986h0.947v0.898h-2.111v-3.621
		c0-0.852-0.18-1.523-1.151-1.523c-1.188,0-2.025,1.008-2.025,2.303v1.943h0.959v0.898h-3.07L139.836,492.936L139.836,492.936z"/>
	<path fill="#FFFFFF" d="M151.294,487.623c1.812,0,3.274,1.332,3.274,3.166c0,1.848-1.463,3.189-3.274,3.189
		s-3.274-1.342-3.274-3.189C148.02,488.955,149.482,487.623,151.294,487.623z M151.294,492.973c1.14,0,2.087-0.912,2.087-2.184
		c0-1.258-0.947-2.158-2.087-2.158c-1.151,0-2.087,0.898-2.087,2.158C149.207,492.061,150.143,492.973,151.294,492.973z"/>
	<path fill="#FFFFFF" d="M156.311,488.668h-1.02v-0.9h2.184v3.646c0,0.84,0.168,1.51,1.14,1.51c1.212,0,1.967-1.162,1.967-2.363
		v-1.895h-1.02v-0.9h2.184v4.918c0,0.168,0.096,0.264,0.264,0.264h0.636v0.889h-1.259c-0.528,0-0.768-0.24-0.768-0.672v-0.266
		c0-0.203,0.022-0.359,0.022-0.359h-0.022c-0.121,0.324-0.806,1.439-2.315,1.439c-1.308,0-1.99-0.721-1.99-2.328v-2.982H156.311z"/>
	<path fill="#FFFFFF" d="M163.967,486.268h-1.007v-0.898h2.171v6.668c0,0.516,0.119,0.863,0.647,0.863
		c0.191,0,0.322-0.012,0.322-0.012l-0.012,0.959c0,0-0.24,0.023-0.516,0.023c-0.863,0-1.607-0.348-1.607-1.764L163.967,486.268
		L163.967,486.268z"/>
	<path fill="#FFFFFF" d="M169.727,487.623c1.379,0,1.871,1.02,1.871,1.02h0.023c0,0-0.036-0.193-0.036-0.457v-1.918h-1.007v-0.898
		h2.17v7.303c0,0.18,0.096,0.264,0.264,0.264h0.612v0.9h-1.212c-0.539,0-0.755-0.266-0.755-0.66v-0.084
		c0-0.205,0.036-0.324,0.036-0.324h-0.024c0,0-0.491,1.211-2.051,1.211c-1.632,0-2.65-1.295-2.65-3.178
		C166.968,488.871,168.095,487.623,169.727,487.623z M169.87,492.973c0.899,0,1.751-0.648,1.751-2.16c0-1.113-0.564-2.17-1.715-2.17
		c-0.973,0-1.752,0.779-1.752,2.158C168.154,492.121,168.862,492.973,169.87,492.973z"/>
	<path fill="#FFFFFF" d="M177.646,492.9h1.057v-6.607h-1.057v-0.924h3.322v0.924h-1.066v6.607h1.066v0.936h-3.322V492.9z"/>
	<path fill="#FFFFFF" d="M185.615,486.268h-1.021v-0.898h2.184v2.807c0,0.287-0.036,0.504-0.036,0.504h0.023
		c0,0,0.54-1.055,1.955-1.055c1.645,0,2.676,1.295,2.676,3.178c0,1.93-1.164,3.178-2.771,3.178c-1.402,0-1.918-1.104-1.918-1.104
		h-0.024c0,0,0.036,0.215,0.036,0.479v0.48h-1.104V486.268z M188.47,492.973c0.947,0,1.739-0.781,1.739-2.16
		c0-1.318-0.708-2.17-1.715-2.17c-0.9,0-1.752,0.635-1.752,2.184C186.742,491.904,187.307,492.973,188.47,492.973z"/>
	<path fill="#FFFFFF" d="M195.43,487.623c1.728,0,2.627,1.271,2.627,2.842c0,0.156-0.036,0.443-0.036,0.443h-4.438
		c0.071,1.344,1.02,2.064,2.099,2.064c1.057,0,1.812-0.684,1.812-0.684l0.479,0.852c0,0-0.912,0.84-2.363,0.84
		c-1.905,0-3.214-1.379-3.214-3.178C192.396,488.871,193.703,487.623,195.43,487.623z M196.857,490.166
		c-0.036-1.066-0.685-1.619-1.451-1.619c-0.889,0-1.607,0.6-1.775,1.619H196.857z"/>
	<path fill="#FFFFFF" d="M202.799,488.668h-1.02v-0.9h1.044V486.1h1.14v1.668h1.451v0.9h-1.451v2.842
		c0,1.234,0.84,1.391,1.295,1.391c0.168,0,0.275-0.012,0.275-0.012v0.971c0,0-0.168,0.023-0.419,0.023
		c-0.769,0-2.315-0.24-2.315-2.268V488.668L202.799,488.668z"/>
	<path fill="#FFFFFF" d="M206.482,492.936h0.911v-4.006c0-0.18-0.096-0.264-0.264-0.264h-0.756v-0.9h1.367
		c0.527,0,0.779,0.217,0.779,0.709v0.383c0,0.24-0.023,0.42-0.023,0.42h0.023c0.276-0.887,0.983-1.584,1.919-1.584
		c0.156,0,0.301,0.025,0.301,0.025v1.15c0,0-0.145-0.035-0.336-0.035c-1.297,0-1.848,1.307-1.848,2.494v1.607h0.899v0.898h-2.976
		v-0.898H206.482z"/>
	<path fill="#FFFFFF" d="M212.219,488.668h-1.02v-0.9h2.184v3.646c0,0.84,0.167,1.51,1.139,1.51c1.212,0,1.968-1.162,1.968-2.363
		v-1.895h-1.021v-0.9h2.185v4.918c0,0.168,0.096,0.264,0.264,0.264h0.635v0.889h-1.259c-0.528,0-0.768-0.24-0.768-0.672v-0.266
		c0-0.203,0.023-0.359,0.023-0.359h-0.023c-0.12,0.324-0.805,1.439-2.315,1.439c-1.307,0-1.99-0.721-1.99-2.328L212.219,488.668
		L212.219,488.668z"/>
	<path fill="#FFFFFF" d="M222.418,487.623c1.727,0,2.627,1.271,2.627,2.842c0,0.156-0.037,0.443-0.037,0.443h-4.438
		c0.071,1.344,1.02,2.064,2.1,2.064c1.055,0,1.811-0.684,1.811-0.684l0.48,0.852c0,0-0.912,0.84-2.363,0.84
		c-1.906,0-3.215-1.379-3.215-3.178C219.383,488.871,220.689,487.623,222.418,487.623z M223.845,490.166
		c-0.036-1.066-0.684-1.619-1.451-1.619c-0.888,0-1.605,0.6-1.773,1.619H223.845z"/>
	<path fill="#FFFFFF" d="M229.787,488.668h-1.021v-0.9h1.043V486.1h1.141v1.668h1.451v0.9h-1.451v2.842
		c0,1.234,0.839,1.391,1.295,1.391c0.168,0,0.276-0.012,0.276-0.012v0.971c0,0-0.168,0.023-0.421,0.023
		c-0.768,0-2.313-0.24-2.313-2.268V488.668z"/>
	<path fill="#FFFFFF" d="M236.625,487.623c1.811,0,3.274,1.332,3.274,3.166c0,1.848-1.464,3.189-3.274,3.189
		s-3.274-1.342-3.274-3.189C233.351,488.955,234.814,487.623,236.625,487.623z M236.625,492.973c1.14,0,2.087-0.912,2.087-2.184
		c0-1.258-0.947-2.158-2.087-2.158c-1.151,0-2.087,0.898-2.087,2.158C234.538,492.061,235.474,492.973,236.625,492.973z"/>
	<path fill="#FFFFFF" d="M243.959,492.936h0.947v-4.018c0-0.166-0.096-0.25-0.265-0.25h-0.743v-0.9h1.366
		c0.517,0,0.769,0.229,0.769,0.672v0.312c0,0.189-0.035,0.348-0.035,0.348h0.022c0.3-0.721,1.177-1.475,2.158-1.475
		c0.973,0,1.572,0.441,1.775,1.426h0.022c0.336-0.756,1.176-1.426,2.172-1.426c1.344,0,1.979,0.777,1.979,2.326v2.986h0.959v0.898
		h-2.123v-3.633c0-0.854-0.155-1.523-1.066-1.523c-1.14,0-1.787,1.164-1.787,2.363v1.895h0.947v0.898h-2.111v-3.633
		c0-0.793-0.118-1.523-1.055-1.523c-1.151,0-1.823,1.225-1.823,2.41v1.848h0.96v0.898h-3.069V492.936L243.959,492.936z"/>
	<path fill="#FFFFFF" d="M256.834,495.383c0.516,0,0.911-0.359,1.115-0.84l0.252-0.6l-2.123-5.277h-0.769v-0.9h2.771v0.9h-0.804
		l1.354,3.609c0.084,0.266,0.107,0.529,0.107,0.529h0.037c0,0,0.047-0.264,0.143-0.529l1.344-3.609h-0.778v-0.9h2.687v0.9h-0.756
		l-2.398,6.129c-0.406,1.031-1.198,1.559-2.135,1.559c-0.78,0-1.308-0.385-1.308-0.385l0.396-0.875
		C255.971,495.096,256.318,495.383,256.834,495.383z"/>
	<path fill="#FFFFFF" d="M268.809,487.623c1.728,0,2.627,1.271,2.627,2.842c0,0.156-0.035,0.443-0.035,0.443h-4.438
		c0.071,1.344,1.021,2.064,2.099,2.064c1.057,0,1.812-0.684,1.812-0.684l0.479,0.852c0,0-0.912,0.84-2.362,0.84
		c-1.906,0-3.214-1.379-3.214-3.178C265.773,488.871,267.082,487.623,268.809,487.623z M270.236,490.166
		c-0.036-1.066-0.685-1.619-1.451-1.619c-0.889,0-1.607,0.6-1.775,1.619H270.236z"/>
	<path fill="#FFFFFF" d="M272.518,492.936h0.947v-4.018c0-0.166-0.096-0.25-0.264-0.25h-0.743v-0.9h1.367
		c0.516,0,0.768,0.229,0.768,0.672v0.312c0,0.189-0.036,0.348-0.036,0.348h0.024c0.3-0.721,1.175-1.475,2.159-1.475
		c0.971,0,1.569,0.441,1.773,1.426h0.024c0.336-0.756,1.175-1.426,2.17-1.426c1.344,0,1.979,0.777,1.979,2.326v2.986h0.959v0.898
		h-2.123v-3.633c0-0.854-0.155-1.523-1.067-1.523c-1.14,0-1.786,1.164-1.786,2.363v1.895h0.947v0.898h-2.11v-3.633
		c0-0.793-0.121-1.523-1.056-1.523c-1.151,0-1.823,1.225-1.823,2.41v1.848h0.959v0.898h-3.07L272.518,492.936L272.518,492.936z"/>
	<path fill="#FFFFFF" d="M287.696,487.623c1.812,0,3.273,1.332,3.273,3.166c0,1.848-1.463,3.189-3.273,3.189
		c-1.812,0-3.274-1.342-3.274-3.189C284.422,488.955,285.885,487.623,287.696,487.623z M287.696,492.973
		c1.14,0,2.087-0.912,2.087-2.184c0-1.258-0.947-2.158-2.087-2.158c-1.151,0-2.087,0.898-2.087,2.158
		C285.609,492.061,286.545,492.973,287.696,492.973z"/>
	<path fill="#FFFFFF" d="M292.689,488.668h-1.021v-0.9h1.043V486.1h1.14v1.668h1.452v0.9h-1.452v2.842
		c0,1.234,0.84,1.391,1.297,1.391c0.168,0,0.274-0.012,0.274-0.012v0.971c0,0-0.168,0.023-0.42,0.023
		c-0.768,0-2.313-0.24-2.313-2.268V488.668z"/>
	<path fill="#FFFFFF" d="M296.35,492.936h0.947v-4.27h-1.008v-0.9h2.172v5.17h0.959v0.898h-3.07V492.936z M297.273,485.369h1.223
		v1.188h-1.223V485.369z"/>
	<path fill="#FFFFFF" d="M303.5,487.623c1.811,0,3.274,1.332,3.274,3.166c0,1.848-1.464,3.189-3.274,3.189s-3.274-1.342-3.274-3.189
		C300.226,488.955,301.689,487.623,303.5,487.623z M303.5,492.973c1.14,0,2.087-0.912,2.087-2.184c0-1.258-0.947-2.158-2.087-2.158
		c-1.151,0-2.087,0.898-2.087,2.158C301.413,492.061,302.349,492.973,303.5,492.973z"/>
	<path fill="#FFFFFF" d="M307.785,492.936h0.947v-4.006c0-0.18-0.097-0.264-0.265-0.264h-0.744v-0.9h1.367
		c0.528,0,0.768,0.229,0.768,0.672v0.312c0,0.191-0.034,0.348-0.034,0.348h0.022c0.12-0.324,0.828-1.475,2.363-1.475
		c1.391,0,2.015,0.779,2.015,2.328v2.984h0.96v0.9h-2.123v-3.623c0-0.852-0.168-1.523-1.14-1.523c-1.225,0-2.026,1.115-2.026,2.328
		v1.918h0.959v0.9h-3.069V492.936L307.785,492.936z"/>
	<path fill="#FFFFFF" d="M315.957,491.881h1.02v0.396c0,0.516,0.721,0.756,1.393,0.756c0.684,0,1.224-0.277,1.224-0.779
		c0-0.613-0.672-0.805-1.512-1.105c-0.899-0.336-1.896-0.744-1.896-1.846c0-1.199,1.188-1.68,2.242-1.68
		c0.853,0,2.1,0.336,2.1,1.223v0.732h-1.02v-0.396c0-0.373-0.48-0.625-1.068-0.625c-0.574,0-1.078,0.24-1.078,0.732
		c0,0.576,0.672,0.814,1.402,1.066c0.937,0.312,2.003,0.709,2.003,1.836c0,1.15-1.056,1.787-2.435,1.787
		c-1.104,0-2.375-0.492-2.375-1.451V491.881L315.957,491.881z"/>
	<path fill="#FFFFFF" d="M322.329,492.576h1.224l-1.14,2.746h-0.924L322.329,492.576z"/>
	<path fill="#FFFFFF" d="M331.135,487.623c1.812,0,3.275,1.332,3.275,3.166c0,1.848-1.464,3.189-3.275,3.189
		c-1.811,0-3.272-1.342-3.272-3.189C327.861,488.955,329.324,487.623,331.135,487.623z M331.135,492.973
		c1.141,0,2.088-0.912,2.088-2.184c0-1.258-0.947-2.158-2.088-2.158c-1.149,0-2.086,0.898-2.086,2.158
		C329.049,492.061,329.984,492.973,331.135,492.973z"/>
	<path fill="#FFFFFF" d="M335.445,492.936h0.91v-4.006c0-0.18-0.097-0.264-0.264-0.264h-0.756v-0.9h1.367
		c0.527,0,0.779,0.217,0.779,0.709v0.383c0,0.24-0.023,0.42-0.023,0.42h0.023c0.275-0.887,0.982-1.584,1.918-1.584
		c0.156,0,0.302,0.025,0.302,0.025v1.15c0,0-0.146-0.035-0.336-0.035c-1.296,0-1.849,1.307-1.849,2.494v1.607h0.9v0.898h-2.975
		v-0.898H335.445z"/>
	<path fill="#FFFFFF" d="M343.4,491.881h1.02v0.396c0,0.516,0.72,0.756,1.393,0.756c0.684,0,1.224-0.277,1.224-0.779
		c0-0.613-0.672-0.805-1.512-1.105c-0.899-0.336-1.896-0.744-1.896-1.846c0-1.199,1.188-1.68,2.242-1.68
		c0.852,0,2.1,0.336,2.1,1.223v0.732h-1.02v-0.396c0-0.373-0.48-0.625-1.068-0.625c-0.575,0-1.079,0.24-1.079,0.732
		c0,0.576,0.672,0.814,1.403,1.066c0.936,0.312,2.003,0.709,2.003,1.836c0,1.15-1.056,1.787-2.435,1.787
		c-1.104,0-2.375-0.492-2.375-1.451V491.881L343.4,491.881z"/>
	<path fill="#FFFFFF" d="M349.076,492.936h0.96v-6.668h-1.021v-0.898h2.171v3.143c0,0.287-0.036,0.504-0.036,0.504h0.024
		c0.265-0.588,1.056-1.391,2.267-1.391c1.428,0,2.088,0.777,2.088,2.326v2.986h0.946v0.898h-2.11v-3.621
		c0-0.852-0.181-1.523-1.15-1.523c-1.188,0-2.027,1.008-2.027,2.303v1.943h0.959v0.898h-3.069L349.076,492.936L349.076,492.936z"/>
	<path fill="#FFFFFF" d="M360.535,487.623c1.811,0,3.272,1.332,3.272,3.166c0,1.848-1.463,3.189-3.272,3.189
		c-1.812,0-3.274-1.342-3.274-3.189C357.261,488.955,358.724,487.623,360.535,487.623z M360.535,492.973
		c1.139,0,2.086-0.912,2.086-2.184c0-1.258-0.947-2.158-2.086-2.158c-1.152,0-2.088,0.898-2.088,2.158
		C358.447,492.061,359.383,492.973,360.535,492.973z"/>
	<path fill="#FFFFFF" d="M365.552,488.668h-1.02v-0.9h2.183v3.646c0,0.84,0.168,1.51,1.141,1.51c1.212,0,1.967-1.162,1.967-2.363
		v-1.895h-1.021v-0.9h2.184v4.918c0,0.168,0.096,0.264,0.264,0.264h0.637v0.889h-1.26c-0.527,0-0.768-0.24-0.768-0.672v-0.266
		c0-0.203,0.022-0.359,0.022-0.359h-0.022c-0.12,0.324-0.805,1.439-2.314,1.439c-1.308,0-1.991-0.721-1.991-2.328L365.552,488.668
		L365.552,488.668z"/>
	<path fill="#FFFFFF" d="M373.208,486.268h-1.007v-0.898h2.17v6.668c0,0.516,0.12,0.863,0.648,0.863c0.19,0,0.322-0.012,0.322-0.012
		l-0.013,0.959c0,0-0.239,0.023-0.516,0.023c-0.863,0-1.606-0.348-1.606-1.764L373.208,486.268L373.208,486.268z"/>
	<path fill="#FFFFFF" d="M378.967,487.623c1.379,0,1.871,1.02,1.871,1.02h0.023c0,0-0.035-0.193-0.035-0.457v-1.918h-1.009v-0.898
		h2.171v7.303c0,0.18,0.097,0.264,0.265,0.264h0.612v0.9h-1.213c-0.539,0-0.755-0.266-0.755-0.66v-0.084
		c0-0.205,0.035-0.324,0.035-0.324h-0.022c0,0-0.492,1.211-2.051,1.211c-1.633,0-2.65-1.295-2.65-3.178
		C376.209,488.871,377.336,487.623,378.967,487.623z M379.111,492.973c0.897,0,1.75-0.648,1.75-2.16c0-1.113-0.563-2.17-1.715-2.17
		c-0.972,0-1.752,0.779-1.752,2.158C377.396,492.121,378.104,492.973,379.111,492.973z"/>
	<path fill="#FFFFFF" d="M386.889,492.9h1.056v-6.607h-1.056v-0.924h3.322v0.924h-1.068v6.607h1.068v0.936h-3.322V492.9z"/>
	<path fill="#FFFFFF" d="M397.362,487.623c1.728,0,2.627,1.271,2.627,2.842c0,0.156-0.036,0.443-0.036,0.443h-4.438
		c0.072,1.344,1.021,2.064,2.1,2.064c1.056,0,1.812-0.684,1.812-0.684l0.479,0.852c0,0-0.911,0.84-2.362,0.84
		c-1.908,0-3.215-1.379-3.215-3.178C394.328,488.871,395.635,487.623,397.362,487.623z M398.789,490.166
		c-0.035-1.066-0.684-1.619-1.451-1.619c-0.887,0-1.605,0.6-1.774,1.619H398.789z"/>
	<path fill="#FFFFFF" d="M401.072,492.936h0.947v-4.006c0-0.18-0.097-0.264-0.265-0.264h-0.744v-0.9h1.367
		c0.528,0,0.768,0.229,0.768,0.672v0.312c0,0.191-0.034,0.348-0.034,0.348h0.022c0.12-0.324,0.828-1.475,2.363-1.475
		c1.391,0,2.015,0.779,2.015,2.328v2.984h0.96v0.9h-2.123v-3.623c0-0.852-0.168-1.523-1.14-1.523c-1.225,0-2.026,1.115-2.026,2.328
		v1.918h0.959v0.9h-3.069V492.936L401.072,492.936z"/>
	<path fill="#FFFFFF" d="M411.883,495.371c1.057,0,1.919-0.479,1.919-1.727v-0.48c0-0.191,0.036-0.383,0.036-0.383h-0.023
		c-0.359,0.6-0.936,0.982-1.823,0.982c-1.679,0-2.71-1.354-2.71-3.105c0-1.738,0.972-3.033,2.663-3.033
		c0.791,0,1.631,0.299,1.967,0.994h0.022c0,0-0.022-0.084-0.022-0.24c0-0.383,0.19-0.611,0.694-0.611h1.296v0.9h-0.673
		c-0.154,0-0.264,0.084-0.264,0.24v4.676c0,2.004-1.522,2.771-3.059,2.771c-0.73,0-1.476-0.205-2.074-0.504l0.384-0.887
		C410.216,494.963,410.972,495.371,411.883,495.371z M413.826,490.67c0-1.582-0.769-2.039-1.715-2.039
		c-1.044,0-1.645,0.768-1.645,2.004c0,1.258,0.659,2.123,1.751,2.123C413.059,492.756,413.826,492.254,413.826,490.67z"/>
	<path fill="#FFFFFF" d="M420.21,490.105h0.384v-0.227c0-0.959-0.551-1.295-1.295-1.295c-0.959,0-1.739,0.586-1.739,0.586
		l-0.468-0.828c0,0,0.888-0.719,2.303-0.719c1.547,0,2.363,0.803,2.363,2.338v2.711c0,0.18,0.096,0.264,0.264,0.264h0.611v0.898
		h-1.211c-0.54,0-0.756-0.264-0.756-0.66v-0.084c0-0.24,0.048-0.396,0.048-0.396h-0.024c0,0-0.526,1.283-2.002,1.283
		c-1.008,0-2.016-0.588-2.016-1.834C416.672,490.238,419.203,490.105,420.21,490.105z M418.939,493.08
		c1.03,0,1.666-1.057,1.666-1.967v-0.252h-0.3c-0.553,0-2.459,0.023-2.459,1.188C417.848,492.59,418.243,493.08,418.939,493.08z"/>
	<path fill="#FFFFFF" d="M426.055,495.371c1.056,0,1.918-0.479,1.918-1.727v-0.48c0-0.191,0.037-0.383,0.037-0.383h-0.023
		c-0.36,0.6-0.937,0.982-1.823,0.982c-1.679,0-2.711-1.354-2.711-3.105c0-1.738,0.973-3.033,2.663-3.033
		c0.791,0,1.632,0.299,1.967,0.994h0.023c0,0-0.023-0.084-0.023-0.24c0-0.383,0.191-0.611,0.695-0.611h1.296v0.9H429.4
		c-0.155,0-0.264,0.084-0.264,0.24v4.676c0,2.004-1.522,2.771-3.059,2.771c-0.731,0-1.476-0.205-2.074-0.504l0.383-0.887
		C424.387,494.963,425.143,495.371,426.055,495.371z M427.997,490.67c0-1.582-0.769-2.039-1.715-2.039
		c-1.044,0-1.645,0.768-1.645,2.004c0,1.258,0.66,2.123,1.752,2.123C427.23,492.756,427.997,492.254,427.997,490.67z"/>
	<path fill="#FFFFFF" d="M433.974,487.623c1.729,0,2.627,1.271,2.627,2.842c0,0.156-0.036,0.443-0.036,0.443h-4.438
		c0.072,1.344,1.02,2.064,2.099,2.064c1.057,0,1.812-0.684,1.812-0.684l0.479,0.852c0,0-0.911,0.84-2.361,0.84
		c-1.908,0-3.216-1.379-3.216-3.178C430.939,488.871,432.246,487.623,433.974,487.623z M435.4,490.166
		c-0.035-1.066-0.685-1.619-1.451-1.619c-0.887,0-1.606,0.6-1.774,1.619H435.4z"/>
	<path fill="#FFFFFF" d="M440.684,492.936h0.947v-4.27h-1.008v-0.9h2.172v5.17h0.959v0.898h-3.07V492.936z M441.607,485.369h1.223
		v1.188h-1.223V485.369z"/>
	<path fill="#FFFFFF" d="M444.716,492.936h0.947v-4.006c0-0.18-0.096-0.264-0.265-0.264h-0.742v-0.9h1.366
		c0.527,0,0.769,0.229,0.769,0.672v0.312c0,0.191-0.036,0.348-0.036,0.348h0.024c0.118-0.324,0.826-1.475,2.361-1.475
		c1.393,0,2.016,0.779,2.016,2.328v2.984h0.959v0.9h-2.122v-3.623c0-0.852-0.168-1.523-1.141-1.523
		c-1.223,0-2.026,1.115-2.026,2.328v1.918h0.96v0.9h-3.07V492.936z"/>
	<path fill="#FFFFFF" d="M456.644,488.668h-1.02v-0.9h1.044V486.1h1.139v1.668h1.451v0.9h-1.451v2.842
		c0,1.234,0.84,1.391,1.295,1.391c0.168,0,0.276-0.012,0.276-0.012v0.971c0,0-0.168,0.023-0.42,0.023
		c-0.769,0-2.314-0.24-2.314-2.268V488.668z"/>
	<path fill="#FFFFFF" d="M460.111,492.936h0.96v-6.668h-1.021v-0.898h2.171v3.143c0,0.287-0.036,0.504-0.036,0.504h0.024
		c0.264-0.588,1.055-1.391,2.267-1.391c1.428,0,2.088,0.777,2.088,2.326v2.986h0.946v0.898h-2.11v-3.621
		c0-0.852-0.181-1.523-1.15-1.523c-1.188,0-2.027,1.008-2.027,2.303v1.943h0.959v0.898h-3.069L460.111,492.936L460.111,492.936z"/>
	<path fill="#FFFFFF" d="M471.342,487.623c1.728,0,2.627,1.271,2.627,2.842c0,0.156-0.036,0.443-0.036,0.443h-4.438
		c0.071,1.344,1.02,2.064,2.099,2.064c1.057,0,1.812-0.684,1.812-0.684l0.479,0.852c0,0-0.912,0.84-2.363,0.84
		c-1.905,0-3.214-1.379-3.214-3.178C468.308,488.871,469.615,487.623,471.342,487.623z M472.77,490.166
		c-0.035-1.066-0.684-1.619-1.45-1.619c-0.889,0-1.607,0.6-1.775,1.619H472.77z"/>
	<path fill="#FFFFFF" d="M478.052,492.936h0.947v-4.018c0-0.166-0.096-0.25-0.264-0.25h-0.743v-0.9h1.367
		c0.516,0,0.768,0.229,0.768,0.672v0.312c0,0.189-0.036,0.348-0.036,0.348h0.024c0.299-0.721,1.175-1.475,2.157-1.475
		c0.973,0,1.571,0.441,1.775,1.426h0.022c0.337-0.756,1.177-1.426,2.172-1.426c1.343,0,1.979,0.777,1.979,2.326v2.986h0.959v0.898
		h-2.123v-3.633c0-0.854-0.156-1.523-1.066-1.523c-1.141,0-1.786,1.164-1.786,2.363v1.895h0.946v0.898h-2.11v-3.633
		c0-0.793-0.12-1.523-1.057-1.523c-1.15,0-1.822,1.225-1.822,2.41v1.848h0.96v0.898h-3.07L478.052,492.936L478.052,492.936z"/>
	<path fill="#FFFFFF" d="M493.23,487.623c1.811,0,3.272,1.332,3.272,3.166c0,1.848-1.463,3.189-3.272,3.189
		c-1.812,0-3.274-1.342-3.274-3.189C489.956,488.955,491.419,487.623,493.23,487.623z M493.23,492.973
		c1.139,0,2.086-0.912,2.086-2.184c0-1.258-0.947-2.158-2.086-2.158c-1.152,0-2.089,0.898-2.089,2.158
		C491.143,492.061,492.078,492.973,493.23,492.973z"/>
	<path fill="#FFFFFF" d="M497.539,492.936h0.912v-4.006c0-0.18-0.096-0.264-0.265-0.264h-0.756v-0.9h1.367
		c0.527,0,0.779,0.217,0.779,0.709v0.383c0,0.24-0.023,0.42-0.023,0.42h0.023c0.275-0.887,0.983-1.584,1.92-1.584
		c0.155,0,0.299,0.025,0.299,0.025v1.15c0,0-0.144-0.035-0.336-0.035c-1.295,0-1.847,1.307-1.847,2.494v1.607h0.898v0.898h-2.975
		v-0.898H497.539z"/>
	<path fill="#FFFFFF" d="M505.541,487.623c1.729,0,2.627,1.271,2.627,2.842c0,0.156-0.035,0.443-0.035,0.443h-4.438
		c0.07,1.344,1.02,2.064,2.098,2.064c1.057,0,1.812-0.684,1.812-0.684l0.479,0.852c0,0-0.911,0.84-2.362,0.84
		c-1.907,0-3.214-1.379-3.214-3.178C502.508,488.871,503.814,487.623,505.541,487.623z M506.969,490.166
		c-0.035-1.066-0.684-1.619-1.451-1.619c-0.887,0-1.606,0.6-1.774,1.619H506.969z"/>
	<path fill="#FFFFFF" d="M512.155,491.881h1.019v0.396c0,0.516,0.721,0.756,1.394,0.756c0.684,0,1.223-0.277,1.223-0.779
		c0-0.613-0.672-0.805-1.512-1.105c-0.898-0.336-1.896-0.744-1.896-1.846c0-1.199,1.188-1.68,2.242-1.68
		c0.852,0,2.1,0.336,2.1,1.223v0.732h-1.02v-0.396c0-0.373-0.479-0.625-1.067-0.625c-0.575,0-1.079,0.24-1.079,0.732
		c0,0.576,0.672,0.814,1.402,1.066c0.936,0.312,2.004,0.709,2.004,1.836c0,1.15-1.056,1.787-2.436,1.787
		c-1.104,0-2.374-0.492-2.374-1.451V491.881L512.155,491.881z"/>
	<path fill="#FFFFFF" d="M521.201,487.623c1.811,0,3.273,1.332,3.273,3.166c0,1.848-1.464,3.189-3.273,3.189
		c-1.811,0-3.274-1.342-3.274-3.189C517.927,488.955,519.391,487.623,521.201,487.623z M521.201,492.973
		c1.14,0,2.087-0.912,2.087-2.184c0-1.258-0.947-2.158-2.087-2.158c-1.151,0-2.087,0.898-2.087,2.158
		C519.114,492.061,520.05,492.973,521.201,492.973z"/>
	<path fill="#FFFFFF" d="M528.652,487.623c0.899,0,2.375,0.336,2.375,1.379v0.744h-1.031v-0.42c0-0.467-0.768-0.695-1.307-0.695
		c-1.225,0-2.063,0.863-2.063,2.16c0,1.379,0.972,2.182,2.135,2.182c1.032,0,1.729-0.611,1.942-0.779l0.443,0.852
		c-0.275,0.252-1.15,0.936-2.435,0.936c-1.751,0-3.274-1.211-3.274-3.166C525.439,488.955,526.842,487.623,528.652,487.623z"/>
	<path fill="#FFFFFF" d="M532.17,492.936h0.947v-4.27h-1.007v-0.9h2.171v5.17h0.959v0.898h-3.07V492.936L532.17,492.936z
		 M533.094,485.369h1.225v1.188h-1.225V485.369z"/>
	<path fill="#FFFFFF" d="M539.561,490.105h0.385v-0.227c0-0.959-0.553-1.295-1.297-1.295c-0.959,0-1.737,0.586-1.737,0.586
		l-0.47-0.828c0,0,0.89-0.719,2.304-0.719c1.548,0,2.362,0.803,2.362,2.338v2.711c0,0.18,0.097,0.264,0.265,0.264h0.61v0.898h-1.211
		c-0.539,0-0.756-0.264-0.756-0.66v-0.084c0-0.24,0.049-0.396,0.049-0.396h-0.023c0,0-0.528,1.283-2.003,1.283
		c-1.009,0-2.016-0.588-2.016-1.834C536.021,490.238,538.553,490.105,539.561,490.105z M538.289,493.08
		c1.031,0,1.667-1.057,1.667-1.967v-0.252h-0.3c-0.553,0-2.459,0.023-2.459,1.188C537.197,492.59,537.594,493.08,538.289,493.08z"/>
	<path fill="#FFFFFF" d="M543.234,486.268h-1.009v-0.898h2.171v6.668c0,0.516,0.12,0.863,0.647,0.863
		c0.192,0,0.324-0.012,0.324-0.012l-0.013,0.959c0,0-0.239,0.023-0.516,0.023c-0.863,0-1.607-0.348-1.607-1.764v-5.84H543.234z"/>
	<path fill="#FFFFFF" d="M546.666,486.268h-1.007v-0.898h2.171v6.668c0,0.516,0.119,0.863,0.646,0.863
		c0.192,0,0.323-0.012,0.323-0.012l-0.012,0.959c0,0-0.24,0.023-0.516,0.023c-0.863,0-1.607-0.348-1.607-1.764L546.666,486.268
		L546.666,486.268z"/>
	<path fill="#FFFFFF" d="M550.698,495.383c0.516,0,0.911-0.359,1.114-0.84l0.252-0.6l-2.123-5.277h-0.768v-0.9h2.771v0.9h-0.805
		l1.355,3.609c0.084,0.266,0.107,0.529,0.107,0.529h0.035c0,0,0.049-0.264,0.146-0.529l1.343-3.609h-0.779v-0.9h2.688v0.9h-0.756
		l-2.398,6.129c-0.408,1.031-1.199,1.559-2.135,1.559c-0.779,0-1.308-0.385-1.308-0.385l0.396-0.875
		C549.834,495.096,550.182,495.383,550.698,495.383z"/>
	<path fill="#FFFFFF" d="M38.566,504.506h0.384v-0.229c0-0.959-0.552-1.295-1.295-1.295c-0.96,0-1.739,0.588-1.739,0.588
		l-0.468-0.828c0,0,0.888-0.719,2.303-0.719c1.548,0,2.362,0.803,2.362,2.338v2.709c0,0.182,0.097,0.266,0.264,0.266h0.612v0.898
		h-1.212c-0.539,0-0.756-0.264-0.756-0.66v-0.084c0-0.24,0.049-0.396,0.049-0.396h-0.023c0,0-0.527,1.283-2.004,1.283
		c-1.007,0-2.014-0.588-2.014-1.834C35.029,504.637,37.559,504.506,38.566,504.506z M37.295,507.48c1.031,0,1.668-1.057,1.668-1.967
		v-0.252h-0.301c-0.551,0-2.458,0.025-2.458,1.188C36.204,506.988,36.6,507.48,37.295,507.48z"/>
	<path fill="#FFFFFF" d="M44.986,502.023c0.899,0,2.375,0.334,2.375,1.379v0.744H46.33v-0.42c0-0.467-0.768-0.695-1.307-0.695
		c-1.225,0-2.063,0.863-2.063,2.158c0,1.379,0.972,2.184,2.135,2.184c1.032,0,1.729-0.611,1.942-0.779l0.443,0.852
		c-0.275,0.254-1.15,0.938-2.435,0.938c-1.751,0-3.274-1.211-3.274-3.168C41.771,503.354,43.176,502.023,44.986,502.023z"/>
	<path fill="#FFFFFF" d="M51.623,502.023c0.897,0,2.375,0.334,2.375,1.379v0.744h-1.032v-0.42c0-0.467-0.768-0.695-1.308-0.695
		c-1.224,0-2.062,0.863-2.062,2.158c0,1.379,0.973,2.184,2.135,2.184c1.031,0,1.728-0.611,1.943-0.779l0.443,0.852
		c-0.275,0.254-1.151,0.938-2.436,0.938c-1.751,0-3.273-1.211-3.273-3.168C48.408,503.354,49.812,502.023,51.623,502.023z"/>
	<path fill="#FFFFFF" d="M58.09,502.023c1.729,0,2.627,1.271,2.627,2.842c0,0.156-0.035,0.443-0.035,0.443h-4.438
		c0.07,1.344,1.02,2.062,2.098,2.062c1.057,0,1.812-0.684,1.812-0.684l0.479,0.852c0,0-0.911,0.84-2.362,0.84
		c-1.906,0-3.214-1.379-3.214-3.178C55.057,503.27,56.363,502.023,58.09,502.023z M59.518,504.566
		c-0.035-1.066-0.684-1.619-1.451-1.619c-0.887,0-1.606,0.6-1.774,1.619H59.518z"/>
	<path fill="#FFFFFF" d="M62.58,509.734v-6.402c0-0.182-0.096-0.266-0.264-0.266h-0.744v-0.898h1.344c0.539,0,0.743,0.24,0.743,0.6
		v0.047c0,0.193-0.024,0.35-0.024,0.35h0.024c0,0,0.504-1.141,2.039-1.141c1.631,0,2.663,1.295,2.663,3.18
		c0,1.93-1.164,3.178-2.747,3.178c-1.331,0-1.884-1.033-1.884-1.033h-0.023c0,0,0.036,0.217,0.036,0.529v1.857h0.96v0.9h-3.07v-0.9
		H62.58z M65.434,507.373c0.96,0,1.752-0.779,1.752-2.16c0-1.318-0.708-2.17-1.727-2.17c-0.9,0-1.74,0.635-1.74,2.182
		C63.719,506.305,64.307,507.373,65.434,507.373z"/>
	<path fill="#FFFFFF" d="M70.104,503.066h-1.02v-0.898h1.044V500.5h1.14v1.668h1.451v0.898h-1.451v2.844
		c0,1.234,0.84,1.391,1.295,1.391c0.168,0,0.275-0.012,0.275-0.012v0.971c0,0-0.168,0.023-0.419,0.023
		c-0.768,0-2.314-0.24-2.314-2.268L70.104,503.066L70.104,503.066z"/>
	<path fill="#FFFFFF" d="M77.122,504.506h0.384v-0.229c0-0.959-0.551-1.295-1.295-1.295c-0.959,0-1.739,0.588-1.739,0.588
		l-0.468-0.828c0,0,0.888-0.719,2.303-0.719c1.547,0,2.363,0.803,2.363,2.338v2.709c0,0.182,0.096,0.266,0.264,0.266h0.611v0.898
		h-1.211c-0.54,0-0.756-0.264-0.756-0.66v-0.084c0-0.24,0.048-0.396,0.048-0.396h-0.024c0,0-0.526,1.283-2.002,1.283
		c-1.008,0-2.016-0.588-2.016-1.834C73.584,504.637,76.115,504.506,77.122,504.506z M75.852,507.48c1.031,0,1.666-1.057,1.666-1.967
		v-0.252h-0.299c-0.553,0-2.459,0.025-2.459,1.188C74.76,506.988,75.155,507.48,75.852,507.48z"/>
	<path fill="#FFFFFF" d="M80.868,500.668h-1.021v-0.898h2.184v2.807c0,0.289-0.035,0.504-0.035,0.504h0.022
		c0,0,0.539-1.057,1.955-1.057c1.644,0,2.674,1.295,2.674,3.18c0,1.93-1.163,3.178-2.77,3.178c-1.404,0-1.92-1.105-1.92-1.105
		h-0.023c0,0,0.036,0.217,0.036,0.48v0.479h-1.104L80.868,500.668L80.868,500.668z M83.723,507.373c0.947,0,1.738-0.779,1.738-2.16
		c0-1.318-0.707-2.17-1.715-2.17c-0.898,0-1.75,0.635-1.75,2.182C81.996,506.305,82.559,507.373,83.723,507.373z"/>
	<path fill="#FFFFFF" d="M88.176,500.668h-1.007v-0.898h2.171v6.668c0,0.516,0.119,0.863,0.647,0.863
		c0.191,0,0.323-0.012,0.323-0.012l-0.013,0.959c0,0-0.239,0.023-0.516,0.023c-0.863,0-1.607-0.348-1.607-1.764L88.176,500.668
		L88.176,500.668z"/>
	<path fill="#FFFFFF" d="M94.15,502.023c1.728,0,2.627,1.271,2.627,2.842c0,0.156-0.035,0.443-0.035,0.443h-4.438
		c0.071,1.344,1.021,2.062,2.099,2.062c1.057,0,1.812-0.684,1.812-0.684l0.479,0.852c0,0-0.911,0.84-2.362,0.84
		c-1.907,0-3.214-1.379-3.214-3.178C91.117,503.27,92.424,502.023,94.15,502.023z M95.578,504.566
		c-0.035-1.066-0.684-1.619-1.451-1.619c-0.887,0-1.607,0.6-1.775,1.619H95.578z"/>
	<path fill="#FFFFFF" d="M101.305,500.668h-1.02v-0.898h2.183v2.807c0,0.289-0.036,0.504-0.036,0.504h0.024
		c0,0,0.54-1.057,1.955-1.057c1.644,0,2.675,1.295,2.675,3.18c0,1.93-1.164,3.178-2.771,3.178c-1.401,0-1.918-1.105-1.918-1.105
		h-0.023c0,0,0.036,0.217,0.036,0.48v0.479h-1.104V500.668z M104.159,507.373c0.946,0,1.739-0.779,1.739-2.16
		c0-1.318-0.709-2.17-1.716-2.17c-0.899,0-1.752,0.635-1.752,2.182C102.432,506.305,102.996,507.373,104.159,507.373z"/>
	<path fill="#FFFFFF" d="M111.119,502.023c1.727,0,2.627,1.271,2.627,2.842c0,0.156-0.036,0.443-0.036,0.443h-4.438
		c0.071,1.344,1.021,2.062,2.1,2.062c1.056,0,1.811-0.684,1.811-0.684l0.48,0.852c0,0-0.912,0.84-2.363,0.84
		c-1.906,0-3.214-1.379-3.214-3.178C108.085,503.27,109.393,502.023,111.119,502.023z M112.547,504.566
		c-0.036-1.066-0.684-1.619-1.451-1.619c-0.888,0-1.606,0.6-1.774,1.619H112.547z"/>
	<path fill="#FFFFFF" d="M114.637,507.336h0.959v-6.668h-1.02v-0.898h2.172v3.143c0,0.287-0.037,0.504-0.037,0.504h0.024
		c0.265-0.588,1.056-1.393,2.267-1.393c1.428,0,2.088,0.779,2.088,2.328v2.986h0.947v0.898h-2.111v-3.621
		c0-0.854-0.18-1.523-1.15-1.523c-1.188,0-2.026,1.006-2.026,2.303v1.943h0.959v0.898h-3.07L114.637,507.336L114.637,507.336z"/>
	<path fill="#FFFFFF" d="M126.273,504.506h0.385v-0.229c0-0.959-0.551-1.295-1.295-1.295c-0.959,0-1.739,0.588-1.739,0.588
		l-0.468-0.828c0,0,0.888-0.719,2.303-0.719c1.547,0,2.363,0.803,2.363,2.338v2.709c0,0.182,0.096,0.266,0.264,0.266h0.611v0.898
		h-1.211c-0.541,0-0.757-0.264-0.757-0.66v-0.084c0-0.24,0.048-0.396,0.048-0.396h-0.023c0,0-0.527,1.283-2.002,1.283
		c-1.008,0-2.016-0.588-2.016-1.834C122.736,504.637,125.268,504.506,126.273,504.506z M125.004,507.48
		c1.031,0,1.666-1.057,1.666-1.967v-0.252h-0.299c-0.553,0-2.459,0.025-2.459,1.188C123.912,506.988,124.308,507.48,125.004,507.48z
		"/>
	<path fill="#FFFFFF" d="M128.953,502.168h2.723v0.898h-0.779l1.283,3.539c0.096,0.264,0.132,0.564,0.132,0.564h0.036
		c0,0,0.035-0.301,0.131-0.564l1.297-3.539h-0.779v-0.898h2.71v0.898h-0.756l-1.968,5.17h-1.307l-1.955-5.17h-0.768V502.168
		L128.953,502.168z"/>
	<path fill="#FFFFFF" d="M136.393,507.336h0.947v-4.27h-1.008v-0.9h2.172v5.17h0.959v0.898h-3.07V507.336z M137.316,499.768h1.223
		v1.189h-1.223V499.768z"/>
	<path fill="#FFFFFF" d="M143.543,502.023c1.811,0,3.274,1.33,3.274,3.166c0,1.848-1.464,3.189-3.274,3.189
		s-3.274-1.342-3.274-3.189C140.269,503.354,141.732,502.023,143.543,502.023z M143.543,507.373c1.14,0,2.087-0.912,2.087-2.184
		c0-1.26-0.947-2.16-2.087-2.16c-1.151,0-2.087,0.9-2.087,2.16C141.456,506.461,142.392,507.373,143.543,507.373z"/>
	<path fill="#FFFFFF" d="M147.854,507.336h0.91v-4.006c0-0.18-0.096-0.264-0.264-0.264h-0.756v-0.9h1.367
		c0.527,0,0.779,0.217,0.779,0.709v0.383c0,0.24-0.023,0.42-0.023,0.42h0.023c0.276-0.887,0.983-1.584,1.919-1.584
		c0.156,0,0.301,0.025,0.301,0.025v1.15c0,0-0.145-0.037-0.337-0.037c-1.296,0-1.847,1.309-1.847,2.496v1.607h0.899v0.898h-2.976
		v-0.898H147.854z"/>
	<path fill="#FFFFFF" d="M153.972,505.346c0-1.824,2.039-2.086,2.039-3.467c0-0.672-0.575-1.188-1.367-1.188
		c-0.756,0-1.366,0.504-1.366,0.504l-0.647-0.828c0,0,0.791-0.768,2.099-0.768c1.354,0,2.508,0.863,2.508,2.195
		c0,1.979-2.123,2.182-2.123,3.621v0.492h-1.141L153.972,505.346L153.972,505.346z M153.936,507.061h1.211v1.174h-1.211V507.061z"/>
	<path fill="#FFFFFF" d="M161.017,499.768h3.012v0.924h-1.009l1.319,5.553c0.06,0.301,0.096,0.635,0.096,0.635h0.036
		c0,0,0.048-0.334,0.12-0.635l1.774-6.477h1.02l1.764,6.477c0.084,0.301,0.119,0.635,0.119,0.635h0.049c0,0,0.023-0.334,0.084-0.635
		l1.318-5.553h-1.007v-0.924h3.022v0.924h-0.816l-1.896,7.543h-1.366l-1.654-6.008c-0.084-0.301-0.108-0.672-0.108-0.672h-0.048
		c0,0-0.023,0.373-0.107,0.672l-1.655,6.008h-1.367l-1.883-7.543h-0.815L161.017,499.768L161.017,499.768z"/>
	<path fill="#FFFFFF" d="M173.316,507.336h0.959v-6.668h-1.021v-0.898h2.172v3.143c0,0.287-0.037,0.504-0.037,0.504h0.024
		c0.265-0.588,1.056-1.393,2.267-1.393c1.429,0,2.088,0.779,2.088,2.328v2.986h0.947v0.898h-2.11v-3.621
		c0-0.854-0.181-1.523-1.151-1.523c-1.188,0-2.026,1.006-2.026,2.303v1.943h0.959v0.898h-3.069L173.316,507.336L173.316,507.336z"/>
	<path fill="#FFFFFF" d="M184.954,504.506h0.384v-0.229c0-0.959-0.551-1.295-1.295-1.295c-0.959,0-1.739,0.588-1.739,0.588
		l-0.468-0.828c0,0,0.888-0.719,2.303-0.719c1.547,0,2.363,0.803,2.363,2.338v2.709c0,0.182,0.096,0.266,0.264,0.266h0.611v0.898
		h-1.211c-0.54,0-0.756-0.264-0.756-0.66v-0.084c0-0.24,0.048-0.396,0.048-0.396h-0.024c0,0-0.526,1.283-2.002,1.283
		c-1.008,0-2.016-0.588-2.016-1.834C181.416,504.637,183.947,504.506,184.954,504.506z M183.684,507.48
		c1.031,0,1.666-1.057,1.666-1.967v-0.252h-0.299c-0.553,0-2.459,0.025-2.459,1.188C182.592,506.988,182.987,507.48,183.684,507.48z
		"/>
	<path fill="#FFFFFF" d="M188.832,503.066h-1.021v-0.898h1.043V500.5h1.141v1.668h1.452v0.898h-1.452v2.844
		c0,1.234,0.84,1.391,1.296,1.391c0.168,0,0.275-0.012,0.275-0.012v0.971c0,0-0.168,0.023-0.421,0.023
		c-0.768,0-2.313-0.24-2.313-2.268V503.066z"/>
	<path fill="#FFFFFF" d="M195.492,507.336h0.947v-4.27h-1.009v-0.9h2.172v5.17h0.959v0.898h-3.069V507.336z M196.416,499.768h1.223
		v1.189h-1.223V499.768z"/>
	<path fill="#FFFFFF" d="M199.428,506.281h1.021v0.396c0,0.516,0.72,0.754,1.392,0.754c0.684,0,1.225-0.275,1.225-0.779
		c0-0.611-0.673-0.803-1.513-1.104c-0.898-0.336-1.895-0.744-1.895-1.846c0-1.199,1.188-1.68,2.241-1.68
		c0.853,0,2.101,0.334,2.101,1.223v0.73h-1.021v-0.395c0-0.373-0.479-0.625-1.067-0.625c-0.575,0-1.079,0.24-1.079,0.73
		c0,0.576,0.672,0.816,1.402,1.068c0.937,0.311,2.004,0.707,2.004,1.834c0,1.152-1.057,1.787-2.436,1.787
		c-1.104,0-2.375-0.492-2.375-1.451V506.281L199.428,506.281z"/>
	<path fill="#FFFFFF" d="M211.414,502.023c0.898,0,2.375,0.334,2.375,1.379v0.744h-1.031v-0.42c0-0.467-0.768-0.695-1.308-0.695
		c-1.225,0-2.063,0.863-2.063,2.158c0,1.379,0.974,2.184,2.135,2.184c1.032,0,1.729-0.611,1.943-0.779l0.443,0.852
		c-0.275,0.254-1.15,0.938-2.435,0.938c-1.752,0-3.273-1.211-3.273-3.168C208.2,503.354,209.604,502.023,211.414,502.023z"/>
	<path fill="#FFFFFF" d="M218.109,502.023c1.812,0,3.274,1.33,3.274,3.166c0,1.848-1.464,3.189-3.274,3.189
		c-1.812,0-3.273-1.342-3.273-3.189C214.836,503.354,216.299,502.023,218.109,502.023z M218.109,507.373
		c1.14,0,2.088-0.912,2.088-2.184c0-1.26-0.948-2.16-2.088-2.16c-1.15,0-2.086,0.9-2.086,2.16
		C216.023,506.461,216.959,507.373,218.109,507.373z"/>
	<path fill="#FFFFFF" d="M222.396,507.336h0.946v-4.006c0-0.18-0.096-0.264-0.264-0.264h-0.743v-0.9h1.367
		c0.526,0,0.768,0.229,0.768,0.672v0.312c0,0.191-0.036,0.348-0.036,0.348h0.024c0.119-0.324,0.827-1.475,2.362-1.475
		c1.392,0,2.015,0.779,2.015,2.326v2.986h0.959v0.898h-2.122v-3.621c0-0.852-0.168-1.523-1.14-1.523
		c-1.224,0-2.027,1.115-2.027,2.328v1.918h0.96v0.898h-3.069V507.336z"/>
	<path fill="#FFFFFF" d="M230.567,506.281h1.02v0.396c0,0.516,0.72,0.754,1.392,0.754c0.685,0,1.224-0.275,1.224-0.779
		c0-0.611-0.672-0.803-1.511-1.104c-0.899-0.336-1.896-0.744-1.896-1.846c0-1.199,1.188-1.68,2.243-1.68
		c0.853,0,2.099,0.334,2.099,1.223v0.73h-1.02v-0.395c0-0.373-0.479-0.625-1.066-0.625c-0.576,0-1.08,0.24-1.08,0.73
		c0,0.576,0.672,0.816,1.403,1.068c0.937,0.311,2.003,0.707,2.003,1.834c0,1.152-1.055,1.787-2.435,1.787
		c-1.104,0-2.375-0.492-2.375-1.451V506.281z"/>
	<path fill="#FFFFFF" d="M236.436,507.336h0.947v-4.27h-1.008v-0.9h2.172v5.17h0.959v0.898h-3.07V507.336z M237.359,499.768h1.223
		v1.189h-1.223V499.768z"/>
	<path fill="#FFFFFF" d="M243.154,502.023c1.379,0,1.871,1.02,1.871,1.02h0.022c0,0-0.036-0.193-0.036-0.457v-1.918h-1.007v-0.9
		h2.17v7.305c0,0.18,0.096,0.264,0.265,0.264h0.611v0.898h-1.212c-0.539,0-0.755-0.264-0.755-0.658v-0.084
		c0-0.205,0.036-0.324,0.036-0.324h-0.024c0,0-0.49,1.211-2.051,1.211c-1.632,0-2.65-1.295-2.65-3.178
		C240.396,503.27,241.521,502.023,243.154,502.023z M243.298,507.373c0.899,0,1.751-0.648,1.751-2.16c0-1.115-0.563-2.17-1.715-2.17
		c-0.972,0-1.752,0.779-1.752,2.158C241.582,506.521,242.29,507.373,243.298,507.373z"/>
	<path fill="#FFFFFF" d="M250.965,502.023c1.729,0,2.627,1.271,2.627,2.842c0,0.156-0.035,0.443-0.035,0.443h-4.438
		c0.07,1.344,1.02,2.062,2.098,2.062c1.057,0,1.812-0.684,1.812-0.684l0.479,0.852c0,0-0.911,0.84-2.362,0.84
		c-1.906,0-3.214-1.379-3.214-3.178C247.932,503.27,249.238,502.023,250.965,502.023z M252.393,504.566
		c-0.035-1.066-0.684-1.619-1.451-1.619c-0.887,0-1.606,0.6-1.774,1.619H252.393z"/>
	<path fill="#FFFFFF" d="M254.699,507.336h0.912v-4.006c0-0.18-0.098-0.264-0.266-0.264h-0.755v-0.9h1.367
		c0.526,0,0.779,0.217,0.779,0.709v0.383c0,0.24-0.023,0.42-0.023,0.42h0.023c0.274-0.887,0.982-1.584,1.919-1.584
		c0.154,0,0.3,0.025,0.3,0.025v1.15c0,0-0.146-0.037-0.336-0.037c-1.295,0-1.849,1.309-1.849,2.496v1.607h0.9v0.898h-2.975v-0.898
		H254.699z"/>
	<path fill="#FFFFFF" d="M262.701,502.023c1.727,0,2.627,1.271,2.627,2.842c0,0.156-0.036,0.443-0.036,0.443h-4.438
		c0.071,1.344,1.021,2.062,2.1,2.062c1.056,0,1.811-0.684,1.811-0.684l0.48,0.852c0,0-0.912,0.84-2.363,0.84
		c-1.906,0-3.214-1.379-3.214-3.178C259.667,503.27,260.975,502.023,262.701,502.023z M264.129,504.566
		c-0.036-1.066-0.684-1.619-1.451-1.619c-0.888,0-1.606,0.6-1.774,1.619H264.129z"/>
	<path fill="#FFFFFF" d="M269.098,502.023c1.379,0,1.871,1.02,1.871,1.02h0.023c0,0-0.036-0.193-0.036-0.457v-1.918h-1.007v-0.9
		h2.17v7.305c0,0.18,0.096,0.264,0.264,0.264h0.612v0.898h-1.212c-0.539,0-0.755-0.264-0.755-0.658v-0.084
		c0-0.205,0.036-0.324,0.036-0.324h-0.024c0,0-0.491,1.211-2.051,1.211c-1.632,0-2.65-1.295-2.65-3.178
		C266.339,503.27,267.466,502.023,269.098,502.023z M269.241,507.373c0.898,0,1.751-0.648,1.751-2.16c0-1.115-0.564-2.17-1.715-2.17
		c-0.973,0-1.752,0.779-1.752,2.158C267.525,506.521,268.232,507.373,269.241,507.373z"/>
	<path fill="#FFFFFF" d="M276.862,506.281h1.02v0.396c0,0.516,0.72,0.754,1.392,0.754c0.685,0,1.224-0.275,1.224-0.779
		c0-0.611-0.672-0.803-1.511-1.104c-0.899-0.336-1.896-0.744-1.896-1.846c0-1.199,1.188-1.68,2.243-1.68
		c0.853,0,2.099,0.334,2.099,1.223v0.73h-1.02v-0.395c0-0.373-0.479-0.625-1.066-0.625c-0.576,0-1.08,0.24-1.08,0.73
		c0,0.576,0.672,0.816,1.403,1.068c0.937,0.311,2.003,0.707,2.003,1.834c0,1.152-1.055,1.787-2.435,1.787
		c-1.104,0-2.375-0.492-2.375-1.451V506.281z"/>
	<path fill="#FFFFFF" d="M285.908,502.023c1.812,0,3.274,1.33,3.274,3.166c0,1.848-1.464,3.189-3.274,3.189
		c-1.812,0-3.273-1.342-3.273-3.189C282.635,503.354,284.098,502.023,285.908,502.023z M285.908,507.373
		c1.14,0,2.088-0.912,2.088-2.184c0-1.26-0.948-2.16-2.088-2.16c-1.15,0-2.086,0.9-2.086,2.16
		C283.822,506.461,284.758,507.373,285.908,507.373z"/>
	<path fill="#FFFFFF" d="M293.36,502.023c0.898,0,2.375,0.334,2.375,1.379v0.744h-1.032v-0.42c0-0.467-0.768-0.695-1.307-0.695
		c-1.224,0-2.062,0.863-2.062,2.158c0,1.379,0.971,2.184,2.135,2.184c1.031,0,1.728-0.611,1.942-0.779l0.444,0.852
		c-0.276,0.254-1.152,0.938-2.437,0.938c-1.75,0-3.272-1.211-3.272-3.168C290.146,503.354,291.549,502.023,293.36,502.023z"/>
	<path fill="#FFFFFF" d="M296.878,507.336h0.947v-4.27h-1.007v-0.9h2.17v5.17h0.96v0.898h-3.07V507.336L296.878,507.336z
		 M297.801,499.768h1.226v1.189h-1.226V499.768z"/>
	<path fill="#FFFFFF" d="M304.268,504.506h0.385v-0.229c0-0.959-0.553-1.295-1.295-1.295c-0.961,0-1.739,0.588-1.739,0.588
		l-0.468-0.828c0,0,0.888-0.719,2.303-0.719c1.548,0,2.361,0.803,2.361,2.338v2.709c0,0.182,0.098,0.266,0.265,0.266h0.612v0.898
		h-1.213c-0.538,0-0.755-0.264-0.755-0.66v-0.084c0-0.24,0.048-0.396,0.048-0.396h-0.022c0,0-0.528,1.283-2.004,1.283
		c-1.007,0-2.015-0.588-2.015-1.834C300.73,504.637,303.26,504.506,304.268,504.506z M302.996,507.48
		c1.031,0,1.668-1.057,1.668-1.967v-0.252h-0.301c-0.552,0-2.458,0.025-2.458,1.188C301.905,506.988,302.301,507.48,302.996,507.48z
		"/>
	<path fill="#FFFFFF" d="M307.941,500.668h-1.009v-0.898h2.171v6.668c0,0.516,0.12,0.863,0.647,0.863
		c0.192,0,0.324-0.012,0.324-0.012l-0.013,0.959c0,0-0.239,0.023-0.516,0.023c-0.863,0-1.607-0.348-1.607-1.764v-5.84H307.941z"/>
	<path fill="#FFFFFF" d="M311.374,500.668h-1.007v-0.898h2.17v6.668c0,0.516,0.12,0.863,0.648,0.863c0.19,0,0.322-0.012,0.322-0.012
		l-0.013,0.959c0,0-0.239,0.023-0.516,0.023c-0.863,0-1.606-0.348-1.606-1.764L311.374,500.668L311.374,500.668z"/>
	<path fill="#FFFFFF" d="M315.405,509.783c0.517,0,0.911-0.359,1.116-0.84l0.252-0.6l-2.123-5.277h-0.769v-0.9h2.771v0.9h-0.804
		l1.355,3.609c0.084,0.264,0.106,0.529,0.106,0.529h0.036c0,0,0.048-0.266,0.145-0.529l1.344-3.609h-0.779v-0.9h2.687v0.9h-0.756
		l-2.398,6.127c-0.406,1.031-1.199,1.561-2.135,1.561c-0.779,0-1.307-0.385-1.307-0.385l0.396-0.875
		C314.542,509.496,314.89,509.783,315.405,509.783z"/>
	<path fill="#FFFFFF" d="M327.788,504.506h0.384v-0.229c0-0.959-0.551-1.295-1.295-1.295c-0.959,0-1.739,0.588-1.739,0.588
		l-0.468-0.828c0,0,0.888-0.719,2.303-0.719c1.547,0,2.363,0.803,2.363,2.338v2.709c0,0.182,0.096,0.266,0.264,0.266h0.611v0.898
		H329c-0.54,0-0.756-0.264-0.756-0.66v-0.084c0-0.24,0.048-0.396,0.048-0.396h-0.024c0,0-0.526,1.283-2.002,1.283
		c-1.008,0-2.016-0.588-2.016-1.834C324.25,504.637,326.781,504.506,327.788,504.506z M326.518,507.48
		c1.031,0,1.666-1.057,1.666-1.967v-0.252h-0.299c-0.553,0-2.459,0.025-2.459,1.188C325.426,506.988,325.821,507.48,326.518,507.48z
		"/>
	<path fill="#FFFFFF" d="M334.209,502.023c0.898,0,2.375,0.334,2.375,1.379v0.744h-1.032v-0.42c0-0.467-0.768-0.695-1.308-0.695
		c-1.223,0-2.062,0.863-2.062,2.158c0,1.379,0.973,2.184,2.136,2.184c1.03,0,1.727-0.611,1.942-0.779l0.443,0.852
		c-0.275,0.254-1.151,0.938-2.436,0.938c-1.751,0-3.273-1.211-3.273-3.168C330.994,503.354,332.396,502.023,334.209,502.023z"/>
	<path fill="#FFFFFF" d="M340.844,502.023c0.9,0,2.375,0.334,2.375,1.379v0.744h-1.031v-0.42c0-0.467-0.768-0.695-1.307-0.695
		c-1.224,0-2.062,0.863-2.062,2.158c0,1.379,0.972,2.184,2.135,2.184c1.032,0,1.728-0.611,1.941-0.779l0.444,0.852
		c-0.276,0.254-1.151,0.938-2.435,0.938c-1.751,0-3.274-1.211-3.274-3.168C337.63,503.354,339.033,502.023,340.844,502.023z"/>
	<path fill="#FFFFFF" d="M347.312,502.023c1.728,0,2.627,1.271,2.627,2.842c0,0.156-0.036,0.443-0.036,0.443h-4.438
		c0.072,1.344,1.021,2.062,2.1,2.062c1.056,0,1.812-0.684,1.812-0.684l0.479,0.852c0,0-0.911,0.84-2.362,0.84
		c-1.907,0-3.215-1.379-3.215-3.178C344.277,503.27,345.585,502.023,347.312,502.023z M348.739,504.566
		c-0.036-1.066-0.685-1.619-1.451-1.619c-0.888,0-1.606,0.6-1.774,1.619H348.739z"/>
	<path fill="#FFFFFF" d="M351.802,509.734v-6.402c0-0.182-0.097-0.266-0.265-0.266h-0.743v-0.898h1.343
		c0.541,0,0.744,0.24,0.744,0.6v0.047c0,0.193-0.022,0.35-0.022,0.35h0.022c0,0,0.504-1.141,2.039-1.141
		c1.631,0,2.662,1.295,2.662,3.18c0,1.93-1.163,3.178-2.746,3.178c-1.332,0-1.883-1.033-1.883-1.033h-0.024
		c0,0,0.036,0.217,0.036,0.529v1.857h0.959v0.9h-3.07v-0.9H351.802z M354.656,507.373c0.959,0,1.751-0.779,1.751-2.16
		c0-1.318-0.708-2.17-1.729-2.17c-0.898,0-1.737,0.635-1.737,2.182C352.941,506.305,353.529,507.373,354.656,507.373z"/>
	<path fill="#FFFFFF" d="M359.326,503.066h-1.021v-0.898h1.043V500.5h1.141v1.668h1.45v0.898h-1.45v2.844
		c0,1.234,0.839,1.391,1.295,1.391c0.168,0,0.275-0.012,0.275-0.012v0.971c0,0-0.168,0.023-0.42,0.023
		c-0.768,0-2.313-0.24-2.313-2.268V503.066z"/>
	<path fill="#FFFFFF" d="M366.344,504.506h0.385v-0.229c0-0.959-0.553-1.295-1.296-1.295c-0.96,0-1.738,0.588-1.738,0.588
		l-0.469-0.828c0,0,0.889-0.719,2.304-0.719c1.548,0,2.361,0.803,2.361,2.338v2.709c0,0.182,0.098,0.266,0.265,0.266h0.612v0.898
		h-1.213c-0.539,0-0.755-0.264-0.755-0.66v-0.084c0-0.24,0.048-0.396,0.048-0.396h-0.022c0,0-0.528,1.283-2.004,1.283
		c-1.007,0-2.015-0.588-2.015-1.834C362.807,504.637,365.336,504.506,366.344,504.506z M365.072,507.48
		c1.031,0,1.668-1.057,1.668-1.967v-0.252h-0.301c-0.552,0-2.459,0.025-2.459,1.188C363.98,506.988,364.377,507.48,365.072,507.48z"
		/>
	<path fill="#FFFFFF" d="M370.09,500.668h-1.02v-0.898h2.183v2.807c0,0.289-0.036,0.504-0.036,0.504h0.024
		c0,0,0.54-1.057,1.955-1.057c1.644,0,2.675,1.295,2.675,3.18c0,1.93-1.164,3.178-2.771,3.178c-1.401,0-1.918-1.105-1.918-1.105
		h-0.023c0,0,0.036,0.217,0.036,0.48v0.479h-1.104V500.668z M372.944,507.373c0.946,0,1.738-0.779,1.738-2.16
		c0-1.318-0.708-2.17-1.715-2.17c-0.899,0-1.752,0.635-1.752,2.182C371.217,506.305,371.781,507.373,372.944,507.373z"/>
	<path fill="#FFFFFF" d="M377.398,500.668h-1.009v-0.898h2.17v6.668c0,0.516,0.121,0.863,0.648,0.863
		c0.19,0,0.324-0.012,0.324-0.012l-0.014,0.959c0,0-0.238,0.023-0.516,0.023c-0.863,0-1.606-0.348-1.606-1.764v-5.84H377.398z"/>
	<path fill="#FFFFFF" d="M383.373,502.023c1.727,0,2.627,1.271,2.627,2.842c0,0.156-0.037,0.443-0.037,0.443h-4.438
		c0.071,1.344,1.02,2.062,2.1,2.062c1.055,0,1.811-0.684,1.811-0.684l0.48,0.852c0,0-0.912,0.84-2.363,0.84
		c-1.907,0-3.215-1.379-3.215-3.178C380.338,503.27,381.646,502.023,383.373,502.023z M384.8,504.566
		c-0.036-1.066-0.684-1.619-1.451-1.619c-0.888,0-1.605,0.6-1.773,1.619H384.8z"/>
	<path fill="#FFFFFF" d="M387.586,506.977h1.224l-1.14,2.746h-0.924L387.586,506.977z"/>
	<path fill="#FFFFFF" d="M396.572,504.506h0.384v-0.229c0-0.959-0.552-1.295-1.295-1.295c-0.96,0-1.739,0.588-1.739,0.588
		l-0.468-0.828c0,0,0.888-0.719,2.303-0.719c1.548,0,2.362,0.803,2.362,2.338v2.709c0,0.182,0.097,0.266,0.264,0.266h0.612v0.898
		h-1.212c-0.539,0-0.755-0.264-0.755-0.66v-0.084c0-0.24,0.048-0.396,0.048-0.396h-0.023c0,0-0.527,1.283-2.004,1.283
		c-1.007,0-2.014-0.588-2.014-1.834C393.035,504.637,395.564,504.506,396.572,504.506z M395.301,507.48
		c1.031,0,1.668-1.057,1.668-1.967v-0.252h-0.301c-0.551,0-2.458,0.025-2.458,1.188C394.21,506.988,394.605,507.48,395.301,507.48z"
		/>
	<path fill="#FFFFFF" d="M399.875,507.336h0.947v-4.006c0-0.18-0.096-0.264-0.265-0.264h-0.743v-0.9h1.366
		c0.527,0,0.769,0.229,0.769,0.672v0.312c0,0.191-0.035,0.348-0.035,0.348h0.022c0.119-0.324,0.828-1.475,2.363-1.475
		c1.391,0,2.014,0.779,2.014,2.326v2.986h0.96v0.898h-2.123v-3.621c0-0.852-0.167-1.523-1.14-1.523
		c-1.223,0-2.026,1.115-2.026,2.328v1.918h0.96v0.898h-3.069V507.336L399.875,507.336z"/>
	<path fill="#FFFFFF" d="M409.018,509.783c0.517,0,0.912-0.359,1.115-0.84l0.252-0.6l-2.123-5.277h-0.768v-0.9h2.771v0.9h-0.805
		l1.354,3.609c0.084,0.264,0.108,0.529,0.108,0.529h0.036c0,0,0.048-0.266,0.144-0.529l1.344-3.609h-0.779v-0.9h2.688v0.9h-0.756
		l-2.397,6.127c-0.408,1.031-1.199,1.561-2.135,1.561c-0.78,0-1.31-0.385-1.31-0.385l0.396-0.875
		C408.154,509.496,408.502,509.783,409.018,509.783z"/>
	<path fill="#FFFFFF" d="M414.587,502.168h2.71v0.898h-0.814l1.031,3.527c0.071,0.252,0.096,0.562,0.096,0.562h0.035
		c0,0,0.024-0.312,0.098-0.562l1.331-4.414h1.056l1.331,4.414c0.072,0.252,0.096,0.562,0.096,0.562h0.036
		c0,0,0.024-0.312,0.098-0.562l1.043-3.527h-0.828v-0.898h2.711v0.898h-0.756l-1.56,5.17h-1.295l-1.284-4.055
		c-0.07-0.275-0.107-0.576-0.107-0.576h-0.023c0,0-0.036,0.301-0.106,0.576l-1.283,4.055h-1.296l-1.561-5.17h-0.755v-0.898H414.587z
		"/>
	<path fill="#FFFFFF" d="M428.673,504.506h0.384v-0.229c0-0.959-0.552-1.295-1.295-1.295c-0.96,0-1.74,0.588-1.74,0.588
		l-0.467-0.828c0,0,0.887-0.719,2.303-0.719c1.548,0,2.362,0.803,2.362,2.338v2.709c0,0.182,0.098,0.266,0.265,0.266h0.611v0.898
		h-1.212c-0.54,0-0.755-0.264-0.755-0.66v-0.084c0-0.24,0.047-0.396,0.047-0.396h-0.022c0,0-0.527,1.283-2.003,1.283
		c-1.008,0-2.016-0.588-2.016-1.834C425.135,504.637,427.665,504.506,428.673,504.506z M427.401,507.48
		c1.03,0,1.667-1.057,1.667-1.967v-0.252h-0.301c-0.552,0-2.458,0.025-2.458,1.188C426.311,506.988,426.705,507.48,427.401,507.48z"
		/>
	<path fill="#FFFFFF" d="M432.862,509.783c0.516,0,0.911-0.359,1.114-0.84l0.252-0.6l-2.123-5.277h-0.768v-0.9h2.771v0.9h-0.805
		l1.355,3.609c0.084,0.264,0.107,0.529,0.107,0.529h0.035c0,0,0.049-0.266,0.146-0.529l1.343-3.609h-0.779v-0.9h2.688v0.9h-0.756
		l-2.398,6.127c-0.408,1.031-1.199,1.561-2.135,1.561c-0.779,0-1.309-0.385-1.309-0.385l0.396-0.875
		C431.998,509.496,432.346,509.783,432.862,509.783z"/>
	<path fill="#FFFFFF" d="M439.93,505.346c0-1.824,2.039-2.086,2.039-3.467c0-0.672-0.575-1.188-1.367-1.188
		c-0.756,0-1.366,0.504-1.366,0.504l-0.647-0.828c0,0,0.792-0.768,2.1-0.768c1.354,0,2.507,0.863,2.507,2.195
		c0,1.979-2.122,2.182-2.122,3.621v0.492h-1.142L439.93,505.346L439.93,505.346z M439.895,507.061h1.212v1.174h-1.212V507.061z"/>
</g>
</svg>
