<?xml version="1.0" encoding="utf-8"?>
<!-- Generator: Adobe Illustrator 15.0.0, SVG Export Plug-In . SVG Version: 6.00 Build 0)  -->
<!DOCTYPE svg PUBLIC "-//W3C//DTD SVG 1.1//EN" "http://www.w3.org/Graphics/SVG/1.1/DTD/svg11.dtd">
<svg version="1.1" id="Layer_1" xmlns="http://www.w3.org/2000/svg" xmlns:xlink="http://www.w3.org/1999/xlink" x="0px" y="0px"
	 width="800px" height="1150px" viewBox="0 0 800 1150" enable-background="new 0 0 800 1150" xml:space="preserve">
<rect x="0.92" fill="#FFFFFF" width="800.952" height="1150"/>
<g>
	<g>
		<path d="M331.02,609.879h3.318v25.881c-0.977-0.381-1.941-0.83-2.898-1.348c-0.953-0.516-1.906-1.114-2.855-1.795
			c-0.949-0.679-1.789-1.355-2.52-2.029c-1.256-1.123-2.402-2.41-3.436-3.859c-1.035-1.449-1.938-3.038-2.713-4.768
			c-1.584-3.482-2.375-7.51-2.375-12.082h3.381c0,2.325,0.262,4.556,0.781,6.69c0.523,2.133,1.25,4.054,2.182,5.762
			c0.852,1.617,1.93,3.129,3.23,4.532c1.223,1.27,2.523,2.303,3.904,3.101V609.879z"/>
		<path d="M363.613,609.879c2.943,0.46,5.645,1.602,8.105,3.421c2.471,1.831,4.414,3.897,5.828,6.2v-9.621h3.32v25.881h-3.32v-5.998
			c0-1.686-0.342-3.364-1.027-5.037c-0.348-0.82-0.75-1.613-1.203-2.377c-0.455-0.764-0.965-1.494-1.525-2.189
			c-1.102-1.359-2.264-2.506-3.488-3.439c-1.236-0.977-2.338-1.611-3.303-1.902v20.943h-3.387V609.879z"/>
		<path d="M385.189,615.338l-1.209-3.42c2.674-2.021,5.549-3.033,8.627-3.033c1.559,0,3.123,0.264,4.684,0.793
			c1.482,0.504,2.797,1.252,3.943,2.24l-1.281,3.42c-1.934-1.595-3.82-2.588-5.662-2.981v23.403h-3.387v-23.403
			c-0.953,0.19-1.928,0.539-2.924,1.045C386.949,613.939,386.02,614.586,385.189,615.338z"/>
		<path d="M404.344,609.879h3.389v19.279c0,1.168,0.43,2.166,1.293,2.997c0.887,0.831,1.891,1.245,3.012,1.245
			c1.145,0,2.164-0.414,3.061-1.245c0.875-0.842,1.312-1.841,1.312-2.997v-19.279h3.283v19.293c0,1.337-0.342,2.592-1.025,3.766
			c-0.686,1.174-1.619,2.104-2.797,2.789c-1.201,0.686-2.479,1.027-3.826,1.027c-2.088,0-3.887-0.769-5.393-2.307
			c-1.539-1.508-2.309-3.265-2.309-5.275V609.879z"/>
		<path d="M426.463,624.792c1.572-0.136,2.943-0.747,4.111-1.837c1.125-1.045,1.686-2.32,1.686-3.826
			c0-1.033-0.275-1.977-0.826-2.83c-0.561-0.82-1.318-1.5-2.275-2.039c-0.932-0.506-1.977-0.758-3.133-0.758v22.258h-3.385v-25.881
			c1.324,0,2.453,0.045,3.385,0.135c1.686,0.102,3.281,0.562,4.785,1.381c1.449,0.787,2.613,1.871,3.488,3.254
			c0.854,1.37,1.281,2.864,1.281,4.48c0,1.641-0.439,3.146-1.314,4.518c-0.91,1.414-2.096,2.51-3.555,3.285
			c0.863,1.549,1.842,2.869,2.93,3.959c1.146,1.18,2.287,2.023,3.422,2.527v3.336c-1.932-0.65-3.59-1.577-4.971-2.779
			c-1.404-1.202-2.545-2.562-3.42-4.078C427.762,628.291,427.025,626.59,426.463,624.792z"/>
		<path d="M346.18,613.65c1.65-0.941,3.408-1.412,5.273-1.412c1.887,0,3.65,0.481,5.291,1.447c1.662,0.998,2.926,2.275,3.791,3.835
			v-5.147c-2.641-2.326-5.666-3.488-9.082-3.488c-2.518,0-4.836,0.621-6.959,1.863c-1.066,0.64-2.027,1.387-2.881,2.24
			s-1.584,1.809-2.191,2.863c-1.246,2.145-1.871,4.469-1.871,6.973c0,2.516,0.625,4.84,1.871,6.974
			c1.225,2.122,2.916,3.813,5.072,5.07c2.102,1.259,4.42,1.886,6.959,1.886c3.404,0,6.432-1.14,9.082-3.42v-5.215
			c-0.865,1.559-2.129,2.838-3.791,3.836c-1.641,0.965-3.404,1.445-5.291,1.445s-3.656-0.47-5.309-1.412
			c-1.65-0.965-2.938-2.255-3.857-3.869c-0.73-1.25-1.176-2.591-1.34-4.023h9.766v-3.134h-9.676
			c0.215-1.208,0.639-2.346,1.283-3.408C343.23,615.961,344.516,614.66,346.18,613.65z"/>
		<path d="M448.348,613.65c1.65-0.941,3.408-1.412,5.273-1.412c1.887,0,3.65,0.481,5.291,1.447c1.662,0.998,2.926,2.275,3.791,3.835
			v-5.147c-2.639-2.326-5.668-3.488-9.082-3.488c-2.518,0-4.836,0.621-6.959,1.863c-1.068,0.64-2.029,1.387-2.883,2.24
			s-1.584,1.809-2.189,2.863c-1.248,2.145-1.871,4.469-1.871,6.973c0,2.516,0.623,4.84,1.871,6.974
			c1.225,2.122,2.916,3.813,5.072,5.07c2.1,1.259,4.42,1.886,6.959,1.886c3.402,0,6.43-1.14,9.082-3.42v-5.215
			c-0.865,1.559-2.129,2.838-3.791,3.836c-1.641,0.965-3.404,1.445-5.291,1.445s-3.656-0.47-5.309-1.412
			c-1.65-0.965-2.938-2.255-3.857-3.869c-0.721-1.23-1.164-2.551-1.334-3.957h9.152v-3.134h-9.08
			c0.209-1.233,0.639-2.394,1.295-3.475C445.398,615.961,446.686,614.66,448.348,613.65z"/>
	</g>
	<path d="M432.295,555.911l-1.012-7.01l-8.414,1.212l0.523,3.63l-0.881,0.954l0.246,0.315c-0.197,0.234-0.615,0.642-1.48,1.228
		c-0.721,0.488-1.043,0.485-1.277,0.41c-0.67-0.206-1.195-1.515-1.367-1.944c-0.348-0.863-0.504-3.821-0.436-5.319
		c0.078-1.73-0.838-6.123-4.055-7.903c-0.859-0.474-1.996-0.714-3.385-0.714c-3.076,0-7.547,1.276-9.406,3.338
		c-1.783,1.981-1.508,4.056-1.186,5.123l-3.057,0.891l-2.045,5.655l3.609,12.377c0,0,0.408,1.956,2.949,1.215
		c2.541-0.742,5.5-1.605,5.5-1.605s2.959-0.864,5.498-1.604c2.541-0.743,1.834-2.611,1.834-2.611l-3.611-12.376l-4.768-3.667
		l-3.408,0.995c-0.156-0.463-0.361-1.542,0.629-2.641c1.145-1.27,4.783-2.471,7.484-2.471c0.9,0,1.645,0.137,2.094,0.386
		c2.166,1.198,2.746,4.67,2.709,5.498c-0.053,1.169,0,4.859,0.621,6.404c0.346,0.869,1.158,2.904,3.033,3.478
		c0.307,0.092,0.629,0.139,0.953,0.139c0.342,0,0.695-0.052,1.047-0.155c0.494-0.143,1.004-0.392,1.508-0.735
		c0.701-0.474,1.26-0.924,1.689-1.358L432.295,555.911z"/>
	
		<rect x="350.908" y="540.976" transform="matrix(0.9813 0.1926 -0.1926 0.9813 115.4551 -60.4139)" width="35.128" height="45.339"/>
	
		<rect x="358.275" y="546.903" transform="matrix(0.9813 0.1925 -0.1925 0.9813 112.6339 -61.1929)" fill="#FFFFFF" width="25.789" height="4.063"/>
	
		<rect x="356.307" y="556.935" transform="matrix(0.9813 0.1927 -0.1927 0.9813 114.6042 -60.657)" fill="#FFFFFF" width="25.786" height="4.061"/>
	
		<rect x="354.59" y="566.655" transform="matrix(0.9813 0.1925 -0.1925 0.9813 116.3772 -60.1172)" fill="#FFFFFF" width="25.787" height="4.063"/>
	<path d="M432.326,562.988c-3.887,0.054-18.236,9.209-18.906,9.688c-0.672,0.479,0.174,1.665,0.174,1.665l1.406,2.37l1.406,2.369
		c0,0,0.633,1.311,1.377,0.953c0.74-0.36,15.656-8.563,17.566-11.947c0,0,1.742-1.416,0.396-3.682
		C434.402,562.139,432.326,562.988,432.326,562.988z"/>
	<path fill="#FFFFFF" d="M433.836,565.536c0.256,0.431,0.256,0.904,0,1.057l-12.785,7.583c-0.258,0.151-0.672-0.075-0.926-0.504l0,0
		c-0.258-0.431-0.254-0.902,0.002-1.054l12.783-7.584C433.168,564.879,433.582,565.105,433.836,565.536L433.836,565.536z"/>
	<polygon fill="#FFFFFF" points="414.268,572.122 418.676,579.553 419.516,579.086 415.051,571.562 	"/>
	<path d="M417.535,579.615l-18.662,11.069c0,0-7.033,4.173-9.418,1.2l-0.061-0.105c-1.469-3.521,5.564-7.691,5.564-7.691
		l18.664-11.069"/>
	<rect x="274.578" y="650.156" fill="none" width="233.969" height="13.051"/>
	<text transform="matrix(1 0 0 1 324.6318 660.8848)" font-family="'Futura-Medium'" font-size="13.0396" letter-spacing="6">SINCE 1972</text>
</g>
<g>
	<g>
		<path d="M696.496,1029.908h3.319v25.882c-0.978-0.381-1.942-0.831-2.898-1.348c-0.955-0.516-1.906-1.114-2.855-1.795
			c-0.949-0.679-1.79-1.355-2.52-2.029c-1.258-1.123-2.404-2.41-3.437-3.859c-1.034-1.449-1.938-3.038-2.713-4.768
			c-1.584-3.483-2.376-7.51-2.376-12.083h3.382c0,2.326,0.261,4.556,0.782,6.69c0.521,2.134,1.249,4.055,2.18,5.762
			c0.853,1.619,1.93,3.13,3.232,4.533c1.221,1.27,2.522,2.303,3.903,3.101V1029.908z"/>
		<path d="M729.089,1029.908c2.943,0.461,5.646,1.603,8.106,3.421c2.471,1.832,4.414,3.898,5.83,6.201v-9.622h3.319v25.882h-3.319
			v-5.998c0-1.686-0.345-3.365-1.029-5.038c-0.348-0.819-0.749-1.612-1.204-2.376s-0.963-1.494-1.525-2.189
			c-1.1-1.36-2.263-2.506-3.486-3.439c-1.236-0.977-2.337-1.611-3.304-1.902v20.943h-3.388V1029.908z"/>
		<path d="M750.667,1035.368l-1.211-3.42c2.675-2.021,5.549-3.033,8.628-3.033c1.56,0,3.122,0.264,4.683,0.792
			c1.482,0.505,2.798,1.253,3.943,2.241l-1.279,3.42c-1.934-1.595-3.821-2.589-5.663-2.982v23.404h-3.386v-23.404
			c-0.953,0.191-1.928,0.54-2.925,1.045C752.427,1033.97,751.496,1034.616,750.667,1035.368z"/>
		<path d="M769.821,1029.908h3.387v19.28c0,1.167,0.432,2.166,1.294,2.998c0.888,0.83,1.891,1.244,3.011,1.244
			c1.145,0,2.164-0.414,3.061-1.244c0.876-0.842,1.312-1.842,1.312-2.998v-19.28h3.285v19.294c0,1.337-0.342,2.592-1.027,3.766
			c-0.685,1.174-1.617,2.104-2.796,2.789c-1.202,0.686-2.478,1.027-3.826,1.027c-2.089,0-3.887-0.769-5.393-2.308
			c-1.539-1.507-2.308-3.263-2.308-5.274V1029.908z"/>
		<path d="M791.939,1044.821c1.573-0.135,2.943-0.746,4.113-1.837c1.122-1.044,1.684-2.319,1.684-3.825
			c0-1.033-0.274-1.977-0.826-2.83c-0.562-0.82-1.319-1.5-2.274-2.039c-0.932-0.506-1.978-0.758-3.134-0.758v22.258h-3.386v-25.882
			c1.325,0,2.453,0.046,3.386,0.136c1.687,0.101,3.28,0.562,4.785,1.382c1.449,0.786,2.612,1.87,3.488,3.253
			c0.854,1.37,1.28,2.864,1.28,4.48c0,1.641-0.438,3.146-1.313,4.517c-0.911,1.415-2.095,2.511-3.555,3.285
			c0.864,1.55,1.842,2.871,2.93,3.96c1.147,1.18,2.288,2.022,3.422,2.527v3.336c-1.932-0.65-3.59-1.578-4.971-2.779
			c-1.405-1.202-2.545-2.561-3.42-4.078C793.239,1048.321,792.502,1046.619,791.939,1044.821z"/>
		<path d="M711.655,1033.681c1.651-0.941,3.409-1.412,5.274-1.412c1.887,0,3.651,0.481,5.291,1.447
			c1.663,0.998,2.927,2.275,3.792,3.834v-5.146c-2.641-2.326-5.667-3.488-9.083-3.488c-2.516,0-4.836,0.621-6.958,1.863
			c-1.068,0.641-2.029,1.387-2.882,2.239c-0.854,0.854-1.584,1.809-2.19,2.864c-1.248,2.145-1.87,4.469-1.87,6.973
			c0,2.516,0.622,4.84,1.87,6.974c1.224,2.122,2.914,3.813,5.072,5.07c2.1,1.258,4.419,1.886,6.958,1.886
			c3.403,0,6.431-1.141,9.083-3.42v-5.215c-0.865,1.559-2.129,2.838-3.792,3.836c-1.64,0.965-3.404,1.445-5.291,1.445
			c-1.888,0-3.657-0.47-5.308-1.412c-1.65-0.965-2.938-2.255-3.858-3.869c-0.729-1.25-1.175-2.592-1.34-4.023h9.766v-3.134h-9.676
			c0.215-1.208,0.639-2.346,1.283-3.408C708.706,1035.991,709.993,1034.69,711.655,1033.681z"/>
		<path d="M813.823,1033.681c1.651-0.941,3.41-1.412,5.273-1.412c1.888,0,3.65,0.481,5.291,1.447
			c1.663,0.998,2.927,2.275,3.791,3.834v-5.146c-2.639-2.326-5.667-3.488-9.082-3.488c-2.516,0-4.835,0.621-6.959,1.863
			c-1.066,0.641-2.027,1.387-2.881,2.239c-0.854,0.854-1.584,1.809-2.19,2.864c-1.247,2.145-1.87,4.469-1.87,6.973
			c0,2.516,0.623,4.84,1.87,6.974c1.224,2.122,2.915,3.813,5.071,5.07c2.102,1.258,4.42,1.886,6.959,1.886
			c3.404,0,6.432-1.141,9.082-3.42v-5.215c-0.864,1.559-2.128,2.838-3.791,3.836c-1.641,0.965-3.403,1.445-5.291,1.445
			c-1.887,0-3.656-0.47-5.307-1.412c-1.652-0.965-2.938-2.255-3.859-3.869c-0.719-1.23-1.163-2.551-1.334-3.957h9.153v-3.135h-9.081
			c0.211-1.232,0.639-2.392,1.297-3.474C810.875,1035.991,812.162,1034.69,813.823,1033.681z"/>
	</g>
	
		<rect x="757.747" y="929.953" transform="matrix(0.9253 -0.3791 0.3791 0.9253 -304.8193 366.8301)" width="42.473" height="54.816"/>
	
		<rect x="756.33" y="938.259" transform="matrix(0.9253 -0.3792 0.3792 0.9253 -299.0428 362.9225)" fill="#FFFFFF" width="31.178" height="4.911"/>
	
		<rect x="761.017" y="949.697" transform="matrix(0.9254 -0.3791 0.3791 0.9254 -302.9856 365.472)" fill="#FFFFFF" width="31.176" height="4.91"/>
	
		<rect x="765.75" y="960.651" transform="matrix(0.9253 -0.3792 0.3792 0.9253 -306.8472 368.1978)" fill="#FFFFFF" width="31.178" height="4.913"/>
	<path d="M826.593,982.038c-5.809-1.432-30.758,6.615-31.941,7.066c-1.188,0.45-0.391,2.547-0.391,2.547l1.171,4.079l1.172,4.077
		c0,0,0.431,2.201,1.681,1.957c1.244-0.247,26.662-6.656,30.826-10.953c0,0,3.146-1.431,2.026-5.331
		C830.017,981.583,826.593,982.038,826.593,982.038z"/>
	<path fill="#FFFFFF" d="M827.852,986.423c0.213,0.742,0.027,1.445-0.411,1.574l-22.006,6.314c-0.442,0.125-0.971-0.373-1.182-1.112
		l0,0c-0.217-0.742-0.028-1.442,0.413-1.57l22.003-6.317C827.109,985.185,827.641,985.683,827.852,986.423L827.852,986.423z"/>
	<polygon fill="#FFFFFF" points="796.132,988.609 799.801,1001.398 801.233,1001.028 797.514,988.081 	"/>
	<path d="M798.077,1001.046l-32.117,9.22c0,0-12.104,3.476-14.5-1.884l-0.05-0.181c-0.814-5.818,11.29-9.29,11.29-9.29l32.121-9.218
		"/>
	<rect x="641.099" y="1068.552" fill="none" width="233.969" height="13.051"/>
	<text transform="matrix(1 0 0 1 691.1562 1079.2812)" font-family="'Futura-Medium'" font-size="13.0396" letter-spacing="6">SINCE 1972</text>
	<path d="M747.261,992.989c0.352-13.715-3.027-40.699-4.492-45.712c-2.328-7.964-6.712-12.955-12.69-14.464l0.001-0.006
		l-0.424-0.095l-0.002,0.006c-6.054-1.164-12.139,1.502-17.622,7.731c-3.429,3.896-5.605,8.018-6.237,9.283
		c0,0-11.754,17.596-17.257,30.211c-5.506,12.615-2.393,17.09,0.219,18.968c2.608,1.878,24.815,7.026,24.815,7.026
		s22.299,4.738,25.459,4.143S746.906,1006.749,747.261,992.989z M722.407,966.172c-14.368-3.192-12.736-14.03-12.592-14.853
		c1.588-3.064,9.111-16.371,19.117-14.355c9.832,2.391,11.079,17.467,11.238,21.037l-0.057-0.004
		C740.114,957.997,737.345,969.489,722.407,966.172z"/>
</g>
<g>
	<g>
		<path d="M-21.083,925.593h3.32v25.881c-0.978-0.38-1.943-0.831-2.898-1.347c-0.955-0.517-1.907-1.115-2.857-1.795
			c-0.948-0.68-1.789-1.355-2.52-2.029c-1.256-1.124-2.402-2.41-3.436-3.859c-1.034-1.449-1.938-3.038-2.713-4.768
			c-1.584-3.483-2.376-7.51-2.376-12.083h3.383c0,2.326,0.261,4.556,0.781,6.691c0.522,2.133,1.249,4.054,2.18,5.761
			c0.854,1.619,1.931,3.13,3.231,4.533c1.223,1.27,2.524,2.303,3.904,3.1V925.593z"/>
		<path d="M11.51,925.593c2.943,0.461,5.645,1.603,8.105,3.421c2.471,1.831,4.414,3.898,5.83,6.201v-9.622h3.319v25.881h-3.319
			v-5.997c0-1.686-0.344-3.364-1.029-5.039c-0.347-0.818-0.749-1.611-1.203-2.376c-0.455-0.763-0.965-1.493-1.525-2.188
			c-1.102-1.36-2.264-2.507-3.487-3.438c-1.235-0.979-2.337-1.612-3.303-1.903v20.942H11.51V925.593z"/>
		<path d="M33.086,931.053l-1.209-3.42c2.674-2.021,5.55-3.033,8.627-3.033c1.56,0,3.123,0.263,4.683,0.792
			c1.483,0.505,2.798,1.253,3.944,2.241l-1.281,3.42c-1.933-1.596-3.819-2.59-5.661-2.982v23.403h-3.388V928.07
			c-0.951,0.191-1.927,0.539-2.924,1.045C34.846,929.654,33.917,930.301,33.086,931.053z"/>
		<path d="M52.242,925.593h3.388v19.28c0,1.167,0.431,2.166,1.294,2.996c0.886,0.831,1.89,1.247,3.012,1.247
			c1.144,0,2.163-0.416,3.06-1.247c0.875-0.841,1.312-1.84,1.312-2.996v-19.28h3.284v19.294c0,1.336-0.342,2.592-1.026,3.766
			c-0.686,1.174-1.617,2.104-2.797,2.788c-1.201,0.686-2.478,1.028-3.826,1.028c-2.088,0-3.886-0.77-5.392-2.309
			c-1.539-1.505-2.309-3.263-2.309-5.273V925.593z"/>
		<path d="M74.36,940.506c1.573-0.135,2.943-0.746,4.113-1.838c1.123-1.043,1.684-2.318,1.684-3.824c0-1.033-0.274-1.977-0.825-2.83
			c-0.562-0.82-1.319-1.501-2.275-2.039c-0.932-0.506-1.977-0.759-3.133-0.759v22.258h-3.388v-25.881
			c1.326,0,2.455,0.045,3.388,0.136c1.685,0.101,3.279,0.562,4.784,1.381c1.449,0.787,2.613,1.871,3.488,3.253
			c0.854,1.37,1.281,2.864,1.281,4.481c0,1.641-0.438,3.146-1.313,4.516c-0.91,1.416-2.097,2.512-3.556,3.285
			c0.864,1.551,1.842,2.872,2.93,3.96c1.146,1.18,2.288,2.024,3.422,2.528v3.336c-1.932-0.652-3.59-1.578-4.971-2.779
			c-1.404-1.203-2.545-2.561-3.42-4.078C75.66,944.005,74.923,942.303,74.36,940.506z"/>
		<path d="M-5.923,929.366c1.651-0.942,3.408-1.413,5.273-1.413c1.887,0,3.651,0.481,5.292,1.446
			c1.662,0.998,2.926,2.276,3.791,3.835v-5.146c-2.64-2.326-5.667-3.488-9.083-3.488c-2.516,0-4.836,0.621-6.959,1.862
			c-1.067,0.642-2.027,1.388-2.881,2.24c-0.854,0.854-1.584,1.808-2.191,2.863c-1.246,2.146-1.869,4.469-1.869,6.974
			c0,2.516,0.623,4.84,1.869,6.973c1.225,2.122,2.915,3.814,5.072,5.071c2.102,1.257,4.42,1.886,6.959,1.886
			c3.404,0,6.432-1.141,9.083-3.42v-5.215c-0.865,1.559-2.129,2.838-3.791,3.836c-1.641,0.964-3.405,1.446-5.292,1.446
			s-3.656-0.471-5.307-1.413c-1.652-0.965-2.939-2.255-3.859-3.869c-0.73-1.25-1.175-2.592-1.34-4.024h9.766v-3.134h-9.676
			c0.215-1.207,0.639-2.345,1.283-3.407C-8.872,931.676-7.586,930.375-5.923,929.366z"/>
		<path d="M96.245,929.366c1.65-0.942,3.409-1.413,5.273-1.413c1.887,0,3.65,0.481,5.291,1.446c1.662,0.998,2.926,2.276,3.791,3.835
			v-5.146c-2.639-2.326-5.668-3.488-9.082-3.488c-2.518,0-4.836,0.621-6.959,1.862c-1.067,0.642-2.027,1.388-2.882,2.24
			c-0.854,0.854-1.584,1.808-2.189,2.863c-1.247,2.146-1.871,4.469-1.871,6.974c0,2.516,0.624,4.84,1.871,6.973
			c1.223,2.122,2.914,3.814,5.071,5.071c2.101,1.257,4.42,1.886,6.959,1.886c3.404,0,6.431-1.141,9.082-3.42v-5.215
			c-0.865,1.559-2.129,2.838-3.791,3.836c-1.641,0.964-3.404,1.446-5.291,1.446c-1.888,0-3.656-0.471-5.307-1.413
			c-1.652-0.965-2.938-2.255-3.859-3.869c-0.72-1.23-1.163-2.551-1.335-3.957h9.153v-3.134h-9.08
			c0.211-1.234,0.638-2.394,1.295-3.475C93.295,931.676,94.583,930.375,96.245,929.366z"/>
	</g>
	<path d="M102.736,995.812l-1.558-10.793l-12.958,1.866l0.808,5.589l-1.359,1.469l0.381,0.486c-0.305,0.359-0.949,0.989-2.28,1.891
		c-1.109,0.752-1.606,0.746-1.969,0.632c-1.03-0.317-1.84-2.333-2.105-2.993c-0.534-1.33-0.772-5.885-0.67-8.191
		c0.12-2.663-1.29-9.428-6.243-12.17c-1.323-0.73-3.075-1.099-5.213-1.099c-4.736,0-11.622,1.964-14.485,5.14
		c-2.747,3.05-2.323,6.246-1.827,7.889L48.55,986.9l-3.15,8.709l5.56,19.061c0,0,0.63,3.013,4.54,1.873
		c3.915-1.145,8.472-2.473,8.472-2.473s4.558-1.334,8.468-2.473c3.913-1.144,2.825-4.02,2.825-4.02l-5.562-19.059l-7.343-5.65
		l-5.246,1.533c-0.244-0.713-0.56-2.375,0.966-4.066c1.763-1.957,7.365-3.806,11.525-3.806c1.387,0,2.532,0.21,3.226,0.595
		c3.335,1.844,4.229,7.19,4.171,8.467c-0.081,1.801,0,7.482,0.955,9.862c0.535,1.337,1.786,4.472,4.672,5.356
		c0.473,0.142,0.969,0.213,1.47,0.213c0.526,0,1.071-0.081,1.611-0.236c0.762-0.222,1.545-0.604,2.323-1.134
		c1.08-0.731,1.939-1.424,2.6-2.092L102.736,995.812z"/>
	<rect x="-22.6" y="972.815" transform="matrix(0.9813 0.1926 -0.1926 0.9813 194.1975 18.0153)" width="54.099" height="69.82"/>
	
		<rect x="-11.254" y="981.941" transform="matrix(0.9813 0.1926 -0.1926 0.9813 189.854 16.7804)" fill="#FFFFFF" width="39.713" height="6.257"/>
	
		<rect x="-14.286" y="997.389" transform="matrix(0.9813 0.1926 -0.1926 0.9813 192.8334 17.6653)" fill="#FFFFFF" width="39.711" height="6.256"/>
	
		<rect x="-16.93" y="1012.358" transform="matrix(0.9813 0.1925 -0.1925 0.9813 195.5859 18.4391)" fill="#FFFFFF" width="39.712" height="6.258"/>
	<path d="M102.784,1006.713c-5.984,0.084-28.083,14.184-29.115,14.92c-1.035,0.736,0.268,2.562,0.268,2.562l2.166,3.651l2.164,3.646
		c0,0,0.975,2.021,2.122,1.468c1.141-0.555,24.109-13.188,27.052-18.396c0,0,2.681-2.182,0.609-5.671
		C105.979,1005.406,102.784,1006.713,102.784,1006.713z"/>
	<path fill="#FFFFFF" d="M105.111,1010.637c0.393,0.662,0.392,1.391,0,1.625l-19.692,11.68c-0.396,0.234-1.031-0.115-1.424-0.777
		l0,0c-0.396-0.662-0.393-1.389,0.001-1.624l19.69-11.681C104.08,1009.625,104.717,1009.973,105.111,1010.637L105.111,1010.637z"/>
	<polygon fill="#FFFFFF" points="74.975,1020.779 81.762,1032.223 83.055,1031.504 76.18,1019.918 	"/>
	<path d="M80.005,1032.318l-28.738,17.049c0,0-10.831,6.424-14.503,1.846l-0.096-0.163c-2.26-5.423,8.572-11.844,8.572-11.844
		l28.741-17.046"/>
	<rect x="-75.933" y="1069.977" fill="none" width="233.969" height="13.051"/>
	<text transform="matrix(1 0 0 1 -25.8784 1080.7061)" font-family="'Futura-Medium'" font-size="13.0396" letter-spacing="6">SINCE 1972</text>
</g>
<g>
	<path d="M105.075,1207.938c-2.468-12.636-11.055-36.665-13.417-40.957c-3.753-6.823-8.782-10.503-14.566-10.668v-0.006h-0.407
		v0.006c-5.785,0.165-10.815,3.845-14.57,10.668c-2.346,4.266-3.504,8.484-3.823,9.772c0,0-7.186,18.509-9.662,31.185
		c-2.475,12.676,1.289,16.141,4.061,17.33c2.773,1.188,24.162,1.385,24.162,1.385s21.391-0.196,24.162-1.385
		C103.787,1224.078,107.55,1220.613,105.075,1207.938z M91.434,1186.502c-0.444,2.623-0.444,2.623-0.444,2.623
		s-7.083-0.787-14.136-0.695l0,0h-0.002c-7.053-0.092-14.136,0.695-14.136,0.695s0,0-0.445-2.623s0.027-9.113,0.027-9.113
		c0.829-3.132,5.015-16.85,14.589-17.041c9.491,0.188,13.703,13.744,14.574,16.983l-0.053,0.007c0,0,0,0.021-0.003,0.051h0.003
		C91.408,1177.389,91.879,1183.879,91.434,1186.502z"/>
	<path d="M35.863,1197.848c-0.574-10.211-2.179-20.191-5.609-28.566c-1.75-4.275-7.068-6.067-11.854-6.801
		c-0.114-1.415-0.571-3.699-2.225-5.486c-1.544-1.668-3.72-2.512-6.468-2.512c-2.747,0-4.922,0.844-6.466,2.512
		c-1.655,1.787-2.111,4.071-2.227,5.486c-4.786,0.733-10.103,2.525-11.854,6.801c-3.43,8.375-5.037,18.355-5.609,28.566
		c-0.573,10.209-3.098,27.531,8.374,28.106c0,0,14.225,0.802,17.781,0.688c3.558,0.113,17.781-0.688,17.781-0.688
		C38.961,1225.379,36.438,1208.057,35.863,1197.848z M4.523,1162.105c0.143-0.866,0.477-1.957,1.255-2.787
		c0.866-0.926,2.189-1.395,3.929-1.395c1.74,0,3.063,0.469,3.928,1.395c0.779,0.83,1.113,1.921,1.257,2.787
		C11.909,1161.906,7.505,1161.906,4.523,1162.105z"/>
	<g>
		<path d="M-15.176,1245.77h3.32v25.883c-0.979-0.382-1.944-0.831-2.9-1.348c-0.954-0.518-1.905-1.115-2.854-1.796
			c-0.949-0.679-1.79-1.355-2.519-2.03c-1.259-1.122-2.404-2.409-3.438-3.859c-1.033-1.448-1.938-3.037-2.714-4.767
			c-1.583-3.483-2.376-7.509-2.376-12.083h3.384c0,2.327,0.26,4.556,0.781,6.691c0.522,2.134,1.249,4.055,2.179,5.762
			c0.855,1.617,1.931,3.13,3.232,4.533c1.223,1.269,2.523,2.302,3.904,3.1V1245.77z"/>
		<path d="M17.418,1245.77c2.942,0.462,5.646,1.602,8.105,3.421c2.472,1.831,4.414,3.899,5.83,6.202v-9.623h3.318v25.883h-3.318
			v-5.999c0-1.685-0.344-3.365-1.029-5.039c-0.348-0.819-0.749-1.61-1.203-2.375c-0.457-0.765-0.964-1.495-1.526-2.19
			c-1.101-1.359-2.263-2.505-3.486-3.438c-1.236-0.978-2.338-1.611-3.303-1.902v20.943h-3.388V1245.77z"/>
		<path d="M38.995,1251.229l-1.211-3.419c2.675-2.023,5.55-3.035,8.628-3.035c1.561,0,3.123,0.264,4.684,0.794
			c1.483,0.505,2.798,1.253,3.943,2.241l-1.28,3.419c-1.934-1.593-3.82-2.589-5.662-2.982v23.405h-3.388v-23.405
			c-0.952,0.191-1.928,0.54-2.924,1.046C40.755,1249.831,39.824,1250.478,38.995,1251.229z"/>
		<path d="M58.15,1245.77h3.387v19.281c0,1.167,0.431,2.166,1.295,2.996c0.886,0.831,1.888,1.246,3.01,1.246
			c1.146,0,2.165-0.415,3.061-1.246c0.875-0.841,1.312-1.84,1.312-2.996v-19.281H73.5v19.295c0,1.336-0.343,2.591-1.027,3.765
			c-0.685,1.175-1.618,2.104-2.796,2.789c-1.202,0.686-2.478,1.027-3.826,1.027c-2.089,0-3.887-0.768-5.392-2.308
			c-1.54-1.507-2.309-3.263-2.309-5.273V1245.77z"/>
		<path d="M80.269,1260.683c1.573-0.134,2.944-0.746,4.112-1.837c1.124-1.045,1.685-2.318,1.685-3.825
			c0-1.032-0.275-1.976-0.826-2.83c-0.561-0.819-1.319-1.5-2.274-2.038c-0.932-0.508-1.977-0.758-3.134-0.758v22.258h-3.386v-25.883
			c1.325,0,2.454,0.045,3.386,0.137c1.686,0.1,3.28,0.562,4.786,1.381c1.448,0.786,2.611,1.869,3.487,3.253
			c0.853,1.37,1.28,2.864,1.28,4.48c0,1.642-0.438,3.146-1.313,4.517c-0.911,1.416-2.095,2.51-3.555,3.285
			c0.863,1.55,1.842,2.871,2.931,3.959c1.146,1.182,2.287,2.023,3.42,2.529v3.335c-1.932-0.651-3.589-1.577-4.971-2.78
			c-1.403-1.2-2.544-2.562-3.419-4.077C81.567,1264.183,80.832,1262.481,80.269,1260.683z"/>
		<path d="M-0.016,1249.543c1.652-0.943,3.41-1.412,5.275-1.412c1.885,0,3.649,0.481,5.29,1.446
			c1.662,0.999,2.926,2.274,3.791,3.834v-5.146c-2.64-2.328-5.667-3.49-9.081-3.49c-2.518,0-4.838,0.622-6.961,1.864
			c-1.066,0.641-2.027,1.388-2.881,2.239c-0.854,0.854-1.585,1.809-2.189,2.864c-1.248,2.145-1.871,4.47-1.871,6.974
			c0,2.514,0.623,4.839,1.871,6.973c1.223,2.123,2.913,3.812,5.07,5.071c2.102,1.257,4.42,1.885,6.961,1.885
			c3.401,0,6.43-1.14,9.081-3.421v-5.214c-0.865,1.559-2.129,2.839-3.791,3.836c-1.641,0.965-3.405,1.446-5.29,1.446
			c-1.889,0-3.658-0.471-5.309-1.414c-1.652-0.963-2.938-2.254-3.859-3.868c-0.73-1.25-1.176-2.591-1.34-4.022h9.766v-3.135h-9.677
			c0.216-1.208,0.64-2.347,1.284-3.408C-2.965,1251.852-1.68,1250.551-0.016,1249.543z"/>
		<path d="M102.152,1249.543c1.651-0.943,3.41-1.412,5.273-1.412c1.887,0,3.65,0.481,5.291,1.446
			c1.663,0.999,2.928,2.274,3.792,3.834v-5.146c-2.64-2.328-5.667-3.49-9.083-3.49c-2.516,0-4.836,0.622-6.959,1.864
			c-1.067,0.641-2.027,1.388-2.881,2.239c-0.854,0.854-1.584,1.809-2.191,2.864c-1.246,2.145-1.869,4.47-1.869,6.974
			c0,2.514,0.623,4.839,1.869,6.973c1.224,2.123,2.916,3.812,5.072,5.071c2.101,1.257,4.421,1.885,6.959,1.885
			c3.404,0,6.432-1.14,9.083-3.421v-5.214c-0.864,1.559-2.129,2.839-3.792,3.836c-1.641,0.965-3.404,1.446-5.291,1.446
			s-3.655-0.471-5.307-1.414c-1.652-0.963-2.938-2.254-3.859-3.868c-0.719-1.23-1.163-2.551-1.334-3.956h9.152v-3.135h-9.08
			c0.211-1.233,0.639-2.394,1.296-3.475C99.204,1251.852,100.49,1250.551,102.152,1249.543z"/>
	</g>
	<path fill="#FFFFFF" d="M79.005,1212.879H74.51c-4.062,0-7.369-3.021-7.369-6.739s3.307-6.742,7.369-6.742h4.495
		c4.063,0,7.368,3.024,7.368,6.742S83.068,1212.879,79.005,1212.879z M74.51,1201.928c-2.67,0-4.838,1.889-4.838,4.212
		c0,2.321,2.168,4.211,4.838,4.211h4.495c2.667,0,4.839-1.89,4.839-4.211c0-2.323-2.172-4.212-4.839-4.212H74.51z"/>
	<path fill="#FFFFFF" d="M29.971,1192.338c-0.044-0.909-0.089-1.834-0.131-2.772c-0.234-5.203-3.277-9.073-8.799-11.2
		c-5.11-1.967-10.714-1.822-11.334-1.801c-0.623-0.021-6.224-0.164-11.332,1.801c-5.521,2.125-8.564,5.997-8.799,11.2
		c-0.044,0.938-0.09,1.863-0.134,2.772c-0.288,5.878-0.538,10.955,0.227,14.841c0.917,4.665,3.278,7.071,7.218,7.357
		c7.867,0.569,12.772,0.576,12.82,0.576c0.049,0,4.953-0.007,12.821-0.576c3.939-0.286,6.301-2.692,7.219-7.357
		C30.51,1203.293,30.262,1198.216,29.971,1192.338z M22.355,1212.133c-7.771,0.562-12.598,0.57-12.648,0.57
		c-0.05,0-4.867-0.006-12.646-0.57c-5.871-0.424-5.814-7.395-5.212-19.678c0.026-0.539,0.053-1.082,0.08-1.631
		c0.079-1.631,0.184-2.409,0.184-2.409c0.583-3.581,2.976-6.202,7.128-7.801c3.872-1.49,8.112-1.65,9.755-1.65
		c0.415,0,0.655,0.01,0.657,0.01l0.055,0.001l0.055-0.001c0,0,0.242-0.01,0.657-0.01c1.645,0,5.884,0.16,9.755,1.65
		c3.865,1.487,6.202,3.86,6.979,7.067v-0.002c0.479,1.439,0.333,3.145,0.333,3.145c0.027,0.549,0.053,1.092,0.08,1.631
		C28.168,1204.738,28.225,1211.709,22.355,1212.133z"/>
	<rect x="-74.92" y="1289.052" fill="none" width="233.969" height="13.05"/>
	<text transform="matrix(1 0 0 1 -24.8672 1299.7715)" font-family="'Futura-Medium'" font-size="13.0396" letter-spacing="6">SINCE 1972</text>
</g>
</svg>
