<?xml version="1.0" encoding="utf-8"?>
<!-- Generator: Adobe Illustrator 15.0.0, SVG Export Plug-In . SVG Version: 6.00 Build 0)  -->
<!DOCTYPE svg PUBLIC "-//W3C//DTD SVG 1.1//EN" "http://www.w3.org/Graphics/SVG/1.1/DTD/svg11.dtd">
<svg version="1.1" id="Layer_1" xmlns="http://www.w3.org/2000/svg" xmlns:xlink="http://www.w3.org/1999/xlink" x="0px" y="0px"
	 width="190px" height="190px" viewBox="55 55 190 190" enable-background="new 55 55 190 190" xml:space="preserve">
<rect x="55" y="55" fill="#FFFFFF" width="190" height="190"/>
<g>
	<g>
		<path d="M97.207,173.237h2.922v22.777c-0.861-0.336-1.71-0.731-2.552-1.187c-0.839-0.456-1.678-0.981-2.513-1.581
			c-0.835-0.597-1.574-1.192-2.216-1.785c-1.106-0.988-2.115-2.12-3.025-3.395c-0.909-1.276-1.706-2.676-2.388-4.198
			c-1.394-3.063-2.09-6.607-2.09-10.632h2.976c0,2.047,0.23,4.011,0.688,5.889c0.459,1.875,1.099,3.567,1.919,5.07
			c0.75,1.424,1.698,2.754,2.842,3.988c1.076,1.117,2.221,2.027,3.436,2.729L97.207,173.237L97.207,173.237z"/>
		<path d="M125.89,173.237c2.591,0.405,4.968,1.411,7.133,3.012c2.174,1.61,3.884,3.429,5.13,5.455v-8.467h2.92v22.777h-2.92v-5.278
			c0-1.482-0.303-2.961-0.905-4.434c-0.307-0.721-0.658-1.419-1.059-2.092c-0.4-0.672-0.848-1.312-1.342-1.926
			c-0.968-1.198-1.992-2.205-3.069-3.026c-1.086-0.859-2.056-1.417-2.907-1.674v18.43h-2.98V173.237z"/>
		<path d="M144.877,178.043l-1.064-3.01c2.354-1.779,4.884-2.669,7.591-2.669c1.375,0,2.749,0.231,4.123,0.696
			c1.306,0.445,2.462,1.103,3.47,1.973l-1.126,3.01c-1.701-1.405-3.36-2.279-4.982-2.625v20.597h-2.979v-20.597
			c-0.839,0.168-1.697,0.477-2.575,0.921C146.428,176.812,145.607,177.379,144.877,178.043z"/>
		<path d="M161.735,173.237h2.979v16.967c0,1.027,0.381,1.907,1.141,2.638c0.78,0.73,1.661,1.096,2.648,1.096
			c1.007,0,1.904-0.365,2.693-1.096c0.77-0.741,1.155-1.62,1.155-2.638v-16.967h2.89v16.979c0,1.176-0.301,2.282-0.903,3.314
			c-0.603,1.034-1.423,1.852-2.459,2.454c-1.059,0.604-2.182,0.904-3.368,0.904c-1.838,0-3.42-0.678-4.744-2.031
			c-1.356-1.326-2.032-2.873-2.032-4.642V173.237L161.735,173.237z"/>
		<path d="M181.2,186.359c1.384-0.117,2.588-0.655,3.618-1.615c0.988-0.918,1.483-2.039,1.483-3.365c0-0.91-0.242-1.739-0.728-2.491
			c-0.494-0.723-1.162-1.32-2.002-1.794c-0.82-0.445-1.739-0.666-2.759-0.666v19.587h-2.978v-22.777c1.166,0,2.158,0.038,2.978,0.12
			c1.484,0.088,2.888,0.494,4.211,1.216c1.277,0.691,2.3,1.646,3.072,2.861c0.749,1.208,1.123,2.521,1.123,3.944
			c0,1.443-0.384,2.768-1.155,3.973c-0.801,1.246-1.842,2.211-3.128,2.894c0.76,1.363,1.622,2.525,2.58,3.483
			c1.008,1.04,2.013,1.781,3.01,2.224v2.937c-1.699-0.573-3.158-1.388-4.374-2.446c-1.235-1.058-2.239-2.253-3.01-3.588
			C182.343,189.44,181.692,187.943,181.2,186.359z"/>
		<path d="M110.549,176.558c1.452-0.828,3-1.243,4.641-1.243c1.66,0,3.212,0.423,4.656,1.271c1.462,0.881,2.576,2.005,3.336,3.376
			v-4.529c-2.322-2.045-4.986-3.068-7.992-3.068c-2.215,0-4.256,0.545-6.124,1.638c-0.938,0.564-1.784,1.223-2.535,1.971
			c-0.752,0.753-1.395,1.594-1.927,2.52c-1.098,1.89-1.646,3.935-1.646,6.138c0,2.214,0.549,4.261,1.646,6.138
			c1.076,1.867,2.564,3.354,4.462,4.463c1.85,1.104,3.89,1.658,6.124,1.658c2.995,0,5.66-1.003,7.992-3.01v-4.589
			c-0.76,1.371-1.874,2.499-3.336,3.375c-1.444,0.849-2.996,1.272-4.656,1.272c-1.661,0-3.218-0.415-4.67-1.242
			c-1.454-0.85-2.586-1.985-3.396-3.405c-0.643-1.1-1.034-2.279-1.179-3.541h8.594v-2.758h-8.516
			c0.189-1.063,0.562-2.063,1.13-2.997C107.953,178.591,109.084,177.445,110.549,176.558z"/>
		<path d="M200.456,176.558c1.455-0.828,3.002-1.243,4.641-1.243c1.661,0,3.212,0.423,4.656,1.271
			c1.463,0.881,2.578,2.005,3.336,3.376v-4.529c-2.322-2.045-4.988-3.068-7.992-3.068c-2.215,0-4.254,0.545-6.124,1.638
			c-0.938,0.564-1.783,1.223-2.535,1.971c-0.752,0.753-1.393,1.594-1.928,2.52c-1.096,1.89-1.644,3.935-1.644,6.138
			c0,2.214,0.548,4.261,1.644,6.138c1.078,1.867,2.567,3.354,4.463,4.463c1.852,1.104,3.893,1.658,6.124,1.658
			c2.995,0,5.661-1.003,7.992-3.01v-4.589c-0.758,1.371-1.873,2.499-3.336,3.375c-1.444,0.849-2.995,1.272-4.656,1.272
			c-1.66,0-3.216-0.415-4.67-1.242c-1.454-0.85-2.587-1.985-3.396-3.405c-0.633-1.083-1.024-2.244-1.175-3.482h8.054v-2.759h-7.989
			c0.185-1.085,0.561-2.105,1.141-3.058C197.863,178.591,198.993,177.445,200.456,176.558z"/>
	</g>
	<path d="M183.954,135.675c-3.032-15.522-13.581-45.042-16.482-50.315c-4.61-8.381-10.792-12.902-17.896-13.105v-0.007h-0.502v0.007
		c-7.104,0.203-13.284,4.725-17.896,13.105c-2.884,5.242-4.306,10.424-4.699,12.005c0,0-8.827,22.739-11.867,38.311
		c-3.043,15.573,1.581,19.829,4.987,21.29c3.404,1.461,29.683,1.703,29.683,1.703s26.276-0.242,29.682-1.703
		C182.373,155.504,186.996,151.248,183.954,135.675z M149.282,111.71c-16.967,0-17.839-12.604-17.88-13.565
		c1.019-3.846,6.159-20.699,17.923-20.935c11.658,0.233,16.836,16.886,17.905,20.866l-0.066,0.009
		C167.163,98.085,166.922,111.71,149.282,111.71z"/>
	<rect x="47.541" y="208.682" fill="none" width="205.894" height="11.485"/>
	<text transform="matrix(1 0 0 1 91.5879 218.125)" font-family="'Futura-Medium'" font-size="11.4748" letter-spacing="5">SINCE 1972</text>
</g>
</svg>
