<?xml version="1.0" encoding="utf-8"?>
<!-- Generator: Adobe Illustrator 15.0.0, SVG Export Plug-In . SVG Version: 6.00 Build 0)  -->
<!DOCTYPE svg PUBLIC "-//W3C//DTD SVG 1.1//EN" "http://www.w3.org/Graphics/SVG/1.1/DTD/svg11.dtd">
<svg version="1.1" id="Layer_1" xmlns="http://www.w3.org/2000/svg" xmlns:xlink="http://www.w3.org/1999/xlink" x="0px" y="0px"
	 width="700px" height="366.334px" viewBox="0 0 700 366.334" enable-background="new 0 0 700 366.334" xml:space="preserve">
<rect x="-161.5" y="-247.333" fill="#FFFFFF" width="1062" height="859"/>
<g>
	<path d="M134.312,108.325h12.12v94.499c-3.568-1.394-7.096-3.035-10.582-4.923c-3.486-1.885-6.963-4.067-10.429-6.551
		c-3.466-2.48-6.531-4.951-9.197-7.414c-4.594-4.102-8.777-8.797-12.551-14.088s-7.075-11.095-9.905-17.411
		c-5.783-12.714-8.675-27.418-8.675-44.112h12.352c0,8.49,0.951,16.633,2.855,24.425c1.906,7.793,4.559,14.807,7.959,21.041
		c3.113,5.906,7.045,11.423,11.797,16.55c4.466,4.636,9.217,8.408,14.256,11.32V108.325L134.312,108.325z"/>
	<path d="M253.319,108.325c10.746,1.683,20.611,5.845,29.594,12.489c9.023,6.686,16.119,14.233,21.287,22.641v-35.13h12.119v94.499
		H304.2v-21.901c0-6.152-1.252-12.283-3.754-18.396c-1.271-2.993-2.737-5.885-4.397-8.675c-1.662-2.789-3.519-5.454-5.569-7.998
		c-4.02-4.962-8.264-9.146-12.734-12.551c-4.512-3.568-8.531-5.885-12.059-6.952v76.473H253.32L253.319,108.325L253.319,108.325z"/>
	<path d="M332.102,128.259l-4.418-12.489c9.762-7.383,20.262-11.074,31.5-11.074c5.701,0,11.402,0.964,17.104,2.892
		c5.414,1.846,10.213,4.574,14.396,8.183l-4.676,12.489c-7.055-5.823-13.945-9.453-20.672-10.89v85.455h-12.368V117.37
		c-3.478,0.698-7.038,1.969-10.678,3.814C338.525,123.152,335.129,125.512,332.102,128.259z"/>
	<path d="M402.045,108.325h12.364v70.395c0,4.263,1.575,7.91,4.728,10.941c3.235,3.035,6.899,4.55,10.992,4.55
		c4.176,0,7.9-1.515,11.176-4.55c3.193-3.073,4.791-6.72,4.791-10.941v-70.395h11.995v70.444c0,4.882-1.249,9.464-3.751,13.751
		c-2.502,4.285-5.906,7.681-10.213,10.181c-4.389,2.502-9.046,3.755-13.968,3.755c-7.629,0-14.191-2.812-19.688-8.432
		c-5.619-5.496-8.427-11.912-8.427-19.255L402.045,108.325L402.045,108.325z"/>
	<path d="M482.805,162.773c5.742-0.492,10.746-2.728,15.014-6.706c4.102-3.814,6.15-8.469,6.15-13.966
		c0-3.773-1.004-7.219-3.014-10.336c-2.051-2.993-4.82-5.476-8.307-7.444c-3.404-1.846-7.221-2.769-11.443-2.769v81.271H468.84
		v-94.499c4.84,0,8.961,0.164,12.365,0.492c6.152,0.369,11.977,2.052,17.473,5.045c5.291,2.871,9.537,6.829,12.736,11.874
		c3.117,5.005,4.676,10.459,4.676,16.365c0,5.989-1.6,11.484-4.799,16.488c-3.322,5.168-7.65,9.167-12.982,11.997
		c3.158,5.66,6.729,10.48,10.705,14.458c4.186,4.308,8.35,7.384,12.49,9.229v12.182c-7.055-2.379-13.104-5.764-18.15-10.153
		c-5.127-4.389-9.288-9.352-12.486-14.888C487.543,175.55,484.855,169.336,482.805,162.773z"/>
	<path d="M189.664,122.098c6.029-3.439,12.448-5.159,19.257-5.159c6.891,0,13.33,1.761,19.318,5.282
		c6.07,3.646,10.685,8.313,13.843,14.006V117.43c-9.639-8.489-20.692-12.734-33.161-12.734c-9.188,0-17.657,2.268-25.409,6.803
		c-3.896,2.338-7.403,5.063-10.521,8.179c-3.117,3.117-5.783,6.603-7.998,10.456c-4.553,7.83-6.829,16.318-6.829,25.461
		c0,9.185,2.276,17.672,6.829,25.462c4.471,7.75,10.644,13.92,18.519,18.512c7.67,4.592,16.14,6.889,25.409,6.889
		c12.428,0,23.481-4.163,33.161-12.491v-19.04c-3.158,5.692-7.772,10.361-13.843,14.006c-5.988,3.521-12.428,5.28-19.318,5.28
		c-6.89,0-13.351-1.72-19.38-5.157c-6.029-3.521-10.726-8.23-14.089-14.129c-2.667-4.564-4.289-9.463-4.892-14.69h35.656v-11.441
		h-35.329c0.782-4.411,2.333-8.562,4.688-12.443C178.897,130.534,183.594,125.783,189.664,122.098z"/>
	<path d="M562.705,122.098c6.029-3.439,12.447-5.159,19.256-5.159c6.891,0,13.33,1.761,19.318,5.282
		c6.068,3.646,10.686,8.313,13.844,14.006V117.43c-9.639-8.489-20.693-12.734-33.162-12.734c-9.188,0-17.656,2.268-25.408,6.803
		c-3.896,2.338-7.402,5.063-10.521,8.179c-3.117,3.117-5.783,6.603-7.998,10.456c-4.553,7.83-6.828,16.318-6.828,25.461
		c0,9.185,2.275,17.672,6.828,25.462c4.471,7.75,10.645,13.92,18.52,18.512c7.67,4.592,16.141,6.889,25.408,6.889
		c12.428,0,23.482-4.163,33.162-12.491v-19.04c-3.158,5.692-7.773,10.361-13.844,14.006c-5.988,3.521-12.43,5.28-19.318,5.28
		s-13.35-1.72-19.379-5.157c-6.029-3.521-10.727-8.23-14.09-14.129c-2.626-4.494-4.244-9.312-4.868-14.448h33.418v-11.441h-33.154
		c0.771-4.501,2.331-8.734,4.729-12.686C551.938,130.534,556.635,125.783,562.705,122.098z"/>
</g>
<rect x="85.678" y="224.702" fill="none" width="527.523" height="29.428"/>
<g enable-background="new    ">
	<path d="M213.725,230.062l-2.713,1.606c-0.508-0.881-0.991-1.455-1.45-1.724c-0.479-0.307-1.096-0.459-1.852-0.459
		c-0.929,0-1.699,0.264-2.312,0.791c-0.612,0.517-0.918,1.168-0.918,1.953c0,1.082,0.804,1.953,2.412,2.614l2.21,0.904
		c1.799,0.729,3.115,1.616,3.948,2.665s1.249,2.335,1.249,3.857c0,2.039-0.68,3.726-2.039,5.057
		c-1.369,1.341-3.067,2.012-5.096,2.012c-1.923,0-3.512-0.572-4.766-1.717c-1.235-1.143-2.005-2.748-2.312-4.814l3.388-0.746
		c0.153,1.301,0.421,2.201,0.804,2.697c0.689,0.957,1.694,1.436,3.015,1.436c1.043,0,1.909-0.348,2.598-1.047
		c0.689-0.697,1.034-1.582,1.034-2.653c0-0.431-0.06-0.824-0.179-1.183c-0.12-0.359-0.307-0.689-0.56-0.99s-0.582-0.584-0.983-0.848
		c-0.402-0.263-0.88-0.514-1.436-0.752l-2.139-0.891c-3.034-1.281-4.551-3.155-4.551-5.623c0-1.664,0.636-3.057,1.909-4.174
		c1.272-1.129,2.857-1.693,4.751-1.693C210.294,226.342,212.29,227.581,213.725,230.062z"/>
	<path d="M235.672,226.772v22.164h-3.345v-22.164H235.672z"/>
	<path d="M254.993,248.938v-23.672l16.164,16.909v-15.403h3.345v23.516l-16.165-16.868v15.519H254.993L254.993,248.938z"/>
	<path d="M310.388,227.957v3.955c-1.933-1.617-3.933-2.427-6-2.427c-2.278,0-4.197,0.818-5.756,2.455
		c-1.57,1.627-2.354,3.617-2.354,5.972c0,2.325,0.785,4.288,2.354,5.886c1.569,1.6,3.493,2.396,5.771,2.396
		c1.177,0,2.177-0.19,3-0.573c0.459-0.19,0.936-0.449,1.428-0.774c0.493-0.326,1.012-0.718,1.558-1.178v4.041
		c-1.914,1.087-3.924,1.63-6.029,1.63c-3.167,0-5.871-1.104-8.111-3.315c-2.23-2.229-3.345-4.92-3.345-8.068
		c0-2.822,0.933-5.34,2.799-7.551c2.297-2.708,5.269-4.062,8.915-4.062C306.608,226.342,308.532,226.88,310.388,227.957z"/>
	<path d="M340.834,229.916h-8.886v5.326h8.628v3.146h-8.628v7.406h8.886v3.145h-12.231v-22.166h12.231V229.916z"/>
	<path d="M387.6,229.916h-3.832l1.836-3.144h5.342v22.164H387.6V229.916z"/>
	<path d="M415.992,249.698l-2.454-1.823l5.297-7.222c-0.287,0.039-0.531,0.068-0.731,0.087c-0.2,0.02-0.363,0.028-0.487,0.028
		c-1.79,0-3.34-0.685-4.651-2.053c-1.302-1.359-1.952-2.996-1.952-4.91c0-2.037,0.724-3.779,2.168-5.226
		c1.454-1.454,3.195-2.183,5.226-2.183c2.02,0,3.774,0.719,5.269,2.153c1.493,1.427,2.239,3.11,2.239,5.054
		c0,1.723-0.727,3.584-2.182,5.584L415.992,249.698z M414.27,233.562c0,1.196,0.407,2.201,1.222,3.016
		c0.821,0.822,1.812,1.234,2.972,1.234c1.157,0,2.145-0.406,2.957-1.221c0.823-0.822,1.235-1.812,1.235-2.972
		s-0.412-2.147-1.235-2.972c-0.812-0.813-1.804-1.221-2.972-1.221c-1.148,0-2.129,0.406-2.943,1.221
		C414.682,231.472,414.27,232.442,414.27,233.562z"/>
	<path d="M453.143,229.916h-10.938v-3.144h16.522l-13.981,22.926l-2.655-1.68L453.143,229.916z"/>
	<path d="M480.186,245.794h8.256v3.145h-14.888l7.694-9.316c0.756-0.93,1.391-1.732,1.902-2.412c0.511-0.68,0.901-1.249,1.17-1.708
		c0.546-0.899,0.817-1.708,0.817-2.427c0-1.033-0.362-1.899-1.091-2.598c-0.728-0.699-1.628-1.049-2.698-1.049
		c-2.239,0-3.522,1.325-3.848,3.978h-3.33c0.535-4.671,2.896-7.007,7.076-7.007c2.02,0,3.713,0.643,5.082,1.925
		c1.379,1.282,2.067,2.87,2.067,4.766c0,1.206-0.321,2.388-0.963,3.546c-0.324,0.604-0.802,1.318-1.428,2.146
		c-0.627,0.828-1.42,1.807-2.377,2.936L480.186,245.794z"/>
</g>
</svg>
