<?xml version="1.0" encoding="utf-8"?>
<!-- Generator: Adobe Illustrator 15.0.0, SVG Export Plug-In . SVG Version: 6.00 Build 0)  -->
<!DOCTYPE svg PUBLIC "-//W3C//DTD SVG 1.1//EN" "http://www.w3.org/Graphics/SVG/1.1/DTD/svg11.dtd">
<svg version="1.1" id="Layer_1" xmlns="http://www.w3.org/2000/svg" xmlns:xlink="http://www.w3.org/1999/xlink" x="0px" y="0px"
	 width="190px" height="190px" viewBox="55 55 190 190" enable-background="new 55 55 190 190" xml:space="preserve">
<rect x="55" y="55" fill="#FFFFFF" width="190" height="190"/>
<g>
	<g>
		<path d="M95.22,174.127h2.986v23.293c-0.879-0.342-1.748-0.748-2.607-1.213c-0.859-0.465-1.716-1.002-2.57-1.615
			c-0.854-0.611-1.61-1.22-2.267-1.826c-1.132-1.011-2.164-2.17-3.094-3.474c-0.93-1.304-1.743-2.734-2.441-4.29
			c-1.425-3.136-2.138-6.76-2.138-10.875h3.043c0,2.092,0.234,4.101,0.704,6.021c0.47,1.919,1.124,3.648,1.962,5.186
			c0.767,1.457,1.737,2.815,2.907,4.08c1.102,1.143,2.273,2.072,3.515,2.79L95.22,174.127L95.22,174.127z"/>
		<path d="M124.554,174.127c2.648,0.414,5.081,1.441,7.294,3.079c2.223,1.647,3.973,3.508,5.247,5.581v-8.66h2.987v23.293h-2.987
			v-5.398c0-1.517-0.309-3.028-0.926-4.533c-0.313-0.738-0.674-1.449-1.083-2.139c-0.41-0.689-0.868-1.346-1.372-1.971
			c-0.992-1.224-2.038-2.256-3.139-3.095c-1.112-0.88-2.103-1.451-2.973-1.712v18.848h-3.049V174.127L124.554,174.127z"/>
		<path d="M143.973,179.041l-1.091-3.078c2.408-1.82,4.996-2.729,7.765-2.729c1.406,0,2.812,0.235,4.218,0.712
			c1.332,0.455,2.517,1.128,3.547,2.018l-1.151,3.078c-1.741-1.437-3.438-2.332-5.097-2.685v21.063h-3.048v-21.063
			c-0.856,0.173-1.734,0.485-2.631,0.942C145.555,177.781,144.72,178.363,143.973,179.041z"/>
		<path d="M161.212,174.127h3.05v17.352c0,1.05,0.387,1.949,1.164,2.699c0.798,0.746,1.701,1.119,2.711,1.119
			c1.029,0,1.947-0.373,2.755-1.119c0.788-0.76,1.181-1.659,1.181-2.699v-17.352h2.957v17.364c0,1.202-0.308,2.333-0.924,3.39
			c-0.617,1.058-1.457,1.895-2.518,2.51c-1.08,0.619-2.23,0.926-3.443,0.926c-1.881,0-3.498-0.692-4.854-2.078
			c-1.385-1.354-2.078-2.938-2.078-4.747L161.212,174.127L161.212,174.127z"/>
		<path d="M181.119,187.549c1.415-0.121,2.648-0.673,3.702-1.654c1.011-0.939,1.515-2.087,1.515-3.441
			c0-0.93-0.247-1.779-0.743-2.548c-0.505-0.738-1.187-1.351-2.048-1.835c-0.838-0.455-1.779-0.682-2.819-0.682v20.031h-3.048
			v-23.293c1.193,0,2.207,0.04,3.048,0.123c1.517,0.09,2.951,0.505,4.307,1.242c1.304,0.707,2.353,1.684,3.14,2.927
			c0.768,1.234,1.151,2.579,1.151,4.034c0,1.477-0.396,2.83-1.182,4.064c-0.819,1.273-1.886,2.26-3.2,2.957
			c0.778,1.395,1.658,2.584,2.638,3.563c1.032,1.062,2.061,1.821,3.08,2.274v3.004c-1.739-0.586-3.231-1.421-4.474-2.503
			c-1.264-1.081-2.291-2.304-3.078-3.671C182.288,190.697,181.625,189.166,181.119,187.549z"/>
		<path d="M108.864,177.521c1.486-0.848,3.068-1.271,4.747-1.271c1.698,0,3.285,0.433,4.763,1.302
			c1.495,0.898,2.632,2.049,3.411,3.451v-4.632c-2.376-2.093-5.101-3.138-8.174-3.138c-2.265,0-4.354,0.559-6.263,1.676
			c-0.96,0.576-1.825,1.248-2.593,2.016s-1.426,1.628-1.972,2.576c-1.122,1.932-1.683,4.023-1.683,6.276
			c0,2.265,0.562,4.356,1.683,6.278c1.103,1.908,2.623,3.43,4.565,4.562c1.891,1.131,3.979,1.697,6.263,1.697
			c3.063,0,5.788-1.026,8.174-3.078v-4.693c-0.779,1.402-1.917,2.553-3.411,3.451c-1.478,0.869-3.065,1.301-4.763,1.301
			c-1.7,0-3.292-0.423-4.777-1.271c-1.486-0.867-2.645-2.027-3.473-3.48c-0.657-1.127-1.057-2.334-1.206-3.623h8.789v-2.82h-8.707
			c0.193-1.086,0.575-2.109,1.154-3.066C106.208,179.602,107.368,178.431,108.864,177.521z"/>
		<path d="M200.815,177.521c1.485-0.848,3.067-1.271,4.746-1.271c1.698,0,3.284,0.433,4.763,1.302
			c1.495,0.898,2.633,2.049,3.411,3.451v-4.632c-2.378-2.093-5.101-3.138-8.174-3.138c-2.267,0-4.353,0.559-6.263,1.676
			c-0.962,0.576-1.824,1.248-2.596,2.016c-0.77,0.768-1.424,1.628-1.97,2.576c-1.121,1.932-1.684,4.023-1.684,6.276
			c0,2.265,0.562,4.356,1.684,6.278c1.101,1.908,2.624,3.43,4.565,4.562c1.89,1.131,3.978,1.697,6.263,1.697
			c3.062,0,5.788-1.026,8.174-3.078v-4.693c-0.778,1.402-1.916,2.553-3.411,3.451c-1.479,0.869-3.064,1.301-4.763,1.301
			c-1.7,0-3.292-0.423-4.778-1.271c-1.484-0.867-2.645-2.027-3.473-3.48c-0.648-1.107-1.046-2.295-1.199-3.562h8.236v-2.82h-8.172
			c0.188-1.109,0.574-2.153,1.166-3.127C198.16,179.602,199.318,178.431,200.815,177.521z"/>
	</g>
	<path d="M183.938,135.711c-3.104-15.876-13.889-46.066-16.855-51.459c-4.719-8.571-11.039-13.195-18.305-13.403v-0.007h-0.512
		v0.007c-7.266,0.207-13.588,4.831-18.303,13.403c-2.949,5.36-4.403,10.661-4.806,12.278c0,0-9.028,23.256-12.138,39.182
		c-3.11,15.926,1.619,20.279,5.101,21.773c3.483,1.492,30.357,1.742,30.357,1.742s26.873-0.249,30.357-1.742
		C182.318,155.99,187.047,151.637,183.938,135.711z M148.477,111.201c-17.351,0-18.244-12.89-18.285-13.874
		c1.042-3.933,6.299-21.171,18.329-21.41c11.925,0.238,17.218,17.27,18.312,21.339l-0.065,0.009
		C166.767,97.266,166.518,111.201,148.477,111.201z"/>
	<g>
		<path fill="#FFFFFF" d="M164.463,133.27l-2.538-8.7l-3.353-2.578l-3.154,0.92l-3.151,0.919l-1.437,3.977l2.537,8.701
			c0,0,0.288,1.375,2.073,0.855c1.786-0.522,3.867-1.128,3.867-1.128s2.08-0.609,3.865-1.129
			C164.96,134.584,164.463,133.27,164.463,133.27z"/>
		<path fill="#FFFFFF" stroke="#FFFFFF" stroke-width="1.5765" stroke-miterlimit="10" d="M171.339,126.896l-0.178,0.192
			c0,0,0.035,0.046,0.028,0.141c-0.018,0.215-0.232,0.702-1.488,1.554c-0.586,0.398-1.117,0.53-1.572,0.39
			c-0.831-0.255-1.272-1.355-1.463-1.827c-0.319-0.801-0.405-3.074-0.359-4.067c0.04-0.907-0.465-3.735-2.445-4.833
			c-1.918-1.059-6.627,0.131-8.026,1.683c-1.397,1.551-0.536,3.19-0.527,3.207l0.23-0.125c-0.007-0.016-0.782-1.492,0.493-2.906
			c1.313-1.457,5.906-2.622,7.703-1.629c1.852,1.024,2.347,3.761,2.309,4.589c-0.046,1.042,0.04,3.328,0.382,4.177
			c0.202,0.505,0.677,1.691,1.628,1.982c0.301,0.091,0.619,0.087,0.959-0.012c0.27-0.078,0.549-0.216,0.84-0.413
			c1.027-0.695,1.565-1.286,1.601-1.75C171.467,127.021,171.354,126.907,171.339,126.896z"/>
		
			<rect x="170.708" y="123.382" transform="matrix(0.9897 -0.1429 0.1429 0.9897 -16.2065 26.1167)" fill="#FFFFFF" width="5.975" height="4.98"/>
	</g>
	<g>
		
			<rect x="119.788" y="117.402" transform="matrix(-0.9813 -0.1926 0.1926 -0.9813 236.1207 289.6323)" fill="#FFFFFF" width="24.699" height="31.877"/>
		
			<rect x="124.962" y="121.573" transform="matrix(-0.9813 -0.1926 0.1926 -0.9813 241.852 269.5153)" width="18.13" height="2.856"/>
		
			<rect x="123.585" y="128.622" transform="matrix(-0.9813 -0.1926 0.1926 -0.9813 237.765 283.2152)" width="18.13" height="2.855"/>
		
			<rect x="122.379" y="135.45" transform="matrix(-0.9813 -0.1925 0.1925 -0.9813 234.0837 296.4982)" width="18.13" height="2.857"/>
	</g>
	<g>
		<path fill="#FFFFFF" d="M177.027,132.876c-2.733,0.039-12.822,6.475-13.293,6.811c-0.473,0.337,0.123,1.171,0.123,1.171
			l0.988,1.666l0.988,1.666c0,0,0.445,0.922,0.968,0.67c0.521-0.253,11.008-6.02,12.349-8.4c0,0,1.226-0.994,0.279-2.587
			C178.486,132.279,177.027,132.876,177.027,132.876z"/>
		<path d="M178.089,134.667c0.179,0.302,0.178,0.634,0,0.743l-8.991,5.331c-0.18,0.107-0.471-0.053-0.648-0.355l0,0
			c-0.182-0.302-0.182-0.634,0-0.741l8.987-5.333C177.617,134.206,177.91,134.365,178.089,134.667L178.089,134.667z"/>
		<polygon points="164.33,139.298 167.43,144.522 168.019,144.193 164.881,138.904 		"/>
		<path fill="#FFFFFF" d="M166.628,144.566l-13.12,7.782c0,0-4.944,2.934-6.621,0.844l-0.043-0.073
			c-1.031-2.478,3.914-5.408,3.914-5.408l13.121-7.781"/>
	</g>
	<rect x="44.423" y="210.377" fill="none" width="210.57" height="11.748"/>
	<text transform="matrix(1 0 0 1 89.4727 220.0371)" font-family="'Futura-Medium'" font-size="11.7356" letter-spacing="5">SINCE 1972</text>
</g>
</svg>
