<?xml version="1.0" encoding="utf-8"?>
<!-- Generator: Adobe Illustrator 15.0.0, SVG Export Plug-In . SVG Version: 6.00 Build 0)  -->
<!DOCTYPE svg PUBLIC "-//W3C//DTD SVG 1.1//EN" "http://www.w3.org/Graphics/SVG/1.1/DTD/svg11.dtd">
<svg version="1.1" id="Layer_1" xmlns="http://www.w3.org/2000/svg" xmlns:xlink="http://www.w3.org/1999/xlink" x="0px" y="0px"
	 width="1000px" height="1150px" viewBox="0 0 1000 1150" enable-background="new 0 0 1000 1150" xml:space="preserve">
<rect x="0.774" fill="#FFFFFF" width="1000" height="1150"/>
<g>
	<g>
		<path d="M438.783,99.408h5.375v41.913c-1.583-0.618-3.147-1.346-4.693-2.183c-1.547-0.836-3.089-1.805-4.626-2.906
			c-1.538-1.101-2.896-2.197-4.079-3.288c-2.037-1.819-3.894-3.902-5.566-6.249c-1.674-2.347-3.139-4.921-4.394-7.723
			c-2.565-5.639-3.847-12.161-3.847-19.565h5.478c0,3.766,0.422,7.377,1.268,10.833c0.845,3.456,2.021,6.567,3.529,9.332
			c1.381,2.62,3.125,5.067,5.233,7.341c1.98,2.056,4.087,3.729,6.323,5.021V99.408z"/>
		<path d="M491.565,99.408c4.768,0.747,9.143,2.592,13.125,5.54c4.002,2.965,7.148,6.312,9.441,10.042V99.408h5.375v41.913h-5.375
			v-9.714c0-2.729-0.555-5.447-1.664-8.159c-0.564-1.328-1.215-2.61-1.951-3.847c-0.738-1.237-1.561-2.419-2.471-3.547
			c-1.783-2.201-3.664-4.056-5.646-5.567c-2.002-1.583-3.785-2.61-5.349-3.083v33.918h-5.485V99.408z"/>
		<path d="M526.507,108.249l-1.959-5.54c4.33-3.274,8.986-4.912,13.971-4.912c2.529,0,5.057,0.428,7.586,1.283
			c2.4,0.818,4.529,2.029,6.385,3.629l-2.074,5.54c-3.129-2.583-6.184-4.193-9.168-4.83v37.901h-5.484v-37.901
			c-1.543,0.309-3.123,0.873-4.736,1.691C529.356,105.984,527.851,107.03,526.507,108.249z"/>
		<path d="M557.528,99.408h5.484v31.222c0,1.891,0.699,3.509,2.096,4.854c1.436,1.345,3.061,2.018,4.877,2.018
			c1.852,0,3.504-0.672,4.955-2.018c1.418-1.363,2.125-2.981,2.125-4.854V99.408h5.32v31.244c0,2.165-0.553,4.198-1.662,6.099
			s-2.621,3.406-4.531,4.516c-1.945,1.109-4.012,1.665-6.195,1.665c-3.383,0-6.293-1.246-8.73-3.738
			c-2.494-2.438-3.738-5.285-3.738-8.541V99.408z"/>
		<path d="M593.347,123.557c2.547-0.218,4.768-1.21,6.658-2.974c1.82-1.692,2.729-3.756,2.729-6.194
			c0-1.674-0.443-3.202-1.336-4.584c-0.91-1.328-2.139-2.429-3.686-3.302c-1.508-0.818-3.199-1.228-5.074-1.228v36.046h-5.484
			V99.408c2.146,0,3.975,0.073,5.484,0.218c2.729,0.164,5.312,0.91,7.75,2.238c2.346,1.273,4.229,3.029,5.648,5.266
			c1.383,2.22,2.074,4.639,2.074,7.259c0,2.656-0.709,5.094-2.129,7.312c-1.473,2.292-3.393,4.066-5.758,5.321
			c1.4,2.511,2.982,4.648,4.748,6.413c1.855,1.91,3.703,3.274,5.541,4.093v5.402c-3.131-1.055-5.814-2.555-8.053-4.502
			c-2.271-1.947-4.119-4.148-5.537-6.604C595.45,129.224,594.257,126.468,593.347,123.557z"/>
		<path d="M463.333,105.516c2.674-1.525,5.521-2.288,8.541-2.288c3.057,0,5.912,0.781,8.568,2.343
			c2.692,1.617,4.738,3.687,6.14,6.212v-8.336c-4.275-3.766-9.178-5.648-14.708-5.648c-4.075,0-7.832,1.006-11.27,3.017
			c-1.729,1.037-3.284,2.246-4.667,3.628c-1.382,1.382-2.564,2.928-3.547,4.637c-2.019,3.473-3.028,7.238-3.028,11.292
			c0,4.073,1.01,7.838,3.028,11.293c1.982,3.437,4.722,6.174,8.214,8.211c3.401,2.036,7.158,3.054,11.27,3.054
			c5.512,0,10.414-1.846,14.708-5.539v-8.445c-1.401,2.525-3.447,4.595-6.14,6.211c-2.656,1.562-5.512,2.343-8.568,2.343
			s-5.922-0.763-8.595-2.288c-2.675-1.562-4.759-3.651-6.249-6.267c-1.184-2.024-1.902-4.197-2.17-6.515h15.814v-5.075h-15.67
			c0.348-1.956,1.035-3.798,2.079-5.52C458.557,109.258,460.64,107.151,463.333,105.516z"/>
		<path d="M628.784,105.516c2.676-1.525,5.521-2.288,8.541-2.288c3.057,0,5.912,0.781,8.568,2.343
			c2.693,1.617,4.74,3.687,6.141,6.212v-8.336c-4.275-3.766-9.178-5.648-14.709-5.648c-4.074,0-7.83,1.006-11.268,3.017
			c-1.729,1.037-3.285,2.246-4.668,3.628c-1.381,1.382-2.564,2.928-3.547,4.637c-2.02,3.473-3.029,7.238-3.029,11.292
			c0,4.073,1.01,7.838,3.029,11.293c1.982,3.437,4.721,6.174,8.215,8.211c3.4,2.036,7.156,3.054,11.268,3.054
			c5.512,0,10.416-1.846,14.709-5.539v-8.445c-1.4,2.525-3.447,4.595-6.141,6.211c-2.656,1.562-5.512,2.343-8.568,2.343
			c-3.055,0-5.92-0.763-8.594-2.288c-2.674-1.562-4.758-3.651-6.25-6.267c-1.164-1.993-1.883-4.13-2.16-6.408h14.822v-5.075H620.44
			c0.34-1.996,1.031-3.874,2.096-5.626C624.011,109.258,626.093,107.151,628.784,105.516z"/>
	</g>
	<path d="M408.638,144.93c-2.443-12.506-10.94-36.288-13.277-40.536c-3.716-6.752-8.694-10.395-14.418-10.558v-0.005h-0.403v0.005
		c-5.724,0.164-10.703,3.806-14.418,10.558c-2.323,4.222-3.468,8.397-3.786,9.672c0,0-7.111,18.319-9.562,30.864
		c-2.45,12.546,1.274,15.976,4.018,17.151c2.745,1.177,23.915,1.373,23.915,1.373s21.17-0.196,23.914-1.373
		C407.364,160.906,411.089,157.476,408.638,144.93z M380.706,125.623c-13.668,0-14.372-10.153-14.406-10.929
		c0.822-3.099,4.963-16.676,14.44-16.866c9.393,0.188,13.562,13.604,14.424,16.811l-0.051,0.007
		C395.113,114.646,394.917,125.623,380.706,125.623z"/>
	<g>
		<path fill="#FFFFFF" d="M393.298,143.008l-2-6.854l-2.64-2.031l-2.483,0.724l-2.483,0.725l-1.133,3.132l2,6.854
			c0,0,0.227,1.083,1.633,0.673c1.407-0.41,3.046-0.889,3.046-0.889s1.639-0.478,3.046-0.888
			C393.69,144.043,393.298,143.008,393.298,143.008z"/>
		<path fill="#FFFFFF" stroke="#FFFFFF" stroke-width="1.2419" stroke-miterlimit="10" d="M398.715,137.986l-0.14,0.152
			c0,0,0.028,0.037,0.021,0.112c-0.013,0.169-0.182,0.553-1.171,1.224c-0.463,0.313-0.88,0.417-1.24,0.307
			c-0.654-0.2-1.002-1.068-1.151-1.439c-0.253-0.631-0.319-2.421-0.285-3.204c0.032-0.714-0.365-2.942-1.926-3.806
			c-1.51-0.835-5.22,0.103-6.321,1.325c-1.102,1.223-0.423,2.514-0.417,2.526l0.182-0.098c-0.006-0.011-0.617-1.174,0.388-2.289
			c1.035-1.148,4.652-2.065,6.066-1.283c1.459,0.806,1.85,2.963,1.82,3.615c-0.037,0.822,0.032,2.623,0.299,3.291
			c0.159,0.397,0.533,1.331,1.283,1.56c0.236,0.072,0.489,0.069,0.756-0.009c0.211-0.061,0.432-0.169,0.66-0.325
			c0.809-0.549,1.234-1.013,1.262-1.379C398.816,138.086,398.726,137.996,398.715,137.986z"/>
		
			<rect x="398.214" y="135.211" transform="matrix(-0.9897 0.1428 -0.1428 -0.9897 816.621 215.7318)" fill="#FFFFFF" width="4.708" height="3.923"/>
	</g>
	<g>
		
			<rect x="358.103" y="130.507" transform="matrix(0.9813 0.1926 -0.1926 0.9813 34.4344 -68.1563)" fill="#FFFFFF" width="19.455" height="25.11"/>
		<rect x="362.184" y="133.789" transform="matrix(0.9813 0.1926 -0.1926 0.9813 32.8903 -68.5915)" width="14.281" height="2.25"/>
		<rect x="361.094" y="139.344" transform="matrix(0.9813 0.1926 -0.1926 0.9813 33.9397 -68.2776)" width="14.281" height="2.25"/>
		<rect x="360.142" y="144.728" transform="matrix(0.9813 0.1926 -0.1926 0.9813 34.9658 -68.0049)" width="14.282" height="2.25"/>
	</g>
	<g>
		<path fill="#FFFFFF" d="M403.195,142.697c-2.152,0.031-10.099,5.102-10.471,5.366c-0.373,0.265,0.097,0.922,0.097,0.922
			l0.779,1.313l0.778,1.312c0,0,0.352,0.726,0.763,0.526c0.411-0.199,8.67-4.743,9.729-6.616c0,0,0.964-0.784,0.219-2.039
			C404.345,142.227,403.195,142.697,403.195,142.697z"/>
		<path d="M404.032,144.108c0.142,0.239,0.141,0.5,0,0.584l-7.082,4.2c-0.142,0.084-0.372-0.041-0.513-0.279l0,0
			c-0.141-0.238-0.141-0.5,0.001-0.584l7.081-4.201C403.662,143.746,403.891,143.871,404.032,144.108L404.032,144.108z"/>
		<polygon points="393.194,147.756 395.635,151.871 396.1,151.612 393.627,147.446 		"/>
		<path fill="#FFFFFF" d="M395.003,151.906l-10.334,6.13c0,0-3.896,2.311-5.216,0.664l-0.035-0.058
			c-0.812-1.95,3.083-4.259,3.083-4.259l10.335-6.131"/>
	</g>
	<rect x="418.455" y="151.023" fill="none" width="233.97" height="13.052"/>
	<text transform="matrix(1 0 0 1 468.5078 161.7915)" font-family="'Futura-Medium'" font-size="13.0396" letter-spacing="6">SINCE 1972</text>
</g>
<g>
	<g>
		<path d="M81.166,385.001h3.318v25.881c-0.977-0.381-1.942-0.831-2.897-1.348c-0.954-0.516-1.907-1.114-2.856-1.795
			c-0.949-0.678-1.789-1.355-2.519-2.029c-1.258-1.123-2.404-2.41-3.438-3.859c-1.033-1.449-1.937-3.038-2.712-4.767
			c-1.584-3.483-2.376-7.509-2.376-12.083h3.382c0,2.326,0.26,4.557,0.782,6.691c0.522,2.133,1.249,4.053,2.18,5.761
			c0.852,1.618,1.93,3.129,3.23,4.532c1.224,1.27,2.525,2.303,3.905,3.101V385.001z"/>
		<path d="M113.759,385.001c2.942,0.461,5.645,1.602,8.105,3.422c2.47,1.831,4.414,3.897,5.83,6.2v-9.622h3.318v25.881h-3.318
			v-5.998c0-1.685-0.344-3.365-1.029-5.038c-0.348-0.82-0.749-1.612-1.204-2.376c-0.455-0.765-0.964-1.494-1.524-2.19
			c-1.102-1.359-2.264-2.506-3.488-3.438c-1.235-0.978-2.336-1.612-3.303-1.903v20.942h-3.387V385.001z"/>
		<path d="M135.336,390.461l-1.212-3.419c2.675-2.022,5.551-3.033,8.628-3.033c1.562,0,3.123,0.262,4.685,0.791
			c1.482,0.505,2.798,1.253,3.943,2.242l-1.281,3.419c-1.933-1.595-3.819-2.588-5.662-2.982v23.404h-3.387v-23.404
			c-0.952,0.191-1.927,0.54-2.924,1.045C137.094,389.063,136.166,389.709,135.336,390.461z"/>
		<path d="M154.491,385.001h3.388v19.281c0,1.166,0.431,2.165,1.294,2.997c0.887,0.83,1.89,1.244,3.012,1.244
			c1.143,0,2.163-0.414,3.06-1.244c0.875-0.843,1.312-1.842,1.312-2.997v-19.281h3.286v19.293c0,1.336-0.342,2.593-1.027,3.766
			c-0.685,1.175-1.618,2.105-2.797,2.789c-1.201,0.687-2.478,1.028-3.826,1.028c-2.089,0-3.886-0.769-5.392-2.308
			c-1.539-1.506-2.309-3.264-2.309-5.275V385.001z"/>
		<path d="M176.61,399.915c1.572-0.134,2.943-0.748,4.112-1.837c1.123-1.044,1.685-2.319,1.685-3.825
			c0-1.033-0.275-1.977-0.826-2.83c-0.562-0.821-1.319-1.501-2.275-2.039c-0.932-0.505-1.977-0.758-3.134-0.758v22.257h-3.386
			v-25.881c1.326,0,2.453,0.044,3.386,0.136c1.687,0.1,3.28,0.561,4.785,1.381c1.45,0.786,2.613,1.871,3.489,3.252
			c0.854,1.371,1.279,2.865,1.279,4.481c0,1.641-0.438,3.146-1.312,4.517c-0.91,1.415-2.096,2.51-3.557,3.286
			c0.865,1.549,1.843,2.87,2.932,3.959c1.146,1.18,2.288,2.023,3.422,2.527v3.337c-1.933-0.65-3.59-1.578-4.971-2.78
			c-1.405-1.201-2.546-2.561-3.421-4.078C177.908,403.413,177.172,401.712,176.61,399.915z"/>
		<path d="M96.325,388.774c1.651-0.941,3.409-1.412,5.274-1.412c1.887,0,3.65,0.481,5.292,1.447c1.661,0.997,2.925,2.276,3.79,3.834
			v-5.147c-2.64-2.326-5.667-3.487-9.082-3.487c-2.516,0-4.837,0.62-6.959,1.862c-1.067,0.641-2.027,1.387-2.881,2.24
			c-0.854,0.854-1.584,1.809-2.191,2.863c-1.246,2.146-1.87,4.469-1.87,6.973c0,2.516,0.624,4.84,1.87,6.975
			c1.225,2.121,2.914,3.812,5.072,5.07c2.101,1.257,4.421,1.886,6.959,1.886c3.404,0,6.431-1.141,9.082-3.421v-5.214
			c-0.865,1.558-2.129,2.837-3.79,3.835c-1.642,0.965-3.405,1.445-5.292,1.445c-1.888,0-3.657-0.47-5.308-1.412
			c-1.651-0.965-2.938-2.254-3.859-3.868c-0.73-1.251-1.174-2.592-1.339-4.025h9.765v-3.134h-9.675
			c0.215-1.207,0.639-2.345,1.283-3.407C93.375,391.085,94.663,389.784,96.325,388.774z"/>
		<path d="M198.494,388.774c1.65-0.941,3.409-1.412,5.273-1.412c1.887,0,3.65,0.481,5.291,1.447
			c1.663,0.997,2.926,2.276,3.791,3.834v-5.147c-2.64-2.326-5.667-3.487-9.082-3.487c-2.517,0-4.836,0.62-6.959,1.862
			c-1.067,0.641-2.027,1.387-2.882,2.24c-0.854,0.854-1.583,1.809-2.189,2.863c-1.247,2.146-1.871,4.469-1.871,6.973
			c0,2.516,0.624,4.84,1.871,6.975c1.223,2.121,2.915,3.812,5.071,5.07c2.101,1.257,4.42,1.886,6.959,1.886
			c3.403,0,6.432-1.141,9.082-3.421v-5.214c-0.865,1.558-2.128,2.837-3.791,3.835c-1.641,0.965-3.404,1.445-5.291,1.445
			c-1.888,0-3.657-0.47-5.308-1.412c-1.651-0.965-2.938-2.254-3.859-3.868c-0.719-1.231-1.163-2.551-1.333-3.958h9.152v-3.133h-9.08
			c0.21-1.233,0.638-2.393,1.295-3.475C195.543,391.085,196.831,389.784,198.494,388.774z"/>
	</g>
	<path d="M179.74,342.316c-3.446-17.64-15.431-51.185-18.729-57.177c-5.241-9.523-12.263-14.661-20.337-14.892v-0.008h-0.569v0.008
		c-8.073,0.23-15.097,5.368-20.337,14.892c-3.277,5.956-4.892,11.845-5.34,13.642c0,0-10.031,25.84-13.486,43.535
		c-3.456,17.696,1.798,22.533,5.668,24.193c3.87,1.659,33.73,1.935,33.73,1.935s29.859-0.276,33.73-1.935
		C177.942,364.85,183.196,360.012,179.74,342.316z M140.34,315.083c-19.279,0-20.271-14.322-20.317-15.415
		c1.158-4.37,6.999-23.523,20.365-23.789c13.25,0.265,19.132,19.189,20.346,23.71l-0.072,0.01
		C160.662,299.601,160.385,315.083,140.34,315.083z"/>
	<g>
		<path fill="#FFFFFF" d="M158.101,339.605l-2.82-9.667l-3.725-2.865l-3.503,1.023l-3.502,1.021l-1.598,4.418l2.82,9.668
			c0,0,0.319,1.528,2.303,0.95c1.985-0.58,4.297-1.254,4.297-1.254s2.312-0.676,4.295-1.254
			C158.654,341.065,158.101,339.605,158.101,339.605z"/>
		<path fill="#FFFFFF" stroke="#FFFFFF" stroke-width="1.7517" stroke-miterlimit="10" d="M165.743,332.523l-0.198,0.214
			c0,0,0.04,0.051,0.032,0.157c-0.02,0.239-0.258,0.78-1.654,1.727c-0.651,0.442-1.24,0.588-1.747,0.433
			c-0.923-0.283-1.414-1.506-1.624-2.03c-0.355-0.89-0.451-3.416-0.4-4.519c0.045-1.007-0.516-4.15-2.718-5.369
			c-2.13-1.177-7.362,0.146-8.918,1.87c-1.552,1.724-0.596,3.545-0.586,3.563l0.257-0.138c-0.009-0.017-0.869-1.658,0.548-3.229
			c1.459-1.619,6.562-2.913,8.558-1.81c2.057,1.138,2.608,4.179,2.565,5.099c-0.05,1.158,0.046,3.698,0.425,4.641
			c0.224,0.561,0.751,1.879,1.809,2.202c0.334,0.102,0.688,0.097,1.065-0.013c0.3-0.087,0.609-0.24,0.932-0.459
			c1.142-0.772,1.74-1.428,1.779-1.944C165.885,332.662,165.757,332.535,165.743,332.523z"/>
		
			<rect x="165.036" y="328.608" transform="matrix(-0.9897 0.1429 -0.1429 -0.9897 382.3301 635.2959)" fill="#FFFFFF" width="6.64" height="5.533"/>
	</g>
	<g>
		
			<rect x="108.459" y="321.972" transform="matrix(0.9813 0.1926 -0.1926 0.9813 67.7066 -17.1718)" fill="#FFFFFF" width="27.442" height="35.418"/>
		
			<rect x="114.215" y="326.602" transform="matrix(0.9813 0.1926 -0.1926 0.9813 65.5229 -17.7909)" width="20.144" height="3.173"/>
		<rect x="112.678" y="334.439" transform="matrix(0.9813 0.1926 -0.1926 0.9813 67.02 -17.3509)" width="20.144" height="3.172"/>
		
			<rect x="111.336" y="342.031" transform="matrix(0.9813 0.1925 -0.1925 0.9813 68.4317 -16.9464)" width="20.144" height="3.174"/>
	</g>
	<g>
		<path fill="#FFFFFF" d="M172.062,339.167c-3.036,0.043-14.246,7.194-14.77,7.568c-0.525,0.375,0.137,1.301,0.137,1.301
			l1.098,1.851l1.098,1.851c0,0,0.496,1.025,1.077,0.745c0.578-0.281,12.23-6.689,13.721-9.333c0,0,1.361-1.105,0.311-2.875
			C173.683,338.503,172.062,339.167,172.062,339.167z"/>
		<path d="M173.242,341.157c0.2,0.336,0.198,0.705,0,0.825l-9.989,5.923c-0.199,0.119-0.523-0.058-0.722-0.394l0,0
			c-0.2-0.336-0.2-0.704,0.001-0.823l9.986-5.925C172.718,340.645,173.042,340.822,173.242,341.157L173.242,341.157z"/>
		<polygon points="157.956,346.303 161.399,352.107 162.053,351.742 158.567,345.865 		"/>
		<path fill="#FFFFFF" d="M160.507,352.155l-14.577,8.648c0,0-5.494,3.26-7.357,0.937l-0.048-0.082
			c-1.146-2.751,4.348-6.009,4.348-6.009l14.579-8.646"/>
	</g>
	<rect x="24.724" y="425.278" fill="none" width="233.968" height="13.053"/>
	<text transform="matrix(1 0 0 1 74.7798 436.0488)" font-family="'Futura-Medium'" font-size="13.0396" letter-spacing="6">SINCE 1972</text>
</g>
<g>
	<g>
		<path d="M796.899,136.943h3.318v25.881c-0.977-0.381-1.941-0.831-2.898-1.348c-0.953-0.516-1.906-1.114-2.855-1.795
			c-0.949-0.679-1.789-1.355-2.52-2.03c-1.256-1.123-2.402-2.41-3.436-3.859c-1.035-1.449-1.938-3.038-2.713-4.768
			c-1.584-3.483-2.375-7.509-2.375-12.083h3.381c0,2.326,0.262,4.556,0.781,6.691c0.523,2.133,1.25,4.054,2.182,5.762
			c0.852,1.617,1.93,3.129,3.23,4.532c1.223,1.27,2.523,2.303,3.904,3.101V136.943z"/>
		<path d="M829.493,136.943c2.943,0.46,5.645,1.602,8.105,3.421c2.471,1.831,4.414,3.898,5.828,6.201v-9.622h3.32v25.881h-3.32
			v-5.999c0-1.685-0.342-3.364-1.027-5.037c-0.348-0.82-0.75-1.612-1.203-2.376c-0.455-0.765-0.965-1.494-1.525-2.19
			c-1.102-1.359-2.264-2.505-3.488-3.438c-1.236-0.978-2.338-1.611-3.303-1.902v20.943h-3.387V136.943z"/>
		<path d="M851.069,142.403l-1.209-3.42c2.674-2.022,5.549-3.034,8.627-3.034c1.559,0,3.123,0.263,4.684,0.792
			c1.482,0.504,2.797,1.252,3.943,2.241l-1.281,3.42c-1.934-1.595-3.82-2.589-5.662-2.982v23.403h-3.387v-23.403
			c-0.953,0.191-1.928,0.539-2.924,1.045C852.829,141.004,851.899,141.651,851.069,142.403z"/>
		<path d="M870.224,136.943h3.389v19.28c0,1.167,0.43,2.166,1.293,2.997c0.887,0.831,1.891,1.246,3.012,1.246
			c1.145,0,2.164-0.415,3.061-1.246c0.875-0.842,1.312-1.841,1.312-2.997v-19.28h3.283v19.294c0,1.336-0.342,2.591-1.025,3.765
			c-0.686,1.174-1.619,2.104-2.797,2.79c-1.201,0.685-2.479,1.027-3.826,1.027c-2.088,0-3.887-0.769-5.393-2.308
			c-1.539-1.507-2.309-3.264-2.309-5.274V136.943z"/>
		<path d="M892.343,151.856c1.572-0.135,2.943-0.748,4.111-1.837c1.125-1.044,1.686-2.319,1.686-3.825
			c0-1.033-0.275-1.977-0.826-2.831c-0.561-0.82-1.318-1.5-2.275-2.039c-0.932-0.506-1.977-0.758-3.133-0.758v22.258h-3.385v-25.881
			c1.324,0,2.453,0.045,3.385,0.136c1.686,0.101,3.281,0.562,4.785,1.381c1.449,0.786,2.613,1.87,3.488,3.253
			c0.854,1.371,1.281,2.865,1.281,4.481c0,1.641-0.439,3.146-1.314,4.517c-0.91,1.415-2.096,2.51-3.555,3.285
			c0.863,1.55,1.842,2.87,2.93,3.959c1.146,1.181,2.287,2.023,3.422,2.528v3.336c-1.932-0.651-3.59-1.578-4.971-2.78
			c-1.404-1.202-2.545-2.562-3.42-4.079C893.642,155.355,892.905,153.654,892.343,151.856z"/>
		<path d="M812.06,140.715c1.65-0.942,3.408-1.412,5.273-1.412c1.887,0,3.65,0.481,5.291,1.447c1.662,0.998,2.926,2.276,3.791,3.835
			v-5.147c-2.641-2.326-5.666-3.488-9.082-3.488c-2.518,0-4.836,0.622-6.959,1.863c-1.066,0.64-2.027,1.387-2.881,2.24
			c-0.854,0.854-1.584,1.809-2.191,2.863c-1.246,2.146-1.871,4.469-1.871,6.974c0,2.515,0.625,4.84,1.871,6.973
			c1.225,2.123,2.916,3.813,5.072,5.07c2.102,1.258,4.42,1.886,6.959,1.886c3.404,0,6.432-1.14,9.082-3.42v-5.215
			c-0.865,1.559-2.129,2.838-3.791,3.836c-1.641,0.964-3.404,1.445-5.291,1.445s-3.656-0.47-5.309-1.413
			c-1.65-0.964-2.938-2.255-3.857-3.869c-0.73-1.25-1.176-2.591-1.34-4.023h9.766v-3.134h-9.676
			c0.215-1.208,0.639-2.346,1.283-3.408C809.11,143.026,810.396,141.725,812.06,140.715z"/>
		<path d="M914.228,140.715c1.65-0.942,3.408-1.412,5.273-1.412c1.887,0,3.65,0.481,5.291,1.447
			c1.662,0.998,2.926,2.276,3.791,3.835v-5.147c-2.639-2.326-5.668-3.488-9.082-3.488c-2.518,0-4.836,0.622-6.959,1.863
			c-1.068,0.64-2.029,1.387-2.883,2.24c-0.854,0.854-1.584,1.809-2.189,2.863c-1.248,2.146-1.871,4.469-1.871,6.974
			c0,2.515,0.623,4.84,1.871,6.973c1.225,2.123,2.916,3.813,5.072,5.07c2.1,1.258,4.42,1.886,6.959,1.886
			c3.402,0,6.43-1.14,9.082-3.42v-5.215c-0.865,1.559-2.129,2.838-3.791,3.836c-1.641,0.964-3.404,1.445-5.291,1.445
			s-3.656-0.47-5.309-1.413c-1.65-0.964-2.938-2.255-3.857-3.869c-0.721-1.23-1.164-2.55-1.334-3.957h9.152v-3.134h-9.08
			c0.209-1.233,0.639-2.393,1.295-3.475C911.278,143.026,912.565,141.725,914.228,140.715z"/>
	</g>
	<path d="M898.175,82.975l-1.012-7.01l-8.414,1.212l0.523,3.63l-0.881,0.954l0.246,0.315c-0.197,0.234-0.615,0.642-1.48,1.228
		c-0.721,0.488-1.043,0.485-1.277,0.41c-0.67-0.206-1.195-1.515-1.367-1.944c-0.348-0.863-0.504-3.821-0.436-5.319
		c0.078-1.73-0.838-6.123-4.055-7.903c-0.859-0.474-1.996-0.714-3.385-0.714c-3.076,0-7.547,1.276-9.406,3.338
		c-1.783,1.981-1.508,4.056-1.186,5.123l-3.057,0.891l-2.045,5.655l3.609,12.377c0,0,0.408,1.956,2.949,1.215
		c2.541-0.742,5.5-1.605,5.5-1.605s2.959-0.864,5.498-1.604c2.541-0.743,1.834-2.611,1.834-2.611l-3.611-12.376l-4.768-3.667
		l-3.408,0.995c-0.156-0.463-0.361-1.542,0.629-2.641c1.145-1.27,4.783-2.471,7.484-2.471c0.9,0,1.645,0.137,2.094,0.386
		c2.166,1.198,2.746,4.67,2.709,5.498c-0.053,1.169,0,4.859,0.621,6.404c0.346,0.869,1.158,2.904,3.033,3.478
		c0.307,0.092,0.629,0.139,0.953,0.139c0.342,0,0.695-0.052,1.047-0.155c0.494-0.143,1.004-0.392,1.508-0.735
		c0.701-0.474,1.26-0.924,1.689-1.358L898.175,82.975z"/>
	
		<rect x="816.787" y="68.041" transform="matrix(0.9813 0.1926 -0.1926 0.9813 33.0947 -159.0064)" width="35.128" height="45.338"/>
	
		<rect x="824.155" y="73.967" transform="matrix(0.9813 0.1925 -0.1925 0.9813 30.2936 -159.74)" fill="#FFFFFF" width="25.789" height="4.063"/>
	
		<rect x="822.187" y="84" transform="matrix(0.9813 0.1927 -0.1927 0.9813 32.2181 -159.2711)" fill="#FFFFFF" width="25.786" height="4.061"/>
	
		<rect x="820.47" y="93.719" transform="matrix(0.9813 0.1925 -0.1925 0.9813 34.0314 -158.6723)" fill="#FFFFFF" width="25.787" height="4.063"/>
	<path d="M898.206,90.053c-3.887,0.054-18.236,9.209-18.906,9.688c-0.672,0.479,0.174,1.665,0.174,1.665l1.406,2.369l1.406,2.369
		c0,0,0.633,1.312,1.377,0.954c0.74-0.36,15.656-8.563,17.566-11.947c0,0,1.742-1.416,0.396-3.682
		C900.282,89.204,898.206,90.053,898.206,90.053z"/>
	<path fill="#FFFFFF" d="M899.716,92.601c0.256,0.431,0.256,0.904,0,1.057l-12.785,7.583c-0.258,0.151-0.672-0.075-0.926-0.504l0,0
		c-0.258-0.431-0.254-0.902,0.002-1.054l12.783-7.584C899.048,91.944,899.462,92.17,899.716,92.601L899.716,92.601z"/>
	<polygon fill="#FFFFFF" points="880.147,99.187 884.556,106.618 885.396,106.15 880.931,98.627 	"/>
	<path d="M883.415,106.68l-18.662,11.069c0,0-7.033,4.173-9.418,1.2l-0.061-0.105c-1.469-3.521,5.564-7.691,5.564-7.691
		l18.664-11.069"/>
	<rect x="740.458" y="177.22" fill="none" width="233.969" height="13.052"/>
	<text transform="matrix(1 0 0 1 790.5117 187.9878)" font-family="'Futura-Medium'" font-size="13.0396" letter-spacing="6">SINCE 1972</text>
</g>
<g>
	<path d="M212.769,70.326c-3.37-9.51-12.439-16.325-23.113-16.325H93.443c-10.524,0-19.494,6.625-22.975,15.928
		c-2.407,12.53,11.698,10.107,11.698,10.107c0.216,0.511,0.397,0.984,0.562,1.439c2.635-1.249,4.404-3.518,4.404-6.119
		c0-0.083-0.012-0.164-0.016-0.245h0.031c-0.003,0.081-0.016,0.162-0.016,0.245c0,3.944,4.054,7.141,9.056,7.141
		c5.001,0,9.056-3.197,9.056-7.141c0-0.083-0.012-0.164-0.016-0.245h0.256c0,3.943,4.053,7.141,9.055,7.141s9.056-3.198,9.056-7.141
		c0,3.943,4.055,7.141,9.056,7.141c4.241,0,7.79-2.301,8.775-5.403c0.811,3.288,4.478,5.77,8.886,5.77
		c5.001,0,9.056-3.197,9.056-7.141c0-0.124-0.016-0.245-0.024-0.367h0.047c-0.008,0.122-0.023,0.243-0.023,0.367
		c0,3.943,4.054,7.141,9.056,7.141s9.056-3.197,9.056-7.141c0-0.124-0.016-0.245-0.023-0.367h0.271
		c-0.001,0.041-0.008,0.081-0.008,0.122c0,3.944,4.054,7.141,9.056,7.141c5.003,0,9.056-3.197,9.056-7.141
		c0-0.041-0.006-0.082-0.007-0.122h0.016c-0.001,0.041-0.008,0.081-0.008,0.122c0,2.686,1.883,5.022,4.662,6.242
		c0.158-0.428,0.328-0.872,0.53-1.349C201.023,80.127,214.881,82.5,212.769,70.326z"/>
	<rect x="82.167" y="64.643" width="118.908" height="71.249"/>
	<g>
		<path d="M83.123,151.019h3.32V176.9c-0.978-0.381-1.943-0.831-2.898-1.347c-0.955-0.518-1.907-1.115-2.856-1.795
			c-0.949-0.68-1.789-1.356-2.519-2.03c-1.258-1.123-2.403-2.409-3.437-3.859c-1.034-1.449-1.938-3.038-2.713-4.767
			c-1.584-3.483-2.376-7.509-2.376-12.083h3.383c0,2.326,0.26,4.557,0.782,6.691c0.522,2.133,1.249,4.053,2.179,5.761
			c0.854,1.618,1.93,3.129,3.232,4.532c1.223,1.269,2.524,2.303,3.904,3.102V151.019z"/>
		<path d="M115.716,151.019c2.943,0.461,5.645,1.602,8.106,3.421c2.471,1.831,4.414,3.897,5.829,6.201v-9.623h3.319V176.9h-3.319
			v-5.999c0-1.685-0.343-3.364-1.028-5.039c-0.348-0.819-0.75-1.611-1.204-2.375c-0.455-0.764-0.963-1.494-1.525-2.19
			c-1.1-1.359-2.263-2.505-3.487-3.438c-1.236-0.978-2.337-1.612-3.303-1.903V176.9h-3.388V151.019z"/>
		<path d="M137.293,156.478l-1.21-3.419c2.673-2.022,5.549-3.033,8.627-3.033c1.561,0,3.123,0.263,4.684,0.792
			c1.483,0.504,2.798,1.253,3.944,2.241l-1.28,3.419c-1.934-1.594-3.821-2.589-5.663-2.982V176.9h-3.387v-23.404
			c-0.952,0.192-1.927,0.54-2.924,1.046C139.053,155.08,138.123,155.727,137.293,156.478z"/>
		<path d="M156.449,151.019h3.387v19.281c0,1.166,0.43,2.166,1.294,2.997c0.887,0.831,1.89,1.246,3.011,1.246
			c1.144,0,2.164-0.416,3.06-1.246c0.875-0.841,1.312-1.841,1.312-2.997v-19.281h3.286v19.294c0,1.336-0.342,2.591-1.027,3.766
			c-0.685,1.174-1.618,2.104-2.797,2.789c-1.202,0.686-2.478,1.027-3.826,1.027c-2.088,0-3.886-0.769-5.392-2.308
			c-1.539-1.505-2.308-3.264-2.308-5.274V151.019z"/>
		<path d="M178.567,165.932c1.573-0.134,2.944-0.747,4.113-1.837c1.123-1.044,1.685-2.319,1.685-3.825
			c0-1.033-0.275-1.977-0.826-2.831c-0.561-0.82-1.319-1.5-2.275-2.039c-0.931-0.506-1.977-0.758-3.133-0.758V176.9h-3.386v-25.882
			c1.326,0,2.454,0.045,3.386,0.136c1.686,0.101,3.28,0.562,4.786,1.381c1.449,0.786,2.612,1.87,3.488,3.253
			c0.854,1.37,1.281,2.865,1.281,4.481c0,1.641-0.439,3.146-1.314,4.516c-0.911,1.416-2.096,2.511-3.556,3.286
			c0.864,1.55,1.842,2.871,2.931,3.96c1.146,1.18,2.287,2.022,3.421,2.526v3.337c-1.932-0.651-3.589-1.578-4.971-2.779
			c-1.404-1.202-2.544-2.562-3.42-4.079C179.866,169.43,179.13,167.729,178.567,165.932z"/>
		<path d="M98.282,154.792c1.652-0.942,3.409-1.413,5.274-1.413c1.887,0,3.65,0.481,5.292,1.447
			c1.662,0.998,2.925,2.276,3.791,3.834v-5.147c-2.64-2.326-5.667-3.488-9.082-3.488c-2.516,0-4.836,0.621-6.959,1.863
			c-1.067,0.64-2.027,1.388-2.881,2.24c-0.854,0.854-1.584,1.808-2.19,2.863c-1.248,2.146-1.871,4.469-1.871,6.974
			c0,2.515,0.623,4.839,1.871,6.973c1.223,2.122,2.914,3.812,5.071,5.07c2.101,1.257,4.42,1.886,6.959,1.886
			c3.403,0,6.431-1.14,9.082-3.42v-5.214c-0.865,1.558-2.128,2.837-3.791,3.835c-1.642,0.965-3.405,1.447-5.292,1.447
			s-3.657-0.471-5.308-1.414c-1.651-0.965-2.938-2.254-3.858-3.868c-0.73-1.251-1.175-2.592-1.34-4.024h9.766v-3.135H93.14
			c0.214-1.208,0.639-2.345,1.284-3.407C95.334,157.102,96.62,155.801,98.282,154.792z"/>
		<path d="M200.452,154.792c1.65-0.942,3.409-1.413,5.272-1.413c1.887,0,3.651,0.481,5.292,1.447
			c1.663,0.998,2.926,2.276,3.792,3.834v-5.147c-2.64-2.326-5.667-3.488-9.083-3.488c-2.516,0-4.835,0.621-6.959,1.863
			c-1.067,0.64-2.027,1.388-2.881,2.24c-0.854,0.854-1.584,1.808-2.19,2.863c-1.247,2.146-1.871,4.469-1.871,6.974
			c0,2.515,0.624,4.839,1.871,6.973c1.224,2.122,2.916,3.812,5.071,5.07c2.101,1.257,4.421,1.886,6.959,1.886
			c3.404,0,6.431-1.14,9.083-3.42v-5.214c-0.865,1.558-2.129,2.837-3.792,3.835c-1.641,0.965-3.404,1.447-5.292,1.447
			c-1.887,0-3.656-0.471-5.307-1.414c-1.652-0.965-2.939-2.254-3.859-3.868c-0.719-1.231-1.163-2.551-1.334-3.958h9.153v-3.133
			h-9.08c0.21-1.233,0.638-2.394,1.295-3.475C197.502,157.102,198.789,155.801,200.452,154.792z"/>
	</g>
	<rect x="24.817" y="191.295" fill="none" width="233.968" height="13.052"/>
	<text transform="matrix(1 0 0 1 74.8721 202.0645)" font-family="'Futura-Medium'" font-size="13.0396" letter-spacing="6">SINCE 1972</text>
	<rect x="96.757" y="95.313" fill="#FFFFFF" width="25.934" height="41.819"/>
	<rect x="138.357" y="95.313" fill="#FFFFFF" width="48.076" height="23.099"/>
	<path fill="#FFFFFF" d="M197.384,75.275l0.039-1.716h-3.199l0.047,1.598l0.007,0.12c-0.031,3.062-3.385,5.545-7.504,5.545
		c-4.118,0-7.472-2.483-7.503-5.545l0.031-1.718h-3.501l0.119,1.808c0.003,0.037,0.008,0.074,0.008,0.111
		c0,3.082-3.366,5.589-7.503,5.589c-4.138,0-7.504-2.507-7.504-5.588c0-0.038,0.004-0.075,0.008-0.112L161,73.56h-3.311l0.119,1.807
		c0.003,0.038,0.007,0.075,0.008,0.112c0,3.082-3.366,5.589-7.503,5.589c-3.104,0-5.824-1.422-6.95-3.504
		c-0.228-0.499-0.306-1.094-0.328-1.533V73.56h-3.104v2.865c-0.819,2.48-3.868,4.276-7.279,4.276c-4.138,0-7.504-2.507-7.504-5.588
		h-0.01V73.56h-3.105v1.694c-0.103,3.016-3.42,5.446-7.493,5.446c-4.137,0-7.503-2.507-7.503-5.588V73.56h-3.431l0.073,1.621
		c0.002,0.056,0.006,0.111,0.014,0.176c0,3.082-3.366,5.589-7.504,5.589c-4.137,0-7.503-2.507-7.501-5.598
		c0.005-0.056,0.009-0.11,0.012-0.167l0.041-1.621h-3.246l0.072,1.621c0.003,0.056,0.007,0.111,0.014,0.176
		c0,1.958-1.362,3.682-3.415,4.68v3.34c2.068-0.71,3.807-1.943,4.967-3.497c1.865,2.499,5.227,4.17,9.056,4.17
		c3.975,0,7.446-1.801,9.263-4.459c1.858,2.523,5.237,4.214,9.088,4.214c3.829,0,7.19-1.671,9.056-4.169
		c1.866,2.499,5.228,4.169,9.056,4.169c3.534,0,6.74-1.431,8.681-3.696c1.9,2.463,5.26,4.064,8.98,4.064
		c3.829,0,7.19-1.671,9.056-4.169c1.866,2.499,5.228,4.169,9.056,4.169c3.975,0,7.446-1.8,9.262-4.458
		c1.859,2.523,5.237,4.213,9.088,4.213c3.83,0,7.191-1.671,9.056-4.169c1.212,1.622,3.054,2.891,5.243,3.584v-3.304
		C198.885,79.071,197.404,77.302,197.384,75.275z M141.791,76.44h0.515c-0.002,0.006-0.002,0.011-0.004,0.017L141.791,76.44z"/>
</g>
<g>
	<g>
		<path d="M797.942,383.725h3.32v25.883c-0.979-0.382-1.943-0.831-2.9-1.349c-0.953-0.517-1.906-1.115-2.855-1.795
			c-0.949-0.679-1.789-1.355-2.518-2.03c-1.258-1.122-2.404-2.409-3.438-3.857c-1.033-1.45-1.938-3.04-2.713-4.769
			c-1.584-3.481-2.375-7.509-2.375-12.083h3.381c0,2.327,0.262,4.558,0.783,6.691s1.248,4.055,2.18,5.762
			c0.852,1.618,1.93,3.129,3.23,4.532c1.223,1.27,2.523,2.303,3.904,3.101V383.725z"/>
		<path d="M830.536,383.725c2.943,0.462,5.645,1.603,8.105,3.423c2.471,1.83,4.414,3.897,5.83,6.199v-9.622h3.318v25.883h-3.318
			v-5.999c0-1.685-0.344-3.363-1.029-5.037c-0.348-0.82-0.748-1.613-1.203-2.377c-0.455-0.764-0.963-1.493-1.525-2.189
			c-1.1-1.361-2.264-2.506-3.488-3.439c-1.234-0.977-2.336-1.611-3.303-1.903v20.944h-3.387V383.725z"/>
		<path d="M852.112,389.187l-1.209-3.421c2.674-2.021,5.549-3.033,8.627-3.033c1.561,0,3.123,0.262,4.684,0.792
			c1.484,0.505,2.797,1.253,3.943,2.241l-1.279,3.421c-1.934-1.597-3.82-2.59-5.662-2.984v23.406h-3.387v-23.406
			c-0.953,0.192-1.928,0.541-2.926,1.047C853.874,387.787,852.942,388.433,852.112,389.187z"/>
		<path d="M871.269,383.725h3.387v19.281c0,1.167,0.432,2.166,1.295,2.997c0.887,0.83,1.889,1.246,3.01,1.246
			c1.145,0,2.164-0.416,3.061-1.246c0.875-0.842,1.312-1.841,1.312-2.997v-19.281h3.285v19.293c0,1.337-0.342,2.592-1.027,3.767
			c-0.686,1.174-1.617,2.104-2.795,2.789c-1.203,0.686-2.479,1.027-3.828,1.027c-2.088,0-3.885-0.769-5.391-2.308
			c-1.541-1.506-2.309-3.264-2.309-5.275V383.725z"/>
		<path d="M893.388,398.638c1.572-0.134,2.941-0.746,4.111-1.836c1.123-1.043,1.686-2.318,1.686-3.825
			c0-1.033-0.275-1.977-0.826-2.83c-0.562-0.82-1.32-1.5-2.275-2.039c-0.932-0.505-1.977-0.757-3.135-0.757v22.258h-3.385v-25.883
			c1.326,0,2.453,0.045,3.385,0.136c1.688,0.1,3.281,0.562,4.785,1.382c1.451,0.786,2.613,1.871,3.49,3.253
			c0.852,1.371,1.279,2.864,1.279,4.48c0,1.641-0.438,3.147-1.314,4.516c-0.91,1.416-2.094,2.511-3.555,3.287
			c0.865,1.549,1.842,2.869,2.932,3.958c1.145,1.182,2.287,2.024,3.42,2.527v3.337c-1.932-0.651-3.588-1.577-4.971-2.78
			c-1.404-1.201-2.543-2.56-3.42-4.077C894.687,402.138,893.948,400.436,893.388,398.638z"/>
		<path d="M813.103,387.499c1.65-0.942,3.408-1.413,5.273-1.413c1.887,0,3.65,0.481,5.291,1.446
			c1.662,0.999,2.928,2.277,3.791,3.834v-5.146c-2.639-2.325-5.666-3.487-9.082-3.487c-2.516,0-4.836,0.62-6.959,1.862
			c-1.066,0.641-2.027,1.387-2.881,2.239c-0.854,0.856-1.584,1.81-2.189,2.864c-1.248,2.146-1.871,4.47-1.871,6.972
			c0,2.517,0.623,4.843,1.871,6.975c1.223,2.123,2.914,3.812,5.07,5.071c2.102,1.256,4.42,1.885,6.959,1.885
			c3.404,0,6.432-1.139,9.082-3.419v-5.215c-0.863,1.558-2.129,2.838-3.791,3.834c-1.641,0.965-3.404,1.447-5.291,1.447
			s-3.656-0.471-5.307-1.413c-1.652-0.965-2.938-2.255-3.859-3.868c-0.73-1.251-1.176-2.592-1.34-4.024h9.766v-3.134h-9.676
			c0.215-1.208,0.639-2.345,1.283-3.408C810.153,389.81,811.438,388.508,813.103,387.499z"/>
		<path d="M915.271,387.499c1.652-0.942,3.41-1.413,5.273-1.413c1.887,0,3.65,0.481,5.291,1.446
			c1.662,0.999,2.928,2.277,3.791,3.834v-5.146c-2.639-2.325-5.668-3.487-9.082-3.487c-2.516,0-4.834,0.62-6.959,1.862
			c-1.066,0.641-2.027,1.387-2.881,2.239c-0.855,0.856-1.584,1.81-2.191,2.864c-1.246,2.146-1.869,4.47-1.869,6.972
			c0,2.517,0.623,4.843,1.869,6.975c1.225,2.123,2.916,3.812,5.072,5.071c2.102,1.256,4.422,1.885,6.959,1.885
			c3.404,0,6.432-1.139,9.082-3.419v-5.215c-0.863,1.558-2.129,2.838-3.791,3.834c-1.641,0.965-3.404,1.447-5.291,1.447
			s-3.656-0.471-5.307-1.413c-1.652-0.965-2.939-2.255-3.859-3.868c-0.719-1.231-1.164-2.551-1.334-3.958h9.152v-3.135h-9.08
			c0.211-1.233,0.639-2.393,1.297-3.474C912.323,389.81,913.608,388.508,915.271,387.499z"/>
	</g>
	<path d="M896.517,341.041c-3.445-17.639-15.432-51.184-18.729-57.177c-5.24-9.523-12.262-14.661-20.336-14.892v-0.008h-0.57v0.008
		c-8.074,0.231-15.096,5.369-20.336,14.892c-3.277,5.957-4.893,11.845-5.34,13.642c0,0-10.031,25.841-13.486,43.535
		c-3.457,17.696,1.797,22.534,5.668,24.193c3.869,1.66,33.73,1.935,33.73,1.935s29.859-0.275,33.73-1.935
		C894.72,363.574,899.974,358.736,896.517,341.041z M857.118,313.808c-19.281,0-20.271-14.322-20.318-15.415
		c1.158-4.37,7-23.522,20.367-23.789c13.248,0.265,19.131,19.188,20.346,23.711l-0.074,0.01
		C877.438,298.325,877.163,313.808,857.118,313.808z"/>
	<rect x="741.503" y="424.004" fill="none" width="233.969" height="13.052"/>
	<text transform="matrix(1 0 0 1 791.5557 434.77)" font-family="'Futura-Medium'" font-size="13.0396" letter-spacing="6">SINCE 1972</text>
</g>
<g>
	<circle cx="500.774" cy="352.912" r="96.419"/>
	<g>
		<path fill="#FFFFFF" d="M446.467,385.315h2.988v23.293c-0.88-0.343-1.749-0.749-2.609-1.213c-0.859-0.466-1.715-1.003-2.571-1.615
			c-0.854-0.612-1.61-1.22-2.268-1.828c-1.131-1.009-2.163-2.167-3.093-3.472s-1.744-2.735-2.441-4.291
			c-1.425-3.134-2.138-6.759-2.138-10.874h3.043c0,2.094,0.235,4.101,0.704,6.021c0.469,1.919,1.124,3.648,1.962,5.185
			c0.767,1.457,1.737,2.816,2.907,4.08c1.101,1.143,2.272,2.073,3.514,2.79V385.315z"/>
		<path fill="#FFFFFF" d="M475.801,385.315c2.649,0.415,5.08,1.442,7.296,3.079c2.223,1.648,3.973,3.508,5.246,5.581v-8.66h2.988
			v23.293h-2.988v-5.398c0-1.517-0.308-3.029-0.925-4.535c-0.313-0.737-0.675-1.45-1.083-2.138c-0.41-0.687-0.868-1.345-1.373-1.97
			c-0.991-1.224-2.037-2.256-3.139-3.095c-1.113-0.879-2.103-1.451-2.972-1.713v18.849h-3.049V385.315z"/>
		<path fill="#FFFFFF" d="M495.221,390.229l-1.089-3.078c2.407-1.819,4.995-2.73,7.764-2.73c1.406,0,2.811,0.237,4.217,0.713
			c1.334,0.454,2.518,1.127,3.549,2.017l-1.152,3.078c-1.74-1.436-3.439-2.331-5.098-2.684v21.063h-3.048v-21.063
			c-0.856,0.173-1.734,0.486-2.631,0.941C496.804,388.971,495.967,389.552,495.221,390.229z"/>
		<path fill="#FFFFFF" d="M512.46,385.315h3.049v17.352c0,1.05,0.389,1.95,1.164,2.697c0.799,0.749,1.701,1.122,2.711,1.122
			c1.029,0,1.947-0.373,2.754-1.122c0.787-0.756,1.182-1.656,1.182-2.697v-17.352h2.957v17.364c0,1.202-0.309,2.333-0.926,3.389
			c-0.615,1.057-1.455,1.894-2.516,2.51c-1.082,0.617-2.23,0.925-3.443,0.925c-1.881,0-3.498-0.693-4.854-2.078
			c-1.385-1.355-2.078-2.938-2.078-4.746V385.315z"/>
		<path fill="#FFFFFF" d="M532.368,398.737c1.414-0.122,2.648-0.671,3.699-1.654c1.012-0.938,1.518-2.086,1.518-3.441
			c0-0.93-0.248-1.779-0.744-2.548c-0.506-0.737-1.188-1.35-2.047-1.834c-0.84-0.455-1.779-0.682-2.822-0.682v20.032h-3.047v-23.293
			c1.193,0,2.209,0.04,3.047,0.122c1.518,0.091,2.953,0.506,4.309,1.244c1.305,0.707,2.352,1.683,3.139,2.927
			c0.77,1.233,1.152,2.578,1.152,4.033c0,1.476-0.395,2.832-1.182,4.064c-0.82,1.274-1.887,2.26-3.199,2.957
			c0.777,1.396,1.656,2.584,2.637,3.565c1.031,1.062,2.059,1.819,3.078,2.274v3.002c-1.738-0.585-3.229-1.42-4.473-2.501
			c-1.264-1.081-2.289-2.306-3.078-3.672C533.536,401.887,532.872,400.354,532.368,398.737z"/>
		<path fill="#FFFFFF" d="M460.111,388.711c1.486-0.848,3.067-1.272,4.747-1.272c1.698,0,3.285,0.434,4.763,1.302
			c1.496,0.899,2.632,2.049,3.411,3.452v-4.632c-2.377-2.094-5.1-3.14-8.174-3.14c-2.265,0-4.353,0.559-6.263,1.677
			c-0.961,0.577-1.826,1.249-2.594,2.016c-0.768,0.768-1.425,1.627-1.971,2.577c-1.123,1.931-1.683,4.022-1.683,6.276
			c0,2.264,0.561,4.355,1.683,6.275c1.101,1.911,2.624,3.431,4.565,4.565c1.891,1.13,3.978,1.696,6.263,1.696
			c3.063,0,5.788-1.027,8.174-3.078v-4.693c-0.779,1.403-1.916,2.554-3.411,3.453c-1.478,0.866-3.065,1.301-4.763,1.301
			c-1.698,0-3.292-0.424-4.778-1.271c-1.485-0.869-2.644-2.03-3.472-3.482c-0.658-1.125-1.058-2.333-1.207-3.621h8.789v-2.821
			h-8.707c0.192-1.086,0.575-2.11,1.155-3.066C457.458,390.79,458.614,389.619,460.111,388.711z"/>
		<path fill="#FFFFFF" d="M552.063,388.711c1.484-0.848,3.068-1.272,4.746-1.272c1.697,0,3.285,0.434,4.762,1.302
			c1.496,0.899,2.633,2.049,3.412,3.452v-4.632c-2.375-2.094-5.102-3.14-8.174-3.14c-2.266,0-4.352,0.559-6.264,1.677
			c-0.961,0.577-1.824,1.249-2.594,2.016c-0.768,0.768-1.426,1.627-1.971,2.577c-1.123,1.931-1.684,4.022-1.684,6.276
			c0,2.264,0.561,4.355,1.684,6.275c1.102,1.911,2.623,3.431,4.564,4.565c1.891,1.13,3.979,1.696,6.264,1.696
			c3.062,0,5.787-1.027,8.174-3.078v-4.693c-0.779,1.403-1.916,2.554-3.412,3.453c-1.477,0.866-3.064,1.301-4.762,1.301
			c-1.699,0-3.291-0.424-4.777-1.271c-1.486-0.869-2.645-2.03-3.473-3.482c-0.646-1.107-1.047-2.295-1.201-3.561h8.238v-2.82h-8.174
			c0.191-1.111,0.576-2.154,1.166-3.128C549.409,390.79,550.567,389.619,552.063,388.711z"/>
	</g>
	<path fill="#FFFFFF" d="M557.411,322.581l-1.402-9.715l-11.662,1.68l0.727,5.031l-1.223,1.321l0.342,0.437
		c-0.273,0.324-0.854,0.89-2.051,1.702c-1,0.677-1.447,0.672-1.771,0.568c-0.928-0.285-1.656-2.099-1.895-2.694
		c-0.482-1.197-0.697-5.296-0.605-7.372c0.109-2.398-1.158-8.486-5.617-10.953c-1.191-0.657-2.768-0.99-4.693-0.99
		c-4.262,0-10.459,1.769-13.035,4.626c-2.473,2.745-2.092,5.621-1.645,7.1l-4.236,1.236l-2.836,7.838l5.004,17.154
		c0,0,0.568,2.711,4.086,1.684c3.523-1.029,7.627-2.225,7.627-2.225s4.1-1.199,7.619-2.224c3.521-1.03,2.543-3.619,2.543-3.619
		l-5.006-17.152l-6.609-5.084l-4.721,1.379c-0.221-0.641-0.504-2.137,0.869-3.66c1.586-1.761,6.629-3.426,10.373-3.426
		c1.248,0,2.279,0.19,2.902,0.536c3.002,1.66,3.807,6.472,3.754,7.62c-0.072,1.621,0,6.735,0.859,8.876
		c0.482,1.204,1.607,4.024,4.205,4.819c0.428,0.129,0.871,0.193,1.322,0.193c0.475,0,0.965-0.073,1.451-0.214
		c0.686-0.199,1.391-0.543,2.092-1.019c0.971-0.658,1.744-1.282,2.34-1.883L557.411,322.581z"/>
	
		<rect x="444.609" y="301.882" transform="matrix(0.9813 0.1926 -0.1926 0.9813 72.9736 -84.0797)" fill="#FFFFFF" width="48.689" height="62.84"/>
	<rect x="454.82" y="310.097" transform="matrix(0.9813 0.1926 -0.1926 0.9813 69.1017 -85.1664)" width="35.741" height="5.63"/>
	<rect x="452.091" y="324.001" transform="matrix(0.9813 0.1926 -0.1926 0.9813 71.7598 -84.4114)" width="35.739" height="5.629"/>
	<rect x="449.711" y="337.473" transform="matrix(0.9813 0.1925 -0.1925 0.9813 74.2722 -83.6649)" width="35.741" height="5.631"/>
	<path fill="#FFFFFF" d="M557.454,332.391c-5.387,0.076-25.273,12.765-26.203,13.427c-0.932,0.664,0.24,2.307,0.24,2.307
		l1.949,3.284l1.949,3.284c0,0,0.877,1.818,1.908,1.321c1.027-0.499,21.699-11.869,24.346-16.558c0,0,2.414-1.963,0.551-5.103
		S557.454,332.391,557.454,332.391z"/>
	<path d="M559.548,335.922c0.355,0.597,0.354,1.252,0,1.464l-17.723,10.51c-0.355,0.21-0.928-0.104-1.281-0.699l0,0
		c-0.357-0.598-0.354-1.25,0.002-1.461l17.721-10.512C558.62,335.012,559.194,335.325,559.548,335.922L559.548,335.922z"/>
	<polygon points="532.427,345.05 538.534,355.35 539.698,354.702 533.511,344.274 	"/>
	<path fill="#FFFFFF" d="M536.954,355.436l-25.865,15.343c0,0-9.748,5.783-13.053,1.663l-0.085-0.146
		c-2.035-4.881,7.716-10.66,7.716-10.66l25.865-15.342"/>
</g>
<g>
	<rect x="425.356" y="505.517" width="149.947" height="143.908"/>
	<g>
		<path fill="#FFFFFF" d="M443.706,611.675h3.153v24.587c-0.928-0.363-1.845-0.79-2.753-1.281c-0.907-0.489-1.812-1.059-2.713-1.703
			c-0.901-0.646-1.699-1.288-2.393-1.93c-1.196-1.065-2.284-2.288-3.265-3.666c-0.982-1.376-1.843-2.885-2.579-4.528
			c-1.504-3.31-2.257-7.134-2.257-11.479h3.214c0,2.208,0.247,4.327,0.742,6.354c0.496,2.027,1.186,3.854,2.071,5.475
			c0.811,1.537,1.833,2.973,3.069,4.306c1.163,1.207,2.398,2.188,3.71,2.946V611.675z"/>
		<path fill="#FFFFFF" d="M474.67,611.675c2.795,0.437,5.361,1.522,7.7,3.249c2.346,1.74,4.193,3.704,5.538,5.892v-9.141h3.153
			v24.587h-3.153v-5.699c0-1.6-0.326-3.195-0.977-4.785c-0.331-0.779-0.711-1.531-1.144-2.256c-0.431-0.727-0.916-1.421-1.449-2.08
			c-1.046-1.293-2.149-2.381-3.312-3.27c-1.175-0.926-2.221-1.53-3.139-1.808v19.897h-3.217V611.675z"/>
		<path fill="#FFFFFF" d="M495.167,616.861l-1.149-3.25c2.54-1.92,5.271-2.881,8.196-2.881c1.482,0,2.967,0.25,4.449,0.752
			c1.408,0.479,2.658,1.19,3.748,2.129l-1.219,3.25c-1.836-1.516-3.627-2.46-5.379-2.833v22.233h-3.217v-22.233
			c-0.904,0.182-1.831,0.513-2.777,0.993C496.839,615.533,495.956,616.146,495.167,616.861z"/>
		<path fill="#FFFFFF" d="M513.366,611.675h3.217v18.317c0,1.108,0.408,2.057,1.229,2.846c0.844,0.789,1.795,1.182,2.861,1.182
			c1.086,0,2.055-0.393,2.908-1.182c0.83-0.799,1.246-1.75,1.246-2.846v-18.317h3.121v18.328c0,1.271-0.326,2.463-0.977,3.578
			c-0.65,1.114-1.537,1.999-2.656,2.649c-1.143,0.651-2.354,0.977-3.637,0.977c-1.982,0-3.689-0.731-5.121-2.194
			c-1.463-1.43-2.191-3.1-2.191-5.01V611.675z"/>
		<path fill="#FFFFFF" d="M534.378,625.842c1.494-0.128,2.795-0.709,3.906-1.744c1.066-0.993,1.6-2.204,1.6-3.635
			c0-0.983-0.262-1.877-0.783-2.69c-0.535-0.779-1.254-1.425-2.162-1.935c-0.885-0.48-1.879-0.721-2.977-0.721v21.145h-3.217
			v-24.587c1.26,0,2.33,0.042,3.217,0.129c1.602,0.095,3.115,0.534,4.547,1.313c1.375,0.746,2.48,1.775,3.312,3.088
			c0.811,1.303,1.217,2.723,1.217,4.258c0,1.558-0.416,2.987-1.246,4.291c-0.867,1.344-1.992,2.385-3.379,3.119
			c0.82,1.475,1.75,2.729,2.783,3.763c1.09,1.12,2.174,1.921,3.25,2.401v3.17c-1.836-0.619-3.41-1.498-4.723-2.642
			c-1.334-1.142-2.416-2.434-3.248-3.875C535.612,629.167,534.911,627.549,534.378,625.842z"/>
		<path fill="#FFFFFF" d="M458.107,615.258c1.57-0.895,3.239-1.342,5.011-1.342c1.793,0,3.468,0.457,5.026,1.374
			c1.579,0.949,2.78,2.163,3.602,3.644v-4.889c-2.509-2.211-5.384-3.314-8.628-3.314c-2.39,0-4.594,0.591-6.611,1.771
			c-1.013,0.606-1.927,1.317-2.738,2.128c-0.811,0.811-1.504,1.717-2.08,2.721c-1.186,2.037-1.777,4.244-1.777,6.624
			c0,2.389,0.591,4.598,1.777,6.625c1.162,2.015,2.768,3.622,4.818,4.815c1.995,1.196,4.199,1.793,6.611,1.793
			c3.233,0,6.109-1.084,8.628-3.25v-4.953c-0.821,1.48-2.022,2.695-3.602,3.645c-1.559,0.914-3.233,1.371-5.026,1.371
			s-3.474-0.445-5.042-1.341c-1.568-0.915-2.792-2.142-3.665-3.675c-0.694-1.188-1.116-2.463-1.273-3.823h9.277v-2.976h-9.192
			c0.204-1.148,0.606-2.23,1.219-3.238C455.307,617.453,456.527,616.217,458.107,615.258z"/>
		<path fill="#FFFFFF" d="M555.167,615.258c1.568-0.895,3.238-1.342,5.01-1.342c1.793,0,3.469,0.457,5.027,1.374
			c1.58,0.949,2.779,2.163,3.602,3.644v-4.889c-2.508-2.211-5.385-3.314-8.629-3.314c-2.391,0-4.594,0.591-6.611,1.771
			c-1.014,0.606-1.926,1.317-2.736,2.128c-0.812,0.811-1.504,1.717-2.08,2.721c-1.186,2.037-1.777,4.244-1.777,6.624
			c0,2.389,0.592,4.598,1.777,6.625c1.162,2.015,2.768,3.622,4.816,4.815c1.996,1.196,4.201,1.793,6.611,1.793
			c3.234,0,6.109-1.084,8.629-3.25v-4.953c-0.822,1.48-2.021,2.695-3.602,3.645c-1.559,0.914-3.234,1.371-5.027,1.371
			s-3.473-0.445-5.041-1.341c-1.57-0.915-2.791-2.142-3.666-3.675c-0.684-1.171-1.105-2.424-1.268-3.758h8.695v-2.979h-8.625
			c0.197-1.172,0.605-2.273,1.229-3.301C552.366,617.453,553.589,616.217,555.167,615.258z"/>
	</g>
	<path fill="#FFFFFF" d="M560.813,545.455l-1.48-10.254l-12.309,1.773l0.766,5.311l-1.291,1.395l0.361,0.461
		c-0.289,0.343-0.902,0.94-2.166,1.797c-1.053,0.713-1.527,0.709-1.871,0.6c-0.979-0.301-1.746-2.215-1.998-2.844
		c-0.508-1.264-0.736-5.59-0.637-7.781c0.113-2.529-1.227-8.957-5.932-11.562c-1.258-0.694-2.922-1.044-4.951-1.044
		c-4.502,0-11.043,1.867-13.764,4.882c-2.609,2.898-2.207,5.935-1.734,7.496l-4.471,1.303l-2.994,8.274l5.281,18.106
		c0,0,0.6,2.862,4.314,1.78c3.719-1.087,8.049-2.35,8.049-2.35s4.328-1.266,8.043-2.348c3.717-1.087,2.684-3.82,2.684-3.82
		l-5.283-18.105l-6.975-5.365l-4.986,1.454c-0.23-0.677-0.531-2.255,0.92-3.863c1.674-1.858,6.996-3.615,10.947-3.615
		c1.318,0,2.406,0.2,3.066,0.565c3.168,1.752,4.016,6.832,3.961,8.043c-0.078,1.711,0,7.11,0.908,9.37
		c0.508,1.271,1.697,4.247,4.438,5.087c0.449,0.137,0.92,0.204,1.396,0.204c0.5,0,1.018-0.077,1.531-0.226
		c0.723-0.209,1.467-0.575,2.205-1.076c1.027-0.695,1.844-1.353,2.471-1.988L560.813,545.455z"/>
	
		<rect x="441.743" y="523.606" transform="matrix(0.9813 0.1926 -0.1926 0.9813 115.9857 -79.6046)" fill="#FFFFFF" width="51.394" height="66.331"/>
	
		<rect x="452.523" y="532.276" transform="matrix(0.9813 0.1925 -0.1925 0.9813 111.8755 -80.7449)" width="37.726" height="5.945"/>
	
		<rect x="449.642" y="546.954" transform="matrix(0.9813 0.1927 -0.1927 0.9813 114.7321 -79.9633)" width="37.725" height="5.941"/>
	<rect x="447.13" y="561.174" transform="matrix(0.9813 0.1926 -0.1926 0.9813 117.3534 -79.174)" width="37.727" height="5.945"/>
	<path fill="#FFFFFF" d="M560.858,555.809c-5.686,0.08-26.678,13.475-27.66,14.174c-0.982,0.701,0.254,2.436,0.254,2.436
		l2.059,3.467l2.055,3.466c0,0,0.926,1.919,2.018,1.396c1.084-0.526,22.904-12.528,25.697-17.479c0,0,2.549-2.072,0.58-5.387
		C563.894,554.568,560.858,555.809,560.858,555.809z"/>
	<path d="M563.069,559.537c0.375,0.631,0.371,1.32,0,1.545l-18.707,11.094c-0.377,0.223-0.98-0.107-1.354-0.736l0,0
		c-0.377-0.631-0.373-1.32,0.002-1.543l18.705-11.096C562.089,558.576,562.696,558.908,563.069,559.537L563.069,559.537z"/>
	<polygon points="534.44,569.172 540.888,580.045 542.116,579.359 535.585,568.354 	"/>
	<path fill="#FFFFFF" d="M539.218,580.135l-27.299,16.195c0,0-10.291,6.105-13.78,1.755l-0.091-0.155
		c-2.146-5.15,8.144-11.251,8.144-11.251l27.305-16.194"/>
</g>
<g>
	<rect x="778.728" y="505.637" width="158.711" height="144.678"/>
	<g>
		<path fill="#FFFFFF" d="M804.892,613.197h2.988v23.293c-0.881-0.344-1.75-0.748-2.609-1.213s-1.715-1.002-2.57-1.615
			c-0.854-0.611-1.609-1.221-2.268-1.827c-1.131-1.011-2.162-2.169-3.092-3.474c-0.93-1.304-1.744-2.732-2.443-4.291
			c-1.426-3.134-2.137-6.758-2.137-10.873h3.043c0,2.094,0.234,4.1,0.705,6.021c0.469,1.92,1.123,3.648,1.961,5.186
			c0.768,1.456,1.736,2.816,2.908,4.078c1.102,1.143,2.271,2.073,3.514,2.792V613.197z"/>
		<path fill="#FFFFFF" d="M834.226,613.197c2.648,0.414,5.082,1.441,7.295,3.078c2.225,1.648,3.975,3.508,5.248,5.58v-8.658h2.988
			v23.293h-2.988v-5.398c0-1.516-0.311-3.027-0.926-4.533c-0.314-0.738-0.674-1.451-1.084-2.14c-0.41-0.688-0.869-1.345-1.373-1.971
			c-0.99-1.224-2.037-2.255-3.139-3.094c-1.113-0.88-2.104-1.452-2.973-1.714v18.85h-3.049V613.197z"/>
		<path fill="#FFFFFF" d="M853.646,618.111l-1.09-3.078c2.408-1.82,4.994-2.73,7.766-2.73c1.404,0,2.811,0.236,4.215,0.713
			c1.334,0.454,2.518,1.127,3.549,2.018l-1.152,3.078c-1.74-1.436-3.438-2.33-5.098-2.685v21.063h-3.047v-21.063
			c-0.857,0.173-1.734,0.486-2.631,0.94C855.229,616.853,854.392,617.434,853.646,618.111z"/>
		<path fill="#FFFFFF" d="M870.886,613.197h3.049v17.352c0,1.051,0.387,1.949,1.164,2.697c0.797,0.748,1.701,1.12,2.709,1.12
			c1.029,0,1.947-0.372,2.756-1.12c0.787-0.757,1.18-1.657,1.18-2.697v-17.352h2.957v17.363c0,1.203-0.307,2.333-0.924,3.389
			c-0.617,1.057-1.457,1.895-2.52,2.511c-1.08,0.617-2.229,0.925-3.443,0.925c-1.879,0-3.496-0.691-4.852-2.077
			c-1.385-1.354-2.076-2.937-2.076-4.747V613.197z"/>
		<path fill="#FFFFFF" d="M890.792,626.619c1.416-0.121,2.648-0.673,3.701-1.653c1.01-0.94,1.516-2.087,1.516-3.442
			c0-0.932-0.25-1.78-0.742-2.549c-0.508-0.736-1.189-1.35-2.049-1.835c-0.838-0.455-1.779-0.682-2.82-0.682v20.032h-3.049v-23.293
			c1.195,0,2.209,0.04,3.049,0.121c1.518,0.092,2.953,0.506,4.307,1.244c1.305,0.707,2.352,1.683,3.139,2.928
			c0.77,1.233,1.152,2.578,1.152,4.033c0,1.477-0.393,2.83-1.182,4.064c-0.818,1.272-1.887,2.259-3.199,2.957
			c0.777,1.394,1.656,2.582,2.639,3.562c1.029,1.062,2.057,1.82,3.078,2.275v3.002c-1.738-0.586-3.23-1.42-4.475-2.502
			c-1.264-1.08-2.289-2.305-3.078-3.67C891.96,629.768,891.298,628.236,890.792,626.619z"/>
		<path fill="#FFFFFF" d="M818.536,616.594c1.486-0.85,3.068-1.273,4.746-1.273c1.699,0,3.287,0.434,4.762,1.303
			c1.498,0.898,2.633,2.049,3.412,3.451v-4.633c-2.377-2.094-5.1-3.139-8.174-3.139c-2.266,0-4.352,0.559-6.264,1.677
			c-0.959,0.576-1.824,1.248-2.594,2.017c-0.768,0.768-1.424,1.627-1.969,2.576c-1.125,1.932-1.686,4.021-1.686,6.275
			c0,2.264,0.561,4.357,1.686,6.277c1.1,1.909,2.621,3.432,4.562,4.563c1.891,1.131,3.979,1.696,6.264,1.696
			c3.062,0,5.787-1.025,8.174-3.078v-4.692c-0.779,1.401-1.914,2.554-3.412,3.451c-1.475,0.868-3.062,1.301-4.762,1.301
			s-3.291-0.423-4.777-1.271c-1.486-0.867-2.645-2.029-3.473-3.481c-0.656-1.126-1.057-2.333-1.205-3.622h8.789v-2.819h-8.709
			c0.193-1.089,0.576-2.111,1.156-3.067C815.882,618.672,817.038,617.5,818.536,616.594z"/>
		<path fill="#FFFFFF" d="M910.487,616.594c1.484-0.85,3.068-1.273,4.746-1.273c1.697,0,3.285,0.434,4.762,1.303
			c1.496,0.898,2.635,2.049,3.412,3.451v-4.633c-2.375-2.094-5.102-3.139-8.174-3.139c-2.266,0-4.354,0.559-6.264,1.677
			c-0.961,0.576-1.824,1.248-2.594,2.017c-0.768,0.768-1.424,1.627-1.971,2.576c-1.123,1.932-1.684,4.021-1.684,6.275
			c0,2.264,0.561,4.357,1.684,6.277c1.102,1.909,2.625,3.432,4.564,4.563c1.891,1.131,3.979,1.696,6.264,1.696
			c3.062,0,5.787-1.025,8.174-3.078v-4.692c-0.777,1.401-1.916,2.554-3.412,3.451c-1.477,0.868-3.064,1.301-4.762,1.301
			c-1.699,0-3.291-0.423-4.777-1.271c-1.486-0.867-2.645-2.029-3.473-3.481c-0.646-1.108-1.047-2.297-1.201-3.562h8.238v-2.82
			h-8.172c0.189-1.11,0.574-2.152,1.166-3.126C907.833,618.672,908.991,617.5,910.487,616.594z"/>
	</g>
	
		<rect x="860.018" y="523.237" transform="matrix(0.9253 -0.3791 0.3791 0.9253 -142.0941 374.2097)" fill="#FFFFFF" width="38.225" height="49.334"/>
	<rect x="858.743" y="530.713" transform="matrix(0.9253 -0.3791 0.3791 0.9253 -136.891 370.6939)" width="28.06" height="4.42"/>
	<rect x="862.959" y="541.006" transform="matrix(0.9253 -0.3791 0.3791 0.9253 -140.4786 373.0612)" width="28.06" height="4.42"/>
	
		<rect x="867.221" y="550.865" transform="matrix(0.9253 -0.3792 0.3792 0.9253 -143.9037 375.4398)" width="28.058" height="4.422"/>
	<path fill="#FFFFFF" d="M921.979,570.113c-5.229-1.289-27.682,5.953-28.748,6.359c-1.07,0.406-0.352,2.293-0.352,2.293l1.055,3.672
		l1.053,3.668c0,0,0.389,1.981,1.514,1.762c1.121-0.222,23.998-5.99,27.744-9.857c0,0,2.832-1.287,1.822-4.798
		C925.062,569.703,921.979,570.113,921.979,570.113z"/>
	<path d="M923.112,574.061c0.191,0.667,0.023,1.3-0.371,1.416l-19.805,5.683c-0.398,0.113-0.873-0.335-1.064-1l0,0
		c-0.193-0.668-0.023-1.3,0.373-1.413l19.803-5.686C922.444,572.945,922.921,573.393,923.112,574.061L923.112,574.061z"/>
	<polygon points="894.563,576.028 897.866,587.538 899.155,587.205 895.81,575.552 	"/>
	<path fill="#FFFFFF" d="M896.313,587.221l-28.904,8.298c0,0-10.893,3.128-13.049-1.695l-0.047-0.163
		c-0.73-5.236,10.164-8.36,10.164-8.36l28.906-8.296"/>
	<path fill="#FFFFFF" d="M850.581,579.971c0.316-12.345-2.725-36.631-4.043-41.142c-2.098-7.168-6.041-11.659-11.422-13.019v-0.005
		l-0.381-0.085v0.006c-5.451-1.049-10.926,1.352-15.861,6.957c-3.086,3.508-5.045,7.217-5.613,8.355
		c0,0-10.578,15.837-15.533,27.189c-4.953,11.354-2.15,15.382,0.197,17.072c2.35,1.689,22.336,6.324,22.336,6.324
		s20.068,4.264,22.912,3.727C846.017,594.815,850.263,592.354,850.581,579.971z M828.212,555.834
		c-12.932-2.873-11.463-12.627-11.332-13.367c1.43-2.759,8.199-14.734,17.205-12.92c8.848,2.15,9.971,15.721,10.113,18.935
		l-0.049-0.005C844.149,548.477,841.655,558.82,828.212,555.834z"/>
</g>
<g>
	<rect x="65.453" y="500.705" width="154.644" height="154.643"/>
	<g>
		<path fill="#FFFFFF" d="M93.018,602.384h2.821v21.999c-0.831-0.323-1.651-0.707-2.464-1.145c-0.811-0.439-1.62-0.947-2.428-1.525
			c-0.807-0.578-1.521-1.152-2.14-1.727c-1.069-0.953-2.043-2.047-2.923-3.28c-0.877-1.231-1.646-2.581-2.305-4.052
			c-1.347-2.961-2.02-6.383-2.02-10.271h2.875c0,1.978,0.221,3.874,0.665,5.688c0.444,1.812,1.062,3.445,1.853,4.896
			c0.725,1.377,1.64,2.66,2.747,3.852c1.039,1.08,2.146,1.957,3.319,2.637V602.384z"/>
		<path fill="#FFFFFF" d="M120.722,602.384c2.501,0.392,4.798,1.361,6.89,2.909c2.1,1.557,3.752,3.312,4.956,5.271v-8.18h2.821
			v21.999h-2.821v-5.098c0-1.432-0.292-2.86-0.874-4.281c-0.296-0.698-0.639-1.371-1.023-2.021c-0.388-0.647-0.82-1.269-1.297-1.86
			c-0.936-1.156-1.924-2.131-2.965-2.923c-1.049-0.83-1.986-1.369-2.808-1.617v17.801h-2.878V602.384z"/>
		<path fill="#FFFFFF" d="M139.062,607.023l-1.028-2.904c2.272-1.721,4.716-2.58,7.333-2.58c1.326,0,2.654,0.226,3.98,0.674
			c1.262,0.43,2.378,1.066,3.352,1.906l-1.087,2.904c-1.644-1.354-3.248-2.199-4.813-2.534v19.894h-2.878v-19.894
			c-0.81,0.164-1.64,0.46-2.486,0.889C140.559,605.836,139.768,606.387,139.062,607.023z"/>
		<path fill="#FFFFFF" d="M155.345,602.384h2.878v16.39c0,0.99,0.367,1.841,1.102,2.547c0.752,0.705,1.605,1.059,2.558,1.059
			c0.973,0,1.839-0.354,2.601-1.059c0.745-0.717,1.116-1.564,1.116-2.547v-16.39h2.793v16.399c0,1.137-0.291,2.203-0.873,3.201
			c-0.583,0.999-1.375,1.788-2.377,2.371c-1.022,0.582-2.106,0.873-3.252,0.873c-1.775,0-3.303-0.654-4.583-1.961
			c-1.308-1.281-1.961-2.774-1.961-4.484V602.384z"/>
		<path fill="#FFFFFF" d="M174.145,615.061c1.336-0.114,2.501-0.635,3.496-1.562c0.955-0.886,1.431-1.972,1.431-3.251
			c0-0.878-0.233-1.68-0.702-2.405c-0.477-0.696-1.122-1.275-1.935-1.733c-0.79-0.429-1.679-0.644-2.663-0.644v18.918h-2.878
			v-21.999c1.127,0,2.086,0.038,2.878,0.116c1.433,0.086,2.789,0.477,4.067,1.174c1.232,0.668,2.22,1.589,2.966,2.766
			c0.725,1.165,1.088,2.434,1.088,3.808c0,1.396-0.372,2.676-1.118,3.839c-0.773,1.204-1.78,2.135-3.021,2.793
			c0.735,1.316,1.566,2.44,2.492,3.367c0.973,1,1.943,1.718,2.908,2.146v2.836c-1.643-0.554-3.052-1.342-4.227-2.363
			c-1.192-1.021-2.161-2.178-2.906-3.467C175.249,618.034,174.624,616.588,174.145,615.061z"/>
		<path fill="#FFFFFF" d="M105.903,605.592c1.403-0.801,2.897-1.201,4.482-1.201c1.605,0,3.103,0.408,4.499,1.229
			c1.413,0.849,2.486,1.936,3.222,3.26v-4.374c-2.244-1.978-4.817-2.966-7.721-2.966c-2.139,0-4.11,0.527-5.915,1.584
			c-0.906,0.545-1.722,1.18-2.449,1.904c-0.726,0.725-1.346,1.537-1.861,2.434c-1.061,1.822-1.591,3.799-1.591,5.928
			c0,2.139,0.53,4.113,1.591,5.928c1.039,1.803,2.477,3.24,4.31,4.309c1.787,1.07,3.757,1.604,5.915,1.604
			c2.894,0,5.467-0.969,7.721-2.908v-4.432c-0.736,1.325-1.81,2.414-3.222,3.26c-1.396,0.82-2.893,1.23-4.499,1.23
			c-1.604,0-3.107-0.4-4.51-1.202c-1.405-0.818-2.497-1.915-3.281-3.288c-0.621-1.062-0.999-2.201-1.139-3.42h8.301v-2.664h-8.225
			c0.183-1.027,0.543-1.993,1.091-2.896C103.396,607.555,104.491,606.449,105.903,605.592z"/>
		<path fill="#FFFFFF" d="M192.747,605.592c1.403-0.801,2.897-1.201,4.481-1.201c1.604,0,3.104,0.408,4.498,1.229
			c1.413,0.849,2.487,1.936,3.222,3.26v-4.374c-2.244-1.978-4.817-2.966-7.72-2.966c-2.139,0-4.11,0.527-5.915,1.584
			c-0.906,0.545-1.724,1.18-2.45,1.904c-0.726,0.725-1.347,1.537-1.862,2.434c-1.06,1.822-1.588,3.799-1.588,5.928
			c0,2.139,0.528,4.113,1.588,5.928c1.041,1.803,2.479,3.24,4.312,4.309c1.785,1.07,3.758,1.604,5.915,1.604
			c2.895,0,5.467-0.969,7.72-2.908v-4.432c-0.735,1.325-1.81,2.414-3.222,3.26c-1.395,0.82-2.894,1.23-4.498,1.23
			c-1.604,0-3.107-0.4-4.511-1.202c-1.404-0.818-2.498-1.915-3.281-3.288c-0.611-1.045-0.988-2.167-1.133-3.362h7.779v-2.665h-7.718
			c0.178-1.048,0.543-2.032,1.102-2.953C190.239,607.555,191.333,606.449,192.747,605.592z"/>
	</g>
	
		<rect x="145.082" y="517.423" transform="matrix(0.9254 -0.3791 0.3791 0.9254 -192.804 102.2002)" fill="#FFFFFF" width="36.101" height="46.592"/>
	
		<rect x="143.877" y="524.482" transform="matrix(0.9253 -0.3792 0.3792 0.9253 -187.9275 98.8997)" width="26.502" height="4.175"/>
	<rect x="147.86" y="534.206" transform="matrix(0.9254 -0.3791 0.3791 0.9254 -191.2752 101.1023)" width="26.5" height="4.172"/>
	
		<rect x="151.884" y="543.516" transform="matrix(0.9253 -0.3792 0.3792 0.9253 -194.5475 103.3569)" width="26.499" height="4.175"/>
	<path fill="#FFFFFF" d="M203.601,561.695c-4.939-1.219-26.145,5.621-27.152,6.006c-1.01,0.383-0.333,2.164-0.333,2.164l0.997,3.468
		l0.996,3.466c0,0,0.367,1.871,1.429,1.662c1.057-0.211,22.663-5.658,26.202-9.309c0,0,2.675-1.217,1.722-4.531
		C206.511,561.308,203.601,561.695,203.601,561.695z"/>
	<path d="M204.669,565.42c0.181,0.631,0.023,1.229-0.35,1.339l-18.705,5.367c-0.376,0.106-0.824-0.315-1.004-0.944l0,0
		c-0.184-0.631-0.024-1.227,0.351-1.335l18.703-5.37C204.041,564.369,204.49,564.791,204.669,565.42L204.669,565.42z"/>
	<polygon points="177.708,567.279 180.827,578.15 182.044,577.836 178.883,566.83 	"/>
	<path fill="#FFFFFF" d="M179.36,577.852l-27.299,7.836c0,0-10.289,2.953-12.324-1.602l-0.043-0.154
		c-0.691-4.944,9.597-7.895,9.597-7.895l27.303-7.836"/>
	<path fill="#FFFFFF" d="M136.167,571.003c0.299-11.659-2.573-34.595-3.818-38.854c-1.979-6.771-5.705-11.013-10.788-12.295
		l0.001-0.006l-0.359-0.08l-0.002,0.006c-5.146-0.99-10.318,1.276-14.979,6.57c-2.915,3.312-4.765,6.816-5.303,7.891
		c0,0-9.99,14.957-14.668,25.68c-4.68,10.723-2.034,14.527,0.186,16.123c2.217,1.596,21.094,5.973,21.094,5.973
		s18.954,4.027,21.639,3.521C131.858,585.024,135.866,582.697,136.167,571.003z M115.042,548.208
		c-12.213-2.712-10.827-11.926-10.703-12.624c1.35-2.605,7.745-13.915,16.249-12.203c8.356,2.031,9.417,14.848,9.553,17.883
		l-0.048-0.004C130.093,541.26,127.739,551.029,115.042,548.208z"/>
	<rect x="71.744" y="633.708" fill="none" width="142.642" height="11.095"/>
	
		<text transform="matrix(1 0 0 1 86.1743 642.8613)" fill="#FFFFFF" font-family="'Futura-Medium'" font-size="11.0837" letter-spacing="5">SINCE 1972</text>
</g>
<g>
	<g>
		<path d="M796.496,827.711h3.319v25.882c-0.978-0.381-1.942-0.831-2.898-1.348c-0.955-0.516-1.906-1.114-2.855-1.795
			c-0.949-0.679-1.79-1.355-2.52-2.029c-1.258-1.123-2.404-2.41-3.437-3.859c-1.034-1.449-1.938-3.038-2.713-4.768
			c-1.584-3.483-2.376-7.51-2.376-12.083h3.382c0,2.326,0.261,4.556,0.782,6.69c0.521,2.134,1.249,4.055,2.18,5.762
			c0.853,1.619,1.93,3.13,3.232,4.533c1.221,1.27,2.522,2.303,3.903,3.101V827.711z"/>
		<path d="M829.089,827.711c2.943,0.461,5.646,1.603,8.106,3.421c2.471,1.832,4.414,3.898,5.83,6.201v-9.622h3.319v25.882h-3.319
			v-5.998c0-1.686-0.345-3.365-1.029-5.038c-0.348-0.819-0.749-1.612-1.204-2.376s-0.963-1.494-1.525-2.189
			c-1.1-1.36-2.263-2.506-3.486-3.439c-1.236-0.977-2.337-1.611-3.304-1.902v20.943h-3.388V827.711z"/>
		<path d="M850.667,833.171l-1.211-3.42c2.675-2.021,5.549-3.033,8.628-3.033c1.56,0,3.122,0.264,4.683,0.792
			c1.482,0.505,2.798,1.253,3.943,2.241l-1.279,3.42c-1.934-1.595-3.821-2.589-5.663-2.982v23.404h-3.386v-23.404
			c-0.953,0.191-1.928,0.54-2.925,1.045C852.427,831.772,851.496,832.419,850.667,833.171z"/>
		<path d="M869.821,827.711h3.387v19.28c0,1.167,0.432,2.166,1.294,2.998c0.888,0.83,1.891,1.244,3.011,1.244
			c1.145,0,2.164-0.414,3.061-1.244c0.876-0.842,1.312-1.842,1.312-2.998v-19.28h3.285v19.294c0,1.337-0.342,2.592-1.027,3.766
			c-0.685,1.174-1.617,2.104-2.796,2.789c-1.202,0.686-2.478,1.027-3.826,1.027c-2.089,0-3.887-0.769-5.393-2.308
			c-1.539-1.507-2.308-3.263-2.308-5.274V827.711z"/>
		<path d="M891.939,842.624c1.573-0.135,2.943-0.746,4.113-1.837c1.122-1.044,1.684-2.319,1.684-3.825
			c0-1.033-0.274-1.977-0.826-2.83c-0.562-0.82-1.319-1.5-2.274-2.039c-0.932-0.506-1.978-0.758-3.134-0.758v22.258h-3.386v-25.882
			c1.325,0,2.453,0.046,3.386,0.136c1.687,0.101,3.28,0.562,4.785,1.382c1.449,0.786,2.612,1.87,3.488,3.253
			c0.854,1.37,1.28,2.864,1.28,4.48c0,1.641-0.438,3.146-1.313,4.517c-0.911,1.415-2.095,2.511-3.555,3.285
			c0.864,1.55,1.842,2.871,2.93,3.96c1.147,1.18,2.288,2.022,3.422,2.527v3.336c-1.932-0.65-3.59-1.578-4.971-2.779
			c-1.405-1.202-2.545-2.561-3.42-4.078C893.239,846.124,892.502,844.422,891.939,842.624z"/>
		<path d="M811.655,831.483c1.651-0.941,3.409-1.412,5.274-1.412c1.887,0,3.651,0.481,5.291,1.447
			c1.663,0.998,2.927,2.275,3.792,3.834v-5.146c-2.641-2.326-5.667-3.488-9.083-3.488c-2.516,0-4.836,0.621-6.958,1.863
			c-1.068,0.641-2.029,1.387-2.882,2.239c-0.854,0.854-1.584,1.809-2.19,2.864c-1.248,2.145-1.87,4.469-1.87,6.973
			c0,2.516,0.622,4.84,1.87,6.974c1.224,2.122,2.914,3.813,5.072,5.07c2.1,1.258,4.419,1.886,6.958,1.886
			c3.403,0,6.431-1.141,9.083-3.42v-5.215c-0.865,1.559-2.129,2.838-3.792,3.836c-1.64,0.965-3.404,1.445-5.291,1.445
			c-1.888,0-3.657-0.47-5.308-1.412c-1.65-0.965-2.938-2.255-3.858-3.869c-0.729-1.25-1.175-2.592-1.34-4.023h9.766v-3.134h-9.676
			c0.215-1.208,0.639-2.346,1.283-3.408C808.706,833.794,809.993,832.493,811.655,831.483z"/>
		<path d="M913.823,831.483c1.651-0.941,3.41-1.412,5.273-1.412c1.888,0,3.65,0.481,5.291,1.447
			c1.663,0.998,2.927,2.275,3.791,3.834v-5.146c-2.639-2.326-5.667-3.488-9.082-3.488c-2.516,0-4.835,0.621-6.959,1.863
			c-1.066,0.641-2.027,1.387-2.881,2.239c-0.854,0.854-1.584,1.809-2.19,2.864c-1.247,2.145-1.87,4.469-1.87,6.973
			c0,2.516,0.623,4.84,1.87,6.974c1.224,2.122,2.915,3.813,5.071,5.07c2.102,1.258,4.42,1.886,6.959,1.886
			c3.404,0,6.432-1.141,9.082-3.42v-5.215c-0.864,1.559-2.128,2.838-3.791,3.836c-1.641,0.965-3.403,1.445-5.291,1.445
			c-1.887,0-3.656-0.47-5.307-1.412c-1.652-0.965-2.938-2.255-3.859-3.869c-0.719-1.23-1.163-2.551-1.334-3.957h9.153v-3.135h-9.081
			c0.211-1.232,0.639-2.392,1.297-3.474C910.875,833.794,912.162,832.493,913.823,831.483z"/>
	</g>
	
		<rect x="857.747" y="727.756" transform="matrix(0.9253 -0.3791 0.3791 0.9253 -220.6903 389.648)" width="42.473" height="54.816"/>
	
		<rect x="856.33" y="736.062" transform="matrix(0.9253 -0.3792 0.3792 0.9253 -214.911 385.7407)" fill="#FFFFFF" width="31.178" height="4.911"/>
	
		<rect x="861.017" y="747.5" transform="matrix(0.9254 -0.3791 0.3791 0.9254 -218.8706 388.289)" fill="#FFFFFF" width="31.176" height="4.91"/>
	
		<rect x="865.75" y="758.454" transform="matrix(0.9253 -0.3792 0.3792 0.9253 -222.7087 391.0164)" fill="#FFFFFF" width="31.178" height="4.913"/>
	<path d="M926.593,779.841c-5.809-1.432-30.758,6.615-31.941,7.066c-1.188,0.45-0.391,2.547-0.391,2.547l1.171,4.079l1.172,4.077
		c0,0,0.431,2.201,1.681,1.957c1.244-0.247,26.662-6.656,30.826-10.953c0,0,3.146-1.431,2.026-5.331
		C930.017,779.386,926.593,779.841,926.593,779.841z"/>
	<path fill="#FFFFFF" d="M927.852,784.226c0.213,0.742,0.027,1.445-0.411,1.574l-22.006,6.314c-0.442,0.125-0.971-0.373-1.182-1.112
		l0,0c-0.217-0.742-0.028-1.442,0.413-1.57l22.003-6.317C927.109,782.987,927.641,783.485,927.852,784.226L927.852,784.226z"/>
	<polygon fill="#FFFFFF" points="896.132,786.412 899.801,799.201 901.233,798.831 897.514,785.884 	"/>
	<path d="M898.077,798.849l-32.117,9.22c0,0-12.104,3.476-14.5-1.884l-0.05-0.181c-0.814-5.818,11.29-9.29,11.29-9.29l32.121-9.218"
		/>
	<rect x="741.099" y="866.354" fill="none" width="233.969" height="13.051"/>
	<text transform="matrix(1 0 0 1 791.1562 877.1211)" font-family="'Futura-Medium'" font-size="13.0396" letter-spacing="6">SINCE 1972</text>
	<path d="M847.261,790.792c0.352-13.715-3.027-40.699-4.492-45.712c-2.328-7.964-6.712-12.955-12.69-14.464l0.001-0.006
		l-0.424-0.095l-0.002,0.006c-6.054-1.164-12.139,1.502-17.622,7.731c-3.429,3.896-5.605,8.018-6.237,9.283
		c0,0-11.754,17.596-17.257,30.211c-5.506,12.615-2.393,17.09,0.219,18.968c2.608,1.878,24.815,7.026,24.815,7.026
		s22.299,4.738,25.459,4.143S846.906,804.552,847.261,790.792z M822.407,763.975c-14.368-3.192-12.736-14.03-12.592-14.853
		c1.588-3.064,9.111-16.371,19.117-14.355c9.832,2.391,11.079,17.467,11.238,21.037l-0.057-0.004
		C840.114,755.8,837.345,767.292,822.407,763.975z"/>
</g>
<g>
	<g>
		<path d="M78.917,723.396h3.32v25.881c-0.978-0.38-1.943-0.831-2.898-1.347c-0.955-0.517-1.907-1.115-2.857-1.795
			c-0.948-0.68-1.789-1.355-2.52-2.029c-1.256-1.124-2.402-2.41-3.436-3.859c-1.034-1.449-1.938-3.038-2.713-4.768
			c-1.584-3.483-2.376-7.51-2.376-12.083h3.383c0,2.326,0.261,4.556,0.781,6.691c0.522,2.133,1.249,4.054,2.18,5.761
			c0.854,1.619,1.931,3.13,3.231,4.533c1.223,1.27,2.524,2.303,3.904,3.1V723.396z"/>
		<path d="M111.51,723.396c2.943,0.461,5.645,1.603,8.105,3.421c2.471,1.831,4.414,3.898,5.83,6.201v-9.622h3.319v25.881h-3.319
			v-5.997c0-1.686-0.344-3.364-1.029-5.039c-0.347-0.818-0.749-1.611-1.203-2.376c-0.455-0.763-0.965-1.493-1.525-2.188
			c-1.102-1.36-2.264-2.507-3.487-3.438c-1.235-0.979-2.337-1.612-3.303-1.903v20.942h-3.388V723.396z"/>
		<path d="M133.086,728.855l-1.209-3.42c2.674-2.021,5.55-3.033,8.627-3.033c1.56,0,3.123,0.263,4.683,0.792
			c1.483,0.505,2.798,1.253,3.944,2.241l-1.281,3.42c-1.933-1.596-3.819-2.59-5.661-2.982v23.403h-3.388v-23.403
			c-0.951,0.191-1.927,0.539-2.924,1.045C134.846,727.457,133.917,728.104,133.086,728.855z"/>
		<path d="M152.242,723.396h3.388v19.28c0,1.167,0.431,2.166,1.294,2.996c0.886,0.831,1.89,1.247,3.012,1.247
			c1.144,0,2.163-0.416,3.06-1.247c0.875-0.841,1.312-1.84,1.312-2.996v-19.28h3.284v19.294c0,1.336-0.342,2.592-1.026,3.766
			c-0.686,1.174-1.617,2.104-2.797,2.788c-1.201,0.686-2.478,1.028-3.826,1.028c-2.088,0-3.886-0.77-5.392-2.309
			c-1.539-1.505-2.309-3.263-2.309-5.273V723.396z"/>
		<path d="M174.36,738.309c1.573-0.135,2.943-0.746,4.113-1.838c1.123-1.043,1.684-2.318,1.684-3.824
			c0-1.033-0.274-1.977-0.825-2.83c-0.562-0.82-1.319-1.501-2.275-2.039c-0.932-0.506-1.977-0.759-3.133-0.759v22.258h-3.388
			v-25.881c1.326,0,2.455,0.045,3.388,0.136c1.685,0.101,3.279,0.562,4.784,1.381c1.449,0.787,2.613,1.871,3.488,3.253
			c0.854,1.37,1.281,2.864,1.281,4.481c0,1.641-0.438,3.146-1.313,4.516c-0.91,1.416-2.097,2.512-3.556,3.285
			c0.864,1.551,1.842,2.872,2.93,3.96c1.146,1.18,2.288,2.024,3.422,2.528v3.336c-1.932-0.652-3.59-1.578-4.971-2.779
			c-1.404-1.203-2.545-2.561-3.42-4.078C175.66,741.808,174.923,740.105,174.36,738.309z"/>
		<path d="M94.077,727.169c1.651-0.942,3.408-1.413,5.273-1.413c1.887,0,3.651,0.481,5.292,1.446
			c1.662,0.998,2.926,2.276,3.791,3.835v-5.146c-2.64-2.326-5.667-3.488-9.083-3.488c-2.516,0-4.836,0.621-6.959,1.862
			c-1.067,0.642-2.027,1.388-2.881,2.24c-0.854,0.854-1.584,1.808-2.191,2.863c-1.246,2.146-1.869,4.469-1.869,6.974
			c0,2.516,0.623,4.84,1.869,6.973c1.225,2.122,2.915,3.814,5.072,5.071c2.102,1.257,4.42,1.886,6.959,1.886
			c3.404,0,6.432-1.141,9.083-3.42v-5.215c-0.865,1.559-2.129,2.838-3.791,3.836c-1.641,0.964-3.405,1.446-5.292,1.446
			s-3.656-0.471-5.307-1.413c-1.652-0.965-2.939-2.255-3.859-3.869c-0.73-1.25-1.175-2.592-1.34-4.024h9.766v-3.134h-9.676
			c0.215-1.207,0.639-2.345,1.283-3.407C91.128,729.479,92.414,728.178,94.077,727.169z"/>
		<path d="M196.245,727.169c1.65-0.942,3.409-1.413,5.273-1.413c1.887,0,3.65,0.481,5.291,1.446
			c1.662,0.998,2.926,2.276,3.791,3.835v-5.146c-2.639-2.326-5.668-3.488-9.082-3.488c-2.518,0-4.836,0.621-6.959,1.862
			c-1.067,0.642-2.027,1.388-2.882,2.24c-0.854,0.854-1.584,1.808-2.189,2.863c-1.247,2.146-1.871,4.469-1.871,6.974
			c0,2.516,0.624,4.84,1.871,6.973c1.223,2.122,2.914,3.814,5.071,5.071c2.101,1.257,4.42,1.886,6.959,1.886
			c3.404,0,6.431-1.141,9.082-3.42v-5.215c-0.865,1.559-2.129,2.838-3.791,3.836c-1.641,0.964-3.404,1.446-5.291,1.446
			c-1.888,0-3.656-0.471-5.307-1.413c-1.652-0.965-2.938-2.255-3.859-3.869c-0.72-1.23-1.163-2.551-1.335-3.957h9.153v-3.134h-9.08
			c0.211-1.234,0.638-2.394,1.295-3.475C193.295,729.479,194.583,728.178,196.245,727.169z"/>
	</g>
	<path d="M202.736,793.615l-1.558-10.793l-12.958,1.866l0.808,5.589l-1.359,1.469l0.381,0.486c-0.305,0.359-0.949,0.989-2.28,1.891
		c-1.109,0.752-1.606,0.746-1.969,0.632c-1.03-0.317-1.84-2.333-2.105-2.993c-0.534-1.33-0.772-5.885-0.67-8.191
		c0.12-2.663-1.29-9.428-6.243-12.17c-1.323-0.73-3.075-1.099-5.213-1.099c-4.736,0-11.622,1.964-14.485,5.14
		c-2.747,3.05-2.323,6.246-1.827,7.889l-4.706,1.373l-3.15,8.709l5.56,19.061c0,0,0.63,3.013,4.54,1.873
		c3.915-1.145,8.472-2.473,8.472-2.473s4.558-1.334,8.468-2.473c3.913-1.144,2.825-4.02,2.825-4.02l-5.562-19.059l-7.343-5.65
		l-5.246,1.533c-0.244-0.713-0.56-2.375,0.966-4.066c1.763-1.957,7.365-3.806,11.525-3.806c1.387,0,2.532,0.21,3.226,0.595
		c3.335,1.844,4.229,7.19,4.171,8.467c-0.081,1.801,0,7.482,0.955,9.862c0.535,1.337,1.786,4.472,4.672,5.356
		c0.473,0.142,0.969,0.213,1.47,0.213c0.526,0,1.071-0.081,1.611-0.236c0.762-0.222,1.545-0.604,2.323-1.134
		c1.08-0.731,1.939-1.424,2.6-2.092L202.736,793.615z"/>
	<rect x="77.4" y="770.618" transform="matrix(0.9813 0.1926 -0.1926 0.9813 157.1218 -5.034)" width="54.099" height="69.82"/>
	
		<rect x="88.746" y="779.744" transform="matrix(0.9813 0.1926 -0.1926 0.9813 152.7888 -6.2609)" fill="#FFFFFF" width="39.713" height="6.257"/>
	
		<rect x="85.714" y="795.192" transform="matrix(0.9813 0.1926 -0.1926 0.9813 155.757 -5.3845)" fill="#FFFFFF" width="39.711" height="6.256"/>
	
		<rect x="83.07" y="810.161" transform="matrix(0.9813 0.1925 -0.1925 0.9813 158.5243 -4.5995)" fill="#FFFFFF" width="39.712" height="6.258"/>
	<path d="M202.784,804.516c-5.984,0.084-28.083,14.184-29.115,14.92c-1.035,0.736,0.268,2.562,0.268,2.562l2.166,3.651l2.164,3.646
		c0,0,0.975,2.021,2.122,1.468c1.141-0.555,24.109-13.188,27.052-18.396c0,0,2.681-2.182,0.609-5.671
		C205.979,803.209,202.784,804.516,202.784,804.516z"/>
	<path fill="#FFFFFF" d="M205.111,808.439c0.393,0.662,0.392,1.391,0,1.625l-19.692,11.68c-0.396,0.234-1.031-0.115-1.424-0.777l0,0
		c-0.396-0.662-0.393-1.389,0.001-1.624l19.69-11.681C204.08,807.428,204.717,807.775,205.111,808.439L205.111,808.439z"/>
	<polygon fill="#FFFFFF" points="174.975,818.582 181.762,830.025 183.055,829.307 176.18,817.721 	"/>
	<path d="M180.005,830.121l-28.738,17.049c0,0-10.831,6.424-14.503,1.846l-0.096-0.163c-2.26-5.423,8.572-11.844,8.572-11.844
		l28.741-17.046"/>
	<rect x="24.067" y="867.779" fill="none" width="233.969" height="13.051"/>
	<text transform="matrix(1 0 0 1 74.1216 878.5459)" font-family="'Futura-Medium'" font-size="13.0396" letter-spacing="6">SINCE 1972</text>
</g>
<g>
	<g>
		<path d="M408.22,760.486h5.154v40.182c-1.52-0.591-3.019-1.291-4.501-2.09c-1.482-0.805-2.96-1.731-4.434-2.788
			c-1.475-1.053-2.778-2.104-3.912-3.151c-1.952-1.743-3.73-3.741-5.335-5.992c-1.604-2.249-3.008-4.716-4.214-7.401
			c-2.457-5.407-3.688-11.658-3.688-18.759h5.253c0,3.61,0.403,7.076,1.214,10.389c0.81,3.31,1.938,6.296,3.383,8.946
			c1.326,2.509,2.995,4.858,5.017,7.034c1.899,1.972,3.919,3.576,6.062,4.817V760.486z"/>
		<path d="M458.821,760.486c4.567,0.718,8.764,2.488,12.584,5.312c3.836,2.844,6.852,6.052,9.051,9.627v-14.938h5.153v40.182h-5.153
			v-9.313c0-2.611-0.534-5.224-1.597-7.817c-0.542-1.275-1.163-2.504-1.87-3.69c-0.705-1.187-1.496-2.317-2.367-3.4
			c-1.709-2.111-3.515-3.89-5.415-5.338c-1.918-1.518-3.628-2.503-5.125-2.954v32.514h-5.261V760.486z"/>
		<path d="M492.319,768.964l-1.878-5.308c4.148-3.141,8.613-4.711,13.393-4.711c2.425,0,4.848,0.409,7.271,1.23
			c2.304,0.781,4.345,1.945,6.124,3.48l-1.989,5.308c-3.002-2.477-5.932-4.019-8.789-4.63v36.334h-5.26v-36.334
			c-1.478,0.296-2.991,0.84-4.539,1.621C495.051,766.792,493.606,767.796,492.319,768.964z"/>
		<path d="M522.058,760.486h5.258v29.935c0,1.812,0.669,3.363,2.011,4.653c1.376,1.289,2.934,1.933,4.674,1.933
			c1.775,0,3.36-0.644,4.75-1.933c1.36-1.307,2.038-2.858,2.038-4.653v-29.935h5.102v29.955c0,2.075-0.531,4.023-1.597,5.846
			c-1.062,1.824-2.511,3.27-4.341,4.33c-1.865,1.064-3.846,1.594-5.939,1.594c-3.243,0-6.033-1.194-8.373-3.58
			c-2.388-2.342-3.582-5.07-3.582-8.189V760.486z"/>
		<path d="M556.396,783.64c2.444-0.208,4.571-1.159,6.387-2.851c1.741-1.62,2.614-3.603,2.614-5.94c0-1.604-0.428-3.067-1.281-4.394
			c-0.872-1.271-2.049-2.328-3.533-3.166c-1.445-0.781-3.069-1.176-4.865-1.176v34.555h-5.256v-40.182
			c2.057,0,3.809,0.07,5.256,0.211c2.617,0.157,5.093,0.873,7.431,2.146c2.249,1.22,4.055,2.903,5.414,5.05
			c1.325,2.125,1.989,4.446,1.989,6.955c0,2.547-0.682,4.888-2.04,7.013c-1.414,2.197-3.253,3.896-5.52,5.098
			c1.341,2.409,2.86,4.46,4.55,6.15c1.78,1.833,3.551,3.142,5.312,3.924v5.178c-2.999-1.011-5.573-2.446-7.717-4.314
			c-2.183-1.864-3.95-3.978-5.311-6.331C558.414,789.072,557.27,786.43,556.396,783.64z"/>
		<path d="M431.756,766.347c2.563-1.465,5.292-2.193,8.188-2.193c2.929,0,5.667,0.744,8.214,2.245
			c2.581,1.548,4.543,3.533,5.888,5.952v-7.99c-4.102-3.611-8.8-5.415-14.102-5.415c-3.906,0-7.508,0.964-10.804,2.893
			c-1.658,0.991-3.149,2.153-4.475,3.477c-1.326,1.326-2.458,2.81-3.399,4.447c-1.937,3.328-2.904,6.937-2.904,10.824
			c0,3.906,0.968,7.514,2.904,10.827c1.9,3.294,4.523,5.92,7.874,7.87c3.259,1.954,6.862,2.928,10.804,2.928
			c5.283,0,9.983-1.769,14.102-5.306v-8.099c-1.345,2.419-3.307,4.407-5.888,5.955c-2.547,1.497-5.285,2.245-8.214,2.245
			s-5.677-0.73-8.24-2.191c-2.563-1.499-4.562-3.503-5.989-6.009c-1.134-1.941-1.826-4.024-2.082-6.248h15.162v-4.862h-15.022
			c0.334-1.877,0.993-3.642,1.993-5.292C427.178,769.932,429.174,767.913,431.756,766.347z"/>
		<path d="M590.373,766.347c2.562-1.465,5.291-2.193,8.184-2.193c2.93,0,5.669,0.744,8.217,2.245
			c2.581,1.548,4.544,3.533,5.886,5.952v-7.99c-4.099-3.611-8.799-5.415-14.103-5.415c-3.904,0-7.505,0.964-10.803,2.893
			c-1.655,0.991-3.147,2.153-4.473,3.477c-1.325,1.326-2.459,2.81-3.4,4.447c-1.936,3.328-2.904,6.937-2.904,10.824
			c0,3.906,0.969,7.514,2.904,10.827c1.9,3.294,4.524,5.92,7.873,7.87c3.262,1.954,6.864,2.928,10.803,2.928
			c5.288,0,9.985-1.769,14.103-5.306v-8.099c-1.342,2.419-3.305,4.407-5.886,5.955c-2.548,1.497-5.287,2.245-8.217,2.245
			c-2.928,0-5.675-0.73-8.239-2.191c-2.563-1.499-4.562-3.503-5.989-6.009c-1.117-1.911-1.805-3.957-2.07-6.143h14.21v-4.866H582.37
			c0.324-1.915,0.99-3.717,2.011-5.394C585.794,769.932,587.791,767.913,590.373,766.347z"/>
	</g>
	<rect x="320.598" y="823.019" fill="none" width="363.233" height="20.264"/>
	<text transform="matrix(1 0 0 1 398.3037 839.7285)" font-family="'Futura-Medium'" font-size="20.244" letter-spacing="10">SINCE 1972</text>
</g>
<g>
	<path d="M920.402,1021.94c-2.469-12.636-11.056-36.664-13.417-40.957c-3.754-6.822-8.782-10.502-14.566-10.668v-0.006h-0.407v0.006
		c-5.785,0.166-10.814,3.846-14.569,10.668c-2.347,4.266-3.505,8.485-3.825,9.772c0,0-7.185,18.509-9.66,31.185
		c-2.475,12.676,1.287,16.143,4.06,17.33c2.772,1.189,24.161,1.386,24.161,1.386s21.391-0.196,24.163-1.386
		C919.114,1038.083,922.877,1034.616,920.402,1021.94z M906.761,1000.505c-0.444,2.625-0.444,2.625-0.444,2.625
		s-7.083-0.787-14.136-0.696l0,0h-0.003c-7.052-0.091-14.135,0.696-14.135,0.696s0,0-0.445-2.625
		c-0.444-2.623,0.027-9.113,0.027-9.113c0.828-3.131,5.014-16.85,14.589-17.041c9.491,0.189,13.703,13.745,14.575,16.984
		l-0.055,0.008c0,0,0,0.02-0.001,0.05l0.001-0.001C906.734,991.392,907.206,997.882,906.761,1000.505z"/>
	<path d="M851.189,1011.851c-0.573-10.211-2.179-20.19-5.607-28.566c-1.751-4.274-7.068-6.066-11.855-6.799
		c-0.114-1.415-0.57-3.701-2.225-5.486c-1.545-1.668-3.72-2.514-6.468-2.514c-2.747,0-4.923,0.846-6.468,2.514
		c-1.652,1.785-2.109,4.071-2.223,5.486c-4.789,0.732-10.105,2.524-11.855,6.799c-3.432,8.376-5.037,18.355-5.61,28.566
		c-0.573,10.21-3.098,27.533,8.375,28.107c0,0,14.225,0.803,17.781,0.688c3.558,0.115,17.781-0.688,17.781-0.688
		C854.287,1039.384,851.765,1022.061,851.189,1011.851z M819.852,976.108c0.141-0.865,0.477-1.955,1.254-2.787
		c0.866-0.924,2.189-1.395,3.929-1.395c1.741,0,3.063,0.471,3.929,1.395c0.777,0.832,1.113,1.922,1.256,2.787
		C827.236,975.911,822.832,975.911,819.852,976.108z"/>
	<path fill="#FFFFFF" d="M845.299,1006.341c-0.045-0.909-0.09-1.834-0.132-2.771c-0.235-5.203-3.278-9.074-8.801-11.199
		c-5.108-1.968-10.712-1.822-11.332-1.803c-0.623-0.02-6.224-0.163-11.332,1.803c-5.523,2.125-8.565,5.996-8.8,11.199
		c-0.043,0.938-0.088,1.862-0.133,2.771c-0.289,5.879-0.539,10.957,0.226,14.842c0.918,4.666,3.278,7.07,7.219,7.357
		c7.867,0.57,12.772,0.576,12.82,0.576c0.049,0,4.953-0.006,12.821-0.576c3.939-0.287,6.301-2.691,7.218-7.357
		C845.837,1017.298,845.588,1012.22,845.299,1006.341z M814.568,994.618c3.87-1.49,8.11-1.65,9.754-1.65
		c0.414,0,0.654,0.01,0.654,0.01l0.058,0.002l0.055-0.002c0,0,0.241-0.01,0.658-0.01c1.644,0,5.882,0.16,9.755,1.65
		c4.152,1.599,6.543,4.219,7.128,7.801h-35.192C808.023,998.837,810.415,996.217,814.568,994.618z M837.683,1026.136
		c-7.772,0.563-12.597,0.57-12.648,0.57c-0.05,0-4.867-0.005-12.647-0.57c-5.87-0.425-5.814-7.395-5.211-19.676
		c0.027-0.539,0.053-1.084,0.078-1.631h35.56c0.026,0.547,0.054,1.092,0.079,1.631
		C843.495,1018.741,843.553,1025.711,837.683,1026.136z"/>
	<g>
		<path d="M800.151,1059.772h3.319v25.883c-0.977-0.381-1.942-0.831-2.898-1.348c-0.954-0.518-1.906-1.115-2.856-1.796
			c-0.948-0.679-1.788-1.354-2.519-2.03c-1.258-1.122-2.404-2.409-3.437-3.857c-1.034-1.449-1.938-3.037-2.714-4.769
			c-1.584-3.481-2.375-7.509-2.375-12.083h3.382c0,2.327,0.261,4.558,0.782,6.691s1.248,4.055,2.18,5.763
			c0.853,1.618,1.93,3.129,3.23,4.532c1.224,1.269,2.525,2.302,3.905,3.101V1059.772z"/>
		<path d="M832.745,1059.772c2.942,0.462,5.646,1.603,8.105,3.423c2.47,1.829,4.414,3.896,5.829,6.201v-9.624H850v25.883h-3.32
			v-5.999c0-1.684-0.343-3.363-1.027-5.037c-0.35-0.819-0.75-1.612-1.205-2.375c-0.455-0.767-0.964-1.495-1.524-2.191
			c-1.102-1.358-2.264-2.506-3.487-3.438c-1.237-0.978-2.338-1.611-3.304-1.903v20.944h-3.387V1059.772z"/>
		<path d="M854.322,1065.234l-1.211-3.421c2.675-2.021,5.55-3.032,8.627-3.032c1.561,0,3.123,0.261,4.685,0.791
			c1.481,0.505,2.798,1.253,3.944,2.241l-1.281,3.421c-1.934-1.595-3.82-2.591-5.662-2.982v23.403h-3.389v-23.403
			c-0.952,0.189-1.927,0.539-2.923,1.045C856.081,1063.834,855.151,1064.48,854.322,1065.234z"/>
		<path d="M873.478,1059.772h3.388v19.281c0,1.167,0.43,2.166,1.293,2.996c0.887,0.833,1.89,1.246,3.012,1.246
			c1.143,0,2.163-0.413,3.061-1.246c0.874-0.841,1.312-1.84,1.312-2.996v-19.281h3.285v19.295c0,1.336-0.342,2.593-1.027,3.765
			c-0.685,1.175-1.618,2.105-2.797,2.789c-1.201,0.686-2.477,1.027-3.827,1.027c-2.087,0-3.885-0.768-5.391-2.308
			c-1.539-1.505-2.308-3.263-2.308-5.273V1059.772z"/>
		<path d="M895.596,1074.688c1.572-0.136,2.942-0.748,4.111-1.839c1.124-1.043,1.687-2.317,1.687-3.823
			c0-1.034-0.276-1.978-0.827-2.832c-0.562-0.819-1.319-1.5-2.274-2.039c-0.932-0.505-1.978-0.757-3.134-0.757v22.258h-3.387
			v-25.883c1.325,0,2.453,0.047,3.387,0.136c1.685,0.101,3.279,0.562,4.785,1.383c1.45,0.785,2.611,1.87,3.487,3.252
			c0.854,1.371,1.281,2.864,1.281,4.482c0,1.64-0.438,3.146-1.312,4.515c-0.911,1.416-2.097,2.512-3.558,3.285
			c0.866,1.552,1.843,2.871,2.932,3.961c1.146,1.18,2.288,2.022,3.421,2.527v3.335c-1.932-0.651-3.589-1.577-4.97-2.779
			c-1.404-1.201-2.545-2.561-3.42-4.078C896.895,1078.186,896.157,1076.484,895.596,1074.688z"/>
		<path d="M815.311,1063.546c1.652-0.941,3.409-1.412,5.274-1.412c1.888,0,3.651,0.481,5.292,1.446
			c1.662,0.999,2.925,2.277,3.79,3.834v-5.146c-2.64-2.325-5.667-3.486-9.082-3.486c-2.517,0-4.836,0.621-6.959,1.861
			c-1.066,0.641-2.028,1.388-2.882,2.239c-0.854,0.855-1.584,1.81-2.189,2.864c-1.247,2.146-1.871,4.47-1.871,6.974
			c0,2.516,0.624,4.841,1.871,6.973c1.224,2.123,2.914,3.812,5.071,5.071c2.101,1.259,4.42,1.885,6.959,1.885
			c3.404,0,6.431-1.138,9.082-3.419v-5.214c-0.865,1.557-2.128,2.837-3.79,3.836c-1.641,0.963-3.404,1.444-5.292,1.444
			s-3.656-0.471-5.308-1.412c-1.651-0.965-2.938-2.256-3.858-3.868c-0.73-1.252-1.175-2.593-1.34-4.024h9.766v-3.135h-9.676
			c0.214-1.208,0.64-2.345,1.283-3.408C812.362,1065.857,813.647,1064.556,815.311,1063.546z"/>
		<path d="M917.479,1063.546c1.649-0.941,3.409-1.412,5.274-1.412c1.887,0,3.649,0.481,5.29,1.446
			c1.663,0.999,2.927,2.277,3.791,3.834v-5.146c-2.638-2.325-5.667-3.486-9.081-3.486c-2.517,0-4.836,0.621-6.96,1.861
			c-1.067,0.641-2.027,1.388-2.882,2.239c-0.854,0.855-1.583,1.81-2.189,2.864c-1.248,2.146-1.87,4.47-1.87,6.974
			c0,2.516,0.622,4.841,1.87,6.973c1.223,2.123,2.915,3.812,5.071,5.071c2.101,1.259,4.42,1.885,6.96,1.885
			c3.403,0,6.431-1.138,9.081-3.419v-5.214c-0.864,1.557-2.128,2.837-3.791,3.836c-1.641,0.963-3.403,1.444-5.29,1.444
			c-1.889,0-3.658-0.471-5.309-1.412c-1.651-0.965-2.938-2.256-3.857-3.868c-0.721-1.232-1.164-2.552-1.335-3.958h9.152v-3.135
			h-9.08c0.21-1.233,0.638-2.394,1.295-3.475C914.529,1065.857,915.816,1064.556,917.479,1063.546z"/>
	</g>
	<path fill="#FFFFFF" d="M894.332,1026.884h-4.495c-4.062,0-7.368-3.023-7.368-6.741c0-3.717,3.306-6.741,7.368-6.741h4.495
		c4.062,0,7.367,3.024,7.367,6.741C901.699,1023.86,898.395,1026.884,894.332,1026.884z M889.837,1015.932
		c-2.669,0-4.839,1.89-4.839,4.211s2.17,4.212,4.839,4.212h4.495c2.668,0,4.838-1.891,4.838-4.212s-2.17-4.211-4.838-4.211H889.837z
		"/>
	<path fill="#FFFFFF" d="M918.265,1012.997l-0.468-1.598c0.293,2.29,0.406,7.272-3.094,11.486
		c-4.126,4.969-11.934,7.486-23.201,7.486c-11.184,0-18.807-2.477-22.664-7.361c-2.694-3.413-2.946-7.354-2.72-9.957l-0.104,0.348
		c0,0-1.409,5.382-1.669,6.576c0.509,1.486,1.264,2.999,2.407,4.451c4.362,5.552,12.688,8.365,24.749,8.365
		c12.122,0,20.618-2.84,25.254-8.445c1.507-1.824,2.428-3.742,2.989-5.576C919.278,1016.868,918.265,1012.997,918.265,1012.997z"/>
</g>
<g>
	<path d="M205.075,1005.74c-2.468-12.636-11.055-36.665-13.417-40.957c-3.753-6.823-8.782-10.503-14.566-10.668v-0.006h-0.407v0.006
		c-5.785,0.165-10.815,3.845-14.57,10.668c-2.346,4.266-3.504,8.484-3.823,9.772c0,0-7.186,18.509-9.662,31.185
		c-2.475,12.676,1.289,16.141,4.061,17.33c2.773,1.188,24.162,1.385,24.162,1.385s21.391-0.196,24.162-1.385
		C203.787,1021.881,207.55,1018.416,205.075,1005.74z M191.434,984.305c-0.444,2.623-0.444,2.623-0.444,2.623
		s-7.083-0.787-14.136-0.695l0,0h-0.002c-7.053-0.092-14.136,0.695-14.136,0.695s0,0-0.445-2.623s0.027-9.113,0.027-9.113
		c0.829-3.132,5.015-16.85,14.589-17.041c9.491,0.188,13.703,13.744,14.574,16.983l-0.053,0.007c0,0,0,0.021-0.003,0.051h0.003
		C191.408,975.191,191.879,981.682,191.434,984.305z"/>
	<path d="M135.863,995.65c-0.574-10.211-2.179-20.191-5.609-28.566c-1.75-4.275-7.068-6.067-11.854-6.801
		c-0.114-1.415-0.571-3.699-2.225-5.486c-1.544-1.668-3.72-2.512-6.468-2.512c-2.747,0-4.922,0.844-6.466,2.512
		c-1.655,1.787-2.111,4.071-2.227,5.486c-4.786,0.733-10.103,2.525-11.854,6.801c-3.43,8.375-5.037,18.355-5.609,28.566
		c-0.573,10.209-3.098,27.531,8.374,28.106c0,0,14.225,0.802,17.781,0.688c3.558,0.113,17.781-0.688,17.781-0.688
		C138.961,1023.182,136.438,1005.859,135.863,995.65z M104.523,959.908c0.143-0.866,0.477-1.957,1.255-2.787
		c0.866-0.926,2.189-1.395,3.929-1.395c1.74,0,3.063,0.469,3.928,1.395c0.779,0.83,1.113,1.921,1.257,2.787
		C111.909,959.709,107.505,959.709,104.523,959.908z"/>
	<g>
		<path d="M84.824,1043.572h3.32v25.883c-0.979-0.382-1.944-0.831-2.9-1.348c-0.954-0.518-1.905-1.115-2.854-1.796
			c-0.949-0.679-1.79-1.355-2.519-2.03c-1.259-1.122-2.404-2.409-3.438-3.859c-1.033-1.448-1.938-3.037-2.714-4.767
			c-1.583-3.483-2.376-7.509-2.376-12.083h3.384c0,2.327,0.26,4.556,0.781,6.691c0.522,2.134,1.249,4.055,2.179,5.762
			c0.855,1.617,1.931,3.13,3.232,4.533c1.223,1.269,2.523,2.302,3.904,3.1V1043.572z"/>
		<path d="M117.418,1043.572c2.942,0.462,5.646,1.602,8.105,3.421c2.472,1.831,4.414,3.899,5.83,6.202v-9.623h3.318v25.883h-3.318
			v-5.999c0-1.685-0.344-3.365-1.029-5.039c-0.348-0.819-0.749-1.61-1.203-2.375c-0.457-0.765-0.964-1.495-1.526-2.19
			c-1.101-1.359-2.263-2.505-3.486-3.438c-1.236-0.978-2.338-1.611-3.303-1.902v20.943h-3.388V1043.572z"/>
		<path d="M138.995,1049.032l-1.211-3.419c2.675-2.023,5.55-3.035,8.628-3.035c1.561,0,3.123,0.264,4.684,0.794
			c1.483,0.505,2.798,1.253,3.943,2.241l-1.28,3.419c-1.934-1.593-3.82-2.589-5.662-2.982v23.405h-3.388v-23.405
			c-0.952,0.191-1.928,0.54-2.924,1.046C140.755,1047.634,139.824,1048.28,138.995,1049.032z"/>
		<path d="M158.15,1043.572h3.387v19.281c0,1.167,0.431,2.166,1.295,2.996c0.886,0.831,1.888,1.246,3.01,1.246
			c1.146,0,2.165-0.415,3.061-1.246c0.875-0.841,1.312-1.84,1.312-2.996v-19.281h3.285v19.295c0,1.336-0.343,2.591-1.027,3.765
			c-0.685,1.175-1.618,2.104-2.796,2.789c-1.202,0.686-2.478,1.027-3.826,1.027c-2.089,0-3.887-0.768-5.392-2.308
			c-1.54-1.507-2.309-3.263-2.309-5.273V1043.572z"/>
		<path d="M180.269,1058.485c1.573-0.134,2.944-0.746,4.112-1.837c1.124-1.045,1.685-2.318,1.685-3.825
			c0-1.032-0.275-1.976-0.826-2.83c-0.561-0.819-1.319-1.5-2.274-2.038c-0.932-0.508-1.977-0.758-3.134-0.758v22.258h-3.386v-25.883
			c1.325,0,2.454,0.045,3.386,0.137c1.686,0.1,3.28,0.562,4.786,1.381c1.448,0.786,2.611,1.869,3.487,3.253
			c0.853,1.37,1.28,2.864,1.28,4.48c0,1.642-0.438,3.146-1.313,4.517c-0.911,1.416-2.095,2.51-3.555,3.285
			c0.863,1.55,1.842,2.871,2.931,3.959c1.146,1.182,2.287,2.023,3.42,2.529v3.335c-1.932-0.651-3.589-1.577-4.971-2.78
			c-1.403-1.2-2.544-2.562-3.419-4.077C181.567,1061.985,180.832,1060.284,180.269,1058.485z"/>
		<path d="M99.984,1047.346c1.652-0.943,3.41-1.412,5.275-1.412c1.885,0,3.649,0.481,5.29,1.446
			c1.662,0.999,2.926,2.274,3.791,3.834v-5.146c-2.64-2.328-5.667-3.49-9.081-3.49c-2.518,0-4.838,0.622-6.961,1.864
			c-1.066,0.641-2.027,1.388-2.881,2.239c-0.854,0.854-1.585,1.809-2.189,2.864c-1.248,2.145-1.871,4.47-1.871,6.974
			c0,2.514,0.623,4.839,1.871,6.973c1.223,2.123,2.913,3.812,5.07,5.071c2.102,1.257,4.42,1.885,6.961,1.885
			c3.401,0,6.43-1.14,9.081-3.421v-5.214c-0.865,1.559-2.129,2.839-3.791,3.836c-1.641,0.965-3.405,1.446-5.29,1.446
			c-1.889,0-3.658-0.471-5.309-1.414c-1.652-0.963-2.938-2.254-3.859-3.868c-0.73-1.25-1.176-2.591-1.34-4.022h9.766v-3.135h-9.677
			c0.216-1.208,0.64-2.347,1.284-3.408C97.035,1049.654,98.32,1048.354,99.984,1047.346z"/>
		<path d="M202.152,1047.346c1.651-0.943,3.41-1.412,5.273-1.412c1.887,0,3.65,0.481,5.291,1.446
			c1.663,0.999,2.928,2.274,3.792,3.834v-5.146c-2.64-2.328-5.667-3.49-9.083-3.49c-2.516,0-4.836,0.622-6.959,1.864
			c-1.067,0.641-2.027,1.388-2.881,2.239c-0.854,0.854-1.584,1.809-2.191,2.864c-1.246,2.145-1.869,4.47-1.869,6.974
			c0,2.514,0.623,4.839,1.869,6.973c1.224,2.123,2.916,3.812,5.072,5.071c2.101,1.257,4.421,1.885,6.959,1.885
			c3.404,0,6.432-1.14,9.083-3.421v-5.214c-0.864,1.559-2.129,2.839-3.792,3.836c-1.641,0.965-3.404,1.446-5.291,1.446
			s-3.655-0.471-5.307-1.414c-1.652-0.963-2.938-2.254-3.859-3.868c-0.719-1.23-1.163-2.551-1.334-3.956h9.152v-3.135h-9.08
			c0.211-1.233,0.639-2.394,1.296-3.475C199.204,1049.654,200.49,1048.354,202.152,1047.346z"/>
	</g>
	<path fill="#FFFFFF" d="M179.005,1010.682h-4.495c-4.062,0-7.369-3.021-7.369-6.739s3.307-6.742,7.369-6.742h4.495
		c4.063,0,7.368,3.024,7.368,6.742S183.068,1010.682,179.005,1010.682z M174.51,999.73c-2.67,0-4.838,1.889-4.838,4.212
		c0,2.321,2.168,4.211,4.838,4.211h4.495c2.667,0,4.839-1.89,4.839-4.211c0-2.323-2.172-4.212-4.839-4.212H174.51z"/>
	<path fill="#FFFFFF" d="M129.971,990.141c-0.044-0.909-0.089-1.834-0.131-2.772c-0.234-5.203-3.277-9.073-8.799-11.2
		c-5.11-1.967-10.714-1.822-11.334-1.801c-0.623-0.021-6.224-0.164-11.332,1.801c-5.521,2.125-8.564,5.997-8.799,11.2
		c-0.044,0.938-0.09,1.863-0.134,2.772c-0.288,5.878-0.538,10.955,0.227,14.841c0.917,4.665,3.278,7.071,7.218,7.357
		c7.867,0.569,12.772,0.576,12.82,0.576c0.049,0,4.953-0.007,12.821-0.576c3.939-0.286,6.301-2.692,7.219-7.357
		C130.51,1001.096,130.262,996.019,129.971,990.141z M122.355,1009.936c-7.771,0.562-12.598,0.57-12.648,0.57
		c-0.05,0-4.867-0.006-12.646-0.57c-5.871-0.424-5.814-7.395-5.212-19.678c0.026-0.539,0.053-1.082,0.08-1.631
		c0.079-1.631,0.184-2.409,0.184-2.409c0.583-3.581,2.976-6.202,7.128-7.801c3.872-1.49,8.112-1.65,9.755-1.65
		c0.415,0,0.655,0.01,0.657,0.01l0.055,0.001l0.055-0.001c0,0,0.242-0.01,0.657-0.01c1.645,0,5.884,0.16,9.755,1.65
		c3.865,1.487,6.202,3.86,6.979,7.067v-0.002c0.479,1.439,0.333,3.145,0.333,3.145c0.027,0.549,0.053,1.092,0.08,1.631
		C128.168,1002.541,128.225,1009.512,122.355,1009.936z"/>
	<rect x="25.08" y="1086.854" fill="none" width="233.969" height="13.05"/>
	<text transform="matrix(1 0 0 1 75.1328 1097.6113)" font-family="'Futura-Medium'" font-size="13.0396" letter-spacing="6">SINCE 1972</text>
</g>
<g>
	<g>
		<path d="M440.167,940.355h3.318v25.881c-0.978-0.381-1.943-0.83-2.898-1.348c-0.955-0.516-1.906-1.113-2.856-1.795
			c-0.948-0.678-1.788-1.355-2.519-2.029c-1.259-1.123-2.404-2.41-3.438-3.859c-1.032-1.449-1.938-3.037-2.713-4.768
			c-1.584-3.482-2.376-7.509-2.376-12.082h3.384c0,2.326,0.26,4.557,0.781,6.691c0.522,2.133,1.249,4.054,2.18,5.762
			c0.854,1.617,1.931,3.128,3.23,4.531c1.224,1.27,2.525,2.303,3.906,3.102V940.355z"/>
		<path d="M472.76,940.355c2.942,0.461,5.645,1.602,8.105,3.421c2.471,1.831,4.414,3.897,5.83,6.201v-9.622h3.318v25.881h-3.318
			v-5.998c0-1.685-0.344-3.363-1.029-5.037c-0.348-0.82-0.749-1.612-1.204-2.377c-0.455-0.764-0.964-1.493-1.525-2.189
			c-1.101-1.359-2.262-2.506-3.486-3.438c-1.235-0.979-2.338-1.612-3.303-1.903v20.942h-3.388V940.355z"/>
		<path d="M494.336,945.815l-1.21-3.42c2.674-2.022,5.549-3.034,8.628-3.034c1.561,0,3.122,0.264,4.683,0.793
			c1.484,0.504,2.799,1.252,3.943,2.241l-1.279,3.42c-1.934-1.595-3.821-2.589-5.663-2.982v23.403h-3.387v-23.403
			c-0.952,0.191-1.927,0.54-2.924,1.046C496.096,944.417,495.167,945.063,494.336,945.815z"/>
		<path d="M513.491,940.355h3.387v19.279c0,1.168,0.431,2.167,1.295,2.998c0.886,0.83,1.889,1.245,3.011,1.245
			c1.144,0,2.164-0.415,3.06-1.245c0.877-0.842,1.312-1.842,1.312-2.998v-19.279h3.287v19.294c0,1.337-0.344,2.591-1.029,3.765
			c-0.685,1.175-1.617,2.105-2.796,2.79c-1.202,0.685-2.478,1.027-3.826,1.027c-2.088,0-3.886-0.769-5.393-2.308
			c-1.538-1.506-2.308-3.264-2.308-5.274V940.355z"/>
		<path d="M535.61,955.269c1.572-0.134,2.943-0.747,4.113-1.837c1.122-1.045,1.684-2.319,1.684-3.826
			c0-1.032-0.275-1.977-0.826-2.83c-0.562-0.82-1.319-1.5-2.275-2.039c-0.931-0.506-1.977-0.758-3.133-0.758v22.258h-3.386v-25.881
			c1.324,0,2.452,0.045,3.386,0.136c1.686,0.101,3.28,0.562,4.785,1.382c1.449,0.785,2.611,1.869,3.488,3.252
			c0.854,1.371,1.28,2.865,1.28,4.48c0,1.641-0.438,3.146-1.313,4.518c-0.912,1.414-2.097,2.51-3.556,3.285
			c0.864,1.55,1.842,2.871,2.932,3.959c1.146,1.18,2.286,2.023,3.421,2.527v3.337c-1.932-0.651-3.59-1.578-4.972-2.78
			c-1.405-1.201-2.544-2.561-3.42-4.078C536.909,958.768,536.173,957.066,535.61,955.269z"/>
		<path d="M455.325,944.128c1.652-0.942,3.409-1.413,5.274-1.413c1.887,0,3.65,0.482,5.291,1.447
			c1.662,0.998,2.927,2.276,3.792,3.835v-5.147c-2.641-2.326-5.668-3.488-9.083-3.488c-2.517,0-4.836,0.621-6.959,1.863
			c-1.067,0.641-2.027,1.388-2.881,2.24c-0.854,0.854-1.585,1.809-2.191,2.863c-1.247,2.146-1.87,4.469-1.87,6.974
			c0,2.515,0.623,4.84,1.87,6.974c1.225,2.121,2.915,3.812,5.072,5.07c2.1,1.258,4.421,1.886,6.959,1.886
			c3.403,0,6.431-1.14,9.083-3.42v-5.216c-0.865,1.56-2.13,2.839-3.792,3.837c-1.641,0.964-3.404,1.445-5.291,1.445
			s-3.656-0.47-5.308-1.413c-1.651-0.964-2.938-2.254-3.857-3.869c-0.731-1.25-1.176-2.591-1.341-4.023h9.766v-3.133h-9.677
			c0.215-1.209,0.64-2.346,1.284-3.408C452.377,946.438,453.663,945.137,455.325,944.128z"/>
		<path d="M557.494,944.128c1.651-0.942,3.409-1.413,5.272-1.413c1.887,0,3.651,0.482,5.292,1.447
			c1.663,0.998,2.927,2.276,3.791,3.835v-5.147c-2.639-2.326-5.667-3.488-9.083-3.488c-2.516,0-4.835,0.621-6.959,1.863
			c-1.066,0.641-2.027,1.388-2.881,2.24c-0.854,0.854-1.584,1.809-2.189,2.863c-1.247,2.146-1.87,4.469-1.87,6.974
			c0,2.515,0.623,4.84,1.87,6.974c1.224,2.121,2.916,3.812,5.07,5.07c2.102,1.258,4.421,1.886,6.959,1.886
			c3.405,0,6.432-1.14,9.083-3.42v-5.216c-0.864,1.56-2.128,2.839-3.791,3.837c-1.641,0.964-3.405,1.445-5.292,1.445
			s-3.656-0.47-5.306-1.413c-1.653-0.964-2.939-2.254-3.86-3.869c-0.719-1.23-1.162-2.55-1.332-3.957h9.152v-3.133h-9.081
			c0.21-1.234,0.639-2.393,1.295-3.475C554.545,946.438,555.832,945.137,557.494,944.128z"/>
	</g>
	<rect x="383.653" y="1095.863" fill="none" width="233.967" height="13.053"/>
	<text transform="matrix(1 0 0 1 433.7051 1106.6191)" font-family="'Futura-Medium'" font-size="13.0396" letter-spacing="6">SINCE 1972</text>
	<path d="M539.104,1052.748c-3.363-17.223-15.065-49.975-18.286-55.824c-5.116-9.301-11.972-14.314-19.854-14.541v-0.008h-0.557
		v0.008c-7.886,0.227-14.74,5.24-19.858,14.541c-3.198,5.813-4.775,11.564-5.212,13.32c0,0-9.793,25.227-13.169,42.504
		c-3.375,17.277,1.757,22.002,5.534,23.62c3.779,1.622,32.933,1.89,32.933,1.89s29.154-0.268,32.936-1.89
		C537.35,1074.75,542.479,1070.025,539.104,1052.748z M520.513,1023.531c-0.605,3.577-0.605,3.577-0.605,3.577
		s-9.656-1.073-19.269-0.948l0,0h-0.003c-9.612-0.125-19.267,0.948-19.267,0.948s0,0-0.607-3.577
		c-0.604-3.574,0.037-12.422,0.037-12.422c1.13-4.268,6.834-22.967,19.886-23.229c12.937,0.259,18.679,18.736,19.864,23.15
		l-0.072,0.012c0,0,0,0.026-0.003,0.067l0.003-0.001C520.477,1011.109,521.119,1019.957,520.513,1023.531z"/>
	<path fill="#FFFFFF" d="M503.571,1059.486h-6.128c-5.536,0-10.043-4.123-10.043-9.189s4.507-9.188,10.043-9.188h6.128
		c5.538,0,10.043,4.121,10.043,9.188S509.109,1059.486,503.571,1059.486z M497.443,1044.557c-3.638,0-6.594,2.576-6.594,5.74
		c0,3.166,2.956,5.74,6.594,5.74h6.128c3.637,0,6.596-2.574,6.596-5.74c0-3.164-2.959-5.74-6.596-5.74H497.443z"/>
</g>
</svg>
