<?xml version="1.0" encoding="utf-8"?>
<!-- Generator: Adobe Illustrator 15.0.0, SVG Export Plug-In . SVG Version: 6.00 Build 0)  -->
<!DOCTYPE svg PUBLIC "-//W3C//DTD SVG 1.1//EN" "http://www.w3.org/Graphics/SVG/1.1/DTD/svg11.dtd">
<svg version="1.1" id="Layer_1" xmlns="http://www.w3.org/2000/svg" xmlns:xlink="http://www.w3.org/1999/xlink" x="0px" y="0px"
	 width="550px" height="200px" viewBox="0 0 550 200" enable-background="new 0 0 550 200" xml:space="preserve">
<rect fill="#46697C" width="550" height="200"/>
<path fill="#CDCBCE" d="M112.5,129.999c0,0-38-16.334-37.667-63.667H46.5v63.667H112.5z"/>
<path fill="#CDCBCE" d="M112.5,119.999c0,0-27.333-13.334-29-53.667h29V119.999z"/>
<g>
	<path fill="#CDCBCE" d="M163.24,65.784h8.598v67.041c-2.531-0.987-5.034-2.153-7.507-3.492c-2.473-1.337-4.94-2.886-7.398-4.647
		c-2.459-1.76-4.633-3.514-6.525-5.259c-3.258-2.91-6.227-6.241-8.904-9.995c-2.677-3.754-5.02-7.871-7.027-12.353
		c-4.103-9.02-6.154-19.451-6.154-31.294h8.762c0,6.023,0.675,11.799,2.026,17.328c1.352,5.529,3.233,10.504,5.646,14.927
		c2.208,4.191,4.998,8.104,8.369,11.741c3.168,3.29,6.539,5.966,10.114,8.03V65.784z"/>
	<path fill="#CDCBCE" d="M247.667,65.784c7.625,1.193,14.623,4.146,20.996,8.86c6.402,4.743,11.436,10.097,15.102,16.062V65.784
		h8.598v67.041h-8.598v-15.537c0-4.365-0.888-8.716-2.664-13.051c-0.9-2.124-1.941-4.175-3.118-6.154
		c-1.181-1.979-2.498-3.869-3.952-5.674c-2.852-3.52-5.863-6.488-9.034-8.903c-3.201-2.532-6.053-4.176-8.555-4.933v54.252h-8.774
		V65.784z"/>
	<path fill="#CDCBCE" d="M303.56,79.925l-3.136-8.86c6.926-5.238,14.374-7.856,22.348-7.856c4.044,0,8.089,0.684,12.133,2.052
		c3.842,1.309,7.247,3.245,10.214,5.805l-3.316,8.86c-5.005-4.13-9.894-6.706-14.665-7.725v60.625h-8.774V72.2
		c-2.468,0.495-4.993,1.397-7.575,2.706C308.115,76.303,305.707,77.976,303.56,79.925z"/>
	<path fill="#CDCBCE" d="M353.179,65.784h8.772v49.94c0,3.023,1.116,5.613,3.354,7.762c2.296,2.153,4.895,3.229,7.798,3.229
		c2.962,0,5.605-1.075,7.93-3.229c2.265-2.18,3.397-4.766,3.397-7.762v-49.94h8.51v49.975c0,3.463-0.886,6.714-2.661,9.756
		c-1.775,3.04-4.189,5.449-7.245,7.223c-3.114,1.774-6.417,2.663-9.91,2.663c-5.412,0-10.067-1.994-13.966-5.98
		c-3.986-3.899-5.979-8.452-5.979-13.661V65.784z"/>
	<path fill="#CDCBCE" d="M410.473,104.411c4.073-0.35,7.622-1.935,10.649-4.758c2.91-2.706,4.364-6.009,4.364-9.907
		c0-2.677-0.712-5.122-2.138-7.333c-1.454-2.124-3.419-3.885-5.894-5.281c-2.415-1.31-5.121-1.965-8.117-1.965v57.657h-8.772V65.784
		c3.433,0,6.356,0.116,8.772,0.349c4.363,0.263,8.496,1.456,12.395,3.58c3.754,2.037,6.767,4.844,9.037,8.424
		c2.211,3.551,3.316,7.42,3.316,11.61c0,4.248-1.135,8.147-3.404,11.697c-2.357,3.666-5.427,6.503-9.211,8.511
		c2.24,4.016,4.772,7.434,7.595,10.257c2.968,3.056,5.922,5.237,8.861,6.548v8.642c-5.004-1.688-9.298-4.088-12.877-7.202
		c-3.637-3.113-6.59-6.635-8.858-10.562C413.835,113.475,411.927,109.066,410.473,104.411z"/>
	<path fill="#CDCBCE" d="M202.507,75.554c4.278-2.439,8.831-3.66,13.662-3.66c4.888,0,9.457,1.249,13.705,3.748
		c4.307,2.586,7.58,5.898,9.82,9.935V72.243c-6.837-6.023-14.679-9.035-23.525-9.035c-6.518,0-12.526,1.608-18.026,4.826
		c-2.764,1.658-5.252,3.593-7.464,5.802c-2.211,2.211-4.103,4.683-5.674,7.417c-3.23,5.556-4.845,11.577-4.845,18.063
		c0,6.516,1.615,12.537,4.845,18.064c3.172,5.496,7.551,9.875,13.138,13.133c5.441,3.256,11.45,4.886,18.026,4.886
		c8.816,0,16.659-2.952,23.525-8.861v-13.507c-2.241,4.038-5.514,7.35-9.82,9.936c-4.248,2.498-8.817,3.746-13.705,3.746
		c-4.888,0-9.471-1.221-13.749-3.658c-4.277-2.5-7.609-5.842-9.996-10.023c-1.891-3.239-3.042-6.715-3.47-10.422h25.296v-8.118
		h-25.063c0.555-3.129,1.655-6.074,3.325-8.828C194.87,81.54,198.201,78.169,202.507,75.554z"/>
	<path fill="#CDCBCE" d="M467.156,75.554c4.277-2.439,8.83-3.66,13.661-3.66c4.889,0,9.457,1.249,13.705,3.748
		c4.306,2.586,7.58,5.898,9.82,9.935V72.243c-6.838-6.023-14.681-9.035-23.525-9.035c-6.518,0-12.526,1.608-18.024,4.826
		c-2.765,1.658-5.254,3.593-7.465,5.802c-2.212,2.211-4.104,4.683-5.675,7.417c-3.23,5.556-4.844,11.577-4.844,18.063
		c0,6.516,1.613,12.537,4.844,18.064c3.172,5.496,7.552,9.875,13.14,13.133c5.44,3.256,11.447,4.886,18.024,4.886
		c8.816,0,16.659-2.952,23.525-8.861v-13.507c-2.24,4.038-5.515,7.35-9.82,9.936c-4.248,2.498-8.816,3.746-13.705,3.746
		c-4.89,0-9.472-1.221-13.748-3.658c-4.276-2.5-7.609-5.842-9.996-10.023c-1.864-3.189-3.011-6.607-3.454-10.25h23.707v-8.118
		h-23.521c0.546-3.193,1.653-6.196,3.354-9C459.518,81.54,462.85,78.169,467.156,75.554z"/>
</g>
</svg>
