<?xml version="1.0" encoding="utf-8"?>
<!-- Generator: Adobe Illustrator 15.0.0, SVG Export Plug-In . SVG Version: 6.00 Build 0)  -->
<!DOCTYPE svg PUBLIC "-//W3C//DTD SVG 1.1//EN" "http://www.w3.org/Graphics/SVG/1.1/DTD/svg11.dtd">
<svg version="1.1" id="Layer_1" xmlns="http://www.w3.org/2000/svg" xmlns:xlink="http://www.w3.org/1999/xlink" x="0px" y="0px"
	 width="190px" height="190px" viewBox="55 55 190 190" enable-background="new 55 55 190 190" xml:space="preserve">
<rect x="55" y="55" fill="#FFFFFF" width="190" height="190"/>
<g>
	<path d="M213.99,93.211c-3.033-8.559-11.195-14.693-20.801-14.693h-86.591c-9.472,0-17.545,5.963-20.678,14.335
		c-2.167,11.277,10.528,9.096,10.528,9.096c0.195,0.46,0.357,0.886,0.506,1.295c2.372-1.124,3.964-3.167,3.964-5.507
		c0-0.075-0.011-0.147-0.015-0.221h0.028c-0.002,0.073-0.014,0.146-0.014,0.221c0,3.549,3.648,6.427,8.15,6.427
		c4.5,0,8.15-2.877,8.15-6.427c0-0.075-0.011-0.147-0.015-0.221h0.23c0,3.549,3.648,6.427,8.149,6.427
		c4.502,0,8.151-2.878,8.151-6.427c0,3.549,3.649,6.427,8.15,6.427c3.817,0,7.011-2.071,7.898-4.863
		c0.73,2.959,4.031,5.193,7.996,5.193c4.502,0,8.151-2.877,8.151-6.427c0-0.112-0.015-0.221-0.021-0.331h0.043
		c-0.008,0.11-0.021,0.219-0.021,0.331c0,3.548,3.648,6.427,8.149,6.427c4.502,0,8.15-2.877,8.15-6.427
		c0-0.112-0.014-0.221-0.021-0.331h0.244c-0.002,0.037-0.008,0.073-0.008,0.11c0,3.549,3.648,6.427,8.149,6.427
		c4.504,0,8.151-2.878,8.151-6.427c0-0.037-0.005-0.074-0.007-0.11h0.016c-0.002,0.037-0.009,0.073-0.009,0.11
		c0,2.417,1.696,4.52,4.196,5.618c0.141-0.386,0.293-0.785,0.477-1.214C203.42,102.032,215.891,104.167,213.99,93.211z"/>
	<rect x="96.448" y="88.096" width="107.017" height="64.125"/>
	<g>
		<path d="M97.309,165.835h2.988v23.293c-0.88-0.343-1.749-0.749-2.608-1.214c-0.859-0.466-1.716-1.003-2.57-1.615
			c-0.854-0.611-1.61-1.219-2.267-1.828c-1.132-1.01-2.163-2.167-3.093-3.473c-0.931-1.303-1.744-2.733-2.442-4.289
			c-1.425-3.135-2.138-6.76-2.138-10.876h3.045c0,2.094,0.234,4.103,0.704,6.022s1.124,3.649,1.961,5.186
			c0.769,1.457,1.736,2.816,2.909,4.079c1.101,1.142,2.271,2.073,3.513,2.792L97.309,165.835L97.309,165.835z"/>
		<path d="M126.644,165.835c2.648,0.415,5.081,1.442,7.295,3.078c2.224,1.648,3.973,3.509,5.246,5.581v-8.659h2.987v23.293h-2.987
			v-5.398c0-1.519-0.309-3.028-0.925-4.535c-0.313-0.736-0.675-1.45-1.084-2.138c-0.408-0.688-0.866-1.345-1.372-1.971
			c-0.99-1.223-2.037-2.255-3.138-3.096c-1.112-0.879-2.104-1.449-2.973-1.711v18.849h-3.049V165.835z"/>
		<path d="M146.062,170.748l-1.089-3.078c2.406-1.818,4.994-2.729,7.765-2.729c1.404,0,2.811,0.237,4.215,0.714
			c1.334,0.453,2.518,1.127,3.549,2.016l-1.152,3.078c-1.74-1.436-3.438-2.331-5.096-2.684v21.063h-3.049v-21.063
			c-0.856,0.172-1.734,0.485-2.631,0.941C147.647,169.489,146.809,170.071,146.062,170.748z"/>
		<path d="M163.303,165.835h3.048v17.352c0,1.05,0.388,1.949,1.165,2.697c0.799,0.748,1.701,1.122,2.711,1.122
			c1.03,0,1.947-0.374,2.755-1.122c0.787-0.757,1.181-1.657,1.181-2.697v-17.352h2.956v17.364c0,1.201-0.309,2.332-0.925,3.389
			c-0.615,1.057-1.456,1.895-2.518,2.511c-1.081,0.618-2.229,0.924-3.443,0.924c-1.879,0-3.496-0.692-4.852-2.077
			c-1.386-1.355-2.078-2.938-2.078-4.746V165.835L163.303,165.835z"/>
		<path d="M183.208,179.256c1.417-0.121,2.649-0.672,3.702-1.652c1.011-0.94,1.518-2.088,1.518-3.443
			c0-0.93-0.248-1.779-0.744-2.547c-0.506-0.738-1.188-1.351-2.048-1.836c-0.839-0.455-1.778-0.682-2.82-0.682v20.032h-3.048
			v-23.295c1.192,0,2.209,0.04,3.048,0.123c1.517,0.092,2.952,0.505,4.308,1.243c1.305,0.707,2.35,1.684,3.138,2.928
			c0.769,1.232,1.153,2.578,1.153,4.033c0,1.477-0.395,2.83-1.182,4.064c-0.82,1.273-1.887,2.26-3.201,2.956
			c0.777,1.396,1.658,2.584,2.639,3.565c1.031,1.061,2.059,1.818,3.078,2.272v3.004c-1.738-0.587-3.229-1.421-4.474-2.501
			c-1.265-1.082-2.289-2.307-3.078-3.671C184.379,182.404,183.715,180.873,183.208,179.256z"/>
		<path d="M110.953,169.229c1.486-0.848,3.067-1.271,4.746-1.271c1.699,0,3.285,0.432,4.763,1.302
			c1.496,0.897,2.632,2.048,3.412,3.45v-4.631c-2.376-2.094-5.1-3.14-8.174-3.14c-2.264,0-4.352,0.559-6.263,1.677
			c-0.96,0.576-1.824,1.248-2.593,2.016c-0.769,0.769-1.425,1.627-1.971,2.576c-1.123,1.932-1.684,4.022-1.684,6.277
			c0,2.264,0.561,4.355,1.684,6.276c1.101,1.909,2.622,3.431,4.563,4.562c1.891,1.132,3.978,1.697,6.263,1.697
			c3.062,0,5.788-1.026,8.174-3.078v-4.693c-0.779,1.403-1.915,2.554-3.412,3.452c-1.478,0.869-3.064,1.303-4.763,1.303
			c-1.698,0-3.292-0.426-4.777-1.272c-1.486-0.868-2.645-2.029-3.472-3.482c-0.657-1.126-1.058-2.333-1.206-3.621h8.789v-2.821
			h-8.708c0.192-1.086,0.575-2.109,1.156-3.065C108.299,171.309,109.456,170.139,110.953,169.229z"/>
		<path d="M202.904,169.229c1.485-0.848,3.069-1.271,4.746-1.271c1.698,0,3.285,0.432,4.762,1.302
			c1.496,0.897,2.634,2.048,3.412,3.45v-4.631c-2.375-2.094-5.1-3.14-8.174-3.14c-2.266,0-4.352,0.559-6.263,1.677
			c-0.96,0.576-1.825,1.248-2.593,2.016c-0.769,0.769-1.427,1.627-1.973,2.576c-1.121,1.932-1.682,4.022-1.682,6.277
			c0,2.264,0.561,4.355,1.682,6.276c1.103,1.909,2.625,3.431,4.565,4.562c1.89,1.132,3.978,1.697,6.263,1.697
			c3.064,0,5.789-1.026,8.174-3.078v-4.693c-0.778,1.403-1.916,2.554-3.412,3.452c-1.477,0.869-3.063,1.303-4.762,1.303
			c-1.697,0-3.291-0.426-4.775-1.272c-1.487-0.868-2.646-2.029-3.474-3.482c-0.647-1.106-1.047-2.296-1.2-3.562h8.236v-2.82h-8.172
			c0.189-1.109,0.574-2.154,1.166-3.128C200.25,171.309,201.408,170.139,202.904,169.229z"/>
	</g>
	<rect x="44.834" y="202.083" fill="none" width="210.571" height="11.747"/>
	<text transform="matrix(1 0 0 1 89.8496 211.7754)" font-family="'Futura-Medium'" font-size="11.7356" letter-spacing="5">SINCE 1972</text>
	<rect x="109.581" y="115.699" fill="#FFFFFF" width="23.34" height="37.638"/>
	<rect x="147.02" y="115.699" fill="#FFFFFF" width="43.269" height="20.789"/>
	<path fill="#FFFFFF" d="M200.145,97.665l0.035-1.544h-2.879l0.042,1.438l0.007,0.107c-0.027,2.756-3.046,4.991-6.754,4.991
		c-3.705,0-6.725-2.235-6.752-4.991l0.027-1.546h-3.15l0.105,1.627c0.004,0.033,0.008,0.066,0.008,0.1
		c0,2.774-3.029,5.03-6.754,5.03c-3.723,0-6.754-2.256-6.754-5.029c0.002-0.034,0.006-0.068,0.009-0.101l0.063-1.627h-2.98
		l0.107,1.626c0.002,0.034,0.006,0.067,0.007,0.101c0,2.774-3.029,5.03-6.753,5.03c-2.795,0-5.241-1.279-6.254-3.153
		c-0.207-0.449-0.277-0.985-0.295-1.38v-2.223h-2.794V98.7c-0.737,2.232-3.481,3.849-6.551,3.849c-3.724,0-6.753-2.256-6.753-5.029
		h-0.009v-1.397h-2.794v1.524c-0.093,2.714-3.078,4.901-6.744,4.901c-3.723,0-6.752-2.256-6.752-5.029v-1.396h-3.088l0.066,1.459
		c0.002,0.05,0.005,0.1,0.013,0.158c0,2.774-3.029,5.03-6.754,5.03c-3.723,0-6.752-2.256-6.75-5.038
		c0.004-0.051,0.008-0.1,0.011-0.15l0.037-1.459h-2.921l0.064,1.459c0.003,0.05,0.006,0.1,0.013,0.158
		c0,1.762-1.226,3.314-3.074,4.212v3.006c1.861-0.639,3.427-1.749,4.471-3.147c1.678,2.25,4.704,3.753,8.15,3.753
		c3.578,0,6.702-1.621,8.337-4.013c1.672,2.271,4.713,3.793,8.179,3.793c3.446,0,6.471-1.504,8.15-3.753
		c1.679,2.25,4.706,3.753,8.15,3.753c3.181,0,6.066-1.288,7.813-3.327c1.71,2.216,4.734,3.657,8.082,3.657
		c3.447,0,6.473-1.504,8.151-3.752c1.679,2.249,4.704,3.752,8.151,3.752c3.576,0,6.7-1.62,8.336-4.012
		c1.674,2.271,4.713,3.792,8.18,3.792c3.447,0,6.472-1.503,8.151-3.752c1.09,1.46,2.747,2.602,4.718,3.226v-2.973
		C201.494,101.081,200.162,99.489,200.145,97.665z M150.11,98.713h0.464c-0.002,0.005-0.002,0.01-0.004,0.015L150.11,98.713z"/>
</g>
</svg>
