<?xml version="1.0" encoding="utf-8"?>
<!-- Generator: Adobe Illustrator 15.0.0, SVG Export Plug-In . SVG Version: 6.00 Build 0)  -->
<!DOCTYPE svg PUBLIC "-//W3C//DTD SVG 1.1//EN" "http://www.w3.org/Graphics/SVG/1.1/DTD/svg11.dtd">
<svg version="1.1" id="Layer_1" xmlns="http://www.w3.org/2000/svg" xmlns:xlink="http://www.w3.org/1999/xlink" x="0px" y="0px"
	 width="500px" height="250px" viewBox="0 0 500 250" enable-background="new 0 0 500 250" xml:space="preserve">
<rect fill="#FFFFFF" width="500" height="250"/>
<g>
	<path d="M102.65,66.056h7.792v60.75c-2.294-0.896-4.562-1.951-6.803-3.164s-4.476-2.616-6.704-4.212s-4.199-3.184-5.912-4.766
		c-2.953-2.637-5.643-5.656-8.068-9.058s-4.549-7.132-6.368-11.192c-3.718-8.174-5.577-17.627-5.577-28.358h7.94
		c0,5.458,0.612,10.692,1.836,15.702c1.226,5.01,2.931,9.518,5.116,13.525c2.002,3.797,4.529,7.344,7.584,10.64
		c2.871,2.979,5.925,5.405,9.164,7.277V66.056z"/>
	<path d="M179.156,66.056c6.908,1.081,13.25,3.758,19.024,8.029c5.801,4.298,10.362,9.149,13.685,14.554V66.056h7.791v60.75h-7.791
		v-14.08c0-3.955-0.805-7.897-2.414-11.825c-0.816-1.926-1.76-3.784-2.826-5.577c-1.068-1.793-2.262-3.507-3.58-5.142
		c-2.584-3.19-5.312-5.88-8.187-8.068c-2.9-2.294-5.484-3.783-7.752-4.469v49.161h-7.95V66.056z"/>
	<path d="M229.802,78.87l-2.841-8.029c6.275-4.746,13.025-7.119,20.25-7.119c3.665,0,7.33,0.62,10.995,1.859
		c3.48,1.187,6.565,2.939,9.255,5.26l-3.006,8.029c-4.535-3.744-8.965-6.078-13.289-7v54.936h-7.95V71.87
		c-2.236,0.447-4.524,1.266-6.864,2.451C233.931,75.588,231.748,77.104,229.802,78.87z"/>
	<path d="M274.765,66.056h7.949v45.253c0,2.74,1.013,5.086,3.039,7.035c2.079,1.949,4.435,2.925,7.066,2.925
		c2.685,0,5.078-0.976,7.185-2.925c2.053-1.977,3.079-4.32,3.079-7.035V66.056h7.712v45.286c0,3.137-0.804,6.084-2.412,8.839
		s-3.797,4.938-6.565,6.546c-2.821,1.607-5.814,2.412-8.979,2.412c-4.905,0-9.123-1.806-12.657-5.418
		c-3.611-3.533-5.417-7.66-5.417-12.379V66.056z"/>
	<path d="M326.682,101.059c3.691-0.316,6.908-1.754,9.65-4.312c2.637-2.452,3.955-5.444,3.955-8.978
		c0-2.426-0.645-4.641-1.938-6.645c-1.318-1.926-3.099-3.521-5.34-4.786c-2.188-1.187-4.641-1.779-7.356-1.779v52.246h-7.948v-60.75
		c3.111,0,5.76,0.105,7.948,0.316c3.955,0.237,7.698,1.318,11.231,3.243c3.402,1.846,6.133,4.39,8.189,7.633
		c2.004,3.217,3.006,6.725,3.006,10.521c0,3.85-1.029,7.383-3.086,10.6c-2.135,3.322-4.918,5.893-8.346,7.712
		c2.03,3.639,4.324,6.737,6.882,9.294c2.689,2.77,5.366,4.746,8.03,5.934v7.83c-4.535-1.529-8.426-3.704-11.669-6.525
		c-3.296-2.821-5.972-6.012-8.028-9.571C329.729,109.271,328,105.277,326.682,101.059z"/>
	<path d="M138.234,74.909c3.876-2.211,8.002-3.316,12.379-3.316c4.43,0,8.57,1.132,12.42,3.396c3.902,2.344,6.868,5.345,8.898,9.004
		V71.909c-6.196-5.458-13.303-8.188-21.318-8.188c-5.906,0-11.351,1.458-16.334,4.373c-2.505,1.503-4.76,3.256-6.764,5.258
		c-2.004,2.004-3.717,4.244-5.141,6.722c-2.928,5.034-4.391,10.49-4.391,16.368c0,5.903,1.463,11.36,4.391,16.368
		c2.873,4.982,6.842,8.949,11.904,11.9c4.931,2.951,10.375,4.428,16.334,4.428c7.99,0,15.096-2.676,21.318-8.028v-12.241
		c-2.03,3.66-4.996,6.66-8.898,9.004c-3.85,2.264-7.99,3.396-12.42,3.396s-8.582-1.106-12.458-3.317
		c-3.876-2.264-6.896-5.291-9.058-9.082c-1.714-2.934-2.757-6.084-3.145-9.443h22.922V92.07h-22.711c0.503-2.836,1.5-5.505,3.014-8
		C131.312,80.333,134.332,77.279,138.234,74.909z"/>
	<path d="M378.047,74.909c3.876-2.211,8.002-3.316,12.379-3.316c4.43,0,8.568,1.132,12.418,3.396c3.902,2.344,6.87,5.345,8.9,9.004
		V71.909c-6.196-5.458-13.303-8.188-21.318-8.188c-5.906,0-11.351,1.458-16.334,4.373c-2.505,1.503-4.76,3.256-6.764,5.258
		c-2.004,2.004-3.719,4.244-5.143,6.722c-2.926,5.034-4.389,10.49-4.389,16.368c0,5.903,1.463,11.36,4.389,16.368
		c2.875,4.982,6.844,8.949,11.906,11.9c4.931,2.951,10.375,4.428,16.334,4.428c7.988,0,15.096-2.676,21.318-8.028v-12.241
		c-2.03,3.66-4.998,6.66-8.9,9.004c-3.85,2.264-7.988,3.396-12.418,3.396s-8.582-1.106-12.458-3.317
		c-3.876-2.264-6.896-5.291-9.058-9.082c-1.689-2.889-2.729-5.986-3.131-9.287h21.484v-7.356h-21.314
		c0.494-2.894,1.498-5.614,3.039-8.155C371.125,80.333,374.145,77.279,378.047,74.909z"/>
</g>
<g>
	<rect x="52.498" y="156.817" fill="none" width="376.803" height="21.021"/>
	<text transform="matrix(1 0 0 1 87.2568 174.126)" font-family="'FuturaStd-Light'" font-size="21" letter-spacing="21">SINCE 1972</text>
</g>
</svg>
