<?xml version="1.0" encoding="utf-8"?>
<!-- Generator: Adobe Illustrator 15.0.0, SVG Export Plug-In . SVG Version: 6.00 Build 0)  -->
<!DOCTYPE svg PUBLIC "-//W3C//DTD SVG 1.1//EN" "http://www.w3.org/Graphics/SVG/1.1/DTD/svg11.dtd">
<svg version="1.1" id="Layer_1" xmlns="http://www.w3.org/2000/svg" xmlns:xlink="http://www.w3.org/1999/xlink" x="0px" y="0px"
	 width="700px" height="366.334px" viewBox="0 0 700 366.334" enable-background="new 0 0 700 366.334" xml:space="preserve">
<rect fill="#FFFFFF" width="700" height="366.334"/>
<g>
	<path d="M134.312,108.325h12.12v94.499c-3.568-1.394-7.096-3.035-10.582-4.923c-3.486-1.885-6.963-4.067-10.429-6.551
		c-3.466-2.48-6.531-4.951-9.197-7.414c-4.594-4.101-8.777-8.797-12.551-14.088s-7.075-11.095-9.905-17.411
		c-5.783-12.714-8.675-27.418-8.675-44.112h12.352c0,8.49,0.951,16.633,2.855,24.425c1.906,7.793,4.559,14.807,7.959,21.041
		c3.113,5.906,7.045,11.423,11.797,16.55c4.466,4.636,9.217,8.408,14.256,11.32V108.325L134.312,108.325z"/>
	<path d="M253.319,108.325c10.746,1.683,20.611,5.845,29.594,12.489c9.023,6.686,16.119,14.233,21.287,22.641v-35.13h12.119v94.499
		H304.2v-21.901c0-6.152-1.252-12.283-3.754-18.396c-1.271-2.993-2.737-5.885-4.397-8.675c-1.662-2.789-3.519-5.454-5.569-7.998
		c-4.02-4.962-8.264-9.146-12.734-12.551c-4.512-3.568-8.531-5.885-12.059-6.952v76.473H253.32L253.319,108.325L253.319,108.325z"/>
	<path d="M332.102,128.259l-4.418-12.489c9.762-7.383,20.262-11.074,31.5-11.074c5.701,0,11.402,0.964,17.104,2.892
		c5.414,1.846,10.213,4.574,14.396,8.183l-4.676,12.489c-7.055-5.823-13.945-9.453-20.672-10.89v85.455h-12.368V117.37
		c-3.478,0.698-7.038,1.969-10.678,3.814C338.525,123.152,335.129,125.512,332.102,128.259z"/>
	<path d="M402.045,108.325h12.364v70.395c0,4.263,1.575,7.91,4.728,10.941c3.235,3.035,6.899,4.55,10.992,4.55
		c4.176,0,7.9-1.515,11.176-4.55c3.193-3.073,4.791-6.72,4.791-10.941v-70.395h11.995v70.444c0,4.882-1.249,9.464-3.751,13.751
		c-2.502,4.285-5.906,7.681-10.213,10.181c-4.389,2.502-9.046,3.755-13.968,3.755c-7.629,0-14.191-2.812-19.688-8.432
		c-5.619-5.496-8.427-11.912-8.427-19.255L402.045,108.325L402.045,108.325z"/>
	<path d="M482.805,162.773c5.742-0.492,10.746-2.728,15.013-6.706c4.102-3.814,6.151-8.469,6.151-13.966
		c0-3.773-1.004-7.219-3.014-10.336c-2.051-2.993-4.82-5.476-8.307-7.444c-3.404-1.846-7.22-2.769-11.443-2.769v81.271H468.84
		v-94.499c4.84,0,8.961,0.164,12.365,0.492c6.152,0.369,11.977,2.052,17.473,5.045c5.291,2.871,9.537,6.829,12.736,11.874
		c3.117,5.005,4.676,10.459,4.676,16.365c0,5.989-1.6,11.484-4.799,16.488c-3.322,5.168-7.65,9.167-12.982,11.997
		c3.158,5.66,6.728,10.48,10.705,14.458c4.185,4.308,8.349,7.384,12.49,9.229v12.182c-7.055-2.379-13.105-5.764-18.15-10.153
		c-5.127-4.389-9.289-9.352-12.487-14.888C487.543,175.55,484.855,169.336,482.805,162.773z"/>
	<path d="M189.664,122.098c6.029-3.439,12.448-5.159,19.257-5.159c6.891,0,13.33,1.761,19.318,5.282
		c6.07,3.646,10.685,8.313,13.843,14.006V117.43c-9.639-8.489-20.692-12.734-33.161-12.734c-9.188,0-17.657,2.268-25.409,6.803
		c-3.896,2.338-7.403,5.063-10.521,8.179c-3.117,3.117-5.783,6.603-7.998,10.456c-4.553,7.83-6.829,16.318-6.829,25.461
		c0,9.185,2.276,17.672,6.829,25.462c4.471,7.75,10.644,13.92,18.519,18.512c7.67,4.592,16.14,6.889,25.409,6.889
		c12.428,0,23.481-4.163,33.161-12.491v-19.04c-3.158,5.692-7.772,10.361-13.843,14.006c-5.988,3.521-12.428,5.28-19.318,5.28
		c-6.89,0-13.351-1.72-19.38-5.157c-6.029-3.522-10.726-8.231-14.089-14.129c-2.667-4.564-4.289-9.463-4.892-14.69h35.656v-11.441
		h-35.329c0.782-4.411,2.333-8.562,4.688-12.443C178.897,130.534,183.594,125.783,189.664,122.098z"/>
	<path d="M562.705,122.098c6.029-3.439,12.447-5.159,19.256-5.159c6.891,0,13.33,1.761,19.318,5.282
		c6.069,3.646,10.686,8.313,13.844,14.006V117.43c-9.639-8.489-20.693-12.734-33.162-12.734c-9.188,0-17.656,2.268-25.408,6.803
		c-3.896,2.338-7.403,5.063-10.521,8.179c-3.117,3.117-5.783,6.603-7.998,10.456c-4.553,7.83-6.828,16.318-6.828,25.461
		c0,9.185,2.275,17.672,6.828,25.462c4.471,7.75,10.645,13.92,18.52,18.512c7.67,4.592,16.14,6.889,25.408,6.889
		c12.428,0,23.482-4.163,33.162-12.491v-19.04c-3.158,5.692-7.773,10.361-13.844,14.006c-5.988,3.521-12.429,5.28-19.318,5.28
		s-13.35-1.72-19.379-5.157c-6.029-3.522-10.727-8.231-14.09-14.129c-2.626-4.494-4.244-9.312-4.868-14.448h33.418v-11.441h-33.154
		c0.77-4.501,2.331-8.734,4.729-12.686C551.938,130.534,556.635,125.783,562.705,122.098z"/>
</g>
<rect x="85.678" y="224.702" fill="none" width="527.523" height="29.428"/>
<g enable-background="new    ">
	<path d="M213.725,230.061l-2.713,1.607c-0.508-0.881-0.991-1.455-1.45-1.723c-0.479-0.307-1.096-0.459-1.852-0.459
		c-0.929,0-1.699,0.263-2.312,0.79c-0.612,0.517-0.918,1.168-0.918,1.953c0,1.083,0.804,1.954,2.412,2.615l2.21,0.904
		c1.799,0.729,3.115,1.616,3.948,2.665c0.833,1.049,1.249,2.335,1.249,3.857c0,2.04-0.68,3.726-2.039,5.057
		c-1.369,1.341-3.067,2.012-5.096,2.012c-1.923,0-3.512-0.572-4.766-1.717c-1.235-1.143-2.005-2.748-2.312-4.815l3.388-0.746
		c0.153,1.302,0.421,2.201,0.804,2.698c0.689,0.957,1.694,1.436,3.015,1.436c1.043,0,1.909-0.349,2.598-1.047
		c0.689-0.698,1.034-1.583,1.034-2.654c0-0.43-0.06-0.824-0.179-1.183c-0.12-0.359-0.307-0.689-0.56-0.99s-0.582-0.583-0.983-0.847
		c-0.402-0.263-0.88-0.514-1.436-0.753l-2.139-0.89c-3.034-1.281-4.551-3.155-4.551-5.623c0-1.664,0.636-3.056,1.909-4.174
		c1.272-1.129,2.857-1.693,4.751-1.693C210.294,226.342,212.29,227.581,213.725,230.061z"/>
	<path d="M235.672,226.772v22.165h-3.345v-22.165H235.672z"/>
	<path d="M254.993,248.938v-23.672l16.164,16.91v-15.403h3.345v23.515l-16.165-16.868v15.519H254.993z"/>
	<path d="M310.388,227.957v3.955c-1.933-1.617-3.933-2.426-6-2.426c-2.278,0-4.197,0.817-5.756,2.454
		c-1.57,1.627-2.354,3.618-2.354,5.972c0,2.326,0.785,4.288,2.354,5.886c1.569,1.599,3.493,2.397,5.771,2.397
		c1.177,0,2.177-0.191,3-0.574c0.459-0.191,0.936-0.449,1.428-0.775c0.493-0.325,1.012-0.717,1.558-1.177v4.041
		c-1.914,1.087-3.924,1.63-6.029,1.63c-3.167,0-5.871-1.105-8.111-3.316c-2.23-2.229-3.345-4.919-3.345-8.068
		c0-2.822,0.933-5.34,2.799-7.551c2.297-2.708,5.269-4.062,8.915-4.062C306.608,226.342,308.532,226.88,310.388,227.957z"/>
	<path d="M340.834,229.916h-8.886v5.326h8.628v3.145h-8.628v7.407h8.886v3.144h-12.231v-22.165h12.231V229.916z"/>
	<path d="M387.6,229.916h-3.833l1.837-3.144h5.341v22.165H387.6V229.916z"/>
	<path d="M415.992,249.698l-2.454-1.823l5.297-7.221c-0.287,0.038-0.531,0.067-0.731,0.086c-0.201,0.02-0.364,0.029-0.488,0.029
		c-1.79,0-3.34-0.685-4.651-2.053c-1.302-1.359-1.952-2.996-1.952-4.91c0-2.038,0.723-3.78,2.168-5.226
		c1.454-1.454,3.195-2.182,5.225-2.182c2.02,0,3.775,0.718,5.269,2.153c1.493,1.426,2.239,3.11,2.239,5.053
		c0,1.723-0.727,3.585-2.182,5.585L415.992,249.698z M414.27,233.562c0,1.196,0.407,2.201,1.221,3.015
		c0.822,0.823,1.813,1.235,2.972,1.235c1.157,0,2.144-0.407,2.957-1.221c0.823-0.823,1.235-1.813,1.235-2.972
		s-0.412-2.148-1.235-2.972c-0.813-0.813-1.804-1.22-2.972-1.22c-1.148,0-2.129,0.406-2.943,1.22
		C414.682,231.472,414.27,232.443,414.27,233.562z"/>
	<path d="M453.143,229.916h-10.939v-3.144h16.523l-13.982,22.926l-2.655-1.679L453.143,229.916z"/>
	<path d="M480.186,245.794h8.255v3.144h-14.887l7.694-9.316c0.756-0.929,1.391-1.732,1.902-2.412s0.902-1.249,1.17-1.708
		c0.546-0.899,0.818-1.708,0.818-2.427c0-1.033-0.363-1.899-1.091-2.598s-1.628-1.048-2.698-1.048c-2.24,0-3.523,1.325-3.848,3.977
		h-3.33c0.535-4.671,2.895-7.006,7.076-7.006c2.02,0,3.713,0.642,5.082,1.924c1.379,1.282,2.067,2.871,2.067,4.766
		c0,1.206-0.321,2.388-0.962,3.546c-0.325,0.604-0.802,1.318-1.428,2.146c-0.627,0.828-1.42,1.807-2.377,2.936L480.186,245.794z"/>
</g>
</svg>
