<?xml version="1.0" encoding="utf-8"?>
<!-- Generator: Adobe Illustrator 15.0.0, SVG Export Plug-In . SVG Version: 6.00 Build 0)  -->
<!DOCTYPE svg PUBLIC "-//W3C//DTD SVG 1.1//EN" "http://www.w3.org/Graphics/SVG/1.1/DTD/svg11.dtd">
<svg version="1.1" id="Layer_1" xmlns="http://www.w3.org/2000/svg" xmlns:xlink="http://www.w3.org/1999/xlink" x="0px" y="0px"
	 width="190px" height="190px" viewBox="55 55 190 190" enable-background="new 55 55 190 190" xml:space="preserve">
<rect x="55" y="55" fill="#FFFFFF" width="190" height="191.074"/>
<g>
	<path d="M227.479,149.898c0,42.599-34.534,77.137-77.135,77.137s-77.135-34.538-77.135-77.137c0-42.6,34.535-77.135,77.135-77.135
		S227.479,107.297,227.479,149.898z"/>
	<g>
		<path fill="#FFFFFF" d="M106.898,175.82h2.39v18.635c-0.703-0.273-1.398-0.599-2.086-0.971c-0.687-0.371-1.373-0.803-2.057-1.292
			c-0.683-0.489-1.287-0.976-1.814-1.462c-0.905-0.807-1.729-1.734-2.474-2.777c-0.744-1.043-1.395-2.189-1.953-3.433
			c-1.141-2.508-1.711-5.407-1.711-8.7h2.436c0,1.676,0.188,3.281,0.563,4.817c0.375,1.535,0.898,2.918,1.57,4.148
			c0.613,1.165,1.39,2.253,2.325,3.265c0.881,0.914,1.817,1.657,2.812,2.23V175.82z"/>
		<path fill="#FFFFFF" d="M130.366,175.82c2.12,0.333,4.064,1.153,5.837,2.463c1.778,1.318,3.179,2.807,4.197,4.465v-6.928h2.39
			v18.635h-2.39v-4.318c0-1.213-0.247-2.422-0.741-3.628c-0.25-0.589-0.54-1.159-0.867-1.71s-0.693-1.076-1.098-1.576
			c-0.792-0.98-1.629-1.805-2.511-2.477c-0.89-0.703-1.683-1.16-2.378-1.371v15.08h-2.44L130.366,175.82L130.366,175.82z"/>
		<path fill="#FFFFFF" d="M145.901,179.752l-0.871-2.463c1.926-1.456,3.996-2.184,6.211-2.184c1.125,0,2.249,0.189,3.374,0.57
			c1.067,0.364,2.015,0.902,2.84,1.615l-0.922,2.461c-1.393-1.148-2.752-1.863-4.078-2.146v16.85h-2.439v-16.85
			c-0.684,0.138-1.387,0.387-2.105,0.751C147.168,178.746,146.499,179.209,145.901,179.752z"/>
		<path fill="#FFFFFF" d="M159.692,175.82h2.439v13.881c0,0.842,0.312,1.561,0.932,2.158c0.639,0.599,1.36,0.896,2.169,0.896
			c0.822,0,1.557-0.298,2.203-0.896c0.629-0.604,0.945-1.324,0.945-2.158V175.82h2.366v13.893c0,0.961-0.248,1.865-0.741,2.711
			c-0.492,0.846-1.164,1.515-2.014,2.008c-0.865,0.494-1.783,0.738-2.754,0.738c-1.505,0-2.799-0.552-3.884-1.66
			c-1.107-1.083-1.662-2.35-1.662-3.797V175.82z"/>
		<path fill="#FFFFFF" d="M175.619,186.559c1.131-0.098,2.118-0.538,2.959-1.324c0.81-0.75,1.214-1.668,1.214-2.752
			c0-0.744-0.197-1.423-0.595-2.039c-0.405-0.59-0.95-1.08-1.637-1.467c-0.673-0.365-1.424-0.547-2.258-0.547v16.025h-2.438V175.82
			c0.953,0,1.767,0.033,2.438,0.098c1.215,0.072,2.362,0.404,3.447,0.994c1.044,0.566,1.881,1.348,2.511,2.343
			c0.616,0.985,0.922,2.062,0.922,3.227c0,1.181-0.316,2.266-0.946,3.251c-0.655,1.019-1.509,1.809-2.559,2.365
			c0.621,1.115,1.324,2.066,2.109,2.852c0.825,0.85,1.647,1.454,2.463,1.818v2.401c-1.391-0.468-2.584-1.136-3.579-2
			c-1.012-0.866-1.831-1.845-2.462-2.938C176.553,189.078,176.021,187.852,175.619,186.559z"/>
		<path fill="#FFFFFF" d="M117.814,178.537c1.188-0.68,2.454-1.018,3.798-1.018c1.358,0,2.627,0.346,3.81,1.041
			c1.197,0.719,2.106,1.64,2.729,2.762v-3.705c-1.902-1.675-4.08-2.512-6.539-2.512c-1.812,0-3.482,0.446-5.011,1.342
			c-0.769,0.461-1.461,0.998-2.075,1.612c-0.615,0.614-1.141,1.302-1.578,2.062c-0.897,1.545-1.346,3.219-1.346,5.021
			c0,1.811,0.449,3.484,1.346,5.02c0.881,1.529,2.099,2.744,3.652,3.651c1.513,0.905,3.183,1.355,5.011,1.355
			c2.45,0,4.63-0.819,6.539-2.462v-3.754c-0.622,1.123-1.532,2.044-2.729,2.762c-1.182,0.693-2.451,1.041-3.81,1.041
			c-1.359,0-2.634-0.34-3.823-1.017c-1.187-0.694-2.115-1.624-2.776-2.786c-0.527-0.9-0.847-1.865-0.966-2.896h7.031v-2.256h-6.965
			c0.152-0.869,0.459-1.689,0.923-2.453C115.691,180.2,116.617,179.264,117.814,178.537z"/>
		<path fill="#FFFFFF" d="M191.376,178.537c1.188-0.68,2.454-1.018,3.797-1.018c1.357,0,2.628,0.346,3.81,1.041
			c1.197,0.719,2.106,1.64,2.73,2.762v-3.705c-1.9-1.675-4.082-2.512-6.54-2.512c-1.813,0-3.482,0.446-5.011,1.342
			c-0.77,0.461-1.46,0.998-2.076,1.612c-0.614,0.614-1.141,1.302-1.576,2.062c-0.898,1.545-1.348,3.219-1.348,5.021
			c0,1.811,0.449,3.484,1.348,5.02c0.881,1.529,2.098,2.744,3.651,3.651c1.513,0.905,3.183,1.355,5.011,1.355
			c2.45,0,4.63-0.819,6.539-2.462v-3.754c-0.623,1.123-1.533,2.044-2.729,2.762c-1.182,0.693-2.451,1.041-3.81,1.041
			c-1.359,0-2.633-0.34-3.822-1.017c-1.188-0.694-2.115-1.624-2.777-2.786c-0.518-0.886-0.838-1.836-0.961-2.848h6.59v-2.257h-6.539
			c0.153-0.888,0.461-1.724,0.934-2.501C189.252,180.2,190.18,179.264,191.376,178.537z"/>
	</g>
	<path fill="#FFFFFF" d="M195.653,125.633l-1.121-7.772l-9.33,1.344l0.582,4.025l-0.979,1.057l0.274,0.35
		c-0.219,0.259-0.684,0.712-1.642,1.361c-0.8,0.542-1.157,0.538-1.417,0.455c-0.742-0.228-1.324-1.679-1.516-2.155
		c-0.386-0.958-0.558-4.237-0.484-5.897c0.087-1.918-0.926-6.789-4.493-8.763c-0.953-0.525-2.214-0.792-3.755-0.792
		c-3.409,0-8.367,1.415-10.428,3.701c-1.979,2.196-1.674,4.497-1.316,5.68l-3.389,0.988l-2.269,6.271l4.003,13.724
		c0,0,0.455,2.168,3.269,1.347c2.819-0.824,6.102-1.78,6.102-1.78s3.28-0.959,6.096-1.779c2.817-0.824,2.034-2.895,2.034-2.895
		l-4.005-13.722l-5.287-4.067l-3.776,1.104c-0.177-0.513-0.403-1.709,0.695-2.928c1.269-1.409,5.303-2.741,8.298-2.741
		c0.999,0,1.823,0.152,2.322,0.429c2.401,1.328,3.045,5.178,3.003,6.096c-0.058,1.296,0,5.388,0.688,7.101
		c0.385,0.963,1.285,3.219,3.363,3.855c0.343,0.103,0.697,0.154,1.058,0.154c0.381,0,0.772-0.058,1.161-0.171
		c0.549-0.159,1.112-0.434,1.674-0.815c0.777-0.527,1.395-1.026,1.871-1.506L195.653,125.633z"/>
	
		<rect x="105.414" y="109.075" transform="matrix(-0.9813 -0.1926 0.1926 -0.9813 221.5949 289.9643)" fill="#FFFFFF" width="38.952" height="50.273"/>
	
		<rect x="113.58" y="115.65" transform="matrix(-0.9813 -0.1926 0.1926 -0.9813 230.6507 258.2255)" width="28.592" height="4.504"/>
	
		<rect x="111.403" y="126.769" transform="matrix(-0.9813 -0.1926 0.1926 -0.9813 224.1976 279.8336)" width="28.593" height="4.502"/>
	
		<rect x="109.489" y="137.552" transform="matrix(-0.9813 -0.1926 0.1926 -0.9813 218.3278 300.8319)" width="28.593" height="4.505"/>
	<path fill="#FFFFFF" d="M195.688,133.48c-4.31,0.061-20.218,10.212-20.963,10.742c-0.745,0.531,0.192,1.845,0.192,1.845l1.56,2.627
		l1.56,2.627c0,0,0.701,1.455,1.526,1.057c0.822-0.398,17.359-9.495,19.477-13.246c0,0,1.932-1.57,0.44-4.083
		C197.989,132.539,195.688,133.48,195.688,133.48z"/>
	<path d="M197.363,136.307c0.283,0.477,0.283,1.001,0,1.171l-14.179,8.408c-0.284,0.168-0.742-0.083-1.025-0.559l0,0
		c-0.285-0.479-0.282-1,0.003-1.168l14.176-8.41C196.62,135.578,197.081,135.829,197.363,136.307L197.363,136.307z"/>
	<polygon points="175.666,143.609 180.552,151.849 181.484,151.33 176.533,142.988 	"/>
	<path fill="#FFFFFF" d="M179.287,151.918l-20.691,12.273c0,0-7.798,4.626-10.442,1.33l-0.068-0.115
		c-1.628-3.906,6.172-8.529,6.172-8.529l20.692-12.273"/>
</g>
</svg>
