<?xml version="1.0" encoding="utf-8"?>
<!-- Generator: Adobe Illustrator 15.0.0, SVG Export Plug-In . SVG Version: 6.00 Build 0)  -->
<!DOCTYPE svg PUBLIC "-//W3C//DTD SVG 1.1//EN" "http://www.w3.org/Graphics/SVG/1.1/DTD/svg11.dtd">
<svg version="1.1" id="Layer_1" xmlns="http://www.w3.org/2000/svg" xmlns:xlink="http://www.w3.org/1999/xlink" x="0px" y="0px"
	 width="500px" height="250px" viewBox="0 0 500 250" enable-background="new 0 0 500 250" xml:space="preserve">
<rect fill="#FFFFFF" width="500" height="250"/>
<g>
	<path d="M111.552,66.865h7.792v60.75c-2.294-0.896-4.562-1.951-6.803-3.164s-4.476-2.617-6.704-4.213s-4.199-3.184-5.912-4.766
		c-2.953-2.637-5.643-5.656-8.068-9.057c-2.426-3.402-4.549-7.133-6.368-11.193c-3.718-8.174-5.577-17.627-5.577-28.358h7.94
		c0,5.457,0.612,10.691,1.836,15.702c1.226,5.01,2.931,9.518,5.116,13.525c2.002,3.797,4.529,7.344,7.584,10.641
		c2.871,2.979,5.925,5.404,9.164,7.277V66.865z"/>
	<path d="M188.058,66.865c6.908,1.08,13.25,3.757,19.024,8.028c5.801,4.298,10.362,9.15,13.685,14.554V66.865h7.791v60.75h-7.791
		v-14.08c0-3.955-0.805-7.898-2.414-11.826c-0.816-1.926-1.76-3.783-2.826-5.576c-1.068-1.793-2.262-3.508-3.58-5.143
		c-2.584-3.189-5.312-5.879-8.187-8.068c-2.9-2.293-5.484-3.784-7.752-4.469v49.163h-7.95V66.865z"/>
	<path d="M238.703,79.679l-2.841-8.029c6.275-4.746,13.025-7.119,20.25-7.119c3.665,0,7.33,0.619,10.995,1.859
		c3.48,1.186,6.565,2.939,9.255,5.26l-3.006,8.029c-4.535-3.744-8.965-6.078-13.289-7.001v54.937h-7.95V72.678
		c-2.236,0.448-4.524,1.266-6.864,2.452C242.832,76.396,240.649,77.912,238.703,79.679z"/>
	<path d="M283.666,66.865h7.949v45.252c0,2.74,1.013,5.086,3.039,7.035c2.079,1.949,4.435,2.926,7.066,2.926
		c2.685,0,5.078-0.977,7.185-2.926c2.053-1.977,3.079-4.32,3.079-7.035V66.865h7.712v45.286c0,3.137-0.804,6.084-2.412,8.84
		c-1.608,2.754-3.797,4.938-6.565,6.545c-2.821,1.607-5.814,2.412-8.979,2.412c-4.904,0-9.123-1.805-12.656-5.418
		c-3.612-3.533-5.418-7.66-5.418-12.379V66.865z"/>
	<path d="M335.583,101.867c3.691-0.316,6.908-1.754,9.65-4.311c2.637-2.453,3.955-5.445,3.955-8.979
		c0-2.426-0.645-4.641-1.938-6.645c-1.318-1.925-3.099-3.52-5.34-4.786c-2.188-1.188-4.641-1.78-7.356-1.78v52.248h-7.948v-60.75
		c3.111,0,5.76,0.105,7.948,0.316c3.955,0.236,7.699,1.318,11.232,3.242c3.401,1.846,6.132,4.391,8.188,7.634
		c2.004,3.216,3.006,6.724,3.006,10.521c0,3.85-1.029,7.383-3.086,10.6c-2.135,3.322-4.918,5.893-8.346,7.713
		c2.03,3.639,4.324,6.736,6.882,9.293c2.689,2.77,5.366,4.746,8.03,5.934v7.83c-4.535-1.529-8.426-3.703-11.669-6.525
		c-3.296-2.82-5.972-6.012-8.028-9.57C338.63,110.08,336.901,106.086,335.583,101.867z"/>
	<path d="M147.136,75.718c3.876-2.211,8.002-3.316,12.379-3.316c4.43,0,8.57,1.131,12.42,3.395c3.902,2.344,6.868,5.346,8.898,9.004
		V72.717c-6.196-5.458-13.303-8.187-21.318-8.187c-5.906,0-11.351,1.457-16.334,4.373c-2.505,1.502-4.76,3.256-6.764,5.258
		c-2.004,2.004-3.717,4.244-5.141,6.721c-2.928,5.036-4.391,10.491-4.391,16.37c0,5.902,1.463,11.359,4.391,16.367
		c2.873,4.982,6.842,8.949,11.904,11.9c4.931,2.951,10.375,4.428,16.334,4.428c7.99,0,15.096-2.676,21.318-8.027v-12.242
		c-2.03,3.66-4.996,6.66-8.898,9.004c-3.85,2.264-7.99,3.396-12.42,3.396s-8.582-1.107-12.458-3.318
		c-3.876-2.264-6.896-5.291-9.058-9.082c-1.714-2.934-2.757-6.084-3.145-9.443h22.922v-7.355h-22.711c0.503-2.836,1.5-5.504,3.014-8
		C140.214,81.143,143.233,78.087,147.136,75.718z"/>
	<path d="M386.948,75.718c3.876-2.211,8.002-3.316,12.379-3.316c4.43,0,8.568,1.131,12.418,3.395c3.902,2.344,6.87,5.346,8.9,9.004
		V72.717c-6.196-5.458-13.303-8.187-21.318-8.187c-5.906,0-11.351,1.457-16.334,4.373c-2.505,1.502-4.76,3.256-6.764,5.258
		c-2.004,2.004-3.719,4.244-5.143,6.721c-2.926,5.036-4.389,10.491-4.389,16.37c0,5.902,1.463,11.359,4.389,16.367
		c2.875,4.982,6.844,8.949,11.906,11.9c4.931,2.951,10.375,4.428,16.334,4.428c7.988,0,15.096-2.676,21.318-8.027v-12.242
		c-2.03,3.66-4.998,6.66-8.9,9.004c-3.85,2.264-7.988,3.396-12.418,3.396s-8.582-1.107-12.458-3.318
		c-3.876-2.264-6.896-5.291-9.058-9.082c-1.689-2.889-2.729-5.986-3.131-9.287h21.484v-7.355h-21.314
		c0.494-2.895,1.499-5.615,3.039-8.156C380.026,81.143,383.046,78.087,386.948,75.718z"/>
</g>
<rect x="61.399" y="157.626" fill="none" width="376.803" height="21.02"/>
<text transform="matrix(1 0 0 1 148.4482 172.584)" font-family="'DIN-Light'" font-size="21" letter-spacing="10">SINCE 1972</text>
</svg>
