<?xml version="1.0" encoding="utf-8"?>
<!-- Generator: Adobe Illustrator 15.0.0, SVG Export Plug-In . SVG Version: 6.00 Build 0)  -->
<!DOCTYPE svg PUBLIC "-//W3C//DTD SVG 1.1//EN" "http://www.w3.org/Graphics/SVG/1.1/DTD/svg11.dtd">
<svg version="1.1" id="Layer_1" xmlns="http://www.w3.org/2000/svg" xmlns:xlink="http://www.w3.org/1999/xlink" x="0px" y="0px"
	 width="700px" height="366.334px" viewBox="0 0 700 366.334" enable-background="new 0 0 700 366.334" xml:space="preserve">
<rect fill="#FFFFFF" width="700" height="366.334"/>
<g>
	<path d="M134.312,108.325h12.12v94.499c-3.568-1.393-7.096-3.035-10.582-4.922c-3.486-1.885-6.963-4.068-10.429-6.551
		c-3.466-2.481-6.531-4.952-9.197-7.414c-4.594-4.101-8.777-8.798-12.551-14.089s-7.075-11.095-9.905-17.411
		c-5.783-12.714-8.675-27.418-8.675-44.112h12.352c0,8.49,0.951,16.633,2.855,24.425c1.906,7.793,4.559,14.807,7.959,21.041
		c3.113,5.906,7.045,11.423,11.797,16.55c4.466,4.636,9.217,8.408,14.256,11.32V108.325z"/>
	<path d="M253.319,108.325c10.746,1.683,20.611,5.845,29.594,12.489c9.023,6.686,16.119,14.233,21.287,22.641v-35.13h12.119v94.499
		H304.2v-21.901c0-6.152-1.252-12.283-3.754-18.396c-1.271-2.993-2.737-5.885-4.397-8.675c-1.662-2.789-3.519-5.454-5.569-7.998
		c-4.02-4.962-8.264-9.146-12.734-12.551c-4.512-3.568-8.531-5.885-12.059-6.952v76.473h-12.367V108.325z"/>
	<path d="M332.102,128.259l-4.418-12.489c9.762-7.383,20.262-11.074,31.5-11.074c5.701,0,11.402,0.964,17.104,2.892
		c5.414,1.846,10.213,4.574,14.396,8.183l-4.676,12.489c-7.055-5.823-13.945-9.453-20.672-10.89v85.455h-12.368v-85.455
		c-3.478,0.698-7.038,1.969-10.678,3.814C338.525,123.152,335.129,125.512,332.102,128.259z"/>
	<path d="M402.045,108.325h12.364v70.395c0,4.263,1.575,7.91,4.728,10.941c3.235,3.035,6.899,4.55,10.992,4.55
		c4.176,0,7.9-1.515,11.176-4.55c3.193-3.073,4.791-6.72,4.791-10.941v-70.395h11.995v70.444c0,4.882-1.249,9.465-3.751,13.751
		s-5.906,7.681-10.213,10.181c-4.389,2.502-9.046,3.755-13.968,3.755c-7.629,0-14.191-2.812-19.688-8.431
		c-5.619-5.496-8.427-11.913-8.427-19.256V108.325z"/>
	<path d="M482.805,162.773c5.742-0.492,10.746-2.728,15.012-6.706c4.102-3.814,6.152-8.469,6.152-13.966
		c0-3.773-1.004-7.219-3.014-10.336c-2.051-2.993-4.82-5.476-8.307-7.444c-3.404-1.846-7.219-2.769-11.443-2.769v81.271H468.84
		v-94.499c4.84,0,8.961,0.164,12.365,0.492c6.152,0.369,11.977,2.052,17.473,5.045c5.291,2.871,9.537,6.829,12.736,11.874
		c3.117,5.005,4.676,10.459,4.676,16.365c0,5.989-1.6,11.484-4.799,16.488c-3.322,5.168-7.65,9.167-12.982,11.997
		c3.158,5.66,6.727,10.48,10.705,14.458c4.184,4.308,8.348,7.384,12.49,9.229v12.182c-7.055-2.379-13.105-5.763-18.15-10.153
		c-5.127-4.389-9.289-9.352-12.488-14.888C487.543,175.55,484.855,169.336,482.805,162.773z"/>
	<path d="M189.664,122.098c6.029-3.439,12.448-5.159,19.257-5.159c6.891,0,13.33,1.761,19.318,5.282
		c6.07,3.646,10.685,8.313,13.843,14.006V117.43c-9.639-8.489-20.692-12.734-33.161-12.734c-9.188,0-17.657,2.268-25.409,6.803
		c-3.896,2.338-7.403,5.063-10.521,8.179c-3.117,3.117-5.783,6.602-7.998,10.456c-4.553,7.83-6.829,16.318-6.829,25.461
		c0,9.185,2.276,17.672,6.829,25.462c4.471,7.75,10.644,13.92,18.519,18.513c7.67,4.591,16.14,6.888,25.409,6.888
		c12.428,0,23.481-4.163,33.161-12.491v-19.04c-3.158,5.692-7.772,10.361-13.843,14.005c-5.988,3.522-12.428,5.281-19.318,5.281
		s-13.351-1.72-19.38-5.158c-6.029-3.522-10.726-8.231-14.089-14.128c-2.667-4.564-4.289-9.463-4.892-14.69h35.656v-11.441h-35.329
		c0.782-4.411,2.333-8.562,4.688-12.443C178.897,130.534,183.594,125.783,189.664,122.098z"/>
	<path d="M562.705,122.098c6.029-3.439,12.447-5.159,19.256-5.159c6.891,0,13.33,1.761,19.318,5.282
		c6.07,3.646,10.686,8.313,13.844,14.006V117.43c-9.639-8.489-20.693-12.734-33.162-12.734c-9.188,0-17.656,2.268-25.408,6.803
		c-3.896,2.338-7.404,5.063-10.521,8.179c-3.117,3.117-5.783,6.602-7.998,10.456c-4.553,7.83-6.828,16.318-6.828,25.461
		c0,9.185,2.275,17.672,6.828,25.462c4.471,7.75,10.645,13.92,18.52,18.513c7.67,4.591,16.139,6.888,25.408,6.888
		c12.428,0,23.482-4.163,33.162-12.491v-19.04c-3.158,5.692-7.773,10.361-13.844,14.005c-5.988,3.522-12.428,5.281-19.318,5.281
		s-13.35-1.72-19.379-5.158c-6.029-3.522-10.727-8.231-14.09-14.128c-2.626-4.494-4.244-9.312-4.868-14.448h33.418v-11.441h-33.154
		c0.769-4.501,2.331-8.734,4.728-12.686C551.938,130.534,556.635,125.783,562.705,122.098z"/>
</g>
<rect x="85.678" y="224.702" fill="none" width="527.523" height="29.428"/>
<text transform="matrix(1 0 0 1 198.5371 248.9375)" font-family="'Futura-Medium'" font-size="29.4" letter-spacing="14">SINCE 1972</text>
</svg>
