<?xml version="1.0" encoding="utf-8"?>
<!-- Generator: Adobe Illustrator 15.0.0, SVG Export Plug-In . SVG Version: 6.00 Build 0)  -->
<!DOCTYPE svg PUBLIC "-//W3C//DTD SVG 1.1//EN" "http://www.w3.org/Graphics/SVG/1.1/DTD/svg11.dtd">
<svg version="1.1" id="Layer_1" xmlns="http://www.w3.org/2000/svg" xmlns:xlink="http://www.w3.org/1999/xlink" x="0px" y="0px"
	 width="190px" height="190px" viewBox="55 55 190 190" enable-background="new 55 55 190 190" xml:space="preserve">
<rect x="55" y="55" fill="#FFFFFF" width="190" height="190"/>
<g>
	<rect x="81.731" y="82.18" width="136.087" height="136.085"/>
	<g>
		<path fill="#FFFFFF" d="M105.988,171.658h2.482v19.359c-0.731-0.283-1.453-0.623-2.168-1.008
			c-0.714-0.387-1.426-0.834-2.137-1.342c-0.71-0.508-1.339-1.014-1.883-1.52c-0.941-0.838-1.798-1.803-2.572-2.889
			c-0.772-1.082-1.449-2.27-2.028-3.564c-1.186-2.605-1.778-5.617-1.778-9.037h2.53c0,1.74,0.194,3.408,0.585,5.004
			s0.935,3.033,1.631,4.309c0.638,1.213,1.443,2.342,2.418,3.391c0.913,0.949,1.889,1.721,2.92,2.32V171.658z"/>
		<path fill="#FFFFFF" d="M130.368,171.658c2.201,0.346,4.223,1.197,6.063,2.561c1.848,1.369,3.301,2.914,4.361,4.639v-7.199h2.482
			v19.359h-2.482v-4.486c0-1.262-0.258-2.518-0.77-3.768c-0.261-0.613-0.562-1.205-0.9-1.779c-0.341-0.568-0.721-1.115-1.142-1.635
			c-0.823-1.02-1.692-1.877-2.608-2.574c-0.924-0.73-1.748-1.205-2.471-1.422v15.664h-2.533L130.368,171.658L130.368,171.658z"/>
		<path fill="#FFFFFF" d="M146.508,175.742l-0.905-2.557c1.999-1.516,4.15-2.271,6.453-2.271c1.168,0,2.337,0.199,3.503,0.596
			c1.111,0.377,2.092,0.936,2.95,1.676l-0.958,2.557c-1.446-1.193-2.857-1.936-4.235-2.23v17.506h-2.532v-17.506
			c-0.713,0.145-1.443,0.404-2.188,0.781C147.825,174.695,147.129,175.182,146.508,175.742z"/>
		<path fill="#FFFFFF" d="M160.838,171.658h2.53v14.424c0,0.871,0.323,1.621,0.972,2.24c0.661,0.621,1.411,0.934,2.251,0.934
			c0.856,0,1.618-0.312,2.288-0.934c0.655-0.631,0.982-1.377,0.982-2.24v-14.424h2.457v14.432c0,1-0.256,1.939-0.769,2.818
			c-0.512,0.877-1.21,1.572-2.092,2.084c-0.899,0.514-1.853,0.768-2.861,0.768c-1.562,0-2.908-0.574-4.032-1.725
			c-1.153-1.127-1.727-2.441-1.727-3.945V171.658L160.838,171.658z"/>
		<path fill="#FFFFFF" d="M177.381,182.814c1.177-0.102,2.201-0.559,3.076-1.375c0.84-0.779,1.26-1.734,1.26-2.861
			c0-0.773-0.206-1.477-0.617-2.117c-0.421-0.611-0.988-1.121-1.704-1.525c-0.696-0.375-1.478-0.564-2.342-0.564v16.646h-2.534
			V171.66c0.992,0,1.836,0.031,2.534,0.102c1.261,0.076,2.454,0.42,3.577,1.033c1.085,0.588,1.955,1.398,2.611,2.434
			c0.638,1.025,0.957,2.143,0.957,3.35c0,1.23-0.328,2.357-0.982,3.379c-0.68,1.061-1.567,1.881-2.659,2.459
			c0.647,1.158,1.378,2.146,2.194,2.963c0.854,0.879,1.708,1.512,2.558,1.887v2.498c-1.447-0.488-2.686-1.182-3.721-2.08
			c-1.048-0.898-1.901-1.916-2.558-3.051C178.352,185.43,177.802,184.158,177.381,182.814z"/>
		<path fill="#FFFFFF" d="M117.327,174.48c1.235-0.705,2.549-1.057,3.944-1.057c1.412,0,2.73,0.359,3.959,1.082
			c1.243,0.748,2.188,1.705,2.835,2.869v-3.85c-1.974-1.74-4.238-2.611-6.794-2.611c-1.882,0-3.617,0.465-5.205,1.395
			c-0.797,0.48-1.516,1.039-2.155,1.676c-0.639,0.639-1.185,1.354-1.638,2.143c-0.934,1.602-1.4,3.342-1.4,5.217
			c0,1.883,0.467,3.619,1.4,5.217c0.914,1.586,2.18,2.852,3.793,3.791c1.572,0.943,3.307,1.412,5.205,1.412
			c2.547,0,4.812-0.854,6.794-2.561v-3.898c-0.646,1.166-1.592,2.125-2.835,2.867c-1.229,0.723-2.546,1.084-3.959,1.084
			c-1.411,0-2.734-0.354-3.969-1.057c-1.236-0.721-2.197-1.688-2.887-2.895c-0.547-0.936-0.88-1.938-1.003-3.01h7.305v-2.344h-7.237
			c0.161-0.904,0.478-1.754,0.96-2.549C115.121,176.209,116.085,175.236,117.327,174.48z"/>
		<path fill="#FFFFFF" d="M193.749,174.48c1.235-0.705,2.551-1.057,3.945-1.057c1.411,0,2.73,0.359,3.957,1.082
			c1.244,0.748,2.188,1.705,2.836,2.869v-3.85c-1.975-1.74-4.239-2.611-6.793-2.611c-1.884,0-3.618,0.465-5.206,1.395
			c-0.797,0.48-1.517,1.039-2.156,1.676c-0.639,0.639-1.186,1.354-1.638,2.143c-0.933,1.602-1.396,3.342-1.396,5.217
			c0,1.883,0.464,3.619,1.396,5.217c0.916,1.586,2.181,2.852,3.795,3.791c1.569,0.943,3.308,1.412,5.205,1.412
			c2.548,0,4.81-0.854,6.793-2.561v-3.898c-0.646,1.166-1.592,2.125-2.836,2.867c-1.227,0.723-2.546,1.084-3.957,1.084
			c-1.412,0-2.734-0.354-3.971-1.057c-1.234-0.721-2.196-1.688-2.886-2.895c-0.537-0.92-0.87-1.908-0.996-2.959h6.845V180h-6.792
			c0.155-0.922,0.478-1.787,0.97-2.598C191.543,176.209,192.507,175.236,193.749,174.48z"/>
	</g>
	
		<rect x="151.811" y="96.894" transform="matrix(-0.9254 0.3791 -0.3791 -0.9254 367.3776 162.4616)" fill="#FFFFFF" width="31.77" height="41.002"/>
	
		<rect x="150.742" y="103.1" transform="matrix(-0.9253 0.3792 -0.3792 -0.9253 352.4695 140.4518)" width="23.322" height="3.674"/>
	
		<rect x="154.257" y="111.665" transform="matrix(-0.9254 0.3791 -0.3791 -0.9254 362.4753 155.6362)" width="23.32" height="3.672"/>
	
		<rect x="157.791" y="119.846" transform="matrix(-0.9253 0.3792 -0.3792 -0.9253 372.3887 170.0201)" width="23.319" height="3.674"/>
	<path fill="#FFFFFF" d="M203.302,135.853c-4.346-1.072-23.008,4.946-23.894,5.285c-0.889,0.337-0.292,1.904-0.292,1.904
		l0.877,3.052l0.876,3.051c0,0,0.322,1.646,1.257,1.462c0.931-0.186,19.944-4.98,23.06-8.192c0,0,2.353-1.071,1.515-3.987
		C205.862,135.511,203.302,135.853,203.302,135.853z"/>
	<path d="M204.242,139.13c0.159,0.555,0.021,1.081-0.307,1.178l-16.462,4.724c-0.331,0.094-0.725-0.278-0.883-0.831l0,0
		c-0.163-0.556-0.021-1.08,0.309-1.175l16.458-4.726C203.688,138.205,204.083,138.577,204.242,139.13L204.242,139.13z"/>
	<polygon points="180.515,140.767 183.261,150.333 184.331,150.056 181.55,140.371 	"/>
	<path fill="#FFFFFF" d="M181.97,150.07l-24.024,6.895c0,0-9.053,2.6-10.845-1.408l-0.037-0.137
		c-0.608-4.35,8.446-6.947,8.446-6.947l24.025-6.896"/>
	<path fill="#FFFFFF" d="M143.96,144.043c0.263-10.26-2.265-30.444-3.36-34.191c-1.741-5.959-5.021-9.691-9.493-10.82l0.001-0.005
		l-0.315-0.07l-0.002,0.005c-4.529-0.871-9.08,1.123-13.182,5.781c-2.565,2.915-4.193,5.999-4.667,6.944
		c0,0-8.791,13.163-12.908,22.599c-4.118,9.437-1.79,12.784,0.164,14.188c1.951,1.404,18.563,5.256,18.563,5.256
		s16.679,3.543,19.042,3.098C140.168,156.383,143.695,154.334,143.96,144.043z M125.369,123.983
		c-10.747-2.386-9.527-10.494-9.418-11.108c1.188-2.293,6.815-12.245,14.299-10.738c7.354,1.786,8.287,13.065,8.407,15.736
		l-0.043-0.003C138.614,117.87,136.543,126.467,125.369,123.983z"/>
	<rect x="87.268" y="199.223" fill="none" width="125.525" height="9.764"/>
	
		<text transform="matrix(1 0 0 1 99.9658 207.2471)" fill="#FFFFFF" font-family="'Futura-Medium'" font-size="9.7537" letter-spacing="4">SINCE 1972</text>
</g>
</svg>
