<?xml version="1.0" encoding="utf-8"?>
<!-- Generator: Adobe Illustrator 15.0.0, SVG Export Plug-In . SVG Version: 6.00 Build 0)  -->
<!DOCTYPE svg PUBLIC "-//W3C//DTD SVG 1.1//EN" "http://www.w3.org/Graphics/SVG/1.1/DTD/svg11.dtd">
<svg version="1.1" id="Layer_1" xmlns="http://www.w3.org/2000/svg" xmlns:xlink="http://www.w3.org/1999/xlink" x="0px" y="0px"
	 width="80.062px" height="80.386px" viewBox="265.969 355.807 80.062 80.386"
	 enable-background="new 265.969 355.807 80.062 80.386" xml:space="preserve">
<g>
	<g>
		<path fill="#D89DB2" d="M338.84,374.957c0.498-0.576,0.564-1.498,0.148-2.047c-0.415-0.55-1.364-0.867-2.108-0.706l-2.136,0.466
			c-0.744,0.162-1.669-0.125-2.057-0.637c-0.389-0.512-0.475-1.509-0.191-2.216l0.771-1.934c0.282-0.707,0.106-1.662-0.39-2.122
			c-0.496-0.46-1.429-0.502-2.071-0.095l-2.136,1.353c-0.643,0.407-1.687,0.475-2.32,0.15c-0.633-0.325-1.058-1.206-0.942-1.959
			l0.345-2.283c0.114-0.753-0.3-1.62-0.919-1.927c-0.62-0.307-1.511-0.068-1.979,0.532l-1.825,2.332
			c-0.47,0.6-1.332,0.746-1.919,0.325s-1.054-1.388-1.036-2.149l0.042-1.975c0.017-0.761-0.508-1.611-1.166-1.889
			c-0.658-0.278-1.563-0.002-2.012,0.612l-1.369,1.877c-0.448,0.615-1.372,0.856-2.053,0.535c-0.68-0.321-1.396-1.185-1.59-1.921
			l-0.574-2.177c-0.193-0.736-0.798-1.377-1.34-1.424c-0.543-0.047-1.218,0.493-1.5,1.201l-0.997,2.501
			c-0.282,0.708-1.058,1.275-1.725,1.261s-1.502-0.576-1.858-1.25l-1.217-2.305c-0.355-0.673-1.128-1.152-1.718-1.065
			c-0.589,0.087-1.143,0.778-1.229,1.535l-0.255,2.236c-0.086,0.757-0.752,1.557-1.479,1.778c-0.728,0.222-1.729-0.069-2.226-0.646
			l-1.756-2.04c-0.497-0.577-1.272-0.892-1.724-0.7c-0.451,0.192-0.818,0.972-0.815,1.733l0.01,2.421
			c0.003,0.761-0.503,1.647-1.125,1.969c-0.622,0.322-1.628,0.209-2.235-0.25l-2.095-1.583c-0.607-0.459-1.481-0.549-1.943-0.201
			c-0.462,0.349-0.674,1.235-0.473,1.969l0.722,2.629c0.201,0.734-0.005,1.688-0.458,2.121c-0.453,0.433-1.387,0.519-2.075,0.192
			l-1.729-0.82c-0.688-0.327-1.716-0.242-2.286,0.188c-0.569,0.43-0.717,1.318-0.329,1.973l1.34,2.262
			c0.388,0.655,0.361,1.671-0.061,2.257c-0.421,0.586-1.365,0.896-2.097,0.688l-2.031-0.576c-0.732-0.208-1.684,0.06-2.115,0.594
			c-0.431,0.534-0.408,1.469,0.051,2.076l1.773,2.346c0.459,0.607,0.708,1.549,0.554,2.094c-0.155,0.544-0.903,1.018-1.664,1.052
			l-2.165,0.098c-0.761,0.034-1.548,0.651-1.75,1.37c-0.202,0.719,0.176,1.614,0.839,1.987l1.369,0.771
			c0.664,0.374,1.189,1.302,1.168,2.063v0.003c-0.021,0.761-0.637,1.555-1.369,1.765l-2.42,0.693
			c-0.732,0.209-1.321,0.911-1.308,1.558c0.012,0.647,0.594,1.423,1.293,1.725l0.836,0.361c0.699,0.301,1.481,1.134,1.738,1.851
			l0.272,0.762c0.257,0.717-0.108,1.541-0.812,1.833l-2.038,0.846c-0.703,0.292-1.218,0.997-1.145,1.567
			c0.073,0.569,0.746,1.149,1.495,1.289l2.699,0.497c0.749,0.14,1.562,0.712,1.806,1.271s-0.053,1.395-0.66,1.854l-1.587,1.199
			c-0.607,0.459-0.881,1.323-0.608,1.92c0.273,0.599,1.119,1.054,1.879,1.014l1.717-0.092c0.76-0.04,1.713,0.454,2.118,1.101
			l0.098,0.156c0.404,0.646,0.308,1.626-0.214,2.181l-1.291,1.37c-0.522,0.555-0.668,1.562-0.325,2.243l0.061,0.12
			c0.343,0.68,1.22,1.053,1.947,0.829l2.901-0.89c0.728-0.223,1.714-0.018,2.191,0.456c0.478,0.475,0.632,1.438,0.344,2.144
			l-1.008,2.463c-0.289,0.705,0.034,1.558,0.716,1.896l0.119,0.06c0.682,0.339,1.737,0.238,2.344-0.221l1.518-1.146
			c0.607-0.459,1.553-0.468,2.102-0.019c0.549,0.45,0.89,1.433,0.758,2.183l-0.4,2.276c-0.132,0.75,0.326,1.596,1.017,1.877
			c0.691,0.283,1.729,0.109,2.307-0.387l1.125-0.966c0.578-0.496,1.386-0.715,1.796-0.485c0.41,0.229,0.736,1.038,0.725,1.799
			l-0.027,1.729c-0.012,0.761,0.474,1.603,1.081,1.871c0.606,0.268,1.462-0.021,1.902-0.644l2.096-2.958
			c0.44-0.621,1.163-1.036,1.605-0.925c0.442,0.112,0.955,0.81,1.137,1.548l0.917,3.707c0.183,0.739,0.928,1.261,1.655,1.157
			c0.728-0.102,1.472-0.791,1.652-1.53l0.773-3.165c0.181-0.738,0.714-1.318,1.185-1.287c0.471,0.03,1.122,0.619,1.447,1.309
			l1.285,2.725c0.324,0.688,1.196,1.111,1.938,0.939l0.404-0.095c0.742-0.173,1.311-0.936,1.264-1.694l-0.176-2.87
			c-0.047-0.76,0.362-1.501,0.909-1.646c0.546-0.146,1.354,0.242,1.798,0.861l2.113,2.96c0.441,0.619,1.403,0.957,2.137,0.751
			l0.31-0.088c0.732-0.206,1.164-0.975,0.959-1.708l-0.957-3.422c-0.204-0.733,0.163-1.592,0.818-1.908s1.611-0.115,2.124,0.446
			l2.576,2.824c0.513,0.562,1.462,0.693,2.107,0.293l0.164-0.103c0.646-0.4,1.001-1.326,0.787-2.058l-1.067-3.647
			c-0.216-0.729,0.014-1.634,0.508-2.007c0.493-0.372,1.459-0.409,2.146-0.081l2.424,1.158c0.688,0.328,1.63,0.163,2.094-0.367
			c0.465-0.529,0.52-1.495,0.122-2.145l-1.322-2.16c-0.397-0.649-0.335-1.571,0.139-2.05c0.475-0.479,1.467-0.726,2.208-0.548
			l1.671,0.396c0.741,0.177,1.638-0.166,1.991-0.762c0.354-0.597,0.276-1.587-0.173-2.201l-1.688-2.304
			c-0.448-0.614-0.543-1.562-0.207-2.104c0.337-0.542,1.23-0.926,1.988-0.852l2.16,0.209c0.758,0.073,1.559-0.37,1.78-0.984
			c0.221-0.613-0.097-1.493-0.703-1.952l-2.095-1.584c-0.607-0.459-1.044-1.367-0.972-2.021c0.073-0.653,0.746-1.299,1.495-1.438
			l2.034-0.377c0.749-0.14,1.484-0.862,1.635-1.608l0.047-0.229c0.15-0.746-0.296-1.607-0.991-1.917l-3.172-1.402
			c-0.695-0.308-1.2-1.023-1.122-1.59c0.078-0.566,0.733-1.226,1.456-1.465l2.229-0.738c0.723-0.24,1.265-0.984,1.205-1.655
			s-0.72-1.334-1.468-1.475l-2.336-0.438c-0.748-0.141-1.452-0.796-1.563-1.457c-0.112-0.661,0.271-1.605,0.852-2.098l1.321-1.126
			c0.58-0.493,0.87-1.368,0.645-1.943c-0.227-0.575-1.033-1.061-1.794-1.08l-2.096-0.052c-0.761-0.019-1.592-0.438-1.846-0.932
			s-0.055-1.37,0.443-1.946L338.84,374.957z M323.824,419.167c-12.779,9.662-30.972,7.134-40.633-5.645
			c-9.662-12.78-7.134-30.972,5.646-40.633c12.78-9.663,30.971-7.135,40.633,5.645C339.131,391.313,336.604,409.505,323.824,419.167
			z"/>
	</g>
</g>
<g>
	<g>
		<path fill="#D89DB2" d="M317.389,389.906c-8.471-1.26-11.365-6.166-11.365-6.166c-0.387-0.655-1.104-1.67-1.591-2.254
			l-10.509-12.591c-0.488-0.584-1.35-0.646-1.916-0.136l-1.729,1.558c-0.565,0.51-0.797,1.505-0.516,2.212
			c0,0,3.417,8.569,6.755,16.453c3.34,7.886,0.661,12.917,0.661,12.917c-0.358,0.672-0.851,1.812-1.096,2.531l-5.27,15.531
			c-0.245,0.721,0.119,1.575,0.808,1.899l2.267,1.065c0.689,0.324,1.645,0.105,2.125-0.484c0,0,5.813-7.161,11.067-13.926
			c5.256-6.762,10.952-6.876,10.952-6.876c0.761-0.016,1.996-0.142,2.745-0.278l16.129-2.979c0.749-0.138,1.142-0.834,0.874-1.546
			l-0.977-2.594c-0.268-0.712-1.102-1.4-1.852-1.528C334.953,392.715,325.86,391.165,317.389,389.906z M310.381,400.123
			c-2.458,1.859-5.957,1.373-7.816-1.086c-1.859-2.458-1.373-5.958,1.086-7.816c2.458-1.858,5.958-1.373,7.816,1.086
			C313.326,394.765,312.84,398.264,310.381,400.123z"/>
	</g>
</g>
</svg>
