<?xml version="1.0" encoding="utf-8"?>
<!-- Generator: Adobe Illustrator 15.0.0, SVG Export Plug-In . SVG Version: 6.00 Build 0)  -->
<!DOCTYPE svg PUBLIC "-//W3C//DTD SVG 1.1//EN" "http://www.w3.org/Graphics/SVG/1.1/DTD/svg11.dtd">
<svg version="1.1" id="Layer_1" xmlns="http://www.w3.org/2000/svg" xmlns:xlink="http://www.w3.org/1999/xlink" x="0px" y="0px"
	 width="39.438px" height="39.052px" viewBox="286.281 376.474 39.438 39.052"
	 enable-background="new 286.281 376.474 39.438 39.052" xml:space="preserve">
<g>
	<g>
		<path fill="#D89DB2" d="M323.702,389.623c0.606-0.459,0.729-1.332,0.27-1.939l-0.626-0.829c-0.459-0.607-1.414-0.875-2.122-0.595
			l-1.435,0.566c-0.708,0.28-1.693,0.1-2.189-0.399c-0.496-0.499-0.773-1.518-0.617-2.263l0.405-1.93
			c0.156-0.745-0.188-1.762-0.763-2.259l-0.406-0.351c-0.575-0.498-1.544-0.529-2.15-0.07l-0.646,0.487
			c-0.606,0.459-1.572,0.732-2.144,0.608c-0.572-0.124-1.185-0.833-1.361-1.573l-0.292-1.226c-0.178-0.74-0.944-1.387-1.703-1.437
			l-0.584-0.038c-0.759-0.05-1.541,0.512-1.737,1.247l-0.493,1.853c-0.196,0.735-0.959,1.493-1.697,1.683l-0.224,0.058
			c-0.737,0.19-1.737-0.135-2.222-0.722l-1.619-1.958c-0.485-0.587-1.379-0.691-1.986-0.232l-0.091,0.069
			c-0.607,0.459-1.042,1.454-0.967,2.212l0.155,1.548c0.076,0.758-0.327,1.792-0.895,2.299l-0.048,0.043
			c-0.568,0.507-1.591,0.646-2.273,0.308l-1.448-0.717c-0.683-0.338-1.643-0.139-2.134,0.443l-0.579,0.686
			c-0.492,0.582-0.439,1.484,0.115,2.005l1.479,1.388c0.555,0.521,0.917,1.473,0.806,2.115s-0.812,1.294-1.558,1.45l-1.784,0.372
			c-0.745,0.156-1.456,0.897-1.579,1.649l-0.094,0.568c-0.123,0.751,0.38,1.52,1.118,1.707l1.612,0.41
			c0.738,0.188,1.514,0.938,1.724,1.671l0.123,0.43c0.21,0.731-0.104,1.718-0.7,2.191l-1.445,1.149
			c-0.596,0.475-0.834,1.434-0.531,2.131l0.269,0.615c0.304,0.698,1.137,1.057,1.852,0.794l1.478-0.541
			c0.715-0.262,1.734-0.028,2.265,0.518l0.015,0.016c0.531,0.546,0.696,1.554,0.366,2.24l-0.655,1.362
			c-0.33,0.688-0.121,1.646,0.465,2.135l0.604,0.502c0.585,0.486,1.542,0.485,2.127-0.001l1.598-1.332
			c0.584-0.487,1.667-0.733,2.404-0.546l0.182,0.047c0.738,0.188,1.387,0.962,1.442,1.722l0.139,1.896
			c0.056,0.76,0.722,1.427,1.481,1.482l1.068,0.08c0.759,0.057,1.442-0.518,1.519-1.273l0.146-1.47
			c0.075-0.757,0.754-1.472,1.506-1.587l0.504-0.076c0.752-0.114,1.744,0.287,2.203,0.896l1.007,1.332
			c0.459,0.606,1.375,0.793,2.034,0.413l0.824-0.476c0.659-0.38,0.943-1.259,0.63-1.953l-1.002-2.219
			c-0.312-0.693-0.085-1.653,0.507-2.133l0.539-0.438c0.592-0.479,1.584-0.511,2.205-0.068l1.489,1.057
			c0.621,0.441,1.611,0.408,2.202-0.072l0.358-0.29c0.59-0.48,0.697-1.371,0.238-1.979l-1.669-2.207
			c-0.459-0.607-0.697-1.712-0.528-2.454l0.022-0.096c0.169-0.742,0.922-1.445,1.674-1.563l2.567-0.399
			c0.752-0.118,1.391-0.836,1.42-1.598l0.021-0.509c0.028-0.761-0.559-1.501-1.307-1.645l-1.853-0.357
			c-0.748-0.144-1.6-0.666-1.894-1.159c-0.293-0.494-0.036-1.273,0.571-1.732L323.702,389.623z M310.507,401.911
			c-3.327,2.514-8.065,1.854-10.582-1.471c-2.516-3.328-1.856-8.066,1.471-10.581c3.329-2.518,8.066-1.861,10.582,1.467
			C314.494,394.655,313.835,399.394,310.507,401.911z"/>
	</g>
</g>
</svg>
