<?xml version="1.0" encoding="utf-8"?>
<!-- Generator: Adobe Illustrator 15.0.0, SVG Export Plug-In . SVG Version: 6.00 Build 0)  -->
<!DOCTYPE svg PUBLIC "-//W3C//DTD SVG 1.1//EN" "http://www.w3.org/Graphics/SVG/1.1/DTD/svg11.dtd">
<svg version="1.1" id="Layer_1" xmlns="http://www.w3.org/2000/svg" xmlns:xlink="http://www.w3.org/1999/xlink" x="0px" y="0px"
	 width="85.526px" height="83.567px" viewBox="263.237 354.216 85.526 83.567"
	 enable-background="new 263.237 354.216 85.526 83.567" xml:space="preserve">
<g>
	<g>
		
			<rect x="294.419" y="403.275" transform="matrix(0.9064 0.4225 -0.4225 0.9064 202.8784 -86.4808)" fill="#BA6D82" width="4.29" height="22.468"/>
		
			<rect x="325.467" y="383.178" transform="matrix(0.0624 0.9981 -0.9981 0.0624 700.8257 42.8396)" fill="#BA6D82" width="4.291" height="22.469"/>
		
			<rect x="292.407" y="366.964" transform="matrix(-0.796 0.6053 -0.6053 -0.796 757.9409 500.9367)" fill="#BA6D82" width="4.29" height="22.467"/>
		<g>
			<path fill="#BA6D82" d="M335.89,373.158c-0.471-0.623-0.526-1.785-0.126-2.583l1.337-2.65c0.401-0.797,0.219-1.863-0.407-2.369
				c-0.626-0.506-1.806-0.619-2.618-0.251l-2.066,0.935c-0.812,0.368-2.001,0.319-2.639-0.108c-0.638-0.427-0.966-1.48-0.729-2.342
				l0.599-2.171c0.236-0.861-0.204-1.928-0.979-2.37l-0.534-0.306c-0.774-0.442-1.87-0.238-2.435,0.455l-1.445,1.777
				c-0.562,0.692-1.646,1.042-2.405,0.777c-0.761-0.265-1.437-1.21-1.503-2.101l-0.188-2.544c-0.066-0.891-0.792-1.827-1.612-2.08
				s-1.927,0.127-2.457,0.846l-1.464,1.986c-0.53,0.719-1.666,1.104-2.522,0.857l-0.781-0.225c-0.857-0.247-1.693-1.167-1.856-2.045
				l-0.194-1.044c-0.163-0.877-1.011-1.754-1.882-1.947l-0.344-0.076c-0.872-0.193-1.8,0.347-2.062,1.2l-0.628,2.037
				c-0.263,0.853-1.185,1.738-2.048,1.965l-0.218,0.058c-0.863,0.228-1.907-0.234-2.319-1.026l-1.208-2.323
				c-0.412-0.792-1.469-1.316-2.349-1.165l-0.288,0.05c-0.88,0.152-1.58,1.006-1.556,1.899l0.054,1.988
				c0.024,0.893-0.603,1.94-1.394,2.329c-0.791,0.389-1.985,0.223-2.655-0.368l-1.759-1.55c-0.67-0.59-1.886-0.778-2.703-0.417
				l-0.272,0.12c-0.817,0.361-1.263,1.353-0.993,2.203l0.679,2.135c0.271,0.851-0.051,2.036-0.714,2.633l-0.235,0.212
				c-0.664,0.597-1.828,0.702-2.587,0.233l-1.773-1.096c-0.759-0.469-1.908-0.347-2.551,0.272l-0.754,0.724
				c-0.644,0.619-0.764,1.732-0.268,2.474l1.135,1.694c0.497,0.742,0.425,1.854-0.159,2.47c-0.583,0.616-1.758,0.901-2.609,0.632
				l-1.414-0.446c-0.851-0.269-2.084,0.007-2.739,0.614l-0.611,0.565c-0.656,0.606-0.751,1.685-0.213,2.397l1.652,2.186
				c0.539,0.712,0.673,1.854,0.298,2.537c-0.374,0.683-1.405,1.148-2.291,1.035l-2.82-0.363c-0.885-0.114-1.821,0.484-2.079,1.33
				c-0.258,0.846,0.192,1.847,1,2.226l2.772,1.3c0.808,0.379,1.344,1.409,1.19,2.288l-0.134,0.763
				c-0.154,0.879-0.957,1.875-1.784,2.211l-2.829,1.151c-0.827,0.336-1.382,1.264-1.233,2.062c0.148,0.798,0.963,1.68,1.811,1.959
				l1.833,0.605c0.848,0.28,1.809,1.166,2.136,1.968c0.327,0.803,0.032,1.926-0.655,2.496l-2.568,2.136
				c-0.687,0.57-0.808,1.62-0.27,2.333l0.367,0.485c0.539,0.712,1.708,1.253,2.6,1.202l0.764-0.043
				c0.891-0.051,2.029,0.485,2.528,1.191s0.426,1.833-0.163,2.505l-2.162,2.465c-0.588,0.672-0.63,1.804-0.091,2.516l0.552,0.73
				c0.539,0.712,1.637,0.977,2.44,0.588l1.733-0.838c0.804-0.39,1.902-0.124,2.44,0.588l0.123,0.162
				c0.539,0.712,0.617,1.93,0.175,2.705l-1.455,2.549c-0.442,0.774-0.314,1.869,0.285,2.431c0.6,0.562,1.741,0.689,2.537,0.285
				l2.249-1.145c0.796-0.404,2.014-0.479,2.707-0.163c0.693,0.314,1.115,1.288,0.938,2.163l-0.511,2.524
				c-0.177,0.875,0.288,1.994,1.032,2.486l0.344,0.229c0.745,0.492,1.895,0.405,2.557-0.194l1.821-1.65
				c0.662-0.601,1.902-0.88,2.757-0.623l0.018,0.006c0.855,0.257,1.55,1.198,1.543,2.091l-0.016,2.253
				c-0.006,0.893,0.703,1.774,1.577,1.961l0.765,0.161c0.874,0.187,1.93-0.308,2.349-1.096l0.733-1.383
				c0.419-0.788,1.396-1.427,2.171-1.418s1.705,0.684,2.065,1.501l1.003,2.275c0.36,0.816,1.38,1.392,2.265,1.276l0.836-0.106
				c0.886-0.114,1.572-0.938,1.526-1.829l-0.029-0.554c-0.046-0.892,0.623-1.782,1.486-1.98s2.012,0.223,2.551,0.935l1.958,2.591
				c0.539,0.712,1.65,1.009,2.473,0.658l0.478-0.203c0.82-0.35,1.38-1.356,1.24-2.238l-0.265-1.683
				c-0.139-0.882,0.424-1.88,1.251-2.218l0.296-0.121c0.827-0.338,2.041-0.12,2.698,0.484l1.784,1.641
				c0.656,0.604,1.777,0.658,2.489,0.12l0.163-0.123c0.712-0.538,1.18-1.7,1.037-2.581l-0.378-2.352
				c-0.142-0.881,0.293-1.935,0.966-2.338c0.673-0.404,1.865-0.387,2.649,0.041l2.335,1.27c0.784,0.427,2.009,0.336,2.721-0.202
				l0.162-0.123c0.712-0.538,0.918-1.604,0.458-2.37l-1.798-2.987c-0.46-0.767-0.342-1.909,0.264-2.542
				c0.606-0.633,1.818-1.007,2.693-0.831l2.665,0.533c0.876,0.176,1.874-0.354,2.22-1.179l0.151-0.358
				c0.346-0.823,0.123-2.025-0.493-2.671l-1.425-1.49c-0.616-0.646-0.896-1.859-0.619-2.698s1.229-1.464,2.12-1.391l1.919,0.157
				c0.89,0.073,1.881-0.548,2.202-1.381l0.078-0.2c0.32-0.834-0.006-1.947-0.726-2.477l-2.246-1.65
				c-0.72-0.527-1.179-1.659-1.021-2.515c0.158-0.854,1.01-1.668,1.892-1.807l1.68-0.267c0.883-0.139,1.642-0.981,1.687-1.874
				l0.044-0.856c0.045-0.892-0.626-1.803-1.49-2.025l-2.379-0.61c-0.864-0.222-1.557-1.103-1.538-1.957
				c0.02-0.854,0.667-1.918,1.44-2.364l2.146-1.239c0.773-0.446,1.18-1.505,0.901-2.354l-0.058-0.177
				c-0.277-0.849-1.235-1.553-2.128-1.566l-2.027-0.029c-0.894-0.013-1.959-0.543-2.369-1.18c-0.411-0.636-0.272-1.712,0.308-2.391
				l1.871-2.192c0.58-0.679,0.614-1.817,0.075-2.529l-0.306-0.405c-0.539-0.712-1.69-1.126-2.56-0.92l-2.233,0.53
				C337.457,374.123,336.36,373.781,335.89,373.158z M324.513,419.712c-13.252,10.021-32.12,7.396-42.14-5.854
				c-10.019-13.252-7.397-32.12,5.854-42.14c13.254-10.02,32.12-7.398,42.139,5.854
				C340.386,390.823,337.767,409.692,324.513,419.712z"/>
		</g>
	</g>
	<path fill="#BA6D82" d="M300.016,385.961c-5.451,4.122-6.529,11.882-2.407,17.333c4.12,5.449,11.879,6.527,17.329,2.406
		c5.452-4.123,6.529-11.881,2.408-17.33C313.225,382.918,305.468,381.84,300.016,385.961z M310.888,400.155
		c-2.526,1.912-6.123,1.412-8.034-1.115s-1.411-6.123,1.116-8.035c2.526-1.91,6.122-1.41,8.033,1.119
		C313.914,394.651,313.414,398.245,310.888,400.155z"/>
</g>
</svg>
