<?xml version="1.0" encoding="utf-8"?>
<!-- Generator: Adobe Illustrator 15.0.0, SVG Export Plug-In . SVG Version: 6.00 Build 0)  -->
<!DOCTYPE svg PUBLIC "-//W3C//DTD SVG 1.1//EN" "http://www.w3.org/Graphics/SVG/1.1/DTD/svg11.dtd">
<svg version="1.1" id="Layer_1" xmlns="http://www.w3.org/2000/svg" xmlns:xlink="http://www.w3.org/1999/xlink" x="0px" y="0px"
	 width="122.03px" height="121.932px" viewBox="244.985 335.034 122.03 121.932"
	 enable-background="new 244.985 335.034 122.03 121.932" xml:space="preserve">
<g>
	<g>
		<path fill="#F3E186" d="M352.816,356.954c0.479-0.593,0.492-1.575,0.033-2.182l-0.418-0.553c-0.459-0.607-1.389-0.818-2.064-0.469
			l-2.947,1.521c-0.677,0.349-1.658,0.183-2.182-0.371l-0.253-0.267c-0.523-0.553-0.652-1.552-0.287-2.22l1.099-2.008
			c0.365-0.668,0.304-1.69-0.136-2.272c-0.44-0.582-1.304-0.691-1.919-0.244l-2.892,2.104c-0.614,0.448-1.54,0.356-2.056-0.205
			l-0.559-0.606c-0.516-0.561-0.71-1.6-0.435-2.309l0.912-2.341c0.276-0.709,0.005-1.664-0.604-2.122l-0.471-0.354
			c-0.607-0.458-1.574-0.421-2.146,0.081l-2.7,2.368c-0.572,0.502-1.594,0.626-2.271,0.276l-0.154-0.08
			c-0.677-0.35-1.145-1.253-1.039-2.007l0.293-2.103c0.104-0.754-0.341-1.686-0.989-2.071c-0.647-0.385-1.521-0.18-1.94,0.456
			l-1.709,2.592c-0.419,0.636-1.351,0.951-2.068,0.7l-0.527-0.184c-0.72-0.25-1.269-1.077-1.22-1.837l0.172-2.706
			c0.049-0.76-0.515-1.538-1.252-1.729l-0.739-0.192c-0.736-0.191-1.653,0.19-2.037,0.848l-1.629,2.79
			c-0.383,0.657-1.306,1.06-2.048,0.894l-0.255-0.057c-0.742-0.166-1.376-0.924-1.406-1.684l-0.093-2.283
			c-0.03-0.76-0.632-1.5-1.337-1.644c-0.704-0.144-1.525,0.312-1.825,1.012l-1.104,2.584c-0.3,0.7-1.168,1.279-1.929,1.288
			l-0.531,0.006c-0.761,0.008-1.64-0.553-1.951-1.248l-1.193-2.656c-0.312-0.694-1.096-1.188-1.743-1.096
			c-0.646,0.092-1.289,0.779-1.427,1.528l-0.491,2.656c-0.138,0.749-0.868,1.448-1.622,1.555l-0.787,0.111
			c-0.754,0.106-1.646-0.365-1.983-1.048l-1.216-2.467c-0.337-0.683-1.188-1.1-1.891-0.926c-0.704,0.174-1.306,0.938-1.338,1.699
			l-0.137,3.21c-0.032,0.76-0.619,1.545-1.304,1.745c-0.685,0.199-1.674-0.09-2.198-0.642l-2.332-2.452
			c-0.524-0.552-1.508-0.747-2.185-0.433c-0.677,0.314-1.101,1.18-0.941,1.924l0.619,2.894c0.159,0.745-0.223,1.708-0.848,2.142
			l-0.002,0.002c-0.625,0.434-1.601,0.371-2.166-0.139l-2.481-2.235c-0.565-0.51-1.525-0.551-2.132-0.092l-0.275,0.208
			c-0.607,0.459-0.872,1.413-0.587,2.119l1.107,2.751c0.285,0.707,0.045,1.69-0.532,2.187l-0.705,0.606
			c-0.578,0.496-1.523,0.498-2.102,0.003l-2.385-2.038c-0.579-0.494-1.549-0.523-2.156-0.064l-0.092,0.069
			c-0.607,0.459-0.779,1.366-0.381,2.015l1.64,2.679c0.398,0.649,0.321,1.656-0.17,2.238l-0.578,0.686
			c-0.491,0.582-1.438,0.756-2.104,0.388l-3.542-1.959c-0.667-0.369-1.619-0.199-2.116,0.377l-0.35,0.405
			c-0.498,0.576-0.513,1.532-0.034,2.124l2.687,3.322c0.479,0.592,0.442,1.528-0.081,2.081l-0.026,0.027
			c-0.523,0.553-1.536,0.789-2.25,0.525l-2.418-0.893c-0.714-0.264-1.639,0.042-2.056,0.679l-0.362,0.555
			c-0.417,0.637-0.318,1.599,0.22,2.139l2.235,2.242c0.538,0.54,0.683,1.529,0.322,2.2l-0.132,0.245
			c-0.36,0.67-1.272,1.133-2.026,1.029l-2.751-0.383c-0.754-0.104-1.648,0.368-1.986,1.05l-0.144,0.291
			c-0.338,0.682-0.087,1.57,0.559,1.973l2.579,1.608c0.646,0.403,1.005,1.284,0.798,1.957c-0.207,0.673-0.998,1.194-1.759,1.158
			l-2.635-0.125c-0.761-0.036-1.571,0.528-1.801,1.254l-0.188,0.595c-0.23,0.726,0.111,1.648,0.758,2.049l2.271,1.408
			c0.647,0.401,1.175,1.353,1.173,2.114l-0.002,0.851c-0.002,0.761-0.625,1.425-1.385,1.475l-2.472,0.162
			c-0.76,0.05-1.495,0.703-1.634,1.452l-0.15,0.81c-0.139,0.749,0.33,1.581,1.042,1.85l3.278,1.238
			c0.712,0.269,1.219,1.035,1.127,1.701c-0.093,0.667-0.76,1.407-1.483,1.646l-2.462,0.812c-0.723,0.238-1.262,1.056-1.197,1.812
			l0.077,0.908c0.065,0.758,0.736,1.455,1.491,1.55l3,0.375c0.755,0.094,1.424,0.792,1.486,1.551l0.019,0.238
			c0.062,0.759-0.451,1.646-1.14,1.971l-2.08,0.981c-0.688,0.325-1.138,1.203-0.999,1.952l0.059,0.318
			c0.139,0.749,0.875,1.335,1.636,1.302l3.116-0.133c0.76-0.033,1.57,0.534,1.798,1.261l0.199,0.631
			c0.229,0.728-0.082,1.696-0.688,2.155l-2.669,2.019c-0.607,0.459-0.747,1.346-0.311,1.969l0.2,0.287
			c0.437,0.623,1.396,0.977,2.133,0.785l2.274-0.593c0.736-0.19,1.715,0.148,2.174,0.756l0.557,0.736
			c0.459,0.607,0.386,1.536-0.163,2.064l-2.189,2.108c-0.548,0.528-0.621,1.457-0.162,2.063l0.417,0.553
			c0.459,0.606,1.412,0.869,2.117,0.582l2.412-0.982c0.705-0.286,1.675-0.037,2.156,0.554l0.291,0.356
			c0.48,0.592,0.468,1.547-0.028,2.125l-1.733,2.021c-0.496,0.578-0.526,1.548-0.066,2.155l0.486,0.643
			c0.459,0.607,1.367,0.78,2.017,0.384l2.586-1.576c0.65-0.396,1.639-0.298,2.198,0.221l0.374,0.346
			c0.559,0.518,0.721,1.488,0.359,2.159l-0.793,1.471c-0.361,0.671-0.281,1.716,0.178,2.322l0.347,0.459
			c0.459,0.605,1.375,0.792,2.034,0.412l2.437-1.404c0.66-0.38,1.648-0.26,2.197,0.268l0.109,0.105
			c0.549,0.527,0.812,1.554,0.584,2.28l-0.654,2.09c-0.228,0.727,0.06,1.646,0.639,2.044c0.578,0.396,1.452,0.246,1.942-0.337
			l1.872-2.23c0.49-0.583,1.46-0.808,2.156-0.5l0.727,0.322c0.696,0.308,1.207,1.18,1.133,1.938l-0.291,3.014
			c-0.073,0.758,0.472,1.527,1.211,1.71l0.339,0.084c0.739,0.183,1.67-0.198,2.069-0.847l1.208-1.966
			c0.399-0.647,1.313-0.974,2.032-0.724l0.526,0.184c0.719,0.25,1.26,1.076,1.203,1.836l-0.187,2.457
			c-0.058,0.759,0.502,1.521,1.244,1.692l0.815,0.189c0.741,0.173,1.599-0.257,1.905-0.954l1.172-2.666
			c0.307-0.697,1.159-1.107,1.895-0.912l0.579,0.154c0.736,0.194,1.4,0.976,1.476,1.731l0.276,2.758
			c0.076,0.757,0.761,1.388,1.522,1.399l0.601,0.01c0.761,0.013,1.574-0.57,1.806-1.296l1.048-3.275
			c0.231-0.726,0.926-1.341,1.541-1.367c0.615-0.027,1.329,0.536,1.585,1.254l1.144,3.196c0.257,0.718,1.086,1.24,1.844,1.163
			l1.004-0.104c0.757-0.077,1.428-0.762,1.488-1.521l0.238-2.938c0.062-0.759,0.688-1.522,1.393-1.696s1.55,0.244,1.881,0.93
			l1.354,2.804c0.332,0.686,1.203,1.082,1.938,0.881l0.925-0.252c0.734-0.201,1.265-0.984,1.178-1.74l-0.354-3.106
			c-0.087-0.757,0.382-1.522,1.041-1.703c0.66-0.182,1.575,0.169,2.034,0.775l2.154,2.853c0.459,0.606,1.374,0.792,2.032,0.409
			l0.921-0.535c0.658-0.384,1.037-1.299,0.843-2.033l-0.696-2.625c-0.194-0.735,0.188-1.643,0.854-2.014l0.533-0.298
			c0.664-0.372,1.584-0.179,2.043,0.43l1.528,2.021c0.459,0.607,1.38,0.803,2.046,0.436l1.146-0.636
			c0.666-0.367,0.98-1.249,0.698-1.956l-1.232-3.092c-0.281-0.707-0.016-1.662,0.592-2.121l0.553-0.418
			c0.605-0.459,1.566-0.42,2.135,0.088l2.402,2.15c0.566,0.508,1.527,0.548,2.136,0.089l0.002-0.002
			c0.607-0.459,0.842-1.397,0.521-2.089l-1.369-2.945c-0.32-0.689-0.189-1.736,0.292-2.328l1.024-1.258
			c0.481-0.591,1.425-0.781,2.099-0.425l2.388,1.268c0.673,0.356,1.574,0.253,2.003-0.229c0.43-0.483,0.405-1.376-0.054-1.983
			l-1.738-2.301c-0.459-0.606-0.476-1.613-0.037-2.235l0.147-0.211c0.438-0.622,1.406-1.003,2.151-0.848l3.132,0.656
			c0.745,0.155,1.645-0.195,1.997-0.78c0.354-0.585,0.205-1.507-0.328-2.049l-2.389-2.42c-0.534-0.542-0.75-1.381-0.479-1.863
			c0.271-0.481,1.113-0.846,1.874-0.806l2.959,0.156c0.76,0.039,1.582-0.438,1.827-1.062c0.244-0.623-0.036-1.528-0.624-2.012
			l-2.442-2.006c-0.588-0.483-0.938-1.487-0.774-2.231l0.091-0.414c0.161-0.744,0.917-1.383,1.678-1.419l2.954-0.143
			c0.761-0.036,1.518-0.676,1.683-1.418l0.058-0.252c0.165-0.743-0.27-1.606-0.965-1.917l-2.276-1.021
			c-0.695-0.311-1.229-1.188-1.187-1.947l0.017-0.258c0.043-0.76,0.699-1.411,1.461-1.447l2.539-0.12
			c0.761-0.036,1.453-0.686,1.538-1.44l0.047-0.41c0.085-0.756-0.4-1.656-1.08-2l-2.685-1.359c-0.68-0.344-1.163-1.244-1.074-2
			l0.104-0.896c0.088-0.756,0.758-1.549,1.489-1.763l2.316-0.676c0.731-0.213,1.234-1.003,1.118-1.756l-0.098-0.629
			c-0.116-0.752-0.833-1.391-1.594-1.419l-2.888-0.106c-0.761-0.028-1.411-0.648-1.444-1.377c-0.034-0.729,0.482-1.626,1.149-1.993
			l2.478-1.361c0.667-0.367,1.065-1.272,0.888-2.013l-0.029-0.121c-0.179-0.74-0.947-1.338-1.709-1.329l-3.254,0.039
			c-0.761,0.009-1.59-0.571-1.842-1.29l-0.086-0.247c-0.252-0.718,0.076-1.627,0.729-2.02l2.299-1.382
			c0.651-0.393,0.964-1.295,0.691-2.006l-0.341-0.893c-0.271-0.711-1.112-1.216-1.868-1.123l-3.199,0.397
			c-0.756,0.094-1.608-0.27-1.896-0.808s-0.071-1.407,0.48-1.93l2.541-2.405c0.554-0.523,0.629-1.449,0.17-2.056l-0.347-0.459
			c-0.459-0.607-1.425-0.905-2.146-0.662l-2.905,0.98c-0.722,0.243-1.688-0.054-2.146-0.662l-0.069-0.093
			c-0.459-0.607-0.444-1.589,0.034-2.182L352.816,356.954z M334.796,432.917c-20.396,15.422-49.436,11.389-64.858-9.01
			s-11.388-49.438,9.01-64.859c20.399-15.423,49.437-11.388,64.858,9.012C359.229,388.458,355.195,417.495,334.796,432.917z"/>
	</g>
</g>
<g>
	<g>
		<path fill="#F3E186" d="M312.059,378.022c-10.182,7.547-18.347,5.441-18.347,5.441c-1.091-0.281-2.901-0.594-4.023-0.695
			l-24.172-2.178c-1.122-0.101-2.087,0.737-2.146,1.862l-0.178,3.442c-0.059,1.125,0.741,2.409,1.776,2.854
			c0,0,12.539,5.39,24.285,10.146c11.745,4.759,14.205,12.822,14.205,12.822c0.329,1.077,1.005,2.785,1.504,3.796L315.7,437.28
			c0.499,1.011,1.772,1.523,2.833,1.143l3.485-1.258c1.061-0.382,1.831-1.611,1.716-2.731c0,0-1.41-13.573-2.987-26.149
			c-1.575-12.574,4.264-18.655,4.264-18.655c0.78-0.812,1.941-2.237,2.58-3.165l13.762-19.991c0.64-0.928,0.321-2.068-0.704-2.533
			l-3.733-1.693c-1.025-0.465-2.617-0.312-3.536,0.339C333.376,362.586,322.24,370.479,312.059,378.022z M315.414,396.048
			c-0.627,4.517-4.798,7.67-9.314,7.041c-4.517-0.627-7.668-4.797-7.042-9.314c0.626-4.516,4.797-7.67,9.313-7.041
			C312.889,387.36,316.042,391.53,315.414,396.048z"/>
	</g>
</g>
<path fill="#F3E186" d="M274.225,352.327c-23.781,17.98-28.483,51.836-10.504,75.615c17.979,23.778,51.832,28.481,75.613,10.504
	c23.779-17.979,28.483-51.833,10.506-75.611C331.86,339.053,298.005,334.349,274.225,352.327z M331.379,427.544
	c-17.836,13.484-43.225,9.957-56.709-7.879s-9.958-43.227,7.877-56.709c17.835-13.485,43.226-9.957,56.709,7.879
	C352.74,388.671,349.215,414.06,331.379,427.544z"/>
</svg>
