<?xml version="1.0" encoding="utf-8"?>
<!-- Generator: Adobe Illustrator 15.0.0, SVG Export Plug-In . SVG Version: 6.00 Build 0)  -->
<!DOCTYPE svg PUBLIC "-//W3C//DTD SVG 1.1//EN" "http://www.w3.org/Graphics/SVG/1.1/DTD/svg11.dtd">
<svg version="1.1" id="Layer_1" xmlns="http://www.w3.org/2000/svg" xmlns:xlink="http://www.w3.org/1999/xlink" x="0px" y="0px"
	 width="94.869px" height="96.726px" viewBox="258.565 347.637 94.869 96.726"
	 enable-background="new 258.565 347.637 94.869 96.726" xml:space="preserve">
<g>
	<path fill="#FCF4D4" d="M290.881,365.204c-0.848,0.641-1.727,0.812-2.529,0.674l12.031,23.816l3.373-1.701l-11.991-23.74
		C291.551,364.593,291.262,364.917,290.881,365.204z"/>
	<g>
		<path fill="#FCF4D4" d="M272.125,404.47l24.423-3.203l-0.49-3.748l-24.664,3.234C272.291,401.747,272.693,403.198,272.125,404.47z
			"/>
		<path fill="#FCF4D4" d="M299.685,429.743c1.396-0.564,2.784-0.033,3.681,0.961l3.235-22.738l-3.741-0.535L299.685,429.743z"/>
		<path fill="#FCF4D4" d="M316.547,399.688l-1.552,3.445l21.396,9.629c-0.264-1.145,0.047-2.399,1.27-3.324
			c0.073-0.055,0.145-0.102,0.22-0.149L316.547,399.688z"/>
		<path fill="#FCF4D4" d="M329.471,370.212l-17.746,17.834l2.677,2.67l17.658-17.744
			C330.799,372.614,329.78,371.489,329.471,370.212z"/>
		<g>
			<path fill="#FCF4D4" d="M344.317,368.654c0.445-0.617,0.435-1.619-0.024-2.226l-0.242-0.319
				c-0.459-0.607-1.401-0.847-2.096-0.534l-2.488,1.125c-0.692,0.313-1.655,0.113-2.138-0.446c-0.483-0.559-0.564-1.556-0.184-2.214
				l0.966-1.664c0.382-0.658,0.222-1.604-0.355-2.1l-0.383-0.33c-0.577-0.496-1.586-0.585-2.241-0.197l-2.261,1.339
				c-0.655,0.388-1.551,0.392-1.989,0.009c-0.438-0.383-0.576-1.278-0.305-1.989l1.051-2.752c0.271-0.711-0.09-1.512-0.803-1.781
				l-1.046-0.394c-0.713-0.269-1.72-0.031-2.236,0.528l-1.463,1.58c-0.519,0.559-1.455,0.819-2.084,0.578
				c-0.629-0.241-1.06-1.055-0.956-1.809l0.437-3.183c0.104-0.754-0.418-1.519-1.156-1.698l-1.002-0.243
				c-0.739-0.18-1.651,0.215-2.026,0.878l-1.422,2.515c-0.375,0.663-1.152,1.097-1.729,0.966s-1.096-0.859-1.154-1.618l-0.185-2.357
				c-0.06-0.759-0.7-1.574-1.424-1.811l-0.974-0.319c-0.725-0.237-1.514,0.16-1.753,0.882l-0.816,2.449
				c-0.24,0.723-1.062,1.309-1.821,1.302l-0.07-0.001c-0.762-0.006-1.52-0.619-1.686-1.362l-0.577-2.589
				c-0.166-0.743-0.923-1.322-1.684-1.286l-0.902,0.042c-0.761,0.036-1.528,0.671-1.705,1.411l-0.685,2.864
				c-0.177,0.74-0.832,1.415-1.455,1.498s-1.446-0.387-1.829-1.045l-1.499-2.577c-0.383-0.658-1.294-1.023-2.025-0.812l-0.366,0.106
				c-0.731,0.212-1.311,1.008-1.287,1.769l0.094,3.062c0.023,0.761-0.486,1.588-1.132,1.838s-1.55-0.043-2.01-0.65l-1.669-2.208
				c-0.459-0.607-1.397-0.836-2.084-0.508l-0.609,0.291c-0.688,0.328-1.157,1.212-1.043,1.964l0.424,2.813
				c0.113,0.752-0.252,1.666-0.813,2.03c-0.561,0.364-1.497,0.261-2.081-0.227l-2.302-1.927c-0.584-0.488-1.559-0.513-2.166-0.053
				l-0.208,0.156c-0.607,0.459-0.886,1.418-0.62,2.132l1.148,3.074c0.266,0.713,0.061,1.641-0.456,2.062
				c-0.518,0.42-1.51,0.512-2.206,0.203l-2.53-1.123c-0.696-0.309-1.739-0.157-2.317,0.338l-0.07,0.061
				c-0.578,0.495-0.713,1.422-0.299,2.061l1.75,2.698c0.414,0.639,0.424,1.63,0.022,2.203c-0.402,0.573-1.333,0.878-2.067,0.68
				l-2.506-0.677c-0.735-0.198-1.715,0.134-2.178,0.739l-0.281,0.367c-0.462,0.605-0.41,1.549,0.117,2.099l2.185,2.279
				c0.527,0.549,0.792,1.393,0.589,1.874c-0.203,0.481-0.991,0.853-1.752,0.825l-3.257-0.118c-0.761-0.028-1.552,0.549-1.758,1.282
				l-0.102,0.364c-0.207,0.733,0.144,1.678,0.777,2.1l2.501,1.666c0.633,0.422,1.093,1.388,1.021,2.146l-0.004,0.047
				c-0.072,0.758-0.749,1.453-1.504,1.544l-2.717,0.328c-0.756,0.091-1.388,0.762-1.405,1.49c-0.017,0.729,0.532,1.592,1.219,1.919
				l2.078,0.989c0.687,0.328,1.271,1.218,1.297,1.979l0.003,0.087c0.026,0.761-0.548,1.564-1.277,1.786l-1.672,0.508
				c-0.729,0.223-1.21,1.017-1.072,1.766l0.06,0.319c0.139,0.749,0.844,1.559,1.566,1.799l1.861,0.616
				c0.722,0.24,1.386,1.056,1.475,1.812l0.017,0.137c0.088,0.757-0.401,1.644-1.089,1.969l-2.128,1.013
				c-0.688,0.325-1.157,1.21-1.043,1.963l0.101,0.666c0.114,0.753,0.829,1.335,1.589,1.294l2.184-0.119
				c0.76-0.041,1.512,0.339,1.671,0.845c0.159,0.506-0.162,1.351-0.713,1.875l-1.84,1.756c-0.551,0.525-0.708,1.506-0.351,2.178
				l0.511,0.959c0.358,0.672,1.259,1.085,2.001,0.918l2.398-0.539c0.743-0.167,1.71,0.205,2.151,0.826l0,0
				c0.44,0.621,0.399,1.605-0.091,2.188l-1.933,2.295c-0.49,0.582-0.525,1.544-0.076,2.138c0.448,0.593,1.4,0.865,2.116,0.605
				l3.185-1.156c0.716-0.26,1.669-0.114,2.118,0.321s0.584,1.371,0.299,2.077l-0.663,1.643c-0.285,0.706-0.092,1.739,0.428,2.295
				l0.366,0.392c0.521,0.556,1.48,0.689,2.134,0.3l2.477-1.484c0.653-0.391,1.574-0.394,2.046-0.006
				c0.472,0.388,0.586,1.266,0.253,1.949l-1.38,2.834c-0.333,0.685-0.104,1.612,0.511,2.062l0.682,0.5
				c0.614,0.449,1.575,0.396,2.135-0.12l2.565-2.363c0.56-0.518,1.381-0.749,1.825-0.519c0.444,0.231,0.728,1.039,0.632,1.794
				l-0.307,2.412c-0.096,0.755,0.422,1.555,1.15,1.775l0.729,0.221c0.729,0.223,1.64-0.135,2.025-0.792l1.11-1.895
				c0.385-0.657,1.253-1.076,1.929-0.932c0.676,0.146,1.298,0.884,1.384,1.641l0.354,3.146c0.085,0.757,0.777,1.389,1.539,1.402
				l0.866,0.018c0.761,0.016,1.581-0.563,1.82-1.286l0.717-2.154c0.24-0.724,1.04-1.257,1.777-1.188
				c0.737,0.069,1.511,0.726,1.719,1.456l0.612,2.158c0.208,0.731,0.99,1.216,1.738,1.075l0.604-0.113
				c0.748-0.141,1.472-0.869,1.606-1.618l0.451-2.479c0.136-0.749,0.752-1.501,1.37-1.67s1.438,0.229,1.821,0.888l1.548,2.65
				c0.384,0.656,1.305,1.052,2.046,0.877l0.434-0.103c0.74-0.175,1.338-0.94,1.325-1.702l-0.043-2.653
				c-0.012-0.762,0.472-1.571,1.073-1.8c0.603-0.229,1.502,0.056,1.999,0.633l1.756,2.041c0.497,0.577,1.46,0.769,2.14,0.426
				l0.118-0.062c0.682-0.343,1.188-1.243,1.125-2.003l-0.231-2.862c-0.062-0.76,0.229-1.64,0.646-1.954
				c0.418-0.315,1.276-0.228,1.908,0.197l2.334,1.57c0.632,0.425,1.646,0.396,2.252-0.062l0.07-0.054
				c0.605-0.459,0.854-1.405,0.552-2.104l-1.095-2.521c-0.305-0.697-0.172-1.604,0.293-2.017s1.422-0.513,2.127-0.227l2.755,1.118
				c0.705,0.286,1.683,0.044,2.173-0.539l0.217-0.26c0.49-0.583,0.562-1.588,0.156-2.232l-1.644-2.629
				c-0.404-0.646-0.398-1.634,0.013-2.194c0.41-0.562,1.336-0.821,2.058-0.579l1.743,0.588c0.723,0.242,1.682-0.061,2.132-0.674
				l0.339-0.459c0.45-0.613,0.411-1.586-0.087-2.161l-1.594-1.84c-0.498-0.575-0.612-1.562-0.253-2.19
				c0.358-0.63,1.271-1.075,2.028-0.989l1.869,0.211c0.757,0.085,1.577-0.437,1.822-1.155l0.255-0.742
				c0.245-0.72-0.053-1.683-0.661-2.139l-1.53-1.146c-0.609-0.456-1.045-1.293-0.967-1.859c0.079-0.567,0.758-1.127,1.511-1.244
				l2.504-0.39c0.753-0.116,1.387-0.836,1.41-1.597l0.036-1.229c0.022-0.762-0.563-1.529-1.305-1.707l-2.208-0.529
				c-0.739-0.178-1.31-0.945-1.265-1.705l0.018-0.301c0.045-0.76,0.688-1.513,1.435-1.674l2.515-0.543
				c0.744-0.161,1.36-0.915,1.369-1.676l0.007-0.622c0.01-0.761-0.601-1.477-1.354-1.591l-2.404-0.362
				c-0.753-0.114-1.487-0.751-1.633-1.417c-0.146-0.666,0.284-1.507,0.953-1.87l2.643-1.434c0.669-0.363,1.067-1.265,0.886-2.004
				l-0.128-0.51c-0.183-0.739-0.954-1.338-1.716-1.33l-3.045,0.029c-0.761,0.008-1.549-0.521-1.75-1.174
				c-0.202-0.653,0.13-1.563,0.737-2.022l2.291-1.731c0.606-0.459,0.772-1.362,0.369-2.007l-0.652-1.038
				c-0.404-0.645-1.313-0.94-2.02-0.656l-2.34,0.94c-0.706,0.284-1.567-0.039-1.915-0.716l-0.099-0.193
				c-0.347-0.678-0.267-1.737,0.18-2.354L344.317,368.654z M335.67,369.526c0.221,0.728,0.649,1.631,0.951,2.006
				c0,0,0,0,0.265,0.352c8.559,11.318,5.52,36.704,5.52,36.704c-0.091,0.756,0.07,1.95,0.36,2.654c0,0,0.944,2.298-0.932,3.716
				c-0.779,0.59-0.956,0.603-0.956,0.603c-0.76,0.058-1.743,0.609-2.187,1.229c0,0-5.191,7.251-9.504,10.511
				c-7.658,5.791-24.263,7.78-24.263,7.78c-0.756,0.091-1.526,0.319-1.712,0.509c0,0,0,0-0.211,0.16
				c-1.948,1.473-3.974-0.257-3.974-0.257c-0.579-0.495-1.635-1.12-2.347-1.391c0,0-16.741-6.344-22.91-14.502
				c-3.203-4.235-6.206-12.443-6.206-12.443c-0.262-0.715-0.826-1.815-1.253-2.445l-0.367-2.317c0.098-0.755,0.257-1.99,0.354-2.745
				c0,0,3.38-26.547,15.171-35.461c1.284-0.971,2.79-1.905,2.79-1.905c0.647-0.401,1.417-1.304,1.711-2.006
				c0,0,0.022-0.054,0.735-0.593c1.136-0.857,1.965-0.692,1.965-0.692c0.747,0.149,1.977,0.205,2.734,0.125l39.082,6.601
				c0.689,0.322,1.834,0.815,2.541,1.097L335.67,369.526z"/>
		</g>
		<path fill="#FCF4D4" d="M298.857,386.61c-5.591,4.227-6.695,12.182-2.47,17.771c4.228,5.592,12.184,6.697,17.773,2.471
			c5.589-4.226,6.695-12.182,2.468-17.772C312.403,383.489,304.447,382.384,298.857,386.61z M310.006,401.167
			c-2.592,1.959-6.279,1.447-8.239-1.145c-1.96-2.595-1.447-6.281,1.144-8.24c2.593-1.961,6.281-1.447,8.241,1.145
			C313.112,395.519,312.599,399.208,310.006,401.167z"/>
		<path fill="#FCF4D4" d="M280.83,362.511c-18.24,13.789-21.847,39.758-8.056,57.998c13.792,18.242,39.76,21.853,58,8.062
			c18.242-13.793,21.851-39.76,8.059-58.002C325.041,352.325,299.073,348.718,280.83,362.511z M326.495,422.974
			c-14.888,11.254-36.08,8.312-47.336-6.575c-11.256-14.89-8.311-36.083,6.577-47.336c14.889-11.258,36.082-8.314,47.337,6.574
			C344.329,390.524,341.384,411.716,326.495,422.974z"/>
	</g>
</g>
</svg>
