<?xml version="1.0" encoding="utf-8"?>
<!-- Generator: Adobe Illustrator 15.0.0, SVG Export Plug-In . SVG Version: 6.00 Build 0)  -->
<!DOCTYPE svg PUBLIC "-//W3C//DTD SVG 1.1//EN" "http://www.w3.org/Graphics/SVG/1.1/DTD/svg11.dtd">
<svg version="1.1" id="Layer_1" xmlns="http://www.w3.org/2000/svg" xmlns:xlink="http://www.w3.org/1999/xlink" x="0px" y="0px"
	 width="72.929px" height="71.25px" viewBox="269.536 360.375 72.929 71.25" enable-background="new 269.536 360.375 72.929 71.25"
	 xml:space="preserve">
<g>
	
		<rect x="295.801" y="402.567" transform="matrix(0.9065 0.4223 -0.4223 0.9065 201.8749 -87.1327)" fill="#FCF4D4" width="3.659" height="19.157"/>
	
		<rect x="322.271" y="385.465" transform="matrix(0.063 0.998 -0.998 0.063 697.9368 46.6955)" fill="#FCF4D4" width="3.658" height="19.156"/>
	
		<rect x="294.098" y="371.636" transform="matrix(-0.7961 0.6052 -0.6052 -0.7961 762.2175 505.5953)" fill="#FCF4D4" width="3.658" height="19.157"/>
	<g>
		<g>
			<path fill="#FCF4D4" d="M331.169,376.894c-0.401-0.531-0.45-1.522-0.106-2.202l1.141-2.261c0.343-0.68,0.186-1.588-0.349-2.02
				c-0.535-0.432-1.539-0.527-2.233-0.213l-1.761,0.796c-0.694,0.313-1.706,0.272-2.25-0.091c-0.544-0.364-0.823-1.263-0.621-1.997
				l0.511-1.852c0.202-0.734-0.174-1.643-0.835-2.021l-0.457-0.26c-0.661-0.377-1.595-0.203-2.075,0.388l-1.23,1.514
				c-0.48,0.591-1.403,0.89-2.053,0.664c-0.648-0.226-1.225-1.032-1.279-1.791l-0.161-2.168c-0.057-0.759-0.675-1.558-1.375-1.774
				c-0.7-0.216-1.644,0.108-2.095,0.721l-1.249,1.694c-0.451,0.613-1.42,0.942-2.151,0.731l-0.665-0.191
				c-0.731-0.21-1.444-0.995-1.583-1.744l-0.166-0.891c-0.139-0.749-0.861-1.496-1.604-1.661l-0.292-0.064
				c-0.744-0.165-1.536,0.295-1.759,1.023l-0.535,1.737c-0.224,0.728-1.01,1.481-1.746,1.676l-0.188,0.05
				c-0.736,0.194-1.625-0.2-1.977-0.875l-1.028-1.98c-0.351-0.676-1.252-1.123-2.002-0.994l-0.246,0.043
				c-0.75,0.129-1.348,0.857-1.327,1.619l0.046,1.696c0.021,0.761-0.514,1.655-1.188,1.985c-0.674,0.331-1.692,0.19-2.264-0.313
				l-1.5-1.322c-0.571-0.503-1.608-0.664-2.305-0.356l-0.232,0.103c-0.696,0.308-1.077,1.152-0.846,1.878l0.58,1.822
				c0.231,0.726-0.043,1.735-0.609,2.244l-0.202,0.181c-0.566,0.509-1.559,0.598-2.207,0.197l-1.512-0.934
				c-0.647-0.4-1.626-0.296-2.175,0.232l-0.642,0.617c-0.549,0.528-0.651,1.478-0.228,2.11l0.966,1.444
				c0.423,0.633,0.362,1.58-0.135,2.105c-0.498,0.525-1.499,0.768-2.225,0.539l-1.205-0.38c-0.726-0.229-1.777,0.007-2.336,0.524
				l-0.52,0.481c-0.559,0.517-0.64,1.438-0.181,2.044l1.409,1.864c0.459,0.607,0.574,1.581,0.254,2.163s-1.198,0.979-1.954,0.882
				l-2.406-0.311c-0.755-0.097-1.553,0.413-1.773,1.135c-0.22,0.721,0.164,1.575,0.854,1.898l2.362,1.108
				c0.689,0.323,1.146,1.201,1.014,1.951l-0.113,0.647c-0.132,0.75-0.816,1.599-1.521,1.886l-2.411,0.983
				c-0.705,0.288-1.178,1.079-1.052,1.759c0.126,0.68,0.821,1.432,1.544,1.67l1.563,0.517c0.723,0.239,1.542,0.994,1.821,1.677
				c0.278,0.685,0.027,1.643-0.558,2.13l-2.19,1.82c-0.585,0.487-0.688,1.383-0.229,1.99l0.312,0.412
				c0.459,0.606,1.457,1.068,2.217,1.024l0.653-0.037c0.76-0.043,1.73,0.413,2.155,1.018c0.425,0.603,0.363,1.564-0.139,2.137
				l-1.843,2.103c-0.502,0.571-0.537,1.538-0.078,2.146l0.469,0.62c0.459,0.607,1.396,0.833,2.081,0.502l1.479-0.715
				c0.686-0.331,1.622-0.105,2.081,0.502l0.106,0.14c0.459,0.607,0.526,1.646,0.148,2.308l-1.24,2.173
				c-0.377,0.661-0.269,1.594,0.242,2.072c0.511,0.478,1.483,0.588,2.162,0.241l1.92-0.977c0.678-0.346,1.717-0.408,2.308-0.139
				c0.591,0.269,0.951,1.099,0.8,1.845l-0.437,2.153c-0.151,0.746,0.245,1.699,0.88,2.119l0.294,0.193
				c0.635,0.419,1.616,0.345,2.181-0.167l1.552-1.406c0.564-0.512,1.623-0.75,2.351-0.529l0.016,0.004
				c0.729,0.22,1.321,1.021,1.315,1.783l-0.013,1.921c-0.005,0.761,0.6,1.513,1.344,1.671l0.65,0.139
				c0.745,0.158,1.646-0.263,2.003-0.936l0.626-1.18c0.357-0.673,1.19-1.217,1.851-1.209c0.661,0.007,1.454,0.583,1.761,1.279
				l0.855,1.939c0.307,0.695,1.175,1.188,1.932,1.09l0.712-0.093c0.755-0.098,1.341-0.799,1.302-1.56l-0.024-0.47
				c-0.039-0.761,0.531-1.521,1.27-1.69s1.716,0.189,2.175,0.797l1.668,2.206c0.459,0.607,1.408,0.86,2.108,0.562l0.406-0.172
				c0.7-0.299,1.178-1.157,1.06-1.909l-0.227-1.433c-0.117-0.752,0.361-1.604,1.066-1.893l0.252-0.103
				c0.704-0.289,1.739-0.104,2.3,0.41l1.521,1.399c0.561,0.515,1.517,0.561,2.124,0.102l0.138-0.104
				c0.607-0.459,1.006-1.45,0.885-2.201l-0.322-2.005c-0.121-0.751,0.25-1.648,0.823-1.993c0.575-0.345,1.593-0.329,2.262,0.034
				l1.988,1.082c0.669,0.363,1.714,0.285,2.32-0.173l0.137-0.104c0.607-0.459,0.783-1.369,0.392-2.021l-1.532-2.547
				c-0.394-0.652-0.291-1.628,0.226-2.168c0.518-0.539,1.551-0.857,2.297-0.708l2.272,0.457c0.747,0.148,1.599-0.303,1.893-1.005
				l0.129-0.307c0.295-0.702,0.104-1.727-0.422-2.277l-1.214-1.272c-0.525-0.551-0.764-1.585-0.527-2.3
				c0.235-0.715,1.049-1.247,1.808-1.186l1.636,0.136c0.76,0.062,1.604-0.468,1.878-1.178l0.066-0.173
				c0.272-0.71-0.004-1.66-0.617-2.109l-1.917-1.408c-0.613-0.45-1.005-1.415-0.87-2.145c0.136-0.729,0.861-1.421,1.613-1.54
				l1.433-0.226c0.752-0.119,1.399-0.838,1.438-1.598l0.038-0.73c0.038-0.76-0.533-1.537-1.271-1.727l-2.028-0.521
				c-0.737-0.189-1.327-0.94-1.312-1.668s0.569-1.635,1.229-2.015l1.831-1.056c0.658-0.38,1.006-1.283,0.769-2.007l-0.049-0.151
				c-0.237-0.724-1.054-1.325-1.814-1.335l-1.729-0.025c-0.761-0.011-1.671-0.464-2.021-1.006c-0.35-0.542-0.231-1.46,0.263-2.039
				l1.596-1.87c0.494-0.579,0.521-1.55,0.062-2.157l-0.259-0.343c-0.459-0.607-1.44-0.961-2.182-0.786l-1.905,0.452
				C332.506,377.716,331.57,377.425,331.169,376.894z M321.47,416.586c-11.3,8.544-27.387,6.309-35.929-4.99
				c-8.543-11.3-6.309-27.386,4.991-35.929c11.299-8.542,27.386-6.308,35.93,4.992C335.004,391.957,332.769,408.044,321.47,416.586z
				"/>
		</g>
	</g>
	<path fill="#FCF4D4" d="M312.747,404.772c-4.706,3.558-11.43,2.624-14.988-2.083c-3.558-4.706-2.623-11.43,2.082-14.987
		c4.707-3.559,11.432-2.625,14.988,2.081C318.388,394.491,317.453,401.214,312.747,404.772z M302.856,391.691
		c-2.507,1.895-3.004,5.477-1.109,7.983c1.896,2.508,5.478,3.006,7.984,1.109c2.508-1.896,3.005-5.476,1.108-7.984
		C308.945,390.292,305.364,389.795,302.856,391.691z"/>
</g>
</svg>
