<?xml version="1.0" encoding="utf-8"?>
<!-- Generator: Adobe Illustrator 15.0.0, SVG Export Plug-In . SVG Version: 6.00 Build 0)  -->
<!DOCTYPE svg PUBLIC "-//W3C//DTD SVG 1.1//EN" "http://www.w3.org/Graphics/SVG/1.1/DTD/svg11.dtd">
<svg version="1.1" id="Layer_1" xmlns="http://www.w3.org/2000/svg" xmlns:xlink="http://www.w3.org/1999/xlink" x="0px" y="0px"
	 width="69.039px" height="70.044px" viewBox="271.48 360.978 69.039 70.044" enable-background="new 271.48 360.978 69.039 70.044"
	 xml:space="preserve">
<g>
	<path fill="#F3E186" d="M297.783,371.587c-0.671,0.38-1.321,0.421-1.885,0.246l6.396,18.272l2.589-0.903l-6.374-18.216
		C298.322,371.213,298.084,371.417,297.783,371.587z"/>
	<g>
		<path fill="#F3E186" d="M280.567,398.057l17.872,0.011l0.004-2.742l-18.049-0.014
			C280.945,396.111,281.097,397.195,280.567,398.057z"/>
		<path fill="#F3E186" d="M297.998,418.852c1.058-0.276,2.006,0.238,2.557,1.037l4.482-16.051l-2.64-0.738L297.998,418.852z"/>
		<path fill="#F3E186" d="M312.977,398.828l-1.441,2.33l14.479,8.957c-0.08-0.851,0.261-1.726,1.228-2.273
			c0.057-0.031,0.112-0.059,0.172-0.088L312.977,398.828z"/>
		<path fill="#F3E186" d="M325.067,378.849l-14.458,11.147l1.673,2.172l14.386-11.089
			C325.796,380.703,325.169,379.797,325.067,378.849z"/>
		<g>
			<path fill="#F3E186" d="M335.896,379.136c0.379-0.401,0.467-1.123,0.193-1.604l-0.146-0.255c-0.272-0.48-0.929-0.743-1.456-0.583
				l-1.896,0.573c-0.527,0.16-1.201-0.075-1.496-0.522c-0.294-0.447-0.258-1.171,0.079-1.609l0.854-1.106
				c0.337-0.438,0.312-1.132-0.058-1.544l-0.245-0.274c-0.367-0.412-1.086-0.571-1.594-0.354l-1.754,0.75
				c-0.508,0.217-1.152,0.135-1.432-0.183c-0.28-0.318-0.293-0.975-0.03-1.46l1.018-1.881c0.264-0.486,0.079-1.096-0.407-1.356
				l-0.717-0.382c-0.486-0.26-1.232-0.185-1.657,0.168l-1.203,0.998c-0.425,0.353-1.124,0.451-1.554,0.218
				c-0.432-0.233-0.663-0.859-0.518-1.392l0.615-2.248c0.146-0.533-0.156-1.132-0.671-1.331l-0.698-0.27
				c-0.515-0.199-1.209-0.001-1.541,0.439l-1.262,1.674c-0.332,0.441-0.934,0.68-1.335,0.531c-0.401-0.149-0.705-0.722-0.676-1.274
				l0.091-1.713c0.028-0.552-0.354-1.199-0.853-1.438l-0.672-0.322c-0.498-0.239-1.103-0.029-1.344,0.468l-0.82,1.688
				c-0.241,0.497-0.886,0.84-1.433,0.763l-0.052-0.007c-0.548-0.078-1.034-0.591-1.083-1.141l-0.169-1.916
				c-0.05-0.55-0.539-1.039-1.091-1.085l-0.652-0.056c-0.552-0.046-1.162,0.337-1.36,0.854l-0.763,1.995
				c-0.197,0.516-0.732,0.939-1.189,0.94s-1.004-0.415-1.217-0.925l-0.834-1.998c-0.213-0.51-0.834-0.858-1.38-0.775l-0.273,0.042
				c-0.546,0.083-1.038,0.602-1.093,1.151l-0.223,2.213c-0.055,0.549-0.5,1.096-0.988,1.214c-0.488,0.118-1.11-0.178-1.383-0.659
				l-0.991-1.746c-0.273-0.48-0.926-0.734-1.451-0.563l-0.469,0.152c-0.525,0.17-0.947,0.762-0.937,1.314l0.039,2.064
				c0.01,0.552-0.339,1.174-0.777,1.383s-1.101,0.046-1.475-0.36l-1.476-1.604c-0.374-0.407-1.073-0.516-1.553-0.244l-0.163,0.093
				c-0.48,0.272-0.772,0.936-0.648,1.474l0.534,2.321c0.124,0.538-0.111,1.186-0.523,1.44s-1.134,0.226-1.605-0.063l-1.715-1.049
				c-0.471-0.289-1.235-0.278-1.698,0.023l-0.057,0.037c-0.463,0.301-0.647,0.956-0.411,1.454l1.003,2.108
				c0.237,0.499,0.15,1.212-0.193,1.586c-0.343,0.374-1.042,0.505-1.551,0.293l-1.74-0.725c-0.51-0.212-1.246-0.065-1.636,0.326
				l-0.236,0.237c-0.39,0.391-0.441,1.076-0.114,1.521l1.355,1.847c0.327,0.445,0.438,1.077,0.246,1.403s-0.794,0.519-1.339,0.426
				l-2.332-0.394c-0.544-0.092-1.168,0.248-1.385,0.756l-0.108,0.253c-0.217,0.508-0.055,1.221,0.361,1.584l1.642,1.435
				c0.416,0.364,0.655,1.102,0.532,1.64l-0.008,0.034c-0.123,0.539-0.676,0.974-1.229,0.968l-1.985-0.021
				c-0.552-0.006-1.071,0.417-1.153,0.939s0.231,1.195,0.694,1.496l1.401,0.908c0.463,0.301,0.799,0.996,0.746,1.546l-0.006,0.064
				c-0.053,0.55-0.542,1.074-1.087,1.164l-1.253,0.208c-0.545,0.09-0.967,0.616-0.938,1.167l0.013,0.234
				c0.029,0.552,0.46,1.2,0.957,1.441l1.28,0.621c0.497,0.241,0.897,0.892,0.889,1.442l-0.001,0.1
				c-0.008,0.553-0.444,1.144-0.97,1.312l-1.627,0.524c-0.525,0.171-0.947,0.762-0.937,1.312l0.009,0.492
				c0.011,0.552,0.47,1.038,1.021,1.081l1.582,0.121c0.551,0.043,1.056,0.388,1.122,0.767c0.066,0.379-0.245,0.956-0.691,1.282
				l-1.49,1.088c-0.446,0.326-0.652,1.016-0.458,1.533l0.276,0.735c0.194,0.519,0.803,0.9,1.353,0.852l1.776-0.16
				c0.55-0.05,1.211,0.31,1.469,0.798s0.135,1.192-0.273,1.564l-1.607,1.469c-0.408,0.372-0.524,1.061-0.258,1.529
				c0.266,0.468,0.925,0.755,1.464,0.636l2.4-0.529c0.539-0.119,1.211,0.075,1.493,0.432c0.282,0.357,0.291,1.043,0.019,1.523
				l-0.633,1.121c-0.271,0.48-0.23,1.242,0.092,1.691l0.226,0.313c0.322,0.449,1,0.637,1.507,0.417l1.922-0.832
				c0.507-0.22,1.169-0.135,1.472,0.189c0.303,0.323,0.302,0.966-0.003,1.427l-1.261,1.906c-0.305,0.461-0.227,1.149,0.172,1.531
				l0.443,0.425c0.399,0.382,1.095,0.434,1.546,0.115l2.07-1.459c0.451-0.316,1.064-0.406,1.361-0.197s0.425,0.816,0.285,1.352
				l-0.449,1.705c-0.14,0.534,0.156,1.158,0.659,1.386l0.503,0.229c0.503,0.228,1.192,0.058,1.532-0.378l0.979-1.259
				c0.339-0.436,1.003-0.653,1.476-0.485c0.473,0.168,0.85,0.758,0.84,1.31l-0.043,2.299c-0.01,0.553,0.428,1.071,0.975,1.154
				l0.619,0.094c0.546,0.083,1.191-0.256,1.432-0.753l0.72-1.479c0.241-0.497,0.868-0.808,1.391-0.688s1.018,0.663,1.098,1.209
				l0.237,1.611c0.08,0.546,0.597,0.969,1.149,0.938l0.444-0.022c0.552-0.03,1.141-0.485,1.31-1.011l0.559-1.744
				c0.169-0.525,0.684-1.008,1.144-1.07c0.46-0.062,1.012,0.303,1.227,0.812l0.862,2.055c0.214,0.509,0.839,0.88,1.389,0.825
				l0.321-0.033c0.551-0.055,1.052-0.55,1.114-1.099l0.22-1.912c0.063-0.549,0.487-1.086,0.942-1.193
				c0.456-0.106,1.076,0.183,1.378,0.646l1.071,1.635c0.302,0.462,0.977,0.689,1.498,0.508l0.091-0.031
				c0.521-0.183,0.971-0.783,0.999-1.335l0.104-2.082c0.028-0.552,0.321-1.155,0.651-1.344s0.939-0.042,1.354,0.323l1.53,1.352
				c0.414,0.365,1.146,0.44,1.626,0.167l0.054-0.028c0.479-0.273,0.749-0.933,0.597-1.464l-0.547-1.916
				c-0.152-0.53,0.027-1.172,0.4-1.424s1.07-0.233,1.552,0.038l1.877,1.066c0.479,0.271,1.206,0.19,1.613-0.183l0.182-0.166
				c0.408-0.373,0.554-1.089,0.324-1.592l-0.935-2.047c-0.229-0.503-0.132-1.213,0.217-1.577c0.35-0.364,1.04-0.464,1.536-0.222
				l1.197,0.588c0.496,0.242,1.216,0.115,1.599-0.282l0.286-0.299c0.383-0.396,0.447-1.101,0.145-1.562l-0.975-1.476
				c-0.304-0.461-0.293-1.181,0.025-1.6s1.017-0.653,1.553-0.521l1.327,0.328c0.536,0.133,1.176-0.164,1.421-0.658l0.251-0.508
				c0.245-0.494,0.123-1.216-0.271-1.602l-0.993-0.972c-0.396-0.386-0.628-1.028-0.519-1.43c0.109-0.4,0.651-0.738,1.203-0.751
				l1.84-0.043c0.553-0.013,1.076-0.47,1.165-1.015l0.144-0.882c0.089-0.545-0.261-1.152-0.776-1.352l-1.539-0.592
				c-0.516-0.198-0.853-0.804-0.748-1.348l0.041-0.213c0.104-0.543,0.641-1.022,1.19-1.067l1.859-0.152
				c0.552-0.045,1.065-0.529,1.145-1.076l0.063-0.446c0.078-0.548-0.292-1.119-0.821-1.272l-1.696-0.488
				c-0.53-0.152-0.998-0.681-1.039-1.174c-0.042-0.493,0.347-1.057,0.862-1.255l2.038-0.781c0.516-0.198,0.887-0.809,0.825-1.357
				l-0.044-0.379c-0.062-0.549-0.561-1.053-1.108-1.12l-2.191-0.267c-0.549-0.067-1.064-0.522-1.147-1.011
				c-0.083-0.489,0.24-1.113,0.722-1.385l1.812-1.028c0.479-0.272,0.686-0.906,0.455-1.409l-0.371-0.808
				c-0.229-0.502-0.854-0.801-1.391-0.664l-1.771,0.454c-0.535,0.137-1.125-0.176-1.312-0.696l-0.053-0.148
				c-0.187-0.52-0.027-1.274,0.352-1.676L335.896,379.136z M329.592,378.944c0.09,0.545,0.312,1.234,0.494,1.532
				c0,0,0,0,0.158,0.278c5.082,8.951,0.49,26.928,0.49,26.928c-0.138,0.535-0.135,1.409,0.008,1.943c0,0,0.461,1.742-1.023,2.584
				c-0.615,0.351-0.744,0.342-0.744,0.342c-0.552-0.03-1.312,0.273-1.688,0.678c0,0-4.422,4.724-7.833,6.658
				c-6.058,3.441-18.191,3.3-18.191,3.3c-0.552-0.008-1.129,0.085-1.281,0.202c0,0,0,0-0.165,0.097
				c-1.542,0.875-2.835-0.562-2.835-0.562c-0.37-0.41-1.07-0.96-1.557-1.222c0,0-11.441-6.151-15.104-12.604
				c-1.903-3.354-3.285-9.543-3.285-9.543c-0.12-0.538-0.422-1.384-0.67-1.878l-0.043-1.701c0.142-0.534,0.374-1.408,0.514-1.942
				c0,0,4.947-18.775,14.275-24.071c1.016-0.576,2.186-1.104,2.186-1.104c0.503-0.227,1.143-0.804,1.421-1.281
				c0,0,0.021-0.036,0.587-0.355c0.896-0.511,1.479-0.313,1.479-0.313c0.523,0.177,1.403,0.334,1.955,0.349l27.486,8.456
				c0.467,0.297,1.241,0.76,1.725,1.03L329.592,378.944z"/>
		</g>
		<path fill="#F3E186" d="M301.49,387.741c-4.421,2.511-5.97,8.13-3.46,12.552c2.511,4.422,8.129,5.973,12.552,3.461
			c4.421-2.51,5.971-8.127,3.459-12.551C311.531,386.78,305.912,385.232,301.49,387.741z M308.132,399.271
			c-2.051,1.163-4.655,0.444-5.817-1.605c-1.165-2.051-0.447-4.656,1.603-5.82c2.05-1.162,4.654-0.443,5.818,1.605
			C310.9,395.504,310.182,398.107,308.132,399.271z"/>
		<path fill="#F3E186" d="M290.808,368.696c-14.429,8.191-19.484,26.53-11.294,40.958c8.193,14.432,26.53,19.487,40.958,11.299
			c14.433-8.195,19.487-26.531,11.294-40.963C323.576,365.562,305.238,360.504,290.808,368.696z M317.925,416.521
			c-11.774,6.686-26.742,2.559-33.428-9.218s-2.559-26.744,9.219-33.429c11.777-6.686,26.743-2.56,33.428,9.217
			C333.829,394.867,329.702,409.834,317.925,416.521z"/>
	</g>
</g>
</svg>
