<?xml version="1.0" encoding="utf-8"?>
<!-- Generator: Adobe Illustrator 15.0.0, SVG Export Plug-In . SVG Version: 6.00 Build 0)  -->
<!DOCTYPE svg PUBLIC "-//W3C//DTD SVG 1.1//EN" "http://www.w3.org/Graphics/SVG/1.1/DTD/svg11.dtd">
<svg version="1.1" id="Layer_1" xmlns="http://www.w3.org/2000/svg" xmlns:xlink="http://www.w3.org/1999/xlink" x="0px" y="0px"
	 width="260px" height="390px" viewBox="0 0 260 390" enable-background="new 0 0 260 390" xml:space="preserve">
<g>
	<g>
		<path fill="#5C3E6C" d="M101.049,52.859c-8.001,0-14.49,6.487-14.49,14.484c0,8.002,6.489,14.49,14.49,14.49
			c7.998,0,14.485-6.487,14.485-14.49C115.535,59.346,109.047,52.859,101.049,52.859z"/>
		<path fill="#5C3E6C" d="M154.401,52.859c-8.003,0-14.49,6.487-14.49,14.484c0,8.002,6.487,14.49,14.49,14.49
			c7.996,0,14.483-6.487,14.483-14.49C168.885,59.346,162.397,52.859,154.401,52.859z"/>
		<path fill="#5C3E6C" d="M131.232,36.928V4.321c0-1.833-1.486-3.32-3.313-3.32c-1.834,0-3.315,1.487-3.315,3.32v32.618
			c-31.693,1.016-56.841,15.982-56.841,34.303c0,18.973,26.988,34.36,60.287,34.36c33.287,0,60.28-15.387,60.28-34.36
			C188.329,52.871,163.044,37.87,131.232,36.928z M101.22,89.557c-12.152,0-22.004-9.853-22.004-22.004s9.852-22.004,22.004-22.004
			s22.003,9.853,22.003,22.004S113.372,89.557,101.22,89.557z M154.57,89.557c-12.152,0-22.004-9.853-22.004-22.004
			s9.852-22.004,22.004-22.004s22.003,9.853,22.003,22.004S166.723,89.557,154.57,89.557z"/>
	</g>
	<path fill="#5C3E6C" d="M125.632,118.559c0,0-96.281-2.486-84.227,43.6c12.056,46.084,61.752,69.905,84.227,69.663V118.559z"/>
	<path fill="#5C3E6C" d="M145.104,112.316c0,2.116-2.629,3.837-5.874,3.837h-21.442c-3.246,0-5.874-1.721-5.874-3.837l0,0
		c0-2.118,2.628-3.832,5.874-3.832h21.442C142.475,108.485,145.104,110.199,145.104,112.316L145.104,112.316z"/>
	<path fill="#5C3E6C" d="M149.15,242.519c0,3.99-3.463,7.225-7.741,7.225h-28.254c-4.279,0-7.746-3.234-7.746-7.225l0,0
		c0-3.99,3.467-7.225,7.746-7.225h28.254C145.688,235.294,149.15,238.528,149.15,242.519L149.15,242.519z"/>
	<path fill="#5C3E6C" d="M168.01,266.198c-1.487-4.496-5.959-7.311-11.418-9.064c-6.119-2.367-16.955-3.945-29.309-3.945
		c-12.356,0-23.19,1.578-29.309,3.945c-5.46,1.754-9.932,4.568-11.415,9.064c0,0-2.4,9.523,14.485,11.424
		c0,0,12.089,2.814,14.484,12.6c0,0,3.026,6.262,11.755,6.516c8.728-0.254,11.753-6.516,11.753-6.516
		c2.395-9.785,14.484-12.6,14.484-12.6C170.405,275.722,168.01,266.198,168.01,266.198z"/>
	<path fill="#5C3E6C" d="M129.581,118.559v113.262c22.476,0.242,72.165-23.578,84.226-69.663
		C225.862,116.073,129.581,118.559,129.581,118.559z M136.755,227.024c-1.743,0-3.151-1.412-3.151-3.154s1.408-3.156,3.151-3.156
		c1.742,0,3.156,1.414,3.156,3.156S138.497,227.024,136.755,227.024z M136.755,208.058c-1.743,0-3.151-1.414-3.151-3.156
		s1.408-3.156,3.151-3.156c1.742,0,3.156,1.414,3.156,3.156S138.497,208.058,136.755,208.058z M136.755,189.09
		c-1.743,0-3.151-1.413-3.151-3.156c0-1.742,1.408-3.15,3.151-3.15c1.742,0,3.156,1.408,3.156,3.15
		C139.911,187.677,138.497,189.09,136.755,189.09z M136.755,170.088c-1.743,0-3.151-1.414-3.151-3.156
		c0-1.743,1.408-3.155,3.151-3.155c1.742,0,3.156,1.413,3.156,3.155C139.911,168.674,138.497,170.088,136.755,170.088z
		 M136.755,150.825c-1.743,0-3.151-1.407-3.151-3.149c0-1.743,1.408-3.156,3.151-3.156c1.742,0,3.156,1.413,3.156,3.156
		C139.911,149.417,138.497,150.825,136.755,150.825z M136.755,131.806c-1.743,0-3.151-1.413-3.151-3.156
		c0-1.742,1.408-3.155,3.151-3.155c1.742,0,3.156,1.414,3.156,3.155C139.911,130.393,138.497,131.806,136.755,131.806z"/>
	<path fill="#5C3E6C" d="M48.785,158.538C47.206,140.62,37.108,126.8,24.89,126.8c-12.219,0-22.311,13.82-23.889,31.738H48.785z"/>
	<path fill="#5C3E6C" d="M254.551,158.538c-1.577-17.918-11.668-31.738-23.893-31.738c-12.22,0-22.306,13.82-23.89,31.738H254.551z"
		/>
	<path fill="#5C3E6C" d="M247.94,254.784c0,7.553-6.125,13.672-13.674,13.672h-7.207c-7.556,0-13.673-6.119-13.673-13.672v-16.387
		c0-7.553,6.117-13.672,13.673-13.672h7.207c7.549,0,13.674,6.119,13.674,13.672V254.784z"/>
	<path fill="#5C3E6C" d="M110.699,350.015c0,7.031-5.705,12.73-12.731,12.73l0,0c-7.031,0-12.736-5.699-12.736-12.73v-57.25
		c0-7.037,5.705-12.73,12.736-12.73l0,0c7.027,0,12.731,5.693,12.731,12.73V350.015z"/>
	<path fill="#5C3E6C" d="M111.908,385.214v-4.303c0-8.422-7.691-15.25-17.186-15.25h-9.071c-9.488,0-17.179,6.828-17.179,15.25
		v4.303H111.908z"/>
	<path fill="#5C3E6C" d="M145.201,350.015c0,7.031,5.697,12.73,12.729,12.73l0,0c7.033,0,12.731-5.699,12.731-12.73v-57.25
		c0-7.037-5.698-12.736-12.731-12.736l0,0c-7.031,0-12.729,5.699-12.729,12.736V350.015z"/>
	<path fill="#5C3E6C" d="M143.991,385.208v-4.297c0-8.422,7.696-15.25,17.186-15.25h9.069c9.49,0,17.18,6.828,17.18,15.25v4.297
		H143.991z"/>
	<path fill="#5C3E6C" d="M37.625,211.144c0,7.033-5.704,12.73-12.736,12.73l0,0c-7.032,0-12.73-5.697-12.73-12.73V153.89
		c0-7.032,5.698-12.73,12.73-12.73l0,0c7.032,0,12.736,5.698,12.736,12.73V211.144z"/>
	<path fill="#5C3E6C" d="M243.394,210.663c0,7.025-5.699,12.73-12.735,12.73l0,0c-7.026,0-12.73-5.705-12.73-12.73v-57.256
		c0-7.032,5.704-12.73,12.73-12.73l0,0c7.036,0,12.735,5.698,12.735,12.73V210.663z"/>
	<path fill="#5C3E6C" d="M42.172,254.784c0,7.553-6.125,13.672-13.672,13.672h-7.214c-7.548,0-13.672-6.119-13.672-13.672v-16.387
		c0-7.553,6.124-13.672,13.672-13.672H28.5c7.548,0,13.672,6.119,13.672,13.672V254.784z"/>
</g>
</svg>
