<?xml version="1.0" encoding="utf-8"?>
<!-- Generator: Adobe Illustrator 15.0.0, SVG Export Plug-In . SVG Version: 6.00 Build 0)  -->
<!DOCTYPE svg PUBLIC "-//W3C//DTD SVG 1.1//EN" "http://www.w3.org/Graphics/SVG/1.1/DTD/svg11.dtd">
<svg version="1.1" id="Layer_1" xmlns="http://www.w3.org/2000/svg" xmlns:xlink="http://www.w3.org/1999/xlink" x="0px" y="0px"
	 width="520px" height="66.109px" viewBox="-36.506 0 520 66.109" enable-background="new -36.506 0 520 66.109"
	 xml:space="preserve">
<g>
	<rect x="24.35" y="13.114" fill="none" width="387.132" height="43.986"/>
	<g enable-background="new    ">
		<path fill="#5C3E6C" d="M45.235,27.65h-7.523v19.055H32.86V27.65h-7.523v-4.395h19.898V27.65z"/>
		<path fill="#5C3E6C" d="M65.134,35.912V46.81h-4.465L60.634,36.51c0-2.391-1.23-3.551-3.234-3.551
			c-1.582,0-2.988,1.195-4.008,2.602v11.25h-4.465V21.498h4.465v10.09c1.09-1.441,2.988-2.988,5.379-2.988
			C62.392,28.599,65.134,31.06,65.134,35.912z"/>
		<path fill="#5C3E6C" d="M86.404,39.287H73.537c0.457,2.426,2.461,4.008,5.203,4.008c2.602,0,4.324-0.914,5.414-1.617v4.043
			c-0.984,0.738-2.883,1.617-5.59,1.617c-5.238,0-9.527-3.867-9.527-9.211c0-5.168,3.797-9.527,9-9.527
			c5.238,0,8.367,3.656,8.367,8.824V39.287z M82.115,36.369c-0.176-2.566-2.145-3.867-4.184-3.867c-2.215,0-3.832,1.512-4.324,3.867
			H82.115z"/>
		<path fill="#5C3E6C" d="M106.688,27.474v5.344h10.406v3.973h-10.406v5.695h11.777v4.324h-16.664V23.256h16.664v4.219H106.688z"/>
		<path fill="#5C3E6C" d="M128.485,46.81h-4.465V21.498h4.465V46.81z"/>
		<path fill="#5C3E6C" d="M150.072,39.287h-12.867c0.457,2.426,2.461,4.008,5.203,4.008c2.602,0,4.324-0.914,5.414-1.617v4.043
			c-0.984,0.738-2.883,1.617-5.59,1.617c-5.238,0-9.527-3.867-9.527-9.211c0-5.168,3.797-9.527,9-9.527
			c5.238,0,8.367,3.656,8.367,8.824V39.287z M145.783,36.369c-0.176-2.566-2.145-3.867-4.184-3.867
			c-2.215,0-3.832,1.512-4.324,3.867H145.783z"/>
		<path fill="#5C3E6C" d="M167.474,30.463v4.113c-1.23-0.879-2.672-1.582-4.852-1.582c-2.707,0-4.957,2.145-4.957,5.027
			s2.074,4.992,4.957,4.992c2.18,0,3.621-0.668,4.852-1.547v4.078c-0.984,0.844-2.602,1.793-5.238,1.793
			c-5.344,0-9.316-4.324-9.316-9.316s3.973-9.422,9.316-9.422C164.873,28.599,166.49,29.654,167.474,30.463z"/>
		<path fill="#5C3E6C" d="M177.88,29.056h4.922v3.727h-4.922v7.664c0,1.582,0.738,2.566,2.18,2.566c1.266,0,2.109-0.316,2.918-0.809
			v3.551c-0.879,0.879-2.145,1.582-4.184,1.582c-3.164,0-5.379-2.18-5.379-5.73v-8.824h-3.199v-2.285
			c2.285-0.809,4.254-2.988,5.379-6.609h2.285V29.056z"/>
		<path fill="#5C3E6C" d="M197.005,28.705c0.809,0,1.477,0.176,2.109,0.492v5.098c-0.809-0.562-1.688-0.879-2.743-0.879
			c-2.039,0-3.305,1.512-4.359,3.48v9.914h-4.465V29.056h4.465v3.34C193.243,30.287,194.896,28.705,197.005,28.705L197.005,28.705z"
			/>
		<path fill="#5C3E6C" d="M220.349,37.986c0,5.238-4.359,9.352-9.527,9.352s-9.492-4.113-9.492-9.352
			c0-5.273,4.324-9.387,9.492-9.387S220.349,32.713,220.349,37.986z M206.076,37.986c0,3.234,2.215,5.027,4.746,5.027
			s4.781-1.793,4.781-5.027s-2.25-5.062-4.781-5.062S206.076,34.752,206.076,37.986z"/>
		<path fill="#5C3E6C" d="M234.411,28.6c3.621,0,6.363,2.46,6.363,7.312V46.81h-4.465l-0.035-10.301c0-2.391-1.23-3.551-3.234-3.551
			c-1.582,0-2.988,1.195-4.008,2.602v11.25h-4.465V29.056h4.465v2.531C230.122,30.146,232.021,28.599,234.411,28.6L234.411,28.6z"/>
		<path fill="#5C3E6C" d="M252.235,29.056V46.81h-4.465V32.853h-2.848v-3.797H252.235z M246.575,22.834
			c0-1.652,1.371-3.023,3.059-3.023s3.094,1.371,3.094,3.023c0,1.617-1.406,3.023-3.094,3.023S246.575,24.451,246.575,22.834z"/>
		<path fill="#5C3E6C" d="M271.185,30.463v4.113c-1.23-0.879-2.672-1.582-4.852-1.582c-2.707,0-4.957,2.145-4.957,5.027
			s2.074,4.992,4.957,4.992c2.18,0,3.621-0.668,4.852-1.547v4.078c-0.984,0.844-2.602,1.793-5.238,1.793
			c-5.344,0-9.316-4.324-9.316-9.316s3.973-9.422,9.316-9.422C268.583,28.599,270.2,29.654,271.185,30.463z"/>
		<path fill="#5C3E6C" d="M299.485,24.662v4.816c-1.688-1.055-3.551-2.109-5.977-2.109c-1.828,0-3.867,0.773-3.867,2.566
			c0,1.547,1.547,2.145,3.516,2.953l2.883,1.195c3.305,1.406,4.781,3.41,4.781,6.012c0,4.184-4.043,7.172-8.93,7.172
			c-2.742,0-5.379-1.125-7.277-2.461V39.99c2.039,1.477,4.57,2.672,7.383,2.672c1.969,0,3.586-0.773,3.586-2.32
			c0-1.23-1.371-1.969-2.742-2.461l-3.621-1.406c-3.656-1.406-4.676-3.797-4.676-6.539c0-4.324,3.973-7.137,8.367-7.137
			C295.653,22.799,297.974,23.677,299.485,24.662z"/>
		<path fill="#5C3E6C" d="M311.755,39.638l-2.32,2.32v4.852h-4.465V21.498h4.465v15.469l7.242-7.91h5.59l-7.664,7.699l8.367,10.055
			h-5.801L311.755,39.638z"/>
		<path fill="#5C3E6C" d="M340.794,39.287h-12.867c0.457,2.426,2.461,4.008,5.203,4.008c2.602,0,4.324-0.914,5.414-1.617v4.043
			c-0.984,0.738-2.883,1.617-5.59,1.617c-5.238,0-9.527-3.867-9.527-9.211c0-5.168,3.797-9.527,9-9.527
			c5.238,0,8.367,3.656,8.367,8.824V39.287z M336.505,36.369c-0.176-2.566-2.145-3.867-4.184-3.867
			c-2.215,0-3.832,1.512-4.324,3.867H336.505z"/>
		<path fill="#5C3E6C" d="M351.306,29.056h4.922v3.727h-4.922v7.664c0,1.582,0.738,2.566,2.18,2.566
			c1.266,0,2.109-0.316,2.918-0.809v3.551c-0.879,0.879-2.145,1.582-4.184,1.582c-3.164,0-5.379-2.18-5.379-5.73v-8.824h-3.199
			v-2.285c2.285-0.809,4.254-2.988,5.379-6.609h2.285V29.056z"/>
		<path fill="#5C3E6C" d="M374.122,30.463v4.113c-1.23-0.879-2.672-1.582-4.852-1.582c-2.707,0-4.957,2.145-4.957,5.027
			s2.074,4.992,4.957,4.992c2.18,0,3.621-0.668,4.852-1.547v4.078c-0.984,0.844-2.602,1.793-5.238,1.793
			c-5.344,0-9.316-4.324-9.316-9.316s3.973-9.422,9.316-9.422C371.521,28.599,373.138,29.654,374.122,30.463z"/>
		<path fill="#5C3E6C" d="M394.302,35.912V46.81h-4.465l-0.035-10.301c0-2.391-1.23-3.551-3.234-3.551
			c-1.582,0-2.988,1.195-4.008,2.602v11.25h-4.465V21.498h4.465v10.09c1.09-1.441,2.988-2.988,5.379-2.988
			C391.56,28.599,394.302,31.06,394.302,35.912z"/>
		<path fill="#5C3E6C" d="M403.899,32.045c1.055-1.934,3.059-3.445,5.695-3.445c4.254,0,7.945,3.27,7.945,9.211
			c0,5.906-3.691,9.527-8.262,9.527c-1.934,0-4.043-1.055-5.379-2.531v2.004h-4.465V21.498h4.465V32.045z M403.899,38.127v2.566
			c1.266,1.336,2.742,2.285,4.465,2.285c2.777,0,4.535-2.531,4.535-5.168c0-2.672-1.758-4.746-4.43-4.746
			C406.114,33.064,403.864,34.963,403.899,38.127z"/>
		<path fill="#5C3E6C" d="M439.583,37.986c0,5.238-4.359,9.352-9.527,9.352s-9.492-4.113-9.492-9.352
			c0-5.273,4.324-9.387,9.492-9.387S439.583,32.713,439.583,37.986z M425.31,37.986c0,3.234,2.215,5.027,4.746,5.027
			s4.781-1.793,4.781-5.027s-2.25-5.062-4.781-5.062S425.31,34.752,425.31,37.986z"/>
		<path fill="#5C3E6C" d="M461.591,37.986c0,5.238-4.359,9.352-9.527,9.352s-9.492-4.113-9.492-9.352
			c0-5.273,4.324-9.387,9.492-9.387S461.591,32.713,461.591,37.986z M447.317,37.986c0,3.234,2.215,5.027,4.746,5.027
			s4.781-1.793,4.781-5.027s-2.25-5.062-4.781-5.062S447.317,34.752,447.317,37.986z"/>
		<path fill="#5C3E6C" d="M472.595,39.638l-2.32,2.32v4.852h-4.465V21.498h4.465v15.469l7.242-7.91h5.59l-7.664,7.699l8.367,10.055
			h-5.801L472.595,39.638z"/>
	</g>
</g>
<g>
	<g>
		<g>
			<circle fill="#5C3E6C" cx="-18.291" cy="11.416" r="2.493"/>
			<circle fill="#5C3E6C" cx="-9.111" cy="11.416" r="2.493"/>
			<path fill="#5C3E6C" d="M-13.098,6.182v-5.61c0-0.315-0.256-0.571-0.57-0.571c-0.315,0-0.57,0.256-0.57,0.571v5.612
				c-5.453,0.175-9.78,2.75-9.78,5.901c0,3.266,4.644,5.912,10.373,5.912c5.728,0,10.372-2.646,10.372-5.912
				C-3.274,8.925-7.624,6.344-13.098,6.182z M-18.262,15.237c-2.091,0-3.786-1.695-3.786-3.786s1.695-3.786,3.786-3.786
				c2.091,0,3.786,1.695,3.786,3.786S-16.171,15.237-18.262,15.237z M-9.082,15.237c-2.091,0-3.786-1.695-3.786-3.786
				s1.695-3.786,3.786-3.786c2.091,0,3.786,1.695,3.786,3.786S-6.991,15.237-9.082,15.237z"/>
		</g>
		<path fill="#5C3E6C" d="M-14.062,20.228c0,0-16.566-0.429-14.492,7.502c2.074,7.93,10.625,12.027,14.492,11.985V20.228z"/>
		<path fill="#5C3E6C" d="M-10.711,19.153c0,0.364-0.452,0.66-1.011,0.66h-3.689c-0.559,0-1.011-0.296-1.011-0.66l0,0
			c0-0.364,0.452-0.659,1.011-0.659h3.689C-11.163,18.494-10.711,18.789-10.711,19.153L-10.711,19.153z"/>
		<path fill="#5C3E6C" d="M-10.015,41.557c0,0.687-0.596,1.242-1.332,1.242h-4.861c-0.736,0-1.333-0.557-1.333-1.242l0,0
			c0-0.688,0.597-1.243,1.333-1.243h4.861C-10.611,40.313-10.015,40.87-10.015,41.557L-10.015,41.557z"/>
		<path fill="#5C3E6C" d="M-6.77,45.631c-0.256-0.772-1.025-1.258-1.965-1.56c-1.053-0.407-2.917-0.679-5.043-0.679
			s-3.99,0.271-5.043,0.679c-0.939,0.302-1.709,0.786-1.964,1.56c0,0-0.413,1.64,2.492,1.967c0,0,2.08,0.483,2.492,2.168
			c0,0,0.521,1.076,2.022,1.12c1.502-0.044,2.022-1.12,2.022-1.12c0.412-1.685,2.492-2.168,2.492-2.168
			C-6.358,47.27-6.77,45.631-6.77,45.631z"/>
		<path fill="#5C3E6C" d="M-13.382,20.228v19.487C-9.515,39.758-0.965,35.659,1.11,27.73C3.184,19.8-13.382,20.228-13.382,20.228z
			 M-12.148,38.891c-0.3,0-0.542-0.243-0.542-0.543c0-0.301,0.242-0.543,0.542-0.543c0.3,0,0.543,0.242,0.543,0.543
			C-11.605,38.648-11.848,38.891-12.148,38.891z M-12.148,35.627c-0.3,0-0.542-0.243-0.542-0.543s0.242-0.543,0.542-0.543
			c0.3,0,0.543,0.243,0.543,0.543S-11.848,35.627-12.148,35.627z M-12.148,32.363c-0.3,0-0.542-0.243-0.542-0.543
			s0.242-0.542,0.542-0.542c0.3,0,0.543,0.242,0.543,0.542S-11.848,32.363-12.148,32.363z M-12.148,29.094
			c-0.3,0-0.542-0.242-0.542-0.543c0-0.3,0.242-0.543,0.542-0.543c0.3,0,0.543,0.243,0.543,0.543
			C-11.605,28.851-11.848,29.094-12.148,29.094z M-12.148,25.779c-0.3,0-0.542-0.242-0.542-0.542s0.242-0.543,0.542-0.543
			c0.3,0,0.543,0.243,0.543,0.543S-11.848,25.779-12.148,25.779z M-12.148,22.507c-0.3,0-0.542-0.242-0.542-0.543
			c0-0.3,0.242-0.543,0.542-0.543c0.3,0,0.543,0.243,0.543,0.543C-11.605,22.264-11.848,22.507-12.148,22.507z"/>
		<path fill="#5C3E6C" d="M-27.284,27.106c-0.271-3.083-2.009-5.461-4.111-5.461s-3.839,2.378-4.11,5.461H-27.284z"/>
		<path fill="#5C3E6C" d="M8.121,27.106c-0.271-3.083-2.008-5.461-4.111-5.461s-3.838,2.378-4.11,5.461H8.121z"/>
		<path fill="#5C3E6C" d="M6.983,43.667c0,1.3-1.054,2.354-2.353,2.354H3.39c-1.3,0-2.353-1.054-2.353-2.354v-2.818
			c0-1.301,1.053-2.354,2.353-2.354h1.24c1.299,0,2.353,1.053,2.353,2.354V43.667z"/>
		<path fill="#5C3E6C" d="M-16.631,60.052c0,1.211-0.981,2.19-2.19,2.19l0,0c-1.21,0-2.191-0.979-2.191-2.19v-9.851
			c0-1.211,0.981-2.189,2.191-2.189l0,0c1.209,0,2.19,0.979,2.19,2.189V60.052z"/>
		<path fill="#5C3E6C" d="M-16.423,66.109v-0.74c0-1.449-1.323-2.624-2.957-2.624h-1.561c-1.633,0-2.956,1.175-2.956,2.624v0.74
			H-16.423z"/>
		<path fill="#5C3E6C" d="M-10.695,60.052c0,1.211,0.98,2.19,2.19,2.19l0,0c1.21,0,2.19-0.979,2.19-2.19v-9.851
			c0-1.211-0.98-2.191-2.19-2.191l0,0c-1.21,0-2.19,0.98-2.19,2.191V60.052z"/>
		<path fill="#5C3E6C" d="M-10.903,66.108v-0.739c0-1.449,1.324-2.624,2.957-2.624h1.561c1.633,0,2.956,1.175,2.956,2.624v0.739
			H-10.903z"/>
		<path fill="#5C3E6C" d="M-29.204,36.158c0,1.21-0.981,2.19-2.191,2.19l0,0c-1.21,0-2.19-0.98-2.19-2.19v-9.852
			c0-1.21,0.98-2.19,2.19-2.19l0,0c1.21,0,2.191,0.98,2.191,2.19V36.158z"/>
		<path fill="#5C3E6C" d="M6.201,36.075c0,1.209-0.98,2.19-2.191,2.19l0,0c-1.209,0-2.19-0.981-2.19-2.19v-9.852
			c0-1.21,0.981-2.19,2.19-2.19l0,0c1.211,0,2.191,0.98,2.191,2.19V36.075z"/>
		<path fill="#5C3E6C" d="M-28.422,43.667c0,1.3-1.054,2.354-2.353,2.354h-1.241c-1.299,0-2.353-1.054-2.353-2.354v-2.818
			c0-1.301,1.054-2.354,2.353-2.354h1.241c1.299,0,2.353,1.053,2.353,2.354V43.667z"/>
	</g>
</g>
</svg>
