<?xml version="1.0" encoding="utf-8"?>
<!-- Generator: Adobe Illustrator 15.0.0, SVG Export Plug-In . SVG Version: 6.00 Build 0)  -->
<!DOCTYPE svg PUBLIC "-//W3C//DTD SVG 1.1//EN" "http://www.w3.org/Graphics/SVG/1.1/DTD/svg11.dtd">
<svg version="1.1" id="Layer_1" xmlns="http://www.w3.org/2000/svg" xmlns:xlink="http://www.w3.org/1999/xlink" x="0px" y="0px"
	 width="446.988px" height="66.109px" viewBox="0 0 446.988 66.109" enable-background="new 0 0 446.988 66.109"
	 xml:space="preserve">
<g>
	<rect x="60.857" y="13.114" fill="none" width="387.132" height="43.986"/>
	<text transform="matrix(1 0 0 1 60.854 46.8105)" fill="#5C3E6C" font-family="'Reflex-Bold'" font-size="36">The Electronic Sketchbook</text>
</g>
<g>
	<g>
		<g>
			<circle fill="#5C3E6C" cx="18.216" cy="11.416" r="2.493"/>
			<circle fill="#5C3E6C" cx="27.396" cy="11.416" r="2.493"/>
			<path fill="#5C3E6C" d="M23.409,6.182v-5.61c0-0.315-0.256-0.571-0.57-0.571c-0.315,0-0.57,0.256-0.57,0.571v5.612
				c-5.453,0.175-9.78,2.75-9.78,5.902c0,3.265,4.644,5.912,10.373,5.912c5.728,0,10.372-2.647,10.372-5.912
				C33.233,8.925,28.883,6.344,23.409,6.182z M18.245,15.237c-2.091,0-3.786-1.695-3.786-3.786s1.695-3.786,3.786-3.786
				s3.786,1.695,3.786,3.786S20.336,15.237,18.245,15.237z M27.425,15.237c-2.091,0-3.786-1.695-3.786-3.786
				s1.695-3.786,3.786-3.786s3.786,1.695,3.786,3.786S29.516,15.237,27.425,15.237z"/>
		</g>
		<path fill="#5C3E6C" d="M22.445,20.228c0,0-16.566-0.428-14.492,7.502s10.625,12.028,14.492,11.986V20.228z"/>
		<path fill="#5C3E6C" d="M25.796,19.153c0,0.364-0.452,0.66-1.011,0.66h-3.689c-0.559,0-1.011-0.296-1.011-0.66l0,0
			c0-0.364,0.452-0.659,1.011-0.659h3.689C25.344,18.494,25.796,18.789,25.796,19.153L25.796,19.153z"/>
		<path fill="#5C3E6C" d="M26.492,41.557c0,0.687-0.596,1.243-1.332,1.243h-4.861c-0.736,0-1.333-0.557-1.333-1.243l0,0
			c0-0.687,0.597-1.243,1.333-1.243h4.861C25.896,40.313,26.492,40.87,26.492,41.557L26.492,41.557z"/>
		<path fill="#5C3E6C" d="M29.737,45.631c-0.256-0.773-1.025-1.258-1.965-1.56c-1.053-0.407-2.917-0.679-5.043-0.679
			s-3.99,0.271-5.043,0.679c-0.939,0.302-1.709,0.786-1.964,1.56c0,0-0.413,1.639,2.492,1.966c0,0,2.08,0.484,2.492,2.168
			c0,0,0.521,1.077,2.022,1.121c1.502-0.044,2.022-1.121,2.022-1.121c0.412-1.684,2.492-2.168,2.492-2.168
			C30.149,47.27,29.737,45.631,29.737,45.631z"/>
		<path fill="#5C3E6C" d="M23.125,20.228v19.488c3.867,0.042,12.417-4.057,14.492-11.986C39.691,19.8,23.125,20.228,23.125,20.228z
			 M24.359,38.891c-0.3,0-0.542-0.243-0.542-0.543s0.242-0.543,0.542-0.543s0.543,0.243,0.543,0.543S24.659,38.891,24.359,38.891z
			 M24.359,35.627c-0.3,0-0.542-0.243-0.542-0.543s0.242-0.543,0.542-0.543s0.543,0.243,0.543,0.543S24.659,35.627,24.359,35.627z
			 M24.359,32.363c-0.3,0-0.542-0.243-0.542-0.543s0.242-0.542,0.542-0.542s0.543,0.242,0.543,0.542S24.659,32.363,24.359,32.363z
			 M24.359,29.094c-0.3,0-0.542-0.243-0.542-0.543s0.242-0.543,0.542-0.543s0.543,0.243,0.543,0.543S24.659,29.094,24.359,29.094z
			 M24.359,25.779c-0.3,0-0.542-0.242-0.542-0.542s0.242-0.543,0.542-0.543s0.543,0.243,0.543,0.543S24.659,25.779,24.359,25.779z
			 M24.359,22.507c-0.3,0-0.542-0.243-0.542-0.543s0.242-0.543,0.542-0.543s0.543,0.243,0.543,0.543S24.659,22.507,24.359,22.507z"
			/>
		<path fill="#5C3E6C" d="M9.223,27.106c-0.271-3.083-2.009-5.461-4.111-5.461s-3.839,2.378-4.11,5.461H9.223z"/>
		<path fill="#5C3E6C" d="M44.628,27.106c-0.271-3.083-2.008-5.461-4.111-5.461c-2.103,0-3.838,2.378-4.11,5.461H44.628z"/>
		<path fill="#5C3E6C" d="M43.49,43.667c0,1.3-1.054,2.353-2.353,2.353h-1.24c-1.3,0-2.353-1.053-2.353-2.353v-2.819
			c0-1.3,1.053-2.353,2.353-2.353h1.24c1.299,0,2.353,1.053,2.353,2.353V43.667z"/>
		<path fill="#5C3E6C" d="M19.876,60.053c0,1.21-0.981,2.19-2.19,2.19l0,0c-1.21,0-2.191-0.98-2.191-2.19v-9.851
			c0-1.211,0.981-2.19,2.191-2.19l0,0c1.209,0,2.19,0.979,2.19,2.19V60.053z"/>
		<path fill="#5C3E6C" d="M20.084,66.109v-0.74c0-1.449-1.323-2.624-2.957-2.624h-1.561c-1.633,0-2.956,1.175-2.956,2.624v0.74
			H20.084z"/>
		<path fill="#5C3E6C" d="M25.812,60.053c0,1.21,0.98,2.19,2.19,2.19l0,0c1.21,0,2.19-0.98,2.19-2.19v-9.851
			c0-1.211-0.98-2.191-2.19-2.191l0,0c-1.21,0-2.19,0.98-2.19,2.191V60.053z"/>
		<path fill="#5C3E6C" d="M25.604,66.108v-0.739c0-1.449,1.324-2.624,2.957-2.624h1.561c1.633,0,2.956,1.175,2.956,2.624v0.739
			H25.604z"/>
		<path fill="#5C3E6C" d="M7.303,36.158c0,1.21-0.981,2.19-2.191,2.19l0,0c-1.21,0-2.19-0.98-2.19-2.19v-9.852
			c0-1.21,0.98-2.19,2.19-2.19l0,0c1.21,0,2.191,0.98,2.191,2.19V36.158z"/>
		<path fill="#5C3E6C" d="M42.708,36.075c0,1.209-0.98,2.19-2.191,2.19l0,0c-1.209,0-2.19-0.981-2.19-2.19v-9.852
			c0-1.21,0.981-2.19,2.19-2.19l0,0c1.211,0,2.191,0.98,2.191,2.19V36.075z"/>
		<path fill="#5C3E6C" d="M8.085,43.667c0,1.3-1.054,2.353-2.353,2.353H4.491c-1.299,0-2.353-1.053-2.353-2.353v-2.819
			c0-1.3,1.054-2.353,2.353-2.353h1.241c1.299,0,2.353,1.053,2.353,2.353V43.667z"/>
	</g>
</g>
</svg>
