<?xml version="1.0" encoding="utf-8"?>
<!-- Generator: Adobe Illustrator 15.0.0, SVG Export Plug-In . SVG Version: 6.00 Build 0)  -->
<!DOCTYPE svg PUBLIC "-//W3C//DTD SVG 1.1//EN" "http://www.w3.org/Graphics/SVG/1.1/DTD/svg11.dtd">
<svg version="1.1" id="Layer_1" xmlns="http://www.w3.org/2000/svg" xmlns:xlink="http://www.w3.org/1999/xlink" x="0px" y="0px"
	 width="470px" height="66.109px" viewBox="-11.506 0 470 66.109" enable-background="new -11.506 0 470 66.109"
	 xml:space="preserve">
<g>
	<rect x="48.349" y="13.114" fill="none" width="387.132" height="43.986"/>
	<text transform="matrix(1 0 0 1 48.3481 46.8103)" fill="#5C3E6C" font-family="'FreightMacroProLight-Regular'" font-size="36">The Electronic Sketchbook</text>
</g>
<g>
	<g>
		<g>
			<circle fill="#5C3E6C" cx="5.708" cy="11.416" r="2.493"/>
			<circle fill="#5C3E6C" cx="14.888" cy="11.416" r="2.493"/>
			<path fill="#5C3E6C" d="M10.901,6.182v-5.61c0-0.315-0.256-0.571-0.57-0.571c-0.315,0-0.57,0.256-0.57,0.571v5.612
				c-5.453,0.175-9.78,2.75-9.78,5.901c0,3.266,4.644,5.912,10.373,5.912c5.728,0,10.372-2.646,10.372-5.912
				C20.725,8.925,16.375,6.344,10.901,6.182z M5.737,15.237c-2.091,0-3.786-1.695-3.786-3.786s1.695-3.786,3.786-3.786
				c2.091,0,3.786,1.695,3.786,3.786S7.828,15.237,5.737,15.237z M14.917,15.237c-2.091,0-3.786-1.695-3.786-3.786
				s1.695-3.786,3.786-3.786c2.091,0,3.786,1.695,3.786,3.786S17.008,15.237,14.917,15.237z"/>
		</g>
		<path fill="#5C3E6C" d="M9.937,20.228c0,0-16.566-0.429-14.492,7.502C-2.481,35.66,6.07,39.758,9.937,39.716V20.228z"/>
		<path fill="#5C3E6C" d="M13.288,19.153c0,0.364-0.452,0.66-1.011,0.66H8.588c-0.559,0-1.011-0.296-1.011-0.66l0,0
			c0-0.364,0.452-0.659,1.011-0.659h3.689C12.836,18.494,13.288,18.789,13.288,19.153L13.288,19.153z"/>
		<path fill="#5C3E6C" d="M13.984,41.557c0,0.687-0.596,1.242-1.332,1.242H7.791c-0.736,0-1.333-0.557-1.333-1.242l0,0
			c0-0.688,0.597-1.243,1.333-1.243h4.861C13.388,40.313,13.984,40.87,13.984,41.557L13.984,41.557z"/>
		<path fill="#5C3E6C" d="M17.229,45.631c-0.256-0.772-1.025-1.258-1.965-1.56c-1.053-0.407-2.917-0.679-5.043-0.679
			s-3.99,0.271-5.043,0.679c-0.939,0.302-1.709,0.786-1.964,1.56c0,0-0.413,1.64,2.492,1.967c0,0,2.08,0.483,2.492,2.168
			c0,0,0.521,1.076,2.022,1.12c1.502-0.044,2.022-1.12,2.022-1.12c0.412-1.685,2.492-2.168,2.492-2.168
			C17.641,47.27,17.229,45.631,17.229,45.631z"/>
		<path fill="#5C3E6C" d="M10.617,20.228v19.487c3.867,0.042,12.417-4.057,14.492-11.985C27.183,19.8,10.617,20.228,10.617,20.228z
			 M11.851,38.891c-0.3,0-0.542-0.243-0.542-0.543c0-0.301,0.242-0.543,0.542-0.543c0.3,0,0.543,0.242,0.543,0.543
			C12.394,38.648,12.151,38.891,11.851,38.891z M11.851,35.627c-0.3,0-0.542-0.243-0.542-0.543s0.242-0.543,0.542-0.543
			c0.3,0,0.543,0.243,0.543,0.543S12.151,35.627,11.851,35.627z M11.851,32.363c-0.3,0-0.542-0.243-0.542-0.543
			s0.242-0.542,0.542-0.542c0.3,0,0.543,0.242,0.543,0.542S12.151,32.363,11.851,32.363z M11.851,29.094
			c-0.3,0-0.542-0.242-0.542-0.543c0-0.3,0.242-0.543,0.542-0.543c0.3,0,0.543,0.243,0.543,0.543
			C12.394,28.851,12.151,29.094,11.851,29.094z M11.851,25.779c-0.3,0-0.542-0.242-0.542-0.542s0.242-0.543,0.542-0.543
			c0.3,0,0.543,0.243,0.543,0.543S12.151,25.779,11.851,25.779z M11.851,22.507c-0.3,0-0.542-0.242-0.542-0.543
			c0-0.3,0.242-0.543,0.542-0.543c0.3,0,0.543,0.243,0.543,0.543C12.394,22.264,12.151,22.507,11.851,22.507z"/>
		<path fill="#5C3E6C" d="M-3.285,27.106c-0.271-3.083-2.009-5.461-4.111-5.461s-3.839,2.378-4.11,5.461H-3.285z"/>
		<path fill="#5C3E6C" d="M32.12,27.106c-0.271-3.083-2.008-5.461-4.111-5.461s-3.838,2.378-4.11,5.461H32.12z"/>
		<path fill="#5C3E6C" d="M30.982,43.667c0,1.3-1.054,2.354-2.353,2.354h-1.24c-1.3,0-2.353-1.054-2.353-2.354v-2.818
			c0-1.301,1.053-2.354,2.353-2.354h1.24c1.299,0,2.353,1.053,2.353,2.354V43.667z"/>
		<path fill="#5C3E6C" d="M7.368,60.052c0,1.211-0.981,2.19-2.19,2.19l0,0c-1.21,0-2.191-0.979-2.191-2.19v-9.851
			c0-1.211,0.981-2.189,2.191-2.189l0,0c1.209,0,2.19,0.979,2.19,2.189V60.052z"/>
		<path fill="#5C3E6C" d="M7.576,66.109v-0.74c0-1.449-1.323-2.624-2.957-2.624H3.058c-1.633,0-2.956,1.175-2.956,2.624v0.74H7.576z
			"/>
		<path fill="#5C3E6C" d="M13.304,60.052c0,1.211,0.98,2.19,2.19,2.19l0,0c1.21,0,2.19-0.979,2.19-2.19v-9.851
			c0-1.211-0.98-2.191-2.19-2.191l0,0c-1.21,0-2.19,0.98-2.19,2.191V60.052z"/>
		<path fill="#5C3E6C" d="M13.096,66.108v-0.739c0-1.449,1.324-2.624,2.957-2.624h1.561c1.633,0,2.956,1.175,2.956,2.624v0.739
			H13.096z"/>
		<path fill="#5C3E6C" d="M-5.205,36.158c0,1.21-0.981,2.19-2.191,2.19l0,0c-1.21,0-2.19-0.98-2.19-2.19v-9.852
			c0-1.21,0.98-2.19,2.19-2.19l0,0c1.21,0,2.191,0.98,2.191,2.19V36.158z"/>
		<path fill="#5C3E6C" d="M30.2,36.075c0,1.209-0.98,2.19-2.191,2.19l0,0c-1.209,0-2.19-0.981-2.19-2.19v-9.852
			c0-1.21,0.981-2.19,2.19-2.19l0,0c1.211,0,2.191,0.98,2.191,2.19V36.075z"/>
		<path fill="#5C3E6C" d="M-4.423,43.667c0,1.3-1.054,2.354-2.353,2.354h-1.241c-1.299,0-2.353-1.054-2.353-2.354v-2.818
			c0-1.301,1.054-2.354,2.353-2.354h1.241c1.299,0,2.353,1.053,2.353,2.354V43.667z"/>
	</g>
</g>
</svg>
