<?xml version="1.0" encoding="utf-8"?>
<!-- Generator: Adobe Illustrator 15.0.0, SVG Export Plug-In . SVG Version: 6.00 Build 0)  -->
<!DOCTYPE svg PUBLIC "-//W3C//DTD SVG 1.1//EN" "http://www.w3.org/Graphics/SVG/1.1/DTD/svg11.dtd">
<svg version="1.1" id="Layer_1" xmlns="http://www.w3.org/2000/svg" xmlns:xlink="http://www.w3.org/1999/xlink" x="0px" y="0px"
	 width="850px" height="770px" viewBox="0 0 850 770" enable-background="new 0 0 850 770" xml:space="preserve">
<circle fill="#5C3E6C" cx="77.719" cy="74.137" r="70.231"/>
<circle fill="#5C3E6C" cx="250.521" cy="75.84" r="70.23"/>
<circle fill="#5C3E6C" cx="423.782" cy="76.175" r="70.23"/>
<path fill="#BA6D82" d="M449.109,123.093c0,3.707-3.004,6.712-6.713,6.712h-37.061c-3.707,0-6.712-3.005-6.712-6.712V29.574
	c0-3.707,3.005-6.711,6.712-6.711h37.061c3.709,0,6.713,3.004,6.713,6.711V123.093z"/>
<g>
	<path fill="#F2E082" d="M443.793,109.895c0,0.355-0.291,0.646-0.646,0.646h-38.708c-0.355,0-0.646-0.291-0.646-0.646V34
		c0-0.355,0.291-0.646,0.646-0.646h38.708c0.354,0,0.646,0.291,0.646,0.646V109.895z"/>
</g>
<circle fill="#5C3E6C" cx="423.75" cy="121.038" r="4.328"/>
<circle fill="#5C3E6C" cx="76.998" cy="282.28" r="70.231"/>
<circle fill="#5C3E6C" cx="249.799" cy="283.984" r="70.23"/>
<circle fill="#5C3E6C" cx="423.06" cy="284.318" r="70.231"/>
<path fill="#F8E8A5" d="M392.169,327.915c0,1.497,1.213,2.71,2.709,2.71h60.17c1.496,0,2.707-1.213,2.707-2.71v-82.912
	c0-1.495-1.211-2.708-2.707-2.708h-60.17c-1.496,0-2.709,1.213-2.709,2.708V327.915L392.169,327.915z"/>
<path fill="#BA6D82" stroke="#BA6D82" stroke-width="3" stroke-miterlimit="10" d="M397.45,248.76c0,0.84-0.684,1.522-1.523,1.522
	h-7.919c-0.841,0-1.521-0.682-1.521-1.522l0,0c0-0.842,0.681-1.523,1.521-1.523h7.919C396.767,247.237,397.45,247.918,397.45,248.76
	L397.45,248.76z"/>
<path fill="#BA6D82" stroke="#BA6D82" stroke-width="3" stroke-miterlimit="10" d="M397.347,259.252
	c0,0.841-0.681,1.523-1.521,1.523h-7.92c-0.84,0-1.522-0.682-1.522-1.523l0,0c0-0.84,0.684-1.523,1.522-1.523h7.92
	C396.667,257.729,397.347,258.412,397.347,259.252L397.347,259.252z"/>
<path fill="#BA6D82" stroke="#BA6D82" stroke-width="3" stroke-miterlimit="10" d="M397.705,270.082
	c0,0.841-0.684,1.523-1.524,1.523h-7.918c-0.843,0-1.522-0.682-1.522-1.523l0,0c0-0.84,0.681-1.522,1.522-1.522h7.918
	C397.021,268.56,397.705,269.242,397.705,270.082L397.705,270.082z"/>
<path fill="#BA6D82" stroke="#BA6D82" stroke-width="3" stroke-miterlimit="10" d="M397.6,280.576c0,0.84-0.68,1.522-1.521,1.522
	h-7.922c-0.84,0-1.521-0.682-1.521-1.522l0,0c0-0.842,0.683-1.524,1.521-1.524h7.922C396.92,279.052,397.6,279.734,397.6,280.576
	L397.6,280.576z"/>
<path fill="#BA6D82" stroke="#BA6D82" stroke-width="3" stroke-miterlimit="10" d="M397.272,291.642
	c0,0.842-0.683,1.523-1.521,1.523h-7.921c-0.842,0-1.522-0.681-1.522-1.523l0,0c0-0.842,0.682-1.524,1.522-1.524h7.921
	C396.59,290.118,397.272,290.8,397.272,291.642L397.272,291.642z"/>
<path fill="#BA6D82" stroke="#BA6D82" stroke-width="3" stroke-miterlimit="10" d="M397.171,302.134c0,0.84-0.684,1.522-1.523,1.522
	h-7.919c-0.842,0-1.522-0.682-1.522-1.522l0,0c0-0.84,0.682-1.522,1.522-1.522h7.919
	C396.488,300.612,397.171,301.294,397.171,302.134L397.171,302.134z"/>
<path fill="#BA6D82" stroke="#BA6D82" stroke-width="3" stroke-miterlimit="10" d="M397.527,312.965c0,0.84-0.685,1.522-1.523,1.522
	h-7.919c-0.842,0-1.524-0.682-1.524-1.522l0,0c0-0.842,0.684-1.524,1.524-1.524h7.919
	C396.843,311.441,397.527,312.124,397.527,312.965L397.527,312.965z"/>
<path fill="#BA6D82" stroke="#BA6D82" stroke-width="3" stroke-miterlimit="10" d="M397.425,323.458c0,0.84-0.684,1.521-1.523,1.521
	h-7.918c-0.841,0-1.524-0.681-1.524-1.521l0,0c0-0.84,0.685-1.522,1.524-1.522h7.918
	C396.742,321.936,397.425,322.618,397.425,323.458L397.425,323.458z"/>
<circle fill="#5C3E6C" cx="598.57" cy="76.174" r="70.23"/>
<path fill="#5C3E6C" d="M701.6,76.508c0,38.788,31.443,70.231,70.229,70.231c38.791,0,70.233-31.443,70.233-70.231
	c0-38.786-31.442-70.23-70.233-70.23C733.043,6.278,701.6,37.723,701.6,76.508z"/>
<g>
	<path fill="#BA6D82" d="M798.67,110.914c0,1.669-1.365,3.035-3.035,3.035h-47.606c-1.67,0-3.035-1.366-3.035-3.035V42.107
		c0-1.67,1.365-3.036,3.035-3.036h47.606c1.67,0,3.035,1.366,3.035,3.036V110.914z"/>
</g>
<path fill="#D89DB2" d="M763.391,39.394c0,4.66,3.779,8.44,8.439,8.44s8.441-3.78,8.441-8.44c0-0.108-0.013-0.216-0.019-0.323
	h-16.848C763.4,39.178,763.391,39.286,763.391,39.394"/>
<g>
	<path fill="#F8E8A5" d="M741.248,53.668c0,2.143-1.637,3.267-3.637,2.499l-11.095-4.261c-2-0.769-2-2.025,0-2.794l11.095-4.262
		c2-0.769,3.637,0.356,3.637,2.499V53.668z"/>
</g>
<g>
	<path fill="#F8E8A5" d="M741.248,70.898c0,2.143-1.637,3.267-3.637,2.498l-11.095-4.262c-2-0.768-2-2.025,0-2.793l11.095-4.262
		c2-0.768,3.637,0.356,3.637,2.499V70.898z"/>
</g>
<g>
	<path fill="#F8E8A5" d="M741.248,88.326c0,2.143-1.637,3.267-3.637,2.499l-11.095-4.263c-2-0.768-2-2.025,0-2.794l11.095-4.262
		c2-0.769,3.637,0.355,3.637,2.498V88.326z"/>
</g>
<g>
	<path fill="#F8E8A5" d="M741.248,106.017c0,2.143-1.637,3.267-3.637,2.499l-11.095-4.263c-2-0.768-2-2.025,0-2.793l11.095-4.262
		c2-0.768,3.637,0.356,3.637,2.499V106.017z"/>
</g>
<g>
	<path fill="#F8E8A5" d="M802.545,53.576c0,2.143,1.637,3.267,3.637,2.499l11.093-4.261c2-0.769,2-2.025,0-2.794l-11.095-4.262
		c-1.998-0.769-3.635,0.356-3.635,2.499V53.576z"/>
</g>
<g>
	<path fill="#F8E8A5" d="M802.545,70.806c0,2.143,1.637,3.267,3.635,2.498l11.095-4.262c2-0.768,2-2.025,0-2.794l-11.093-4.261
		c-2-0.769-3.637,0.356-3.637,2.499V70.806z"/>
</g>
<g>
	<path fill="#F8E8A5" d="M802.545,88.234c0,2.143,1.637,3.267,3.635,2.499l11.095-4.262c2-0.769,2-2.026,0-2.794l-11.093-4.262
		c-2-0.768-3.637,0.356-3.637,2.499V88.234z"/>
</g>
<g>
	<path fill="#F8E8A5" d="M802.545,105.925c0,2.143,1.637,3.267,3.637,2.499l11.093-4.262c2-0.768,2-2.025,0-2.793l-11.095-4.262
		c-1.998-0.769-3.635,0.355-3.635,2.498V105.925z"/>
</g>
<circle fill="#5C3E6C" cx="599.816" cy="284.318" r="70.23"/>
<circle fill="#5C3E6C" cx="773.077" cy="284.318" r="70.229"/>
<path fill="#F2E082" d="M118.956,55.523c0,2.099-1.702,3.8-3.8,3.8H40.103c-2.098,0-3.8-1.701-3.8-3.8V43.586
	c0-2.098,1.702-3.8,3.8-3.8h75.053c2.099,0,3.8,1.702,3.8,3.8V55.523z"/>
<path fill="#D89DB2" d="M46.943,70.009H32.988c-3.437,0-6.233-2.983-6.233-6.65V48.792c0-1.574,1.276-2.85,2.85-2.85
	s2.85,1.276,2.85,2.85v14.567c0,0.589,0.345,0.95,0.533,0.95h13.955c1.574,0,2.85,1.276,2.85,2.85
	C49.793,68.733,48.517,70.009,46.943,70.009z"/>
<path fill="#D89DB2" d="M121.732,70.009h-14.016c-1.574,0-2.85-1.276-2.85-2.85c0-1.574,1.276-2.85,2.85-2.85h14.016
	c0.144,0,0.497-0.333,0.497-0.95V48.792c0-1.574,1.276-2.85,2.85-2.85c1.574,0,2.85,1.276,2.85,2.85v14.567
	C127.929,67.026,125.148,70.009,121.732,70.009z"/>
<path fill="#BA6D82" d="M102.066,66.565c0-1.595-1.26-2.885-2.837-2.956c-0.018-0.008-0.028-0.013-0.028-0.013h-0.104H96.47H77.842
	h-1h-0.228H57.986h-2.628h-0.103c0,0-0.01,0.004-0.028,0.013c-1.578,0.07-2.838,1.361-2.838,2.956c0,0.084,0.018,0.165,0.025,0.248
	c-0.211,1.613,1.029,3.762,6.166,6.283c11.612,5.7,11.612,13.3,11.612,14.725v32.775c0,3.673,2.977,6.65,6.65,6.65h1
	c3.673,0,6.65-2.977,6.65-6.65V85.485c0.614-3.043,2.896-8.222,11.384-12.389c5.138-2.522,6.377-4.671,6.165-6.285
	C102.048,66.729,102.066,66.65,102.066,66.565z"/>
<path fill="#F2E082" d="M245.316,38.555h10.41c1.693-1.297,2.879-3.778,1.743-8.499c-2.595-10.8-6.529-14.903-6.948-15.406
	c-0.418,0.502-4.354,4.605-6.949,15.406C242.437,34.777,243.623,37.258,245.316,38.555z"/>
<polygon fill="#D89DB2" points="255.401,41.701 250.521,41.701 250.098,41.701 245.218,41.701 244.218,66.701 250.098,66.701 
	250.521,66.701 256.401,66.701 "/>
<path fill="#BA6D82" d="M256.824,69.7h-6.303h-6.303c0,0-2.947,15.236,3.151,64.08c0,0,0.204,3.159,3.151,3.159
	s3.151-3.159,3.151-3.159C259.771,84.937,256.824,69.7,256.824,69.7z"/>
<g>
	<path fill="#F2E082" d="M601.191,22.489c-0.285-0.471-0.519-0.406-0.519,0.144v24.889c0,0.55,0.34,1.295,0.756,1.656
		c0,0,1.822,1.583,1.822,3.368c0,2.45-1.986,4.436-4.436,4.436c-2.451,0-4.437-1.986-4.437-4.436c0-1.796,1.846-3.385,1.846-3.385
		c0.416-0.359,0.759-1.103,0.759-1.652V22.563c0-0.55-0.232-0.615-0.517-0.144L581.607,47.33c-0.345,0.429-0.576,1.227-0.517,1.773
		l2.873,25.521c0.051,0.547,0.541,0.996,1.092,0.996h12.761c0.549,0,1.448,0,2,0h12.76c0.549,0,1.041-0.448,1.092-0.996
		l2.871-25.521c0.062-0.546-0.17-1.344-0.516-1.773L601.191,22.489z"/>
</g>
<path fill="#BA6D82" d="M611.65,79.624h-25.172c-2.763,0-5,2.239-5,5v1.389v17.411V116.2c0,8.057,6.53,14.587,14.588,14.587h5.996
	c8.057,0,14.588-6.531,14.588-14.587v-12.776V86.012v-1.389C616.65,81.862,614.412,79.624,611.65,79.624z"/>
<path fill="#F2E082" d="M51.44,298.973c1.758,1.828,1.758,4.57,0,6.328c-0.914,0.843-1.969,1.265-3.094,1.265
	c-1.195,0-2.32-0.422-3.234-1.265l-19.755-20.037c-0.211-0.071-0.281-0.211-0.352-0.422c-0.07-0.07-0.211-0.141-0.211-0.141
	c-0.141-0.21-0.141-0.351-0.211-0.562c-0.141-0.07-0.211-0.21-0.211-0.281c-0.07-0.141-0.07-0.352-0.14-0.422
	c0-0.211-0.141-0.281-0.141-0.352c0-0.211,0-0.352,0-0.492c0-0.14-0.071-0.21-0.071-0.422c0-0.07,0.071-0.281,0.071-0.352
	c0-0.141,0-0.351,0-0.492c0-0.141,0.141-0.211,0.141-0.281c0.07-0.211,0.07-0.352,0.14-0.562c0-0.07,0.07-0.07,0.07-0.141
	c0.141-0.211,0.211-0.492,0.352-0.633c0,0,0-0.141,0.141-0.141c0.07-0.141,0.211-0.352,0.422-0.492l19.755-20.037
	c1.757-1.687,4.64-1.687,6.328,0c1.758,1.758,1.758,4.57,0,6.327L34.778,282.17L51.44,298.973z"/>
<path fill="#F2E082" d="M65.454,301.223l17.225-40.987c0.843-1.968,3.093-2.882,5.132-2.039c1.899,0.773,2.812,3.094,1.968,4.992
	l-17.225,41.058c-0.632,1.476-2.109,2.32-3.585,2.32c-0.422,0-0.984-0.07-1.406-0.281C65.524,305.511,64.61,303.191,65.454,301.223z
	"/>
<path fill="#F2E082" d="M130.646,284.701c0,0,0,0.071-0.07,0.071c-0.141,0.141-0.281,0.351-0.492,0.492l-19.756,20.037
	c-0.844,0.843-2.039,1.265-3.164,1.265c-1.194,0-2.249-0.422-3.164-1.265c-1.757-1.758-1.757-4.5,0-6.328l16.664-16.803L104,265.367
	c-1.757-1.757-1.757-4.569,0-6.327c1.688-1.687,4.57-1.687,6.328,0l19.756,20.037c0.211,0.141,0.352,0.352,0.492,0.492
	c0.07,0,0.07,0.141,0.07,0.141c0.141,0.281,0.281,0.422,0.351,0.633c0,0.07,0.071,0.07,0.071,0.141
	c0.069,0.21,0.069,0.351,0.21,0.632c0,0.071,0.071,0.071,0.071,0.211c0,0.14,0,0.351,0,0.492c0,0.07,0.069,0.281,0.069,0.352
	c0,0.071-0.069,0.281-0.069,0.352c0,0.21,0,0.351,0,0.562c0,0.07-0.071,0.07-0.071,0.141c-0.141,0.281-0.141,0.492-0.21,0.633
	c0,0.07-0.071,0.07-0.071,0.211C130.927,284.209,130.787,284.419,130.646,284.701z"/>
<polygon fill="#D89DB2" points="258.086,249.892 249.684,224.575 241.284,249.892 "/>
<polygon fill="#BA6D82" points="253.25,235.318 249.684,224.575 246.12,235.318 "/>
<g>
	<path fill="#F2E082" d="M241.353,253.25c-0.229,0-0.415,0.187-0.415,0.415v61.895c0,0.228,0.187,0.415,0.415,0.415h16.893
		c0.229,0,0.415-0.187,0.415-0.415v-61.895c0-0.228-0.187-0.415-0.415-0.415H241.353z"/>
</g>
<rect x="240.938" y="318.792" fill="#D89DB2" width="17.723" height="9.348"/>
<path fill="#BA6D82" d="M240.938,331.112v7.659c0,2.672,2.268,4.838,5.066,4.838h7.59c2.797,0,5.066-2.166,5.066-4.838v-7.659
	H240.938z"/>
<path fill="#BA6D82" d="M609.574,275.752c0,2.69-2.269,4.871-5.064,4.871h-9.879c-2.795,0-5.064-2.181-5.064-4.871v-46.479
	c0-2.69,2.271-4.871,5.064-4.871h9.879c2.797,0,5.064,2.181,5.064,4.871V275.752z"/>
<rect x="595.393" y="293.13" fill="#F2E082" width="8.357" height="42.565"/>
<path fill="#F2E082" d="M593.113,337.529c0,2.69,2.268,4.871,5.063,4.871h3.039c2.797,0,5.064-2.181,5.064-4.871v-5.98
	c0-2.69-2.269-4.871-5.064-4.871h-3.039c-2.797,0-5.063,2.18-5.063,4.871V337.529z"/>
<path fill="#BA6D82" d="M609.574,284.699c0,2.63-2.133,4.763-4.765,4.763H594.33c-2.631,0-4.764-2.133-4.764-4.763l0,0
	c0-2.631,2.133-4.764,4.764-4.764h10.479C607.441,279.936,609.574,282.068,609.574,284.699L609.574,284.699z"/>
<path fill="#D89DB2" d="M743.695,247.635c-1.631-3.186-3.767-3.696-4.004-3.744c-0.168-0.034-0.341-0.034-0.509,0
	c-0.237,0.048-2.37,0.559-4.002,3.744c-1.973,3.853-2.414,9.945-1.311,18.105c2.537,18.763,4.264,55.709,4.281,56.08
	c0.03,0.687,0.598,1.228,1.284,1.228c0.688,0,1.255-0.541,1.287-1.228c0.017-0.371,1.742-37.317,4.279-56.08
	C746.107,257.58,745.666,251.488,743.695,247.635z"/>
<ellipse fill="#5C3E6C" cx="739.529" cy="254.53" rx="3.239" ry="6.385"/>
<path fill="#F8E8A5" d="M806.373,300.611c0,0.79-0.641,1.43-1.432,1.43h-38.328c-0.791,0-1.433-0.64-1.433-1.43v-32.626
	c0-0.79,0.642-1.43,1.433-1.43h38.328c0.791,0,1.432,0.64,1.432,1.43V300.611z"/>
<circle fill="#BA6D82" cx="77.645" cy="486.104" r="70.231"/>
<circle fill="#BA6D82" cx="250.447" cy="487.81" r="70.23"/>
<circle fill="#BA6D82" cx="423.708" cy="488.144" r="70.23"/>
<path fill="#5C3E6C" d="M449.035,535.062c0,3.706-3.004,6.713-6.713,6.713h-37.061c-3.707,0-6.712-3.006-6.712-6.713v-93.521
	c0-3.707,3.005-6.711,6.712-6.711h37.061c3.709,0,6.713,3.004,6.713,6.711V535.062z"/>
<g>
	<path fill="#F2E082" d="M443.719,521.862c0,0.354-0.291,0.646-0.646,0.646h-38.708c-0.355,0-0.646-0.291-0.646-0.646V445.97
		c0-0.354,0.291-0.646,0.646-0.646h38.708c0.354,0,0.646,0.291,0.646,0.646V521.862z"/>
</g>
<circle fill="#BA6D82" cx="423.676" cy="533.007" r="4.328"/>
<circle fill="#BA6D82" cx="76.924" cy="691.727" r="70.231"/>
<circle fill="#BA6D82" cx="249.725" cy="693.43" r="70.23"/>
<circle fill="#BA6D82" cx="422.986" cy="693.764" r="70.231"/>
<path fill="#F8E8A5" d="M392.095,737.361c0,1.496,1.213,2.709,2.709,2.709h60.17c1.496,0,2.707-1.213,2.707-2.709v-82.912
	c0-1.496-1.211-2.709-2.707-2.709h-60.17c-1.496,0-2.709,1.213-2.709,2.709V737.361z"/>
<path fill="#5C3E6C" stroke="#5C3E6C" stroke-width="3" stroke-miterlimit="10" d="M397.375,658.207c0,0.84-0.683,1.521-1.523,1.521
	h-7.919c-0.841,0-1.521-0.682-1.521-1.521l0,0c0-0.842,0.681-1.523,1.521-1.523h7.919
	C396.693,656.684,397.375,657.365,397.375,658.207L397.375,658.207z"/>
<path fill="#5C3E6C" stroke="#5C3E6C" stroke-width="3" stroke-miterlimit="10" d="M397.273,668.699c0,0.84-0.682,1.521-1.522,1.521
	h-7.92c-0.84,0-1.522-0.682-1.522-1.521l0,0c0-0.842,0.684-1.523,1.522-1.523h7.92C396.592,667.176,397.273,667.857,397.273,668.699
	L397.273,668.699z"/>
<path fill="#5C3E6C" stroke="#5C3E6C" stroke-width="3" stroke-miterlimit="10" d="M397.63,679.527c0,0.842-0.684,1.522-1.523,1.522
	h-7.918c-0.844,0-1.523-0.682-1.523-1.522l0,0c0-0.841,0.681-1.521,1.523-1.521h7.918
	C396.947,678.006,397.63,678.688,397.63,679.527L397.63,679.527z"/>
<path fill="#5C3E6C" stroke="#5C3E6C" stroke-width="3" stroke-miterlimit="10" d="M397.526,690.021c0,0.84-0.681,1.521-1.521,1.521
	h-7.922c-0.84,0-1.521-0.682-1.521-1.521l0,0c0-0.843,0.682-1.523,1.521-1.523h7.922
	C396.846,688.498,397.526,689.18,397.526,690.021L397.526,690.021z"/>
<path fill="#5C3E6C" stroke="#5C3E6C" stroke-width="3" stroke-miterlimit="10" d="M397.198,701.088
	c0,0.842-0.683,1.523-1.521,1.523h-7.921c-0.842,0-1.521-0.683-1.521-1.523l0,0c0-0.842,0.681-1.522,1.521-1.522h7.921
	C396.516,699.564,397.198,700.246,397.198,701.088L397.198,701.088z"/>
<path fill="#5C3E6C" stroke="#5C3E6C" stroke-width="3" stroke-miterlimit="10" d="M397.097,711.58c0,0.84-0.684,1.521-1.523,1.521
	h-7.918c-0.843,0-1.523-0.682-1.523-1.521l0,0c0-0.84,0.683-1.521,1.523-1.521h7.918C396.414,710.059,397.097,710.74,397.097,711.58
	L397.097,711.58z"/>
<path fill="#5C3E6C" stroke="#5C3E6C" stroke-width="3" stroke-miterlimit="10" d="M397.453,722.412c0,0.84-0.685,1.521-1.523,1.521
	h-7.919c-0.842,0-1.523-0.682-1.523-1.521l0,0c0-0.842,0.683-1.525,1.523-1.525h7.919
	C396.769,720.887,397.453,721.57,397.453,722.412L397.453,722.412z"/>
<path fill="#5C3E6C" stroke="#5C3E6C" stroke-width="3" stroke-miterlimit="10" d="M397.351,732.904c0,0.84-0.684,1.521-1.523,1.521
	h-7.918c-0.84,0-1.524-0.682-1.524-1.521l0,0c0-0.84,0.686-1.523,1.524-1.523h7.918
	C396.667,731.381,397.351,732.064,397.351,732.904L397.351,732.904z"/>
<circle fill="#BA6D82" cx="598.496" cy="488.144" r="70.23"/>
<path fill="#BA6D82" d="M701.525,488.478c0,38.787,31.442,70.23,70.229,70.23c38.791,0,70.234-31.443,70.234-70.23
	c0-38.786-31.443-70.229-70.234-70.229C732.969,418.247,701.525,449.69,701.525,488.478z"/>
<g>
	<path fill="#5C3E6C" d="M798.596,522.88c0,1.67-1.364,3.037-3.035,3.037h-47.606c-1.67,0-3.035-1.367-3.035-3.037v-68.805
		c0-1.67,1.365-3.035,3.035-3.035h47.606c1.671,0,3.035,1.365,3.035,3.035V522.88z"/>
</g>
<path fill="#D89DB2" d="M763.316,451.363c0,4.66,3.778,8.438,8.438,8.438s8.441-3.778,8.441-8.438c0-0.109-0.013-0.217-0.019-0.324
	H763.33C763.326,451.146,763.316,451.254,763.316,451.363"/>
<g>
	<path fill="#F8E8A5" d="M741.174,465.636c0,2.144-1.637,3.269-3.637,2.5l-11.094-4.262c-2-0.768-2-2.025,0-2.793l11.094-4.262
		c2-0.771,3.637,0.354,3.637,2.498V465.636z"/>
</g>
<g>
	<path fill="#F8E8A5" d="M741.174,482.866c0,2.143-1.637,3.268-3.637,2.498l-11.094-4.263c-2-0.768-2-2.024,0-2.793l11.094-4.262
		c2-0.77,3.637,0.355,3.637,2.498V482.866z"/>
</g>
<g>
	<path fill="#F8E8A5" d="M741.174,500.294c0,2.144-1.637,3.269-3.637,2.5l-11.094-4.264c-2-0.769-2-2.025,0-2.793l11.094-4.263
		c2-0.77,3.637,0.355,3.637,2.498V500.294z"/>
</g>
<g>
	<path fill="#F8E8A5" d="M741.174,517.985c0,2.143-1.637,3.268-3.637,2.5l-11.094-4.265c-2-0.768-2-2.024,0-2.793l11.094-4.262
		c2-0.768,3.637,0.357,3.637,2.5V517.985z"/>
</g>
<g>
	<path fill="#F8E8A5" d="M802.471,465.544c0,2.144,1.638,3.269,3.638,2.498l11.092-4.26c2-0.771,2-2.025,0-2.795l-11.094-4.263
		c-1.998-0.768-3.636,0.357-3.636,2.5V465.544z"/>
</g>
<g>
	<path fill="#F8E8A5" d="M802.471,482.774c0,2.143,1.638,3.268,3.636,2.497l11.094-4.262c2-0.768,2-2.024,0-2.795l-11.092-4.26
		c-2-0.771-3.638,0.354-3.638,2.498V482.774z"/>
</g>
<g>
	<path fill="#F8E8A5" d="M802.471,500.202c0,2.143,1.638,3.268,3.636,2.5l11.094-4.262c2-0.771,2-2.027,0-2.796l-11.092-4.262
		c-2-0.768-3.638,0.357-3.638,2.5V500.202z"/>
</g>
<g>
	<path fill="#F8E8A5" d="M802.471,517.894c0,2.144,1.638,3.269,3.638,2.5l11.092-4.262c2-0.768,2-2.024,0-2.793l-11.094-4.262
		c-1.998-0.771-3.636,0.354-3.636,2.498V517.894z"/>
</g>
<circle fill="#BA6D82" cx="599.742" cy="693.764" r="70.23"/>
<circle fill="#BA6D82" cx="773.003" cy="693.764" r="70.229"/>
<path fill="#F2E082" d="M118.882,467.491c0,2.1-1.702,3.801-3.8,3.801H40.028c-2.098,0-3.8-1.701-3.8-3.801v-11.937
	c0-2.1,1.702-3.801,3.8-3.801h75.053c2.099,0,3.8,1.701,3.8,3.801L118.882,467.491L118.882,467.491z"/>
<path fill="#D89DB2" d="M46.869,481.978H32.914c-3.437,0-6.233-2.981-6.233-6.649v-14.566c0-1.574,1.276-2.85,2.85-2.85
	c1.574,0,2.85,1.274,2.85,2.85v14.566c0,0.59,0.345,0.951,0.533,0.951h13.955c1.574,0,2.85,1.274,2.85,2.85
	S48.442,481.978,46.869,481.978z"/>
<path fill="#D89DB2" d="M121.658,481.978h-14.016c-1.574,0-2.85-1.274-2.85-2.85s1.276-2.85,2.85-2.85h14.016
	c0.144,0,0.497-0.334,0.497-0.951v-14.566c0-1.574,1.276-2.85,2.85-2.85c1.574,0,2.85,1.274,2.85,2.85v14.566
	C127.854,478.995,125.074,481.978,121.658,481.978z"/>
<path fill="#5C3E6C" d="M101.992,478.534c0-1.597-1.26-2.885-2.837-2.957c-0.018-0.008-0.028-0.012-0.028-0.012h-0.104h-2.628
	H77.768h-1H76.54H57.912h-2.628H55.18c0,0-0.01,0.004-0.028,0.012c-1.578,0.07-2.838,1.36-2.838,2.957
	c0,0.084,0.018,0.164,0.025,0.248c-0.211,1.612,1.029,3.762,6.166,6.283c11.612,5.698,11.612,13.299,11.612,14.725v32.775
	c0,3.672,2.977,6.649,6.65,6.649h1c3.673,0,6.65-2.979,6.65-6.649v-35.111c0.614-3.043,2.896-8.223,11.384-12.389
	c5.138-2.523,6.377-4.673,6.165-6.285C101.974,478.698,101.992,478.618,101.992,478.534z"/>
<path fill="#F2E082" d="M245.242,450.524h10.41c1.693-1.3,2.879-3.779,1.743-8.5c-2.595-10.802-6.529-14.902-6.948-15.406
	c-0.418,0.504-4.354,4.604-6.949,15.406C242.363,446.745,243.548,449.226,245.242,450.524z"/>
<polygon fill="#D89DB2" points="255.327,453.669 250.447,453.669 250.024,453.669 245.144,453.669 244.144,478.669 250.024,478.669 
	250.447,478.669 256.327,478.669 "/>
<path fill="#5C3E6C" d="M256.75,481.669h-6.303h-6.303c0,0-2.947,15.236,3.151,64.08c0,0,0.204,3.158,3.151,3.158
	c2.947,0,3.151-3.158,3.151-3.158C259.697,496.905,256.75,481.669,256.75,481.669z"/>
<g>
	<path fill="#F2E082" d="M601.117,434.458c-0.285-0.471-0.519-0.406-0.519,0.143v24.89c0,0.551,0.341,1.295,0.757,1.656
		c0,0,1.821,1.582,1.821,3.368c0,2.449-1.985,4.437-4.436,4.437c-2.451,0-4.437-1.986-4.437-4.437c0-1.797,1.847-3.385,1.847-3.385
		c0.416-0.358,0.758-1.104,0.758-1.652v-24.944c0-0.551-0.232-0.615-0.517-0.146l-14.86,24.91c-0.344,0.43-0.576,1.228-0.517,1.773
		l2.873,25.521c0.052,0.547,0.541,0.996,1.093,0.996h12.76c0.549,0,1.449,0,2,0h12.76c0.549,0,1.041-0.449,1.092-0.996l2.871-25.521
		c0.062-0.547-0.17-1.345-0.516-1.773L601.117,434.458z"/>
</g>
<path fill="#5C3E6C" d="M611.576,491.593h-25.172c-2.763,0-5,2.238-5,5v1.39v17.409v12.775c0,8.057,6.53,14.588,14.588,14.588h5.996
	c8.057,0,14.588-6.531,14.588-14.588v-12.775v-17.409v-1.39C616.576,493.831,614.338,491.593,611.576,491.593z"/>
<path fill="#F2E082" d="M51.366,708.42c1.758,1.828,1.758,4.568,0,6.326c-0.914,0.844-1.969,1.266-3.094,1.266
	c-1.195,0-2.32-0.422-3.234-1.266l-19.755-20.037c-0.211-0.07-0.281-0.211-0.352-0.422c-0.07-0.07-0.211-0.141-0.211-0.141
	c-0.141-0.212-0.141-0.353-0.211-0.562c-0.141-0.07-0.211-0.211-0.211-0.281c-0.07-0.141-0.07-0.352-0.14-0.422
	c0-0.211-0.141-0.281-0.141-0.352c0-0.211,0-0.353,0-0.492c0-0.141-0.071-0.209-0.071-0.422c0-0.07,0.071-0.281,0.071-0.353
	c0-0.141,0-0.35,0-0.489c0-0.141,0.141-0.214,0.141-0.281c0.07-0.213,0.07-0.354,0.14-0.562c0-0.069,0.07-0.069,0.07-0.141
	c0.141-0.211,0.211-0.492,0.352-0.633c0,0,0-0.142,0.141-0.142c0.07-0.141,0.211-0.352,0.422-0.491l19.755-20.037
	c1.757-1.688,4.64-1.688,6.328,0c1.758,1.758,1.758,4.569,0,6.326l-16.662,16.803L51.366,708.42z"/>
<path fill="#F2E082" d="M65.38,710.668l17.225-40.986c0.843-1.969,3.093-2.883,5.132-2.039c1.899,0.773,2.812,3.095,1.968,4.992
	L72.48,713.691c-0.632,1.477-2.109,2.319-3.585,2.319c-0.422,0-0.984-0.069-1.406-0.28C65.45,714.957,64.536,712.637,65.38,710.668z
	"/>
<path fill="#F2E082" d="M130.572,694.146c0,0,0,0.069-0.07,0.069c-0.141,0.142-0.281,0.353-0.492,0.492l-19.756,20.037
	c-0.844,0.844-2.039,1.266-3.164,1.266c-1.194,0-2.249-0.422-3.164-1.266c-1.757-1.758-1.757-4.498,0-6.326l16.664-16.805
	l-16.664-16.804c-1.757-1.756-1.757-4.567,0-6.325c1.688-1.688,4.57-1.688,6.328,0l19.756,20.037
	c0.211,0.141,0.352,0.352,0.492,0.491c0.07,0,0.07,0.142,0.07,0.142c0.141,0.28,0.281,0.422,0.351,0.633
	c0,0.07,0.071,0.07,0.071,0.141c0.069,0.209,0.069,0.351,0.21,0.631c0,0.072,0.071,0.072,0.071,0.214c0,0.141,0,0.35,0,0.489
	c0,0.07,0.069,0.281,0.069,0.353c0,0.072-0.069,0.281-0.069,0.354c0,0.209,0,0.351,0,0.562c0,0.069-0.071,0.069-0.071,0.141
	c-0.141,0.281-0.141,0.492-0.21,0.633c0,0.07-0.071,0.07-0.071,0.211C130.853,693.654,130.712,693.865,130.572,694.146z"/>
<polygon fill="#D89DB2" points="258.012,659.338 249.61,634.021 241.209,659.338 "/>
<polygon fill="#5C3E6C" points="253.176,644.764 249.61,634.021 246.045,644.764 "/>
<g>
	<path fill="#F2E082" d="M241.279,662.695c-0.229,0-0.415,0.188-0.415,0.416v61.895c0,0.229,0.187,0.416,0.415,0.416h16.893
		c0.229,0,0.415-0.188,0.415-0.416v-61.895c0-0.229-0.187-0.416-0.415-0.416H241.279z"/>
</g>
<rect x="240.864" y="728.238" fill="#D89DB2" width="17.723" height="9.348"/>
<path fill="#D89DB2" d="M240.864,740.559v7.658c0,2.672,2.268,4.838,5.066,4.838h7.59c2.797,0,5.066-2.166,5.066-4.838v-7.658
	H240.864z"/>
<path fill="#5C3E6C" d="M609.5,685.199c0,2.688-2.268,4.869-5.064,4.869h-9.879c-2.795,0-5.063-2.181-5.063-4.869V638.72
	c0-2.69,2.27-4.871,5.063-4.871h9.879c2.798,0,5.064,2.181,5.064,4.871V685.199z"/>
<rect x="595.318" y="702.576" fill="#F2E082" width="8.356" height="42.563"/>
<path fill="#F2E082" d="M593.039,746.975c0,2.689,2.268,4.871,5.064,4.871h3.038c2.798,0,5.064-2.182,5.064-4.871v-5.979
	c0-2.689-2.268-4.869-5.064-4.869h-3.038c-2.798,0-5.064,2.18-5.064,4.869V746.975z"/>
<path fill="#5C3E6C" d="M609.5,694.145c0,2.632-2.133,4.765-4.764,4.765h-10.48c-2.631,0-4.764-2.133-4.764-4.765l0,0
	c0-2.631,2.133-4.764,4.764-4.764h10.48C607.367,689.381,609.5,691.514,609.5,694.145L609.5,694.145z"/>
<path fill="#D89DB2" d="M743.621,657.08c-1.631-3.186-3.766-3.695-4.004-3.744c-0.168-0.033-0.34-0.033-0.508,0
	c-0.238,0.049-2.371,0.559-4.002,3.744c-1.974,3.854-2.414,9.945-1.312,18.104c2.537,18.765,4.264,55.709,4.281,56.08
	c0.031,0.688,0.598,1.229,1.285,1.229c0.687,0,1.254-0.541,1.286-1.229c0.017-0.37,1.742-37.315,4.279-56.08
	C746.033,667.025,745.592,660.934,743.621,657.08z"/>
<ellipse fill="#5C3E6C" cx="739.455" cy="663.977" rx="3.24" ry="6.385"/>
<path fill="#BA6D82" d="M759.461,258.853c0-2.045,1.46-3.703,3.261-3.703h46.111c1.801,0,3.261,1.658,3.261,3.703l0,0
	c0,2.045-1.46,3.704-3.261,3.704h-46.111C760.921,262.556,759.461,260.898,759.461,258.853L759.461,258.853z"/>
<path fill="#BA6D82" d="M759.461,309.963c0-2.08,1.46-3.766,3.261-3.766h46.111c1.801,0,3.261,1.686,3.261,3.766l0,0
	c0,2.08-1.46,3.767-3.261,3.767h-46.111C760.921,313.73,759.461,312.043,759.461,309.963L759.461,309.963z"/>
<path fill="#F8E8A5" d="M806.373,710.234c0,0.79-0.641,1.431-1.432,1.431h-38.328c-0.791,0-1.433-0.641-1.433-1.431v-32.626
	c0-0.791,0.642-1.432,1.433-1.432h38.328c0.791,0,1.432,0.641,1.432,1.432V710.234z"/>
<path fill="#5C3E6C" d="M759.461,668.476c0-2.045,1.46-3.702,3.261-3.702h46.111c1.801,0,3.261,1.657,3.261,3.702l0,0
	c0,2.046-1.46,3.703-3.261,3.703h-46.111C760.921,672.179,759.461,670.521,759.461,668.476L759.461,668.476z"/>
<path fill="#5C3E6C" d="M759.461,719.587c0-2.08,1.46-3.767,3.261-3.767h46.111c1.801,0,3.261,1.687,3.261,3.767l0,0
	c0,2.08-1.46,3.766-3.261,3.766h-46.111C760.921,723.354,759.461,721.667,759.461,719.587L759.461,719.587z"/>
</svg>
