<?xml version="1.0" encoding="utf-8"?>
<!-- Generator: Adobe Illustrator 15.0.0, SVG Export Plug-In . SVG Version: 6.00 Build 0)  -->
<!DOCTYPE svg PUBLIC "-//W3C//DTD SVG 1.1//EN" "http://www.w3.org/Graphics/SVG/1.1/DTD/svg11.dtd">
<svg version="1.1" id="Layer_1" xmlns="http://www.w3.org/2000/svg" xmlns:xlink="http://www.w3.org/1999/xlink" x="0px" y="0px"
	 width="980px" height="250px" viewBox="0 0 980 250" enable-background="new 0 0 980 250" xml:space="preserve">
<g>
	<circle fill="#5C3E6C" cx="51.032" cy="46.006" r="40.979"/>
	<g>
		<path fill="#F8E8A5" d="M74.539,35.292c0,1.172-0.951,2.123-2.121,2.123H30.513c-1.171,0-2.121-0.951-2.121-2.123v-6.665
			c0-1.171,0.95-2.121,2.121-2.121h41.905c1.172,0,2.121,0.95,2.121,2.121V35.292z"/>
		<path fill="#D89DB2" d="M34.332,43.38h-7.791c-1.918,0-3.48-1.665-3.48-3.712v-8.134c0-0.878,0.713-1.591,1.591-1.591
			c0.879,0,1.592,0.713,1.592,1.591v8.134c0,0.329,0.192,0.53,0.297,0.53h7.791c0.879,0,1.591,0.712,1.591,1.591
			C35.923,42.668,35.211,43.38,34.332,43.38z"/>
		<path fill="#D89DB2" d="M76.089,43.38h-7.826c-0.878,0-1.592-0.712-1.592-1.591c0-0.879,0.714-1.591,1.592-1.591h7.826
			c0.081,0,0.277-0.186,0.277-0.53v-8.134c0-0.878,0.712-1.591,1.591-1.591s1.592,0.713,1.592,1.591v8.134
			C79.55,41.715,77.997,43.38,76.089,43.38z"/>
		<path fill="#BA6D82" d="M65.109,41.458c0-0.892-0.703-1.612-1.583-1.651c-0.01-0.004-0.016-0.007-0.016-0.007h-0.058h-1.466
			H51.584h-0.559h-0.126h-10.4h-1.468h-0.057c0,0-0.006,0.002-0.016,0.007c-0.881,0.04-1.584,0.759-1.584,1.651
			c0,0.046,0.01,0.092,0.013,0.138c-0.118,0.9,0.575,2.101,3.443,3.508c6.483,3.183,6.483,7.425,6.483,8.221v18.3
			c0,2.051,1.662,3.713,3.712,3.713h0.559c2.051,0,3.712-1.662,3.712-3.713V52.021c0.343-1.699,1.617-4.591,6.356-6.917
			c2.869-1.409,3.561-2.608,3.442-3.51C65.099,41.548,65.109,41.505,65.109,41.458z"/>
	</g>
</g>
<g>
	<circle fill="#5C3E6C" cx="160.306" cy="46.473" r="40.979"/>
	<g>
		<path fill="#F8E8A5" d="M157.442,25.374h5.812c0.945-0.725,1.607-2.109,0.972-4.745c-1.449-6.031-3.645-8.321-3.878-8.603
			c-0.234,0.28-2.431,2.571-3.88,8.603C155.834,23.265,156.497,24.649,157.442,25.374z"/>
		<polygon fill="#D89DB2" points="163.072,27.13 160.348,27.13 160.111,27.13 157.387,27.13 156.828,41.088 160.111,41.088 
			160.348,41.088 163.63,41.088 		"/>
		<path fill="#BA6D82" d="M163.867,42.763h-3.519h-3.52c0,0-1.645,8.507,1.76,35.778c0,0,0.114,1.764,1.759,1.764
			c1.646,0,1.759-1.764,1.759-1.764C165.512,51.271,163.867,42.763,163.867,42.763z"/>
	</g>
</g>
<g>
	<circle fill="#5C3E6C" cx="270.026" cy="46.798" r="40.98"/>
	<g>
		<path fill="#BA6D82" d="M283.55,72.904c0,2.07-1.678,3.748-3.748,3.748h-20.693c-2.07,0-3.748-1.678-3.748-3.748V20.691
			c0-2.071,1.678-3.748,3.748-3.748h20.693c2.069,0,3.748,1.677,3.748,3.748V72.904z"/>
		<g>
			<path fill="#F8E8A5" d="M280.582,65.537c0,0.198-0.163,0.36-0.361,0.36H258.61c-0.199,0-0.361-0.162-0.361-0.36V23.161
				c0-0.198,0.162-0.36,0.361-0.36h21.611c0.198,0,0.361,0.162,0.361,0.36V65.537z"/>
		</g>
		<circle fill="#5C3E6C" cx="269.392" cy="71.758" r="2.417"/>
	</g>
</g>
<g>
	<circle fill="#5C3E6C" cx="811.422" cy="46.839" r="40.979"/>
	<g>
		<g>
			<path fill="#F8E8A5" d="M812.721,16.522c-0.159-0.263-0.291-0.227-0.291,0.081v13.896c0,0.307,0.191,0.723,0.423,0.924
				c0,0,1.018,0.884,1.018,1.88c0,1.368-1.11,2.477-2.479,2.477s-2.478-1.109-2.478-2.477c0-1.002,1.031-1.89,1.031-1.89
				c0.232-0.201,0.424-0.616,0.424-0.922V16.564c0-0.308-0.129-0.344-0.288-0.081l-8.295,13.909c-0.193,0.24-0.321,0.686-0.289,0.99
				l1.604,14.249c0.028,0.305,0.304,0.557,0.609,0.557h7.127c0.306,0,0.807,0,1.116,0h7.124c0.308,0,0.582-0.251,0.609-0.557
				l1.604-14.249c0.033-0.305-0.096-0.75-0.289-0.99L812.721,16.522z"/>
		</g>
		<path fill="#BA6D82" d="M818.56,48.422h-14.054c-1.544,0-2.792,1.25-2.792,2.792v0.775v9.721v7.134
			c0,4.498,3.646,8.143,8.146,8.143h3.348c4.497,0,8.145-3.646,8.145-8.143V61.71V51.99v-0.776
			C821.352,49.672,820.102,48.422,818.56,48.422z"/>
	</g>
</g>
<g>
	<circle fill="#5C3E6C" cx="921.142" cy="47.164" r="40.979"/>
	<g>
		<g>
			<path fill="#BA6D82" d="M936.205,66.365c0,0.931-0.762,1.694-1.695,1.694h-26.578c-0.934,0-1.695-0.764-1.695-1.694V27.947
				c0-0.933,0.762-1.694,1.695-1.694h26.578c0.934,0,1.695,0.762,1.695,1.694V66.365z"/>
		</g>
		<path fill="#D89DB2" d="M916.507,26.433c0,2.602,2.11,4.712,4.712,4.712s4.713-2.11,4.713-4.712c0-0.06-0.008-0.121-0.01-0.18
			h-9.408C916.512,26.312,916.507,26.373,916.507,26.433"/>
		<g>
			<path fill="#F8E8A5" d="M904.145,34.402c0,1.197-0.914,1.824-2.029,1.395l-6.198-2.378c-1.116-0.43-1.116-1.131,0-1.56
				l6.198-2.38c1.115-0.429,2.029,0.199,2.029,1.396V34.402z"/>
		</g>
		<g>
			<path fill="#F8E8A5" d="M904.145,44.022c0,1.196-0.914,1.824-2.029,1.395l-6.198-2.38c-1.116-0.428-1.116-1.13,0-1.559
				l6.198-2.379c1.115-0.429,2.029,0.198,2.029,1.396V44.022z"/>
		</g>
		<g>
			<path fill="#F8E8A5" d="M904.145,53.752c0,1.196-0.914,1.824-2.029,1.396l-6.198-2.381c-1.116-0.429-1.116-1.13,0-1.559
				l6.198-2.381c1.115-0.429,2.029,0.199,2.029,1.395V53.752z"/>
		</g>
		<g>
			<path fill="#F8E8A5" d="M904.145,63.631c0,1.196-0.914,1.825-2.029,1.394l-6.198-2.38c-1.116-0.429-1.116-1.13,0-1.56
				l6.198-2.379c1.115-0.428,2.029,0.199,2.029,1.396V63.631z"/>
		</g>
		<g>
			<path fill="#F8E8A5" d="M938.368,34.352c0,1.196,0.915,1.823,2.03,1.395l6.195-2.379c1.117-0.43,1.117-1.13,0-1.56l-6.195-2.38
				c-1.115-0.429-2.03,0.199-2.03,1.395V34.352L938.368,34.352z"/>
		</g>
		<g>
			<path fill="#F8E8A5" d="M938.368,43.971c0,1.197,0.915,1.825,2.03,1.395l6.195-2.379c1.117-0.429,1.117-1.131,0-1.561
				l-6.195-2.379c-1.115-0.429-2.03,0.198-2.03,1.395V43.971L938.368,43.971z"/>
		</g>
		<g>
			<path fill="#F8E8A5" d="M938.368,53.702c0,1.196,0.915,1.823,2.03,1.395l6.195-2.38c1.117-0.428,1.117-1.13,0-1.561l-6.195-2.379
				c-1.115-0.429-2.03,0.199-2.03,1.396V53.702L938.368,53.702z"/>
		</g>
		<g>
			<path fill="#F8E8A5" d="M938.368,63.579c0,1.197,0.915,1.824,2.03,1.396l6.195-2.379c1.117-0.431,1.117-1.131,0-1.561
				l-6.195-2.379c-1.115-0.431-2.03,0.198-2.03,1.394V63.579L938.368,63.579z"/>
		</g>
	</g>
</g>
<g>
	<circle fill="#5C3E6C" cx="379.026" cy="45.96" r="40.98"/>
	<g>
		<path fill="#F8E8A5" d="M364.256,55.146c0.982,1.021,0.982,2.551,0,3.534c-0.508,0.471-1.098,0.706-1.726,0.706
			c-0.668,0-1.297-0.234-1.807-0.706l-11.03-11.188c-0.118-0.04-0.157-0.118-0.198-0.235c-0.038-0.04-0.116-0.079-0.116-0.079
			c-0.079-0.117-0.079-0.196-0.118-0.314c-0.08-0.039-0.118-0.117-0.118-0.157c-0.04-0.078-0.04-0.196-0.078-0.235
			c0-0.118-0.08-0.156-0.08-0.196c0-0.117,0-0.197,0-0.275c0-0.077-0.04-0.117-0.04-0.235c0-0.039,0.04-0.157,0.04-0.196
			c0-0.079,0-0.196,0-0.274c0-0.079,0.08-0.117,0.08-0.157c0.038-0.118,0.038-0.197,0.078-0.314c0-0.039,0.038-0.039,0.038-0.079
			c0.08-0.117,0.119-0.273,0.198-0.353c0,0,0-0.079,0.079-0.079c0.038-0.079,0.118-0.196,0.235-0.274l11.03-11.187
			c0.981-0.942,2.591-0.942,3.532,0c0.982,0.981,0.982,2.551,0,3.532l-9.302,9.382L364.256,55.146z"/>
		<path fill="#F8E8A5" d="M372.081,56.402l9.619-22.885c0.471-1.098,1.726-1.609,2.865-1.138c1.06,0.431,1.57,1.728,1.099,2.787
			l-9.618,22.924c-0.352,0.824-1.176,1.295-2.001,1.295c-0.236,0-0.55-0.039-0.785-0.156C372.12,58.795,371.611,57.5,372.081,56.402
			z"/>
		<path fill="#F8E8A5" d="M408.481,47.178c0,0,0,0.039-0.04,0.039c-0.079,0.08-0.157,0.196-0.274,0.275l-11.03,11.188
			c-0.473,0.471-1.139,0.706-1.768,0.706c-0.667,0-1.256-0.234-1.766-0.706c-0.982-0.982-0.982-2.513,0-3.534l9.303-9.382
			l-9.303-9.382c-0.982-0.98-0.982-2.55,0-3.532c0.941-0.942,2.551-0.942,3.533,0l11.03,11.188c0.117,0.078,0.195,0.196,0.274,0.274
			c0.04,0,0.04,0.079,0.04,0.079c0.079,0.156,0.156,0.235,0.195,0.353c0,0.039,0.041,0.039,0.041,0.079
			c0.037,0.118,0.037,0.196,0.116,0.354c0,0.04,0.041,0.04,0.041,0.118s0,0.195,0,0.274c0,0.039,0.037,0.157,0.037,0.196
			s-0.037,0.158-0.037,0.196c0,0.118,0,0.197,0,0.314c0,0.039-0.041,0.039-0.041,0.079c-0.079,0.157-0.079,0.275-0.116,0.354
			c0,0.039-0.041,0.039-0.041,0.118C408.637,46.902,408.56,47.02,408.481,47.178z"/>
	</g>
</g>
<g>
	<circle fill="#5C3E6C" cx="485.68" cy="46.425" r="40.98"/>
	<g>
		<polygon fill="#D89DB2" points="490.729,27.554 486.038,13.419 481.347,27.554 		"/>
		<polygon fill="#BA6D82" points="488.028,19.417 486.038,13.419 484.047,19.417 		"/>
		<g>
			<path fill="#F8E8A5" d="M481.385,29.429c-0.127,0-0.233,0.104-0.233,0.231v34.558c0,0.128,0.107,0.233,0.233,0.233h9.433
				c0.128,0,0.232-0.105,0.232-0.233V29.66c0-0.127-0.105-0.231-0.232-0.231H481.385z"/>
		</g>
		<rect x="481.152" y="66.023" fill="#D89DB2" width="9.897" height="5.218"/>
		<path fill="#BA6D82" d="M481.152,72.901v4.276c0,1.491,1.268,2.702,2.83,2.702h4.239c1.56,0,2.828-1.21,2.828-2.702v-4.276
			H481.152z"/>
	</g>
</g>
<g>
	<path fill="#5C3E6C" d="M660.699,46.688c0,22.631,18.345,40.977,40.979,40.977c22.633,0,40.981-18.346,40.981-40.977
		c0-22.634-18.349-40.98-40.981-40.98C679.044,5.708,660.699,24.054,660.699,46.688z"/>
	<g>
		<path fill="#BA6D82" d="M707.264,42.834c0,1.502-1.269,2.72-2.828,2.72h-5.514c-1.562,0-2.829-1.217-2.829-2.72v-25.95
			c0-1.501,1.27-2.72,2.829-2.72h5.514c1.562,0,2.828,1.218,2.828,2.72V42.834z"/>
		<rect x="699.346" y="52.537" fill="#F8E8A5" width="4.666" height="23.767"/>
		<path fill="#F8E8A5" d="M698.072,77.327c0,1.501,1.267,2.719,2.829,2.719h1.694c1.562,0,2.828-1.218,2.828-2.719v-3.339
			c0-1.502-1.269-2.72-2.828-2.72h-1.694c-1.563,0-2.829,1.218-2.829,2.72V77.327z"/>
		<path fill="#BA6D82" d="M707.264,47.831c0,1.468-1.19,2.658-2.661,2.658h-5.849c-1.471,0-2.661-1.19-2.661-2.658l0,0
			c0-1.47,1.19-2.661,2.661-2.661h5.85C706.073,45.171,707.264,46.361,707.264,47.831L707.264,47.831z"/>
	</g>
</g>
<g>
	<circle fill="#5C3E6C" cx="593.099" cy="46.521" r="40.981"/>
	<g>
		<path fill="#D89DB2" d="M577.906,26.188c-0.91-1.779-2.104-2.064-2.234-2.09c-0.094-0.02-0.191-0.02-0.285,0
			c-0.131,0.026-1.323,0.312-2.236,2.09c-1.1,2.15-1.346,5.552-0.73,10.108c1.416,10.476,2.381,31.104,2.391,31.312
			c0.016,0.383,0.334,0.685,0.716,0.685c0.383,0,0.701-0.302,0.719-0.685c0.01-0.208,0.973-20.835,2.389-31.312
			C579.255,31.74,579.007,28.338,577.906,26.188z"/>
		<ellipse fill="#5C3E6C" cx="575.58" cy="30.037" rx="1.809" ry="3.565"/>
		<path fill="#F8E8A5" d="M612.902,55.765c0,0.442-0.359,0.799-0.8,0.799h-21.4c-0.44,0-0.801-0.356-0.801-0.799V37.549
			c0-0.441,0.36-0.799,0.801-0.799h21.4c0.44,0,0.8,0.357,0.8,0.799V55.765z"/>
		<path fill="#BA6D82" d="M586.709,32.451c0-1.142,0.814-2.068,1.821-2.068h25.745c1.005,0,1.819,0.926,1.819,2.068l0,0
			c0,1.141-0.814,2.067-1.819,2.067H588.53C587.523,34.518,586.709,33.592,586.709,32.451L586.709,32.451z"/>
		<path fill="#BA6D82" d="M586.709,60.986c0-1.162,0.814-2.102,1.821-2.102h25.745c1.005,0,1.819,0.94,1.819,2.102l0,0
			c0,1.161-0.814,2.104-1.819,2.104H588.53C587.523,63.09,586.709,62.147,586.709,60.986L586.709,60.986z"/>
	</g>
</g>
<circle fill="#BA6D82" cx="51.032" cy="198.303" r="40.979"/>
<path fill="#F8E8A5" d="M74.539,187.587c0,1.173-0.951,2.123-2.121,2.123H30.513c-1.171,0-2.121-0.95-2.121-2.123v-6.664
	c0-1.171,0.95-2.121,2.121-2.121h41.905c1.172,0,2.121,0.95,2.121,2.121V187.587z"/>
<path fill="#D89DB2" d="M34.332,195.676h-7.791c-1.918,0-3.48-1.666-3.48-3.713v-8.134c0-0.879,0.713-1.592,1.591-1.592
	c0.879,0,1.592,0.713,1.592,1.592v8.134c0,0.329,0.192,0.531,0.297,0.531h7.791c0.879,0,1.591,0.711,1.591,1.59
	C35.923,194.964,35.211,195.676,34.332,195.676z"/>
<path fill="#D89DB2" d="M76.089,195.676h-7.826c-0.878,0-1.592-0.712-1.592-1.592c0-0.879,0.714-1.59,1.592-1.59h7.826
	c0.081,0,0.277-0.187,0.277-0.531v-8.134c0-0.879,0.712-1.592,1.591-1.592s1.592,0.713,1.592,1.592v8.134
	C79.55,194.01,77.997,195.676,76.089,195.676z"/>
<path fill="#5C3E6C" d="M65.109,193.754c0-0.892-0.703-1.613-1.583-1.651c-0.01-0.004-0.016-0.008-0.016-0.008h-0.058h-1.466H51.584
	h-0.559h-0.126h-10.4h-1.468h-0.057c0,0-0.006,0.002-0.016,0.008c-0.881,0.038-1.584,0.76-1.584,1.651
	c0,0.047,0.01,0.091,0.013,0.138c-0.118,0.899,0.575,2.1,3.443,3.508c6.483,3.184,6.483,7.426,6.483,8.221v18.301
	c0,2.052,1.662,3.713,3.712,3.713h0.559c2.051,0,3.712-1.661,3.712-3.713v-19.604c0.343-1.699,1.617-4.592,6.356-6.918
	c2.869-1.408,3.561-2.608,3.442-3.51C65.099,193.843,65.109,193.801,65.109,193.754z"/>
<circle fill="#BA6D82" cx="160.306" cy="198.768" r="40.979"/>
<path fill="#F8E8A5" d="M157.442,177.669h5.812c0.945-0.725,1.607-2.109,0.972-4.744c-1.449-6.032-3.645-8.321-3.878-8.603
	c-0.234,0.279-2.431,2.57-3.88,8.603C155.834,175.56,156.497,176.944,157.442,177.669z"/>
<polygon fill="#D89DB2" points="163.072,179.426 160.348,179.426 160.111,179.426 157.387,179.426 156.828,193.384 160.111,193.384 
	160.348,193.384 163.63,193.384 "/>
<path fill="#5C3E6C" d="M163.867,195.059h-3.519h-3.52c0,0-1.645,8.508,1.76,35.778c0,0,0.114,1.765,1.759,1.765
	c1.646,0,1.759-1.765,1.759-1.765C165.512,203.566,163.867,195.059,163.867,195.059z"/>
<circle fill="#BA6D82" cx="270.026" cy="199.094" r="40.98"/>
<path fill="#5C3E6C" d="M283.55,225.2c0,2.069-1.678,3.748-3.748,3.748h-20.693c-2.07,0-3.748-1.679-3.748-3.748v-52.214
	c0-2.07,1.678-3.747,3.748-3.747h20.693c2.069,0,3.748,1.677,3.748,3.747V225.2z"/>
<g>
	<path fill="#F8E8A5" d="M280.582,217.833c0,0.197-0.163,0.358-0.361,0.358H258.61c-0.199,0-0.361-0.161-0.361-0.358v-42.376
		c0-0.198,0.162-0.36,0.361-0.36h21.611c0.198,0,0.361,0.162,0.361,0.36V217.833z"/>
</g>
<circle fill="#BA6D82" cx="269.392" cy="224.054" r="2.417"/>
<circle fill="#BA6D82" cx="811.422" cy="199.135" r="40.979"/>
<g>
	<path fill="#F8E8A5" d="M812.721,168.818c-0.159-0.264-0.291-0.229-0.291,0.079v13.896c0,0.308,0.191,0.723,0.423,0.925
		c0,0,1.018,0.884,1.018,1.881c0,1.366-1.11,2.476-2.479,2.476s-2.478-1.109-2.478-2.476c0-1.003,1.031-1.891,1.031-1.891
		c0.232-0.2,0.424-0.615,0.424-0.921v-13.929c0-0.307-0.129-0.344-0.288-0.082l-8.295,13.909c-0.193,0.241-0.321,0.687-0.289,0.991
		l1.604,14.249c0.028,0.304,0.304,0.556,0.609,0.556h7.127c0.306,0,0.807,0,1.116,0h7.124c0.308,0,0.582-0.252,0.609-0.556
		l1.604-14.249c0.033-0.305-0.096-0.75-0.289-0.991L812.721,168.818z"/>
</g>
<path fill="#5C3E6C" d="M818.56,200.719h-14.054c-1.544,0-2.792,1.25-2.792,2.792v0.775v9.72v7.135c0,4.498,3.646,8.144,8.146,8.144
	h3.348c4.497,0,8.145-3.647,8.145-8.144v-7.135v-9.72v-0.777C821.352,201.967,820.102,200.719,818.56,200.719z"/>
<circle fill="#BA6D82" cx="921.142" cy="199.46" r="40.979"/>
<g>
	<path fill="#5C3E6C" d="M936.205,218.661c0,0.931-0.762,1.694-1.695,1.694h-26.578c-0.934,0-1.695-0.764-1.695-1.694v-38.419
		c0-0.933,0.762-1.694,1.695-1.694h26.578c0.934,0,1.695,0.762,1.695,1.694V218.661z"/>
</g>
<path fill="#D89DB2" d="M916.507,178.728c0,2.603,2.11,4.712,4.712,4.712s4.713-2.109,4.713-4.712c0-0.06-0.008-0.12-0.01-0.18
	h-9.408C916.512,178.607,916.507,178.668,916.507,178.728"/>
<g>
	<path fill="#F8E8A5" d="M904.145,186.696c0,1.198-0.914,1.825-2.029,1.396l-6.198-2.379c-1.116-0.429-1.116-1.131,0-1.56
		l6.198-2.381c1.115-0.428,2.029,0.2,2.029,1.396V186.696z"/>
</g>
<g>
	<path fill="#F8E8A5" d="M904.145,196.317c0,1.196-0.914,1.824-2.029,1.396l-6.198-2.381c-1.116-0.429-1.116-1.13,0-1.559
		l6.198-2.379c1.115-0.431,2.029,0.197,2.029,1.394V196.317z"/>
</g>
<g>
	<path fill="#F8E8A5" d="M904.145,206.049c0,1.196-0.914,1.824-2.029,1.396l-6.198-2.381c-1.116-0.429-1.116-1.13,0-1.559
		l6.198-2.381c1.115-0.429,2.029,0.197,2.029,1.394V206.049z"/>
</g>
<g>
	<path fill="#F8E8A5" d="M904.145,215.927c0,1.196-0.914,1.824-2.029,1.395l-6.198-2.381c-1.116-0.429-1.116-1.131,0-1.56
		l6.198-2.379c1.115-0.428,2.029,0.198,2.029,1.396V215.927z"/>
</g>
<g>
	<path fill="#F8E8A5" d="M938.368,186.646c0,1.196,0.915,1.824,2.03,1.396l6.195-2.379c1.117-0.431,1.117-1.13,0-1.561l-6.195-2.379
		c-1.115-0.431-2.03,0.197-2.03,1.394V186.646L938.368,186.646z"/>
</g>
<g>
	<path fill="#F8E8A5" d="M938.368,196.267c0,1.196,0.915,1.825,2.03,1.395l6.195-2.379c1.117-0.429,1.117-1.131,0-1.562
		l-6.195-2.379c-1.115-0.428-2.03,0.198-2.03,1.396V196.267L938.368,196.267z"/>
</g>
<g>
	<path fill="#F8E8A5" d="M938.368,205.998c0,1.196,0.915,1.822,2.03,1.394l6.195-2.379c1.117-0.428,1.117-1.13,0-1.561l-6.195-2.379
		c-1.115-0.429-2.03,0.198-2.03,1.396V205.998L938.368,205.998z"/>
</g>
<g>
	<path fill="#F8E8A5" d="M938.368,215.875c0,1.196,0.915,1.824,2.03,1.396l6.195-2.379c1.117-0.431,1.117-1.132,0-1.561
		l-6.195-2.379c-1.115-0.431-2.03,0.197-2.03,1.394V215.875L938.368,215.875z"/>
</g>
<circle fill="#BA6D82" cx="379.026" cy="198.256" r="40.98"/>
<path fill="#F8E8A5" d="M364.256,207.44c0.982,1.021,0.982,2.552,0,3.534c-0.508,0.472-1.098,0.706-1.726,0.706
	c-0.668,0-1.297-0.234-1.807-0.706l-11.03-11.187c-0.118-0.041-0.157-0.118-0.198-0.237c-0.038-0.038-0.116-0.077-0.116-0.077
	c-0.079-0.118-0.079-0.195-0.118-0.314c-0.08-0.04-0.118-0.118-0.118-0.158c-0.04-0.078-0.04-0.196-0.078-0.235
	c0-0.118-0.08-0.156-0.08-0.195c0-0.118,0-0.198,0-0.275c0-0.078-0.04-0.116-0.04-0.236c0-0.039,0.04-0.155,0.04-0.196
	c0-0.077,0-0.195,0-0.273c0-0.079,0.08-0.118,0.08-0.157c0.038-0.118,0.038-0.197,0.078-0.313c0-0.041,0.038-0.041,0.038-0.08
	c0.08-0.118,0.119-0.273,0.198-0.353c0,0,0-0.079,0.079-0.079c0.038-0.08,0.118-0.196,0.235-0.273l11.03-11.188
	c0.981-0.942,2.591-0.942,3.532,0c0.982,0.981,0.982,2.552,0,3.53l-9.302,9.383L364.256,207.44z"/>
<path fill="#F8E8A5" d="M372.081,208.697l9.619-22.885c0.471-1.098,1.726-1.609,2.865-1.139c1.06,0.431,1.57,1.729,1.099,2.787
	l-9.618,22.925c-0.352,0.824-1.176,1.295-2.001,1.295c-0.236,0-0.55-0.039-0.785-0.155
	C372.12,211.092,371.611,209.796,372.081,208.697z"/>
<path fill="#F8E8A5" d="M408.481,199.474c0,0,0,0.039-0.04,0.039c-0.079,0.079-0.157,0.195-0.274,0.275l-11.03,11.187
	c-0.473,0.472-1.139,0.706-1.768,0.706c-0.667,0-1.256-0.234-1.766-0.706c-0.982-0.982-0.982-2.513,0-3.534l9.303-9.382
	l-9.303-9.381c-0.982-0.98-0.982-2.551,0-3.532c0.941-0.942,2.551-0.942,3.533,0l11.03,11.188c0.117,0.077,0.195,0.195,0.274,0.273
	c0.04,0,0.04,0.079,0.04,0.079c0.079,0.157,0.156,0.234,0.195,0.353c0,0.039,0.041,0.039,0.041,0.08
	c0.037,0.118,0.037,0.195,0.116,0.353c0,0.041,0.041,0.041,0.041,0.118c0,0.078,0,0.196,0,0.273c0,0.041,0.037,0.157,0.037,0.198
	c0,0.038-0.037,0.156-0.037,0.195c0,0.118,0,0.196,0,0.314c0,0.039-0.041,0.039-0.041,0.079c-0.079,0.155-0.079,0.273-0.116,0.354
	c0,0.038-0.041,0.038-0.041,0.118C408.637,199.196,408.56,199.314,408.481,199.474z"/>
<circle fill="#BA6D82" cx="485.68" cy="198.722" r="40.98"/>
<polygon fill="#D89DB2" points="490.729,179.851 486.038,165.714 481.347,179.851 "/>
<polygon fill="#5C3E6C" points="488.028,171.713 486.038,165.714 484.047,171.713 "/>
<g>
	<path fill="#F8E8A5" d="M481.385,181.724c-0.127,0-0.233,0.104-0.233,0.232v34.559c0,0.128,0.107,0.232,0.233,0.232h9.433
		c0.128,0,0.232-0.104,0.232-0.232v-34.559c0-0.128-0.105-0.232-0.232-0.232H481.385z"/>
</g>
<rect x="481.152" y="218.319" fill="#F8E8A5" width="9.897" height="5.218"/>
<path fill="#D89DB2" d="M481.152,225.196v4.277c0,1.491,1.268,2.701,2.83,2.701h4.239c1.56,0,2.828-1.21,2.828-2.701v-4.277H481.152
	z"/>
<path fill="#BA6D82" d="M660.699,198.983c0,22.632,18.345,40.978,40.979,40.978c22.633,0,40.981-18.346,40.981-40.978
	c0-22.635-18.349-40.98-40.981-40.98C679.044,158.003,660.699,176.349,660.699,198.983z"/>
<path fill="#5C3E6C" d="M707.264,195.131c0,1.5-1.269,2.718-2.828,2.718h-5.514c-1.562,0-2.829-1.218-2.829-2.718v-25.952
	c0-1.501,1.27-2.718,2.829-2.718h5.514c1.562,0,2.828,1.217,2.828,2.718V195.131z"/>
<rect x="699.346" y="204.833" fill="#F8E8A5" width="4.666" height="23.767"/>
<path fill="#F8E8A5" d="M698.072,229.623c0,1.501,1.267,2.719,2.829,2.719h1.694c1.562,0,2.828-1.218,2.828-2.719v-3.339
	c0-1.503-1.269-2.72-2.828-2.72h-1.694c-1.563,0-2.829,1.217-2.829,2.72V229.623z"/>
<path fill="#5C3E6C" d="M707.264,200.127c0,1.468-1.19,2.658-2.661,2.658h-5.849c-1.471,0-2.661-1.19-2.661-2.658l0,0
	c0-1.472,1.19-2.662,2.661-2.662h5.85C706.073,197.467,707.264,198.655,707.264,200.127L707.264,200.127z"/>
<circle fill="#BA6D82" cx="593.099" cy="198.816" r="40.981"/>
<path fill="#F8E8A5" d="M577.906,178.483c-0.91-1.78-2.104-2.064-2.234-2.09c-0.094-0.021-0.191-0.021-0.285,0
	c-0.131,0.025-1.323,0.31-2.236,2.09c-1.1,2.15-1.346,5.551-0.73,10.107c1.416,10.476,2.381,31.105,2.391,31.312
	c0.016,0.382,0.334,0.685,0.716,0.685c0.383,0,0.701-0.303,0.719-0.685c0.01-0.207,0.973-20.837,2.389-31.312
	C579.255,184.034,579.007,180.634,577.906,178.483z"/>
<ellipse fill="#5C3E6C" cx="575.58" cy="182.332" rx="1.809" ry="3.565"/>
<path fill="#F8E8A5" d="M612.902,208.061c0,0.442-0.359,0.799-0.8,0.799h-21.4c-0.44,0-0.801-0.356-0.801-0.799v-18.215
	c0-0.442,0.36-0.799,0.801-0.799h21.4c0.44,0,0.8,0.356,0.8,0.799V208.061z"/>
<path fill="#5C3E6C" d="M586.709,184.746c0-1.142,0.814-2.068,1.821-2.068h25.745c1.005,0,1.819,0.927,1.819,2.068l0,0
	c0,1.142-0.814,2.068-1.819,2.068H588.53C587.523,186.812,586.709,185.888,586.709,184.746L586.709,184.746z"/>
<path fill="#5C3E6C" d="M586.709,213.282c0-1.161,0.814-2.102,1.821-2.102h25.745c1.005,0,1.819,0.94,1.819,2.102l0,0
	c0,1.161-0.814,2.104-1.819,2.104H588.53C587.523,215.386,586.709,214.443,586.709,213.282L586.709,213.282z"/>
</svg>
