<?xml version="1.0" encoding="utf-8"?>
<!-- Generator: Adobe Illustrator 15.0.0, SVG Export Plug-In . SVG Version: 6.00 Build 0)  -->
<!DOCTYPE svg PUBLIC "-//W3C//DTD SVG 1.1//EN" "http://www.w3.org/Graphics/SVG/1.1/DTD/svg11.dtd">
<svg version="1.1" id="Layer_1" xmlns="http://www.w3.org/2000/svg" xmlns:xlink="http://www.w3.org/1999/xlink" x="0px" y="0px"
	 width="1100px" height="600px" viewBox="0 0 1100 600" enable-background="new 0 0 1100 600" xml:space="preserve">
<g>
	<circle fill="#5C3E6C" cx="147.08" cy="153.81" r="20.365"/>
	<g>
		<path fill="#F8E8A5" d="M158.762,148.486c0,0.583-0.473,1.055-1.054,1.055h-20.826c-0.582,0-1.054-0.472-1.054-1.055v-3.312
			c0-0.581,0.472-1.054,1.054-1.054h20.826c0.582,0,1.054,0.473,1.054,1.054V148.486z"/>
		<path fill="#D89DB2" d="M138.779,152.506h-3.872c-0.953,0-1.729-0.828-1.729-1.845v-4.043c0-0.436,0.354-0.791,0.791-0.791
			c0.436,0,0.792,0.355,0.792,0.791v4.043c0,0.162,0.095,0.263,0.146,0.263h3.872c0.437,0,0.791,0.354,0.791,0.791
			C139.57,152.152,139.216,152.506,138.779,152.506z"/>
		<path fill="#D89DB2" d="M159.532,152.506h-3.889c-0.437,0-0.792-0.354-0.792-0.791c0-0.437,0.354-0.791,0.792-0.791h3.889
			c0.04,0,0.138-0.092,0.138-0.263v-4.043c0-0.436,0.354-0.791,0.791-0.791c0.437,0,0.791,0.355,0.791,0.791v4.043
			C161.252,151.678,160.481,152.506,159.532,152.506z"/>
		<path fill="#BA6D82" d="M154.075,151.55c0-0.443-0.35-0.801-0.787-0.821c-0.004-0.002-0.009-0.003-0.009-0.003h-0.028h-0.729
			h-5.169h-0.278h-0.062h-5.168h-0.73h-0.029c0,0-0.002,0.001-0.008,0.003c-0.438,0.02-0.787,0.377-0.787,0.821
			c0,0.022,0.005,0.046,0.006,0.07c-0.058,0.447,0.286,1.042,1.712,1.743c3.222,1.581,3.222,3.689,3.222,4.085v9.096
			c0,1.018,0.826,1.845,1.845,1.845h0.278c1.019,0,1.845-0.827,1.845-1.845V156.8c0.171-0.844,0.804-2.282,3.159-3.437
			c1.426-0.702,1.77-1.296,1.71-1.746C154.07,151.595,154.075,151.573,154.075,151.55z"/>
	</g>
</g>
<g>
	<circle fill="#5C3E6C" cx="315.499" cy="157.046" r="20.365"/>
	<g>
		<path fill="#F8E8A5" d="M314.074,146.559h2.889c0.47-0.359,0.799-1.046,0.483-2.356c-0.72-2.998-1.812-4.136-1.927-4.276
			c-0.117,0.14-1.208,1.278-1.929,4.276C313.275,145.513,313.605,146.199,314.074,146.559z"/>
		<polygon fill="#D89DB2" points="316.872,147.433 315.519,147.433 315.4,147.433 314.047,147.433 313.77,154.37 315.4,154.37 
			315.519,154.37 317.15,154.37 		"/>
		<path fill="#BA6D82" d="M317.268,155.202h-1.749h-1.75c0,0-0.818,4.228,0.874,17.781c0,0,0.057,0.876,0.875,0.876
			s0.874-0.876,0.874-0.876C318.085,159.431,317.268,155.202,317.268,155.202z"/>
	</g>
</g>
<g>
	<circle fill="#5C3E6C" cx="484.138" cy="157.207" r="20.366"/>
	<g>
		<path fill="#BA6D82" d="M490.859,170.182c0,1.028-0.834,1.863-1.862,1.863h-10.285c-1.028,0-1.862-0.835-1.862-1.863v-25.951
			c0-1.028,0.834-1.861,1.862-1.861h10.285c1.028,0,1.862,0.833,1.862,1.861V170.182z"/>
		<g>
			<path fill="#F8E8A5" d="M489.384,166.52c0,0.099-0.081,0.18-0.18,0.18h-10.74c-0.098,0-0.179-0.081-0.179-0.18v-21.06
				c0-0.099,0.081-0.179,0.179-0.179h10.74c0.099,0,0.18,0.081,0.18,0.179V166.52L489.384,166.52z"/>
		</g>
		<circle fill="#5C3E6C" cx="483.823" cy="169.612" r="1.201"/>
	</g>
</g>
<g>
	<circle fill="#5C3E6C" cx="316.711" cy="441.84" r="20.366"/>
	<g>
		<g>
			<path fill="#F8E8A5" d="M317.356,426.772c-0.078-0.131-0.145-0.111-0.145,0.041v6.906c0,0.152,0.096,0.359,0.21,0.459
				c0,0,0.507,0.439,0.507,0.935c0,0.679-0.552,1.231-1.233,1.231c-0.68,0-1.23-0.553-1.23-1.231c0-0.497,0.512-0.938,0.512-0.938
				c0.115-0.102,0.211-0.307,0.211-0.459v-6.922c0-0.153-0.063-0.172-0.143-0.04l-4.123,6.912c-0.097,0.12-0.159,0.342-0.143,0.491
				l0.796,7.082c0.014,0.152,0.151,0.277,0.303,0.277h3.543c0.151,0,0.401,0,0.554,0h3.542c0.151,0,0.288-0.123,0.301-0.277
				l0.799-7.082c0.016-0.149-0.049-0.371-0.145-0.491L317.356,426.772z"/>
		</g>
		<path fill="#BA6D82" d="M320.259,442.628h-6.985c-0.766,0-1.387,0.619-1.387,1.387v0.387v4.83v3.545
			c0,2.236,1.812,4.047,4.048,4.047h1.664c2.234,0,4.048-1.811,4.048-4.047v-3.545v-4.83v-0.387
			C321.646,443.247,321.023,442.628,320.259,442.628z"/>
	</g>
</g>
<g>
	<circle fill="#5C3E6C" cx="485.352" cy="442.001" r="20.365"/>
	<g>
		<g>
			<path fill="#BA6D82" d="M492.837,451.544c0,0.463-0.378,0.842-0.843,0.842h-13.208c-0.464,0-0.843-0.379-0.843-0.842V432.45
				c0-0.462,0.38-0.842,0.843-0.842h13.208c0.466,0,0.843,0.38,0.843,0.842V451.544z"/>
		</g>
		<path fill="#D89DB2" d="M483.047,431.699c0,1.294,1.05,2.341,2.343,2.341c1.294,0,2.341-1.047,2.341-2.341
			c0-0.029-0.003-0.061-0.003-0.091h-4.676C483.05,431.639,483.047,431.67,483.047,431.699"/>
		<g>
			<path fill="#F8E8A5" d="M476.903,435.659c0,0.595-0.454,0.907-1.007,0.693l-3.082-1.182c-0.553-0.215-0.553-0.562,0-0.774
				l3.082-1.183c0.553-0.215,1.007,0.098,1.007,0.691V435.659z"/>
		</g>
		<g>
			<path fill="#F8E8A5" d="M476.903,440.44c0,0.594-0.454,0.906-1.007,0.693l-3.082-1.183c-0.553-0.214-0.553-0.562,0-0.776
				l3.082-1.182c0.553-0.214,1.007,0.099,1.007,0.695V440.44z"/>
		</g>
		<g>
			<path fill="#F8E8A5" d="M476.903,445.276c0,0.594-0.454,0.906-1.007,0.693l-3.082-1.184c-0.553-0.213-0.553-0.561,0-0.773
				l3.082-1.186c0.553-0.213,1.007,0.1,1.007,0.695V445.276z"/>
		</g>
		<g>
			<path fill="#F8E8A5" d="M476.903,450.185c0,0.596-0.454,0.908-1.007,0.693l-3.082-1.182c-0.553-0.215-0.553-0.562,0-0.775
				l3.082-1.182c0.553-0.213,1.007,0.098,1.007,0.693V450.185z"/>
		</g>
		<g>
			<path fill="#F8E8A5" d="M493.913,435.634c0,0.594,0.454,0.906,1.009,0.693l3.078-1.182c0.555-0.213,0.555-0.562,0-0.775
				l-3.078-1.184c-0.555-0.213-1.009,0.099-1.009,0.695V435.634L493.913,435.634z"/>
		</g>
		<g>
			<path fill="#F8E8A5" d="M493.913,440.415c0,0.596,0.454,0.908,1.009,0.693l3.078-1.183c0.555-0.213,0.555-0.562,0-0.775
				l-3.078-1.182c-0.555-0.214-1.009,0.097-1.009,0.69V440.415L493.913,440.415z"/>
		</g>
		<g>
			<path fill="#F8E8A5" d="M493.913,445.251c0,0.594,0.454,0.906,1.009,0.693l3.078-1.184c0.555-0.213,0.555-0.562,0-0.775
				l-3.078-1.182c-0.555-0.213-1.009,0.098-1.009,0.693V445.251L493.913,445.251z"/>
		</g>
		<g>
			<path fill="#F8E8A5" d="M493.913,450.159c0,0.596,0.454,0.906,1.009,0.695l3.078-1.182c0.555-0.217,0.555-0.562,0-0.777
				l-3.078-1.184c-0.555-0.213-1.009,0.1-1.009,0.695V450.159L493.913,450.159z"/>
		</g>
	</g>
</g>
<g>
	<circle fill="#5C3E6C" cx="146.806" cy="300.698" r="20.367"/>
	<g>
		<path fill="#F8E8A5" d="M139.464,305.264c0.489,0.506,0.489,1.268,0,1.754c-0.252,0.236-0.546,0.352-0.857,0.352
			c-0.332,0-0.645-0.115-0.898-0.352l-5.481-5.559c-0.059-0.02-0.078-0.059-0.098-0.117c-0.02-0.02-0.058-0.039-0.058-0.039
			c-0.04-0.059-0.04-0.098-0.059-0.156c-0.04-0.018-0.059-0.057-0.059-0.078c-0.02-0.039-0.02-0.097-0.038-0.116
			c0-0.06-0.041-0.077-0.041-0.099c0-0.058,0-0.098,0-0.137c0-0.038-0.02-0.058-0.02-0.115c0-0.021,0.02-0.079,0.02-0.099
			c0-0.038,0-0.098,0-0.136c0-0.04,0.041-0.059,0.041-0.077c0.018-0.061,0.018-0.1,0.038-0.157c0-0.019,0.02-0.019,0.02-0.039
			c0.04-0.058,0.058-0.136,0.098-0.176c0,0,0-0.039,0.039-0.039c0.02-0.039,0.059-0.098,0.117-0.137l5.481-5.56
			c0.488-0.468,1.288-0.468,1.755,0c0.488,0.489,0.488,1.268,0,1.755l-4.623,4.664L139.464,305.264z"/>
		<path fill="#F8E8A5" d="M143.354,305.887l4.781-11.374c0.233-0.544,0.858-0.799,1.423-0.564c0.526,0.213,0.78,0.859,0.545,1.384
			l-4.779,11.394c-0.175,0.408-0.585,0.643-0.995,0.643c-0.118,0-0.273-0.018-0.39-0.076
			C143.374,307.076,143.12,306.432,143.354,305.887z"/>
		<path fill="#F8E8A5" d="M161.444,301.303c0,0,0,0.02-0.021,0.02c-0.039,0.039-0.078,0.098-0.137,0.137l-5.482,5.559
			c-0.235,0.236-0.564,0.352-0.878,0.352c-0.332,0-0.624-0.115-0.877-0.352c-0.487-0.486-0.487-1.248,0-1.754l4.624-4.663
			l-4.624-4.664c-0.487-0.487-0.487-1.267,0-1.755c0.467-0.468,1.268-0.468,1.755,0l5.482,5.561
			c0.057,0.038,0.097,0.097,0.137,0.136c0.021,0,0.021,0.039,0.021,0.039c0.038,0.078,0.076,0.117,0.096,0.176
			c0,0.021,0.019,0.021,0.019,0.039c0.02,0.059,0.02,0.098,0.059,0.176c0,0.02,0.021,0.02,0.021,0.059c0,0.038,0,0.097,0,0.137
			c0,0.019,0.018,0.078,0.018,0.098c0,0.019-0.018,0.077-0.018,0.097c0,0.059,0,0.098,0,0.156c0,0.02-0.021,0.02-0.021,0.039
			c-0.039,0.078-0.039,0.136-0.059,0.175c0,0.021-0.019,0.021-0.019,0.061C161.521,301.166,161.482,301.225,161.444,301.303z"/>
	</g>
</g>
<g>
	<circle fill="#5C3E6C" cx="314.197" cy="300.927" r="20.366"/>
	<g>
		<polygon fill="#D89DB2" points="316.705,291.548 314.374,284.523 312.043,291.548 		"/>
		<polygon fill="#BA6D82" points="315.364,287.504 314.374,284.523 313.385,287.504 		"/>
		<g>
			<path fill="#F8E8A5" d="M312.062,292.48c-0.063,0-0.115,0.051-0.115,0.115v17.174c0,0.062,0.054,0.117,0.115,0.117h4.688
				c0.064,0,0.116-0.055,0.116-0.117v-17.174c0-0.064-0.053-0.115-0.116-0.115H312.062z"/>
		</g>
		<rect x="311.946" y="310.666" fill="#D89DB2" width="4.919" height="2.594"/>
		<path fill="#BA6D82" d="M311.946,314.084v2.125c0,0.742,0.631,1.344,1.406,1.344h2.106c0.776,0,1.406-0.602,1.406-1.344v-2.125
			H311.946z"/>
	</g>
</g>
<g>
	<path fill="#5C3E6C" d="M127.418,441.767c0,11.248,9.117,20.365,20.365,20.365s20.368-9.117,20.368-20.365
		s-9.12-20.365-20.368-20.365S127.418,430.519,127.418,441.767z"/>
	<g>
		<path fill="#BA6D82" d="M150.561,439.852c0,0.745-0.631,1.353-1.406,1.353h-2.739c-0.776,0-1.407-0.607-1.407-1.353v-12.896
			c0-0.746,0.632-1.351,1.407-1.351h2.739c0.776,0,1.406,0.604,1.406,1.351V439.852z"/>
		<rect x="146.624" y="444.673" fill="#F8E8A5" width="2.318" height="11.812"/>
		<path fill="#F8E8A5" d="M145.991,456.995c0,0.744,0.63,1.352,1.407,1.352h0.841c0.776,0,1.404-0.607,1.404-1.352v-1.66
			c0-0.746-0.629-1.352-1.404-1.352h-0.841c-0.777,0-1.407,0.605-1.407,1.352V456.995z"/>
		<path fill="#BA6D82" d="M150.561,442.335c0,0.73-0.593,1.322-1.323,1.322h-2.907c-0.73,0-1.322-0.592-1.322-1.322l0,0
			c0-0.73,0.592-1.322,1.322-1.322h2.907C149.968,441.013,150.561,441.604,150.561,442.335L150.561,442.335z"/>
	</g>
</g>
<g>
	<circle fill="#5C3E6C" cx="481.693" cy="300.975" r="20.367"/>
	<g>
		<path fill="#D89DB2" d="M474.143,290.868c-0.451-0.883-1.046-1.025-1.11-1.038c-0.046-0.01-0.094-0.01-0.141,0
			c-0.065,0.013-0.658,0.155-1.111,1.038c-0.547,1.07-0.669,2.76-0.363,5.025c0.704,5.205,1.184,15.458,1.188,15.56
			c0.008,0.191,0.166,0.342,0.355,0.342c0.19,0,0.349-0.15,0.357-0.342c0.004-0.102,0.483-10.354,1.188-15.56
			C474.813,293.628,474.689,291.938,474.143,290.868z"/>
		<ellipse fill="#5C3E6C" cx="472.987" cy="292.782" rx="0.898" ry="1.771"/>
		<path fill="#F8E8A5" d="M491.535,305.568c0,0.221-0.178,0.396-0.397,0.396h-10.636c-0.218,0-0.398-0.176-0.398-0.396v-9.053
			c0-0.219,0.179-0.397,0.398-0.397h10.636c0.22,0,0.397,0.178,0.397,0.397V305.568z"/>
		<path fill="#BA6D82" d="M478.518,293.982c0-0.568,0.405-1.028,0.905-1.028h12.796c0.499,0,0.902,0.46,0.902,1.028l0,0
			c0,0.567-0.403,1.027-0.902,1.027h-12.796C478.923,295.009,478.518,294.549,478.518,293.982L478.518,293.982z"/>
		<path fill="#BA6D82" d="M478.518,308.164c0-0.578,0.405-1.045,0.905-1.045h12.796c0.499,0,0.902,0.467,0.902,1.045l0,0
			c0,0.576-0.403,1.045-0.902,1.045h-12.796C478.923,309.209,478.518,308.74,478.518,308.164L478.518,308.164z"/>
	</g>
</g>
<circle fill="#BA6D82" cx="641.95" cy="160.001" r="20.367"/>
<path fill="#F8E8A5" d="M653.632,154.675c0,0.583-0.473,1.056-1.053,1.056h-20.826c-0.582,0-1.055-0.473-1.055-1.056v-3.312
	c0-0.581,0.473-1.054,1.055-1.054h20.826c0.582,0,1.053,0.473,1.053,1.054V154.675z"/>
<path fill="#D89DB2" d="M633.649,158.696h-3.871c-0.953,0-1.73-0.829-1.73-1.845v-4.043c0-0.437,0.355-0.792,0.791-0.792
	c0.438,0,0.793,0.355,0.793,0.792v4.043c0,0.162,0.094,0.263,0.146,0.263h3.871c0.438,0,0.791,0.354,0.791,0.791
	S634.087,158.696,633.649,158.696z"/>
<path fill="#D89DB2" d="M654.403,158.696h-3.891c-0.436,0-0.791-0.354-0.791-0.791s0.355-0.791,0.791-0.791h3.891
	c0.039,0,0.137-0.093,0.137-0.263v-4.043c0-0.437,0.354-0.792,0.791-0.792s0.791,0.355,0.791,0.792v4.043
	C656.122,157.867,655.351,158.696,654.403,158.696z"/>
<path fill="#5C3E6C" d="M648.946,157.741c0-0.444-0.35-0.803-0.787-0.821c-0.004-0.002-0.01-0.004-0.01-0.004h-0.027h-0.729h-5.17
	h-0.277h-0.062h-5.168h-0.73h-0.029c0,0-0.002,0.002-0.008,0.004c-0.438,0.019-0.787,0.378-0.787,0.821
	c0,0.022,0.006,0.044,0.006,0.067c-0.057,0.447,0.287,1.045,1.713,1.744c3.221,1.582,3.221,3.691,3.221,4.086v9.096
	c0,1.02,0.826,1.845,1.846,1.845h0.277c1.02,0,1.846-0.825,1.846-1.845v-9.743c0.17-0.845,0.803-2.283,3.158-3.438
	c1.426-0.699,1.77-1.296,1.711-1.745C648.94,157.785,648.946,157.763,648.946,157.741z"/>
<circle fill="#BA6D82" cx="804.364" cy="160.232" r="20.366"/>
<path fill="#F8E8A5" d="M802.94,149.746h2.889c0.469-0.36,0.799-1.048,0.482-2.356c-0.719-2.998-1.811-4.136-1.926-4.275
	c-0.117,0.139-1.209,1.277-1.93,4.275C802.142,148.698,802.472,149.385,802.94,149.746z"/>
<polygon fill="#D89DB2" points="805.737,150.619 804.386,150.619 804.267,150.619 802.913,150.619 802.636,157.556 804.267,157.556 
	804.386,157.556 806.017,157.556 "/>
<path fill="#5C3E6C" d="M806.134,158.389h-1.748h-1.75c0,0-0.818,4.229,0.873,17.781c0,0,0.059,0.877,0.875,0.877
	c0.818,0,0.875-0.877,0.875-0.877C806.952,162.618,806.134,158.389,806.134,158.389z"/>
<circle fill="#BA6D82" cx="951.983" cy="160.394" r="20.366"/>
<path fill="#5C3E6C" d="M958.704,173.369c0,1.028-0.834,1.862-1.861,1.862h-10.285c-1.029,0-1.863-0.834-1.863-1.862v-25.949
	c0-1.029,0.834-1.863,1.863-1.863h10.285c1.027,0,1.861,0.834,1.861,1.863V173.369z"/>
<g>
	<path fill="#F8E8A5" d="M957.229,169.708c0,0.098-0.08,0.178-0.18,0.178h-10.74c-0.098,0-0.18-0.08-0.18-0.178v-21.061
		c0-0.099,0.082-0.18,0.18-0.18h10.74c0.1,0,0.18,0.081,0.18,0.18V169.708L957.229,169.708z"/>
</g>
<circle fill="#BA6D82" cx="951.669" cy="172.798" r="1.201"/>
<circle fill="#BA6D82" cx="805.577" cy="446.028" r="20.366"/>
<g>
	<path fill="#F8E8A5" d="M806.222,430.961c-0.078-0.131-0.145-0.113-0.145,0.039v6.906c0,0.154,0.096,0.359,0.211,0.461
		c0,0,0.506,0.439,0.506,0.935c0,0.678-0.551,1.23-1.232,1.23c-0.68,0-1.23-0.552-1.23-1.23c0-0.5,0.512-0.941,0.512-0.941
		c0.115-0.099,0.211-0.304,0.211-0.457v-6.923c0-0.153-0.064-0.171-0.143-0.04l-4.123,6.913c-0.098,0.119-0.16,0.341-0.143,0.491
		l0.795,7.082c0.014,0.15,0.152,0.276,0.303,0.276h3.543c0.152,0,0.402,0,0.555,0h3.541c0.152,0,0.289-0.126,0.301-0.276
		l0.799-7.082c0.016-0.15-0.049-0.372-0.145-0.491L806.222,430.961z"/>
</g>
<path fill="#5C3E6C" d="M809.124,446.815h-6.984c-0.766,0-1.387,0.622-1.387,1.388v0.386v4.83v3.546
	c0,2.234,1.812,4.047,4.047,4.047h1.664c2.234,0,4.049-1.812,4.049-4.047v-3.546v-4.83v-0.387
	C810.511,447.436,809.89,446.815,809.124,446.815z"/>
<circle fill="#BA6D82" cx="953.196" cy="446.19" r="20.366"/>
<g>
	<path fill="#5C3E6C" d="M960.683,455.732c0,0.463-0.379,0.842-0.844,0.842h-13.207c-0.465,0-0.844-0.38-0.844-0.842v-19.094
		c0-0.464,0.381-0.842,0.844-0.842h13.207c0.467,0,0.844,0.379,0.844,0.842V455.732z"/>
</g>
<path fill="#D89DB2" d="M950.892,435.886c0,1.295,1.051,2.342,2.344,2.342s2.34-1.047,2.34-2.342c0-0.029-0.002-0.06-0.002-0.089
	h-4.676C950.896,435.826,950.892,435.856,950.892,435.886"/>
<g>
	<path fill="#F8E8A5" d="M944.749,439.846c0,0.597-0.455,0.908-1.008,0.694l-3.082-1.183c-0.553-0.213-0.553-0.562,0-0.776
		l3.082-1.182c0.553-0.213,1.008,0.1,1.008,0.693V439.846z"/>
</g>
<g>
	<path fill="#F8E8A5" d="M944.749,444.628c0,0.595-0.455,0.905-1.008,0.694l-3.082-1.185c-0.553-0.214-0.553-0.561,0-0.774
		l3.082-1.182c0.553-0.216,1.008,0.097,1.008,0.693V444.628z"/>
</g>
<g>
	<path fill="#F8E8A5" d="M944.749,449.465c0,0.595-0.455,0.906-1.008,0.694l-3.082-1.183c-0.553-0.215-0.553-0.562,0-0.776
		l3.082-1.185c0.553-0.212,1.008,0.099,1.008,0.693V449.465z"/>
</g>
<g>
	<path fill="#F8E8A5" d="M944.749,454.373c0,0.595-0.455,0.907-1.008,0.693l-3.082-1.183c-0.553-0.214-0.553-0.562,0-0.775
		l3.082-1.182c0.553-0.213,1.008,0.099,1.008,0.693V454.373z"/>
</g>
<g>
	<path fill="#F8E8A5" d="M961.759,439.822c0,0.593,0.453,0.905,1.008,0.692l3.078-1.181c0.555-0.214,0.555-0.562,0-0.776
		l-3.078-1.183c-0.555-0.214-1.008,0.098-1.008,0.693V439.822L961.759,439.822z"/>
</g>
<g>
	<path fill="#F8E8A5" d="M961.759,444.604c0,0.595,0.453,0.905,1.008,0.693l3.078-1.184c0.555-0.214,0.555-0.562,0-0.775
		l-3.078-1.183c-0.555-0.213-1.008,0.099-1.008,0.693V444.604L961.759,444.604z"/>
</g>
<g>
	<path fill="#F8E8A5" d="M961.759,449.438c0,0.595,0.453,0.906,1.008,0.693l3.078-1.183c0.555-0.213,0.555-0.562,0-0.775
		l-3.078-1.182c-0.555-0.213-1.008,0.099-1.008,0.692V449.438L961.759,449.438z"/>
</g>
<g>
	<path fill="#F8E8A5" d="M961.759,454.349c0,0.594,0.453,0.904,1.008,0.692l3.078-1.181c0.555-0.216,0.555-0.563,0-0.776
		l-3.078-1.184c-0.555-0.214-1.008,0.098-1.008,0.693V454.349L961.759,454.349z"/>
</g>
<circle fill="#BA6D82" cx="641.952" cy="301.881" r="20.367"/>
<path fill="#F8E8A5" d="M634.61,306.444c0.488,0.508,0.488,1.269,0,1.757c-0.252,0.235-0.547,0.351-0.857,0.351
	c-0.332,0-0.645-0.115-0.898-0.351l-5.481-5.56c-0.06-0.021-0.078-0.06-0.099-0.118c-0.02-0.02-0.058-0.037-0.058-0.037
	c-0.04-0.06-0.04-0.099-0.059-0.157c-0.04-0.021-0.06-0.058-0.06-0.078c-0.02-0.039-0.02-0.098-0.037-0.116
	c0-0.06-0.041-0.079-0.041-0.099c0-0.058,0-0.098,0-0.136c0-0.039-0.02-0.058-0.02-0.117c0-0.02,0.02-0.077,0.02-0.098
	c0-0.038,0-0.097,0-0.136s0.041-0.059,0.041-0.079c0.018-0.057,0.018-0.097,0.037-0.154c0-0.021,0.02-0.021,0.02-0.039
	c0.04-0.06,0.059-0.137,0.099-0.177c0,0,0-0.039,0.039-0.039c0.02-0.039,0.06-0.097,0.117-0.136l5.481-5.56
	c0.488-0.469,1.289-0.469,1.756,0c0.488,0.487,0.488,1.27,0,1.754l-4.623,4.663L634.61,306.444z"/>
<path fill="#F8E8A5" d="M638.499,307.069l4.781-11.374c0.232-0.545,0.857-0.8,1.424-0.565c0.525,0.214,0.779,0.859,0.545,1.385
	l-4.779,11.394c-0.174,0.409-0.584,0.644-0.994,0.644c-0.117,0-0.273-0.02-0.391-0.076
	C638.519,308.261,638.267,307.615,638.499,307.069z"/>
<path fill="#F8E8A5" d="M656.591,302.486c0,0,0,0.02-0.021,0.02c-0.039,0.038-0.078,0.097-0.137,0.136l-5.482,5.56
	c-0.234,0.235-0.564,0.352-0.877,0.352c-0.332,0-0.625-0.116-0.877-0.352c-0.488-0.487-0.488-1.248,0-1.757l4.623-4.662
	l-4.623-4.662c-0.488-0.488-0.488-1.268,0-1.755c0.467-0.468,1.268-0.468,1.754,0l5.482,5.561c0.057,0.038,0.098,0.097,0.137,0.136
	c0.021,0,0.021,0.039,0.021,0.039c0.037,0.078,0.076,0.116,0.096,0.175c0,0.019,0.02,0.019,0.02,0.04
	c0.02,0.059,0.02,0.098,0.059,0.176c0,0.021,0.02,0.021,0.02,0.059s0,0.096,0,0.136c0,0.021,0.018,0.077,0.018,0.098
	c0,0.02-0.018,0.078-0.018,0.098c0,0.059,0,0.097,0,0.155c0,0.02-0.02,0.02-0.02,0.039c-0.039,0.077-0.039,0.136-0.059,0.177
	c0,0.02-0.02,0.02-0.02,0.06C656.667,302.346,656.628,302.406,656.591,302.486z"/>
<circle fill="#BA6D82" cx="803.063" cy="302.112" r="20.367"/>
<polygon fill="#D89DB2" points="805.571,292.734 803.239,285.707 800.909,292.734 "/>
<polygon fill="#5C3E6C" points="804.229,288.689 803.239,285.707 802.251,288.689 "/>
<g>
	<path fill="#F8E8A5" d="M800.927,293.665c-0.062,0-0.115,0.05-0.115,0.115v17.175c0,0.062,0.055,0.115,0.115,0.115h4.689
		c0.064,0,0.115-0.053,0.115-0.115V293.78c0-0.065-0.053-0.115-0.115-0.115H800.927z"/>
</g>
<rect x="800.812" y="311.85" fill="#F8E8A5" width="4.92" height="2.594"/>
<path fill="#D89DB2" d="M800.812,315.27v2.125c0,0.74,0.631,1.342,1.406,1.342h2.107c0.775,0,1.406-0.602,1.406-1.342v-2.125
	H800.812z"/>
<path fill="#BA6D82" d="M622.563,445.953c0,11.248,9.117,20.365,20.365,20.365s20.369-9.117,20.369-20.365
	c0-11.25-9.121-20.367-20.369-20.367S622.563,434.704,622.563,445.953z"/>
<path fill="#5C3E6C" d="M645.706,444.038c0,0.745-0.631,1.352-1.406,1.352h-2.738c-0.777,0-1.408-0.606-1.408-1.352v-12.897
	c0-0.747,0.633-1.351,1.408-1.351h2.738c0.777,0,1.406,0.604,1.406,1.351V444.038z"/>
<rect x="641.771" y="448.859" fill="#F8E8A5" width="2.318" height="11.812"/>
<path fill="#F8E8A5" d="M641.138,461.18c0,0.746,0.629,1.353,1.406,1.353h0.842c0.775,0,1.404-0.606,1.404-1.353v-1.658
	c0-0.749-0.629-1.352-1.404-1.352h-0.842c-0.777,0-1.406,0.603-1.406,1.352V461.18z"/>
<path fill="#5C3E6C" d="M645.706,446.521c0,0.729-0.592,1.321-1.322,1.321h-2.908c-0.73,0-1.322-0.593-1.322-1.321l0,0
	c0-0.732,0.592-1.323,1.322-1.323h2.908C645.114,445.199,645.706,445.789,645.706,446.521L645.706,446.521z"/>
<circle fill="#BA6D82" cx="949.538" cy="302.158" r="20.367"/>
<path fill="#F8E8A5" d="M941.987,292.053c-0.451-0.884-1.045-1.024-1.109-1.038c-0.047-0.01-0.094-0.01-0.141,0
	c-0.066,0.013-0.658,0.154-1.111,1.038c-0.547,1.068-0.67,2.761-0.363,5.024c0.703,5.206,1.184,15.458,1.188,15.56
	c0.008,0.189,0.166,0.342,0.355,0.342c0.191,0,0.35-0.152,0.357-0.342c0.004-0.102,0.484-10.354,1.188-15.56
	C942.659,294.813,942.534,293.123,941.987,292.053z"/>
<ellipse fill="#5C3E6C" cx="940.833" cy="293.966" rx="0.898" ry="1.771"/>
<path fill="#F8E8A5" d="M959.38,306.753c0,0.22-0.178,0.396-0.396,0.396h-10.637c-0.217,0-0.398-0.177-0.398-0.396v-9.052
	c0-0.219,0.18-0.396,0.398-0.396h10.637c0.219,0,0.396,0.176,0.396,0.396V306.753z"/>
<path fill="#5C3E6C" d="M946.362,295.166c0-0.568,0.406-1.027,0.906-1.027h12.795c0.5,0,0.902,0.46,0.902,1.027l0,0
	c0,0.567-0.402,1.028-0.902,1.028h-12.795C946.769,296.194,946.362,295.733,946.362,295.166L946.362,295.166z"/>
<path fill="#5C3E6C" d="M946.362,309.348c0-0.576,0.406-1.045,0.906-1.045h12.795c0.5,0,0.902,0.468,0.902,1.045l0,0
	c0,0.578-0.402,1.046-0.902,1.046h-12.795C946.769,310.394,946.362,309.926,946.362,309.348L946.362,309.348z"/>
</svg>
