<?xml version="1.0" encoding="utf-8"?>
<!-- Generator: Adobe Illustrator 15.0.0, SVG Export Plug-In . SVG Version: 6.00 Build 0)  -->
<!DOCTYPE svg PUBLIC "-//W3C//DTD SVG 1.1//EN" "http://www.w3.org/Graphics/SVG/1.1/DTD/svg11.dtd">
<svg version="1.1" id="Layer_1" xmlns="http://www.w3.org/2000/svg" xmlns:xlink="http://www.w3.org/1999/xlink" x="0px" y="0px"
	 width="792px" height="612px" viewBox="0 0 792 612" enable-background="new 0 0 792 612" xml:space="preserve">
<g>
	<g>
		<path fill="#5C3E6C" d="M75.2,127.659c0,3.078,2.495,5.572,5.572,5.572h9.986c3.077,0,5.572-2.494,5.572-5.572v-20.12
			c0-3.077-2.495-5.572-5.572-5.572h-9.986c-3.077,0-5.572,2.495-5.572,5.572V127.659z"/>
		<path fill="#5C3E6C" d="M169.178,127.806c0,3.078,2.494,5.572,5.57,5.572h9.987c3.077,0,5.571-2.494,5.571-5.572v-20.12
			c0-3.077-2.494-5.572-5.571-5.572h-9.987c-3.076,0-5.57,2.496-5.57,5.572V127.806z"/>
		<path fill="#5C3E6C" d="M151.234,165.666c-1.285,0-2.527-0.181-3.709-0.512v50.806h9.582v-51.615
			C155.321,165.191,153.332,165.666,151.234,165.666z"/>
		<path fill="#5C3E6C" d="M114.943,166.062c-2.104,0-4.098-0.478-5.888-1.328v51.151h9.583v-50.33
			C117.46,165.883,116.223,166.062,114.943,166.062z"/>
		<rect x="80.359" y="135.12" fill="#5C3E6C" width="9.583" height="20.393"/>
		<rect x="174.951" y="135.268" fill="#5C3E6C" width="9.582" height="20.393"/>
		<path fill="#5C3E6C" d="M88.423,157.061h-6.546c-3.077,0-5.572,2.494-5.572,5.571v9.656c0,3.077,2.495,5.572,5.572,5.572h3.889
			v-10.4h4.176v10.185c2.338-0.661,4.054-2.806,4.054-5.356v-9.656C93.996,159.555,91.5,157.061,88.423,157.061z"/>
		<path fill="#5C3E6C" d="M183.016,157.207h-6.547c-3.077,0-5.572,2.495-5.572,5.572v9.656c0,2.551,1.717,4.695,4.055,5.357v-10.186
			h4.176v10.4h3.889c3.076,0,5.571-2.496,5.571-5.572v-9.656C188.587,159.702,186.092,157.207,183.016,157.207z"/>
		<path fill="#5C3E6C" d="M167.169,96.925c-0.315,0.791-4.847,10.716-34.186,10.842c-30.548,0.131-34.204-10.889-34.205-10.894
			v48.513c0.083,0,0.167,0.001,0.25,0.004c1.198,2.203,7.464,10.472,33.955,10.359c28.07-0.121,33.432-9.212,34.119-10.691
			c0.028,0.01,0.06,0.016,0.087,0.028V96.923C167.182,96.924,167.176,96.924,167.169,96.925z M118.618,144.947h-0.146
			c-2.332,0-4.221-3.138-4.221-7.011v-15.761c0-3.873,1.89-7.012,4.221-7.012h0.146V144.947z M126.74,144.947h-4.552v-29.784h4.552
			V144.947z M134.672,144.947h-4.363v-29.784h4.363V144.947z M142.799,144.947h-4.559v-29.784h4.559V144.947z M150.732,137.937
			c0,3.873-1.889,7.011-4.221,7.011h-0.144v-29.784h0.144c2.332,0,4.221,3.14,4.221,7.012V137.937z"/>
		<path fill="#5C3E6C" d="M132.689,69.028c-15.745,0-29.068,10.816-33.514,25.714c0.001,0.005,3.582,11.025,33.514,10.895
			c29.94-0.131,33.514-10.895,33.514-10.895l0,0C161.758,79.844,148.435,69.028,132.689,69.028z M119.212,85.484
			c0-1.643,1.333-2.974,2.975-2.974c1.642,0,2.974,1.332,2.974,2.974c0,1.643-1.332,2.974-2.974,2.974
			C120.544,88.458,119.212,87.127,119.212,85.484z M140.416,99.252h-15.852c-1.314,0-2.379-1.065-2.379-2.379
			c0-1.313,1.065-2.379,2.379-2.379h15.852c1.314,0,2.379,1.065,2.379,2.379C142.795,98.187,141.73,99.252,140.416,99.252z
			 M143.393,88.458c-1.643,0-2.975-1.331-2.975-2.974c0-1.643,1.332-2.974,2.975-2.974s2.975,1.332,2.975,2.974
			C146.367,87.127,145.035,88.458,143.393,88.458z"/>
		<path fill="#5C3E6C" d="M124.575,193.84c0,3.078-2.495,5.572-5.572,5.572h-10.314c-3.077,0-5.572-2.494-5.572-5.572v-8.933
			c0-3.077,2.495-5.572,5.572-5.572h10.314c3.077,0,5.572,2.495,5.572,5.572V193.84z"/>
		<path fill="#5C3E6C" d="M163.045,193.84c0,3.078-2.494,5.572-5.571,5.572H147.16c-3.078,0-5.572-2.494-5.572-5.572v-8.933
			c0-3.077,2.494-5.572,5.572-5.572h10.313c3.077,0,5.571,2.495,5.571,5.572V193.84z"/>
		<path fill="#5C3E6C" d="M139.314,157.446c2.479,3.994,6.842,6.648,11.814,6.648c7.72,0,13.979-6.392,13.979-14.276
			c0-0.062-0.004-0.125-0.005-0.187C162.067,152.478,155.043,156.527,139.314,157.446z"/>
		<path fill="#5C3E6C" d="M100.863,150.096c-0.001,0.039-0.004,0.078-0.004,0.117c0,7.885,6.259,14.277,13.979,14.277
			c4.953,0,9.302-2.635,11.784-6.602C110.923,157.08,103.901,152.99,100.863,150.096z"/>
		<path fill="#5C3E6C" d="M103.537,225.454h20.501c0.177-1.132,0.272-2.31,0.272-3.521c0-8.64-4.732-15.642-10.57-15.642
			c-5.836,0-10.568,7.002-10.568,15.642c0,1.213,0.097,2.393,0.273,3.526C103.476,225.458,103.505,225.454,103.537,225.454z"/>
		<path fill="#5C3E6C" d="M142.008,225.539h20.5c0.176-1.132,0.273-2.31,0.273-3.521c0-8.639-4.733-15.642-10.57-15.642
			c-5.838,0-10.569,7.003-10.569,15.642c0,1.213,0.097,2.392,0.272,3.525C141.946,225.543,141.975,225.539,142.008,225.539z"/>
	</g>
</g>
<g>
	<g>
		<path fill="#5C3E6C" d="M320.193,96.578c17.562,0,20.83-5.514,20.83-5.514v-5.098c0-9.591-7.775-17.365-17.366-17.365h-6.928
			c-9.591,0-17.367,7.774-17.367,17.365v5.098C299.362,91.064,302.631,96.578,320.193,96.578z"/>
		<path fill="#5C3E6C" d="M298.138,98.009c0-0.103,0.008-0.2,0.021-0.296c-2.522,0.469-4.411,2.374-4.411,4.656v3.939
			c0,2.277,1.879,4.178,4.391,4.653V98.009z"/>
		<path fill="#5C3E6C" d="M342.269,98.009c0-0.103-0.008-0.2-0.02-0.296c2.522,0.469,4.41,2.374,4.41,4.656v3.939
			c0,2.277-1.879,4.178-4.391,4.653V98.009z"/>
		<path fill="#5C3E6C" d="M320.193,98.416c-16.932,0-20.576-5.121-20.815-5.49c-0.006-0.002-0.011-0.003-0.016-0.004v16.107
			c0,9.59,7.776,17.365,17.367,17.365h6.928c9.591,0,17.366-7.775,17.366-17.365V92.902
			C341.023,92.902,337.756,98.416,320.193,98.416z M305.897,110.057v-3.676c0-3.158,2.561-5.717,5.719-5.717
			s5.719,2.559,5.719,5.717v3.676c0,3.158-2.561,5.719-5.719,5.719S305.897,113.215,305.897,110.057z M329.588,122.72h-18.789
			v-1.634h18.789V122.72z M334.488,110.057c0,3.158-2.56,5.719-5.718,5.719s-5.719-2.561-5.719-5.719v-3.676
			c0-3.158,2.561-5.717,5.719-5.717s5.718,2.559,5.718,5.717V110.057z"/>
		<path fill="#5C3E6C" d="M323.964,127.822h-6.928c-0.555,0-1.102-0.027-1.643-0.078v2.633c0,2.65,2.148,4.799,4.8,4.799
			c2.65,0,4.799-2.148,4.799-4.799v-2.586C324.652,127.811,324.309,127.822,323.964,127.822z"/>
		<path fill="#5C3E6C" d="M329.132,131.783h-3.482v0.093c0,2.397-2.443,4.339-5.456,4.339c-3.015,0-5.457-1.941-5.457-4.339v-0.093
			h-3.482c-4.425,0-8.011,2.854-8.011,6.371c0,3.519,3.586,6.371,8.011,6.371h17.878c4.425,0,8.012-2.853,8.012-6.371
			C337.144,134.637,333.557,131.783,329.132,131.783z"/>
		<path fill="#5C3E6C" d="M327.737,171.17c0,1.371-1.112,2.48-2.481,2.48h-9.334c-1.37,0-2.481-1.109-2.481-2.48l0,0
			c0-1.371,1.111-2.481,2.481-2.481h9.334C326.625,168.688,327.737,169.799,327.737,171.17L327.737,171.17z"/>
		<path fill="#5C3E6C" d="M328.394,172.954c-0.387,0.956-1.406,1.641-2.606,1.641h-10.437c-1.201,0-2.223-0.685-2.607-1.641
			c-1.041,1.384-1.651,3.058-1.651,4.86c0,4.762,4.243,8.621,9.477,8.621c5.234,0,9.477-3.859,9.477-8.621
			C330.045,176.012,329.435,174.338,328.394,172.954z"/>
		<path fill="#5C3E6C" d="M334.679,167.871c-2.566,0-4.739,1.786-5.462,4.244c1.223,1.637,1.95,3.684,1.95,5.904
			c0,2.121-0.662,4.078-1.784,5.677c0.852,2.204,2.9,3.759,5.296,3.759c3.158,0,5.719-2.699,5.719-6.029v-7.521
			C340.397,170.571,337.837,167.871,334.679,167.871z"/>
		<path fill="#5C3E6C" d="M309.79,178.02c0-2.32,0.795-4.451,2.119-6.125c-0.785-2.342-2.897-4.023-5.387-4.023
			c-3.157,0-5.718,2.7-5.718,6.033v7.521c0,3.33,2.561,6.029,5.718,6.029c2.317,0,4.309-1.454,5.207-3.545
			C310.514,182.275,309.79,180.235,309.79,178.02z"/>
		<path fill="#5C3E6C" d="M347.28,146.104c0,2.607-2.113,4.719-4.72,4.719l0,0c-2.607,0-4.721-2.111-4.721-4.719v-7.453
			c0-2.605,2.113-4.72,4.721-4.72l0,0c2.606,0,4.72,2.114,4.72,4.72V146.104z"/>
		<path fill="#5C3E6C" d="M302.381,146.104c0,2.607-2.113,4.719-4.721,4.719l0,0c-2.606,0-4.719-2.111-4.719-4.719v-7.453
			c0-2.605,2.112-4.72,4.719-4.72l0,0c2.607,0,4.721,2.114,4.721,4.72V146.104z"/>
		<path fill="#5C3E6C" d="M355.331,158.941c0,2.059-2.302,3.727-5.144,3.727l0,0c-2.841,0-5.143-1.668-5.143-3.727v-5.883
			c0-2.059,2.302-3.727,5.143-3.727l0,0c2.842,0,5.144,1.668,5.144,3.727V158.941z"/>
		<path fill="#5C3E6C" d="M350.136,149.446c1.148,0,2.173,0.521,2.857,1.336v-10.651c0-1.576-1.279-2.856-2.857-2.856
			c-1.577,0-2.855,1.28-2.855,2.856v10.651C347.964,149.967,348.988,149.446,350.136,149.446z"/>
		<path fill="#5C3E6C" d="M290.21,149.553c1.146,0,2.172,0.519,2.855,1.334v-10.65c0-1.578-1.278-2.855-2.855-2.855
			c-1.578,0-2.857,1.277-2.857,2.855v10.65C288.036,150.071,289.062,149.553,290.21,149.553z"/>
		<path fill="#5C3E6C" d="M305.578,190.527c1.275,0,2.463,0.352,3.479,0.949v-14.141c0-2.307-1.558-4.176-3.479-4.176
			c-1.92,0-3.478,1.869-3.478,4.176v14.139C303.116,190.879,304.304,190.527,305.578,190.527z"/>
		<path fill="#5C3E6C" d="M334.808,190.527c1.274,0,2.461,0.352,3.477,0.949v-14.141c0-2.307-1.556-4.176-3.477-4.176
			s-3.479,1.869-3.479,4.176v14.139C332.345,190.879,333.532,190.527,334.808,190.527z"/>
		<path fill="#5C3E6C" d="M341.529,198.672c0,3.596-3.011,6.51-6.722,6.51l0,0c-3.713,0-6.723-2.914-6.723-6.51v-2.047
			c0-3.598,3.01-6.512,6.723-6.512l0,0c3.711,0,6.722,2.914,6.722,6.512V198.672z"/>
		<path fill="#5C3E6C" d="M312.301,198.672c0,3.596-3.01,6.51-6.723,6.51l0,0c-3.712,0-6.722-2.914-6.722-6.51v-2.047
			c0-3.598,3.01-6.512,6.722-6.512l0,0c3.713,0,6.723,2.914,6.723,6.512V198.672z"/>
		<path fill="#5C3E6C" d="M325.658,225.637h18.526c-0.292-5.362-4.104-9.604-8.768-9.604h-1.22c-4.667,0-8.483,4.253-8.768,9.622
			C325.503,225.643,325.579,225.637,325.658,225.637z"/>
		<path fill="#5C3E6C" d="M305.578,217.189c1.275,0,2.463,0.351,3.479,0.949v-14.141c0-2.307-1.558-4.176-3.479-4.176
			c-1.92,0-3.478,1.869-3.478,4.176v14.139C303.116,217.54,304.304,217.189,305.578,217.189z"/>
		<path fill="#5C3E6C" d="M334.808,217.189c1.274,0,2.461,0.351,3.477,0.949v-14.141c0-2.307-1.556-4.176-3.477-4.176
			s-3.479,1.869-3.479,4.176v14.139C332.345,217.54,333.532,217.189,334.808,217.189z"/>
		<path fill="#5C3E6C" d="M296.43,225.637h18.526c-0.293-5.362-4.104-9.604-8.766-9.604h-1.222c-4.668,0-8.481,4.253-8.767,9.622
			C296.275,225.643,296.351,225.637,296.43,225.637z"/>
		<path fill="#5C3E6C" d="M350.136,160.274c1.148,0,2.173-0.519,2.857-1.335v10.65c0,1.578-1.279,2.856-2.857,2.856
			c-1.577,0-2.855-1.278-2.855-2.856v-10.65C347.964,159.756,348.988,160.274,350.136,160.274z"/>
		<path fill="#5C3E6C" d="M290.21,160.274c1.146,0,2.172-0.519,2.855-1.335v10.65c0,1.578-1.278,2.856-2.855,2.856
			c-1.578,0-2.857-1.278-2.857-2.856v-10.65C288.036,159.756,289.062,160.274,290.21,160.274z"/>
		<path fill="#5C3E6C" d="M295.455,158.941c0,2.059-2.303,3.727-5.144,3.727l0,0c-2.841,0-5.144-1.668-5.144-3.727v-5.883
			c0-2.059,2.303-3.727,5.144-3.727l0,0c2.841,0,5.144,1.668,5.144,3.727V158.941z"/>
		<path fill="#5C3E6C" d="M350.107,172.457c-2.967,0-5.372,2.404-5.372,5.372v2.739c0,1.926,1.02,3.612,2.545,4.561v-5.932h1.49
			v6.568c0.428,0.109,0.875,0.173,1.337,0.173c0.484,0,0.95-0.069,1.396-0.188v-6.553h1.49v5.896
			c1.493-0.953,2.486-2.623,2.486-4.525v-2.739C355.479,174.861,353.074,172.457,350.107,172.457z"/>
		<path fill="#5C3E6C" d="M290.21,172.457c-2.968,0-5.373,2.404-5.373,5.372v2.739c0,1.926,1.019,3.612,2.545,4.561v-5.932h1.491
			v6.568c0.428,0.109,0.874,0.173,1.337,0.173c0.482,0,0.948-0.069,1.395-0.188v-6.553h1.49v5.896
			c1.494-0.953,2.486-2.623,2.486-4.525v-2.739C295.581,174.861,293.177,172.457,290.21,172.457z"/>
		<path fill="#5C3E6C" d="M329.617,145.568h-18.638c-2.984,0-5.597-1.197-7.073-2.994v13.721c0,6.394,4.98,11.576,11.125,11.576
			h10.324c6.145,0,11.124-5.183,11.124-11.576v-13.473C334.973,144.48,332.463,145.568,329.617,145.568z M329.795,159.146
			c0,1.945-1.577,3.521-3.521,3.521h-11.987c-1.943,0-3.521-1.576-3.521-3.521v-6.229c0-1.943,1.577-3.52,3.521-3.52h11.987
			c1.944,0,3.521,1.576,3.521,3.52V159.146z"/>
	</g>
</g>
<g>
	<g>
		<g>
			<circle fill="#5C3E6C" cx="492.316" cy="95.208" r="5.904"/>
			<circle fill="#5C3E6C" cx="514.061" cy="95.208" r="5.904"/>
			<path fill="#5C3E6C" d="M504.619,82.811v-13.29c0-0.747-0.605-1.352-1.352-1.352s-1.352,0.604-1.352,1.352v13.295
				C489,83.229,478.75,89.329,478.75,96.795c0,7.735,11,14.005,24.57,14.005c13.568,0,24.569-6.27,24.569-14.005
				C527.89,89.309,517.584,83.195,504.619,82.811z M492.387,104.261c-4.953,0-8.969-4.016-8.969-8.969
				c0-4.952,4.016-8.968,8.969-8.968s8.969,4.016,8.969,8.968C501.355,100.245,497.34,104.261,492.387,104.261z M514.131,104.261
				c-4.953,0-8.968-4.016-8.968-8.969c0-4.952,4.015-8.968,8.968-8.968s8.969,4.016,8.969,8.968
				C523.1,100.245,519.084,104.261,514.131,104.261z"/>
		</g>
		<path fill="#5C3E6C" d="M502.336,116.08c0,0-39.24-1.013-34.328,17.771c4.914,18.784,25.168,28.492,34.328,28.392V116.08z"/>
		<path fill="#5C3E6C" d="M510.273,113.537c0,0.862-1.072,1.562-2.395,1.562h-8.74c-1.323,0-2.395-0.7-2.395-1.562l0,0
			c0-0.863,1.071-1.562,2.395-1.562h8.74C509.201,111.975,510.273,112.674,510.273,113.537L510.273,113.537z"/>
		<path fill="#5C3E6C" d="M511.922,166.604c0,1.626-1.412,2.943-3.156,2.943h-11.514c-1.744,0-3.158-1.317-3.158-2.943l0,0
			c0-1.626,1.414-2.945,3.158-2.945h11.514C510.51,163.659,511.922,164.979,511.922,166.604L511.922,166.604z"/>
		<path fill="#5C3E6C" d="M519.607,176.255c-0.605-1.832-2.428-2.98-4.654-3.694c-2.492-0.966-6.908-1.608-11.943-1.608
			c-5.037,0-9.453,0.643-11.947,1.608c-2.225,0.714-4.047,1.862-4.65,3.694c0,0-0.979,3.881,5.903,4.654
			c0,0,4.927,1.148,5.903,5.138c0,0,1.232,2.552,4.791,2.655c3.557-0.104,4.789-2.655,4.789-2.655
			c0.977-3.989,5.904-5.138,5.904-5.138C520.584,180.136,519.607,176.255,519.607,176.255z"/>
		<path fill="#5C3E6C" d="M503.945,116.08v46.162c9.16,0.101,29.413-9.607,34.328-28.392
			C543.188,115.067,503.945,116.08,503.945,116.08z M506.869,160.288c-0.709,0-1.284-0.576-1.284-1.286s0.575-1.284,1.284-1.284
			c0.711,0,1.286,0.574,1.286,1.284S507.58,160.288,506.869,160.288z M506.869,152.558c-0.709,0-1.284-0.575-1.284-1.285
			c0-0.711,0.575-1.286,1.284-1.286c0.711,0,1.286,0.575,1.286,1.286C508.155,151.982,507.58,152.558,506.869,152.558z
			 M506.869,144.827c-0.709,0-1.284-0.575-1.284-1.286c0-0.71,0.575-1.284,1.284-1.284c0.711,0,1.286,0.574,1.286,1.284
			C508.155,144.252,507.58,144.827,506.869,144.827z M506.869,137.081c-0.709,0-1.284-0.574-1.284-1.284s0.575-1.286,1.284-1.286
			c0.711,0,1.286,0.576,1.286,1.286S507.58,137.081,506.869,137.081z M506.869,129.232c-0.709,0-1.284-0.574-1.284-1.285
			c0-0.709,0.575-1.284,1.284-1.284c0.711,0,1.286,0.575,1.286,1.284C508.155,128.658,507.58,129.232,506.869,129.232z
			 M506.869,121.479c-0.709,0-1.284-0.576-1.284-1.286s0.575-1.285,1.284-1.285c0.711,0,1.286,0.575,1.286,1.285
			S507.58,121.479,506.869,121.479z"/>
		<path fill="#5C3E6C" d="M471.015,132.376c-0.644-7.303-4.757-12.936-9.737-12.936c-4.981,0-9.094,5.633-9.738,12.936H471.015z"/>
		<path fill="#5C3E6C" d="M554.881,132.376c-0.645-7.303-4.757-12.936-9.738-12.936c-4.98,0-9.093,5.633-9.737,12.936H554.881z"/>
		<path fill="#5C3E6C" d="M552.186,171.604c0,3.078-2.495,5.572-5.572,5.572h-2.939c-3.078,0-5.572-2.494-5.572-5.572v-6.68
			c0-3.078,2.494-5.573,5.572-5.573h2.939c3.077,0,5.572,2.495,5.572,5.573V171.604z"/>
		<path fill="#5C3E6C" d="M496.25,210.416c0,2.866-2.324,5.188-5.189,5.188l0,0c-2.865,0-5.189-2.322-5.189-5.188v-23.335
			c0-2.866,2.324-5.188,5.189-5.188l0,0c2.865,0,5.189,2.321,5.189,5.188V210.416z"/>
		<path fill="#5C3E6C" d="M496.742,224.762v-1.754c0-3.432-3.135-6.214-7.004-6.214h-3.696c-3.868,0-7.003,2.782-7.003,6.214v1.754
			H496.742z"/>
		<path fill="#5C3E6C" d="M510.312,210.415c0,2.867,2.323,5.189,5.188,5.189l0,0c2.866,0,5.189-2.322,5.189-5.189v-23.334
			c0-2.866-2.323-5.189-5.189-5.189l0,0c-2.865,0-5.188,2.323-5.188,5.189V210.415z"/>
		<path fill="#5C3E6C" d="M509.819,224.761v-1.753c0-3.432,3.136-6.214,7.004-6.214h3.695c3.868,0,7.004,2.782,7.004,6.214v1.753
			H509.819z"/>
		<path fill="#5C3E6C" d="M466.467,153.815c0,2.866-2.324,5.188-5.189,5.188l0,0c-2.867,0-5.189-2.322-5.189-5.188v-23.334
			c0-2.866,2.322-5.189,5.189-5.189l0,0c2.865,0,5.189,2.323,5.189,5.189V153.815z"/>
		<path fill="#5C3E6C" d="M550.332,153.619c0,2.865-2.322,5.188-5.189,5.188l0,0c-2.865,0-5.189-2.323-5.189-5.188v-23.335
			c0-2.865,2.324-5.189,5.189-5.189l0,0c2.867,0,5.189,2.324,5.189,5.189V153.619z"/>
		<path fill="#5C3E6C" d="M468.319,171.604c0,3.078-2.495,5.572-5.571,5.572h-2.941c-3.076,0-5.572-2.494-5.572-5.572v-6.68
			c0-3.078,2.496-5.573,5.572-5.573h2.941c3.076,0,5.571,2.495,5.571,5.573V171.604z"/>
	</g>
</g>
<g>
	<g>
		<path fill="#5C3E6C" d="M697.885,110.919c0,1.057-0.857,1.911-1.912,1.911h-23.243c-1.056,0-1.911-0.854-1.911-1.911l0,0
			c0-1.055,0.855-1.91,1.911-1.91h23.243C697.027,109.009,697.885,109.864,697.885,110.919L697.885,110.919z"/>
		<path fill="#5C3E6C" d="M697.838,68.15h-27.02c-3.487,0-6.314,2.827-6.314,6.313v27.465c0,3.488,2.827,6.315,6.314,6.315h27.02
			c3.488,0,6.314-2.827,6.314-6.315V74.464C704.152,70.978,701.326,68.15,697.838,68.15z M669.135,82.411
			c0-3.375,2.734-6.111,6.109-6.111s6.109,2.736,6.109,6.111c0,3.373-2.734,6.107-6.109,6.107S669.135,85.784,669.135,82.411z
			 M684.215,84.655l3.875,11.051h-7.751L684.215,84.655z M677.92,103.796h-4.156v-4.582h4.156V103.796z M683.564,103.796h-4.155
			v-4.582h4.155V103.796z M689.279,103.796h-4.156v-4.582h4.156V103.796z M694.925,103.796h-4.156v-4.582h4.156V103.796z
			 M693.459,88.519c-3.375,0-6.109-2.734-6.109-6.107c0-3.375,2.734-6.111,6.109-6.111c3.373,0,6.109,2.736,6.109,6.111
			C699.568,85.784,696.832,88.519,693.459,88.519z"/>
		<path fill="#5C3E6C" d="M679.822,212.073v-0.021h-17.186v0.021c-1.551,1.252-2.57,3.359-2.57,5.75
			c0,3.842,2.633,6.957,5.878,6.957h10.569c3.246,0,5.877-3.115,5.877-6.957C682.391,215.433,681.373,213.327,679.822,212.073z"/>
		<path fill="#5C3E6C" d="M705.48,212.122v-0.069h-17.207c-1.567,1.249-2.6,3.366-2.6,5.771c0,3.842,2.631,6.957,5.877,6.957h10.57
			c3.245,0,5.877-3.115,5.877-6.957C707.998,215.462,707.002,213.378,705.48,212.122z"/>
		<g>
			<polygon fill="#5C3E6C" points="662.637,190.497 662.637,195.976 662.637,211.299 679.822,211.299 679.822,195.976 
				679.822,190.497 679.822,184.036 662.637,184.036 			"/>
			<polygon fill="#5C3E6C" points="688.297,190.497 688.297,195.976 688.297,211.299 705.48,211.299 705.48,195.976 705.48,190.497 
				705.48,184.036 688.297,184.036 			"/>
			<path fill="#5C3E6C" d="M731.738,163.983v-11.027c1.652-1.419,2.705-3.52,2.705-5.867v-3.629c0-1.895-0.684-3.627-1.814-4.971
				v-20.43c0-2.889-2.65-5.229-5.919-5.229s-5.918,2.341-5.918,5.229v4.505c-1.396-0.079-2.923-0.155-4.565-0.224
				c-2.001-5.12-6.978-8.748-12.807-8.748h-38.184c-5.902,0-10.936,3.719-12.883,8.943c-1.688,0.092-3.19,0.192-4.49,0.299v-4.775
				c0-2.889-2.65-5.229-5.92-5.229c-3.269,0-5.918,2.341-5.918,5.229v20.434c-1.129,1.345-1.812,3.078-1.812,4.971v3.629
				c0,2.35,1.051,4.449,2.704,5.867v11.022c0,1.5,1.921,2.735,4.399,2.917c-2.809,0.668-4.857,2.727-4.857,5.166v2.19
				c0,2.98,3.056,5.396,6.825,5.396c1.892,0,3.601-0.61,4.835-1.596v-2.025h-5.074v-5.738h5.074v-2.025
				c-1.1-0.877-2.574-1.455-4.221-1.572c1.805-0.447,3.072-1.493,3.072-2.712V152.96c1.654-1.418,2.705-3.518,2.705-5.867v-3.629
				c0-1.893-0.684-3.626-1.812-4.971v-11.979c1.077,0.088,2.295,0.172,3.641,0.25c-0.008,0.19-0.016,0.381-0.016,0.574
				c0,0.533,0.034,1.061,0.094,1.578c-0.059,0.318-0.094,0.645-0.094,0.979v47.78c0,2.989,2.424,5.412,5.413,5.412h4.577h1.158
				h17.186h8.475h17.184h2.518h3.756c2.99,0,5.414-2.423,5.414-5.412v-47.78c0-0.335-0.036-0.661-0.094-0.979
				c0.061-0.518,0.094-1.045,0.094-1.578c0-0.125-0.006-0.248-0.01-0.369c1.291-0.059,2.506-0.121,3.634-0.186v11.706
				c-1.13,1.344-1.813,3.075-1.813,4.97v3.629c0,2.348,1.053,4.448,2.705,5.867v11.027c0,1.241,1.316,2.301,3.176,2.732
				c-1.548,0.154-2.934,0.715-3.979,1.551v2.025h5.074v5.738h-5.074v2.025c1.234,0.985,2.942,1.596,4.834,1.596
				c3.77,0,6.826-2.415,6.826-5.396v-2.19c0-2.469-2.1-4.545-4.963-5.188C729.94,166.638,731.738,165.435,731.738,163.983z
				 M662.023,149.175h-3.436v-20.868h3.436V149.175z M695.689,155.405c0,1.215-0.984,2.197-2.197,2.197s-2.197-0.982-2.197-2.197
				c0-1.211,0.984-2.195,2.197-2.195S695.689,154.194,695.689,155.405z M684.328,129.248c5.271,0,9.546,4.274,9.546,9.547
				s-4.274,9.546-9.546,9.546c-5.273,0-9.547-4.273-9.547-9.546S679.055,129.248,684.328,129.248z M686.143,155.405
				c0,1.215-0.983,2.197-2.197,2.197c-1.213,0-2.195-0.982-2.195-2.197c0-1.211,0.982-2.195,2.195-2.195
				C685.159,153.21,686.143,154.194,686.143,155.405z M674.4,153.21c1.212,0,2.195,0.984,2.195,2.195
				c0,1.215-0.983,2.197-2.195,2.197c-1.214,0-2.197-0.982-2.197-2.197C672.203,154.194,673.187,153.21,674.4,153.21z
				 M666.193,149.175h-3.437v-20.868h3.437V149.175z M666.983,128.307h3.437v20.868h-3.437V128.307z M700.812,167.437h-33.734
				v-5.729h33.734V167.437z M701.702,149.487h-3.437V128.62h3.437V149.487z M705.871,149.487h-3.438V128.62h3.438V149.487z
				 M710.098,149.487h-3.436V128.62h3.436V149.487z"/>
		</g>
	</g>
</g>
<path fill="#5C3E6C" d="M90.82,378.347c3.078,0,5.572-2.495,5.572-5.571v-9.986c0-3.076-2.494-5.572-5.572-5.572H70.7
	c-3.076,0-5.571,2.496-5.571,5.572v9.986c0,3.076,2.495,5.571,5.571,5.571H90.82z"/>
<path fill="#5C3E6C" d="M194.808,378.492c3.078,0,5.572-2.494,5.572-5.57v-9.987c0-3.077-2.494-5.571-5.572-5.571h-20.12
	c-3.077,0-5.572,2.494-5.572,5.571v9.987c0,3.076,2.495,5.57,5.572,5.57H194.808z"/>
<path fill="#5C3E6C" d="M151.234,415.848c-1.285,0-2.527-0.181-3.709-0.512v50.806h9.582v-51.615
	C155.321,415.373,153.332,415.848,151.234,415.848z"/>
<path fill="#5C3E6C" d="M114.943,416.243c-2.104,0-4.099-0.478-5.889-1.328v51.151h9.583v-50.33
	C117.461,416.064,116.223,416.243,114.943,416.243z"/>
<rect x="72.351" y="380.297" fill="#5C3E6C" width="9.583" height="20.393"/>
<rect x="182.959" y="380.444" fill="#5C3E6C" width="9.582" height="20.393"/>
<path fill="#5C3E6C" d="M80.415,402.237h-6.546c-3.077,0-5.572,2.494-5.572,5.571v9.656c0,3.077,2.495,5.572,5.572,5.572h3.889
	v-10.4h4.176v10.185c2.338-0.661,4.054-2.806,4.054-5.356v-9.656C85.988,404.731,83.492,402.237,80.415,402.237z"/>
<path fill="#5C3E6C" d="M191.023,402.384h-6.547c-3.077,0-5.572,2.495-5.572,5.572v9.656c0,2.551,1.717,4.695,4.055,5.357v-10.186
	h4.176v10.4h3.889c3.076,0,5.571-2.496,5.571-5.572v-9.656C196.595,404.879,194.1,402.384,191.023,402.384z"/>
<path fill="#5C3E6C" d="M167.169,347.106c-0.315,0.791-4.847,10.716-34.187,10.842c-30.548,0.131-34.203-10.889-34.204-10.894
	v48.513c0.083,0,0.167,0.001,0.25,0.004c1.198,2.203,7.464,10.472,33.954,10.359c28.07-0.121,33.433-9.212,34.119-10.691
	c0.028,0.011,0.06,0.016,0.087,0.028v-48.162C167.182,347.105,167.176,347.105,167.169,347.106z M118.618,395.129h-0.146
	c-2.332,0-4.222-3.138-4.222-7.011v-15.761c0-3.873,1.89-7.013,4.222-7.013h0.146V395.129z M126.74,395.129h-4.553v-29.784h4.553
	V395.129z M134.672,395.129h-4.363v-29.784h4.363V395.129z M142.799,395.129h-4.559v-29.784h4.559V395.129z M150.732,388.118
	c0,3.873-1.889,7.011-4.221,7.011h-0.144v-29.784h0.144c2.332,0,4.221,3.14,4.221,7.013V388.118z"/>
<path fill="#5C3E6C" d="M132.689,319.209c-15.746,0-29.068,10.816-33.514,25.715c0.001,0.005,3.582,11.025,33.514,10.895
	c29.939-0.132,33.514-10.895,33.514-10.895l0,0C161.758,330.025,148.435,319.209,132.689,319.209z M119.212,335.666
	c0-1.643,1.333-2.975,2.976-2.975c1.642,0,2.974,1.332,2.974,2.975s-1.332,2.974-2.974,2.974
	C120.545,338.64,119.212,337.309,119.212,335.666z M140.416,349.434h-15.852c-1.314,0-2.379-1.065-2.379-2.379
	c0-1.314,1.064-2.379,2.379-2.379h15.852c1.314,0,2.379,1.064,2.379,2.379C142.795,348.368,141.73,349.434,140.416,349.434z
	 M143.393,338.64c-1.643,0-2.975-1.331-2.975-2.974s1.332-2.975,2.975-2.975s2.975,1.332,2.975,2.975S145.035,338.64,143.393,338.64
	z"/>
<path fill="#5C3E6C" d="M124.575,444.021c0,3.078-2.495,5.572-5.571,5.572h-10.314c-3.078,0-5.572-2.494-5.572-5.572v-8.933
	c0-3.077,2.494-5.572,5.572-5.572h10.314c3.076,0,5.571,2.495,5.571,5.572V444.021z"/>
<path fill="#5C3E6C" d="M163.045,444.021c0,3.078-2.494,5.572-5.571,5.572H147.16c-3.078,0-5.572-2.494-5.572-5.572v-8.933
	c0-3.077,2.494-5.572,5.572-5.572h10.313c3.077,0,5.571,2.495,5.571,5.572V444.021z"/>
<path fill="#5C3E6C" d="M139.314,407.628c2.479,3.994,6.842,6.648,11.814,6.648c7.72,0,13.979-6.392,13.979-14.276
	c0-0.062-0.004-0.125-0.005-0.187C162.067,402.659,155.043,406.709,139.314,407.628z"/>
<path fill="#5C3E6C" d="M100.863,400.277c-0.002,0.039-0.004,0.078-0.004,0.117c0,7.885,6.259,14.277,13.979,14.277
	c4.953,0,9.303-2.635,11.785-6.602C110.923,407.262,103.9,403.172,100.863,400.277z"/>
<path fill="#5C3E6C" d="M103.537,475.636h20.5c0.178-1.132,0.273-2.31,0.273-3.521c0-8.64-4.732-15.642-10.57-15.642
	c-5.837,0-10.568,7.002-10.568,15.642c0,1.213,0.096,2.393,0.273,3.526C103.477,475.64,103.505,475.636,103.537,475.636z"/>
<path fill="#5C3E6C" d="M142.008,475.721h20.5c0.176-1.132,0.273-2.31,0.273-3.521c0-8.639-4.733-15.642-10.57-15.642
	c-5.838,0-10.569,7.003-10.569,15.642c0,1.213,0.097,2.392,0.272,3.525C141.946,475.725,141.975,475.721,142.008,475.721z"/>
<path fill="#5C3E6C" d="M320.193,346.76c17.562,0,20.83-5.514,20.83-5.514v-5.098c0-9.591-7.775-17.365-17.366-17.365h-6.928
	c-9.591,0-17.367,7.774-17.367,17.365v5.098C299.362,341.246,302.631,346.76,320.193,346.76z"/>
<path fill="#5C3E6C" d="M298.138,348.19c0-0.103,0.008-0.2,0.021-0.296c-2.522,0.469-4.411,2.374-4.411,4.656v3.939
	c0,2.277,1.879,4.178,4.391,4.653V348.19z"/>
<path fill="#5C3E6C" d="M342.269,348.19c0-0.103-0.008-0.2-0.02-0.296c2.522,0.469,4.41,2.374,4.41,4.656v3.939
	c0,2.277-1.879,4.178-4.391,4.653V348.19z"/>
<path fill="#5C3E6C" d="M320.193,348.598c-16.932,0-20.576-5.121-20.815-5.49c-0.006-0.002-0.011-0.003-0.016-0.004v16.107
	c0,9.59,7.776,17.365,17.367,17.365h6.928c9.591,0,17.366-7.775,17.366-17.365v-16.127
	C341.023,343.084,337.756,348.598,320.193,348.598z M305.897,360.238v-3.676c0-3.158,2.561-5.717,5.719-5.717
	s5.719,2.559,5.719,5.717v3.676c0,3.158-2.561,5.719-5.719,5.719S305.897,363.396,305.897,360.238z M329.588,372.901h-18.789v-1.634
	h18.789V372.901z M334.488,360.238c0,3.158-2.56,5.719-5.718,5.719s-5.719-2.561-5.719-5.719v-3.676
	c0-3.158,2.561-5.717,5.719-5.717s5.718,2.559,5.718,5.717V360.238z"/>
<path fill="#5C3E6C" d="M323.964,378.004h-6.928c-0.555,0-1.102-0.027-1.643-0.078v2.633c0,2.65,2.148,4.799,4.8,4.799
	c2.65,0,4.799-2.148,4.799-4.799v-2.586C324.652,377.992,324.309,378.004,323.964,378.004z"/>
<path fill="#5C3E6C" d="M329.132,381.965h-3.482v0.093c0,2.397-2.443,4.339-5.456,4.339c-3.015,0-5.457-1.941-5.457-4.339v-0.093
	h-3.482c-4.425,0-8.011,2.854-8.011,6.371c0,3.519,3.586,6.371,8.011,6.371h17.878c4.425,0,8.012-2.853,8.012-6.371
	C337.144,384.818,333.557,381.965,329.132,381.965z"/>
<path fill="#5C3E6C" d="M327.737,421.352c0,1.371-1.112,2.48-2.481,2.48h-9.334c-1.37,0-2.481-1.109-2.481-2.48l0,0
	c0-1.371,1.111-2.481,2.481-2.481h9.334C326.625,418.87,327.737,419.98,327.737,421.352L327.737,421.352z"/>
<path fill="#5C3E6C" d="M328.394,423.136c-0.387,0.956-1.406,1.641-2.606,1.641h-10.437c-1.201,0-2.223-0.685-2.607-1.641
	c-1.041,1.384-1.651,3.058-1.651,4.86c0,4.762,4.243,8.621,9.477,8.621c5.234,0,9.477-3.859,9.477-8.621
	C330.045,426.193,329.435,424.52,328.394,423.136z"/>
<path fill="#5C3E6C" d="M334.679,418.053c-2.566,0-4.739,1.786-5.462,4.244c1.223,1.637,1.95,3.684,1.95,5.904
	c0,2.121-0.662,4.078-1.784,5.677c0.852,2.204,2.9,3.759,5.296,3.759c3.158,0,5.719-2.699,5.719-6.029v-7.521
	C340.397,420.753,337.837,418.053,334.679,418.053z"/>
<path fill="#5C3E6C" d="M309.79,428.201c0-2.32,0.795-4.451,2.119-6.125c-0.785-2.342-2.897-4.023-5.387-4.023
	c-3.157,0-5.718,2.7-5.718,6.033v7.521c0,3.33,2.561,6.029,5.718,6.029c2.317,0,4.309-1.454,5.207-3.545
	C310.514,432.457,309.79,430.417,309.79,428.201z"/>
<path fill="#5C3E6C" d="M347.28,396.285c0,2.607-2.113,4.719-4.72,4.719l0,0c-2.607,0-4.721-2.111-4.721-4.719v-7.453
	c0-2.605,2.113-4.72,4.721-4.72l0,0c2.606,0,4.72,2.114,4.72,4.72V396.285z"/>
<path fill="#5C3E6C" d="M302.381,396.285c0,2.607-2.113,4.719-4.721,4.719l0,0c-2.606,0-4.719-2.111-4.719-4.719v-7.453
	c0-2.605,2.112-4.72,4.719-4.72l0,0c2.607,0,4.721,2.114,4.721,4.72V396.285z"/>
<path fill="#5C3E6C" d="M305.578,440.709c1.275,0,2.463,0.352,3.479,0.949v-14.141c0-2.307-1.558-4.176-3.479-4.176
	c-1.92,0-3.478,1.869-3.478,4.176v14.139C303.116,441.061,304.304,440.709,305.578,440.709z"/>
<path fill="#5C3E6C" d="M334.808,440.709c1.274,0,2.461,0.352,3.477,0.949v-14.141c0-2.307-1.556-4.176-3.477-4.176
	s-3.479,1.869-3.479,4.176v14.139C332.345,441.061,333.532,440.709,334.808,440.709z"/>
<path fill="#5C3E6C" d="M341.529,448.854c0,3.596-3.011,6.51-6.722,6.51l0,0c-3.713,0-6.723-2.914-6.723-6.51v-2.047
	c0-3.598,3.01-6.512,6.723-6.512l0,0c3.711,0,6.722,2.914,6.722,6.512V448.854z"/>
<path fill="#5C3E6C" d="M312.301,448.854c0,3.596-3.01,6.51-6.723,6.51l0,0c-3.712,0-6.722-2.914-6.722-6.51v-2.047
	c0-3.598,3.01-6.512,6.722-6.512l0,0c3.713,0,6.723,2.914,6.723,6.512V448.854z"/>
<path fill="#5C3E6C" d="M325.658,475.818h18.526c-0.292-5.362-4.104-9.604-8.768-9.604h-1.22c-4.667,0-8.483,4.253-8.768,9.622
	C325.503,475.824,325.579,475.818,325.658,475.818z"/>
<path fill="#5C3E6C" d="M305.578,467.371c1.275,0,2.463,0.351,3.479,0.949V454.18c0-2.307-1.558-4.176-3.479-4.176
	c-1.92,0-3.478,1.869-3.478,4.176v14.139C303.116,467.722,304.304,467.371,305.578,467.371z"/>
<path fill="#5C3E6C" d="M334.808,467.371c1.274,0,2.461,0.351,3.477,0.949V454.18c0-2.307-1.556-4.176-3.477-4.176
	s-3.479,1.869-3.479,4.176v14.139C332.345,467.722,333.532,467.371,334.808,467.371z"/>
<path fill="#5C3E6C" d="M296.43,475.818h18.526c-0.293-5.362-4.104-9.604-8.766-9.604h-1.222c-4.668,0-8.481,4.253-8.767,9.622
	C296.275,475.824,296.351,475.818,296.43,475.818z"/>
<g>
	<path fill="#5C3E6C" d="M361.836,407.02c0.87,1.867-0.511,4.351-3.087,5.552l0,0c-2.573,1.2-5.365,0.661-6.235-1.204l-2.486-5.331
		c-0.87-1.867,0.512-4.352,3.086-5.552l0,0c2.576-1.201,5.366-0.662,6.237,1.204L361.836,407.02z"/>
	<path fill="#5C3E6C" d="M353.115,400.61c1.041-0.485,2.189-0.446,3.154,0.003l-4.501-9.653c-0.666-1.43-2.366-2.048-3.797-1.382
		c-1.43,0.667-2.046,2.367-1.381,3.795l4.502,9.653C351.368,401.999,352.077,401.094,353.115,400.61z"/>
	<path fill="#5C3E6C" d="M357.691,410.424c1.041-0.486,1.75-1.388,2.025-2.418l4.501,9.652c0.667,1.431,0.048,3.129-1.383,3.797
		c-1.43,0.667-3.128,0.048-3.794-1.381l-4.501-9.654C355.504,410.871,356.651,410.907,357.691,410.424z"/>
	<path fill="#5C3E6C" d="M362.814,421.478c-2.689,1.253-3.852,4.448-2.598,7.138l1.158,2.482c0.812,1.746,2.45,2.844,4.233,3.058
		l-2.507-5.375l1.351-0.631l2.776,5.953c0.435-0.08,0.866-0.211,1.285-0.407c0.44-0.205,0.833-0.465,1.186-0.761l-2.77-5.938
		l1.35-0.63l2.492,5.343c0.951-1.495,1.145-3.427,0.342-5.151l-1.159-2.482C368.7,421.384,365.503,420.224,362.814,421.478z"/>
</g>
<g>
	<path fill="#5C3E6C" d="M287.203,382.698c1.039-0.485,1.749-1.39,2.023-2.418l4.502,9.653c0.667,1.43,0.047,3.13-1.382,3.796
		c-1.431,0.666-3.129,0.049-3.796-1.381l-4.502-9.653C285.013,383.146,286.162,383.184,287.203,382.698z"/>
	<path fill="#5C3E6C" d="M282.672,372.98c1.039-0.484,2.188-0.447,3.152,0.002l-4.502-9.651c-0.667-1.43-2.365-2.048-3.795-1.381
		c-1.43,0.665-2.049,2.364-1.383,3.795l4.502,9.652C280.92,374.369,281.631,373.467,282.672,372.98z"/>
	<path fill="#5C3E6C" d="M287.988,371.973c-0.869-1.866-3.661-2.405-6.235-1.205l0,0c-2.575,1.201-3.957,3.686-3.087,5.552
		l2.485,5.331c0.87,1.866,3.662,2.405,6.237,1.203l0,0c2.575-1.199,3.956-3.686,3.086-5.551L287.988,371.973z"/>
	<path fill="#5C3E6C" d="M277.522,361.939c-2.688,1.254-5.885,0.092-7.139-2.6l-1.158-2.481c-0.813-1.745-0.604-3.704,0.379-5.21
		l2.507,5.377l1.351-0.629l-2.776-5.953c0.344-0.28,0.72-0.527,1.141-0.724c0.437-0.202,0.888-0.337,1.343-0.417l2.77,5.938
		l1.351-0.631l-2.492-5.345c1.757,0.235,3.362,1.327,4.166,3.053l1.158,2.482C281.375,357.49,280.211,360.686,277.522,361.939z"/>
</g>
<path fill="#5C3E6C" d="M329.617,395.75h-18.638c-2.984,0-5.597-1.197-7.073-2.994v13.721c0,6.394,4.98,11.576,11.125,11.576h10.324
	c6.145,0,11.124-5.183,11.124-11.576v-13.473C334.973,394.662,332.463,395.75,329.617,395.75z M329.795,409.328
	c0,1.945-1.577,3.521-3.521,3.521h-11.987c-1.943,0-3.521-1.576-3.521-3.521V403.1c0-1.943,1.577-3.52,3.521-3.52h11.987
	c1.944,0,3.521,1.576,3.521,3.52V409.328z"/>
<g>
	<circle fill="#5C3E6C" cx="492.316" cy="345.39" r="5.904"/>
	<circle fill="#5C3E6C" cx="514.061" cy="345.39" r="5.904"/>
	<path fill="#5C3E6C" d="M504.619,332.992v-13.29c0-0.747-0.605-1.352-1.352-1.352s-1.352,0.604-1.352,1.352v13.295
		c-12.916,0.414-23.166,6.514-23.166,13.979c0,7.735,11,14.005,24.57,14.005c13.568,0,24.569-6.27,24.569-14.005
		C527.89,339.49,517.584,333.377,504.619,332.992z M492.387,354.442c-4.953,0-8.969-4.016-8.969-8.969
		c0-4.952,4.016-8.968,8.969-8.968s8.969,4.016,8.969,8.968C501.355,350.427,497.34,354.442,492.387,354.442z M514.131,354.442
		c-4.953,0-8.968-4.016-8.968-8.969c0-4.952,4.015-8.968,8.968-8.968s8.969,4.016,8.969,8.968
		C523.1,350.427,519.084,354.442,514.131,354.442z"/>
</g>
<path fill="#5C3E6C" d="M502.336,366.262c0,0-39.24-1.013-34.328,17.771c4.914,18.784,25.168,28.492,34.328,28.392V366.262z"/>
<path fill="#5C3E6C" d="M510.273,363.719c0,0.862-1.072,1.562-2.395,1.562h-8.74c-1.323,0-2.395-0.7-2.395-1.562l0,0
	c0-0.863,1.071-1.562,2.395-1.562h8.74C509.201,362.156,510.273,362.855,510.273,363.719L510.273,363.719z"/>
<path fill="#5C3E6C" d="M511.922,416.786c0,1.626-1.412,2.943-3.156,2.943h-11.514c-1.744,0-3.158-1.317-3.158-2.943l0,0
	c0-1.626,1.414-2.945,3.158-2.945h11.514C510.51,413.841,511.922,415.16,511.922,416.786L511.922,416.786z"/>
<path fill="#5C3E6C" d="M519.607,426.437c-0.605-1.832-2.428-2.98-4.654-3.694c-2.492-0.966-6.908-1.608-11.943-1.608
	c-5.037,0-9.453,0.643-11.947,1.608c-2.225,0.714-4.047,1.862-4.65,3.694c0,0-0.979,3.881,5.903,4.654c0,0,4.927,1.148,5.903,5.138
	c0,0,1.232,2.552,4.791,2.655c3.557-0.104,4.789-2.655,4.789-2.655c0.977-3.989,5.904-5.138,5.904-5.138
	C520.584,430.317,519.607,426.437,519.607,426.437z"/>
<path fill="#5C3E6C" d="M503.945,366.262v46.162c9.16,0.101,29.413-9.607,34.328-28.392
	C543.188,365.249,503.945,366.262,503.945,366.262z M506.869,410.47c-0.709,0-1.284-0.576-1.284-1.286s0.575-1.284,1.284-1.284
	c0.711,0,1.286,0.574,1.286,1.284S507.58,410.47,506.869,410.47z M506.869,402.739c-0.709,0-1.284-0.575-1.284-1.285
	c0-0.711,0.575-1.286,1.284-1.286c0.711,0,1.286,0.575,1.286,1.286C508.155,402.164,507.58,402.739,506.869,402.739z
	 M506.869,395.009c-0.709,0-1.284-0.575-1.284-1.286c0-0.71,0.575-1.284,1.284-1.284c0.711,0,1.286,0.574,1.286,1.284
	C508.155,394.434,507.58,395.009,506.869,395.009z M506.869,387.263c-0.709,0-1.284-0.574-1.284-1.284s0.575-1.286,1.284-1.286
	c0.711,0,1.286,0.576,1.286,1.286S507.58,387.263,506.869,387.263z M506.869,379.414c-0.709,0-1.284-0.574-1.284-1.285
	c0-0.709,0.575-1.284,1.284-1.284c0.711,0,1.286,0.575,1.286,1.284C508.155,378.84,507.58,379.414,506.869,379.414z
	 M506.869,371.661c-0.709,0-1.284-0.576-1.284-1.286s0.575-1.285,1.284-1.285c0.711,0,1.286,0.575,1.286,1.285
	S507.58,371.661,506.869,371.661z"/>
<path fill="#5C3E6C" d="M496.25,460.598c0,2.866-2.324,5.188-5.189,5.188l0,0c-2.865,0-5.189-2.322-5.189-5.188v-23.335
	c0-2.866,2.324-5.188,5.189-5.188l0,0c2.865,0,5.189,2.321,5.189,5.188V460.598z"/>
<path fill="#5C3E6C" d="M496.742,474.943v-1.754c0-3.432-3.135-6.214-7.004-6.214h-3.696c-3.868,0-7.003,2.782-7.003,6.214v1.754
	H496.742z"/>
<path fill="#5C3E6C" d="M510.312,460.597c0,2.867,2.323,5.189,5.188,5.189l0,0c2.866,0,5.189-2.322,5.189-5.189v-23.334
	c0-2.866-2.323-5.189-5.189-5.189l0,0c-2.865,0-5.188,2.323-5.188,5.189V460.597z"/>
<path fill="#5C3E6C" d="M509.819,474.942v-1.753c0-3.432,3.136-6.214,7.004-6.214h3.695c3.868,0,7.004,2.782,7.004,6.214v1.753
	H509.819z"/>
<g>
	<path fill="#5C3E6C" d="M552.617,379.823c-4.211-6.003-10.588-8.824-14.902-6.333c-4.312,2.49-5.058,9.424-1.965,16.07
		L552.617,379.823z"/>
	<path fill="#5C3E6C" d="M569.896,415.143c1.539,2.666,0.625,6.073-2.04,7.611l-2.546,1.471c-2.666,1.539-6.072,0.626-7.611-2.04
		l-3.34-5.784c-1.539-2.666-0.627-6.074,2.039-7.613l2.545-1.47c2.666-1.538,6.074-0.625,7.613,2.04L569.896,415.143z"/>
	<path fill="#5C3E6C" d="M559.299,400.494c1.433,2.482,0.583,5.654-1.9,7.088l0,0c-2.48,1.434-5.655,0.584-7.088-1.898
		l-11.668-20.209c-1.432-2.48-0.582-5.656,1.9-7.088l0,0c2.482-1.434,5.656-0.582,7.088,1.898L559.299,400.494z"/>
</g>
<g>
	<path fill="#5C3E6C" d="M470.669,389.561c3.094-6.646,2.349-13.58-1.965-16.07c-4.314-2.491-10.691,0.33-14.9,6.333
		L470.669,389.561z"/>
	<path fill="#5C3E6C" d="M456.011,405.854c-1.433,2.482-4.607,3.332-7.088,1.898l0,0c-2.483-1.434-3.334-4.605-1.9-7.088
		l11.667-20.207c1.433-2.482,4.606-3.334,7.089-1.9l0,0c2.481,1.434,3.333,4.607,1.9,7.09L456.011,405.854z"/>
	<path fill="#5C3E6C" d="M448.722,422.186c-1.539,2.666-4.947,3.578-7.611,2.039l-2.547-1.471c-2.664-1.537-3.579-4.945-2.04-7.611
		l3.34-5.785c1.539-2.665,4.948-3.578,7.612-2.04l2.547,1.471c2.664,1.538,3.578,4.946,2.039,7.612L448.722,422.186z"/>
</g>
<path fill="#5C3E6C" d="M697.885,362.102c0,1.057-0.857,1.911-1.912,1.911h-23.243c-1.056,0-1.911-0.854-1.911-1.911l0,0
	c0-1.055,0.855-1.91,1.911-1.91h23.243C697.027,360.191,697.885,361.047,697.885,362.102L697.885,362.102z"/>
<path fill="#5C3E6C" d="M697.838,319.333h-27.02c-3.487,0-6.314,2.827-6.314,6.313v27.465c0,3.488,2.827,6.315,6.314,6.315h27.02
	c3.488,0,6.314-2.827,6.314-6.315v-27.465C704.152,322.16,701.326,319.333,697.838,319.333z M669.135,333.594
	c0-3.375,2.734-6.111,6.109-6.111s6.109,2.736,6.109,6.111c0,3.373-2.734,6.107-6.109,6.107S669.135,336.967,669.135,333.594z
	 M684.215,335.838l3.875,11.051h-7.751L684.215,335.838z M677.92,354.979h-4.156v-4.582h4.156V354.979z M683.564,354.979h-4.155
	v-4.582h4.155V354.979z M689.279,354.979h-4.156v-4.582h4.156V354.979z M694.925,354.979h-4.156v-4.582h4.156V354.979z
	 M693.459,339.701c-3.375,0-6.109-2.734-6.109-6.107c0-3.375,2.734-6.111,6.109-6.111c3.373,0,6.109,2.736,6.109,6.111
	C699.568,336.967,696.832,339.701,693.459,339.701z"/>
<path fill="#5C3E6C" d="M679.822,463.256v-0.021h-17.186v0.021c-1.551,1.252-2.57,3.359-2.57,5.75c0,3.842,2.633,6.957,5.878,6.957
	h10.569c3.246,0,5.877-3.115,5.877-6.957C682.391,466.615,681.373,464.51,679.822,463.256z"/>
<path fill="#5C3E6C" d="M705.48,463.305v-0.069h-17.207c-1.567,1.249-2.6,3.366-2.6,5.771c0,3.842,2.631,6.957,5.877,6.957h10.57
	c3.245,0,5.877-3.115,5.877-6.957C707.998,466.645,707.002,464.561,705.48,463.305z"/>
<polygon fill="#5C3E6C" points="662.637,441.68 662.637,447.158 662.637,462.481 679.822,462.481 679.822,447.158 679.822,441.68 
	679.822,435.219 662.637,435.219 "/>
<polygon fill="#5C3E6C" points="688.297,441.68 688.297,447.158 688.297,462.481 705.48,462.481 705.48,447.158 705.48,441.68 
	705.48,435.219 688.297,435.219 "/>
<path fill="#5C3E6C" d="M720.166,373.714c-1.229-0.066-2.531-0.132-3.939-0.19c-2.001-5.12-6.978-8.748-12.807-8.748h-38.184
	c-5.902,0-10.936,3.719-12.883,8.943c-1.405,0.076-2.674,0.159-3.812,0.246v3.783c0.909,0.069,1.883,0.137,2.963,0.199
	c-0.008,0.19-0.016,0.381-0.016,0.574c0,0.533,0.034,1.061,0.094,1.578c-0.059,0.318-0.094,0.645-0.094,0.979v47.78
	c0,2.989,2.424,5.412,5.413,5.412h4.577h1.158h17.186h8.475h17.184h2.518h3.756c2.99,0,5.414-2.423,5.414-5.412v-47.78
	c0-0.335-0.036-0.661-0.094-0.979c0.061-0.518,0.094-1.045,0.094-1.578c0-0.125-0.006-0.248-0.01-0.369
	c1.061-0.048,2.056-0.1,3.008-0.151V373.714z M662.023,400.357h-3.436v-20.868h3.436V400.357z M695.689,406.588
	c0,1.215-0.984,2.197-2.197,2.197s-2.197-0.982-2.197-2.197c0-1.211,0.984-2.195,2.197-2.195S695.689,405.377,695.689,406.588z
	 M684.328,380.431c5.271,0,9.546,4.274,9.546,9.547s-4.274,9.546-9.546,9.546c-5.273,0-9.547-4.273-9.547-9.546
	S679.055,380.431,684.328,380.431z M686.143,406.588c0,1.215-0.983,2.197-2.197,2.197c-1.213,0-2.195-0.982-2.195-2.197
	c0-1.211,0.982-2.195,2.195-2.195C685.159,404.393,686.143,405.377,686.143,406.588z M674.4,404.393
	c1.212,0,2.195,0.984,2.195,2.195c0,1.215-0.983,2.197-2.195,2.197c-1.214,0-2.197-0.982-2.197-2.197
	C672.203,405.377,673.187,404.393,674.4,404.393z M666.193,400.357h-3.437v-20.868h3.437V400.357z M666.983,379.489h3.437v20.868
	h-3.437V379.489z M700.812,418.619h-33.734v-5.729h33.734V418.619z M701.702,400.67h-3.437v-20.867h3.437V400.67z M705.871,400.67
	h-3.438v-20.867h3.438V400.67z M710.098,400.67h-3.436v-20.867h3.436V400.67z"/>
<path fill="#5C3E6C" d="M632.021,383.67c-1.129,1.345-1.812,3.078-1.812,4.971v3.629c0,2.35,1.051,4.449,2.704,5.867v11.022
	c0,1.5,1.921,2.735,4.399,2.917c-2.809,0.668-4.857,2.727-4.857,5.166v2.19c0,2.98,3.056,5.396,6.825,5.396
	c1.892,0,3.601-0.61,4.835-1.596v-2.025h-5.074v-5.738h5.074v-2.025c-1.1-0.877-2.574-1.455-4.221-1.572
	c1.805-0.447,3.072-1.493,3.072-2.712v-11.022c1.654-1.418,2.705-3.518,2.705-5.867v-3.629c0-1.893-0.684-3.626-1.812-4.971H632.021
	z"/>
<path fill="#5C3E6C" d="M641.891,390.039l5.525-9.571c0.015,0.009,0.029,0.021,0.043,0.029l1.844-3.193
	c-0.015-0.007-0.031-0.015-0.047-0.022l2.389-4.136c1.443-2.501,0.318-5.854-2.513-7.489c-2.831-1.634-6.296-0.932-7.739,1.57
	l-9.754,16.895L641.891,390.039z"/>
<path fill="#5C3E6C" d="M721.143,364.003c-1.615-0.688-3.007-1.92-3.863-3.608l-1.643-3.236c-1.063-2.094-1.076-4.443-0.244-6.456
	l-4.992-9.833c-0.562-1.107,0.132-2.647,1.595-3.874c-1.449,0.563-2.939,0.69-4.25,0.418l-0.916-1.806l4.523-2.297l-2.597-5.117
	l-4.525,2.298l-0.916-1.807c0.654-1.438,1.9-2.755,3.587-3.611c3.362-1.706,7.181-0.936,8.53,1.722l0.991,1.952
	c1.118,2.201,0.186,5.004-2.077,6.873c2.216-0.854,4.363-0.597,5.021,0.697l4.992,9.833c2.115,0.517,4.005,1.913,5.067,4.007
	l1.643,3.236c0.857,1.688,1.031,3.54,0.633,5.248L721.143,364.003z"/>
<path fill="#5C3E6C" d="M731.834,358.056l-1.05,19.479c-0.156,2.885-2.928,5.08-6.191,4.903c-3.265-0.176-5.784-2.655-5.629-5.54
	l0.162-3.003l0.081-1.494l0.227-4.214l0.114-2.115l0.466-8.652L731.834,358.056z"/>
</svg>
