<?xml version="1.0" standalone="no"?>
<!DOCTYPE svg PUBLIC "-//W3C//DTD SVG 1.1//EN" "http://www.w3.org/Graphics/SVG/1.1/DTD/svg11.dtd" >
<svg xmlns="http://www.w3.org/2000/svg" xmlns:xlink="http://www.w3.org/1999/xlink" version="1.1">
<metadata></metadata>
<defs>
<font id="reflexregular" horiz-adv-x="1024" >
<font-face units-per-em="2048" ascent="1638" descent="-410" />
<missing-glyph horiz-adv-x="526" />
<glyph horiz-adv-x="0" />
<glyph horiz-adv-x="682" />
<glyph horiz-adv-x="708" d="M121 1790v51h72v-51q0 -23 7 -48.5t21.5 -47t34.5 -34.5t47 -13h117q27 0 47 13t34.5 34.5t21.5 47t7 48.5v51h72v-51q0 -49 -15.5 -92t-41 -74t-58 -48t-67.5 -17h-117q-35 0 -67.5 17t-58 48t-41 74t-15.5 92z" />
<glyph horiz-adv-x="874" d="M362 1538v234h234v-234h-234z" />
<glyph horiz-adv-x="579" d="M113 1651q0 72 51 123t123 51t123 -51.5t51 -122.5q0 -74 -51 -125t-123 -51t-123 51t-51 125zM145 1651q0 -59 41 -99.5t101 -40.5q59 0 100 40t41 100q0 59 -41 98t-100 39t-100.5 -39t-41.5 -98z" />
<glyph unicode="&#xa;" horiz-adv-x="811" d="M82 1477l158 348h88l-160 -348h-86zM459 1477l159 348h87l-158 -348h-88z" />
<glyph horiz-adv-x="931" d="M320.5 -197.5q5.5 78.5 48.5 150.5q16 27 36.5 51.5t55.5 56.5h168q-14 -14 -23 -28q-51 -66 -92 -158q-10 -33 -8 -79t19.5 -91t50 -82t86.5 -49l2 -168l-99 33q-82 27 -138 84t-84 129t-22.5 150.5z" />
<glyph horiz-adv-x="774" d="M174 1825h94l142 -303l143 303h92l-162 -348h-149z" />
<glyph unicode="&#xd;" horiz-adv-x="544" d="M104 367v1046h162v-1046q0 -41 14.5 -80t41 -69t63.5 -48t82 -18h47v-152h-47q-74 0 -139.5 28.5t-115.5 78t-79 116t-29 144.5z" />
<glyph horiz-adv-x="768" d="M84 0l485 1411h125l-485 -1411h-125z" />
<glyph horiz-adv-x="1122" d="M-70 -358q45 2 81 21.5t58.5 50t35 67.5t12.5 72v1200q0 74 25.5 139t72.5 113.5t110.5 77t141.5 28.5h94q68 0 126 -24.5t103.5 -65.5t74 -97.5t38.5 -119.5h-158q-8 29 -23 57.5t-39 51t-54.5 37t-67.5 14.5h-94q-45 0 -80 -18.5t-59.5 -48.5t-38 -66.5t-15.5 -71.5 v-39v-48.5v-67.5t2 -97h629v-440q0 -37 12.5 -76t37 -70t61.5 -50t84 -19v-150h-2q-72 0 -135.5 27.5t-110.5 75t-74.5 108.5t-27.5 129v320h-476v-789q0 -76 -24.5 -144.5t-70.5 -120.5t-109.5 -84t-139.5 -32v150z" />
<glyph horiz-adv-x="1138" d="M-70 -360q45 2 81 22.5t58.5 51t35 67.5t12.5 72v524q0 164 -2 339t2 339q2 72 28.5 136t72.5 113.5t109.5 78t139.5 28.5h285v506h153v-1534q0 -35 9.5 -76t31 -75.5t59 -59.5t97.5 -25h16v-147h-16q-76 0 -140.5 29.5t-110.5 79t-72.5 115t-26.5 138.5v904h-285 q-45 0 -81 -19.5t-60.5 -49.5t-38 -66.5t-13.5 -71.5v-264h187v-146h-187v-780q0 -74 -24.5 -142.5t-70.5 -119.5t-109.5 -83t-139.5 -32v148z" />
<glyph horiz-adv-x="747" d="M20 748v90h136v569h163v-569h132v-90h-132v-379q0 -43 15.5 -82t43.5 -69t65.5 -47t80.5 -17h203v-154h-203q-76 0 -143.5 28.5t-117.5 78t-78.5 117t-28.5 145.5v379h-136z" />
<glyph horiz-adv-x="581" d="M20 850v88h138v979h172v-979h145v-88h-145v-492q0 -41 16 -78.5t45 -66.5t68 -46t84 -17h18v-150h-18q-80 0 -150.5 28.5t-123 77t-82 114t-29.5 138.5v492h-138z" />
<glyph horiz-adv-x="966" d="M51 0v184l703 1073h-703v152h864v-184l-694 -1073h694v-152h-864zM289 1825h84l131 -246l133 246h82l-148 -271h-137z" />
<glyph horiz-adv-x="964" d="M72 365v71q0 72 27.5 137.5t75.5 115.5t114.5 80t144.5 30h96q55 0 94.5 24.5t63 61.5t33.5 80t10 77q0 33 -12 72t-37 73t-62.5 55.5t-89.5 21.5h-458v149h458q80 0 146.5 -30.5t115 -82t75 -119t26.5 -141.5v-26q0 -72 -27.5 -138.5t-77 -116.5t-116 -80t-142.5 -30 h-96q-49 0 -87 -20.5t-62.5 -51t-38 -68.5t-13.5 -73v-71q0 -37 13.5 -75t38 -70t62.5 -51t87 -19h459v-150h-459q-78 0 -144.5 29.5t-114.5 80t-75.5 116t-27.5 139.5zM262 1825h84l133 -244l133 244h82l-147 -271h-137z" />
<glyph unicode=" "  horiz-adv-x="526" />
<glyph unicode="&#x09;" horiz-adv-x="526" />
<glyph unicode="&#xa0;" horiz-adv-x="526" />
<glyph unicode="!" horiz-adv-x="364" d="M102 0v90h160v-90h-160zM102 381v1030h160v-1030h-160z" />
<glyph unicode="&#x22;" horiz-adv-x="774" d="M123 1274v465h104v-465h-104zM547 1274v465h104v-465h-104z" />
<glyph unicode="#" horiz-adv-x="1189" d="M35 492l16 92h129l45 282h-127l15 90h129l73 455h150l-74 -455h490l73 455h152l-74 -455h123l-16 -90h-121l-47 -282h121l-15 -92h-114l-84 -492h-154l80 492h-488l-79 -492h-152l78 492h-129zM332 584h487l45 282h-485z" />
<glyph unicode="$" d="M102 1006v45q0 68 26 129t72 109t112.5 81t150.5 43v232h98v-232q76 -8 138.5 -35.5t108.5 -70.5t74.5 -98.5t37.5 -118.5h-162q-14 72 -67.5 122t-131.5 50h-94q-43 0 -81 -17.5t-64.5 -47.5t-42 -67.5t-15.5 -78.5v-45q0 -41 15.5 -80t42 -68t64.5 -46t81 -17h94 q74 0 140.5 -28t115.5 -77t78 -114.5t29 -141.5v-74q0 -68 -26 -129t-72 -109t-113.5 -80t-149.5 -44v-238h-98v238q-154 18 -248 108.5t-111 215.5h162q14 -72 67.5 -121t131.5 -49h94q43 0 80 17t64.5 46t43 66.5t15.5 78.5v74q0 41 -15.5 80t-42 68.5t-63.5 47t-82 17.5 h-94q-74 0 -140.5 27.5t-115.5 77t-78 115t-29 139.5z" />
<glyph unicode="%" horiz-adv-x="1208" d="M94 899v338q0 37 13.5 68.5t36 55t53 37t65.5 13.5h45q35 0 65.5 -13.5t53.5 -37t36 -55t13 -68.5v-338q0 -37 -13 -68.5t-36 -55t-53.5 -37t-65.5 -13.5h-45q-35 0 -65.5 13.5t-53 37t-36 55t-13.5 68.5zM180 942q0 -37 22.5 -66.5t63.5 -29.5h37q41 0 62.5 29.5 t21.5 66.5v250q0 35 -21.5 65.5t-62.5 30.5h-37q-41 0 -63.5 -30.5t-22.5 -65.5v-250zM315 0l467 1411h117l-467 -1411h-117zM733 174v338q0 37 13.5 68.5t36 55t53 37t65.5 13.5h45q35 0 65.5 -13.5t53 -37t36 -55t13.5 -68.5v-338q0 -74 -49 -124t-119 -50h-45 q-70 0 -119 50t-49 124zM821 217q0 -37 23.5 -65.5t60.5 -28.5h37q41 0 63.5 28.5t22.5 65.5v252q0 35 -22.5 64.5t-63.5 29.5h-37q-39 0 -61.5 -29.5t-22.5 -64.5v-252z" />
<glyph unicode="&#x26;" horiz-adv-x="1171" d="M72 365v63q0 102 51 187t162 151q-47 78 -66.5 135t-19.5 111v28q0 78 27.5 145.5t74.5 118t110.5 79t135.5 28.5h98q72 0 135.5 -28.5t111.5 -79t75.5 -118t27.5 -145.5v-28q0 -76 -27.5 -142.5t-75.5 -115.5t-111.5 -78t-135.5 -29h-217q-45 0 -82 -18.5t-62.5 -49 t-40 -70.5t-14.5 -81v-63q0 -43 14.5 -81t40 -68t62.5 -47t82 -17h600v141h92v-295h-692q-74 0 -138.5 28.5t-113.5 78t-76.5 116t-27.5 144.5zM352 1012q-2 -37 11.5 -75t39 -67.5t62.5 -49t82 -19.5h98q47 0 83 19.5t60.5 50t38 68.5t13.5 73v28q0 37 -13.5 76t-38 71 t-60.5 51t-83 19h-96q-47 0 -83 -20t-60.5 -51t-38 -69t-13.5 -75q-2 -6 -2 -18v-12z" />
<glyph unicode="'" horiz-adv-x="280" d="M53 1274v465h174v-465h-174z" />
<glyph unicode="(" horiz-adv-x="385" d="M117 -121v1645q0 72 27.5 137t76.5 114.5t117 78t147 28.5h359v-145h-359q-49 0 -88 -20.5t-64.5 -51.5t-38.5 -68.5t-13 -72.5v-1645q0 -37 13 -73.5t38.5 -67.5t64.5 -50.5t88 -19.5h359v-147h-359q-80 0 -147.5 28.5t-116.5 77.5t-76.5 114.5t-27.5 137.5z" />
<glyph unicode=")" horiz-adv-x="358" d="M-461 -332h359q49 0 88 19.5t64.5 50.5t38.5 67.5t13 73.5v1645q0 35 -13 72.5t-38.5 68.5t-64.5 51.5t-88 20.5h-359v145h359q80 0 147.5 -28.5t116.5 -78t76.5 -115t27.5 -136.5v-1645q0 -72 -27.5 -137.5t-76.5 -114.5t-117 -77.5t-147 -28.5h-359v147z" />
<glyph unicode="*" horiz-adv-x="864" d="M109 893l274 154l-268 159l30 54l271 -162v313h59l2 -311l277 149l28 -53l-274 -154l270 -159l-30 -54l-271 162l-2 -313h-61v311l-275 -149z" />
<glyph unicode="+" horiz-adv-x="972" d="M137 475v100h299v299h101v-299h299v-100h-299v-299h-101v299h-299z" />
<glyph unicode="," horiz-adv-x="364" d="M102 205h160v-713h-160v713z" />
<glyph unicode="-" horiz-adv-x="915" d="M100 438v174h699v-174h-699z" />
<glyph unicode="." horiz-adv-x="364" d="M102 0v190h160v-190h-160z" />
<glyph unicode="/" horiz-adv-x="632" d="M18 0l500 1411h96l-499 -1411h-97z" />
<glyph unicode="0" d="M102 367v677q0 76 29 143.5t79 117t115.5 78t139.5 28.5h96q96 0 165 -28.5t112 -78t63.5 -117t20.5 -143.5v-677q0 -78 -29 -144.5t-78 -116t-114.5 -78t-139.5 -28.5h-96q-74 0 -139.5 28.5t-115.5 78t-79 116t-29 144.5zM264 238l387 1005q-59 12 -83.5 15.5 t-41.5 3.5l-61 -2q-49 0 -87 -20.5t-62.5 -51.5t-38 -69t-13.5 -75v-806zM377 170q57 -12 81.5 -15t43.5 -3q14 0 29.5 1t29.5 1q49 0 86 19.5t62.5 50t39 68.5t13.5 75v809z" />
<glyph unicode="1" horiz-adv-x="364" d="M102 0v1411h160v-1411h-160z" />
<glyph unicode="2" horiz-adv-x="995" d="M102 0v442q0 72 29 136.5t78 112.5t115.5 77t140.5 29h96q61 0 100 25.5t61.5 62.5t31 80t8.5 77q0 37 -13.5 76t-39 70t-62.5 51.5t-86 20.5h-96q-43 0 -76 -15.5t-57.5 -40t-41 -55.5t-22.5 -62h-164q8 66 39 125.5t78 103.5t109.5 70.5t134.5 26.5h96 q76 0 142.5 -30.5t115.5 -81t77 -118t28 -141.5v-34q0 -72 -28 -137.5t-77 -114.5t-115.5 -79t-142.5 -30h-96q-49 0 -85 -18.5t-58.5 -47t-36 -65.5t-19.5 -74q-6 -35 -7 -74.5t1 -74.5q0 -35 1 -66.5t1 -74.5h660v-152h-820z" />
<glyph unicode="3" horiz-adv-x="995" d="M72 365h161q0 -37 13.5 -74t39 -67.5t62.5 -50t86 -19.5h96q51 0 89 20.5t63 53t37 70.5t12 75q0 49 -7 98t-29.5 89t-64.5 64.5t-112 24.5v152q10 0 14 2q51 4 89 24.5t63 51t36 68.5t11 77q0 35 -10 76t-33.5 76.5t-62.5 59.5t-95 24h-96q-43 0 -75.5 -15.5t-57.5 -40 t-41 -55.5t-22 -62h-164q8 68 38.5 126.5t78 103.5t109.5 70.5t134 25.5h96q82 0 148.5 -31.5t115 -85t74 -124t25.5 -148.5q0 -76 -29.5 -147.5t-107.5 -153.5q47 -47 74.5 -89t41 -84t17.5 -87t4 -96q0 -74 -27.5 -139.5t-76 -117t-115 -81t-144.5 -29.5h-96 q-78 0 -143.5 29.5t-114.5 80t-76.5 116t-27.5 139.5z" />
<glyph unicode="4" horiz-adv-x="993" d="M72 1014v397h159v-440q18 -70 71.5 -121t131.5 -51h297v612h160v-1411h-160v647h-297q-74 0 -139.5 29t-115.5 79t-78.5 116.5t-28.5 142.5z" />
<glyph unicode="5" horiz-adv-x="1026" d="M102 365h162q0 -37 13.5 -74t39 -67.5t62.5 -50t86 -19.5h96q51 0 89 20.5t62.5 53t37 70.5t12.5 75v104q0 37 -13.5 75t-39 68.5t-63.5 50t-85 19.5h-96q-76 0 -141.5 31t-114.5 81t-78 117.5t-29 141.5v350h820v-154h-658v-194q0 -37 13.5 -76t38 -70.5t62.5 -52 t87 -20.5h96q76 0 142.5 -31t115.5 -81t77 -116.5t28 -138.5v-110q0 -74 -28 -139.5t-76 -117t-114.5 -81t-144.5 -29.5h-96q-78 0 -143.5 29.5t-114.5 80t-77 116t-28 139.5z" />
<glyph unicode="6" horiz-adv-x="1026" d="M102 367v673q0 74 28 141.5t76 119t114.5 81t144.5 29.5h96q74 0 139.5 -28.5t113.5 -77t77 -113t33 -135.5h-166q-4 33 -16.5 68.5t-35 64.5t-58.5 48t-87 19h-96q-49 0 -86 -19t-62.5 -51t-39 -71t-13.5 -76v-299q84 37 125 46.5t74 9.5h98q82 0 148.5 -31t114.5 -84 t74 -123t26 -147v-45q0 -74 -28 -139.5t-77 -117t-115.5 -81t-142.5 -29.5h-96q-78 0 -144.5 29.5t-114.5 81t-76 117t-28 139.5zM264 367q0 -37 13.5 -75t38 -68.5t62.5 -50t87 -19.5h96q47 0 85 19.5t63.5 50t39 68.5t13.5 75v59q0 37 -13.5 75t-39 70.5t-62.5 53 t-86 20.5h-98q-37 0 -74 -17.5t-65.5 -45t-46 -64.5t-13.5 -76v-75z" />
<glyph unicode="7" horiz-adv-x="851" d="M31 1255v154h350q76 0 143.5 -28.5t117.5 -79t79 -118t29 -145.5v-1038h-164v1044q0 43 -15.5 81t-43 67t-65.5 46t-81 17h-350z" />
<glyph unicode="8" horiz-adv-x="1026" d="M102 367v36q0 82 27 157t111 159q-80 86 -109 157.5t-29 149.5q0 76 27 145.5t74 123t114.5 84t147.5 30.5h98q76 0 142.5 -29.5t114.5 -81t76 -119t28 -141.5v-28q0 -72 -30 -141.5t-106 -149.5q82 -86 109 -160t27 -160v-32q0 -74 -28 -139.5t-76 -117t-114.5 -81 t-142.5 -29.5h-98q-78 0 -144.5 29.5t-114.5 81t-76 117t-28 139.5zM264 367q0 -37 13.5 -75t38 -68.5t62.5 -50t87 -19.5h98q49 0 86 19.5t62.5 50t39 68.5t13.5 75v59q0 35 -13.5 74t-39 70.5t-62.5 53t-86 21.5h-98q-49 0 -87 -21.5t-62.5 -53t-38 -70.5t-13.5 -74v-59z M264 1026q0 -35 10.5 -76t35 -74.5t62.5 -56t93 -22.5h98q55 0 93 22.5t62.5 56t35 74.5t10.5 76q0 37 -11.5 77t-36 73.5t-62.5 56t-91 22.5h-98q-55 0 -93 -22.5t-61.5 -56t-35 -73.5t-11.5 -77z" />
<glyph unicode="9" d="M102 362h162q0 -37 13.5 -73.5t39 -66t62.5 -49t86 -19.5h96q49 0 86 19.5t62.5 50t39 68.5t13.5 75v327q-84 -31 -126 -40t-75 -9h-96q-82 0 -148.5 31t-114.5 83t-74 121.5t-26 145.5t27 145.5t74 123t114.5 84t147.5 30.5h96q74 0 139.5 -28.5t114.5 -77t78 -113 t29 -135.5v-688q0 -74 -28 -139.5t-76 -117t-114.5 -81t-142.5 -29.5h-96q-78 0 -143.5 29.5t-113.5 80t-77 116t-29 136.5zM264 1026q0 -35 10.5 -76t35 -74.5t62.5 -56t93 -22.5h96q57 0 96 24.5t62.5 61.5t33 79t9.5 76q0 37 -13.5 76t-38 71t-62.5 51t-87 19h-96 q-53 0 -91 -22.5t-62.5 -56t-36 -73.5t-11.5 -77z" />
<glyph unicode=":" horiz-adv-x="364" d="M102 0v190h160v-190h-160zM102 684v219h160v-219h-160z" />
<glyph unicode=";" horiz-adv-x="364" d="M102 190h160v-698h-160v698zM102 684v219h160v-219h-160z" />
<glyph unicode="&#x3c;" horiz-adv-x="708" d="M156 643v176l397 185v-117l-326 -156l326 -156v-116z" />
<glyph unicode="=" d="M162 258v104h700v-104h-700zM162 680v104h700v-104h-700z" />
<glyph unicode="&#x3e;" horiz-adv-x="686" d="M158 459v116l327 156l-327 156v117l399 -185v-176z" />
<glyph unicode="?" horiz-adv-x="962" d="M72 1057q2 74 32.5 139.5t79.5 112.5t113.5 74.5t136.5 27.5h96q74 0 139.5 -27.5t115 -77t78 -116t28.5 -141.5v-41q0 -131 -89 -231.5t-243 -133.5l2 -268h-162v424h131q43 0 80 18.5t63.5 48t42 68.5t15.5 80v26q0 43 -15.5 83t-42 70t-63.5 47t-80 17h-96 q-86 0 -139 -60t-62 -140h-161zM401 0v90h160v-90h-160z" />
<glyph unicode="@" horiz-adv-x="1386" d="M51 367v49q0 76 24.5 145.5t71 122.5t111 84t143.5 31h93q78 0 141 -31t109.5 -84t72 -122.5t25.5 -147.5q0 -29 -1 -54.5t-7.5 -56.5t-18.5 -66.5t-33 -84.5h172v8q33 6 64 19.5t55.5 37t39.5 55t15 72.5v696q0 37 -12 76t-36.5 71t-61.5 51t-84 19h-633v154h633 q74 0 138.5 -29.5t111.5 -81t73.5 -119t26.5 -141.5v-696q0 -74 -29.5 -136.5t-81 -108.5t-119 -72.5t-143.5 -26.5h-510q-76 0 -139 29.5t-110.5 81t-74 117t-26.5 139.5zM207 367q0 -37 12 -75t37 -68.5t60.5 -50t84.5 -19.5h93q47 0 82.5 19.5t60.5 50t38 68.5t13 75v63 q0 37 -13 75t-38 69.5t-60.5 52t-82.5 20.5h-93q-49 0 -84.5 -20.5t-60.5 -52t-37 -70.5t-12 -74v-63z" />
<glyph unicode="A" d="M102 0v1044q0 76 29 143.5t79 117t115.5 78t139.5 28.5h96q74 0 139.5 -28.5t114.5 -78t78 -117t29 -143.5v-1044h-160v649h-498v-649h-162zM264 799h498v245q0 41 -15.5 80t-42 69t-63.5 48.5t-80 18.5h-96q-45 0 -82 -18.5t-63.5 -48.5t-41 -69t-14.5 -80v-245z" />
<glyph unicode="B" horiz-adv-x="1026" d="M102 0v1411h459q74 0 140.5 -28.5t115.5 -78t78 -117t29 -143.5v-30q0 -74 -33 -144.5t-105 -148.5q72 -74 105 -143.5t33 -145.5v-65q0 -78 -29 -144.5t-78 -116t-115.5 -78t-140.5 -28.5h-459zM266 154h295q43 0 81 17t64.5 47t42 68t15.5 81v63q0 41 -15.5 81 t-42 70.5t-63.5 49t-80 18.5h-297v-495zM266 799h295q45 0 82 18.5t63.5 48t42 68.5t15.5 80v30q0 43 -15.5 82t-42 69t-63.5 47.5t-82 17.5h-295v-461z" />
<glyph unicode="C" horiz-adv-x="878" d="M102 367v677q0 76 30 143.5t80 117t116.5 78t142.5 28.5h336v-151h-336q-45 0 -82 -18.5t-63.5 -48.5t-41 -69t-14.5 -80v-677q0 -43 14.5 -81t41 -68t63.5 -47t82 -17h336v-154h-336q-76 0 -142.5 28.5t-116.5 78t-80 116t-30 144.5z" />
<glyph unicode="D" horiz-adv-x="1028" d="M102 0v1411h461q74 0 139.5 -28.5t115.5 -79t79 -118t29 -145.5v-673q0 -78 -29 -144.5t-79 -116t-115.5 -78t-139.5 -28.5h-461zM262 154h301q43 0 80 17t63.5 47t42 68t15.5 81v673q0 43 -15.5 83t-42 70t-63.5 47t-80 17h-301v-1103z" />
<glyph unicode="E" horiz-adv-x="878" d="M102 367v677q0 76 30 143.5t80 117t116.5 78t142.5 28.5h336v-151h-336q-45 0 -82 -18.5t-63.5 -48.5t-41 -69t-14.5 -80v-245h402v-150h-402v-282q0 -43 14.5 -81t41 -68t63.5 -47t82 -17h336v-154h-336q-76 0 -142.5 28.5t-116.5 78t-80 116t-30 144.5z" />
<glyph unicode="F" horiz-adv-x="837" d="M102 0v1049q0 76 30 142t80 115.5t116.5 78t142.5 28.5h336v-153h-336q-45 0 -82 -18.5t-63.5 -49.5t-41 -70t-14.5 -80v-243h406v-150h-406v-649h-168z" />
<glyph unicode="G" d="M102 367v677q0 76 29 143.5t79 117t115.5 78t139.5 28.5h332v-151h-332q-45 0 -82 -18.5t-63.5 -48.5t-41 -69t-14.5 -80v-677q0 -43 14.5 -81t41 -68t63.5 -47t82 -17h96q43 0 80 17t63.5 47t42 68t15.5 81v280h-199v150h359v-430q0 -78 -29 -144.5t-78 -116t-114.5 -78 t-139.5 -28.5h-96q-74 0 -139.5 28.5t-115.5 78t-79 116t-29 144.5z" />
<glyph unicode="H" horiz-adv-x="1026" d="M102 0v1411h160v-612h502v612h160v-1411h-160v647h-502v-647h-160z" />
<glyph unicode="I" horiz-adv-x="364" d="M102 0v1411h160v-1411h-160z" />
<glyph unicode="J" horiz-adv-x="972" d="M51 367v184h162v-184q0 -43 14.5 -81t41 -68t63.5 -47t82 -17h96q43 0 80 17t63.5 47t42 68t15.5 81v1044h159v-1044q0 -78 -28.5 -144.5t-77.5 -116t-114.5 -78t-139.5 -28.5h-96q-74 0 -139.5 28.5t-115.5 78t-79 116t-29 144.5z" />
<glyph unicode="K" horiz-adv-x="1026" d="M102 0v1411h160v-614h301q43 0 80 18.5t63.5 48t42 68.5t15.5 80v397h160v-397q0 -76 -33 -146.5t-105 -148.5q72 -74 105 -145.5t33 -147.5v-424h-160v424q0 41 -15.5 81t-42 70.5t-63.5 49t-80 18.5h-301v-643h-160z" />
<glyph unicode="L" horiz-adv-x="710" d="M102 369v1042h170v-1042q0 -43 16.5 -82t44 -69t66.5 -47t84 -17h207v-154h-207q-78 0 -147.5 28.5t-121.5 78t-82 117t-30 145.5z" />
<glyph unicode="M" horiz-adv-x="1255" d="M102 0v1411h179l346 -629l356 629h170v-1411h-158v1161l-323 -553h-92l-322 553v-1161h-156z" />
<glyph unicode="N" d="M102 0v1411h185l475 -854v854h160v-1411h-160v344l-492 813v-1157h-168z" />
<glyph unicode="O" d="M102 367v677q0 76 29 143.5t79 117t115.5 78t139.5 28.5h96q74 0 139.5 -28.5t114.5 -78t78 -117t29 -143.5v-677q0 -78 -29 -144.5t-78 -116t-114.5 -78t-139.5 -28.5h-96q-74 0 -139.5 28.5t-115.5 78t-79 116t-29 144.5zM264 367q0 -43 14.5 -81t41 -68t63.5 -47 t82 -17h96q43 0 80 17t63.5 47t42 68t15.5 81v677q0 41 -15.5 80t-42 69t-63.5 48.5t-80 18.5h-96q-45 0 -82 -18.5t-63.5 -48.5t-41 -69t-14.5 -80v-677z" />
<glyph unicode="P" horiz-adv-x="995" d="M102 0v1411h461q74 0 139.5 -28.5t114.5 -79t78 -118t29 -145.5v-28q0 -76 -29 -142.5t-78 -115.5t-114.5 -78t-139.5 -29h-301v-647h-160zM262 799h301q43 0 80 17.5t63.5 47t42 68.5t15.5 80v28q0 43 -15.5 83t-42 70t-63.5 47t-80 17h-301v-458z" />
<glyph unicode="Q" horiz-adv-x="1071" d="M102 367v677q0 76 29 143.5t78 117t113.5 78t136.5 28.5h96q72 0 136.5 -28.5t112.5 -78t76.5 -117t28.5 -143.5v-677q0 -39 -11 -85t-48 -130h201v-152h-592q-72 0 -136.5 28.5t-113.5 78t-78 116t-29 144.5zM262 367q0 -43 14.5 -81t41 -68t62.5 -47t79 -17h96 q41 0 77 17t62.5 47t42 68t15.5 81v677q0 41 -15.5 80t-42 69t-62.5 48.5t-77 18.5h-96q-43 0 -80 -18.5t-62.5 -48.5t-40 -69t-14.5 -80v-677z" />
<glyph unicode="R" horiz-adv-x="1026" d="M102 0v1409h459q74 0 140.5 -28.5t115.5 -78t78 -117t29 -143.5v-32q0 -74 -33 -144.5t-105 -146.5q72 -76 105 -146.5t33 -146.5v-426h-160v426q0 41 -15.5 81t-42 70.5t-63.5 49t-82 18.5h-299v-645h-160zM262 797h299q43 0 81 17t64.5 47t42 69t15.5 80v32 q0 43 -15.5 82t-42 69t-63.5 47t-82 17h-299v-460z" />
<glyph unicode="S" horiz-adv-x="952" d="M72 1014v30q0 74 27.5 139.5t75.5 117t114.5 81t144.5 29.5h334v-151h-334q-61 0 -100 -26t-61.5 -63.5t-31 -80.5t-8.5 -76q0 -35 13.5 -73t38 -68.5t62.5 -51t87 -20.5h96q76 0 142.5 -30t115 -81t76 -118.5t27.5 -141.5v-59q0 -74 -27.5 -141.5t-76 -118t-115 -81 t-142.5 -30.5h-456v154h456q49 0 86 20.5t63 51t39 69.5t13 76v59q0 35 -13 74t-39 70.5t-62.5 53t-86.5 21.5h-96q-78 0 -144.5 30t-114.5 80t-75.5 115.5t-27.5 139.5z" />
<glyph unicode="T" horiz-adv-x="864" d="M20 1257v152h824v-152h-332v-1259h-160v1259h-332z" />
<glyph unicode="U" d="M102 369v1040h162v-1040q0 -41 14.5 -80t41 -70t63.5 -49t82 -18h94q45 0 82 18t63.5 49t41 70t14.5 80v1040h162v-1040q0 -78 -29 -145.5t-79 -118t-115.5 -79t-139.5 -28.5h-94q-74 0 -139.5 28.5t-115.5 79t-79 118t-29 145.5z" />
<glyph unicode="V" d="M102 -2v1411h160v-1257h297q43 0 80 17t64.5 47t43 68t15.5 81v1046h160v-1051q0 -76 -29 -142t-79 -115.5t-115.5 -77t-139.5 -27.5h-457z" />
<glyph unicode="W" horiz-adv-x="1255" d="M102 -2v1411h156v-1161l322 553h92l323 -553v1161h158v-1411h-170l-356 629l-346 -629h-179z" />
<glyph unicode="X" horiz-adv-x="1026" d="M102 0v428q0 72 31 143.5t107 149.5q-76 78 -107 148.5t-31 142.5v399h162v-399q0 -35 13.5 -73t38 -69.5t62.5 -52t87 -20.5h98q49 0 86 20.5t62.5 52t39 69.5t13.5 73v399h160v-399q0 -72 -31 -142.5t-105 -148.5q74 -78 105 -149.5t31 -143.5v-430h-160v430 q0 35 -13.5 74t-39 70.5t-62.5 53t-86 21.5h-98q-49 0 -87 -21.5t-62.5 -53t-38 -70.5t-13.5 -74v-428h-162z" />
<glyph unicode="Y" horiz-adv-x="964" d="M72 1014v397h161v-397q0 -41 14.5 -80t41 -68.5t63.5 -47t82 -17.5h98q43 0 80 17.5t63.5 47t42 68.5t15.5 80v397h160v-397q0 -66 -23.5 -126.5t-66.5 -109.5t-104.5 -84t-137.5 -51v-643h-158v643q-78 16 -139 51t-104 84t-65.5 109.5t-22.5 126.5z" />
<glyph unicode="Z" horiz-adv-x="966" d="M51 0v184l703 1073h-703v152h864v-184l-694 -1073h694v-152h-864z" />
<glyph unicode="[" horiz-adv-x="380" d="M117 -479v2361h727v-145h-565v-2069h565v-147h-727z" />
<glyph unicode="\" horiz-adv-x="606" d="M2 1411h125l485 -1411h-125z" />
<glyph unicode="]" horiz-adv-x="387" d="M-461 -332h565v2069h-565v145h727v-2361h-727v147z" />
<glyph unicode="^" horiz-adv-x="737" d="M133 1477l160 348h151l160 -348h-92l-143 303l-144 -303h-92z" />
<glyph unicode="_" horiz-adv-x="700" d="M0 0v176h700v-176h-700z" />
<glyph unicode="`" horiz-adv-x="485" d="M115 1825h108l187 -348h-109z" />
<glyph unicode="a" horiz-adv-x="983" d="M61 428q0 74 28 140.5t77 117.5t114.5 81t143.5 30h297v243q0 37 -13.5 76t-39 70t-62.5 51t-86 20h-332v154h332q76 0 142.5 -30.5t114.5 -81t76 -118t28 -141.5v-671q0 -74 -28 -141.5t-76 -118t-114.5 -81t-142.5 -30.5h-96q-92 0 -160.5 35t-114 93t-67 137 t-21.5 165zM223 369q0 -37 13.5 -76t39 -69.5t62.5 -51t86 -20.5h96q49 0 86 20.5t62.5 51t39 69.5t13.5 76v278h-297q-49 0 -86 -21.5t-62.5 -53t-39 -70.5t-13.5 -74v-59z" />
<glyph unicode="b" d="M102 358v1559h160v-561q86 33 128 43t75 10h96q76 0 142.5 -29.5t114.5 -81t76 -117t28 -139.5v-684q0 -72 -28 -137t-76 -114.5t-114.5 -79t-142.5 -29.5h-96q-78 0 -143.5 29.5t-114.5 80t-77 115t-28 135.5zM264 358q0 -35 13.5 -72.5t39 -68.5t63.5 -50.5t85 -19.5 h96q47 0 85 19.5t63.5 50.5t39 69t13.5 72v684q0 37 -13.5 76t-39 70t-62.5 51.5t-86 20.5h-96q-49 0 -86 -20.5t-62.5 -51.5t-39 -70t-13.5 -76v-684z" />
<glyph unicode="c" horiz-adv-x="878" d="M102 367v677q0 76 30 143.5t80 117t116.5 78t142.5 28.5h336v-151h-336q-45 0 -82 -18.5t-63.5 -48.5t-41 -69t-14.5 -80v-677q0 -43 14.5 -81t41 -68t63.5 -47t82 -17h336v-154h-336q-76 0 -142.5 28.5t-116.5 78t-80 116t-30 144.5z" />
<glyph unicode="d" d="M102 358v684q0 76 29 142.5t79 117t115.5 79t139.5 28.5h96q33 0 74 -10t127 -43v561h160v-1559q0 -74 -29 -139t-78 -114.5t-114.5 -78t-139.5 -28.5h-96q-74 0 -139.5 28.5t-115.5 78t-79 115t-29 138.5zM264 358q0 -41 14.5 -79.5t41 -67.5t63.5 -46.5t82 -17.5h96 q43 0 80 17.5t63.5 46.5t42 67.5t15.5 79.5v684q0 43 -15.5 82t-42 69t-63.5 48.5t-80 18.5h-96q-45 0 -82 -18.5t-63.5 -49.5t-41 -70t-14.5 -80v-684z" />
<glyph unicode="e" d="M102 369v671q0 74 28 141.5t76 118t114.5 81t144.5 30.5h96q76 0 142.5 -30.5t114.5 -81t76 -118t28 -141.5v-393h-658v-278q0 -80 30 -123t74 -64.5t96 -25.5t97 -4h232v-154h-123l-238 2q-70 0 -130 30.5t-104 82t-70 118t-26 138.5zM264 797h498v243q0 37 -13.5 76 t-39 70t-62.5 51t-86 20h-96q-49 0 -87 -20t-62.5 -51t-38 -70t-13.5 -76v-243z" />
<glyph unicode="f" horiz-adv-x="944" d="M-70 -360q41 2 76 19t60.5 47t40 67t14.5 77v1215q0 72 28.5 134.5t77.5 109.5t114 74.5t136 27.5h447v-149h-447q-70 0 -111.5 -34t-64 -86t-29.5 -116q-4 -48 -4 -96v-29q2 -33 2 -56.5v-33.5v-6h396v-146h-387v-809q0 -74 -28 -138t-76 -112.5t-111.5 -77 t-133.5 -30.5v148z" />
<glyph unicode="g" d="M102 367v684q0 72 28 137t76 114.5t114.5 79t144.5 29.5h96q76 0 142.5 -29.5t114.5 -79t76 -115t28 -136.5v-1201q0 -72 -28 -136t-76 -113.5t-114.5 -79t-142.5 -29.5h-199v148q49 -1 91 -1t77 1q41 2 78 8t68 28q31 20 48 49t25.5 72t10.5 105.5t2 150.5 q-86 -33 -128 -43t-73 -10h-96q-78 0 -144.5 29.5t-114.5 80t-76 117t-28 140.5zM264 367q0 -37 13.5 -76t38 -71t62.5 -51t87 -19h96q47 0 85 19t63.5 50t39 70t13.5 78v684q0 35 -13.5 72.5t-39 68.5t-63.5 50.5t-85 19.5h-96q-49 0 -87 -20.5t-62.5 -51.5t-38 -68 t-13.5 -71v-684z" />
<glyph unicode="h" horiz-adv-x="1026" d="M102 0v1917h160v-506h299q76 0 141.5 -29.5t114.5 -79t77 -114t28 -133.5v-1055h-160v1053q0 35 -13.5 71.5t-40 67.5t-63.5 50.5t-84 19.5h-299v-1262h-160z" />
<glyph unicode="i" horiz-adv-x="544" d="M102 1651v88h164v-88h-164zM104 367v1042h162v-1042q0 -41 14.5 -80t41 -69t63.5 -48t82 -18h47v-152h-47q-74 0 -139.5 28.5t-115.5 78t-79 116t-29 144.5z" />
<glyph unicode="j" horiz-adv-x="374" d="M-317 -362h208q49 0 88 19t67 50t42 69t14 74v1559h170v-1559q0 -72 -28.5 -136t-79.5 -113.5t-121 -79t-152 -29.5h-208v146zM102 1651v88h170v-88h-170z" />
<glyph unicode="k" d="M102 -2v1919h160v-1137h303q49 0 86 21.5t60.5 53.5t36 69t12.5 69v416h162v-416q0 -68 -31 -137.5t-109 -146.5q78 -76 109 -146.5t31 -140.5v-424h-162v424q0 33 -12.5 69.5t-36 68.5t-60.5 53.5t-86 21.5h-303v-637h-160z" />
<glyph unicode="l" horiz-adv-x="544" d="M104 367v1546h162v-1546q0 -41 14.5 -80t41 -69t63.5 -48t82 -18h47v-152h-47q-74 0 -139.5 28.5t-115.5 78t-79 116t-29 144.5z" />
<glyph unicode="m" horiz-adv-x="1613" d="M102 0v1038q0 78 28 145.5t75 118t109.5 79t131.5 28.5h91q68 0 133 -29.5t137 -101.5q72 72 136.5 101.5t133.5 29.5h90q70 0 132.5 -28.5t109.5 -79t74.5 -118t27.5 -145.5v-1038h-153v1038q0 41 -14.5 80t-40 70t-60.5 49t-76 18h-90q-43 0 -78.5 -18t-61.5 -49 t-40 -70t-14 -80v-1038h-152v1038q0 41 -14.5 80t-40 70t-61 49t-78.5 18h-91q-43 0 -77.5 -18t-59 -49t-39 -70t-14.5 -80l-2 -1038h-152z" />
<glyph unicode="n" d="M102 0v1038q0 74 28 141.5t76 118t114.5 81t144.5 30.5h96q76 0 142.5 -30.5t114.5 -81t76 -118t28 -141.5v-1038h-160v1038q0 37 -13.5 76t-39 69.5t-62.5 51t-86 20.5h-96q-49 0 -86 -20.5t-62.5 -51t-39 -69.5t-13.5 -76v-1038h-162z" />
<glyph unicode="o" d="M102 367v677q0 76 29 143.5t79 117t115.5 78t139.5 28.5h96q74 0 139.5 -28.5t114.5 -78t78 -117t29 -143.5v-677q0 -78 -29 -144.5t-78 -116t-114.5 -78t-139.5 -28.5h-96q-74 0 -139.5 28.5t-115.5 78t-79 116t-29 144.5zM264 367q0 -43 14.5 -81t41 -68t63.5 -47 t82 -17h96q43 0 80 17t63.5 47t42 68t15.5 81v677q0 41 -15.5 80t-42 69t-63.5 48.5t-80 18.5h-96q-45 0 -82 -18.5t-63.5 -48.5t-41 -69t-14.5 -80v-677z" />
<glyph unicode="p" d="M102 -508v1559q0 72 28 137t76 114.5t114.5 79t144.5 29.5h96q76 0 142.5 -29.5t114.5 -79t76 -115t28 -136.5v-684q0 -74 -28 -140.5t-76 -117t-114.5 -80t-142.5 -29.5h-96q-33 0 -75 10t-128 43v-561h-160zM264 367q0 -37 13.5 -76t38 -71t62.5 -51t87 -19h96 q47 0 85 19t63.5 50t39 70t13.5 78v684q0 35 -13.5 72.5t-39 68.5t-63.5 50.5t-85 19.5h-96q-49 0 -87 -20.5t-62.5 -51.5t-38 -68t-13.5 -71v-684z" />
<glyph unicode="q" d="M102 367v684q0 72 28 137t76 114.5t114.5 79t144.5 29.5h96q76 0 142.5 -29.5t114.5 -79t76 -115t28 -136.5v-1559h-160v561q-86 -33 -128 -43t-73 -10h-96q-78 0 -144.5 29.5t-114.5 80t-76 117t-28 140.5zM264 367q0 -37 13.5 -76t38 -71t62.5 -51t87 -19h96 q47 0 85 19t63.5 50t39 70t13.5 78v684q0 35 -13.5 72.5t-39 68.5t-63.5 50.5t-85 19.5h-96q-49 0 -87 -20.5t-62.5 -51.5t-38 -68t-13.5 -71v-684z" />
<glyph unicode="r" horiz-adv-x="827" d="M102 -2v1042q0 74 29 141.5t78 118t116.5 81t145.5 30.5h336v-154h-336q-49 0 -86 -19t-62.5 -50t-39 -69t-13.5 -75v-1046h-168z" />
<glyph unicode="s" horiz-adv-x="985" d="M82 1026q0 76 25.5 146.5t73.5 123t114.5 84t148.5 31.5h97q72 0 133 -25.5t109 -70.5t79 -103.5t39 -126.5h-164q-6 31 -22.5 62t-41 55.5t-57 39.5t-75.5 15h-97q-59 0 -97 -23.5t-61.5 -59t-32.5 -77.5t-9 -77t12 -75t36.5 -72.5t62.5 -54t89 -21.5h97q82 0 149.5 -32 t114.5 -85t72.5 -124t25.5 -148q0 -84 -23.5 -158t-69.5 -130.5t-113.5 -89t-155.5 -32.5h-97q-72 0 -134 25.5t-109 69.5t-78 102.5t-39 126.5h164q6 -31 22.5 -62t41 -55.5t57 -39.5t75.5 -15h97q66 0 104.5 28.5t60 68.5t28.5 85t7 78q0 84 -25.5 131t-67.5 70.5 t-95 29.5t-109 6q-82 0 -148.5 31t-114.5 82t-73.5 119.5t-25.5 146.5z" />
<glyph unicode="t" horiz-adv-x="710" d="M104 367v1546h162v-529h416v-147h-416v-870q0 -41 14.5 -80t41 -69t63.5 -48t82 -18h47v-152h-47q-74 0 -139.5 28.5t-115.5 78t-79 116t-29 144.5z" />
<glyph unicode="u" d="M102 365v1046h162v-1046q0 -41 14.5 -80t41 -69t63.5 -48t82 -18h96q43 0 80 18t63.5 48t42 69t15.5 80v1046h160v-1046q0 -78 -29 -144.5t-78 -116t-114.5 -78t-139.5 -28.5h-96q-74 0 -139.5 28.5t-115.5 78t-79 116t-29 144.5z" />
<glyph unicode="v" horiz-adv-x="1026" d="M102 365v1044h162v-1044q0 -37 13.5 -75t38 -69t62.5 -51t87 -20h297v1259h162v-1411h-459q-78 0 -144.5 29.5t-114.5 81t-76 117t-28 139.5z" />
<glyph unicode="w" horiz-adv-x="1613" d="M102 365v1044h156l-2 -1042q0 -41 14.5 -80t39 -70t59 -49t77.5 -18h91q43 0 78.5 18t61 48t40 69t14.5 80v1044h152v-1044q0 -41 14 -80t40 -69t61.5 -48t78.5 -18h90q41 0 76 18t60.5 48t40 69t14.5 80v1044h153v-1044q0 -78 -27.5 -144.5t-74.5 -116t-109.5 -78 t-132.5 -28.5h-90q-70 0 -134 29.5t-136 107.5q-72 -78 -137.5 -107.5t-132.5 -29.5h-91q-70 0 -132 28.5t-109 78t-75 116t-28 144.5z" />
<glyph unicode="x" horiz-adv-x="1026" d="M102 0v428q0 76 33 146.5t105 146.5q-72 76 -105 146.5t-33 144.5v399h162v-399q0 -41 14.5 -80t41 -68.5t63.5 -48t82 -18.5h98q43 0 80 18.5t63.5 48t42 68.5t15.5 80v399h160v-399q0 -76 -32 -145.5t-104 -145.5q72 -76 104 -146.5t32 -146.5v-430h-160v430 q0 41 -15.5 81t-42 70.5t-63.5 49t-80 18.5h-98q-45 0 -82 -18.5t-63.5 -49t-41 -70.5t-14.5 -81v-428h-162z" />
<glyph unicode="y" d="M102 358v1051h162v-1051q0 -35 13.5 -71.5t38 -67.5t62.5 -51.5t87 -20.5h96q47 0 85 19.5t63.5 50.5t39 69t13.5 72v1051h160v-1559q0 -72 -28 -136t-76 -113.5t-114.5 -79t-142.5 -29.5h-199v148h199q47 0 85 19t63.5 50t39 69t13.5 72v201q-84 -33 -126 -42t-75 -9 h-96q-78 0 -144.5 29.5t-114.5 79t-76 114t-28 135.5z" />
<glyph unicode="z" horiz-adv-x="964" d="M72 369v61q0 74 27.5 141.5t75.5 117.5t114.5 81t144.5 31h96q55 0 94.5 22.5t63 56t33.5 74.5t10 76q0 37 -12 77t-37 73.5t-62.5 55t-89.5 21.5h-458v154h458q80 0 146.5 -30.5t115 -84t75 -123t26.5 -145.5v-14q0 -72 -27.5 -138.5t-77 -116.5t-116 -80t-142.5 -30 h-96q-49 0 -87 -21.5t-62.5 -53t-38 -70.5t-13.5 -74v-61q0 -37 13.5 -76t38 -71t62.5 -51t87 -19h459v-154h-459q-78 0 -144.5 29.5t-114.5 81t-75.5 119t-27.5 141.5z" />
<glyph unicode="{" horiz-adv-x="421" d="M2 707v88h141v729q0 72 29 136t80 113.5t122.5 79t155.5 29.5v-145q-53 0 -92 -19.5t-66.5 -50.5t-41 -68.5t-13.5 -74.5v-1645q0 -37 13.5 -73.5t41 -67.5t66.5 -50.5t92 -19.5v-147q-86 0 -156.5 29.5t-121.5 78.5t-80 113.5t-29 136.5v828h-141zM530 -479h2h15 l-17 -17v17z" />
<glyph unicode="|" horiz-adv-x="403" d="M117 -229v1874h176v-1874h-176z" />
<glyph unicode="}" horiz-adv-x="415" d="M-113 -332q51 0 91 19.5t68 50.5t42 67.5t14 73.5v1645q0 37 -14 74.5t-41 68.5t-66.5 50.5t-91.5 19.5l-2 145q84 0 155 -29.5t123 -79t80.5 -114t28.5 -135.5v-729h142v-88h-142v-828q0 -72 -28.5 -136.5t-79.5 -113.5t-122 -78.5t-155 -29.5z" />
<glyph unicode="~" d="M104 1565v174h816v-174h-816z" />
<glyph unicode="&#xa1;" horiz-adv-x="364" d="M102 -211v1030h160v-1030h-160zM102 1110v90h160v-90h-160z" />
<glyph unicode="&#xa2;" horiz-adv-x="847" d="M72 604v209q0 125 79.5 223.5t223.5 145.5v235h100v-233h301v-156h-336q-45 0 -81.5 -18.5t-63.5 -48t-41 -68.5t-14 -80v-209q0 -43 14 -82t41 -68.5t63.5 -48t81.5 -18.5h336v-156h-301v-231h-100v242q-143 41 -223 137t-80 225z" />
<glyph unicode="&#xa3;" horiz-adv-x="1030" d="M20 678v90h130v272q0 78 28.5 145.5t77.5 118t113.5 79t136.5 28.5h98q72 0 136.5 -28.5t112.5 -79t76.5 -118t28.5 -145.5v-143h-157v143q0 43 -15.5 83t-41 70t-61.5 47t-79 17h-98q-43 0 -80 -17t-62.5 -47t-41 -70t-15.5 -83v-272h129v-90h-129v-524h651v-154h-808 v678h-130z" />
<glyph unicode="&#xa4;" horiz-adv-x="911" d="M20 487v93h125v290h-125v88h125v86q0 76 29 143.5t79 117t115.5 78t139.5 28.5h330v-151h-330q-43 0 -80 -18.5t-62.5 -48.5t-41 -69t-15.5 -80v-86h260v-88h-260v-290h260v-93h-260v-120q0 -43 15.5 -81t42 -68t62.5 -47t79 -17h332v-154h-332q-74 0 -139.5 28.5 t-115.5 78t-79 116t-29 144.5v120h-125z" />
<glyph unicode="&#xa5;" horiz-adv-x="966" d="M72 1014v397h161v-397q0 -41 15.5 -80t42 -68.5t63.5 -47t80 -17.5h98q43 0 80 17.5t63.5 47t42 68.5t15.5 80v397h162v-397q0 -66 -23.5 -126.5t-66.5 -109.5t-104.5 -84t-137.5 -51v-281h133v-88h-133v-276h-160v276h-133v88h133v281q-78 16 -139 51t-104 84 t-65.5 109.5t-22.5 126.5z" />
<glyph unicode="&#xa6;" horiz-adv-x="372" d="M98 -229v786h176v-786h-176zM98 836v809h176v-809h-176z" />
<glyph unicode="&#xa7;" horiz-adv-x="954" d="M72 547q0 59 17 115.5t67 123.5q-49 74 -66.5 131.5t-17.5 116.5q0 76 25.5 145.5t73.5 121t114.5 82t148.5 30.5h96q72 0 133.5 -25.5t109.5 -68.5t79 -101.5t39 -125.5h-164q-6 31 -22.5 61.5t-41 55t-57.5 40t-76 15.5h-96q-57 0 -96 -23.5t-61.5 -59.5t-33 -77 t-10.5 -76t12.5 -74t37 -70.5t62.5 -53t89 -21.5h96q82 0 150 -30.5t115 -83t72.5 -122t25.5 -145.5q0 -70 -12.5 -125t-59.5 -131q43 -72 57.5 -126t14.5 -112v-43q0 -72 -27.5 -137t-77 -114.5t-116 -79t-142.5 -29.5h-96q-72 0 -133 25.5t-109.5 68.5t-79 101.5 t-38.5 123.5h164q6 -31 22 -61.5t41 -55t57.5 -40t75.5 -15.5h96q49 0 86 20.5t63 51.5t39 69t13 72v46q0 33 -10 72.5t-33.5 75.5t-62.5 59.5t-95 23.5h-96q-82 0 -148.5 29.5t-114.5 82t-73.5 121t-25.5 146.5zM233 541q0 -37 12.5 -77t37 -73t62.5 -54.5t89 -21.5h62.5 t56.5 -2q27 -2 56.5 -8t97.5 -29q16 49 20 71t4 36v66q0 35 -13 72.5t-39 68.5t-62.5 51.5t-86.5 20.5q-33 0 -59.5 -1.5t-54.5 1.5q-23 2 -51.5 8t-85.5 24q-35 -59 -40.5 -92t-5.5 -61z" />
<glyph unicode="&#xa8;" d="M102 1565v174h162v-174h-162zM760 1565v174h162v-174h-162z" />
<glyph unicode="&#xa9;" horiz-adv-x="1175" d="M94 592v233q0 74 26.5 140.5t74 119t111 83t136.5 30.5h291q74 0 137.5 -30.5t110.5 -83t73.5 -119t26.5 -140.5v-233q0 -74 -26.5 -141.5t-73.5 -118.5t-110.5 -82t-137.5 -31h-291q-74 0 -137 31t-110.5 82t-74 118.5t-26.5 141.5zM195 592q0 -49 17 -98.5t49 -88 t78 -62.5t103 -24h291q57 0 103.5 24t78 62.5t49 88t17.5 98.5v233q0 49 -17.5 98.5t-49 87.5t-77.5 62.5t-104 24.5h-291q-57 0 -103 -24.5t-78 -62.5t-49 -87.5t-17 -98.5v-233zM430 596v227q0 47 31 82t78 35h139v-72h-98q-39 0 -54.5 -26.5t-15.5 -46.5v-162 q0 -23 15.5 -48.5t54.5 -25.5h98v-80h-139q-47 0 -78 35t-31 82z" />
<glyph unicode="&#xaa;" horiz-adv-x="589" d="M70 885v28q0 41 15 77t42 61.5t61.5 41t73.5 15.5h144v111q0 39 -26 70.5t-69 31.5h-176v92h176q39 0 74 -15.5t61.5 -41t42 -61t15.5 -76.5v-334q0 -41 -15.5 -77t-42 -61.5t-61.5 -41t-74 -15.5h-49q-39 0 -73.5 15.5t-61.5 41t-42 61.5t-15 77zM168 885 q0 -39 26.5 -69t67.5 -30h49q41 0 68 30t27 69v129h-144q-43 0 -68.5 -31t-25.5 -70v-28z" />
<glyph unicode="&#xab;" horiz-adv-x="978" d="M41 639v184l362 191v-146l-256 -137l256 -137v-145zM575 639v184l363 191v-146l-258 -137l258 -137v-145z" />
<glyph unicode="&#xac;" horiz-adv-x="1171" d="M61 471v133h1049v-430h-121v297h-928z" />
<glyph unicode="&#xad;" horiz-adv-x="870" d="M86 438v174h698v-174h-698z" />
<glyph unicode="&#xae;" horiz-adv-x="1175" d="M94 592v233q0 74 26.5 140.5t74 119t111 83t136.5 30.5h291q74 0 137.5 -30.5t110.5 -83t73.5 -119t26.5 -140.5v-233q0 -74 -26.5 -141.5t-73.5 -118.5t-110.5 -82t-137.5 -31h-291q-74 0 -137 31t-110.5 82t-74 118.5t-26.5 141.5zM195 592q0 -49 17 -98.5t49 -88 t78 -62.5t103 -24h291q57 0 103.5 24t78 62.5t49 88t17.5 98.5v233q0 49 -17.5 98.5t-49 87.5t-77.5 62.5t-104 24.5h-291q-57 0 -103 -24.5t-78 -62.5t-49 -87.5t-17 -98.5v-233zM434 369v675h197q74 0 118 -52t44 -130q0 -33 -13.5 -65.5t-50.5 -81.5q37 -47 50.5 -80 t13.5 -60v-206h-76v206q0 14 -6 33t-18.5 35t-33 28.5t-47.5 12.5h-96v-315h-82zM518 774h115q47 0 63.5 34t16.5 64q0 23 -18.5 52.5t-61.5 29.5h-115v-180z" />
<glyph unicode="&#xaf;" d="M104 1565v174h816v-174h-816z" />
<glyph unicode="&#xb0;" horiz-adv-x="593" d="M82 881v338q0 39 15.5 73.5t41 61t60 41t73.5 14.5h50q39 0 73.5 -14.5t60 -41t41 -61.5t15.5 -73v-338q0 -41 -15.5 -75t-41 -60.5t-60.5 -41t-73 -14.5h-50q-39 0 -73.5 14.5t-60 41t-41 60.5t-15.5 75zM180 881q0 -35 25.5 -68t66.5 -33h50q43 0 68.5 33t25.5 68v338 q0 37 -27 66.5t-67 29.5h-50q-41 0 -66.5 -30t-25.5 -66v-338z" />
<glyph unicode="&#xb1;" horiz-adv-x="843" d="M72 10v94h700v-94h-700zM72 684v92h299v287h102v-287h299v-92h-299v-287h-102v287h-299z" />
<glyph unicode="&#xb2;" horiz-adv-x="552" d="M61 694v228q0 39 15.5 72.5t42 58t61.5 39t72 14.5h49q41 0 66.5 31.5t25.5 66.5v15q0 39 -25.5 68.5t-66.5 29.5h-49q-37 0 -61.5 -24.5t-28.5 -59.5h-101q6 76 61.5 127t129.5 51h49q39 0 73 -14.5t60.5 -41t42 -61t15.5 -75.5v-17q0 -39 -15.5 -73.5t-42 -60.5 t-60.5 -40t-73 -14h-49q-41 0 -66.5 -31t-25.5 -70v-129h329v-90h-428z" />
<glyph unicode="&#xb3;" horiz-adv-x="552" d="M61 887v8h99v-8q0 -35 25.5 -67t66.5 -32h49q41 0 66.5 32t25.5 67v31q0 39 -25.5 69.5t-66.5 30.5h-16v92h16q41 0 66.5 32t25.5 66v13q0 39 -25.5 68.5t-66.5 29.5h-49q-37 0 -61.5 -24.5t-28.5 -59.5h-101q6 76 61.5 127t129.5 51h49q39 0 73 -14.5t60.5 -41t42 -61 t15.5 -75.5v-13q0 -35 -15.5 -68.5t-52.5 -76.5q37 -41 52.5 -76t15.5 -69v-31q0 -41 -15.5 -75t-42 -59.5t-60.5 -40t-73 -14.5h-49q-39 0 -74 14.5t-60.5 40t-41 59.5t-15.5 75z" />
<glyph unicode="&#xb4;" horiz-adv-x="430" d="M82 1477l186 348h109l-187 -348h-108z" />
<glyph unicode="&#xb5;" d="M-78 -358q57 0 96 24.5t61.5 61t32 78.5t9.5 77v1530h158v-1055q0 -35 13 -71.5t38.5 -67.5t62.5 -50t84 -19h90q47 0 84 19t62.5 50t39 68t13.5 71v1055h156v-1055q0 -72 -27 -136t-75 -113.5t-112.5 -79t-140.5 -29.5h-90q-35 0 -76 9t-122 42v-217q0 -68 -28 -129 t-76 -109.5t-112.5 -76t-138.5 -27.5z" />
<glyph unicode="&#xb6;" horiz-adv-x="1171" d="M72 659v752h643q74 0 138.5 -28.5t112.5 -78t75.5 -116t27.5 -141.5v-1287h-156v895h-364v-895h-92v899h-385zM164 805h293v461h-293v-461zM549 805h364v242q0 41 -14 79.5t-41 68.5t-63.5 48.5t-79.5 18.5h-166v-457z" />
<glyph unicode="&#xb7;" horiz-adv-x="438" d="M102 696v234h234v-234h-234z" />
<glyph unicode="&#xb8;" horiz-adv-x="364" d="M102 205h160v-713h-160v713z" />
<glyph unicode="&#xb9;" horiz-adv-x="360" d="M111 690v719h139v-719h-139z" />
<glyph unicode="&#xba;" horiz-adv-x="618" d="M92 881v338q0 39 15.5 73.5t41 61t60.5 41t74 14.5h49q39 0 72.5 -14.5t60.5 -41t42 -61.5t15 -73v-338q0 -41 -15 -75t-42 -60.5t-60.5 -41t-72.5 -14.5h-49q-39 0 -74 14.5t-60.5 41t-41 60.5t-15.5 75zM190 881q0 -35 26 -68t67 -33h49q41 0 66.5 33t25.5 68v338 q0 37 -25.5 66.5t-66.5 29.5h-49q-41 0 -67 -30t-26 -66v-338z" />
<glyph unicode="&#xbb;" horiz-adv-x="978" d="M41 459v116l285 156l-285 156v117l344 -185v-176zM594 459v116l283 156l-283 156v117l344 -185v-176z" />
<glyph unicode="&#xbc;" horiz-adv-x="1075" d="M74 723v686h84v-686h-84zM102 0l471 1411h117l-469 -1411h-119zM608 489v193h88v-193q0 -39 23.5 -68.5t64.5 -29.5h129v291h88v-684h-88v307h-129q-72 0 -124 53.5t-52 130.5z" />
<glyph unicode="&#xbd;" horiz-adv-x="1075" d="M92 721v688h84v-688h-84zM121 0l471 1411h121l-471 -1411h-121zM588 0v219q0 74 52 123t124 49h43q41 0 63.5 30t22.5 66v15q0 35 -22.5 64.5t-63.5 29.5h-43q-37 0 -59.5 -23.5t-26.5 -56.5h-88q4 72 55 119t119 47h43q37 0 68.5 -14.5t55 -39t38 -57t14.5 -69.5v-17 q0 -37 -14.5 -70.5t-38 -58t-55 -39t-68.5 -14.5h-43q-39 0 -62.5 -28.5t-23.5 -63.5v-125h303v-86h-393z" />
<glyph unicode="&#xbe;" horiz-adv-x="1249" d="M66 909v9h88v-9q0 -35 22.5 -63.5t63.5 -28.5h43q37 0 60.5 28.5t23.5 63.5v29q0 35 -21.5 66.5t-62.5 31.5h-13v86h13q41 0 62.5 31t21.5 64v14q0 35 -22.5 64.5t-61.5 29.5h-43q-37 0 -58.5 -24.5t-25.5 -57.5h-90q2 37 17 67.5t38.5 53t53.5 36t65 13.5h43 q70 0 120 -52t50 -130v-14q0 -33 -11.5 -65t-46.5 -73q35 -41 46.5 -73.5t11.5 -67.5v-29q0 -76 -51.5 -127t-118.5 -51h-43q-72 0 -123 51.5t-51 126.5zM299 0l463 1411h117l-463 -1411h-117zM793 489v193h90v-193q0 -35 21.5 -66.5t62.5 -31.5h127v291h90v-684h-90v307 h-127q-35 0 -67 14.5t-55.5 39t-37.5 58.5t-14 72z" />
<glyph unicode="&#xbf;" horiz-adv-x="1005" d="M102 358v39q0 127 84 230.5t248 138.5l-2 270h162v-424q-18 2 -37.5 2h-36.5q-29 -2 -60.5 -4t-60.5 -12q-66 -25 -100.5 -79t-34.5 -152q0 -37 13.5 -75t38 -68.5t62.5 -50t87 -19.5h96q51 0 87 19.5t58.5 48t35 64.5t16.5 68h164q-4 -72 -33 -136t-77 -112.5 t-112.5 -77t-138.5 -28.5h-96q-78 0 -144.5 29.5t-114.5 79t-76 114t-28 135.5zM434 1321v90h158v-90h-158z" />
<glyph unicode="&#xc0;" d="M102 0v1044q0 76 29 143.5t79 117t115.5 78t139.5 28.5h96q74 0 139.5 -28.5t114.5 -78t78 -117t29 -143.5v-1044h-160v649h-498v-649h-162zM264 799h498v245q0 41 -15.5 80t-42 69t-63.5 48.5t-80 18.5h-96q-45 0 -82 -18.5t-63.5 -48.5t-41 -69t-14.5 -80v-245z M324 1917h108l187 -348h-109z" />
<glyph unicode="&#xc1;" d="M102 0v1044q0 76 29 143.5t79 117t115.5 78t139.5 28.5h96q74 0 139.5 -28.5t114.5 -78t78 -117t29 -143.5v-1044h-160v649h-498v-649h-162zM264 799h498v245q0 41 -15.5 80t-42 69t-63.5 48.5t-80 18.5h-96q-45 0 -82 -18.5t-63.5 -48.5t-41 -69t-14.5 -80v-245z M393 1569l186 348h109l-187 -348h-108z" />
<glyph unicode="&#xc2;" d="M102 0v1044q0 76 29 143.5t79 117t115.5 78t139.5 28.5h96q74 0 139.5 -28.5t114.5 -78t78 -117t29 -143.5v-1044h-160v649h-498v-649h-162zM264 799h498v245q0 41 -15.5 80t-42 69t-63.5 48.5t-80 18.5h-96q-45 0 -82 -18.5t-63.5 -48.5t-41 -69t-14.5 -80v-245z M278 1575l160 348h151l160 -348h-92l-143 303l-142 -303h-94z" />
<glyph unicode="&#xc3;" d="M102 0v1044q0 76 29 143.5t79 117t115.5 78t139.5 28.5h96q74 0 139.5 -28.5t114.5 -78t78 -117t29 -143.5v-1044h-160v649h-498v-649h-162zM104 1651v88h816v-88h-816zM264 799h498v245q0 41 -15.5 80t-42 69t-63.5 48.5t-80 18.5h-96q-45 0 -82 -18.5t-63.5 -48.5 t-41 -69t-14.5 -80v-245z" />
<glyph unicode="&#xc4;" d="M102 0v1044q0 76 29 143.5t79 117t115.5 78t139.5 28.5h96q74 0 139.5 -28.5t114.5 -78t78 -117t29 -143.5v-1044h-160v649h-498v-649h-162zM102 1651v88h162v-88h-162zM264 799h498v245q0 41 -15.5 80t-42 69t-63.5 48.5t-80 18.5h-96q-45 0 -82 -18.5t-63.5 -48.5 t-41 -69t-14.5 -80v-245zM762 1651v88h160v-88h-160z" />
<glyph unicode="&#xc5;" d="M102 0v1044q0 76 29 143.5t79 117t115.5 78t139.5 28.5h96q74 0 139.5 -28.5t114.5 -78t78 -117t29 -143.5v-1044h-160v649h-498v-649h-162zM264 799h498v245q0 41 -15.5 80t-42 69t-63.5 48.5t-80 18.5h-96q-45 0 -82 -18.5t-63.5 -48.5t-41 -69t-14.5 -80v-245z M334 1651q0 72 51 123t123 51t123 -51.5t51 -122.5q0 -74 -51 -125t-123 -51t-123 51t-51 125zM367 1651q0 -59 41 -99.5t100 -40.5t100 40t41 100q0 59 -41 98t-100 39t-100 -39t-41 -98z" />
<glyph unicode="&#xc6;" horiz-adv-x="1466" d="M102 0v1044q0 76 28 143.5t76 117t111.5 78t135.5 28.5h90q66 0 130 -29.5t140 -101.5q72 72 136.5 101.5t133.5 29.5h312v-151h-312q-43 0 -78.5 -17.5t-62.5 -47.5t-42 -69t-15 -82v-245h387v-150h-387v-282q0 -43 15 -81t42 -68t62.5 -47t78.5 -17h312v-154h-312 q-72 0 -136 28.5t-111.5 78t-75 116t-27.5 144.5v282h-477v-649h-154zM256 799h477v245q0 41 -14 80t-40 69t-60.5 48.5t-75.5 18.5h-90q-45 0 -81 -18.5t-61.5 -48.5t-40 -69t-14.5 -80v-245z" />
<glyph unicode="&#xc7;" horiz-adv-x="878" d="M102 365v682q0 76 30 142t80 115.5t116.5 78t142.5 28.5h336v-149h-336q-45 0 -82 -18.5t-63.5 -48.5t-41 -69t-14.5 -79v-682q0 -41 14.5 -80t41 -68t63.5 -46t82 -17h336v-406h-162v252h-174q-76 0 -142.5 28.5t-116.5 78t-80 116t-30 142.5z" />
<glyph unicode="&#xc8;" horiz-adv-x="878" d="M102 367v677q0 76 30 143.5t80 117t116.5 78t142.5 28.5h336v-151h-336q-45 0 -82 -18.5t-63.5 -48.5t-41 -69t-14.5 -80v-245h402v-150h-402v-282q0 -43 14.5 -81t41 -68t63.5 -47t82 -17h336v-154h-336q-76 0 -142.5 28.5t-116.5 78t-80 116t-30 144.5zM324 1923h108 l187 -348h-109z" />
<glyph unicode="&#xc9;" horiz-adv-x="878" d="M102 367v677q0 76 30 143.5t80 117t116.5 78t142.5 28.5h336v-151h-336q-45 0 -82 -18.5t-63.5 -48.5t-41 -69t-14.5 -80v-245h402v-150h-402v-282q0 -43 14.5 -81t41 -68t63.5 -47t82 -17h336v-154h-336q-76 0 -142.5 28.5t-116.5 78t-80 116t-30 144.5zM408 1575 l186 348h109l-187 -348h-108z" />
<glyph unicode="&#xca;" horiz-adv-x="878" d="M102 367v677q0 76 30 143.5t80 117t116.5 78t142.5 28.5h336v-151h-336q-45 0 -82 -18.5t-63.5 -48.5t-41 -69t-14.5 -80v-245h402v-150h-402v-282q0 -43 14.5 -81t41 -68t63.5 -47t82 -17h336v-154h-336q-76 0 -142.5 28.5t-116.5 78t-80 116t-30 144.5zM299 1647 l150 270h139l151 -270h-84l-137 241l-133 -241h-86z" />
<glyph unicode="&#xcb;" horiz-adv-x="884" d="M102 367v677q0 76 30 143.5t80 117t116.5 78t142.5 28.5h336v-151h-336q-45 0 -82 -18.5t-63.5 -48.5t-41 -69t-14.5 -80v-245h402v-150h-402v-282q0 -43 14.5 -81t41 -68t63.5 -47t82 -17h336v-154h-336q-76 0 -142.5 28.5t-116.5 78t-80 116t-30 144.5zM102 1651v88 h164v-88h-164zM649 1651v88h164v-88h-164z" />
<glyph unicode="&#xcc;" horiz-adv-x="436" d="M61 1845h103l180 -270h-102zM143 0v1409h170v-1409h-170z" />
<glyph unicode="&#xcd;" horiz-adv-x="436" d="M98 1579l174 270h105l-176 -270h-103zM104 0v1411h170v-1411h-170z" />
<glyph unicode="&#xce;" horiz-adv-x="436" d="M-14 1554l157 271h152l158 -271h-93l-141 242l-143 -242h-90zM129 0v1409h164v-1409h-164z" />
<glyph unicode="&#xcf;" horiz-adv-x="436" d="M-135 1651v88h164v-88h-164zM137 0v1409h160v-1409h-160zM410 1651v88h163v-88h-163z" />
<glyph unicode="&#xd0;" horiz-adv-x="1062" d="M20 678v90h130v643h454q72 0 136.5 -28.5t113.5 -79t78 -118t29 -145.5v-673q0 -78 -29 -144.5t-78 -116t-113.5 -78t-136.5 -28.5h-454v678h-130zM307 154h297q43 0 79 17t61.5 47t41 68t15.5 81v673q0 43 -15.5 83t-41 70t-61.5 47t-79 17h-297v-489h129v-90h-129v-524 z" />
<glyph unicode="&#xd1;" d="M102 0v1411h185l475 -854v854h160v-1411h-160v344l-492 813v-1157h-168zM104 1651v88h816v-88h-816z" />
<glyph unicode="&#xd2;" d="M102 367v677q0 76 29 143.5t79 117t115.5 78t139.5 28.5h96q74 0 139.5 -28.5t114.5 -78t78 -117t29 -143.5v-677q0 -78 -29 -144.5t-78 -116t-114.5 -78t-139.5 -28.5h-96q-74 0 -139.5 28.5t-115.5 78t-79 116t-29 144.5zM264 367q0 -43 14.5 -81t41 -68t63.5 -47 t82 -17h96q43 0 80 17t63.5 47t42 68t15.5 81v677q0 41 -15.5 80t-42 69t-63.5 48.5t-80 18.5h-96q-45 0 -82 -18.5t-63.5 -48.5t-41 -69t-14.5 -80v-677zM324 1905h108l187 -348h-109z" />
<glyph unicode="&#xd3;" d="M102 367v677q0 76 29 143.5t79 117t115.5 78t139.5 28.5h96q74 0 139.5 -28.5t114.5 -78t78 -117t29 -143.5v-677q0 -78 -29 -144.5t-78 -116t-114.5 -78t-139.5 -28.5h-96q-74 0 -139.5 28.5t-115.5 78t-79 116t-29 144.5zM264 367q0 -43 14.5 -81t41 -68t63.5 -47 t82 -17h96q43 0 80 17t63.5 47t42 68t15.5 81v677q0 41 -15.5 80t-42 69t-63.5 48.5t-80 18.5h-96q-45 0 -82 -18.5t-63.5 -48.5t-41 -69t-14.5 -80v-677zM420 1563l186 348h109l-187 -348h-108z" />
<glyph unicode="&#xd4;" d="M102 367v677q0 76 29 143.5t79 117t115.5 78t139.5 28.5h96q74 0 139.5 -28.5t114.5 -78t78 -117t29 -143.5v-677q0 -78 -29 -144.5t-78 -116t-114.5 -78t-139.5 -28.5h-96q-74 0 -139.5 28.5t-115.5 78t-79 116t-29 144.5zM264 367q0 -43 14.5 -81t41 -68t63.5 -47 t82 -17h96q43 0 80 17t63.5 47t42 68t15.5 81v677q0 41 -15.5 80t-42 69t-63.5 48.5t-80 18.5h-96q-45 0 -82 -18.5t-63.5 -48.5t-41 -69t-14.5 -80v-677zM293 1608l145 270h140l145 -270h-82l-133 241l-133 -241h-82z" />
<glyph unicode="&#xd5;" d="M102 367v677q0 76 29 143.5t79 117t115.5 78t139.5 28.5h96q74 0 139.5 -28.5t114.5 -78t78 -117t29 -143.5v-677q0 -78 -29 -144.5t-78 -116t-114.5 -78t-139.5 -28.5h-96q-74 0 -139.5 28.5t-115.5 78t-79 116t-29 144.5zM104 1651v88h816v-88h-816zM264 367 q0 -43 14.5 -81t41 -68t63.5 -47t82 -17h96q43 0 80 17t63.5 47t42 68t15.5 81v677q0 41 -15.5 80t-42 69t-63.5 48.5t-80 18.5h-96q-45 0 -82 -18.5t-63.5 -48.5t-41 -69t-14.5 -80v-677z" />
<glyph unicode="&#xd6;" d="M102 367v677q0 76 29 143.5t79 117t115.5 78t139.5 28.5h96q74 0 139.5 -28.5t114.5 -78t78 -117t29 -143.5v-677q0 -78 -29 -144.5t-78 -116t-114.5 -78t-139.5 -28.5h-96q-74 0 -139.5 28.5t-115.5 78t-79 116t-29 144.5zM102 1651v88h162v-88h-162zM264 367 q0 -43 14.5 -81t41 -68t63.5 -47t82 -17h96q43 0 80 17t63.5 47t42 68t15.5 81v677q0 41 -15.5 80t-42 69t-63.5 48.5t-80 18.5h-96q-45 0 -82 -18.5t-63.5 -48.5t-41 -69t-14.5 -80v-677zM762 1651v88h160v-88h-160z" />
<glyph unicode="&#xd7;" horiz-adv-x="798" d="M102 309l220 217l-220 215l74 74l217 -217l217 217l74 -74l-219 -215l219 -217l-74 -73l-217 217l-217 -217z" />
<glyph unicode="&#xd8;" d="M102 360v703q0 137 97.5 233.5t265.5 118.5v230h96v-230q82 -12 149.5 -44t113.5 -80t72 -109.5t26 -128.5v-693q0 -68 -26 -129t-72 -109t-113.5 -81t-149.5 -43v-227h-96v227q-84 10 -150.5 43t-113.5 81t-73 109.5t-26 128.5zM264 360q0 -35 12.5 -73.5t38 -72.5 t63.5 -55.5t87 -19.5v1135q-53 0 -91 -20.5t-62.5 -51.5t-36 -68.5t-11.5 -70.5v-703zM561 135q53 2 91 24.5t62.5 56.5t36 72t11.5 72v693q0 33 -12.5 70.5t-37 69.5t-62.5 53.5t-89 23.5v-1135z" />
<glyph unicode="&#xd9;" d="M102 369v1040h162v-1040q0 -41 14.5 -80t41 -70t63.5 -49t82 -18h94q45 0 82 18t63.5 49t41 70t14.5 80v1040h162v-1040q0 -78 -29 -145.5t-79 -118t-115.5 -79t-139.5 -28.5h-94q-74 0 -139.5 28.5t-115.5 79t-79 118t-29 145.5zM334 1919h108l187 -348h-109z" />
<glyph unicode="&#xda;" d="M102 369v1040h162v-1040q0 -41 14.5 -80t41 -70t63.5 -49t82 -18h94q45 0 82 18t63.5 49t41 70t14.5 80v1040h162v-1040q0 -78 -29 -145.5t-79 -118t-115.5 -79t-139.5 -28.5h-94q-74 0 -139.5 28.5t-115.5 79t-79 118t-29 145.5zM428 1563l186 348h109l-187 -348h-108z " />
<glyph unicode="&#xdb;" d="M102 369v1040h162v-1040q0 -41 14.5 -80t41 -70t63.5 -49t82 -18h94q45 0 82 18t63.5 49t41 70t14.5 80v1040h162v-1040q0 -78 -29 -145.5t-79 -118t-115.5 -79t-139.5 -28.5h-94q-74 0 -139.5 28.5t-115.5 79t-79 118t-29 145.5zM297 1595l145 271h140l145 -271h-82 l-133 242l-133 -242h-82z" />
<glyph unicode="&#xdc;" d="M102 369v1040h162v-1040q0 -41 14.5 -80t41 -70t63.5 -49t82 -18h94q45 0 82 18t63.5 49t41 70t14.5 80v1040h162v-1040q0 -78 -29 -145.5t-79 -118t-115.5 -79t-139.5 -28.5h-94q-74 0 -139.5 28.5t-115.5 79t-79 118t-29 145.5zM102 1651v88h162v-88h-162zM762 1651v88 h160v-88h-160z" />
<glyph unicode="&#xdd;" horiz-adv-x="1026" d="M72 1014v397h161v-397q0 -41 14.5 -80t41 -68.5t63.5 -47t82 -17.5h98q43 0 80 17.5t63.5 47t42 68.5t15.5 80v397h160v-397q0 -66 -23.5 -126.5t-66.5 -109.5t-104.5 -84t-137.5 -51v-643h-158v643q-78 16 -139 51t-104 84t-65.5 109.5t-22.5 126.5zM416 1526l186 348 h109l-187 -348h-108z" />
<glyph unicode="&#xde;" horiz-adv-x="1001" d="M102 0v1411h160v-227h307q74 0 139.5 -29t114.5 -79t78 -117.5t29 -145.5v-209q0 -78 -29 -145.5t-78 -118.5t-114.5 -80t-139.5 -29h-307v-231h-160zM262 387h307q43 0 80 18.5t63.5 48t42 68.5t15.5 82v209q0 43 -15.5 82t-42 68.5t-63.5 47t-80 17.5h-307v-641z" />
<glyph unicode="&#xdf;" horiz-adv-x="1318" d="M-70 -358q45 2 80 21.5t58.5 50t36 67.5t12.5 72v1200q0 74 25.5 139t71.5 113.5t109.5 77t139.5 28.5h86q68 0 126 -24.5t104 -65.5t76 -97.5t40 -119.5h-156q-16 59 -64 108.5t-126 49.5h-86q-45 0 -81 -18.5t-60.5 -48.5t-38 -65.5t-13.5 -70.5q-2 -39 -2 -75v-71v-41 q0 -4 4 -14t11.5 -21.5t16.5 -20.5t19 -9h328v-49q0 -37 14.5 -74t40 -64.5t62.5 -45t80 -17.5h88q80 0 143.5 -30.5t108.5 -83t69.5 -122t24.5 -147.5v-37q0 -74 -26.5 -139.5t-74 -116.5t-109.5 -80.5t-136 -29.5h-82q-72 0 -132.5 24.5t-106.5 68.5t-75.5 102.5 t-37.5 125.5h155q14 -63 60.5 -116.5t130.5 -53.5h88q45 0 81 19.5t60.5 50.5t37.5 69.5t13 75.5v41q0 35 -10 76t-32.5 74.5t-59.5 56.5t-90 23h-88q-111 0 -198 64.5t-136 186.5h-240v-786q0 -76 -24.5 -144.5t-68.5 -120.5t-107.5 -84t-139.5 -32v150z" />
<glyph unicode="&#xe0;" horiz-adv-x="983" d="M61 428q0 74 28 140.5t77 117.5t114.5 81t143.5 30h297v243q0 37 -13.5 76t-39 70t-62.5 51t-86 20h-332v154h332q76 0 142.5 -30.5t114.5 -81t76 -118t28 -141.5v-671q0 -74 -28 -141.5t-76 -118t-114.5 -81t-142.5 -30.5h-96q-92 0 -160.5 35t-114 93t-67 137 t-21.5 165zM223 369q0 -37 13.5 -76t39 -69.5t62.5 -51t86 -20.5h96q49 0 86 20.5t62.5 51t39 69.5t13.5 76v278h-297q-49 0 -86 -21.5t-62.5 -53t-39 -70.5t-13.5 -74v-59zM262 1919h108l187 -348h-109z" />
<glyph unicode="&#xe1;" horiz-adv-x="983" d="M61 428q0 74 28 140.5t77 117.5t114.5 81t143.5 30h297v243q0 37 -13.5 76t-39 70t-62.5 51t-86 20h-332v154h332q76 0 142.5 -30.5t114.5 -81t76 -118t28 -141.5v-671q0 -74 -28 -141.5t-76 -118t-114.5 -81t-142.5 -30.5h-96q-92 0 -160.5 35t-114 93t-67 137 t-21.5 165zM223 369q0 -37 13.5 -76t39 -69.5t62.5 -51t86 -20.5h96q49 0 86 20.5t62.5 51t39 69.5t13.5 76v278h-297q-49 0 -86 -21.5t-62.5 -53t-39 -70.5t-13.5 -74v-59zM318 1571l186 348h109l-187 -348h-108z" />
<glyph unicode="&#xe2;" horiz-adv-x="983" d="M61 428q0 74 28 140.5t77 117.5t114.5 81t143.5 30h297v243q0 37 -13.5 76t-39 70t-62.5 51t-86 20h-332v154h332q76 0 142.5 -30.5t114.5 -81t76 -118t28 -141.5v-671q0 -74 -28 -141.5t-76 -118t-114.5 -81t-142.5 -30.5h-96q-92 0 -160.5 35t-114 93t-67 137 t-21.5 165zM223 369q0 -37 13.5 -76t39 -69.5t62.5 -51t86 -20.5h96q49 0 86 20.5t62.5 51t39 69.5t13.5 76v278h-297q-49 0 -86 -21.5t-62.5 -53t-39 -70.5t-13.5 -74v-59zM256 1647l145 270h140l145 -270h-82l-133 241l-133 -241h-82z" />
<glyph unicode="&#xe3;" horiz-adv-x="983" d="M61 428q0 74 28 140.5t77 117.5t114.5 81t143.5 30h297v243q0 37 -13.5 76t-39 70t-62.5 51t-86 20h-332v154h332q76 0 142.5 -30.5t114.5 -81t76 -118t28 -141.5v-671q0 -74 -28 -141.5t-76 -118t-114.5 -81t-142.5 -30.5h-96q-92 0 -160.5 35t-114 93t-67 137 t-21.5 165zM63 1651v88h816v-88h-816zM223 369q0 -37 13.5 -76t39 -69.5t62.5 -51t86 -20.5h96q49 0 86 20.5t62.5 51t39 69.5t13.5 76v278h-297q-49 0 -86 -21.5t-62.5 -53t-39 -70.5t-13.5 -74v-59z" />
<glyph unicode="&#xe4;" horiz-adv-x="983" d="M61 428q0 74 28 140.5t77 117.5t114.5 81t143.5 30h297v243q0 37 -13.5 76t-39 70t-62.5 51t-86 20h-332v154h332q76 0 142.5 -30.5t114.5 -81t76 -118t28 -141.5v-671q0 -74 -28 -141.5t-76 -118t-114.5 -81t-142.5 -30.5h-96q-92 0 -160.5 35t-114 93t-67 137 t-21.5 165zM61 1651v88h162v-88h-162zM223 369q0 -37 13.5 -76t39 -69.5t62.5 -51t86 -20.5h96q49 0 86 20.5t62.5 51t39 69.5t13.5 76v278h-297q-49 0 -86 -21.5t-62.5 -53t-39 -70.5t-13.5 -74v-59zM721 1651v88h160v-88h-160z" />
<glyph unicode="&#xe5;" horiz-adv-x="983" d="M61 428q0 74 28 140.5t77 117.5t114.5 81t143.5 30h297v243q0 37 -13.5 76t-39 70t-62.5 51t-86 20h-332v154h332q76 0 142.5 -30.5t114.5 -81t76 -118t28 -141.5v-671q0 -74 -28 -141.5t-76 -118t-114.5 -81t-142.5 -30.5h-96q-92 0 -160.5 35t-114 93t-67 137 t-21.5 165zM223 369q0 -37 13.5 -76t39 -69.5t62.5 -51t86 -20.5h96q49 0 86 20.5t62.5 51t39 69.5t13.5 76v278h-297q-49 0 -86 -21.5t-62.5 -53t-39 -70.5t-13.5 -74v-59zM317 1651q0 72 51.5 123t123.5 51t123 -51.5t51 -122.5q0 -74 -51 -125t-123 -51t-123.5 51 t-51.5 125zM350 1651q0 -59 41 -99.5t101 -40.5q59 0 100 40t41 100q0 59 -41 98t-100 39t-100.5 -39t-41.5 -98z" />
<glyph unicode="&#xe6;" horiz-adv-x="1572" d="M61 367v63q0 74 27 141.5t73 117.5t108.5 80t136.5 30h284v245q0 37 -13 75t-38 69t-60.5 51.5t-82.5 20.5h-314v151h314q66 0 131 -29.5t139 -101.5q49 49 91 75.5t83 39t86 14.5t100 2q72 0 135.5 -29.5t109.5 -81t72.5 -117t26.5 -139.5v-395h-628v-282q0 -37 13 -75 t38 -68.5t60.5 -50t82.5 -19.5h90l220 -2v-152h-168l-174 2q-55 0 -111.5 30.5t-126.5 100.5q-49 -49 -91 -75.5t-84 -40t-86 -15.5t-99 -2q-74 0 -136.5 29.5t-108.5 81t-73 117t-27 139.5zM215 367q0 -37 12.5 -75t36 -68.5t59 -50t83.5 -19.5h90q47 0 82.5 19.5t60.5 50 t38 68.5t13 75v282h-284q-47 0 -83 -21.5t-59.5 -53t-36 -70.5t-12.5 -74v-63zM842 799h475v245q0 37 -12.5 75t-37 69t-60.5 51.5t-81 20.5h-90q-47 0 -82.5 -20.5t-60.5 -51.5t-38 -69t-13 -75v-245z" />
<glyph unicode="&#xe7;" horiz-adv-x="878" d="M102 365v682q0 76 30 142t80 115.5t116.5 78t142.5 28.5h336v-149h-336q-45 0 -82 -18.5t-63.5 -48.5t-41 -69t-14.5 -79v-682q0 -41 14.5 -80t41 -68t63.5 -46t82 -17h336v-406h-162v252h-174q-76 0 -142.5 28.5t-116.5 78t-80 116t-30 142.5z" />
<glyph unicode="&#xe8;" d="M102 369v671q0 74 28 141.5t76 118t114.5 81t144.5 30.5h96q76 0 142.5 -30.5t114.5 -81t76 -118t28 -141.5v-393h-658v-278q0 -80 30 -123t74 -64.5t96 -25.5t97 -4h232v-154h-123l-238 2q-70 0 -130 30.5t-104 82t-70 118t-26 138.5zM264 797h498v243q0 37 -13.5 76 t-39 70t-62.5 51t-86 20h-96q-49 0 -87 -20t-62.5 -51t-38 -70t-13.5 -76v-243zM275 1913h108l187 -348h-109z" />
<glyph unicode="&#xe9;" d="M102 369v671q0 74 28 141.5t76 118t114.5 81t144.5 30.5h96q76 0 142.5 -30.5t114.5 -81t76 -118t28 -141.5v-393h-658v-278q0 -80 30 -123t74 -64.5t96 -25.5t97 -4h232v-154h-123l-238 2q-70 0 -130 30.5t-104 82t-70 118t-26 138.5zM264 797h498v243q0 37 -13.5 76 t-39 70t-62.5 51t-86 20h-96q-49 0 -87 -20t-62.5 -51t-38 -70t-13.5 -76v-243zM447 1571l186 348h109l-187 -348h-108z" />
<glyph unicode="&#xea;" d="M102 369v671q0 74 28 141.5t76 118t114.5 81t144.5 30.5h96q76 0 142.5 -30.5t114.5 -81t76 -118t28 -141.5v-393h-658v-278q0 -80 30 -123t74 -64.5t96 -25.5t97 -4h232v-154h-123l-238 2q-70 0 -130 30.5t-104 82t-70 118t-26 138.5zM264 797h498v243q0 37 -13.5 76 t-39 70t-62.5 51t-86 20h-96q-49 0 -87 -20t-62.5 -51t-38 -70t-13.5 -76v-243zM272 1554l150 271h135l150 -271h-84l-131 242l-134 -242h-86z" />
<glyph unicode="&#xeb;" d="M102 369v671q0 74 28 141.5t76 118t114.5 81t144.5 30.5h96q76 0 142.5 -30.5t114.5 -81t76 -118t28 -141.5v-393h-658v-278q0 -80 30 -123t74 -64.5t96 -25.5t97 -4h232v-154h-123l-238 2q-70 0 -130 30.5t-104 82t-70 118t-26 138.5zM102 1651v88h162v-88h-162z M264 797h498v243q0 37 -13.5 76t-39 70t-62.5 51t-86 20h-96q-49 0 -87 -20t-62.5 -51t-38 -70t-13.5 -76v-243zM762 1651v88h160v-88h-160z" />
<glyph unicode="&#xec;" horiz-adv-x="538" d="M25 1907h90l164 -271h-93zM104 367v1046h162v-1046q0 -41 14.5 -80t41 -69t63.5 -48t82 -18h47v-152h-47q-74 0 -139.5 28.5t-115.5 78t-79 116t-29 144.5z" />
<glyph unicode="&#xed;" horiz-adv-x="538" d="M104 367v1046h162v-1046q0 -41 14.5 -80t41 -69t63.5 -48t82 -18h47v-152h-47q-74 0 -139.5 28.5t-115.5 78t-79 116t-29 144.5zM131 1616l168 270h96l-170 -270h-94z" />
<glyph unicode="&#xee;" horiz-adv-x="538" d="M-49 1638l158 271h145l158 -271h-90l-142 242l-137 -242h-92zM104 367v1046h162v-1046q0 -41 14.5 -80t41 -69t63.5 -48t82 -18h47v-152h-47q-74 0 -139.5 28.5t-115.5 78t-79 116t-29 144.5z" />
<glyph unicode="&#xef;" horiz-adv-x="538" d="M-242 1651v88h162v-88h-162zM104 367v1046h162v-1046q0 -41 14.5 -80t41 -69t63.5 -48t82 -18h47v-152h-47q-74 0 -139.5 28.5t-115.5 78t-79 116t-29 144.5zM416 1651v88h162v-88h-162z" />
<glyph unicode="&#xf0;" horiz-adv-x="1028" d="M102 356v688q0 74 28 139.5t76 117t114.5 81t144.5 29.5h96q29 0 72 -10t129 -43q0 51 1 85t1 56.5v36.5v31q-2 35 -17.5 72.5t-74.5 84.5l-86 -94h-84l119 133q-98 4 -154.5 4t-104.5 -2v150h199q35 0 71 -9.5t95 -31.5l55 63l84 -2l-88 -92q49 -31 78 -63.5t43 -69.5 t18.5 -77t4.5 -81v-1196q0 -72 -28 -137t-76 -114.5t-114.5 -79t-142.5 -29.5h-96q-78 0 -144.5 29.5t-114.5 79t-76 115t-28 136.5zM264 356q0 -35 13.5 -71.5t38 -67.5t62.5 -51.5t87 -20.5h96q47 0 85 19.5t63.5 50.5t39 69t13.5 72v688q0 37 -13.5 76t-39 70t-62.5 50.5 t-86 19.5h-96q-49 0 -87 -19.5t-62.5 -50.5t-38 -70t-13.5 -76v-688z" />
<glyph unicode="&#xf1;" d="M102 0v1038q0 74 28 141.5t76 118t114.5 81t144.5 30.5h96q76 0 142.5 -30.5t114.5 -81t76 -118t28 -141.5v-1038h-160v1038q0 37 -13.5 76t-39 69.5t-62.5 51t-86 20.5h-96q-49 0 -86 -20.5t-62.5 -51t-39 -69.5t-13.5 -76v-1038h-162zM104 1651v88h816v-88h-816z" />
<glyph unicode="&#xf2;" d="M102 367v677q0 76 29 143.5t79 117t115.5 78t139.5 28.5h96q74 0 139.5 -28.5t114.5 -78t78 -117t29 -143.5v-677q0 -78 -29 -144.5t-78 -116t-114.5 -78t-139.5 -28.5h-96q-74 0 -139.5 28.5t-115.5 78t-79 116t-29 144.5zM264 367q0 -43 14.5 -81t41 -68t63.5 -47 t82 -17h96q43 0 80 17t63.5 47t42 68t15.5 81v677q0 41 -15.5 80t-42 69t-63.5 48.5t-80 18.5h-96q-45 0 -82 -18.5t-63.5 -48.5t-41 -69t-14.5 -80v-677zM324 1905h108l186 -349h-108z" />
<glyph unicode="&#xf3;" d="M102 367v677q0 76 29 143.5t79 117t115.5 78t139.5 28.5h96q74 0 139.5 -28.5t114.5 -78t78 -117t29 -143.5v-677q0 -78 -29 -144.5t-78 -116t-114.5 -78t-139.5 -28.5h-96q-74 0 -139.5 28.5t-115.5 78t-79 116t-29 144.5zM264 367q0 -43 14.5 -81t41 -68t63.5 -47 t82 -17h96q43 0 80 17t63.5 47t42 68t15.5 81v677q0 41 -15.5 80t-42 69t-63.5 48.5t-80 18.5h-96q-45 0 -82 -18.5t-63.5 -48.5t-41 -69t-14.5 -80v-677zM420 1563l186 348h109l-187 -348h-108z" />
<glyph unicode="&#xf4;" d="M102 367v677q0 76 29 143.5t79 117t115.5 78t139.5 28.5h96q74 0 139.5 -28.5t114.5 -78t78 -117t29 -143.5v-677q0 -78 -29 -144.5t-78 -116t-114.5 -78t-139.5 -28.5h-96q-74 0 -139.5 28.5t-115.5 78t-79 116t-29 144.5zM264 367q0 -43 14.5 -81t41 -68t63.5 -47 t82 -17h96q43 0 80 17t63.5 47t42 68t15.5 81v677q0 41 -15.5 80t-42 69t-63.5 48.5t-80 18.5h-96q-45 0 -82 -18.5t-63.5 -48.5t-41 -69t-14.5 -80v-677zM293 1608l145 270h140l145 -270h-82l-133 241l-133 -241h-82z" />
<glyph unicode="&#xf5;" d="M102 367v677q0 76 29 143.5t79 117t115.5 78t139.5 28.5h96q74 0 139.5 -28.5t114.5 -78t78 -117t29 -143.5v-677q0 -78 -29 -144.5t-78 -116t-114.5 -78t-139.5 -28.5h-96q-74 0 -139.5 28.5t-115.5 78t-79 116t-29 144.5zM104 1651v88h816v-88h-816zM264 367 q0 -43 14.5 -81t41 -68t63.5 -47t82 -17h96q43 0 80 17t63.5 47t42 68t15.5 81v677q0 41 -15.5 80t-42 69t-63.5 48.5t-80 18.5h-96q-45 0 -82 -18.5t-63.5 -48.5t-41 -69t-14.5 -80v-677z" />
<glyph unicode="&#xf6;" d="M102 367v677q0 76 29 143.5t79 117t115.5 78t139.5 28.5h96q74 0 139.5 -28.5t114.5 -78t78 -117t29 -143.5v-677q0 -78 -29 -144.5t-78 -116t-114.5 -78t-139.5 -28.5h-96q-74 0 -139.5 28.5t-115.5 78t-79 116t-29 144.5zM102 1651v88h162v-88h-162zM264 367 q0 -43 14.5 -81t41 -68t63.5 -47t82 -17h96q43 0 80 17t63.5 47t42 68t15.5 81v677q0 41 -15.5 80t-42 69t-63.5 48.5t-80 18.5h-96q-45 0 -82 -18.5t-63.5 -48.5t-41 -69t-14.5 -80v-677zM762 1651v88h160v-88h-160z" />
<glyph unicode="&#xf7;" horiz-adv-x="870" d="M86 492v92h698v-92h-698zM362 41v158h168v-158h-168zM362 874v158h168v-158h-168z" />
<glyph unicode="&#xf8;" d="M102 360v703q0 137 97.5 233.5t265.5 118.5v230h96v-230q82 -12 149.5 -44t113.5 -80t72 -109.5t26 -128.5v-693q0 -68 -26 -129t-72 -109t-113.5 -81t-149.5 -43v-227h-96v227q-84 10 -150.5 43t-113.5 81t-73 109.5t-26 128.5zM264 360q0 -35 12.5 -73.5t38 -72.5 t63.5 -55.5t87 -19.5v1135q-53 0 -91 -20.5t-62.5 -51.5t-36 -68.5t-11.5 -70.5v-703zM561 135q53 2 91 24.5t62.5 56.5t36 72t11.5 72v693q0 33 -12.5 70.5t-37 69.5t-62.5 53.5t-89 23.5v-1135z" />
<glyph unicode="&#xf9;" d="M102 369v1040h162v-1040q0 -41 14.5 -80t41 -70t63.5 -49t82 -18h94q45 0 82 18t63.5 49t41 70t14.5 80v1040h162v-1040q0 -78 -29 -145.5t-79 -118t-115.5 -79t-139.5 -28.5h-94q-74 0 -139.5 28.5t-115.5 79t-79 118t-29 145.5zM334 1919h108l187 -348h-109z" />
<glyph unicode="&#xfa;" d="M102 369v1040h162v-1040q0 -41 14.5 -80t41 -70t63.5 -49t82 -18h94q45 0 82 18t63.5 49t41 70t14.5 80v1040h162v-1040q0 -78 -29 -145.5t-79 -118t-115.5 -79t-139.5 -28.5h-94q-74 0 -139.5 28.5t-115.5 79t-79 118t-29 145.5zM428 1563l186 348h109l-186 -348h-109z " />
<glyph unicode="&#xfb;" d="M102 369v1040h162v-1040q0 -41 14.5 -80t41 -70t63.5 -49t82 -18h94q45 0 82 18t63.5 49t41 70t14.5 80v1040h162v-1040q0 -78 -29 -145.5t-79 -118t-115.5 -79t-139.5 -28.5h-94q-74 0 -139.5 28.5t-115.5 79t-79 118t-29 145.5zM297 1595l145 271h140l145 -271h-82 l-133 242l-133 -242h-82z" />
<glyph unicode="&#xfc;" d="M102 369v1040h162v-1040q0 -41 14.5 -80t41 -70t63.5 -49t82 -18h94q45 0 82 18t63.5 49t41 70t14.5 80v1040h162v-1040q0 -78 -29 -145.5t-79 -118t-115.5 -79t-139.5 -28.5h-94q-74 0 -139.5 28.5t-115.5 79t-79 118t-29 145.5zM102 1651v88h162v-88h-162zM762 1651v88 h160v-88h-160z" />
<glyph unicode="&#xfd;" d="M102 358v1051h162v-1051q0 -35 13.5 -71.5t38 -67.5t62.5 -51.5t87 -20.5h96q47 0 85 19.5t63.5 50.5t39 69t13.5 72v1051h160v-1559q0 -72 -28 -136t-76 -113.5t-114.5 -79t-142.5 -29.5h-199v148h199q47 0 85 19t63.5 50t39 69t13.5 72v201q-84 -33 -126 -42t-75 -9 h-96q-78 0 -144.5 29.5t-114.5 79t-76 114t-28 135.5zM461 1575l186 348h109l-187 -348h-108z" />
<glyph unicode="&#xfe;" d="M102 -508v2431h160v-571q43 18 74 29.5t53.5 18.5t41 9t34.5 2h96q76 0 142.5 -29.5t114.5 -79t76 -115t28 -136.5v-689q0 -72 -28 -137t-76 -114.5t-114.5 -79t-142.5 -29.5h-96q-33 0 -75 10.5t-128 42.5v-563h-160zM264 362q0 -37 13.5 -74.5t38 -68.5t62.5 -50 t87 -19h96q49 0 86 19t62.5 50t39 69t13.5 74v689q0 35 -13.5 72.5t-39 68.5t-62.5 51.5t-86 20.5h-96q-49 0 -87 -20.5t-62.5 -51.5t-38 -69t-13.5 -72v-689z" />
<glyph unicode="&#xff;" d="M102 358v1051h162v-1051q0 -35 13.5 -71.5t38 -67.5t62.5 -51.5t87 -20.5h96q47 0 85 19.5t63.5 50.5t39 69t13.5 72v1051h160v-1559q0 -72 -28 -136t-76 -113.5t-114.5 -79t-142.5 -29.5h-199v148h199q47 0 85 19t63.5 50t39 69t13.5 72v201q-84 -33 -126 -42t-75 -9 h-96q-78 0 -144.5 29.5t-114.5 79t-76 114t-28 135.5zM102 1651v88h162v-88h-162zM762 1651v88h160v-88h-160z" />
<glyph unicode="&#x152;" horiz-adv-x="1468" d="M102 367v677q0 76 28 143.5t76 117t111.5 78t135.5 28.5h90q66 0 131 -29.5t139 -101.5q72 72 137.5 101.5t134.5 29.5h312v-151h-312q-45 0 -80.5 -18.5t-61 -48.5t-40 -69t-14.5 -80v-245h385v-150h-385v-282q0 -43 15.5 -81t41 -68t61 -47t78.5 -17h312v-154h-312 q-70 0 -135 29.5t-137 101.5q-74 -72 -139.5 -101.5t-130.5 -29.5h-90q-72 0 -135.5 28.5t-111.5 78t-76 116t-28 144.5zM256 367q0 -43 14.5 -81t40 -68t62.5 -47t80 -17h90q41 0 75.5 17t60.5 47t40 68t14 81v677q0 41 -14 80t-40 69t-60.5 48.5t-75.5 18.5h-90 q-45 0 -81 -18.5t-61.5 -48.5t-40 -69t-14.5 -80v-677z" />
<glyph unicode="&#x153;" horiz-adv-x="1611" d="M102 367v677q0 76 28 143.5t75 117t109.5 78t131.5 28.5h91q68 0 132 -29.5t138 -101.5q72 72 136.5 101.5t133.5 29.5h90q70 0 131.5 -28.5t108.5 -78t74.5 -117t27.5 -143.5v-395h-626v-282q0 -43 14 -81t41 -68t61.5 -47t77.5 -17h90l219 -2v-152h-227l-115 2 q-57 2 -113.5 31.5t-123.5 99.5q-74 -74 -138.5 -103.5t-131.5 -29.5h-91q-70 0 -132 28.5t-109 78t-75 116t-28 144.5zM256 367q0 -43 14.5 -81t39 -68t59 -47t77.5 -17h91q41 0 76.5 17t61 47t41 68t15.5 81v677q0 41 -14.5 80t-40 69t-61 48.5t-78.5 18.5h-91 q-43 0 -77.5 -18.5t-59 -48.5t-39 -69t-14.5 -80v-677zM883 799h475v245q0 41 -14.5 80t-40 69t-60.5 48.5t-76 18.5h-90q-43 0 -78.5 -18.5t-61.5 -48.5t-40 -69t-14 -80v-245z" />
<glyph unicode="&#x178;" horiz-adv-x="964" d="M72 1014v397h161v-397q0 -41 14.5 -80t41 -68.5t63.5 -47t82 -17.5h98q43 0 80 17.5t63.5 47t42 68.5t15.5 80v397h160v-397q0 -66 -23.5 -126.5t-66.5 -109.5t-104.5 -84t-137.5 -51v-643h-158v643q-78 16 -139 51t-104 84t-65.5 109.5t-22.5 126.5zM72 1651v88h161v-88 h-161zM731 1651v88h160v-88h-160z" />
<glyph unicode="&#x2c6;" horiz-adv-x="980" d="M258 1477l160 348h151l160 -348h-92l-143 303l-142 -303h-94z" />
<glyph unicode="&#x2dc;" d="M104 1565v174h816v-174h-816z" />
<glyph unicode="&#x2000;" horiz-adv-x="968" />
<glyph unicode="&#x2001;" horiz-adv-x="1937" />
<glyph unicode="&#x2002;" horiz-adv-x="968" />
<glyph unicode="&#x2003;" horiz-adv-x="1937" />
<glyph unicode="&#x2004;" horiz-adv-x="645" />
<glyph unicode="&#x2005;" horiz-adv-x="484" />
<glyph unicode="&#x2006;" horiz-adv-x="322" />
<glyph unicode="&#x2007;" horiz-adv-x="322" />
<glyph unicode="&#x2008;" horiz-adv-x="242" />
<glyph unicode="&#x2009;" horiz-adv-x="387" />
<glyph unicode="&#x200a;" horiz-adv-x="107" />
<glyph unicode="&#x2010;" horiz-adv-x="915" d="M100 438v174h699v-174h-699z" />
<glyph unicode="&#x2011;" horiz-adv-x="915" d="M100 438v174h699v-174h-699z" />
<glyph unicode="&#x2012;" horiz-adv-x="915" d="M100 438v174h699v-174h-699z" />
<glyph unicode="&#x2013;" horiz-adv-x="983" d="M121 438v174h698v-174h-698z" />
<glyph unicode="&#x2014;" d="M104 436v174h816v-174h-816z" />
<glyph unicode="&#x2018;" horiz-adv-x="454" d="M80 1739h123l168 -465h-123z" />
<glyph unicode="&#x2019;" horiz-adv-x="475" d="M100 1274l170 465h119l-170 -465h-119z" />
<glyph unicode="&#x201a;" horiz-adv-x="667" d="M190 -223l170 465h119l-170 -465h-119z" />
<glyph unicode="&#x201c;" d="M190 1739h93l143 -465h-98zM598 1739h98l138 -465h-93z" />
<glyph unicode="&#x201d;" d="M190 1274l140 465h96l-143 -465h-93zM600 1274l143 465h93l-140 -465h-96z" />
<glyph unicode="&#x201e;" d="M190 -223l140 465h96l-143 -465h-93zM600 -223l143 465h93l-140 -465h-96z" />
<glyph unicode="&#x2022;" horiz-adv-x="761" d="M72 625v178q0 45 17 85t47 69.5t70 47t87 17.5h176q45 0 86 -17.5t70.5 -47t47 -69.5t17.5 -85v-178q0 -47 -17.5 -87t-47 -70t-70.5 -47.5t-86 -17.5h-176q-47 0 -87 17.5t-70 47.5t-47 70t-17 87z" />
<glyph unicode="&#x2026;" horiz-adv-x="1296" d="M72 0v233h155v-233h-155zM567 0v233h160v-233h-160zM1069 0v233h156v-233h-156z" />
<glyph unicode="&#x202f;" horiz-adv-x="387" />
<glyph unicode="&#x2039;" horiz-adv-x="526" d="M63 643v176l400 185v-117l-328 -156l328 -156v-116z" />
<glyph unicode="&#x203a;" horiz-adv-x="526" d="M63 459v116l328 156l-328 156v117l400 -185v-176z" />
<glyph unicode="&#x205f;" horiz-adv-x="484" />
<glyph unicode="&#x20ac;" horiz-adv-x="911" d="M20 487v93h125v290h-125v88h125v86q0 76 29 143.5t79 117t115.5 78t139.5 28.5h330v-151h-330q-43 0 -80 -18.5t-62.5 -48.5t-41 -69t-15.5 -80v-86h260v-88h-260v-290h260v-93h-260v-120q0 -43 15.5 -81t42 -68t62.5 -47t79 -17h332v-154h-332q-74 0 -139.5 28.5 t-115.5 78t-79 116t-29 144.5v120h-125z" />
<glyph unicode="&#x2122;" horiz-adv-x="1257" d="M20 1323v86h478v-86h-193v-541h-92v541h-193zM578 784v627h104l199 -364l206 364h99v-627h-92v482l-187 -320h-53l-186 320v-482h-90z" />
<glyph unicode="&#x25fc;" horiz-adv-x="1413" d="M0 0v1413h1413v-1413h-1413z" />
<glyph unicode="&#xfb03;" horiz-adv-x="1716" d="M-70 -360q41 2 75 20t57.5 48t37 67t13.5 75v1215q0 72 27.5 134.5t74.5 109.5t108.5 74.5t129.5 27.5h714q63 0 121 -24.5t102 -65.5t73.5 -97.5t39.5 -119.5h-151q-8 29 -23.5 57.5t-39 51t-54.5 37t-68 14.5h-88q-45 0 -79.5 -18.5t-58 -48.5t-37 -66.5t-15.5 -71.5 q0 -18 -1 -39t0 -48.5t2 -67.5t5 -97h606v-440q0 -37 13.5 -76t38 -70t60.5 -50t81 -19l2 -150h-2q-70 0 -131.5 27.5t-107.5 75t-72.5 108.5t-26.5 129v320h-467v-789q0 -76 -24.5 -144.5t-68.5 -120.5t-105.5 -84t-135.5 -32v150q43 2 78 21.5t59.5 50t36.5 67.5t12 72 v806h-479v-809q0 -74 -26.5 -138t-71.5 -112.5t-105.5 -77t-128.5 -30.5v148zM262 1059q-2 -86 3 -136.5t12.5 -77t16.5 -33.5t17 -7h430v248q0 37 9.5 80t37.5 129h-335q-41 0 -76 -16.5t-59.5 -45.5t-40 -65.5t-15.5 -75.5z" />
<glyph unicode="&#xfb04;" horiz-adv-x="1742" d="M-70 -362q82 4 131.5 67.5t49.5 144.5v1217q0 72 27.5 134.5t74.5 109.5t109.5 74.5t130.5 27.5h905v504h147v-1516q0 -35 9.5 -75.5t31 -75.5t58 -59.5t92.5 -24.5h16v-148h-16q-74 0 -135.5 30t-106.5 79t-70.5 114.5t-25.5 139.5v887h-279q-43 0 -78.5 -19.5 t-60.5 -49.5t-38 -66.5t-13 -71.5v-246h184v-145h-184v-801q0 -76 -24.5 -143.5t-68.5 -119.5t-105.5 -83t-135.5 -31v148q43 2 78 21.5t59.5 50t36.5 68.5t12 73v524q0 53 -1 125.5t-1 165.5h-477v-818q0 -74 -26.5 -139t-71.5 -113.5t-105.5 -76t-128.5 -29.5v146z M262 1061q-2 -84 3 -133t12.5 -75t16.5 -33t17 -7h426v139.5t2 104.5q0 18 2 36.5t8.5 42t16.5 55.5t27 75h-340q-41 0 -76 -17.5t-59.5 -45t-40 -65.5t-15.5 -77z" />
</font>
</defs>
</svg>
