<?xml version="1.0" standalone="no"?>
<!DOCTYPE svg PUBLIC "-//W3C//DTD SVG 1.1//EN" "http://www.w3.org/Graphics/SVG/1.1/DTD/svg11.dtd" >
<svg xmlns="http://www.w3.org/2000/svg" xmlns:xlink="http://www.w3.org/1999/xlink" version="1.1">
<metadata></metadata>
<defs>
<font id="reflexbold" horiz-adv-x="1024" >
<font-face units-per-em="2048" ascent="1638" descent="-410" />
<missing-glyph horiz-adv-x="526" />
<glyph horiz-adv-x="0" />
<glyph horiz-adv-x="682" />
<glyph horiz-adv-x="708" d="M121 1763v78h145v-78q0 -25 14.5 -43t34.5 -18h93q20 0 34.5 18.5t14.5 42.5v78h145v-78q0 -43 -15.5 -79.5t-42 -64.5t-62.5 -44t-74 -16h-93q-41 0 -75.5 16t-61 44t-42 64.5t-15.5 79.5z" />
<glyph horiz-adv-x="874" d="M362 1538v234h234v-234h-234z" />
<glyph horiz-adv-x="579" d="M113 1651q0 72 51 123t123 51t123 -51t51 -123q0 -74 -51.5 -125t-122.5 -51q-72 0 -123 51t-51 125zM199 1651q0 -37 25.5 -62.5t62.5 -25.5t62.5 25.5t25.5 62.5q0 35 -25.5 60.5t-62.5 25.5t-62.5 -25.5t-25.5 -60.5z" />
<glyph unicode="&#xa;" horiz-adv-x="811" d="M82 1477l182 348h174l-182 -348h-174zM410 1477l182 348h174l-182 -348h-174z" />
<glyph horiz-adv-x="931" d="M311 -202q4 77 41 147q14 29 36 56.5t52 59.5h236q-37 -47 -72 -95t-63 -124q-8 -29 -4 -65.5t17 -69.5t38.5 -53.5t60.5 -18.5l2 -249l-131 49q-70 33 -119 90t-73.5 126.5t-20.5 146.5z" />
<glyph horiz-adv-x="774" d="M174 1825h176l90 -178l92 178h175l-181 -348h-174z" />
<glyph unicode="&#xd;" horiz-adv-x="544" d="M104 371v1040h234q2 -252 1 -499.5t-1 -497.5q0 -98 42 -141.5t140 -41.5v-233h-47q-76 0 -141.5 30.5t-114.5 82t-78.5 119t-32.5 141.5h-2z" />
<glyph horiz-adv-x="768" d="M84 0l459 1411h176l-459 -1411h-176z" />
<glyph horiz-adv-x="1122" d="M-70 -274h39q31 0 55.5 14t43 36.5t27.5 50.5t9 56v1139q0 78 27 148.5t76 124t116.5 85t149.5 31.5h82q78 0 144.5 -31.5t115.5 -84t78 -122t31 -145.5h-234q-2 55 -39 103.5t-96 48.5h-82q-61 0 -97 -47.5t-38 -104.5q-2 -35 -2 -76t2 -114h582v-449q2 -57 37.5 -106.5 t99.5 -49.5h45v-233h-45q-78 0 -143.5 29.5t-114.5 81t-79 119t-32 141.5v235h-350v-706q0 -80 -25.5 -154t-74 -130t-117 -90t-152.5 -34h-39v234z" />
<glyph horiz-adv-x="1138" d="M-70 -274h39q31 0 56.5 14t43 36.5t26.5 50.5t9 56v506q0 160 -2 317.5t2 317.5q2 76 29 146.5t76 124t115.5 85t148.5 31.5h217v506h234v-1503q0 -31 7 -64t22.5 -58.5t42 -42t63.5 -16.5h59v-233h-59q-80 0 -147.5 33t-117 87t-77 124.5t-27.5 148.5v787h-217 q-59 0 -97 -47.5t-38 -104.5v-190h172v-232h-172v-706q0 -80 -25.5 -154t-74 -130t-117 -90t-152.5 -34h-39v234z" />
<glyph horiz-adv-x="747" d="M20 698v176h117v533h234v-533h114v-176h-114v-309q0 -66 40 -111t95 -45h221v-233h-221q-76 0 -143.5 30.5t-117.5 83t-79 124t-29 151.5v309h-117z" />
<glyph horiz-adv-x="581" d="M20 809v176h115v932h232v-932h120v-176h-120v-420q0 -66 39.5 -111t95.5 -45h59v-233h-59q-76 0 -142.5 30.5t-116.5 83t-79 124t-29 151.5v420h-115z" />
<glyph horiz-adv-x="925" d="M51 0v231l592 947h-592v231h823v-231l-583 -947h583v-231h-823zM197 1825h176l90 -178l92 178h174l-180 -348h-174z" />
<glyph horiz-adv-x="964" d="M72 389v60q0 76 27.5 146.5t76.5 124.5t116.5 86t147.5 32h84q35 0 60.5 15t42 41t24.5 56.5t8 61.5q0 29 -9 58.5t-25.5 53t-42 39t-58.5 15.5h-452v233h452q82 0 149.5 -32.5t117 -88t76 -128t26.5 -152.5v-15q0 -78 -27.5 -147.5t-77 -123.5t-117 -86t-147.5 -32h-84 q-63 0 -99 -50t-36 -107v-60q0 -59 36 -108.5t99 -49.5h453v-233h-453q-80 0 -147.5 31.5t-116.5 86t-76.5 125t-27.5 148.5zM213 1825h176l90 -178l92 178h174l-180 -348h-174z" />
<glyph unicode=" "  horiz-adv-x="526" />
<glyph unicode="&#x09;" horiz-adv-x="526" />
<glyph unicode="&#xa0;" horiz-adv-x="526" />
<glyph unicode="!" horiz-adv-x="364" d="M102 0v174h232v-174h-232zM102 356v1055h232v-1055h-232z" />
<glyph unicode="&#x22;" horiz-adv-x="774" d="M123 1274v465h174v-465h-174zM477 1274v465h174v-465h-174z" />
<glyph unicode="#" horiz-adv-x="1189" d="M35 461l28 176h117l27 174h-115l27 176h117l67 424h232l-68 -424h358l68 424h231l-67 -424h110l-28 -176h-109l-29 -174h109l-27 -176h-108l-74 -461h-233l73 461h-356l-74 -461h-231l72 461h-117zM412 637h358l27 174h-357z" />
<glyph unicode="$" d="M102 387v4h232v-4q0 -66 40 -111t97 -45h82q57 0 97 45.5t40 110.5v59q0 66 -40 112t-97 46h-82q-78 0 -144.5 31t-116.5 83t-79 123.5t-29 151.5v27q0 74 25 140.5t69 118.5t102 86t126 42v238h176v-238q68 -8 126 -42t102 -86t69 -118.5t25 -140.5v-4h-232v4 q0 66 -40 112t-97 46h-82q-57 0 -97 -46.5t-40 -111.5v-27q0 -66 40 -110.5t97 -44.5h82q76 0 143.5 -31t117.5 -84t79 -125t29 -152v-59q0 -74 -25 -140.5t-69 -118.5t-102 -86t-126 -42v-240h-176v240q-68 8 -126 42t-102 86t-69 118.5t-25 140.5z" />
<glyph unicode="%" horiz-adv-x="1208" d="M94 891v321q0 41 14.5 77t40 63.5t60.5 43t74 15.5h41q39 0 73.5 -15.5t60 -43t40 -63.5t14.5 -77v-321q0 -41 -14.5 -77t-40 -63.5t-60.5 -43t-73 -15.5h-41q-39 0 -74 15.5t-60.5 43t-40 63.5t-14.5 77zM236 932q0 -27 14 -44.5t37 -17.5h32q23 0 37.5 17.5t14.5 44.5 v239q0 25 -14.5 43.5t-37.5 18.5h-32q-23 0 -37 -18.5t-14 -43.5v-239zM291 0l459 1411h174l-459 -1411h-174zM696 199v321q0 41 14.5 77t40 63.5t60.5 43t74 15.5h41q39 0 73.5 -15.5t60 -43t40 -63.5t14.5 -77v-321q0 -41 -14.5 -78t-40 -63.5t-60 -42t-73.5 -15.5h-41 q-39 0 -74 15.5t-60.5 42t-40 63.5t-14.5 78zM838 238q0 -25 14 -42.5t37 -17.5h33q23 0 37 17.5t14 42.5v241q0 25 -14.5 42.5t-36.5 17.5h-33q-23 0 -37 -17.5t-14 -42.5v-241z" />
<glyph unicode="&#x26;" horiz-adv-x="1171" d="M72 387v59q0 106 48 193.5t128 138.5q-61 96 -62 215v27q0 80 29 151.5t79 125t116.5 84t142.5 30.5h86q76 0 143.5 -30.5t117.5 -84t79 -125t29 -151.5v-27q0 -80 -29 -151.5t-79 -123.5t-117.5 -83t-143.5 -31h-199q-57 0 -96 -46t-39 -112v-59q0 -66 39 -111t96 -45 h506v134h174v-367h-680q-76 0 -143.5 30.5t-117.5 83t-78.5 124t-28.5 151.5zM418 993q0 -57 37 -106t98 -49h86q61 0 98 49t37 106v27q0 29 -9 57.5t-27.5 51t-43 36t-55.5 13.5h-84q-33 0 -57.5 -14.5t-42 -38t-26.5 -52.5t-9 -57l-2 -4v-19z" />
<glyph unicode="'" horiz-adv-x="280" d="M53 1274v465h174v-465h-174z" />
<glyph unicode="(" horiz-adv-x="385" d="M117 -90v1583q0 76 27.5 146.5t76.5 125t117 86t147 31.5h359v-231h-359q-63 0 -99 -50.5t-36 -107.5v-1583q0 -57 36 -106.5t99 -49.5h359v-233h-359q-80 0 -147.5 31.5t-116.5 86t-76.5 124t-27.5 147.5z" />
<glyph unicode=")" horiz-adv-x="358" d="M-461 -246h359q63 0 99 49.5t36 106.5v1583q0 57 -36 107.5t-99 50.5h-359v231h359q80 0 147.5 -31.5t116.5 -86t76.5 -125t27.5 -146.5v-1583q0 -78 -27.5 -147.5t-76.5 -124t-117 -86t-147 -31.5h-359v233z" />
<glyph unicode="*" horiz-adv-x="864" d="M109 918l231 129l-225 135l59 102l227 -137l5 264h116l-4 -264l232 127l57 -103l-232 -129l228 -135l-60 -102l-227 137l-4 -264h-119l4 264l-229 -127z" />
<glyph unicode="+" horiz-adv-x="972" d="M137 438v174h262v262h174v-262h263v-174h-263v-262h-174v262h-262z" />
<glyph unicode="," horiz-adv-x="364" d="M102 233h234v-739h-234v739z" />
<glyph unicode="-" horiz-adv-x="915" d="M100 438v174h699v-174h-699z" />
<glyph unicode="." horiz-adv-x="364" d="M102 0v233h234v-233h-234z" />
<glyph unicode="/" horiz-adv-x="632" d="M18 0l459 1411h174l-458 -1411h-175z" />
<glyph unicode="0" d="M102 389v633q0 80 29 151.5t79 124t117.5 83t143.5 30.5h84q76 0 142.5 -30.5t116.5 -83t79 -124t29 -151.5v-633q0 -80 -29 -151.5t-79 -124t-116.5 -83t-142.5 -30.5h-84q-76 0 -143.5 30.5t-117.5 83t-79 124t-29 151.5zM336 426l244 750q-27 6 -54.5 5t-54.5 -1 q-63 0 -99 -50.5t-36 -107.5v-596zM449 236q25 -6 52 -4.5t54 1.5q61 0 98 49.5t37 106.5v590z" />
<glyph unicode="1" horiz-adv-x="364" d="M102 0v1411h232v-1411h-232z" />
<glyph unicode="2" horiz-adv-x="995" d="M102 0v461q0 76 29 144.5t79 119.5t116.5 81t144.5 30h84q39 0 64.5 17t41 44t22.5 60.5t7 64.5q0 29 -9 56.5t-27.5 50t-43 37t-55.5 14.5h-84q-33 0 -57.5 -14.5t-42 -38t-26.5 -52t-9 -57.5h-234v4q0 76 28 147.5t77 125t116.5 86t147.5 32.5h84q80 0 147.5 -32.5 t116.5 -86t77 -125t28 -147.5v-33q0 -78 -29 -147.5t-78 -121.5t-116.5 -84t-145.5 -32h-84q-33 0 -57.5 -14.5t-42 -38t-26.5 -52t-9 -57.5l-2 -211h588v-231h-820z" />
<glyph unicode="3" horiz-adv-x="995" d="M72 389v43h233v-43q0 -57 36 -106.5t99 -49.5h84q33 0 57.5 14.5t42 37t26.5 51.5t9 57q0 37 -4 74t-17 66.5t-41 49t-73 23.5q-14 2 -27.5 1t-27.5 -1v234q14 0 27.5 -1t27.5 1q70 4 102.5 52t32.5 114q0 31 -8 61.5t-24.5 56t-42 41t-60.5 15.5h-84q-33 0 -57.5 -14.5 t-41.5 -38t-26.5 -52t-9.5 -57.5h-233v4q0 78 27.5 148.5t76.5 125t116.5 86t147.5 31.5h84q84 0 152.5 -33.5t117 -90t74 -130.5t25.5 -153q0 -80 -26.5 -152t-80.5 -131q70 -76 88.5 -155t18.5 -179q0 -78 -27.5 -147.5t-77 -124t-117 -86t-147.5 -31.5h-84 q-80 0 -147.5 31.5t-116.5 86t-76.5 124t-27.5 147.5z" />
<glyph unicode="4" horiz-adv-x="993" d="M72 995v416h231v-412h2v-4q0 -66 39 -111.5t96 -45.5h219v573h232v-1411h-232v604h-219q-76 0 -142.5 31t-115.5 84t-78.5 124.5t-31.5 151.5z" />
<glyph unicode="5" horiz-adv-x="1026" d="M102 389v43h234v-43q0 -57 36 -106.5t99 -49.5h84q33 0 57.5 14.5t42 37t26.5 51.5t9 57v96q0 29 -9 57.5t-27.5 51.5t-43 36t-55.5 13h-84q-78 0 -145.5 33t-116.5 86t-78 124t-29 146v375h820v-233h-586v-140q0 -57 36 -107t99 -50h84q80 0 147.5 -33t116.5 -86 t77 -125t28 -148v-100q0 -78 -28 -147.5t-77 -124t-116.5 -86t-147.5 -31.5h-84q-80 0 -147.5 31.5t-116.5 86t-77 124t-28 147.5z" />
<glyph unicode="6" horiz-adv-x="1026" d="M102 389v631q0 78 28 148.5t77 125t116.5 86t147.5 31.5h84q80 0 147.5 -31.5t116.5 -86t77 -125t28 -148.5v-31h-234q0 33 -6 65.5t-21.5 60.5t-42 45.5t-65.5 17.5h-84q-31 0 -55.5 -13.5t-43 -36t-27.5 -51t-9 -57.5v-211q31 14 64.5 20.5t68.5 6.5h86q84 0 152.5 -34 t116.5 -89.5t74 -129t26 -153.5v-41q0 -78 -28 -147.5t-77 -124t-116.5 -86t-147.5 -31.5h-84q-80 0 -147.5 31.5t-116.5 86t-77 124t-28 147.5zM336 389q0 -57 36 -106.5t99 -49.5h84q61 0 98 49.5t37 106.5v55q0 29 -9 57.5t-27.5 51t-43 36t-55.5 13.5h-86 q-25 0 -49.5 -12t-45 -32.5t-31.5 -46.5t-7 -50v-72z" />
<glyph unicode="7" horiz-adv-x="851" d="M31 1176v233h350q76 0 143.5 -30.5t117.5 -84t79 -125t29 -151.5v-1018h-234v1022q0 66 -40 110t-95 44h-350z" />
<glyph unicode="8" horiz-adv-x="1026" d="M102 389v33q0 86 24 158.5t83 138.5q-57 61 -82 134t-25 155q0 80 27 152.5t75 127.5t115.5 88t151.5 33h86q80 0 146.5 -31.5t115.5 -86t77 -125t28 -148.5v-27q0 -78 -26 -146.5t-79 -125.5q59 -66 82 -139.5t23 -161.5v-29q0 -78 -28 -147.5t-77 -124t-115.5 -86 t-146.5 -31.5h-86q-80 0 -147.5 31.5t-116.5 86t-77 124t-28 147.5zM336 389q0 -57 36 -106.5t99 -49.5h86q61 0 98 49.5t37 106.5v55q0 29 -9 56.5t-27.5 50t-43 37t-55.5 14.5h-86q-63 0 -99 -50t-36 -108v-55zM336 1008q0 -31 8 -62t24.5 -55.5t42 -39.5t60.5 -15h86 q35 0 60.5 15t42 39.5t24.5 55.5t8 62t-8 60.5t-25.5 53t-43 39t-58.5 15.5h-86q-35 0 -60.5 -15.5t-42 -39t-24.5 -53.5t-8 -60z" />
<glyph unicode="9" d="M102 389v41h234v-41q0 -57 36 -106.5t99 -49.5h84q61 0 98 49.5t37 106.5v240q-70 -27 -135 -27h-84q-84 0 -152.5 34t-116.5 90t-74 129t-26 153t27 152.5t75 127.5t115.5 88t151.5 33h84q76 0 143.5 -30.5t116.5 -83t78 -121t29 -144.5v-641q0 -78 -28 -147.5t-77 -124 t-115.5 -86t-146.5 -31.5h-84q-80 0 -147.5 31.5t-116.5 86t-77 124t-28 147.5zM336 1008q0 -31 8 -62t24.5 -55.5t42 -39.5t60.5 -15h84q37 0 62.5 16t42 43t23.5 59.5t7 63.5q0 59 -36 108.5t-99 49.5h-84q-35 0 -59.5 -15.5t-42 -39t-25.5 -53.5t-8 -60z" />
<glyph unicode=":" horiz-adv-x="364" d="M102 0v233h234v-233h-234zM102 604v232h234v-232h-234z" />
<glyph unicode=";" horiz-adv-x="364" d="M102 604v234h234v-234h-234zM106 233h234v-739h-234v739z" />
<glyph unicode="&#x3c;" horiz-adv-x="708" d="M156 631v200l397 203v-198l-203 -105l203 -104v-199z" />
<glyph unicode="=" d="M162 258v174h700v-174h-700zM162 610v174h700v-174h-700z" />
<glyph unicode="&#x3e;" horiz-adv-x="686" d="M158 428v199l204 104l-204 105v198l399 -203v-200z" />
<glyph unicode="?" horiz-adv-x="962" d="M72 989v31q0 80 28.5 151.5t78.5 125t118 84t143 30.5h84q76 0 142.5 -30.5t115.5 -83t79 -122t30 -149.5v-37q-2 -70 -24.5 -132t-62.5 -112.5t-93.5 -84t-114.5 -48.5l2 -262h-236v488h162q55 2 95 47t40 110v25q0 66 -39.5 112t-95.5 46h-84q-57 0 -96 -46.5 t-39 -111.5v-31h-233zM365 0v174h233v-174h-233z" />
<glyph unicode="@" horiz-adv-x="1386" d="M51 389v45q0 80 26.5 152.5t75 128t116 89.5t151.5 34h86q84 0 151.5 -34t115.5 -89.5t73.5 -129t25.5 -153.5q0 -53 -4 -101t-26 -100h47v2q29 0 57.5 9.5t52 27t38 42t14.5 57.5v651q0 29 -9.5 57.5t-28 51t-43 36t-55.5 13.5h-632v233h632q80 0 147.5 -31.5t117 -86 t77 -125t27.5 -148.5v-651q0 -80 -31.5 -147.5t-86 -117t-125 -77t-148.5 -27.5h-473q-80 0 -147.5 31.5t-117 86t-77 124t-27.5 147.5zM285 389q0 -57 35.5 -106.5t99.5 -49.5h86q61 0 98 49.5t37 106.5v60q0 57 -37 106t-98 49h-86q-63 0 -99 -49t-36 -106v-60z" />
<glyph unicode="A" d="M102 0v1022q0 80 29 151.5t79 124t117.5 83t143.5 30.5h84q76 0 142.5 -30.5t116.5 -83t79 -124t29 -151.5v-1022h-232v606h-354v-606h-234zM336 838h354v184q0 66 -40 112t-95 46h-84q-57 0 -96 -46.5t-39 -111.5v-184z" />
<glyph unicode="B" horiz-adv-x="1026" d="M102 0v1411h453q76 0 143.5 -30.5t117.5 -83t79 -124t29 -151.5v-27q0 -80 -29 -150.5t-78 -123.5q49 -53 78 -122t29 -148v-62q0 -80 -29 -151.5t-79 -124t-117.5 -83t-143.5 -30.5h-453zM338 233h217q57 0 97 45.5t40 110.5v60q0 66 -40 111.5t-95 45.5h-219v-373z M338 838h217q57 0 97 46t40 111v27q0 66 -40 112t-97 46h-217v-342z" />
<glyph unicode="C" horiz-adv-x="878" d="M102 389v633q0 80 29 151.5t79 124t117.5 83t143.5 30.5h336v-231h-336q-57 0 -96 -46.5t-39 -111.5v-633q0 -66 39 -111t96 -45h336v-233h-336q-76 0 -143.5 30.5t-117.5 83t-79 124t-29 151.5z" />
<glyph unicode="D" horiz-adv-x="1028" d="M102 0v1411h455q76 0 143.5 -30.5t117.5 -84t79 -125t29 -151.5v-631q0 -80 -29 -151.5t-79 -124t-117.5 -83t-143.5 -30.5h-455zM334 233h223q55 0 95 45.5t40 110.5v631q0 66 -40 112t-95 46h-223v-945z" />
<glyph unicode="E" horiz-adv-x="878" d="M102 389v633q0 80 29 151.5t79 124t117.5 83t143.5 30.5h336v-231h-336q-57 0 -96 -46.5t-39 -111.5v-184h354v-232h-354v-217q0 -66 39 -111t96 -45h336v-233h-336q-76 0 -143.5 30.5t-117.5 83t-79 124t-29 151.5z" />
<glyph unicode="F" horiz-adv-x="837" d="M102 0v1026q0 80 29 150.5t79 123t117.5 83t143.5 30.5h336v-233h-336q-57 0 -96 -46.5t-39 -111.5v-184h358v-232h-358v-606h-234z" />
<glyph unicode="G" d="M102 389v633q0 80 29 151.5t79 124t117.5 83t143.5 30.5h338v-231h-338q-57 0 -96 -46.5t-39 -111.5v-633q0 -66 39 -111t96 -45h84q55 0 95 45.5t40 110.5v215h-176v232h408v-447q0 -80 -29 -151.5t-79 -124t-116.5 -83t-142.5 -30.5h-84q-76 0 -143.5 30.5t-117.5 83 t-79 124t-29 151.5z" />
<glyph unicode="H" horiz-adv-x="1026" d="M102 0v1411h232v-573h358v573h232v-1411h-232v604h-358v-604h-232z" />
<glyph unicode="I" horiz-adv-x="364" d="M102 0v1411h232v-1411h-232z" />
<glyph unicode="J" horiz-adv-x="972" d="M51 389v217h234v-217q0 -66 38.5 -111t96.5 -45h84q55 0 95 45.5t40 110.5v1022h231v-1022q0 -80 -28.5 -151.5t-78.5 -124t-116.5 -83t-142.5 -30.5h-84q-76 0 -143.5 30.5t-117.5 83t-79 124t-29 151.5z" />
<glyph unicode="K" horiz-adv-x="1026" d="M102 0v1411h232v-575h223q55 0 95 46t40 111v416h232v-416q0 -80 -29 -151.5t-78 -124.5q49 -53 78 -124t29 -151v-442h-232v442q0 66 -40 112t-95 46h-223v-600h-232z" />
<glyph unicode="L" horiz-adv-x="710" d="M102 389v1018h234v-1018q0 -66 39 -111t96 -45h219v-233h-219q-76 0 -143.5 30.5t-117.5 83t-79 124t-29 151.5z" />
<glyph unicode="M" horiz-adv-x="1255" d="M102 0v1411h236l289 -573l299 573h227v-1411h-233v975l-228 -369h-131l-227 369v-975h-232z" />
<glyph unicode="N" d="M102 0v1411h236l352 -666v666h232v-1411h-232v403l-350 568v-971h-238z" />
<glyph unicode="O" d="M102 389v633q0 80 29 151.5t79 124t117.5 83t143.5 30.5h84q76 0 142.5 -30.5t116.5 -83t79 -124t29 -151.5v-633q0 -80 -29 -151.5t-79 -124t-116.5 -83t-142.5 -30.5h-84q-76 0 -143.5 30.5t-117.5 83t-79 124t-29 151.5zM336 389q0 -66 39 -111t96 -45h84 q55 0 95 45.5t40 110.5v633q0 66 -40 112t-95 46h-84q-57 0 -96 -46.5t-39 -111.5v-633z" />
<glyph unicode="P" horiz-adv-x="995" d="M102 0v1411h455q76 0 142.5 -30.5t116.5 -84t79 -125t29 -151.5v-27q0 -80 -29 -151.5t-79 -123.5t-116.5 -83t-142.5 -31h-223v-604h-232zM334 838h223q55 0 95 45t40 110v27q0 66 -40 112t-95 46h-223v-340z" />
<glyph unicode="Q" horiz-adv-x="1071" d="M102 389v633q0 80 29 151.5t79 124t117.5 83t143.5 30.5h84q76 0 142.5 -30.5t116.5 -83t79 -124t29 -151.5v-633q0 -84 -31 -158h160v-231h-580q-76 0 -143.5 30.5t-117.5 83t-79 124t-29 151.5zM336 389q0 -66 39 -111t96 -45h84q55 0 95 45.5t40 110.5v633 q0 66 -40 112t-95 46h-84q-57 0 -96 -46.5t-39 -111.5v-633z" />
<glyph unicode="R" horiz-adv-x="1026" d="M102 -2v1411h453q76 0 143.5 -30.5t117.5 -83t79 -124t29 -151.5v-29q0 -80 -29 -149.5t-78 -122.5q49 -53 78 -124t29 -151v-446h-232v446q0 66 -40 112t-97 46h-221v-604h-232zM334 836h221q57 0 97 45t40 110v29q0 66 -40 112t-97 46h-221v-342z" />
<glyph unicode="S" horiz-adv-x="952" d="M72 995v27q0 76 27.5 146.5t76.5 125t116.5 86t147.5 31.5h340v-231h-340q-39 0 -64.5 -17.5t-41 -44t-22.5 -59.5t-7 -64q0 -57 36 -107t99 -50h84q80 0 146.5 -32t116 -86t77 -125t27.5 -146v-60q0 -78 -27.5 -148.5t-77 -124t-116 -86t-146.5 -32.5h-450v233h450 q31 0 55.5 14.5t43 37t27.5 50t9 56.5v60q0 29 -9 56t-27.5 50t-43 37t-55.5 14h-84q-80 0 -147.5 32t-116.5 86t-76.5 124t-27.5 147z" />
<glyph unicode="T" horiz-adv-x="864" d="M20 1178v231h824v-231h-295v-1180h-234v1180h-295z" />
<glyph unicode="U" d="M102 389v1020h234v-1020q0 -66 39 -112t96 -46h82q57 0 96 46.5t39 111.5v1020h234v-1020q0 -80 -29 -151.5t-79 -125t-117.5 -84t-143.5 -30.5h-82q-76 0 -143.5 30.5t-117.5 84t-79 125t-29 151.5z" />
<glyph unicode="V" d="M102 -2v1411h232v-1178h219q55 0 96 45.5t41 110.5v1024h232v-1028q0 -80 -29 -150.5t-79 -123t-117.5 -82t-143.5 -29.5h-451z" />
<glyph unicode="W" horiz-adv-x="1255" d="M102 0v1411h236v-975l225 400h131l230 -400v975h231v-1411h-235l-291 604l-297 -604h-230z" />
<glyph unicode="X" horiz-adv-x="1026" d="M102 0v446q0 76 27 148t80 127q-53 55 -80 126t-27 146v418h234v-418q0 -57 36 -107t99 -50h86q31 0 55.5 14t43 36.5t27.5 50.5t9 56v418h232v-418q0 -76 -27 -146.5t-78 -125.5q51 -55 78 -127t27 -148v-448h-232v448q0 29 -9 56.5t-27.5 50t-43 37t-55.5 14.5h-86 q-63 0 -99 -50t-36 -108v-446h-234z" />
<glyph unicode="Y" horiz-adv-x="964" d="M72 995v416h233v-416q0 -66 39 -111.5t96 -45.5h86q55 0 95.5 46t40.5 111v416h231v-416q0 -72 -22.5 -135t-62.5 -113.5t-93 -85t-117 -49.5v-614h-231v614q-63 14 -116.5 49t-93.5 85.5t-62.5 114t-22.5 134.5z" />
<glyph unicode="Z" horiz-adv-x="925" d="M51 0v231l592 947h-592v231h823v-231l-583 -947h583v-231h-823z" />
<glyph unicode="[" horiz-adv-x="380" d="M117 -479v2361h727v-231h-496v-1897h496v-233h-727z" />
<glyph unicode="\" horiz-adv-x="606" d="M2 1411h176l459 -1411h-176z" />
<glyph unicode="]" horiz-adv-x="387" d="M-461 -246h496v1897h-496v231h727v-2361h-727v233z" />
<glyph unicode="^" horiz-adv-x="737" d="M133 1477l178 348h176l179 -348h-174l-93 178l-92 -178h-174z" />
<glyph unicode="_" horiz-adv-x="700" d="M0 10v176h700v-176h-700z" />
<glyph unicode="`" horiz-adv-x="485" d="M115 1825h174l182 -348h-174z" />
<glyph unicode="a" horiz-adv-x="983" d="M61 446q0 76 28 147t77 125t116.5 86t147.5 32h219v184q0 29 -9 56.5t-27.5 50t-43 37t-55.5 14.5h-338v233h338q80 0 146.5 -32.5t115.5 -86t77 -125t28 -147.5v-631q0 -78 -28 -148.5t-77 -124t-115.5 -86t-146.5 -32.5h-84q-98 0 -167.5 38t-114 101.5t-66 143 t-21.5 165.5zM295 389q0 -29 9 -56.5t27.5 -50t43 -37t55.5 -14.5h84q31 0 55.5 14.5t43 37t27.5 50t9 56.5v215h-219q-31 0 -55.5 -14.5t-43 -37t-27.5 -50t-9 -56.5v-57z" />
<glyph unicode="b" d="M102 389v1528h232v-535q68 29 137 29h84q80 0 146.5 -32.5t115.5 -86t77 -125t28 -147.5v-631q0 -78 -28 -148.5t-77 -124t-115.5 -86t-146.5 -32.5h-84q-80 0 -147.5 32.5t-116.5 86t-77 124t-28 148.5zM336 389q0 -29 9 -56.5t27.5 -50t43 -37t55.5 -14.5h84 q31 0 55.5 14.5t43 37t27.5 50t9 56.5v631q0 29 -9 56.5t-27.5 50t-43 37t-55.5 14.5h-84q-31 0 -55.5 -14.5t-43 -37t-27.5 -50t-9 -56.5v-631z" />
<glyph unicode="c" horiz-adv-x="878" d="M102 389v633q0 80 29 151.5t79 124t117.5 83t143.5 30.5h336v-231h-336q-57 0 -96 -46.5t-39 -111.5v-633q0 -66 39 -111t96 -45h336v-233h-336q-76 0 -143.5 30.5t-117.5 83t-79 124t-29 151.5z" />
<glyph unicode="d" d="M102 389v631q0 80 29 151.5t79 125t117.5 84t143.5 30.5h84q68 0 135 -29v535h232v-1528q0 -80 -29 -151.5t-79 -125t-116.5 -84t-142.5 -30.5h-84q-76 0 -143.5 30.5t-117.5 84t-79 125t-29 151.5zM336 389q0 -66 39 -112t96 -46h84q55 0 95 46.5t40 111.5v631 q0 66 -40 112t-95 46h-84q-57 0 -96 -46.5t-39 -111.5v-631z" />
<glyph unicode="e" d="M102 389v631q0 76 28 147.5t77 125t116.5 86t147.5 32.5h84q80 0 146.5 -32.5t115.5 -86t77 -125t28 -147.5v-416h-586v-215q0 -55 18.5 -87t48 -47t69.5 -19.5t83 -4.5h250v-233h-154l-213 2q-72 0 -133 34t-106 88t-71 123.5t-26 143.5zM336 836h354v184q0 29 -9 56.5 t-27.5 50t-43 37t-55.5 14.5h-84q-63 0 -99 -50.5t-36 -107.5v-184z" />
<glyph unicode="f" horiz-adv-x="944" d="M-70 -276h37q57 0 96 46t39 111v1153q0 78 30 146.5t80 120t117.5 81t141.5 29.5h453v-233h-453q-53 0 -93 -44t-42 -106q-1 -48 -1 -81v-29q1 -39 1 -58v-24h354v-232h-354v-723q0 -80 -28.5 -151.5t-79 -123.5t-118 -83t-143.5 -31h-37v232z" />
<glyph unicode="g" d="M102 389v631q0 76 28 147.5t77 125t116.5 86t147.5 32.5h84q80 0 146.5 -32.5t115.5 -86t77 -125t28 -147.5v-1139q0 -78 -28 -147.5t-77 -123.5t-115.5 -86t-146.5 -32h-221v232h191.5t107.5 25.5t47 89t10 188.5q-68 -29 -135 -29h-84q-80 0 -147.5 31.5t-116.5 86 t-77 125t-28 148.5zM336 389q0 -59 36 -108.5t99 -49.5h84q31 0 55.5 13.5t43 36t27.5 51t9 57.5v631q0 29 -9 56.5t-27.5 50t-43 37t-55.5 14.5h-84q-63 0 -99 -50.5t-36 -107.5v-631z" />
<glyph unicode="h" horiz-adv-x="1026" d="M102 -2v1919h232v-506h221q78 0 145.5 -31.5t116.5 -85t77 -124t28 -146.5l2 -1026h-234v1024q0 57 -37 106.5t-98 49.5h-221v-1180h-232z" />
<glyph unicode="i" horiz-adv-x="544" d="M102 371v1040h234q1 -168 1 -334v-165q-1 -248 -1 -498q0 -98 42 -142q40 -42 131 -41h9v-233h-47q-76 0 -141.5 30.5t-114.5 82t-79 119t-32 141.5h-2zM102 1565v174h234v-174h-234z" />
<glyph unicode="j" horiz-adv-x="374" d="M-317 -276h221q31 0 55.5 14t42.5 36.5t27.5 50.5t9.5 56v1528h233v-1528q0 -78 -27.5 -147.5t-76.5 -123.5t-116.5 -86t-147.5 -32h-221v232zM39 1565v174h233v-174h-233z" />
<glyph unicode="k" d="M102 -2v1919h232v-1081h225q31 0 54.5 14t41 36.5t25.5 50.5t8 56v418h234v-418q0 -76 -27 -146.5t-80 -125.5q53 -55 80 -127t27 -148v-448h-234v448q0 27 -8 55.5t-25.5 51t-41 37t-54.5 14.5h-225v-606h-232z" />
<glyph unicode="l" horiz-adv-x="544" d="M104 389v1528h234v-1528q0 -66 39 -112t96 -46h59v-233h-59q-76 0 -143.5 30.5t-117.5 84t-79 125t-29 151.5z" />
<glyph unicode="m" horiz-adv-x="1613" d="M102 -2v1020q0 80 29 151.5t79 125t117.5 84t143.5 30.5h84q72 0 137.5 -28.5t114.5 -77.5q49 49 113.5 77.5t138.5 28.5h84q76 0 143.5 -30.5t117.5 -84t78.5 -125t28.5 -151.5v-1020h-233v1020q0 66 -40 112t-95 46h-84q-55 0 -95 -46.5t-40 -111.5v-1020h-234v1020 q0 66 -40 112t-95 46h-84q-57 0 -96 -46.5t-39 -111.5l-2 -1020h-232z" />
<glyph unicode="n" d="M102 -2v1020q0 76 28 147.5t77 124.5t116.5 86t147.5 33h84q80 0 146.5 -33t115.5 -86t77 -124.5t28 -147.5v-1020h-232v1020q0 29 -9 56.5t-27.5 50t-43 37t-55.5 14.5h-84q-31 0 -55.5 -14.5t-43 -37t-27.5 -50t-9 -56.5v-1020h-234z" />
<glyph unicode="o" d="M102 389v633q0 80 29 151.5t79 124t117.5 83t143.5 30.5h84q76 0 142.5 -30.5t116.5 -83t79 -124t29 -151.5v-633q0 -80 -29 -151.5t-79 -124t-116.5 -83t-142.5 -30.5h-84q-76 0 -143.5 30.5t-117.5 83t-79 124t-29 151.5zM336 389q0 -66 39 -111t96 -45h84 q55 0 95 45.5t40 110.5v633q0 66 -40 112t-95 46h-84q-57 0 -96 -46.5t-39 -111.5v-633z" />
<glyph unicode="p" d="M102 -508v1528q0 76 28 147.5t77 125t116.5 86t147.5 32.5h84q80 0 146.5 -32.5t115.5 -86t77 -125t28 -147.5v-631q0 -78 -28 -148.5t-77 -125t-115.5 -86t-146.5 -31.5h-84q-70 0 -137 29v-535h-232zM336 389q0 -59 36 -108.5t99 -49.5h84q31 0 55.5 13.5t43 36 t27.5 51t9 57.5v631q0 29 -9 56.5t-27.5 50t-43 37t-55.5 14.5h-84q-63 0 -99 -50.5t-36 -107.5v-631z" />
<glyph unicode="q" d="M102 389v631q0 76 28 147.5t77 125t116.5 86t147.5 32.5h84q80 0 146.5 -32.5t115.5 -86t77 -125t28 -147.5v-1528h-232v535q-68 -29 -135 -29h-84q-80 0 -147.5 31.5t-116.5 86t-77 125t-28 148.5zM336 389q0 -59 36 -108.5t99 -49.5h84q31 0 55.5 13.5t43 36t27.5 51 t9 57.5v631q0 29 -9 56.5t-27.5 50t-43 37t-55.5 14.5h-84q-63 0 -99 -50.5t-36 -107.5v-631z" />
<glyph unicode="r" horiz-adv-x="827" d="M102 -2v1022q0 76 28 147.5t77 125t116.5 86t147.5 32.5h336v-233h-336q-61 0 -98 -49.5t-37 -106.5v-1024h-234z" />
<glyph unicode="s" horiz-adv-x="985" d="M82 391h233q0 -29 9.5 -58.5t27 -52t42 -37t57.5 -14.5h84q41 0 67.5 18.5t41.5 48.5t20.5 64.5t5.5 67.5q0 61 -16.5 97t-46 53.5t-69.5 21.5t-87 4q-84 0 -152 33t-116 89t-74.5 129t-26.5 153t26.5 152.5t74.5 127.5t116 89t152 34h84q80 0 147.5 -32.5t116.5 -87 t76.5 -126t27.5 -149.5h-233q0 29 -9.5 57.5t-27 52t-42 38t-56.5 14.5h-84q-37 0 -63 -16.5t-42 -41t-23.5 -56.5t-7.5 -63t9.5 -60.5t26 -53t42 -37.5t58.5 -14h84q86 0 153.5 -34t115.5 -90.5t73.5 -131t25.5 -154.5q0 -84 -23.5 -161t-69.5 -136t-114.5 -95t-160.5 -36 h-84q-80 0 -147.5 32.5t-117 87t-77 125t-27.5 148.5z" />
<glyph unicode="t" horiz-adv-x="710" d="M104 389v1528h234v-508h354v-231h-354v-789q0 -59 36 -108.5t99 -49.5h39v-233h-39q-80 0 -147.5 31.5t-116.5 86t-77 125t-28 148.5z" />
<glyph unicode="u" d="M102 387v1024h234v-1024q0 -66 39 -112t96 -46h84q55 0 95 46.5t40 111.5v1024h232v-1024q0 -80 -29 -151.5t-79 -124t-116.5 -83t-142.5 -30.5h-84q-76 0 -143.5 30.5t-117.5 83t-79 124t-29 151.5z" />
<glyph unicode="v" horiz-adv-x="1026" d="M102 387v1022h234v-1022q0 -57 36 -107.5t99 -50.5h219v1180h234v-1411h-453q-80 0 -147.5 31.5t-116.5 86t-77 124t-28 147.5z" />
<glyph unicode="w" horiz-adv-x="1613" d="M102 387v1022h236l-2 -1022q0 -66 39 -112t96 -46h84q55 0 95 46.5t40 111.5v1022h234v-1022q0 -66 40 -112t95 -46h84q55 0 95 46.5t40 111.5v1022h233v-1022q0 -80 -28.5 -151.5t-78.5 -124t-117.5 -83t-143.5 -30.5h-84q-74 0 -138.5 27.5t-113.5 78.5 q-49 -51 -114.5 -78.5t-137.5 -27.5h-84q-76 0 -143.5 30.5t-117.5 83t-79 124t-29 151.5z" />
<glyph unicode="x" horiz-adv-x="1026" d="M102 0v446q0 80 29 151t78 124q-49 53 -78 122.5t-29 149.5v418h234v-418q0 -66 39 -111.5t96 -45.5h86q55 0 95 46t40 111v418h232v-418q0 -80 -28 -149.5t-77 -122.5q49 -53 77 -124t28 -151v-448h-232v448q0 66 -40 112t-95 46h-86q-57 0 -96 -46t-39 -112v-446h-234z " />
<glyph unicode="y" d="M102 387v1022h234v-1022q0 -57 36 -107.5t99 -50.5h84q31 0 55.5 14.5t43 37t27.5 50t9 56.5v1022h232v-1528q0 -78 -28 -147.5t-77 -123.5t-115.5 -86t-146.5 -32h-221v232h221q31 0 55.5 14t43 36.5t27.5 50.5t9 56v144q-33 -14 -66.5 -20.5t-68.5 -6.5h-84 q-80 0 -147.5 31.5t-116.5 86t-77 124t-28 147.5z" />
<glyph unicode="z" horiz-adv-x="964" d="M72 389v60q0 76 27.5 146.5t76.5 124.5t116.5 86t147.5 32h84q35 0 60.5 15t42 41t24.5 56.5t8 61.5q0 29 -9 58.5t-25.5 53t-42 39t-58.5 15.5h-452v233h452q82 0 149.5 -32.5t117 -88t76 -128t26.5 -152.5v-15q0 -78 -27.5 -147.5t-77 -123.5t-117 -86t-147.5 -32h-84 q-63 0 -99 -50t-36 -107v-60q0 -59 36 -108.5t99 -49.5h453v-233h-453q-80 0 -147.5 31.5t-116.5 86t-76.5 125t-27.5 148.5z" />
<glyph unicode="{" horiz-adv-x="421" d="M2 662v176h117v655q0 76 27.5 146.5t76.5 125t117 86t147 31.5h43v-231h-43q-63 0 -99 -50.5t-36 -107.5q0 -393 -2 -779t2 -780v-24q0 -57 36 -106.5t99 -49.5h43v-233h-43q-80 0 -147.5 31.5t-116.5 86t-76.5 124t-27.5 147.5v752h-117z" />
<glyph unicode="|" horiz-adv-x="403" d="M117 -229v1874h176v-1874h-176z" />
<glyph unicode="}" horiz-adv-x="415" d="M-113 -246h45q61 0 98.5 49.5t37.5 106.5v1583q0 29 -10.5 56.5t-28 50t-42 37t-55.5 14.5h-45v231h45q80 0 146.5 -31.5t116 -86t77 -125t27.5 -146.5v-655h117v-176h-117v-752q0 -78 -27.5 -147.5t-77 -124t-116 -86t-146.5 -31.5h-45v233z" />
<glyph unicode="~" d="M104 1565v174h816v-174h-816z" />
<glyph unicode="&#xa1;" horiz-adv-x="364" d="M102 -217v1055h232v-1055h-232zM102 1020v174h232v-174h-232z" />
<glyph unicode="&#xa2;" horiz-adv-x="847" d="M72 610v197q0 66 20.5 126t55 109.5t84 85t106.5 54.5v235h174v-221h264v-233h-336q-57 0 -96 -45.5t-39 -110.5v-197q0 -66 39 -111.5t96 -45.5h336v-234h-264v-219h-174v236q-57 18 -106.5 53t-84 84t-55 109.5t-20.5 127.5z" />
<glyph unicode="&#xa3;" horiz-adv-x="1030" d="M20 635v176h117v209q0 80 29 151.5t79 125t117.5 84t143.5 30.5h86q76 0 142.5 -30.5t116.5 -84t78.5 -125t28.5 -151.5v-180h-231v180q0 66 -40 112t-95 46h-86q-57 0 -97 -46.5t-40 -111.5v-209h116v-176h-116v-402h589v-233h-821v635h-117z" />
<glyph unicode="&#xa4;" horiz-adv-x="911" d="M20 457v176h113v182h-113v174h113v33q0 80 28.5 151.5t79 124t118 83t143.5 30.5h336v-231h-336q-55 0 -95 -46.5t-40 -111.5v-33h233v-174h-233v-182h233v-176h-233v-68q0 -66 39.5 -111t95.5 -45h338v-233h-338q-76 0 -143.5 30.5t-118 83t-79 124t-28.5 151.5v68h-113 z" />
<glyph unicode="&#xa5;" horiz-adv-x="966" d="M72 995v416h233v-416q0 -66 40 -111.5t95 -45.5h86q55 0 95.5 46t40.5 111v416h233v-416q0 -72 -22.5 -135t-62.5 -113.5t-93 -85t-117 -49.5v-182h117v-174h-117v-258h-233v258h-117v174h117v182q-63 14 -116.5 49t-93.5 85.5t-62.5 114t-22.5 134.5z" />
<glyph unicode="&#xa6;" horiz-adv-x="372" d="M98 -229v839h176v-839h-176zM98 784v861h176v-861h-176z" />
<glyph unicode="&#xa7;" horiz-adv-x="954" d="M72 -76h233q0 -29 9.5 -58.5t26.5 -52t42 -37t57 -14.5h84q31 0 55.5 14.5t43 37t27.5 50t9 56.5v41q0 31 -8 62.5t-24.5 56t-42 41t-60.5 16.5h-84q-84 0 -151.5 33t-115.5 89t-74.5 129t-26.5 153q0 66 15 123t50 110q-35 55 -50 112.5t-15 123.5q0 80 26.5 152.5 t74.5 128t115.5 89t151.5 33.5h84q80 0 147.5 -32.5t117 -87t77 -126t27.5 -149.5h-234q0 29 -9 57.5t-26.5 52t-42 38t-57.5 14.5h-84q-37 0 -62.5 -16.5t-42 -41t-23.5 -56.5t-7 -62q0 -31 9.5 -60t25.5 -52.5t42 -37.5t58 -14h84q86 0 153.5 -34t116 -91.5t74 -132 t25.5 -154.5q0 -70 -10.5 -126t-46.5 -118q33 -53 45 -108.5t12 -116.5v-39q0 -78 -27.5 -147.5t-77 -124t-117 -86t-147.5 -31.5h-84q-80 0 -147.5 33t-116.5 87t-76.5 124.5t-27.5 148.5zM305 535q0 -31 9.5 -61t25.5 -53.5t42 -37.5t58 -14q59 0 107.5 -1t105.5 -24 q6 20 6 45v60q0 29 -9 56t-27.5 50t-43 37t-55.5 14q-57 0 -103 1t-99 20q-12 -23 -14.5 -45.5t-2.5 -46.5z" />
<glyph unicode="&#xa8;" d="M102 1565v174h234v-174h-234zM688 1565v174h234v-174h-234z" />
<glyph unicode="&#xa9;" horiz-adv-x="1175" d="M94 600v217q0 74 26.5 143.5t75 122t113 84t142.5 31.5h274q76 0 141.5 -31.5t113.5 -84t74.5 -122t26.5 -143.5v-217q0 -76 -26.5 -144.5t-74.5 -120.5t-113.5 -84t-141.5 -32h-274q-78 0 -142.5 32t-113 84t-75 120.5t-26.5 144.5zM248 600q0 -43 14 -84t41 -72.5 t65 -51t83 -19.5h274q45 0 83 19.5t64.5 51t41 72.5t14.5 84v217q0 43 -14.5 83t-41 73t-64.5 52t-83 19h-274q-45 0 -83 -19t-65 -52t-41 -73t-14 -83v-217zM446 604v211q0 55 37 98t97 43h122v-100h-122q-16 0 -25.5 -13.5t-9.5 -27.5v-211q0 -16 9 -28.5t26 -12.5h122 v-100h-122q-59 0 -96.5 43t-37.5 98z" />
<glyph unicode="&#xaa;" horiz-adv-x="589" d="M70 897v29q0 43 15 80.5t42 65.5t62.5 44.5t76.5 16.5h92v73q0 27 -14 44.5t-37 17.5h-180v145h180q41 0 77 -16.5t62.5 -44t42 -65.5t15.5 -81v-309q0 -43 -15.5 -80t-42 -65.5t-62.5 -45t-77 -16.5h-41q-41 0 -76.5 16.5t-62.5 45t-42 65.5t-15 80zM215 897 q0 -25 14.5 -42t36.5 -17h41q23 0 37 17t14 42v90h-92q-23 0 -37 -17.5t-14 -43.5v-29z" />
<glyph unicode="&#xab;" horiz-adv-x="978" d="M41 631v200l399 203v-198l-204 -105l204 -104v-199zM539 631v200l399 203v-198l-205 -105l205 -104v-199z" />
<glyph unicode="&#xac;" horiz-adv-x="1171" d="M61 430v174h1049v-430h-174v256h-875z" />
<glyph unicode="&#xad;" horiz-adv-x="870" d="M86 438v174h698v-174h-698z" />
<glyph unicode="&#xae;" horiz-adv-x="1175" d="M94 600v217q0 74 26.5 143.5t75 122t113 84t142.5 31.5h274q76 0 141.5 -31.5t113.5 -84t74.5 -122t26.5 -143.5v-217q0 -76 -26.5 -144.5t-74.5 -120.5t-113.5 -84t-141.5 -32h-274q-78 0 -142.5 32t-113 84t-75 120.5t-26.5 144.5zM248 600q0 -43 14 -84t41 -72.5 t65 -51t83 -19.5h274q45 0 83 19.5t64.5 51t41 72.5t14.5 84v217q0 43 -14.5 83t-41 73t-64.5 52t-83 19h-274q-45 0 -83 -19t-65 -52t-41 -73t-14 -83v-217zM440 463v491h162q63 0 98 -45t35 -104q0 -49 -33 -92q33 -39 33 -90v-160h-98v160q0 14 -9.5 27.5t-25.5 13.5h-63 v-201h-99zM539 764h63q23 0 29 17.5t6 33.5q0 14 -9.5 27.5t-25.5 13.5h-63v-92z" />
<glyph unicode="&#xaf;" d="M104 1565v174h816v-174h-816z" />
<glyph unicode="&#xb0;" horiz-adv-x="593" d="M82 895v309q0 43 15.5 80t42 64.5t61.5 44t75 16.5h41q41 0 77 -16.5t61.5 -44t41 -64.5t15.5 -80v-309q0 -43 -15.5 -80t-41 -64.5t-61.5 -44t-77 -16.5h-41q-41 0 -75.5 16.5t-61 44t-42 64.5t-15.5 80zM227 895q0 -25 14.5 -43t34.5 -18h41q23 0 37.5 18t14.5 43v309 q0 25 -14.5 42.5t-37.5 17.5h-41q-20 0 -34.5 -17.5t-14.5 -42.5v-309z" />
<glyph unicode="&#xb1;" horiz-adv-x="843" d="M72 10v176h700v-176h-700zM72 627v174h262v262h176v-262h262v-174h-262v-262h-176v262h-262z" />
<glyph unicode="&#xb2;" horiz-adv-x="552" d="M61 694v240q2 41 17.5 77t42 62.5t61.5 41.5t74 15h41q20 0 34.5 18.5t14.5 43.5v14q0 25 -14.5 42.5t-34.5 17.5h-41q-20 0 -34.5 -17.5t-14.5 -42.5v-18h-146v18q0 43 15.5 80t42 64.5t61.5 44t76 16.5h41q39 0 75 -16.5t62.5 -44t42 -64.5t15.5 -80v-16 q0 -43 -16.5 -80t-42 -64.5t-61.5 -43t-75 -15.5h-41q-20 0 -34.5 -17.5t-14.5 -43.5v-88h282v-144h-428z" />
<glyph unicode="&#xb3;" horiz-adv-x="552" d="M61 901v37h146v-37q0 -25 14.5 -42t34.5 -17h41q20 0 34.5 17.5t14.5 41.5v29q0 27 -14.5 44t-34.5 17h-43v144h43q20 0 34.5 18t14.5 43v12q0 25 -14.5 42.5t-34.5 17.5h-41q-20 0 -34.5 -17.5t-14.5 -42.5v-18h-146v18q0 43 15.5 80t42 64.5t61.5 44t76 16.5h41 q39 0 75 -16.5t62.5 -44t42 -64.5t15.5 -80v-12q0 -74 -50 -133q49 -59 50 -133v-29q-4 -84 -59.5 -143.5t-135.5 -59.5h-41q-41 0 -76 15.5t-61.5 43t-42 64.5t-15.5 80z" />
<glyph unicode="&#xb4;" horiz-adv-x="430" d="M82 1477l182 348h174l-182 -348h-174z" />
<glyph unicode="&#xb5;" d="M-78 -274h45q37 0 63.5 16t42 43t22.5 59.5t7 63.5v1505h234v-1024q0 -57 37 -106.5t98 -49.5h84q61 0 98 49.5t37 106.5v1024h232v-1024q0 -78 -28 -147.5t-77 -124t-115.5 -86t-146.5 -31.5h-84q-74 0 -135 27v-162q0 -74 -28.5 -141.5t-79 -118.5t-118 -82t-143.5 -31 h-45v234z" />
<glyph unicode="&#xb6;" horiz-adv-x="1171" d="M72 610v801h630q76 0 142.5 -30.5t117 -83t79 -124t28.5 -151.5v-1262h-231v846h-242v-846h-174v850h-350zM246 838h176v346h-176v-346zM596 838h242v184q0 66 -40 112t-96 46h-84q-6 0 -11 -1t-11 -1v-340z" />
<glyph unicode="&#xb7;" horiz-adv-x="438" d="M102 696v234h234v-234h-234z" />
<glyph unicode="&#xb8;" horiz-adv-x="364" d="M102 109h234v-412h-234v412z" />
<glyph unicode="&#xb9;" horiz-adv-x="360" d="M111 690v719h139v-719h-139z" />
<glyph unicode="&#xba;" horiz-adv-x="618" d="M92 895v309q0 43 15.5 80t42 64.5t61.5 44t76 16.5h41q39 0 74.5 -16.5t62.5 -44t42 -64.5t15 -80v-309q0 -43 -15 -80t-42 -64.5t-62.5 -44t-74.5 -16.5h-41q-41 0 -76 16.5t-61.5 44t-42 64.5t-15.5 80zM238 895q0 -25 14 -43t35 -18h41q20 0 34.5 18t14.5 43v309 q0 25 -14.5 42.5t-34.5 17.5h-41q-20 0 -34.5 -17.5t-14.5 -42.5v-309z" />
<glyph unicode="&#xbb;" horiz-adv-x="978" d="M41 428v199l205 104l-205 105v198l399 -203v-200zM539 428v199l204 104l-204 105v198l399 -203v-200z" />
<glyph unicode="&#xbc;" horiz-adv-x="1075" d="M74 690v719h139v-719h-139zM90 0l459 1411h174l-459 -1411h-174zM573 498v217h144v-217q0 -27 14 -44.5t37 -17.5h90v279h143v-717h-143v295h-90q-41 0 -77 15.5t-61.5 43t-41 65.5t-15.5 81z" />
<glyph unicode="&#xbd;" horiz-adv-x="1075" d="M92 690v719h139v-719h-139zM109 0l458 1411h174l-458 -1411h-174zM555 0v240q0 41 15.5 76.5t42 62.5t61.5 42t74 15h40q23 0 37.5 17.5t14.5 42.5v14q0 27 -14.5 44t-37.5 17h-40q-20 0 -35 -17t-15 -44v-16h-143v16q0 43 15.5 80t41 64.5t60.5 44t76 16.5h40 q39 0 75 -16.5t62.5 -44t42 -64.5t15.5 -80v-16q0 -41 -15.5 -78t-42 -64.5t-62.5 -44t-75 -16.5h-40q-20 0 -35 -17.5t-15 -42.5v-88h283v-143h-426z" />
<glyph unicode="&#xbe;" horiz-adv-x="1249" d="M66 901v37h143v-37q0 -25 14.5 -42t36.5 -17h41q20 0 34.5 17.5t14.5 41.5v29q0 27 -14 44t-35 17h-43v144h43q20 0 34.5 18t14.5 43v12q0 25 -14 42.5t-35 17.5h-41q-23 0 -37 -17.5t-14 -42.5v-18h-143v18q0 43 15 80t42 64.5t61.5 44t75.5 16.5h41q39 0 75 -16.5 t61.5 -44t41 -64.5t15.5 -80v-12q0 -76 -48 -133q47 -57 48 -133v-29q0 -43 -16.5 -80t-42 -64.5t-60.5 -43t-74 -15.5h-41q-41 0 -75.5 15.5t-61.5 43t-42 64.5t-15 80zM274 0l459 1411h174l-458 -1411h-175zM754 498v217h145v-217q0 -27 14.5 -44.5t34.5 -17.5h90v279h146 v-717h-146v295h-90q-41 0 -75.5 15.5t-61.5 43t-42 65.5t-15 81z" />
<glyph unicode="&#xbf;" horiz-adv-x="1005" d="M102 383v33q0 68 20.5 130t59.5 112.5t93.5 87t121.5 51.5l-2 264h236v-488q-57 0 -110.5 1t-94.5 -13t-65.5 -53t-24.5 -119q0 -57 36 -106.5t99 -49.5h84q39 0 65.5 17.5t42 45.5t21.5 60.5t6 65.5h232v-33q0 -78 -28 -147.5t-77 -124t-115.5 -86t-146.5 -31.5h-84 q-80 0 -146.5 31.5t-114.5 84t-77 122t-31 145.5zM397 1237v174h232v-174h-232z" />
<glyph unicode="&#xc0;" d="M102 0h234v606h354v-606h232v1022q0 80 -29 151.5t-79 124t-116.5 83t-142.5 30.5h-84q-76 0 -143.5 -30.5t-117.5 -83t-79 -124t-29 -151.5v-1022zM285 1880h174l182 -348h-174zM336 838v184q0 66 39 112t96 46h84q55 0 95 -46.5t40 -111.5v-184h-354z" />
<glyph unicode="&#xc1;" d="M102 0v1022q0 80 29 151.5t79 124t117.5 83t143.5 30.5h84q76 0 142.5 -30.5t116.5 -83t79 -124t29 -151.5v-1022h-232v606h-354v-606h-234zM336 838h354v184q0 66 -40 112t-95 46h-84q-57 0 -96 -46.5t-39 -111.5v-184zM440 1509l183 349h174l-183 -349h-174z" />
<glyph unicode="&#xc2;" d="M102 0v1022q0 80 29 151.5t79 124t117.5 83t143.5 30.5h84q76 0 142.5 -30.5t116.5 -83t79 -124t29 -151.5v-1022h-232v606h-354v-606h-234zM246 1567l178 348h176l178 -348h-174l-92 178l-90 -178h-176zM336 838h354v184q0 66 -40 112t-95 46h-84q-57 0 -96 -46.5 t-39 -111.5v-184z" />
<glyph unicode="&#xc3;" d="M102 0v1022q0 80 29 151.5t79 124t117.5 83t143.5 30.5h84q76 0 142.5 -30.5t116.5 -83t79 -124t29 -151.5v-1022h-232v606h-354v-606h-234zM104 1565v174h816v-174h-816zM336 838h354v184q0 66 -40 112t-95 46h-84q-57 0 -96 -46.5t-39 -111.5v-184z" />
<glyph unicode="&#xc4;" d="M102 0v1022q0 80 29 151.5t79 124t117.5 83t143.5 30.5h84q76 0 142.5 -30.5t116.5 -83t79 -124t29 -151.5v-1022h-232v606h-354v-606h-234zM102 1565v174h234v-174h-234zM336 838h354v184q0 66 -40 112t-95 46h-84q-57 0 -96 -46.5t-39 -111.5v-184zM690 1565v174h232 v-174h-232z" />
<glyph unicode="&#xc5;" d="M102 0v1022q0 80 29 151.5t79 124t117.5 83t143.5 30.5h84q76 0 142.5 -30.5t116.5 -83t79 -124t29 -151.5v-1022h-232v606h-354v-606h-234zM336 838h354v184q0 66 -40 112t-95 46h-84q-57 0 -96 -46.5t-39 -111.5v-184zM338 1651q0 72 51 123t123 51t123 -51t51 -123 q0 -74 -51 -125t-123 -51t-123 51t-51 125zM426 1651q0 -37 25.5 -62.5t60.5 -25.5q37 0 62.5 25.5t25.5 62.5q0 35 -25.5 60.5t-62.5 25.5q-35 0 -60.5 -25.5t-25.5 -60.5z" />
<glyph unicode="&#xc6;" horiz-adv-x="1466" d="M102 0v1022q0 80 29 151.5t79 124t117.5 83t143.5 30.5h84q72 0 136.5 -27.5t115.5 -78.5q49 51 113.5 78.5t138.5 27.5h336v-231h-336q-57 0 -97 -46.5t-40 -111.5v-184h356v-232h-356v-217q0 -66 39.5 -111t97.5 -45h336v-233h-336q-78 0 -144.5 30.5t-116.5 83 t-79 124t-29 151.5v217h-354v-606h-234zM336 838h354v184q0 66 -40 112t-95 46h-84q-57 0 -96 -46.5t-39 -111.5v-184z" />
<glyph unicode="&#xc7;" horiz-adv-x="878" d="M102 389v633q0 80 29 151.5t79 124t117.5 83t143.5 30.5h336v-231h-336q-57 0 -96 -46.5t-39 -111.5v-633q0 -66 39 -111t96 -45h336v-473h-232v240h-104q-76 0 -143.5 30.5t-117.5 83t-79 124t-29 151.5z" />
<glyph unicode="&#xc8;" horiz-adv-x="878" d="M102 389q0 -80 29 -151.5t79 -124t117.5 -83t143.5 -30.5h336v233h-336q-57 0 -96 45.5t-39 110.5v217h354v232h-354v184q0 66 39 112t96 46h336v231h-336q-76 0 -143.5 -30.5t-117.5 -83t-79 -124t-29 -151.5v-633zM190 1825h175l182 -348h-174z" />
<glyph unicode="&#xc9;" horiz-adv-x="878" d="M102 389v633q0 80 29 151.5t79 124t117.5 83t143.5 30.5h336v-231h-336q-57 0 -96 -46.5t-39 -111.5v-184h354v-232h-354v-217q0 -66 39 -111t96 -45h336v-233h-336q-76 0 -143.5 30.5t-117.5 83t-79 124t-29 151.5zM387 1477l182 348h174l-182 -348h-174z" />
<glyph unicode="&#xca;" horiz-adv-x="878" d="M102 389v633q0 80 29 151.5t79 124t117.5 83t143.5 30.5h336v-231h-336q-57 0 -96 -46.5t-39 -111.5v-184h354v-232h-354v-217q0 -66 39 -111t96 -45h336v-233h-336q-76 0 -143.5 30.5t-117.5 83t-79 124t-29 151.5zM246 1569l178 348h176l178 -348h-174l-92 178 l-90 -178h-176z" />
<glyph unicode="&#xcb;" horiz-adv-x="884" d="M102 389v633q0 80 29 151.5t79 124t117.5 83t143.5 30.5h336v-231h-336q-57 0 -96 -46.5t-39 -111.5v-184h354v-232h-354v-217q0 -66 39 -111t96 -45h336v-233h-336q-76 0 -143.5 30.5t-117.5 83t-79 124t-29 151.5zM102 1565v174h234v-174h-234zM580 1565v174h233v-174 h-233z" />
<glyph unicode="&#xcc;" horiz-adv-x="436" d="M61 1845h175l182 -348h-174zM209 0h233v1411h-233v-1411z" />
<glyph unicode="&#xcd;" horiz-adv-x="436" d="M98 0v1411h232v-1411h-232zM129 1501l180 348h176l-182 -348h-174z" />
<glyph unicode="&#xce;" horiz-adv-x="436" d="M-14 1477l178 348h176l178 -348h-176l-90 178l-92 -178h-174zM139 0v1411h232v-1411h-232z" />
<glyph unicode="&#xcf;" horiz-adv-x="436" d="M-135 1565v174h233v-174h-233zM102 0v1411h234v-1411h-234zM340 1565v174h233v-174h-233z" />
<glyph unicode="&#xd0;" horiz-adv-x="1062" d="M20 635v176h117v600h455q76 0 143.5 -30.5t117.5 -84t79 -125t29 -151.5v-631q0 -80 -29 -151.5t-79 -124t-117.5 -83t-143.5 -30.5h-455v635h-117zM369 233h223q55 0 95 45.5t40 110.5v631q0 66 -40 112t-95 46h-223v-367h116v-176h-116v-402z" />
<glyph unicode="&#xd1;" d="M102 0v1411h236l352 -666v666h232v-1411h-232v403l-350 568v-971h-238zM104 1565v174h816v-174h-816z" />
<glyph unicode="&#xd2;" d="M102 389q0 -80 29 -151.5t79 -124t117.5 -83t143.5 -30.5h84q76 0 142.5 30.5t116.5 83t79 124t29 151.5v633q0 80 -29 151.5t-79 124t-116.5 83t-142.5 30.5h-84q-76 0 -143.5 -30.5t-117.5 -83t-79 -124t-29 -151.5v-633zM227 1825h174l183 -348h-174zM336 389v633 q0 66 39 112t96 46h84q55 0 95 -46.5t40 -111.5v-633q0 -66 -40 -111t-95 -45h-84q-57 0 -96 45.5t-39 110.5z" />
<glyph unicode="&#xd3;" d="M102 389v633q0 80 29 151.5t79 124t117.5 83t143.5 30.5h84q76 0 142.5 -30.5t116.5 -83t79 -124t29 -151.5v-633q0 -80 -29 -151.5t-79 -124t-116.5 -83t-142.5 -30.5h-84q-76 0 -143.5 30.5t-117.5 83t-79 124t-29 151.5zM336 389q0 -66 39 -111t96 -45h84 q55 0 95 45.5t40 110.5v633q0 66 -40 112t-95 46h-84q-57 0 -96 -46.5t-39 -111.5v-633zM440 1477l183 348h174l-183 -348h-174z" />
<glyph unicode="&#xd4;" d="M102 389v633q0 80 29 151.5t79 124t117.5 83t143.5 30.5h84q76 0 142.5 -30.5t116.5 -83t79 -124t29 -151.5v-633q0 -80 -29 -151.5t-79 -124t-116.5 -83t-142.5 -30.5h-84q-76 0 -143.5 30.5t-117.5 83t-79 124t-29 151.5zM246 1477l178 348h176l178 -348h-174l-92 178 l-90 -178h-176zM336 389q0 -66 39 -111t96 -45h84q55 0 95 45.5t40 110.5v633q0 66 -40 112t-95 46h-84q-57 0 -96 -46.5t-39 -111.5v-633z" />
<glyph unicode="&#xd5;" d="M102 389v633q0 80 29 151.5t79 124t117.5 83t143.5 30.5h84q76 0 142.5 -30.5t116.5 -83t79 -124t29 -151.5v-633q0 -80 -29 -151.5t-79 -124t-116.5 -83t-142.5 -30.5h-84q-76 0 -143.5 30.5t-117.5 83t-79 124t-29 151.5zM104 1565v174h816v-174h-816zM336 389 q0 -66 39 -111t96 -45h84q55 0 95 45.5t40 110.5v633q0 66 -40 112t-95 46h-84q-57 0 -96 -46.5t-39 -111.5v-633z" />
<glyph unicode="&#xd6;" d="M102 389v633q0 80 29 151.5t79 124t117.5 83t143.5 30.5h84q76 0 142.5 -30.5t116.5 -83t79 -124t29 -151.5v-633q0 -80 -29 -151.5t-79 -124t-116.5 -83t-142.5 -30.5h-84q-76 0 -143.5 30.5t-117.5 83t-79 124t-29 151.5zM102 1565v174h234v-174h-234zM336 389 q0 -66 39 -111t96 -45h84q55 0 95 45.5t40 110.5v633q0 66 -40 112t-95 46h-84q-57 0 -96 -46.5t-39 -111.5v-633zM690 1565v174h232v-174h-232z" />
<glyph unicode="&#xd7;" horiz-adv-x="798" d="M102 340l187 186l-187 185l125 123l185 -185l184 185l125 -123l-186 -185l186 -186l-125 -123l-184 184l-185 -184z" />
<glyph unicode="&#xd8;" d="M102 389v633q0 74 25 140.5t69 118.5t103 85t127 43v236h174v-236q68 -10 126 -43t102 -85t69 -118.5t25 -140.5v-633q0 -74 -25 -140.5t-69 -118.5t-102 -86t-126 -42v-231h-174v231q-68 8 -127 42t-103 86t-69 118.5t-25 140.5zM336 389q0 -51 24.5 -91t65.5 -56v927 q-41 -16 -65.5 -56t-24.5 -91v-633zM600 242q39 16 64.5 56t25.5 91v633q0 51 -25.5 91t-64.5 56v-927z" />
<glyph unicode="&#xd9;" d="M102 389q0 -80 29 -151.5t79 -125t117.5 -84t143.5 -30.5h84q76 0 142.5 30.5t116.5 84t79 125t29 151.5v1020h-232v-1020q0 -66 -40 -112t-95 -46h-84q-57 0 -96 46.5t-39 111.5v1020h-234v-1020zM227 1825h174l183 -348h-174z" />
<glyph unicode="&#xda;" d="M102 389v1020h234v-1020q0 -66 39 -112t96 -46h84q55 0 95 46.5t40 111.5v1020h232v-1020q0 -80 -29 -151.5t-79 -125t-116.5 -84t-142.5 -30.5h-84q-76 0 -143.5 30.5t-117.5 84t-79 125t-29 151.5zM440 1477l183 348h174l-183 -348h-174z" />
<glyph unicode="&#xdb;" d="M102 389v1020h234v-1020q0 -66 39 -112t96 -46h84q55 0 95 46.5t40 111.5v1020h232v-1020q0 -80 -29 -151.5t-79 -125t-116.5 -84t-142.5 -30.5h-84q-76 0 -143.5 30.5t-117.5 84t-79 125t-29 151.5zM246 1477l178 348h176l178 -348h-174l-92 178l-90 -178h-176z" />
<glyph unicode="&#xdc;" d="M102 389v1020h234v-1020q0 -66 39 -112t96 -46h84q55 0 95 46.5t40 111.5v1020h232v-1020q0 -80 -29 -151.5t-79 -125t-116.5 -84t-142.5 -30.5h-84q-76 0 -143.5 30.5t-117.5 84t-79 125t-29 151.5zM102 1565v174h234v-174h-234zM690 1565v174h232v-174h-232z" />
<glyph unicode="&#xdd;" horiz-adv-x="1026" d="M72 995v416h233v-416q0 -66 39 -111.5t96 -45.5h86q55 0 95.5 46t40.5 111v416h231v-416q0 -72 -22.5 -135t-62.5 -113.5t-93 -85t-117 -49.5v-614h-231v614q-63 14 -116.5 49t-93.5 85.5t-62.5 114t-22.5 134.5zM410 1477l182 348h174l-182 -348h-174z" />
<glyph unicode="&#xde;" horiz-adv-x="1001" d="M102 0v1411h232v-215h229q76 0 142.5 -30.5t116.5 -83t79 -124t29 -151.5v-197q0 -80 -29 -151.5t-79 -124.5t-116.5 -84t-142.5 -31h-229v-219h-232zM334 453h229q55 0 95 46t40 111v197q0 66 -40 111t-95 45h-229v-510z" />
<glyph unicode="&#xdf;" horiz-adv-x="1318" d="M-70 -274h39q31 0 55.5 14t43 36.5t27.5 50.5t9 56v1139q0 78 27 148.5t76 124t116.5 85t149.5 31.5h82q78 0 144.5 -31.5t115.5 -84t78 -122t31 -145.5h-234q-2 55 -39 102.5t-96 47.5h-82q-61 0 -97 -46.5t-38 -103.5q-2 -35 -2 -68.5v-68.5v-37v-10t2 -6h352v-93 q0 -57 38 -102t97 -45h84q86 0 153.5 -34t116 -91t74 -132t25.5 -155v-36q0 -78 -27.5 -149t-77 -125t-117 -86t-147.5 -32h-78q-82 0 -150.5 32t-118.5 86t-77.5 126t-27.5 152h233q0 -29 9.5 -58.5t26.5 -52.5t42 -37t57 -14h84q31 0 55.5 13t43 35.5t27.5 51.5t9 58v40 q0 31 -8 62t-24.5 56.5t-42 41t-60.5 15.5h-84q-115 0 -207 67.5t-133 171.5h-147v-704q0 -80 -25.5 -154t-74 -130t-117 -90t-152.5 -34h-39v234z" />
<glyph unicode="&#xe0;" horiz-adv-x="983" d="M61 446q0 -86 21.5 -165.5t66 -143t114 -101.5t167.5 -38h84q80 0 146.5 32.5t115.5 86t77 124t28 148.5v631q0 76 -28 147.5t-77 125t-115.5 86t-146.5 32.5h-338v-233h338q31 0 55.5 -14.5t43 -37t27.5 -50t9 -56.5v-184h-219q-80 0 -147.5 -32t-116.5 -86t-77 -125 t-28 -147zM164 1919h174l182 -348h-174zM295 389v57q0 29 9 56.5t27.5 50t43 37t55.5 14.5h219v-215q0 -29 -9 -56.5t-27.5 -50t-43 -37t-55.5 -14.5h-84q-31 0 -55.5 14.5t-43 37t-27.5 50t-9 56.5z" />
<glyph unicode="&#xe1;" horiz-adv-x="983" d="M61 446q0 76 28 147t77 125t116.5 86t147.5 32h219v184q0 29 -9 56.5t-27.5 50t-43 37t-55.5 14.5h-338v233h338q80 0 146.5 -32.5t115.5 -86t77 -125t28 -147.5v-631q0 -78 -28 -148.5t-77 -124t-115.5 -86t-146.5 -32.5h-84q-98 0 -167.5 38t-114 101.5t-66 143 t-21.5 165.5zM295 389q0 -29 9 -56.5t27.5 -50t43 -37t55.5 -14.5h84q31 0 55.5 14.5t43 37t27.5 50t9 56.5v215h-219q-63 0 -99 -50t-36 -108v-57zM377 1567l182 348h174l-182 -348h-174z" />
<glyph unicode="&#xe2;" horiz-adv-x="983" d="M61 446q0 76 28 147t77 125t116.5 86t147.5 32h219v184q0 29 -9 56.5t-27.5 50t-43 37t-55.5 14.5h-338v233h338q80 0 146.5 -32.5t115.5 -86t77 -125t28 -147.5v-631q0 -78 -28 -148.5t-77 -124t-115.5 -86t-146.5 -32.5h-84q-98 0 -167.5 38t-114 101.5t-66 143 t-21.5 165.5zM205 1569l178 348h176l178 -348h-174l-92 178l-90 -178h-176zM295 389q0 -29 9 -56.5t27.5 -50t43 -37t55.5 -14.5h84q31 0 55.5 14.5t43 37t27.5 50t9 56.5v215h-219q-31 0 -55.5 -14.5t-43 -37t-27.5 -50t-9 -56.5v-57z" />
<glyph unicode="&#xe3;" horiz-adv-x="983" d="M61 446q0 76 28 147t77 125t116.5 86t147.5 32h219v184q0 29 -9 56.5t-27.5 50t-43 37t-55.5 14.5h-338v233h338q80 0 146.5 -32.5t115.5 -86t77 -125t28 -147.5v-631q0 -78 -28 -148.5t-77 -124t-115.5 -86t-146.5 -32.5h-84q-98 0 -167.5 38t-114 101.5t-66 143 t-21.5 165.5zM63 1565v174h816v-174h-816zM295 389q0 -29 9 -56.5t27.5 -50t43 -37t55.5 -14.5h84q31 0 55.5 14.5t43 37t27.5 50t9 56.5v215h-219q-31 0 -55.5 -14.5t-43 -37t-27.5 -50t-9 -56.5v-57z" />
<glyph unicode="&#xe4;" horiz-adv-x="983" d="M61 446q0 76 28 147t77 125t116.5 86t147.5 32h219v184q0 29 -9 56.5t-27.5 50t-43 37t-55.5 14.5h-338v233h338q80 0 146.5 -32.5t115.5 -86t77 -125t28 -147.5v-631q0 -78 -28 -148.5t-77 -124t-115.5 -86t-146.5 -32.5h-84q-98 0 -167.5 38t-114 101.5t-66 143 t-21.5 165.5zM61 1565v174h234v-174h-234zM295 389q0 -29 9 -56.5t27.5 -50t43 -37t55.5 -14.5h84q31 0 55.5 14.5t43 37t27.5 50t9 56.5v215h-219q-31 0 -55.5 -14.5t-43 -37t-27.5 -50t-9 -56.5v-57zM649 1565v174h232v-174h-232z" />
<glyph unicode="&#xe5;" horiz-adv-x="983" d="M61 446q0 76 28 147t77 125t116.5 86t147.5 32h219v184q0 29 -9 56.5t-27.5 50t-43 37t-55.5 14.5h-338v233h338q80 0 146.5 -32.5t115.5 -86t77 -125t28 -147.5v-631q0 -78 -28 -148.5t-77 -124t-115.5 -86t-146.5 -32.5h-84q-98 0 -167.5 38t-114 101.5t-66 143 t-21.5 165.5zM295 389q0 -29 9 -56.5t27.5 -50t43 -37t55.5 -14.5h84q31 0 55.5 14.5t43 37t27.5 50t9 56.5v215h-219q-31 0 -55.5 -14.5t-43 -37t-27.5 -50t-9 -56.5v-57zM297 1651q0 72 51 123t123 51t123 -51t51 -123q0 -74 -51 -125t-123 -51t-123 51t-51 125zM385 1651 q0 -37 25.5 -62.5t60.5 -25.5q37 0 62.5 25.5t25.5 62.5q0 35 -25.5 60.5t-62.5 25.5q-35 0 -60.5 -25.5t-25.5 -60.5z" />
<glyph unicode="&#xe6;" horiz-adv-x="1572" d="M61 389v60q0 76 28 146.5t77 124.5t116.5 86t147.5 32h219v184q0 29 -9 56.5t-27.5 50t-43 37t-55.5 14.5h-338v231h338q72 0 136.5 -27.5t115.5 -78.5q39 39 77 60t78 31.5t85 12.5t96 2q80 0 147.5 -31.5t116.5 -86t76.5 -125t27.5 -146.5v-416h-587v-217 q0 -57 36.5 -106.5t98.5 -49.5h84l250 -2v-231h-199l-166 2q-63 4 -119.5 31.5t-101.5 72.5q-39 -39 -77 -60t-79 -31.5t-85 -12.5t-95 -2q-80 0 -147.5 31.5t-116.5 86t-77 124t-28 147.5zM295 389q0 -57 36 -106.5t99 -49.5h84q61 0 98 49.5t37 106.5v217h-219 q-63 0 -99 -50t-36 -107v-60zM883 838h354v184q0 29 -9 56.5t-27.5 50t-43 37t-55.5 14.5h-84q-31 0 -55.5 -14.5t-43 -37t-27.5 -50t-9 -56.5v-184z" />
<glyph unicode="&#xe7;" horiz-adv-x="878" d="M102 389v633q0 80 29 151.5t79 124t117.5 83t143.5 30.5h336v-231h-336q-57 0 -96 -46.5t-39 -111.5v-633q0 -66 39 -111t96 -45h336v-473h-232v240h-104q-76 0 -143.5 30.5t-117.5 83t-79 124t-29 151.5z" />
<glyph unicode="&#xe8;" d="M102 389q0 -74 26 -143.5t71 -123.5t106.5 -88t132.5 -34l213 -2h154v233h-250q-43 0 -83 4.5t-69.5 19.5t-48 47t-18.5 87v215h586v416q0 76 -28 147.5t-77 125t-115.5 86t-146.5 32.5h-84q-80 0 -147.5 -32.5t-116.5 -86t-77 -125t-28 -147.5v-631zM238 1825h174 l182 -348h-174zM336 836v184q0 57 36 107.5t99 50.5h84q31 0 55.5 -14.5t43 -37t27.5 -50t9 -56.5v-184h-354z" />
<glyph unicode="&#xe9;" d="M102 389v631q0 76 28 147.5t77 125t116.5 86t147.5 32.5h84q80 0 146.5 -32.5t115.5 -86t77 -125t28 -147.5v-416h-586v-215q0 -55 18.5 -87t48 -47t69.5 -19.5t83 -4.5h250v-233h-154l-213 2q-72 0 -133 34t-106 88t-71 123.5t-26 143.5zM336 836h354v184q0 29 -9 56.5 t-27.5 50t-43 37t-55.5 14.5h-84q-63 0 -99 -50.5t-36 -107.5v-184zM440 1477l183 348h174l-183 -348h-174z" />
<glyph unicode="&#xea;" d="M102 389v631q0 76 28 147.5t77 125t116.5 86t147.5 32.5h84q80 0 146.5 -32.5t115.5 -86t77 -125t28 -147.5v-416h-586v-215q0 -55 18.5 -87t48 -47t69.5 -19.5t83 -4.5h250v-233h-154l-213 2q-72 0 -133 34t-106 88t-71 123.5t-26 143.5zM225 1477l178 348h177l178 -348 h-174l-92 178l-91 -178h-176zM336 836h354v184q0 29 -9 56.5t-27.5 50t-43 37t-55.5 14.5h-84q-63 0 -99 -50.5t-36 -107.5v-184z" />
<glyph unicode="&#xeb;" d="M102 389v631q0 76 28 147.5t77 125t116.5 86t147.5 32.5h84q80 0 146.5 -32.5t115.5 -86t77 -125t28 -147.5v-416h-586v-215q0 -55 18.5 -87t48 -47t69.5 -19.5t83 -4.5h250v-233h-154l-213 2q-72 0 -133 34t-106 88t-71 123.5t-26 143.5zM102 1565v174h234v-174h-234z M336 836h354v184q0 29 -9 56.5t-27.5 50t-43 37t-55.5 14.5h-84q-63 0 -99 -50.5t-36 -107.5v-184zM690 1565v174h232v-174h-232z" />
<glyph unicode="&#xec;" horiz-adv-x="538" d="M25 1907h174l182 -348h-174zM135 371v1040h234q2 -252 1 -499.5t-1 -497.5q0 -98 42 -141.5t140 -41.5v-233h-47q-76 0 -141.5 30.5t-114.5 82t-79 119t-32 141.5h-2z" />
<glyph unicode="&#xed;" horiz-adv-x="538" d="M104 371v1040h234q2 -252 1 -499.5t-1 -497.5q0 -98 42 -141.5t140 -41.5v-233h-47q-76 0 -141.5 30.5t-114.5 82t-78.5 119t-32.5 141.5h-2zM145 1538l183 348h174l-183 -348h-174z" />
<glyph unicode="&#xee;" horiz-adv-x="538" d="M-49 1561l178 348h176l178 -348h-174l-92 178l-90 -178h-176zM94 371v1040h234q2 -252 1 -499.5t-1 -497.5q0 -98 42 -141.5t140 -41.5v-233h-47q-76 0 -141.5 30.5t-114.5 82t-79 119t-32 141.5h-2z" />
<glyph unicode="&#xef;" horiz-adv-x="538" d="M-242 1565v174h234v-174h-234zM45 371v1040h234q2 -252 1 -499.5t-1 -497.5q0 -98 41.5 -141.5t140.5 -41.5v-233h-47q-76 0 -141.5 30.5t-114.5 82t-79 119t-32 141.5h-2zM344 1565v174h234v-174h-234z" />
<glyph unicode="&#xf0;" horiz-adv-x="1028" d="M102 387v631q0 78 28 148.5t77 125t116.5 86t147.5 31.5h84q68 0 135 -29q0 96 1 155.5t-32 90.5l-61 -72h-190l108 129q-35 2 -80 1t-102 -1v232h221q72 0 135 -29l43 51l193 -2l-115 -133q33 -16 54.5 -47t33.5 -68.5t17.5 -79.5t5.5 -81v-1139q0 -78 -28 -148.5 t-77 -124t-115.5 -86t-146.5 -32.5h-84q-80 0 -147.5 32.5t-116.5 86t-77 124t-28 148.5zM336 387q0 -57 36 -107.5t99 -50.5h84q31 0 55.5 14.5t43 37t27.5 50t9 56.5v631q0 29 -9 57.5t-27.5 51t-43 36t-55.5 13.5h-84q-63 0 -99 -49.5t-36 -108.5v-631z" />
<glyph unicode="&#xf1;" d="M102 -2v1020q0 76 28 147.5t77 124.5t116.5 86t147.5 33h84q80 0 146.5 -33t115.5 -86t77 -124.5t28 -147.5v-1020h-232v1020q0 29 -9 56.5t-27.5 50t-43 37t-55.5 14.5h-84q-31 0 -55.5 -14.5t-43 -37t-27.5 -50t-9 -56.5v-1020h-234zM104 1565v174h816v-174h-816z" />
<glyph unicode="&#xf2;" d="M102 389q0 -80 29 -151.5t79 -124t117.5 -83t143.5 -30.5h84q76 0 142.5 30.5t116.5 83t79 124t29 151.5v633q0 80 -29 151.5t-79 124t-116.5 83t-142.5 30.5h-84q-76 0 -143.5 -30.5t-117.5 -83t-79 -124t-29 -151.5v-633zM227 1825h174l183 -348h-174zM336 389v633 q0 66 39 112t96 46h84q55 0 95 -46.5t40 -111.5v-633q0 -66 -40 -111t-95 -45h-84q-57 0 -96 45.5t-39 110.5z" />
<glyph unicode="&#xf3;" d="M102 389v633q0 80 29 151.5t79 124t117.5 83t143.5 30.5h84q76 0 142.5 -30.5t116.5 -83t79 -124t29 -151.5v-633q0 -80 -29 -151.5t-79 -124t-116.5 -83t-142.5 -30.5h-84q-76 0 -143.5 30.5t-117.5 83t-79 124t-29 151.5zM336 389q0 -66 39 -111t96 -45h84 q55 0 95 45.5t40 110.5v633q0 66 -40 112t-95 46h-84q-57 0 -96 -46.5t-39 -111.5v-633zM440 1477l183 348h174l-183 -348h-174z" />
<glyph unicode="&#xf4;" d="M102 389v633q0 80 29 151.5t79 124t117.5 83t143.5 30.5h84q76 0 142.5 -30.5t116.5 -83t79 -124t29 -151.5v-633q0 -80 -29 -151.5t-79 -124t-116.5 -83t-142.5 -30.5h-84q-76 0 -143.5 30.5t-117.5 83t-79 124t-29 151.5zM246 1477l178 348h176l178 -348h-174l-92 178 l-90 -178h-176zM336 389q0 -66 39 -111t96 -45h84q55 0 95 45.5t40 110.5v633q0 66 -40 112t-95 46h-84q-57 0 -96 -46.5t-39 -111.5v-633z" />
<glyph unicode="&#xf5;" d="M102 389v633q0 80 29 151.5t79 124t117.5 83t143.5 30.5h84q76 0 142.5 -30.5t116.5 -83t79 -124t29 -151.5v-633q0 -80 -29 -151.5t-79 -124t-116.5 -83t-142.5 -30.5h-84q-76 0 -143.5 30.5t-117.5 83t-79 124t-29 151.5zM104 1565v174h816v-174h-816zM336 389 q0 -66 39 -111t96 -45h84q55 0 95 45.5t40 110.5v633q0 66 -40 112t-95 46h-84q-57 0 -96 -46.5t-39 -111.5v-633z" />
<glyph unicode="&#xf6;" d="M102 389v633q0 80 29 151.5t79 124t117.5 83t143.5 30.5h84q76 0 142.5 -30.5t116.5 -83t79 -124t29 -151.5v-633q0 -80 -29 -151.5t-79 -124t-116.5 -83t-142.5 -30.5h-84q-76 0 -143.5 30.5t-117.5 83t-79 124t-29 151.5zM102 1565v174h234v-174h-234zM336 389 q0 -66 39 -111t96 -45h84q55 0 95 45.5t40 110.5v633q0 66 -40 112t-95 46h-84q-57 0 -96 -46.5t-39 -111.5v-633zM690 1565v174h232v-174h-232z" />
<glyph unicode="&#xf7;" horiz-adv-x="870" d="M86 451v174h698v-174h-698zM328 41v233h233v-233h-233zM328 799v233h233v-233h-233z" />
<glyph unicode="&#xf8;" d="M102 389v633q0 74 25 140.5t69 118.5t103 85t127 43v236h174v-236q68 -10 126 -43t102 -85t69 -118.5t25 -140.5v-633q0 -74 -25 -140.5t-69 -118.5t-102 -86t-126 -42v-231h-174v231q-68 8 -127 42t-103 86t-69 118.5t-25 140.5zM336 389q0 -51 24.5 -91t65.5 -56v927 q-41 -16 -65.5 -56t-24.5 -91v-633zM600 242q39 16 64.5 56t25.5 91v633q0 51 -25.5 91t-64.5 56v-927z" />
<glyph unicode="&#xf9;" d="M102 389v1020h234v-1020q0 -66 39 -112t96 -46h84q55 0 95 46.5t40 111.5v1020h232v-1020q0 -80 -29 -151.5t-79 -125t-116.5 -84t-142.5 -30.5h-84q-76 0 -143.5 30.5t-117.5 84t-79 125t-29 151.5zM227 1825h174l183 -348h-174z" />
<glyph unicode="&#xfa;" d="M102 389v1020h234v-1020q0 -66 39 -112t96 -46h84q55 0 95 46.5t40 111.5v1020h232v-1020q0 -80 -29 -151.5t-79 -125t-116.5 -84t-142.5 -30.5h-84q-76 0 -143.5 30.5t-117.5 84t-79 125t-29 151.5zM440 1477l183 348h174l-183 -348h-174z" />
<glyph unicode="&#xfb;" d="M102 387v1024h234v-1024q0 -66 39 -112t96 -46h84q55 0 95 46.5t40 111.5v1024h232v-1024q0 -80 -29 -151.5t-79 -124t-116.5 -83t-142.5 -30.5h-84q-76 0 -143.5 30.5t-117.5 83t-79 124t-29 151.5zM246 1546l178 348h176l178 -348h-174l-92 178l-90 -178h-176z" />
<glyph unicode="&#xfc;" d="M102 389v1020h234v-1020q0 -66 39 -112t96 -46h84q55 0 95 46.5t40 111.5v1020h232v-1020q0 -80 -29 -151.5t-79 -125t-116.5 -84t-142.5 -30.5h-84q-76 0 -143.5 30.5t-117.5 84t-79 125t-29 151.5zM102 1565v174h234v-174h-234zM690 1565v174h232v-174h-232z" />
<glyph unicode="&#xfd;" d="M102 387v1022h234v-1022q0 -57 36 -107.5t99 -50.5h84q31 0 55.5 14.5t43 37t27.5 50t9 56.5v1022h232v-1528q0 -78 -28 -147.5t-77 -123.5t-115.5 -86t-146.5 -32h-221v232h221q31 0 55.5 14t43 36.5t27.5 50.5t9 56v144q-33 -14 -66.5 -20.5t-68.5 -6.5h-84 q-80 0 -147.5 31.5t-116.5 86t-77 124t-28 147.5zM440 1477l183 348h174l-183 -348h-174z" />
<glyph unicode="&#xfe;" d="M102 -508v2431h232v-541q63 29 137 29h84q80 0 146.5 -32.5t115.5 -86t77 -125t28 -147.5v-631q0 -78 -28 -148.5t-77 -125t-115.5 -86t-146.5 -31.5h-84q-70 0 -137 29v-535h-232zM336 389q0 -59 36 -108.5t99 -49.5h84q31 0 55.5 13.5t43 36t27.5 51t9 57.5v631 q0 29 -9 56.5t-27.5 50t-43 37t-55.5 14.5h-84q-63 0 -99 -50.5t-36 -107.5v-631z" />
<glyph unicode="&#xff;" d="M102 387v1022h234v-1022q0 -57 36 -107.5t99 -50.5h84q31 0 55.5 14.5t43 37t27.5 50t9 56.5v1022h232v-1528q0 -78 -28 -147.5t-77 -123.5t-115.5 -86t-146.5 -32h-221v232h221q31 0 55.5 14t43 36.5t27.5 50.5t9 56v144q-33 -14 -66.5 -20.5t-68.5 -6.5h-84 q-80 0 -147.5 31.5t-116.5 86t-77 124t-28 147.5zM102 1565v174h234v-174h-234zM690 1565v174h232v-174h-232z" />
<glyph unicode="&#x152;" horiz-adv-x="1468" d="M102 389v633q0 80 29 151.5t79 124t117.5 83t143.5 30.5h84q72 0 137.5 -28.5t114.5 -77.5q49 49 114.5 77.5t139.5 28.5h336v-231h-336q-57 0 -96 -46.5t-39 -111.5v-184h354v-232h-354v-217q0 -66 39 -111t96 -45h336v-233h-336q-74 0 -139.5 28.5t-114.5 77.5 q-49 -49 -114.5 -77.5t-137.5 -28.5h-84q-76 0 -143.5 30.5t-117.5 83t-79 124t-29 151.5zM336 389q0 -66 39 -111t96 -45h84q55 0 95 45.5t40 110.5v633q0 66 -40 112t-95 46h-84q-57 0 -96 -46.5t-39 -111.5v-633z" />
<glyph unicode="&#x153;" horiz-adv-x="1611" d="M102 389v633q0 80 29 151.5t79 124t117.5 83t143.5 30.5h84q72 0 136.5 -27.5t115.5 -78.5q49 51 113.5 78.5t138.5 27.5h84q76 0 142.5 -30.5t116.5 -83t78.5 -124t28.5 -151.5v-416h-585v-217q0 -66 38.5 -111t96.5 -45h84l250 -2v-231h-258l-109 2q-63 4 -119.5 31.5 t-99.5 72.5q-51 -49 -115.5 -77.5t-136.5 -28.5h-84q-76 0 -143.5 30.5t-117.5 83t-79 124t-29 151.5zM336 389q0 -66 39 -111t96 -45h84q55 0 95 45.5t40 110.5v633q0 66 -40 112t-95 46h-84q-57 0 -96 -46.5t-39 -111.5v-633zM924 838h354v184q0 66 -40 112t-95 46h-84 q-57 0 -96 -46.5t-39 -111.5v-184z" />
<glyph unicode="&#x178;" horiz-adv-x="964" d="M72 995v416h233v-416q0 -66 39 -111.5t96 -45.5h86q55 0 95.5 46t40.5 111v416h231v-416q0 -72 -22.5 -135t-62.5 -113.5t-93 -85t-117 -49.5v-614h-231v614q-63 14 -116.5 49t-93.5 85.5t-62.5 114t-22.5 134.5zM72 1565v174h233v-174h-233zM659 1565v174h232v-174h-232 z" />
<glyph unicode="&#x2c6;" horiz-adv-x="980" d="M258 1477l178 348h176l179 -348h-175l-92 178l-90 -178h-176z" />
<glyph unicode="&#x2dc;" d="M104 1565v174h816v-174h-816z" />
<glyph unicode="&#x2000;" horiz-adv-x="968" />
<glyph unicode="&#x2001;" horiz-adv-x="1937" />
<glyph unicode="&#x2002;" horiz-adv-x="968" />
<glyph unicode="&#x2003;" horiz-adv-x="1937" />
<glyph unicode="&#x2004;" horiz-adv-x="645" />
<glyph unicode="&#x2005;" horiz-adv-x="484" />
<glyph unicode="&#x2006;" horiz-adv-x="322" />
<glyph unicode="&#x2007;" horiz-adv-x="322" />
<glyph unicode="&#x2008;" horiz-adv-x="242" />
<glyph unicode="&#x2009;" horiz-adv-x="387" />
<glyph unicode="&#x200a;" horiz-adv-x="107" />
<glyph unicode="&#x2010;" horiz-adv-x="915" d="M100 438v174h699v-174h-699z" />
<glyph unicode="&#x2011;" horiz-adv-x="915" d="M100 438v174h699v-174h-699z" />
<glyph unicode="&#x2012;" horiz-adv-x="915" d="M100 438v174h699v-174h-699z" />
<glyph unicode="&#x2013;" horiz-adv-x="983" d="M121 438v174h698v-174h-698z" />
<glyph unicode="&#x2014;" d="M104 436v174h816v-174h-816z" />
<glyph unicode="&#x2018;" horiz-adv-x="454" d="M80 1739h176l152 -465h-177z" />
<glyph unicode="&#x2019;" horiz-adv-x="475" d="M100 1274l152 465h174l-152 -465h-174z" />
<glyph unicode="&#x201a;" horiz-adv-x="667" d="M190 -223l152 465h174l-151 -465h-175z" />
<glyph unicode="&#x201c;" d="M190 1739h175l151 -465h-176zM545 1739h176l149 -465h-174z" />
<glyph unicode="&#x201d;" d="M190 1274l152 465h174l-151 -465h-175zM547 1274l151 465h174l-151 -465h-174z" />
<glyph unicode="&#x201e;" d="M190 -223l152 465h174l-151 -465h-175zM547 -223l151 465h174l-151 -465h-174z" />
<glyph unicode="&#x2022;" horiz-adv-x="761" d="M72 637v154q0 47 18.5 89t50 73.5t73.5 50t91 18.5h152q49 0 91 -18.5t73.5 -50t50 -73.5t18.5 -89v-154q0 -49 -18.5 -91t-50 -74t-73.5 -50.5t-91 -18.5h-152q-49 0 -91 18.5t-73.5 50.5t-50 74t-18.5 91z" />
<glyph unicode="&#x2026;" horiz-adv-x="1296" d="M72 0v233h233v-233h-233zM530 0v233h234v-233h-234zM991 0v233h234v-233h-234z" />
<glyph unicode="&#x202f;" horiz-adv-x="387" />
<glyph unicode="&#x2039;" horiz-adv-x="526" d="M63 631v200l400 203v-198l-205 -105l205 -104v-199z" />
<glyph unicode="&#x203a;" horiz-adv-x="526" d="M63 428v199l205 104l-205 105v198l400 -203v-200z" />
<glyph unicode="&#x205f;" horiz-adv-x="484" />
<glyph unicode="&#x20ac;" horiz-adv-x="911" d="M20 457v176h113v182h-113v174h113v33q0 80 28.5 151.5t79 124t118 83t143.5 30.5h336v-231h-336q-55 0 -95 -46.5t-40 -111.5v-33h233v-174h-233v-182h233v-176h-233v-68q0 -66 39.5 -111t95.5 -45h338v-233h-338q-76 0 -143.5 30.5t-118 83t-79 124t-28.5 151.5v68h-113 z" />
<glyph unicode="&#x2122;" horiz-adv-x="1257" d="M20 1319v86h322q23 -49 38 -80t26 -47q10 -20 14 -29q4 8 14 29q10 16 24.5 47t41.5 80h82v-426h-88v256q-4 -8 -13 -21q-6 -10 -16 -25t-21 -36h-49q-25 23 -38 41t-13 20v-235h-86v340h-65v-340h-87v340h-86z" />
<glyph unicode="&#x25fc;" horiz-adv-x="1413" d="M0 0v1413h1413v-1413h-1413z" />
<glyph unicode="&#xfb03;" horiz-adv-x="1716" d="M-70 -276h37q57 0 96 46t39 111v1153q0 78 30 146.5t80 120t117.5 81t141.5 29.5h678q78 0 144.5 -31.5t115.5 -84t78 -122t31 -145.5h-234q-2 55 -39 103.5t-96 48.5h-82q-61 0 -97 -47.5t-38 -104.5q-2 -35 -2 -76t2 -114h581v-449q2 -57 38 -106.5t100 -49.5h45v-233 h-45q-78 0 -143.5 29.5t-115 81t-79 119t-31.5 141.5v235h-350v-706q0 -80 -25.5 -154t-74 -130t-117 -90t-152.5 -34h-39v234h39q31 0 55.5 14t43 36.5t27.5 50.5t9 56v721h-362v-723q0 -80 -28.5 -151.5t-79 -123.5t-118 -83t-143.5 -31h-37v232zM335 917.5 q1 -38.5 1 -57.5v-24h362v186q0 80 29 156h-256q-53 0 -93 -44t-42 -106q-2 -72 -1 -110.5z" />
<glyph unicode="&#xfb04;" horiz-adv-x="1742" d="M-70 -276h37q57 0 96 46t39 111v1153q0 78 30 146.5t80 120t117.5 81t141.5 29.5h813v506h234v-1503q0 -31 7 -64t22.5 -58.5t42 -42t63.5 -16.5h59v-233h-59q-80 0 -147.5 33t-117 87t-77 124.5t-27.5 148.5v787h-217q-59 0 -97 -47.5t-38 -104.5v-190h172v-232h-172 v-706q0 -80 -25.5 -154t-74 -130t-117 -90t-152.5 -34h-39v234h39q31 0 56.5 14t43 36.5t26.5 50.5t9 56v506q0 53 -1 107.5t-1 107.5h-360v-723q0 -80 -28.5 -151.5t-79 -123.5t-118 -83t-143.5 -31h-37v232zM335 917.5q1 -38.5 1 -57.5v-24h358v94t2 94q0 41 9.5 79 t23.5 75h-258q-53 0 -93 -44t-42 -106q-2 -72 -1 -110.5z" />
</font>
</defs>
</svg>
