<?xml version="1.0" encoding="utf-8"?>
<!-- Generator: Adobe Illustrator 15.0.0, SVG Export Plug-In . SVG Version: 6.00 Build 0)  -->
<!DOCTYPE svg PUBLIC "-//W3C//DTD SVG 1.1//EN" "http://www.w3.org/Graphics/SVG/1.1/DTD/svg11.dtd">
<svg version="1.1" id="Layer_1" xmlns="http://www.w3.org/2000/svg" xmlns:xlink="http://www.w3.org/1999/xlink" x="0px" y="0px"
	 width="612px" height="792px" viewBox="0 0 612 792" enable-background="new 0 0 612 792" xml:space="preserve">
<rect fill="#FAF9F4" width="612" height="792"/>
<circle fill="#C2CCDD" cx="305.953" cy="249.859" r="131.442"/>
<g>
	<path fill="#FAF9F4" d="M246.208,180.405c8.145-8.411,19.627-13.886,32.311-13.886c21.359,0,38.182,13.351,43.521,34.445h-13.35
		c-4.939-14.019-16.422-21.095-30.172-21.095c-8.945,0-17.089,3.873-22.965,10.014c-5.873,6.141-9.611,14.419-9.611,24.031
		c0,9.346,3.738,17.623,9.611,23.764c5.876,6.142,14.02,10.014,22.965,10.014c14.15,0,26.167-8.145,30.971-22.296h13.221
		c-5.342,21.228-22.431,35.646-44.191,35.646c-12.684,0-24.166-5.34-32.311-13.884c-8.01-8.545-13.35-20.294-13.35-33.243
		C232.858,200.697,238.198,188.949,246.208,180.405z"/>
</g>
<g>
	<g>
		<path fill="#FAF9F4" d="M324.96,260.103l0.885-4.2h13.887c3.99-17.251,12.703-33.901,28.362-41.103
			c2.511-1.2,5.763-1.95,8.569-1.95c7.682,0,16.986,3.9,16.986,13.201c0,5.851-3.545,8.851-9.012,8.851
			c-3.987,0-8.124-2.7-8.124-7.2c0-3.151,2.068-5.7,2.807-8.701c0.296-1.2-0.738-1.95-2.953-1.95
			c-14.183,0-15.217,28.053-17.578,38.853h16.544l-0.888,4.2h-16.397c-3.396,17.251-6.794,34.353-12.407,50.703
			c-4.137,12.751-12.407,35.553-28.216,35.553c-9.454,0-14.032-6.75-14.032-11.851c0-4.5,3.544-8.55,7.977-8.55
			c3.989,0,8.42,2.25,8.42,7.199c0,3.301-2.216,6.901-2.216,8.101c0,1.051,0.886,0.899,1.624,0.899
			c6.205,0,8.569-19.05,9.161-22.951l10.339-59.104H324.96z"/>
	</g>
</g>
<g>
	<path fill="#C2CCDD" d="M225.367,457.109c9.773-10.096,23.551-16.664,38.771-16.664c25.632,0,45.818,16.021,52.226,41.334h-16.021
		c-5.925-16.822-19.705-25.312-36.205-25.312c-10.734,0-20.506,4.646-27.557,12.016c-7.049,7.369-11.535,17.303-11.535,28.838
		c0,11.215,4.486,21.146,11.535,28.516c7.051,7.369,16.822,12.016,27.557,12.016c16.98,0,31.4-9.771,37.166-26.754h15.865
		c-6.413,25.473-26.917,42.775-53.031,42.775c-15.221,0-28.998-6.408-38.771-16.66c-9.612-10.254-16.021-24.354-16.021-39.893
		C209.347,481.459,215.755,467.361,225.367,457.109z"/>
</g>
<g>
	<g>
		<path fill="#C2CCDD" d="M319.868,552.746l1.063-5.041h16.664c4.787-20.701,15.243-40.682,34.034-49.322
			c3.012-1.441,6.914-2.342,10.283-2.342c9.217,0,20.382,4.68,20.382,15.842c0,7.02-4.254,10.621-10.813,10.621
			c-4.784,0-9.747-3.24-9.747-8.641c0-3.781,2.481-6.84,3.366-10.441c0.354-1.439-0.885-2.34-3.542-2.34
			c-17.021,0-18.261,33.662-21.094,46.623h19.852l-1.066,5.041h-19.676c-4.075,20.701-8.153,41.221-14.889,60.844
			c-4.963,15.301-14.889,42.662-33.858,42.662c-11.346,0-16.839-8.098-16.839-14.221c0-5.398,4.252-10.26,9.571-10.26
			c4.786,0,10.104,2.699,10.104,8.641c0,3.957-2.66,8.279-2.66,9.721c0,1.258,1.063,1.08,1.951,1.08
			c7.444,0,10.283-22.863,10.992-27.543l12.407-70.924H319.868z"/>
	</g>
</g>
</svg>
