<?xml version="1.0" encoding="utf-8"?>
<!-- Generator: Adobe Illustrator 15.0.0, SVG Export Plug-In . SVG Version: 6.00 Build 0)  -->
<!DOCTYPE svg PUBLIC "-//W3C//DTD SVG 1.1//EN" "http://www.w3.org/Graphics/SVG/1.1/DTD/svg11.dtd">
<svg version="1.1" id="Layer_1" xmlns="http://www.w3.org/2000/svg" xmlns:xlink="http://www.w3.org/1999/xlink" x="0px" y="0px"
	 width="612px" height="792px" viewBox="0 0 612 792" enable-background="new 0 0 612 792" xml:space="preserve">
<rect fill="#FAF9F4" width="612" height="792"/>
<circle fill="#C2CCDD" cx="306" cy="60.183" r="29.599"/>
<g>
	<path fill="#FAF9F4" d="M292.545,44.543c1.834-1.895,4.42-3.128,7.276-3.128c4.811,0,8.599,3.007,9.801,7.758h-3.006
		c-1.113-3.156-3.698-4.751-6.795-4.751c-2.014,0-3.848,0.873-5.171,2.255c-1.323,1.384-2.164,3.247-2.164,5.412
		c0,2.104,0.841,3.968,2.164,5.351c1.323,1.383,3.157,2.255,5.171,2.255c3.187,0,5.893-1.834,6.975-5.021h2.979
		c-1.203,4.78-5.052,8.027-9.953,8.027c-2.855,0-5.442-1.202-7.276-3.127c-1.803-1.924-3.006-4.569-3.006-7.485
		C289.54,49.113,290.742,46.467,292.545,44.543z"/>
</g>
<g>
	<g>
		<path fill="#FAF9F4" d="M310.279,62.49l0.199-0.945h3.128c0.897-3.884,2.859-7.634,6.387-9.256
			c0.563-0.271,1.298-0.439,1.93-0.439c1.729,0,3.825,0.878,3.825,2.973c0,1.317-0.799,1.993-2.029,1.993
			c-0.897,0-1.83-0.608-1.83-1.622c0-0.709,0.468-1.283,0.633-1.959c0.066-0.27-0.165-0.438-0.665-0.438
			c-3.193,0-3.427,6.317-3.958,8.749h3.726l-0.199,0.945h-3.692c-0.766,3.885-1.529,7.736-2.793,11.418
			c-0.933,2.871-2.796,8.006-6.355,8.006c-2.128,0-3.159-1.521-3.159-2.67c0-1.013,0.798-1.924,1.796-1.924
			c0.898,0,1.896,0.506,1.896,1.621c0,0.744-0.499,1.553-0.499,1.824c0,0.236,0.2,0.203,0.366,0.203c1.396,0,1.93-4.291,2.062-5.169
			l2.328-13.31H310.279z"/>
	</g>
</g>
<rect x="195.743" y="103.731" fill="none" width="220.513" height="24.359"/>
<text transform="matrix(1 0 0 1 244.2529 114.2334)" fill="#676D78" font-family="'QuicksandBook-Regular'" font-size="15">Club Fashionista</text>
<rect x="85.592" y="762.862" fill="none" width="96.256" height="32.141"/>
<text transform="matrix(1 0 0 1 85.5835 770.1445)" fill="#676D78" font-family="'Lato-Light'" font-size="10">229 W 60th Street </text>
<rect x="314.854" y="762.86" fill="none" width="71.789" height="32.141"/>
<text transform="matrix(1 0 0 1 315.3164 770.1445)" fill="#676D78" font-family="'Lato-Light'" font-size="10">(202) 297-1885  </text>
<rect x="194.891" y="762.86" fill="none" width="94.388" height="32.141"/>
<text transform="matrix(1 0 0 1 210.855 770.1445)" fill="#676D78" font-family="'Lato-Light'" font-size="10">New York, NY </text>
<rect x="406.892" y="762.86" fill="none" width="117.591" height="32.141"/>
<text transform="matrix(1 0 0 1 412.375 770.1465)" fill="#676D78" font-family="'Lato-Light'" font-size="10">www.clubfashionista.com </text>
<line fill="none" stroke="#636970" stroke-width="0.025" stroke-miterlimit="10" x1="35.775" y1="740.335" x2="575.224" y2="740.335"/>
<rect x="72" y="143" fill="none" width="468" height="505"/>
<text transform="matrix(1 0 0 1 72 151.3398)" font-family="'TimesNewRomanPSMT'" font-size="12">Dear Beatrix Kiddo,</text>
<text transform="matrix(1 0 0 1 72 193.3398)" font-family="'TimesNewRomanPSMT'" font-size="12">Bacon ipsum dolor amet occaecat ea chuck nostrud velit. Aute esse irure eiusmod, officia minim </text>
<text transform="matrix(1 0 0 1 72 214.3398)" font-family="'TimesNewRomanPSMT'" font-size="12">meatball nulla short loin kevin ut. Esse in do chuck turkey doner veniam pork deserunt. Repre</text>
<text transform="matrix(1 0 0 1 523.5527 214.3398)" font-family="'TimesNewRomanPSMT'" font-size="12">-</text>
<text transform="matrix(1 0 0 1 72 235.3398)" font-family="'TimesNewRomanPSMT'" font-size="12">henderit mollit in commodo filet mignon eiusmod nostrud strip steak t-bone hamburger sed. </text>
<text transform="matrix(1 0 0 1 72 256.3398)" font-family="'TimesNewRomanPSMT'" font-size="12">Chuck drumstick exercitation irure consequat in mollit sirloin. Boudin ball tip voluptate swine </text>
<text transform="matrix(1 0 0 1 72 277.3398)" font-family="'TimesNewRomanPSMT'" font-size="12">proident. Tongue consequat ham, et ground round jerky short ribs pancetta.</text>
<text transform="matrix(1 0 0 1 72 319.3398)" font-family="'TimesNewRomanPSMT'" font-size="12">Ham pork belly dolore capicola tri-tip. Porchetta duis sausage ham hock chicken doner adipisic</text>
<text transform="matrix(1 0 0 1 529.8574 319.3398)" font-family="'TimesNewRomanPSMT'" font-size="12">-</text>
<text transform="matrix(1 0 0 1 72 340.3398)" font-family="'TimesNewRomanPSMT'" font-size="12">ing. Pork loin incididunt quis, beef tongue dolore et t-bone. Andouille picanha beef ribs turkey </text>
<text transform="matrix(1 0 0 1 72 361.3398)" font-family="'TimesNewRomanPSMT'" font-size="12">pork venison, qui dolor labore ham aliquip salami nostrud in doner. Officia ullamco sunt chicken </text>
<text transform="matrix(1 0 0 1 72 382.3398)" font-family="'TimesNewRomanPSMT'" font-size="12">beef ad.</text>
<text transform="matrix(1 0 0 1 72 424.3398)" font-family="'TimesNewRomanPSMT'" font-size="12">Sincerely,</text>
<text transform="matrix(1 0 0 1 72 508.3398)" font-family="'TimesNewRomanPSMT'" font-size="12">Mia Wallace</text>
<g>
	<g>
		<path d="M64.289,449.222c4.32,0.326,8.574-0.428,12.823-1.127c3.784-0.622,11.724-2.597,14.571,1.249
			c4.901,6.619,2.295,18.709,1.233,26.215c-0.438,3.093,3.783,0.971,4.168-1.116c1.985-10.749,4.506-22.141,12.257-30.316
			c-1.135-0.013-2.27-0.026-3.405-0.039c1.798,9.255,0.2,18.739,2,28c0.44,2.265,3.101,0.633,3.784-0.511
			c4.715-7.885,7.035-16.768,11-25c-1.261,0.171-2.522,0.341-3.784,0.511c2.073,7.485,0.809,15.624,3.443,22.994
			c3.235,9.051,11.391,4.188,16.487-0.486c-0.983-0.345-1.967-0.689-2.95-1.035c-0.419,0.772-0.838,1.544-1.257,2.316
			c0.684-0.365,1.368-0.73,2.052-1.097c-0.026,0-0.053,0-0.08,0c-0.474,1.479-0.948,2.962-1.422,4.441
			c1.837-0.031,4.503,0.214,6.158-0.737c1.428-0.822,3.045-3.08,1.24-4.397c-1.905-1.39-4.966,2.234-3.214,3.83
			c3.615,3.293,8.083,4.666,12.813,5.532c3.812,0.696,8.83,0.335,12.187,2.468c2.01,1.277,5.151-2.6,3.214-3.83
			c-2.903-1.845-6.545-2.02-9.875-2.465c-5.439-0.729-10.94-1.723-15.125-5.535c-1.071,1.276-2.143,2.554-3.214,3.83
			c-0.065-0.32-0.13-0.643-0.195-0.962c0.58-0.832,1.159-1.665,1.738-2.497c-1.024,0.59-3.127,0.302-4.304,0.322
			c-2.159,0.035-4.236,4.427-1.422,4.441c2.896,0.018,4.45-4.54,4.875-6.779c0.349-1.839-1.951-1.95-2.95-1.034
			c-1.843,1.689-5.849,5.999-8.739,4.198c-2.083-1.297-2.544-4.729-2.95-6.896c-1.158-6.198-0.692-12.697-2.382-18.796
			c-0.573-2.068-3.118-0.873-3.784,0.511c-3.96,8.224-6.296,17.131-11,25c1.261-0.171,2.522-0.341,3.784-0.511
			c-1.798-9.255-0.2-18.739-2-28c-0.375-1.929-2.548-0.942-3.405-0.039c-8.641,9.115-11.531,21.697-13.743,33.684
			c1.389-0.372,2.779-0.745,4.168-1.117c1.248-8.809,3.181-20.098-1.589-28.192c-2.266-3.846-8.12-3.63-11.909-3.315
			c-5.995,0.497-11.812,2.306-17.875,1.847C63.522,444.613,61.479,449.009,64.289,449.222L64.289,449.222z"/>
	</g>
</g>
<g>
	<g>
		<path d="M171.812,445.149c6.365-1.719,18.397-5.825,22.571,1.801c1.599,2.921,1.757,6.688,1.991,9.933
			c0.399,5.543,0.348,11.123,0.542,16.676c0.075,2.146,2.315,1.945,3.425,0.566c6.529-8.119,8.486-18.438,11.628-28.12
			c-1.344,0.36-2.688,0.721-4.033,1.081c1.912,8.203,1.879,17.487,7.158,24.462c0.873,1.153,2.473,0.613,3.247-0.423
			c4.621-6.19,9.957-8.248,17.466-5.979c-0.258-0.718-0.517-1.435-0.775-2.15c-0.697,2.321-0.307,4.696-1,7
			c-0.293,0.975,0.025,2.243,1.258,2.227c8.204-0.114,15.896-2.15,21.571-8.363c6.107-6.687,7.151-16.805,7.224-25.416
			c0.027-3.212-3.857-0.969-4.168,1.116c-1.161,7.78-2.773,26.16,7.94,28.942c10.893,2.829,15.098-16.331,16.228-23.06
			c-1.389,0.372-2.779,0.744-4.168,1.116c-0.435,6.245-1.044,15.011,4.678,19.229c4.694,3.461,12.187,1.934,17.523,1.604
			c9.892-0.605,19.952-0.035,29.835,0.487c10.964,0.58,22.226,1.351,32.854,4.267c2.163,0.594,4.805-3.629,2.388-4.291
			c-18.309-5.023-38.371-4.993-57.222-5.074c-6.183-0.026-12.732,1.388-18.864,0.381c-8.152-1.338-7.457-11.491-7.024-17.72
			c0.222-3.189-3.822-0.943-4.168,1.116c-0.634,3.772-3.922,21.568-11.343,16.979c-7.214-4.464-5.495-18.354-4.489-25.095
			c-1.389,0.372-2.779,0.745-4.168,1.116c-0.06,6.994-0.672,14.201-4.396,20.299c-3.904,6.391-11.936,7.825-18.809,7.922
			c0.419,0.742,0.838,1.483,1.258,2.227c0.697-2.321,0.307-4.696,1-7c0.232-0.772,0.149-1.871-0.775-2.149
			c-9.341-2.821-16.798,0.337-22.534,8.021c1.083-0.141,2.165-0.281,3.247-0.423c-5.074-6.704-5.001-15.645-6.842-23.538
			c-0.583-2.5-3.563-0.366-4.033,1.081c-2.84,8.755-4.467,18.537-10.372,25.88c1.142,0.188,2.283,0.378,3.425,0.566
			c-0.313-8.955,1.525-21.604-3.49-29.612c-5.043-8.053-18.352-3.883-25.406-1.979C170.029,441.433,168.839,445.952,171.812,445.149
			L171.812,445.149z"/>
	</g>
</g>
</svg>
