<?xml version="1.0" encoding="utf-8"?>
<!-- Generator: Adobe Illustrator 15.0.0, SVG Export Plug-In . SVG Version: 6.00 Build 0)  -->
<!DOCTYPE svg PUBLIC "-//W3C//DTD SVG 1.1//EN" "http://www.w3.org/Graphics/SVG/1.1/DTD/svg11.dtd">
<svg version="1.1" id="Layer_1" xmlns="http://www.w3.org/2000/svg" xmlns:xlink="http://www.w3.org/1999/xlink" x="0px" y="0px"
	 width="500px" height="500px" viewBox="0 0 500 500" enable-background="new 0 0 500 500" xml:space="preserve">
<rect fill="#584496" width="500" height="500"/>
<rect x="71.446" y="116.611" fill="none" width="357.531" height="43.138"/>
<text transform="matrix(1 0 0 1 201.9077 146.8374)" fill="#FCFBF5" font-family="'Helvetica-Bold'" font-size="42" letter-spacing="6">THE</text>
<g>
	<path fill="#FFFFFF" d="M198.376,258.997c-13.67,0-24.815-4.809-33.129-14.293c-8.126-9.27-12.246-20.016-12.246-31.938
		c0-11.923,4.12-22.667,12.246-31.937c8.315-9.485,19.461-14.294,33.129-14.294c13.666,0,24.812,4.809,33.129,14.292
		c8.126,9.272,12.246,20.019,12.246,31.938c0,11.922-4.12,22.668-12.246,31.938C223.191,254.188,212.044,258.997,198.376,258.997z
		 M198.376,177.689c-10.459,0-18.552,3.432-24.742,10.492c-6.379,7.276-9.48,15.318-9.48,24.585s3.102,17.31,9.48,24.587
		c6.188,7.06,14.281,10.491,24.742,10.491c10.459,0,18.553-3.432,24.742-10.492c6.379-7.276,9.479-15.319,9.479-24.586
		c0-9.266-3.101-17.308-9.479-24.586C216.928,181.121,208.835,177.689,198.376,177.689z"/>
	<path fill="#FFFFFF" d="M105.83,258.655c-10.484,0-19.243-2.623-26.031-7.791c-7.252-5.525-10.93-13.537-10.93-23.81h11.154
		c0,6.701,2.137,11.587,6.533,14.937c4.801,3.655,11.285,5.51,19.273,5.51c7.958,0,14.12-1.846,18.838-5.645
		c4.408-3.552,6.462-7.775,6.462-13.29c0-4.066-1.322-7.487-4.042-10.458c-3.007-3.282-7.906-6.077-14.561-8.307l-12.183-4.236
		c-14.709-4.954-17.808-13.201-17.808-19.245c0-5.231,1.877-9.863,5.578-13.77c3.784-3.993,9.616-6.017,17.335-6.017
		c6.585,0,12.062,2.007,16.28,5.962c4.071,3.823,6.661,9.038,7.701,15.501l-11.012,1.772c-0.648-4.028-2.062-7.018-4.322-9.141
		c-2.109-1.979-4.939-2.941-8.647-2.941c-4.474,0-7.668,0.876-9.241,2.534c-1.718,1.813-2.519,3.752-2.519,6.099
		c0,3.473,3.454,6.398,10.266,8.692l12.175,4.233c8.408,2.818,14.882,6.637,19.182,11.329c4.625,5.052,6.971,11.104,6.971,17.991
		c0,8.904-3.572,16.299-10.619,21.976C124.978,255.925,116.287,258.655,105.83,258.655z"/>
	<polygon fill="#FFFFFF" points="316.191,256.681 266.598,187.871 266.598,255.917 255.443,255.917 255.443,170.597 
		265.543,167.336 315.139,236.144 315.139,167.257 326.293,167.257 326.293,253.418 	"/>
	<path fill="#FFFFFF" d="M385.318,259.03c-12.244,0-23.109-4.439-32.291-13.189c-9.264-8.818-13.961-19.942-13.961-33.059
		c0-13.1,4.643-24.215,13.801-33.038c9.1-8.764,20.02-13.208,32.451-13.208c5.445,0,11.035,1.103,16.617,3.276
		c5.617,2.19,10.73,5.455,15.195,9.706l-7.688,8.08c-3.41-3.246-7.301-5.734-11.559-7.395c-4.285-1.668-8.512-2.515-12.566-2.515
		c-9.582,0-17.664,3.3-24.713,10.088c-6.99,6.732-10.387,14.911-10.387,25.005c0,10.084,3.436,18.257,10.5,24.983
		c7.141,6.804,15.186,10.111,24.6,10.111c8.229,0,15.443-2.573,22.051-7.866c4.877-3.905,8.383-8.778,10.611-14.783h-30.234v-11.153
		h44.365l-1.328,6.667c-2.328,11.688-7.859,21.101-16.441,27.974C405.799,255.56,396.031,259.03,385.318,259.03z"/>
</g>
<g>
	<rect x="268.191" y="302.771" fill="#CAB8CC" width="48.123" height="3.717"/>
	<path fill="#CAB8CC" d="M292.254,372.036c-1.027,0-1.859-0.832-1.859-1.857v-79.807c0-1.029,0.832-1.861,1.859-1.861
		s1.859,0.832,1.859,1.861v79.807C294.113,371.204,293.281,372.036,292.254,372.036z"/>
	<path fill="#CAB8CC" d="M284.109,372.036c-1.027,0-1.859-0.832-1.859-1.857V292.95c0-1.029,0.832-1.861,1.859-1.861
		s1.859,0.832,1.859,1.861v77.229C285.969,371.204,285.137,372.036,284.109,372.036z"/>
	<path fill="#CAB8CC" d="M275.988,368.478c-1.027,0-1.859-0.832-1.859-1.857v-70.504c0-1.027,0.832-1.859,1.859-1.859
		s1.859,0.832,1.859,1.859v70.504C277.848,367.646,277.016,368.478,275.988,368.478z"/>
	<path fill="#CAB8CC" d="M300.645,371.743c-1.027,0-1.859-0.832-1.859-1.857v-77.234c0-1.029,0.832-1.861,1.859-1.861
		s1.859,0.832,1.859,1.861v77.234C302.504,370.911,301.672,371.743,300.645,371.743z"/>
	<path fill="#CAB8CC" d="M308.766,368.179c-1.027,0-1.859-0.832-1.859-1.857v-70.5c0-1.029,0.832-1.861,1.859-1.861
		s1.859,0.832,1.859,1.861v70.5C310.625,367.347,309.793,368.179,308.766,368.179z"/>
	<path fill="#FFFFFF" d="M292.457,380.958c-20.498-0.059-37.146-13.354-37.146-29.641h0.006c-0.014-1.725,0.1-3.494,0.334-5.27
		c0.443-3.381,1.359-6.531,2.258-9.467c0.346-1.119,0.662-2.246,0.982-3.375l0.432-1.518c0.25-0.867,0.508-1.73,0.764-2.596
		l0.951-3.416c0.434-1.566,0.842-3.047,1.162-4.514c0.396-1.797,0.83-3.906,1.08-5.986c0.178-1.49,0.488-4.787,0.477-6.049
		l-0.006-0.607c-0.006-1.355-0.012-2.104-0.334-3.793c-0.211-1.09-0.844-2.262-1.072-2.619c-0.504-0.803-1.73-1.568-3.402-1.568
		c-3.08,0-5.576-2.496-5.576-5.574c0-3.08,2.496-5.578,5.576-5.578c5.295,0,10.207,2.584,12.818,6.74
		c0.277,0.426,1.951,3.111,2.607,6.486c0.52,2.713,0.527,4.234,0.537,5.846l0.004,0.557c0.025,2.545-0.549,7.436-0.555,7.482
		c-0.309,2.574-0.836,5.121-1.26,7.055c-0.385,1.754-0.854,3.451-1.305,5.092l-1.012,3.623c-0.248,0.832-0.494,1.668-0.734,2.502
		l-0.422,1.475c-0.34,1.207-0.682,2.41-1.049,3.605c-0.791,2.588-1.531,5.119-1.865,7.656c-0.189,1.438-0.268,2.859-0.23,4.219
		h-0.008c0.311,9.967,11.848,18.041,25.988,18.078c14.105-0.037,25.641-8.105,25.957-18.066h-0.008c0-0.004,0-0.004,0-0.004l0,0
		c0.037-1.373-0.041-2.797-0.229-4.23c-0.334-2.52-1.072-5.062-1.867-7.658c-0.352-1.154-0.682-2.314-1.012-3.471l-0.455-1.594
		c-0.334-1.164-0.68-2.314-1.021-3.467l-0.73-2.689c-0.451-1.631-0.918-3.318-1.303-5.07c-0.426-1.934-0.953-4.48-1.26-7.053
		c-0.006-0.049-0.58-4.939-0.555-7.484l0.004-0.557c0.008-1.611,0.018-3.133,0.535-5.83c0.656-3.393,2.336-6.082,2.666-6.586
		c2.557-4.072,7.469-6.656,12.762-6.656c3.08,0,5.578,2.498,5.578,5.578c0,3.078-2.498,5.574-5.578,5.574
		c-1.67,0-2.896,0.766-3.371,1.521c-0.26,0.41-0.893,1.578-1.105,2.678c-0.322,1.678-0.326,2.426-0.334,3.781l-0.004,0.607
		c-0.014,1.262,0.299,4.559,0.477,6.049c0.248,2.08,0.684,4.189,1.078,5.98c0.322,1.465,0.729,2.938,1.16,4.496l0.691,2.549
		c0.346,1.16,0.691,2.324,1.027,3.486l0.465,1.629c0.312,1.094,0.623,2.189,0.953,3.273c0.934,3.059,1.811,6.084,2.256,9.457
		c0.234,1.771,0.346,3.539,0.334,5.27h0.006C329.574,367.604,312.922,380.899,292.457,380.958z"/>
	<path fill="#FFFFFF" d="M120.748,380.958c-10.486,0-19.245-2.619-26.033-7.791c-7.252-5.521-10.929-13.535-10.929-23.809h11.153
		c0,6.703,2.137,11.59,6.532,14.936c4.802,3.656,11.287,5.51,19.276,5.51c7.851,0,14.188-1.898,18.834-5.643
		c4.411-3.553,6.466-7.777,6.466-13.291c0-4.064-1.323-7.486-4.044-10.459c-3.004-3.279-7.902-6.074-14.559-8.303l-12.184-4.236
		c-14.709-4.955-17.807-13.201-17.807-19.246c0-5.232,1.877-9.863,5.578-13.77c3.782-3.992,9.615-6.018,17.336-6.018
		c6.582,0,12.06,2.008,16.278,5.963c4.069,3.816,6.66,9.029,7.703,15.498l-11.011,1.775c-0.65-4.031-2.063-7.02-4.321-9.139
		c-2.112-1.98-4.942-2.943-8.649-2.943c-4.475,0-7.669,0.875-9.239,2.533c-1.721,1.816-2.522,3.754-2.522,6.1
		c0,3.473,3.455,6.398,10.266,8.693l12.177,4.232c8.53,2.859,14.822,6.572,19.18,11.326c4.626,5.057,6.972,11.107,6.972,17.992
		c0,8.902-3.573,16.297-10.621,21.975C139.901,378.228,131.209,380.958,120.748,380.958z"/>
	<polygon fill="#FFFFFF" points="412.564,377.495 345.936,377.495 345.936,288.913 357.09,288.913 357.09,366.341 412.564,366.341 	
		"/>
	<rect x="169.08" y="289.698" fill="#FFFFFF" width="11.152" height="88.66"/>
	<rect x="227.833" y="289.698" fill="#FFFFFF" width="11.153" height="88.66"/>
	<rect x="174.656" y="325.776" fill="#FFFFFF" width="58.754" height="11.154"/>
</g>
</svg>
