<?xml version="1.0" encoding="utf-8"?>
<!-- Generator: Adobe Illustrator 15.0.0, SVG Export Plug-In . SVG Version: 6.00 Build 0)  -->
<!DOCTYPE svg PUBLIC "-//W3C//DTD SVG 1.1//EN" "http://www.w3.org/Graphics/SVG/1.1/DTD/svg11.dtd">
<svg version="1.1" id="Layer_1" xmlns="http://www.w3.org/2000/svg" xmlns:xlink="http://www.w3.org/1999/xlink" x="0px" y="0px"
	 width="1200px" height="300px" viewBox="0 0 1200 300" enable-background="new 0 0 1200 300" xml:space="preserve">
<rect fill="#FFFFFF" width="1200" height="300"/>
<rect x="956.467" y="110.957" fill="#CAB8CC" width="60.74" height="4.692"/>
<path fill="#CAB8CC" d="M986.842,198.383c-1.296,0-2.346-1.05-2.346-2.346V95.303c0-1.296,1.05-2.346,2.346-2.346
	s2.346,1.05,2.346,2.346v100.734C989.188,197.333,988.138,198.383,986.842,198.383z"/>
<path fill="#CAB8CC" d="M976.559,198.383c-1.296,0-2.346-1.05-2.346-2.346V98.556c0-1.296,1.05-2.346,2.346-2.346
	s2.346,1.05,2.346,2.346v97.481C978.904,197.333,977.854,198.383,976.559,198.383z"/>
<path fill="#CAB8CC" d="M966.309,193.887c-1.296,0-2.346-1.05-2.346-2.346v-88.988c0-1.296,1.05-2.346,2.346-2.346
	s2.346,1.05,2.346,2.346v88.988C968.654,192.837,967.604,193.887,966.309,193.887z"/>
<path fill="#CAB8CC" d="M997.432,198.012c-1.296,0-2.346-1.05-2.346-2.346V98.182c0-1.296,1.05-2.346,2.346-2.346
	s2.346,1.05,2.346,2.346v97.484C999.777,196.962,998.728,198.012,997.432,198.012z"/>
<path fill="#CAB8CC" d="M1007.68,193.512c-1.296,0-2.346-1.05-2.346-2.346V102.18c0-1.296,1.05-2.346,2.346-2.346
	s2.346,1.05,2.346,2.346v88.986C1010.025,192.462,1008.976,193.512,1007.68,193.512z"/>
<path fill="#584496" d="M987.098,209.642c-25.871-0.073-46.886-16.854-46.886-37.409h0.004c-0.015-2.17,0.125-4.4,0.418-6.643
	c0.559-4.23,1.667-8.066,2.85-11.951c0.455-1.481,0.874-2.958,1.294-4.435l0.499-1.75c0.327-1.14,0.665-2.279,1.002-3.418
	l0.283-0.956c0.085-0.325,0.174-0.65,0.263-0.973l0.053-0.195c0.184-0.683,0.378-1.384,0.571-2.086
	c0.543-1.966,1.055-3.824,1.462-5.667c0.494-2.254,1.044-4.92,1.359-7.545c0.254-2.146,0.615-6.111,0.601-7.637l-0.006-0.779
	c-0.011-1.706-0.016-2.646-0.424-4.772c-0.266-1.373-1.063-2.847-1.349-3.297c-0.643-1.023-2.19-1.986-4.297-1.986
	c-3.888,0-7.038-3.151-7.038-7.039s3.15-7.039,7.038-7.039c6.662,0,12.843,3.241,16.146,8.462c0.499,0.774,2.521,4.092,3.323,8.235
	c0.654,3.411,0.665,5.325,0.678,7.352l0.005,0.721c0.031,3.186-0.691,9.383-0.699,9.445c-0.387,3.232-1.021,6.314-1.589,8.905
	c-0.487,2.209-1.073,4.333-1.641,6.387c-0.186,0.674-0.371,1.348-0.554,2.022l-0.06,0.221c-0.085,0.311-0.171,0.623-0.252,0.935
	l-0.376,1.285c-0.327,1.104-0.654,2.207-0.971,3.309l-0.487,1.708c-0.446,1.573-0.894,3.145-1.373,4.706
	c-1.039,3.41-1.937,6.503-2.354,9.667c-0.23,1.762-0.329,3.505-0.292,5.174l0.004,0.17l-0.007,0.001
	c0.402,12.569,14.962,22.747,32.801,22.798c17.812-0.051,32.38-10.241,32.765-22.821l-0.014-0.001
	c0.049-1.704-0.049-3.495-0.29-5.322c-0.419-3.202-1.353-6.401-2.354-9.671c-0.464-1.52-0.896-3.044-1.328-4.569l-0.524-1.841
	c-0.278-0.957-0.568-1.933-0.857-2.909l-0.487-1.652c-0.102-0.383-0.203-0.763-0.309-1.145c-0.189-0.703-0.371-1.363-0.553-2.022
	c-0.571-2.071-1.162-4.213-1.648-6.437c-0.528-2.395-1.191-5.584-1.591-8.878c-0.009-0.073-0.736-6.25-0.699-9.471l0.004-0.678
	c0.009-2.039,0.018-3.963,0.678-7.384c0.799-4.153,2.83-7.48,3.323-8.245c3.311-5.218,9.491-8.458,16.145-8.458
	c3.888,0,7.038,3.151,7.038,7.039s-3.15,7.039-7.038,7.039c-2.104,0-3.657,0.968-4.262,1.928l-0.065,0.103
	c-0.256,0.406-1.052,1.876-1.317,3.258c-0.412,2.134-0.416,3.075-0.424,4.784l-0.005,0.757c-0.019,1.611,0.374,5.766,0.599,7.645
	c0.326,2.683,0.9,5.44,1.365,7.542c0.408,1.868,0.923,3.736,1.469,5.714c0.189,0.687,0.379,1.374,0.563,2.062
	c0.099,0.354,0.202,0.743,0.307,1.136l0.402,1.356c0.298,1.004,0.597,2.008,0.888,3.011l0.543,1.907
	c0.407,1.435,0.812,2.87,1.247,4.293c1.135,3.703,2.29,7.682,2.849,11.953c0.296,2.246,0.438,4.478,0.421,6.645h0.01
	C1033.946,192.787,1012.931,209.568,987.098,209.642z"/>
<path fill="#584496" d="M382.16,210.251c-17.253,0-31.323-6.07-41.816-18.044c-10.255-11.697-15.456-25.26-15.456-40.311
	c0-15.047,5.2-28.609,15.457-40.31c10.494-11.972,24.562-18.042,41.815-18.042c17.25,0,31.318,6.07,41.814,18.041
	c10.256,11.703,15.456,25.265,15.456,40.31c0,15.05-5.2,28.613-15.456,40.312C413.48,204.181,399.412,210.251,382.16,210.251z
	 M382.16,107.623c-13.203,0-23.418,4.332-31.229,13.244c-8.051,9.185-11.965,19.335-11.965,31.03
	c0,11.698,3.914,21.849,11.965,31.032c7.812,8.913,18.027,13.246,31.23,13.246c13.202,0,23.417-4.333,31.229-13.246
	c8.051-9.184,11.964-19.334,11.964-31.032c0-11.694-3.914-21.844-11.965-31.031C405.576,111.955,395.36,107.623,382.16,107.623z"/>
<path fill="#584496" d="M770.371,209.642c-13.24,0-24.296-3.31-32.862-9.839c-9.15-6.966-13.791-17.075-13.791-30.045h14.076
	c0,8.459,2.697,14.623,8.245,18.847c6.061,4.619,14.246,6.961,24.332,6.961c9.908,0,17.905-2.396,23.769-7.123
	c5.568-4.486,8.162-9.817,8.162-16.778c0-5.133-1.669-9.449-5.103-13.196c-3.793-4.144-9.975-7.67-18.374-10.483l-15.383-5.352
	c-18.562-6.25-22.473-16.661-22.473-24.289c0-6.603,2.369-12.451,7.042-17.382c4.775-5.037,12.136-7.59,21.879-7.59
	c8.306,0,15.218,2.531,20.545,7.522c5.138,4.818,8.408,11.4,9.725,19.563l-13.898,2.24c-0.819-5.087-2.604-8.86-5.454-11.533
	c-2.667-2.499-6.239-3.715-10.917-3.715c-5.646,0-9.679,1.105-11.662,3.197c-2.171,2.291-3.183,4.737-3.183,7.698
	c0,4.385,4.359,8.076,12.956,10.971l15.372,5.348c10.613,3.554,18.783,8.373,24.206,14.297c5.838,6.371,8.798,14.01,8.798,22.704
	c0,11.241-4.51,20.574-13.406,27.739C794.545,206.196,783.576,209.642,770.371,209.642z"/>
<polygon fill="#584496" points="1138.691,205.271 1054.593,205.271 1054.593,93.463 1068.669,93.463 1068.669,191.194 
	1138.691,191.194 "/>
<rect x="831.372" y="94.454" fill="#584496" width="14.076" height="111.907"/>
<rect x="905.53" y="94.454" fill="#584496" width="14.076" height="111.907"/>
<rect x="838.41" y="139.995" fill="#584496" width="74.158" height="14.077"/>
<path fill="#584496" d="M265.349,209.815c-13.231,0-24.285-3.308-32.854-9.832c-9.154-6.978-13.794-17.087-13.794-30.052h14.077
	c0,8.457,2.698,14.623,8.248,18.854c6.06,4.613,14.245,6.954,24.324,6.954c9.905,0,17.905-2.397,23.776-7.126
	c5.565-4.482,8.157-9.813,8.157-16.775c0-5.132-1.669-9.45-5.103-13.199c-3.794-4.142-9.977-7.669-18.376-10.484l-15.376-5.348
	c-18.564-6.253-22.475-16.662-22.475-24.289c0-6.601,2.368-12.449,7.039-17.38c4.774-5.039,12.136-7.593,21.881-7.593
	c8.314,0,15.228,2.532,20.55,7.526c5.135,4.819,8.405,11.4,9.719,19.562l-13.898,2.237c-0.819-5.086-2.603-8.859-5.453-11.534
	c-2.664-2.5-6.234-3.714-10.917-3.714c-5.647,0-9.679,1.105-11.661,3.197c-2.17,2.291-3.181,4.738-3.181,7.699
	c0,4.383,4.359,8.074,12.957,10.97l15.367,5.345c10.612,3.556,18.783,8.375,24.208,14.298c5.839,6.375,8.799,14.015,8.799,22.708
	c0,11.241-4.51,20.574-13.404,27.739C289.517,206.371,278.547,209.815,265.349,209.815z"/>
<polygon fill="#584496" points="530.861,207.32 468.266,120.473 468.266,206.361 454.189,206.361 454.189,98.669 466.938,94.554 
	529.533,181.401 529.533,94.454 543.61,94.454 543.61,203.205 "/>
<path fill="#584496" d="M618.113,210.286c-15.459,0-29.172-5.601-40.761-16.646c-11.689-11.126-17.618-25.165-17.618-41.724
	c0-16.537,5.861-30.567,17.42-41.701c11.482-11.062,25.263-16.67,40.958-16.67c6.869,0,13.925,1.391,20.972,4.135
	c7.091,2.767,13.543,6.888,19.181,12.251l-9.703,10.199c-4.307-4.097-9.215-7.238-14.59-9.334
	c-5.407-2.105-10.745-3.174-15.859-3.174c-12.096,0-22.299,4.165-31.192,12.731c-8.821,8.498-13.109,18.822-13.109,31.563
	c0,12.73,4.334,23.045,13.25,31.53c9.011,8.59,19.167,12.764,31.052,12.764c10.389,0,19.492-3.248,27.832-9.928
	c6.154-4.93,10.579-11.081,13.394-18.66h-38.161v-14.076h55.997l-1.676,8.413c-2.939,14.754-9.922,26.634-20.753,35.31
	C643.963,205.907,631.638,210.286,618.113,210.286z"/>
<rect x="61.636" y="103.914" fill="none" width="127.42" height="54.445"/>
<text transform="matrix(1 0 0 1 67.1289 142.0342)" fill="#584496" font-family="'Helvetica-Bold'" font-size="53.011" letter-spacing="7">THE</text>
</svg>
