<?xml version="1.0" encoding="utf-8"?>
<!-- Generator: Adobe Illustrator 15.0.0, SVG Export Plug-In . SVG Version: 6.00 Build 0)  -->
<!DOCTYPE svg PUBLIC "-//W3C//DTD SVG 1.1//EN" "http://www.w3.org/Graphics/SVG/1.1/DTD/svg11.dtd">
<svg version="1.1" id="Layer_1" xmlns="http://www.w3.org/2000/svg" xmlns:xlink="http://www.w3.org/1999/xlink" x="0px" y="0px"
	 width="400px" height="400px" viewBox="0 0 400 400" enable-background="new 0 0 400 400" xml:space="preserve">
<rect y="0.002" width="400" height="399.998"/>
<g>
	<g>
		<path fill="#FFFFFF" d="M53.583,251.728c0.76-0.434,1.437-0.65,2.033-0.65h1.872c0.379,0,1.029-0.027,1.952-0.082
			c4.176-0.379,6.643-0.759,7.403-1.139c1.897-1.03,3.524-2.82,4.88-5.371c2.822-5.534,5.997-13.373,9.524-23.52
			c1.683-4.828,2.74-7.758,3.175-8.788c1.355-3.256,2.659-6.674,3.907-10.255l7.651-21.402c1.194-3.363,4.07-11.068,8.628-23.112
			c1.14-3.038,2.523-7.107,4.152-12.207l2.396-0.163l2.846,0.082c2.33,4.612,4.39,9.576,6.177,14.892
			c0.975,2.822,2.574,7.027,4.796,12.614l12.354,33.448l6.584,18.147c3.471,10.309,5.75,16.642,6.836,19.002
			c1.084,2.36,2.088,3.92,3.011,4.68c0.271,0.217,1.288,0.543,3.052,0.977c1.763,0.435,2.997,0.76,3.703,0.977
			c2.495,0.705,4.232,1.302,5.208,1.79c0.216,0.598,0.326,1.058,0.326,1.384c0,0.271-0.082,0.679-0.244,1.221
			c-1.737,0.055-2.958,0.081-3.662,0.081c-2.767,0-7.65-0.081-14.648-0.244l-8.138-0.183l-9.847,0.122
			c-0.651,0-1.316-0.031-1.994-0.092c-0.679-0.062-1.261-0.092-1.75-0.092h-1.791c-0.598-0.054-1.139-0.216-1.627-0.488
			c0-0.759,0.135-1.491,0.407-2.197c0.651-0.325,1.248-0.515,1.791-0.569l8.542-0.571c2.223-0.108,3.905-0.407,5.044-0.896
			c0.325-0.978,0.488-1.711,0.488-2.201c0-0.979-0.706-3.507-2.116-7.584c-0.976-2.717-1.829-5.298-2.56-7.744
			c-0.732-2.445-3.617-10.489-8.655-24.133c-2.225-0.381-4.178-0.571-5.859-0.571l-17.415,0.163l-5.127-0.082
			c-1.845,0-3.879,0.137-6.104,0.407c-0.707,1.628-1.168,2.795-1.385,3.499l-7.171,22.38c-3.039,8.518-4.557,13.211-4.557,14.078
			c0,0.488,0.244,1.303,0.732,2.441c1.139,0.326,2.657,0.625,4.557,0.896l11.067,0.977c0.597,0.488,0.896,0.923,0.896,1.302
			c0,0.272-0.082,0.68-0.244,1.221c-2.441,0.055-4.313,0.082-5.615,0.082c-4.341,0-9.387-0.135-15.137-0.407
			c-2.659-0.108-4.557-0.163-5.697-0.163c-1.139,0-3.12,0.055-5.94,0.163c-1.845,0.109-3.174,0.163-3.988,0.163
			c-1.302,0-2.984-0.082-5.045-0.244v-0.488C53.257,252.896,53.366,252.379,53.583,251.728z M92.415,202.899
			c5.804,0.325,12.423,0.488,19.856,0.488c4.231,0,7.947-0.135,11.149-0.407c-0.543-2.114-1.166-4.094-1.871-5.938
			c-3.522-9.436-5.471-14.642-5.85-15.619l-7.397-18.791l-0.812-1.465c-0.327,0.651-1.522,3.445-3.585,8.378
			c-3.478,8.461-5.977,15.05-7.497,19.768c-0.707,2.116-1.441,4.216-2.201,6.304c-0.761,2.088-1.236,3.553-1.425,4.393
			c-0.191,0.842-0.476,1.695-0.856,2.562L92.415,202.899z"/>
	</g>
	<g>
		<path fill="#FFFFFF" d="M240.31,250.521l-12.972-16.47c-2.915,5.345-6.875,9.815-11.878,13.409
			c-5.006,3.594-11.2,5.393-18.583,5.393c-3.596,0-7.192-0.583-10.785-1.749c-3.596-1.166-6.777-2.842-9.546-5.028
			s-5.028-4.857-6.777-8.017c-1.749-3.156-2.624-6.776-2.624-10.857c0-4.274,0.875-8.089,2.624-11.441
			c1.749-3.352,3.983-6.388,6.705-9.108c2.719-2.72,5.731-5.175,9.036-7.361c3.302-2.186,6.508-4.25,9.619-6.194
			c-1.458-2.04-3.061-4.153-4.81-6.34c-1.749-2.186-3.425-4.42-5.028-6.704c-1.603-2.282-2.94-4.614-4.008-6.996
			c-1.07-2.38-1.604-4.785-1.604-7.214c0-3.4,0.631-6.315,1.895-8.745c1.261-2.427,2.89-4.42,4.882-5.976
			c1.99-1.553,4.25-2.719,6.777-3.498c2.526-0.777,5.101-1.166,7.725-1.166c2.915,0,5.659,0.437,8.234,1.312
			c2.573,0.875,4.833,2.139,6.777,3.79c1.942,1.653,3.473,3.668,4.591,6.048c1.116,2.382,1.677,5.126,1.677,8.235
			c0,3.498-0.754,6.583-2.26,9.254c-1.507,2.674-3.377,5.101-5.611,7.288c-2.235,2.186-4.714,4.204-7.433,6.048
			c-2.722,1.847-5.246,3.644-7.579,5.393l27.4,34.688c0.971-2.136,1.845-4.76,2.623-7.87c0.777-3.108,1.068-6.606,0.875-10.494
			h2.915c0.096,4.373-0.244,8.14-1.021,11.296c-0.778,3.158-1.895,6.39-3.352,9.691l15.303,19.385H240.31z M187.768,201.259
			c-3.159,2.04-6.048,4.3-8.672,6.777c-2.623,2.479-4.787,5.272-6.485,8.381c-1.701,3.11-2.551,6.704-2.551,10.785
			c0,3.693,0.776,6.973,2.332,9.838c1.553,2.867,3.571,5.271,6.048,7.214c2.478,1.945,5.342,3.402,8.599,4.373
			c3.254,0.973,6.533,1.457,9.838,1.457c6.996,0,12.826-1.749,17.489-5.247c4.664-3.498,8.355-8.016,11.077-13.554l-28.566-35.854
			C193.962,197.276,190.924,199.219,187.768,201.259z M183.469,170.507c0.583,1.653,1.48,3.475,2.696,5.465
			c1.214,1.993,2.769,4.252,4.664,6.777c1.895,2.528,4.154,5.49,6.777,8.891c2.041-1.458,4.322-3.061,6.85-4.81
			c2.525-1.749,4.883-3.667,7.068-5.757c2.187-2.088,4.031-4.395,5.538-6.923c1.506-2.525,2.26-5.294,2.26-8.307
			c0-2.526-0.487-4.81-1.458-6.85c-0.972-2.041-2.309-3.765-4.008-5.174c-1.701-1.407-3.644-2.5-5.83-3.279
			c-2.186-0.776-4.495-1.166-6.923-1.166c-2.527,0-4.907,0.364-7.141,1.093c-2.236,0.729-4.204,1.799-5.903,3.207
			c-1.701,1.41-3.038,3.111-4.008,5.101c-0.973,1.993-1.458,4.251-1.458,6.777C182.594,167.205,182.886,168.856,183.469,170.507z"/>
	</g>
	<path fill="#FFFFFF" d="M340.258,238.203c-1.8,2.434-4.201,4.61-7.202,6.535c-3.002,1.923-6.011,3.481-9.027,4.672
		c-3.017,1.188-6.121,1.94-9.312,2.261c-6.606,0.663-13.059-0.435-19.353-3.293c-6.295-2.858-11.097-6.306-14.411-10.346
		c-3.316-4.039-5.784-8.878-7.412-14.524c-2.306-7.998-2.7-15.727-1.18-23.191c1.521-7.464,5.334-12.936,11.444-16.414
		c8.348,2.39,13.371,3.756,15.073,4.099c1.698,0.342,3.728,0.394,6.083,0.158c2.124-0.214,4.019-0.696,5.676-1.451
		c1.659-0.751,2.875-1.68,3.649-2.789c0.775-1.102,0.98-2.297,0.608-3.581c-0.075-0.262-0.187-0.527-0.329-0.793
		c-0.005-0.014-2.293-7.604-23.383-1.637c0,0-0.231,0.081-0.588,0.205c-0.419-0.562-1.08-2.047-1.08-2.047
		c-1.146-3.979-1.552-7.755-1.216-11.335c0.334-3.579,1.192-6.769,2.57-9.578c1.378-2.804,3.014-4.794,4.903-5.971
		c1.888-1.177,4.204-2.01,6.954-2.506c2.276-0.229,4.266-0.173,5.968,0.165c1.697,0.339,3.129,1.034,4.291,2.083
		c1.163,1.05,1.918,2.175,2.264,3.378c0.287,0.994,0.388,2.221,0.303,3.689c0,0-0.226,1.164-0.175,2.655
		c-0.02,0.273,0.019,0.847,0.057,0.85c0.263,2.461,1.412,5.343,5.336,5.519c3.456,0.157,6.941-2.208,7.396-5.788
		c0.555-4.36-3.349-8.535-6.942-10.604c-3.561-2.043-6.776-3.305-9.648-3.782c-2.875-0.473-5.942-0.549-9.209-0.222
		c-3.947,0.397-7.881,1.397-11.793,3.001c-3.917,1.603-7.322,3.469-10.226,5.593c-2.884,2.2-4.953,4.92-6.204,8.163
		c-0.783,2.032-1.153,4.013-1.107,5.946c-0.211,8.852,6.135,13.523,6.135,13.523c-0.614-0.696-1.154-1.443-1.64-2.221
		c0.488,0.747,1.03,1.488,1.64,2.221c-1.59,1.26-4.518,3.646-8.777,7.155c-4.266,3.508-7.668,6.95-10.212,10.325
		c-2.542,3.375-4.29,7.345-5.235,11.915c-0.95,4.572-0.725,9.282,0.674,14.131c1.274,4.421,4.03,9.372,8.267,14.851
		c4.238,5.483,10.091,9.442,17.553,11.887c7.463,2.439,13.838,3.616,19.128,3.524c5.287-0.091,8.558-0.127,9.816-0.105
		c0.91-0.091,1.82-0.184,2.733-0.273c8.886-0.893,16.32-3.501,22.301-7.824c5.979-4.325,9.49-10.117,10.521-17.371
		C343.951,232.726,342.057,235.775,340.258,238.203z M312.631,180.904c0.375,1.034,0.105,2.013-0.827,2.937
		c-1.157,1.144-2.606,1.802-4.354,1.978c-3.265,0.329-6.241,0.041-8.926-0.865c-2.681-0.903-4.723-2.569-6.128-4.998
		C292.396,179.956,309.444,173.678,312.631,180.904z M320.161,153.066c1.863,5.983,0.628,9.221-0.756,9.16
		c-1.382-0.062-1.454-3.048-1.369-3.98c0.085-0.923-0.227-3.233-0.231-3.266c-0.093-0.527-0.223-1.102-0.409-1.745
		c-0.266-0.927-0.517-1.727-0.752-2.401c-0.233-0.673-0.468-1.292-0.71-1.855C318.134,149.566,319.544,150.927,320.161,153.066z
		 M278.142,177.426c-1.304-1.922-2.277-3.99-2.913-6.201c-1.709-5.917-0.569-10.836,3.413-14.76
		c2.553-2.603,5.363-4.315,8.431-5.139c-3.21,2.965-5.51,6.239-6.896,9.826c-1.387,3.59-1.454,7.559-0.198,11.906
		c1.067,3.709,3.371,6.963,6.915,9.761c-1.018,0.323-2.404-0.015-4.159-1.012C280.982,180.81,279.45,179.35,278.142,177.426z
		 M277.258,247.39c-5.732-2.878-10.225-6.414-13.476-10.61c-0.773-1-1.484-1.983-2.133-2.95c-1.491-2.332-6.085-10.752-3.959-23.218
		c1.257-5.162,3.751-11.446,8.676-16.661l5.427-4.55c-5.369,7.667-8.658,14.283-9.87,19.843c-1.207,5.559-1.163,10.591,0.132,15.089
		c0.868,2.998,2.654,6.494,5.37,10.481c2.713,3.993,6.343,7.503,10.892,10.541c4.548,3.029,9.547,5.195,14.996,6.486
		C288.344,251.751,282.993,250.266,277.258,247.39z"/>
</g>
</svg>
