<?xml version="1.0" encoding="utf-8"?>
<!-- Generator: Adobe Illustrator 15.0.0, SVG Export Plug-In . SVG Version: 6.00 Build 0)  -->
<!DOCTYPE svg PUBLIC "-//W3C//DTD SVG 1.1//EN" "http://www.w3.org/Graphics/SVG/1.1/DTD/svg11.dtd">
<svg version="1.1" id="Layer_1" xmlns="http://www.w3.org/2000/svg" xmlns:xlink="http://www.w3.org/1999/xlink" x="0px" y="0px"
	 width="500px" height="500px" viewBox="0 0 500 500" enable-background="new 0 0 500 500" xml:space="preserve">
<g>
	<g>
		
			<rect x="227.915" y="-46.123" fill="#8F8966" stroke="#000000" stroke-width="4.6311" stroke-miterlimit="10" width="52.502" height="852.883"/>
		<path fill="#D6D5C0" stroke="#000000" stroke-width="4.6311" stroke-miterlimit="10" d="M73.178,788.341
			c0,10.172-8.249,18.42-18.42,18.42H-6.029c-10.176,0-18.423-8.248-18.423-18.42V-27.702c0-10.172,8.247-18.421,18.423-18.421
			h60.787c10.172,0,18.42,8.249,18.42,18.421V788.341z"/>
		<path fill="#D6D5C0" stroke="#000000" stroke-width="4.6311" stroke-miterlimit="10" d="M537.384,788.341
			c0,10.172-8.249,18.42-18.42,18.42h-60.787c-10.176,0-18.423-8.248-18.423-18.42V-27.702c0-10.172,8.247-18.421,18.423-18.421
			h60.787c10.171,0,18.42,8.249,18.42,18.421V788.341z"/>
		<path fill="#D6D5C0" stroke="#000000" stroke-width="4.6311" stroke-miterlimit="10" d="M246.334,788.341
			c0,10.172-8.246,18.42-18.419,18.42H91.599c-10.171,0-18.42-8.248-18.42-18.42V-27.702c0-10.172,8.249-18.421,18.42-18.421
			h136.316c10.173,0,18.419,8.249,18.419,18.421V788.341z"/>
		<path fill="#D6D5C0" stroke="#000000" stroke-width="4.6311" stroke-miterlimit="10" d="M261.995,788.341
			c0,10.172,8.248,18.42,18.422,18.42h140.917c10.17,0,18.42-8.248,18.42-18.42V-27.702c0-10.172-8.25-18.421-18.42-18.421H280.417
			c-10.174,0-18.422,8.249-18.422,18.421V788.341z"/>
	</g>
	<text transform="matrix(1 0 0 1 98.9512 -14.5024)" fill="#000100" font-family="'Helvetica'" font-size="25.7892">a  b  c  d  e          f  g  h  i  j</text>
	<text transform="matrix(1 0 0 1 85.6372 6.6841)"><tspan x="0" y="0" fill="#000100" font-family="'Helvetica'" font-size="14.7367">1</tspan><tspan x="0" y="25.973" fill="#000100" font-family="'Helvetica'" font-size="14.7367">2</tspan><tspan x="0" y="51.947" fill="#000100" font-family="'Helvetica'" font-size="14.7367">3</tspan><tspan x="0" y="77.92" fill="#000100" font-family="'Helvetica'" font-size="14.7367">4</tspan><tspan x="0" y="103.894" fill="#000100" font-family="'Helvetica'" font-size="14.7367">5</tspan><tspan x="0" y="129.867" fill="#000100" font-family="'Helvetica'" font-size="14.7367">6</tspan><tspan x="0" y="155.84" fill="#000100" font-family="'Helvetica'" font-size="14.7367">7</tspan><tspan x="0" y="181.813" fill="#000100" font-family="'Helvetica'" font-size="14.7367">8</tspan><tspan x="0" y="207.787" fill="#000100" font-family="'Helvetica'" font-size="14.7367">9</tspan><tspan x="-4.098" y="233.76" fill="#000100" font-family="'Helvetica'" font-size="14.7367">10</tspan><tspan x="-4.098" y="259.734" fill="#000100" font-family="'Helvetica'" font-size="14.7367">11</tspan><tspan x="-4.098" y="285.707" fill="#000100" font-family="'Helvetica'" font-size="14.7367">12</tspan><tspan x="-4.098" y="311.68" fill="#000100" font-family="'Helvetica'" font-size="14.7367">13</tspan><tspan x="-4.098" y="337.654" fill="#000100" font-family="'Helvetica'" font-size="14.7367">14</tspan><tspan x="-4.098" y="363.627" fill="#000100" font-family="'Helvetica'" font-size="14.7367">15</tspan><tspan x="-4.098" y="389.601" fill="#000100" font-family="'Helvetica'" font-size="14.7367">16</tspan><tspan x="-4.098" y="415.574" fill="#000100" font-family="'Helvetica'" font-size="14.7367">17</tspan><tspan x="-4.098" y="441.547" fill="#000100" font-family="'Helvetica'" font-size="14.7367">18</tspan><tspan x="-4.098" y="467.521" fill="#000100" font-family="'Helvetica'" font-size="14.7367">19</tspan><tspan x="-4.098" y="493.495" fill="#000100" font-family="'Helvetica'" font-size="14.7367">20</tspan><tspan x="-4.098" y="519.467" fill="#000100" font-family="'Helvetica'" font-size="14.7367">21</tspan><tspan x="-4.098" y="545.441" fill="#000100" font-family="'Helvetica'" font-size="14.7367">22</tspan><tspan x="-4.098" y="571.415" fill="#000100" font-family="'Helvetica'" font-size="14.7367">23</tspan><tspan x="-4.098" y="597.388" fill="#000100" font-family="'Helvetica'" font-size="14.7367">24</tspan><tspan x="-4.098" y="623.361" fill="#000100" font-family="'Helvetica'" font-size="14.7367">25</tspan><tspan x="-4.098" y="649.334" fill="#000100" font-family="'Helvetica'" font-size="14.7367">26</tspan><tspan x="-4.098" y="675.308" fill="#000100" font-family="'Helvetica'" font-size="14.7367">27</tspan><tspan x="-4.098" y="701.282" fill="#000100" font-family="'Helvetica'" font-size="14.7367">28</tspan><tspan x="-4.098" y="727.254" fill="#000100" font-family="'Helvetica'" font-size="14.7367">29</tspan><tspan x="-4.098" y="753.228" fill="#000100" font-family="'Helvetica'" font-size="14.7367">30</tspan></text>
	
		<line fill="none" stroke="#4787C7" stroke-width="6.9466" stroke-miterlimit="10" x1="56.61" y1="-1.601" x2="56.61" y2="762.241"/>
	
		<line fill="none" stroke="#EC2224" stroke-width="6.9466" stroke-miterlimit="10" x1="-6.029" y1="-1.601" x2="-6.029" y2="762.241"/>
	
		<line fill="none" stroke="#4787C7" stroke-width="6.9466" stroke-miterlimit="10" x1="519.888" y1="-1.601" x2="519.888" y2="762.241"/>
	
		<line fill="none" stroke="#EC2224" stroke-width="6.9466" stroke-miterlimit="10" x1="457.25" y1="-1.601" x2="457.25" y2="762.241"/>
	<text transform="matrix(1 0 0 1 98.9512 790.4873)" fill="#000100" font-family="'Helvetica'" font-size="25.7892">a  b  c  d  e           f  g  h  i  j</text>
	<text transform="matrix(1 0 0 1 -13.4053 -10.812)"><tspan x="0" y="0" fill="#EC2224" font-family="'Helvetica'" font-size="33.1575">+</tspan><tspan x="19.363" y="0" fill="#000100" font-family="'Helvetica'" font-size="33.1575">    </tspan><tspan x="56.213" y="0" fill="#4787C7" font-family="'Helvetica'" font-size="33.1575">−</tspan><tspan x="75.576" y="0" fill="#000100" font-family="'Helvetica'" font-size="33.1575" letter-spacing="47">	</tspan><tspan x="132.63" y="0" fill="#000100" font-family="'Helvetica'" font-size="33.1575" letter-spacing="57">					</tspan><tspan x="464.205" y="0" fill="#EC2224" font-family="'Helvetica'" font-size="33.1575">+</tspan><tspan x="483.568" y="0" fill="#000100" font-family="'Helvetica'" font-size="33.1575">   </tspan><tspan x="511.206" y="0" fill="#4787C7" font-family="'Helvetica'" font-size="33.1575"> −</tspan><tspan x="0" y="805.175" fill="#EC2224" font-family="'Helvetica'" font-size="33.1575">+</tspan><tspan x="19.363" y="805.175" fill="#000100" font-family="'Helvetica'" font-size="33.1575">    </tspan><tspan x="56.213" y="805.175" fill="#4787C7" font-family="'Helvetica'" font-size="33.1575">−</tspan><tspan x="75.576" y="805.175" fill="#000100" font-family="'Helvetica'" font-size="33.1575" letter-spacing="47">	</tspan><tspan x="132.63" y="805.175" fill="#000100" font-family="'Helvetica'" font-size="33.1575" letter-spacing="57">					</tspan><tspan x="464.205" y="805.175" fill="#EC2224" font-family="'Helvetica'" font-size="33.1575">+</tspan><tspan x="483.568" y="805.175" fill="#000100" font-family="'Helvetica'" font-size="33.1575">    </tspan><tspan x="520.418" y="805.175" fill="#4787C7" font-family="'Helvetica'" font-size="33.1575">−</tspan></text>
	<text transform="matrix(1 0 0 1 420.2832 6.6841)"><tspan x="0" y="0" fill="#000100" font-family="'Helvetica'" font-size="14.7367">1</tspan><tspan x="0" y="25.973" fill="#000100" font-family="'Helvetica'" font-size="14.7367">2</tspan><tspan x="0" y="51.947" fill="#000100" font-family="'Helvetica'" font-size="14.7367">3</tspan><tspan x="0" y="77.92" fill="#000100" font-family="'Helvetica'" font-size="14.7367">4</tspan><tspan x="0" y="103.894" fill="#000100" font-family="'Helvetica'" font-size="14.7367">5</tspan><tspan x="0" y="129.867" fill="#000100" font-family="'Helvetica'" font-size="14.7367">6</tspan><tspan x="0" y="155.84" fill="#000100" font-family="'Helvetica'" font-size="14.7367">7</tspan><tspan x="0" y="181.813" fill="#000100" font-family="'Helvetica'" font-size="14.7367">8</tspan><tspan x="0" y="207.787" fill="#000100" font-family="'Helvetica'" font-size="14.7367">9</tspan><tspan x="-4.099" y="233.76" fill="#000100" font-family="'Helvetica'" font-size="14.7367">10</tspan><tspan x="-4.099" y="259.734" fill="#000100" font-family="'Helvetica'" font-size="14.7367">11</tspan><tspan x="-4.099" y="285.707" fill="#000100" font-family="'Helvetica'" font-size="14.7367">12</tspan><tspan x="-4.099" y="311.68" fill="#000100" font-family="'Helvetica'" font-size="14.7367">13</tspan><tspan x="-4.099" y="337.654" fill="#000100" font-family="'Helvetica'" font-size="14.7367">14</tspan><tspan x="-4.099" y="363.627" fill="#000100" font-family="'Helvetica'" font-size="14.7367">15</tspan><tspan x="-4.099" y="389.601" fill="#000100" font-family="'Helvetica'" font-size="14.7367">16</tspan><tspan x="-4.099" y="415.574" fill="#000100" font-family="'Helvetica'" font-size="14.7367">17</tspan><tspan x="-4.099" y="441.547" fill="#000100" font-family="'Helvetica'" font-size="14.7367">18</tspan><tspan x="-4.099" y="467.521" fill="#000100" font-family="'Helvetica'" font-size="14.7367">19</tspan><tspan x="-4.099" y="493.495" fill="#000100" font-family="'Helvetica'" font-size="14.7367">20</tspan><tspan x="-4.099" y="519.467" fill="#000100" font-family="'Helvetica'" font-size="14.7367">21</tspan><tspan x="-4.099" y="545.441" fill="#000100" font-family="'Helvetica'" font-size="14.7367">22</tspan><tspan x="-4.099" y="571.415" fill="#000100" font-family="'Helvetica'" font-size="14.7367">23</tspan><tspan x="-4.099" y="597.388" fill="#000100" font-family="'Helvetica'" font-size="14.7367">24</tspan><tspan x="-4.099" y="623.361" fill="#000100" font-family="'Helvetica'" font-size="14.7367">25</tspan><tspan x="-4.099" y="649.334" fill="#000100" font-family="'Helvetica'" font-size="14.7367">26</tspan><tspan x="-4.099" y="675.308" fill="#000100" font-family="'Helvetica'" font-size="14.7367">27</tspan><tspan x="-4.099" y="701.282" fill="#000100" font-family="'Helvetica'" font-size="14.7367">28</tspan><tspan x="-4.099" y="727.254" fill="#000100" font-family="'Helvetica'" font-size="14.7367">29</tspan><tspan x="-4.099" y="753.228" fill="#000100" font-family="'Helvetica'" font-size="14.7367">30</tspan></text>
	<g>
		<rect x="106.636" y="1.789" width="9.212" height="9.825"/>
		<rect x="134.183" y="1.753" width="9.21" height="9.822"/>
		<rect x="158.507" y="1.789" width="9.21" height="9.825"/>
		<rect x="184.91" y="1.789" width="9.209" height="9.825"/>
		<rect x="211.636" y="1.796" width="9.212" height="9.826"/>
	</g>
	<g>
		<rect x="106.944" y="27.624" width="9.209" height="9.823"/>
		<rect x="134.488" y="27.585" width="9.21" height="9.826"/>
		<rect x="158.812" y="27.624" width="9.213" height="9.823"/>
		<rect x="185.215" y="27.624" width="9.212" height="9.823"/>
		<rect x="211.944" y="27.63" width="9.208" height="9.823"/>
	</g>
	<g>
		<rect x="290.083" y="1.773" width="9.21" height="9.823"/>
		<rect x="317.628" y="1.735" width="9.211" height="9.825"/>
		<rect x="341.952" y="1.773" width="9.21" height="9.823"/>
		<rect x="368.354" y="1.773" width="9.211" height="9.823"/>
		<rect x="395.083" y="1.78" width="9.208" height="9.826"/>
	</g>
	<g>
		<rect x="290.083" y="27.653" width="9.21" height="9.823"/>
		<rect x="317.628" y="27.615" width="9.211" height="9.823"/>
		<rect x="341.952" y="27.653" width="9.21" height="9.823"/>
		<rect x="368.354" y="27.653" width="9.211" height="9.823"/>
		<rect x="395.083" y="27.66" width="9.208" height="9.823"/>
	</g>
	<g>
		<rect x="106.872" y="54.131" width="9.212" height="9.823"/>
		<rect x="134.417" y="54.092" width="9.208" height="9.826"/>
		<rect x="158.74" y="54.131" width="9.212" height="9.823"/>
		<rect x="185.142" y="54.131" width="9.214" height="9.823"/>
		<rect x="211.871" y="54.137" width="9.21" height="9.825"/>
	</g>
	<g>
		<rect x="107.178" y="79.965" width="9.208" height="9.823"/>
		<rect x="134.721" y="79.928" width="9.213" height="9.822"/>
		<rect x="159.048" y="79.965" width="9.21" height="9.823"/>
		<rect x="185.45" y="79.965" width="9.21" height="9.823"/>
		<rect x="212.175" y="79.973" width="9.211" height="9.822"/>
	</g>
	<g>
		<rect x="290.316" y="54.115" width="9.211" height="9.823"/>
		<rect x="317.861" y="54.076" width="9.212" height="9.826"/>
		<rect x="342.188" y="54.115" width="9.207" height="9.823"/>
		<rect x="368.589" y="54.115" width="9.209" height="9.823"/>
		<rect x="395.312" y="54.121" width="9.213" height="9.826"/>
	</g>
	<g>
		<rect x="290.316" y="79.993" width="9.211" height="9.825"/>
		<rect x="317.861" y="79.957" width="9.212" height="9.822"/>
		<rect x="342.188" y="79.993" width="9.207" height="9.825"/>
		<rect x="368.589" y="79.993" width="9.209" height="9.825"/>
		<rect x="395.312" y="80.002" width="9.213" height="9.822"/>
	</g>
	<g>
		<rect x="106.654" y="106.165" width="9.209" height="9.823"/>
		<rect x="134.199" y="106.126" width="9.21" height="9.825"/>
		<rect x="158.523" y="106.165" width="9.211" height="9.823"/>
		<rect x="184.926" y="106.165" width="9.212" height="9.823"/>
		<rect x="211.653" y="106.171" width="9.209" height="9.823"/>
	</g>
	<g>
		<rect x="106.959" y="132" width="9.21" height="9.823"/>
		<rect x="134.504" y="131.961" width="9.212" height="9.823"/>
		<rect x="158.83" y="132" width="9.208" height="9.823"/>
		<rect x="185.232" y="132" width="9.208" height="9.823"/>
		<rect x="211.959" y="132.006" width="9.209" height="9.823"/>
	</g>
	<g>
		<rect x="290.099" y="106.148" width="9.211" height="9.823"/>
		<rect x="317.644" y="106.11" width="9.21" height="9.823"/>
		<rect x="341.969" y="106.148" width="9.21" height="9.823"/>
		<rect x="368.37" y="106.148" width="9.211" height="9.823"/>
		<rect x="395.096" y="106.155" width="9.213" height="9.823"/>
	</g>
	<g>
		<rect x="290.099" y="132.027" width="9.211" height="9.825"/>
		<rect x="317.644" y="131.99" width="9.21" height="9.823"/>
		<rect x="341.969" y="132.027" width="9.21" height="9.825"/>
		<rect x="368.37" y="132.027" width="9.211" height="9.825"/>
		<rect x="395.096" y="132.033" width="9.213" height="9.826"/>
	</g>
	<g>
		<rect x="106.889" y="158.505" width="9.208" height="9.823"/>
		<rect x="134.431" y="158.467" width="9.213" height="9.823"/>
		<rect x="158.758" y="158.505" width="9.209" height="9.823"/>
		<rect x="185.161" y="158.505" width="9.21" height="9.823"/>
		<rect x="211.887" y="158.513" width="9.21" height="9.823"/>
	</g>
	<g>
		<rect x="107.192" y="184.338" width="9.213" height="9.826"/>
		<rect x="134.739" y="184.302" width="9.21" height="9.823"/>
		<rect x="159.064" y="184.338" width="9.21" height="9.826"/>
		<rect x="185.465" y="184.338" width="9.211" height="9.826"/>
		<rect x="212.191" y="184.348" width="9.212" height="9.823"/>
	</g>
	<g>
		<rect x="290.332" y="158.49" width="9.212" height="9.823"/>
		<rect x="317.878" y="158.452" width="9.208" height="9.823"/>
		<rect x="342.201" y="158.49" width="9.212" height="9.823"/>
		<rect x="368.604" y="158.49" width="9.212" height="9.823"/>
		<rect x="395.332" y="158.497" width="9.21" height="9.823"/>
	</g>
	<g>
		<rect x="290.332" y="184.368" width="9.212" height="9.826"/>
		<rect x="317.878" y="184.33" width="9.208" height="9.825"/>
		<rect x="342.201" y="184.368" width="9.212" height="9.826"/>
		<rect x="368.604" y="184.368" width="9.212" height="9.826"/>
		<rect x="395.332" y="184.375" width="9.21" height="9.825"/>
	</g>
	<g>
		<rect x="106.67" y="209.262" width="9.21" height="9.823"/>
		<rect x="134.215" y="209.223" width="9.212" height="9.823"/>
		<rect x="158.541" y="209.262" width="9.208" height="9.823"/>
		<rect x="184.943" y="209.262" width="9.208" height="9.823"/>
		<rect x="211.667" y="209.269" width="9.212" height="9.823"/>
	</g>
	<g>
		<rect x="106.976" y="235.095" width="9.212" height="9.825"/>
		<rect x="134.521" y="235.059" width="9.208" height="9.823"/>
		<rect x="158.844" y="235.095" width="9.213" height="9.825"/>
		<rect x="185.247" y="235.095" width="9.212" height="9.825"/>
		<rect x="211.975" y="235.104" width="9.209" height="9.823"/>
	</g>
	<g>
		<rect x="290.114" y="209.246" width="9.211" height="9.823"/>
		<rect x="317.66" y="209.208" width="9.209" height="9.822"/>
		<rect x="341.983" y="209.246" width="9.213" height="9.823"/>
		<rect x="368.386" y="209.246" width="9.212" height="9.823"/>
		<rect x="395.115" y="209.252" width="9.209" height="9.823"/>
	</g>
	<g>
		<rect x="290.114" y="235.125" width="9.211" height="9.823"/>
		<rect x="317.66" y="235.085" width="9.209" height="9.826"/>
		<rect x="341.983" y="235.125" width="9.213" height="9.823"/>
		<rect x="368.386" y="235.125" width="9.212" height="9.823"/>
		<rect x="395.115" y="235.131" width="9.209" height="9.826"/>
	</g>
	<g>
		<rect x="106.903" y="261.604" width="9.212" height="9.823"/>
		<rect x="134.449" y="261.565" width="9.21" height="9.822"/>
		<rect x="158.774" y="261.604" width="9.21" height="9.823"/>
		<rect x="185.177" y="261.604" width="9.21" height="9.823"/>
		<rect x="211.902" y="261.61" width="9.212" height="9.822"/>
	</g>
	<g>
		<rect x="107.21" y="287.437" width="9.21" height="9.824"/>
		<rect x="134.755" y="287.397" width="9.21" height="9.826"/>
		<rect x="159.079" y="287.437" width="9.211" height="9.824"/>
		<rect x="185.481" y="287.437" width="9.212" height="9.824"/>
		<rect x="212.21" y="287.442" width="9.208" height="9.826"/>
	</g>
	<g>
		<rect x="290.35" y="261.585" width="9.209" height="9.826"/>
		<rect x="317.893" y="261.55" width="9.213" height="9.822"/>
		<rect x="342.219" y="261.585" width="9.21" height="9.826"/>
		<rect x="368.621" y="261.585" width="9.211" height="9.826"/>
		<rect x="395.348" y="261.595" width="9.209" height="9.822"/>
	</g>
	<g>
		<rect x="290.35" y="287.466" width="9.209" height="9.822"/>
		<rect x="317.893" y="287.427" width="9.213" height="9.826"/>
		<rect x="342.219" y="287.466" width="9.21" height="9.822"/>
		<rect x="368.621" y="287.466" width="9.211" height="9.822"/>
		<rect x="395.348" y="287.472" width="9.209" height="9.826"/>
	</g>
	<g>
		<rect x="107.758" y="311.996" width="9.208" height="9.822"/>
		<rect x="135.3" y="311.957" width="9.212" height="9.825"/>
		<rect x="159.626" y="311.996" width="9.21" height="9.822"/>
		<rect x="186.029" y="311.996" width="9.21" height="9.822"/>
		<rect x="212.754" y="312.003" width="9.211" height="9.822"/>
	</g>
	<g>
		<rect x="108.062" y="337.828" width="9.21" height="9.825"/>
		<rect x="135.607" y="337.792" width="9.21" height="9.822"/>
		<rect x="159.932" y="337.828" width="9.211" height="9.825"/>
		<rect x="186.333" y="337.828" width="9.21" height="9.825"/>
		<rect x="213.061" y="337.838" width="9.212" height="9.822"/>
	</g>
	<g>
		<rect x="291.2" y="311.979" width="9.212" height="9.824"/>
		<rect x="318.747" y="311.94" width="9.209" height="9.824"/>
		<rect x="343.071" y="311.979" width="9.21" height="9.824"/>
		<rect x="369.475" y="311.979" width="9.209" height="9.824"/>
		<rect x="396.2" y="311.986" width="9.212" height="9.823"/>
	</g>
	<g>
		<rect x="291.2" y="337.857" width="9.212" height="9.825"/>
		<rect x="318.747" y="337.819" width="9.209" height="9.825"/>
		<rect x="343.071" y="337.857" width="9.21" height="9.825"/>
		<rect x="369.475" y="337.857" width="9.209" height="9.825"/>
		<rect x="396.2" y="337.864" width="9.212" height="9.825"/>
	</g>
	<g>
		<rect x="107.99" y="364.337" width="9.211" height="9.824"/>
		<rect x="135.535" y="364.298" width="9.212" height="9.824"/>
		<rect x="159.862" y="364.337" width="9.208" height="9.824"/>
		<rect x="186.264" y="364.337" width="9.207" height="9.824"/>
		<rect x="212.988" y="364.345" width="9.212" height="9.822"/>
	</g>
	<g>
		<rect x="108.296" y="390.169" width="9.212" height="9.828"/>
		<rect x="135.842" y="390.132" width="9.208" height="9.824"/>
		<rect x="160.165" y="390.169" width="9.212" height="9.828"/>
		<rect x="186.567" y="390.169" width="9.212" height="9.828"/>
		<rect x="213.296" y="390.179" width="9.208" height="9.822"/>
	</g>
	<g>
		<rect x="291.436" y="364.321" width="9.21" height="9.824"/>
		<rect x="318.979" y="364.284" width="9.211" height="9.822"/>
		<rect x="343.304" y="364.321" width="9.212" height="9.824"/>
		<rect x="369.707" y="364.321" width="9.212" height="9.824"/>
		<rect x="396.435" y="364.329" width="9.208" height="9.822"/>
	</g>
	<g>
		<rect x="291.436" y="390.2" width="9.21" height="9.824"/>
		<rect x="318.979" y="390.159" width="9.211" height="9.828"/>
		<rect x="343.304" y="390.2" width="9.212" height="9.824"/>
		<rect x="369.707" y="390.2" width="9.212" height="9.824"/>
		<rect x="396.435" y="390.206" width="9.208" height="9.826"/>
	</g>
	<g>
		<rect x="108.078" y="416.028" width="9.213" height="9.828"/>
		<rect x="135.625" y="415.991" width="9.208" height="9.824"/>
		<rect x="159.947" y="416.028" width="9.212" height="9.828"/>
		<rect x="186.353" y="416.028" width="9.21" height="9.828"/>
		<rect x="213.078" y="416.038" width="9.211" height="9.822"/>
	</g>
	<g>
		<rect x="108.386" y="441.866" width="9.208" height="9.822"/>
		<rect x="135.931" y="441.825" width="9.209" height="9.822"/>
		<rect x="160.255" y="441.866" width="9.209" height="9.822"/>
		<rect x="186.657" y="441.866" width="9.21" height="9.822"/>
		<rect x="213.386" y="441.87" width="9.208" height="9.822"/>
	</g>
	<g>
		<rect x="291.525" y="416.015" width="9.208" height="9.822"/>
		<rect x="319.068" y="415.974" width="9.212" height="9.828"/>
		<rect x="343.395" y="416.015" width="9.211" height="9.822"/>
		<rect x="369.796" y="416.015" width="9.211" height="9.822"/>
		<rect x="396.524" y="416.021" width="9.209" height="9.826"/>
	</g>
	<g>
		<rect x="291.525" y="441.892" width="9.208" height="9.824"/>
		<rect x="319.068" y="441.856" width="9.212" height="9.822"/>
		<rect x="343.395" y="441.892" width="9.211" height="9.824"/>
		<rect x="369.796" y="441.892" width="9.211" height="9.824"/>
		<rect x="396.524" y="441.901" width="9.209" height="9.824"/>
	</g>
	<g>
		<rect x="108.314" y="468.372" width="9.209" height="9.824"/>
		<rect x="135.858" y="468.333" width="9.21" height="9.826"/>
		<rect x="160.182" y="468.372" width="9.212" height="9.824"/>
		<rect x="186.586" y="468.372" width="9.212" height="9.824"/>
		<rect x="213.313" y="468.378" width="9.208" height="9.826"/>
	</g>
	<g>
		<rect x="108.62" y="494.204" width="9.209" height="9.824"/>
		<rect x="136.163" y="494.169" width="9.213" height="9.822"/>
		<rect x="160.49" y="494.204" width="9.208" height="9.824"/>
		<rect x="186.892" y="494.204" width="9.209" height="9.824"/>
		<rect x="213.616" y="494.214" width="9.212" height="9.824"/>
	</g>
	<g>
		<rect x="291.757" y="468.354" width="9.212" height="9.824"/>
		<rect x="319.304" y="468.317" width="9.211" height="9.822"/>
		<rect x="343.628" y="468.354" width="9.21" height="9.824"/>
		<rect x="370.03" y="468.354" width="9.211" height="9.824"/>
		<rect x="396.756" y="468.362" width="9.212" height="9.824"/>
	</g>
	<g>
		<rect x="291.757" y="494.233" width="9.212" height="9.826"/>
		<rect x="319.304" y="494.196" width="9.211" height="9.822"/>
		<rect x="343.628" y="494.233" width="9.21" height="9.826"/>
		<rect x="370.03" y="494.233" width="9.211" height="9.826"/>
		<rect x="396.756" y="494.241" width="9.212" height="9.822"/>
	</g>
	<g>
		<rect x="108.314" y="517.278" width="9.209" height="9.822"/>
		<rect x="135.858" y="517.237" width="9.21" height="9.828"/>
		<rect x="160.182" y="517.278" width="9.212" height="9.822"/>
		<rect x="186.586" y="517.278" width="9.212" height="9.822"/>
		<rect x="213.313" y="517.284" width="9.208" height="9.826"/>
	</g>
	<g>
		<rect x="108.62" y="543.112" width="9.209" height="9.822"/>
		<rect x="136.163" y="543.075" width="9.213" height="9.822"/>
		<rect x="160.49" y="543.112" width="9.208" height="9.822"/>
		<rect x="186.892" y="543.112" width="9.209" height="9.822"/>
		<rect x="213.616" y="543.12" width="9.212" height="9.822"/>
	</g>
	<g>
		<rect x="291.757" y="517.261" width="9.212" height="9.822"/>
		<rect x="319.304" y="517.226" width="9.211" height="9.822"/>
		<rect x="343.628" y="517.261" width="9.21" height="9.822"/>
		<rect x="370.03" y="517.261" width="9.211" height="9.822"/>
		<rect x="396.756" y="517.271" width="9.212" height="9.822"/>
	</g>
	<g>
		<rect x="291.757" y="543.144" width="9.212" height="9.822"/>
		<rect x="319.304" y="543.103" width="9.211" height="9.822"/>
		<rect x="343.628" y="543.144" width="9.21" height="9.822"/>
		<rect x="370.03" y="543.144" width="9.211" height="9.822"/>
		<rect x="396.756" y="543.147" width="9.212" height="9.824"/>
	</g>
	<g>
		<rect x="108.546" y="569.618" width="9.211" height="9.822"/>
		<rect x="136.091" y="569.583" width="9.213" height="9.822"/>
		<rect x="160.417" y="569.618" width="9.208" height="9.822"/>
		<rect x="186.821" y="569.618" width="9.209" height="9.822"/>
		<rect x="213.546" y="569.628" width="9.21" height="9.822"/>
	</g>
	<g>
		<rect x="108.852" y="595.454" width="9.212" height="9.824"/>
		<rect x="136.399" y="595.415" width="9.208" height="9.822"/>
		<rect x="160.724" y="595.454" width="9.209" height="9.824"/>
		<rect x="187.125" y="595.454" width="9.21" height="9.824"/>
		<rect x="213.851" y="595.46" width="9.211" height="9.822"/>
	</g>
	<g>
		<rect x="291.992" y="569.604" width="9.208" height="9.822"/>
		<rect x="319.538" y="569.563" width="9.208" height="9.828"/>
		<rect x="343.86" y="569.604" width="9.214" height="9.822"/>
		<rect x="370.264" y="569.604" width="9.212" height="9.822"/>
		<rect x="396.99" y="569.608" width="9.211" height="9.824"/>
	</g>
	<g>
		<rect x="291.992" y="595.483" width="9.208" height="9.822"/>
		<rect x="319.538" y="595.446" width="9.208" height="9.822"/>
		<rect x="343.86" y="595.483" width="9.214" height="9.822"/>
		<rect x="370.264" y="595.483" width="9.212" height="9.822"/>
		<rect x="396.99" y="595.491" width="9.211" height="9.822"/>
	</g>
	<g>
		<rect x="108.87" y="619.796" width="9.21" height="9.822"/>
		<rect x="136.415" y="619.755" width="9.21" height="9.828"/>
		<rect x="160.74" y="619.796" width="9.212" height="9.822"/>
		<rect x="187.141" y="619.796" width="9.212" height="9.822"/>
		<rect x="213.87" y="619.802" width="9.209" height="9.826"/>
	</g>
	<g>
		<rect x="109.176" y="645.628" width="9.21" height="9.822"/>
		<rect x="136.719" y="645.591" width="9.213" height="9.824"/>
		<rect x="161.047" y="645.628" width="9.208" height="9.822"/>
		<rect x="187.449" y="645.628" width="9.21" height="9.822"/>
		<rect x="214.175" y="645.638" width="9.211" height="9.822"/>
	</g>
	<g>
		<rect x="292.316" y="619.776" width="9.209" height="9.824"/>
		<rect x="319.859" y="619.743" width="9.21" height="9.82"/>
		<rect x="344.187" y="619.776" width="9.207" height="9.824"/>
		<rect x="370.589" y="619.776" width="9.207" height="9.824"/>
		<rect x="397.312" y="619.786" width="9.212" height="9.822"/>
	</g>
	<g>
		<rect x="292.316" y="645.655" width="9.209" height="9.828"/>
		<rect x="319.859" y="645.618" width="9.21" height="9.822"/>
		<rect x="344.187" y="645.655" width="9.207" height="9.828"/>
		<rect x="370.589" y="645.655" width="9.207" height="9.828"/>
		<rect x="397.312" y="645.665" width="9.212" height="9.824"/>
	</g>
	<g>
		<rect x="109.105" y="672.136" width="9.208" height="9.822"/>
		<rect x="136.647" y="672.099" width="9.213" height="9.824"/>
		<rect x="160.974" y="672.136" width="9.211" height="9.822"/>
		<rect x="187.376" y="672.136" width="9.21" height="9.822"/>
		<rect x="214.102" y="672.146" width="9.211" height="9.82"/>
	</g>
	<g>
		<rect x="109.408" y="697.968" width="9.212" height="9.826"/>
		<rect x="136.955" y="697.931" width="9.21" height="9.824"/>
		<rect x="161.279" y="697.968" width="9.211" height="9.826"/>
		<rect x="187.683" y="697.968" width="9.208" height="9.826"/>
		<rect x="214.408" y="697.978" width="9.212" height="9.822"/>
	</g>
	<g>
		<rect x="292.548" y="672.12" width="9.212" height="9.822"/>
		<rect x="320.095" y="672.081" width="9.208" height="9.822"/>
		<rect x="344.417" y="672.12" width="9.212" height="9.822"/>
		<rect x="370.821" y="672.12" width="9.211" height="9.822"/>
		<rect x="397.547" y="672.126" width="9.211" height="9.822"/>
	</g>
	<g>
		<rect x="292.548" y="697.999" width="9.212" height="9.822"/>
		<rect x="320.095" y="697.962" width="9.208" height="9.824"/>
		<rect x="344.417" y="697.999" width="9.212" height="9.822"/>
		<rect x="370.821" y="697.999" width="9.211" height="9.822"/>
		<rect x="397.547" y="698.003" width="9.211" height="9.828"/>
	</g>
	<g>
		<rect x="109.176" y="721.394" width="9.21" height="9.824"/>
		<rect x="136.719" y="721.358" width="9.213" height="9.822"/>
		<rect x="161.047" y="721.394" width="9.208" height="9.824"/>
		<rect x="187.449" y="721.394" width="9.21" height="9.824"/>
		<rect x="214.175" y="721.403" width="9.211" height="9.822"/>
	</g>
	<g>
		<rect x="109.48" y="747.229" width="9.213" height="9.824"/>
		<rect x="137.027" y="747.19" width="9.21" height="9.824"/>
		<rect x="161.352" y="747.229" width="9.211" height="9.824"/>
		<rect x="187.754" y="747.229" width="9.21" height="9.824"/>
		<rect x="214.479" y="747.235" width="9.214" height="9.822"/>
	</g>
	<g>
		<rect x="292.62" y="721.382" width="9.213" height="9.822"/>
		<rect x="320.166" y="721.339" width="9.208" height="9.824"/>
		<rect x="344.49" y="721.382" width="9.212" height="9.822"/>
		<rect x="370.892" y="721.382" width="9.212" height="9.822"/>
		<rect x="397.621" y="721.386" width="9.209" height="9.822"/>
	</g>
	<g>
		<rect x="292.62" y="747.259" width="9.213" height="9.822"/>
		<rect x="320.166" y="747.222" width="9.208" height="9.824"/>
		<rect x="344.49" y="747.259" width="9.212" height="9.822"/>
		<rect x="370.892" y="747.259" width="9.212" height="9.822"/>
		<rect x="397.621" y="747.263" width="9.209" height="9.828"/>
	</g>
	<g>
		<g>
			<rect x="470.668" y="110.663" width="9.823" height="9.21"/>
			<rect x="470.627" y="83.118" width="9.825" height="9.21"/>
			<rect x="470.668" y="58.791" width="9.823" height="9.211"/>
			<rect x="470.668" y="32.391" width="9.823" height="9.21"/>
			<rect x="470.672" y="5.663" width="9.825" height="9.21"/>
		</g>
		<g>
			<rect x="496.546" y="110.663" width="9.823" height="9.21"/>
			<rect x="496.507" y="83.118" width="9.826" height="9.21"/>
			<rect x="496.546" y="58.791" width="9.823" height="9.211"/>
			<rect x="496.546" y="32.391" width="9.823" height="9.21"/>
			<rect x="496.552" y="5.663" width="9.826" height="9.21"/>
		</g>
	</g>
	<g>
		<g>
			<rect x="470.668" y="265.839" width="9.821" height="9.211"/>
			<rect x="470.627" y="238.295" width="9.825" height="9.209"/>
			<rect x="470.668" y="213.97" width="9.821" height="9.21"/>
			<rect x="470.668" y="187.568" width="9.821" height="9.21"/>
			<rect x="470.672" y="160.839" width="9.823" height="9.21"/>
		</g>
		<g>
			<rect x="496.546" y="265.839" width="9.823" height="9.211"/>
			<rect x="496.504" y="238.295" width="9.829" height="9.209"/>
			<rect x="496.546" y="213.97" width="9.823" height="9.21"/>
			<rect x="496.546" y="187.568" width="9.823" height="9.21"/>
			<rect x="496.552" y="160.839" width="9.821" height="9.21"/>
		</g>
	</g>
	<g>
		<g>
			<rect x="470.708" y="421.683" width="9.829" height="9.213"/>
			<rect x="470.672" y="394.136" width="9.823" height="9.211"/>
			<rect x="470.708" y="369.812" width="9.829" height="9.211"/>
			<rect x="470.708" y="343.411" width="9.829" height="9.211"/>
			<rect x="470.717" y="316.683" width="9.823" height="9.211"/>
		</g>
		<g>
			<rect x="496.588" y="421.683" width="9.826" height="9.213"/>
			<rect x="496.552" y="394.136" width="9.821" height="9.211"/>
			<rect x="496.588" y="369.812" width="9.826" height="9.211"/>
			<rect x="496.588" y="343.411" width="9.826" height="9.211"/>
			<rect x="496.595" y="316.683" width="9.827" height="9.211"/>
		</g>
	</g>
	<g>
		<g>
			<rect x="470.756" y="577.14" width="9.82" height="9.207"/>
			<rect x="470.717" y="549.591" width="9.823" height="9.213"/>
			<rect x="470.756" y="525.271" width="9.82" height="9.207"/>
			<rect x="470.756" y="498.868" width="9.82" height="9.213"/>
			<rect x="470.763" y="472.14" width="9.823" height="9.213"/>
		</g>
		<g>
			<rect x="496.637" y="577.14" width="9.819" height="9.207"/>
			<rect x="496.595" y="549.591" width="9.827" height="9.213"/>
			<rect x="496.637" y="525.271" width="9.819" height="9.207"/>
			<rect x="496.637" y="498.868" width="9.819" height="9.213"/>
			<rect x="496.643" y="472.14" width="9.821" height="9.213"/>
		</g>
	</g>
	<g>
		<g>
			<rect x="470.804" y="733.474" width="9.821" height="9.213"/>
			<rect x="470.763" y="705.933" width="9.827" height="9.207"/>
			<rect x="470.804" y="681.604" width="9.821" height="9.213"/>
			<rect x="470.804" y="655.202" width="9.821" height="9.213"/>
			<rect x="470.81" y="628.476" width="9.82" height="9.211"/>
		</g>
		<g>
			<rect x="496.68" y="733.474" width="9.823" height="9.213"/>
			<rect x="496.643" y="705.933" width="9.824" height="9.207"/>
			<rect x="496.68" y="681.604" width="9.823" height="9.213"/>
			<rect x="496.68" y="655.202" width="9.823" height="9.213"/>
			<rect x="496.689" y="628.476" width="9.822" height="9.211"/>
		</g>
	</g>
	<g>
		<g>
			<rect x="6.461" y="109.371" width="9.823" height="9.21"/>
			<rect x="6.421" y="81.826" width="9.825" height="9.21"/>
			<rect x="6.461" y="57.502" width="9.823" height="9.21"/>
			<rect x="6.461" y="31.102" width="9.823" height="9.21"/>
			<rect x="6.466" y="4.374" width="9.826" height="9.21"/>
		</g>
		<g>
			<rect x="32.34" y="109.371" width="9.823" height="9.21"/>
			<rect x="32.304" y="81.826" width="9.823" height="9.21"/>
			<rect x="32.34" y="57.502" width="9.823" height="9.21"/>
			<rect x="32.34" y="31.102" width="9.823" height="9.21"/>
			<rect x="32.347" y="4.374" width="9.826" height="9.21"/>
		</g>
	</g>
	<g>
		<g>
			<rect x="6.461" y="264.55" width="9.821" height="9.211"/>
			<rect x="6.421" y="237.003" width="9.825" height="9.212"/>
			<rect x="6.461" y="212.679" width="9.821" height="9.21"/>
			<rect x="6.461" y="186.279" width="9.821" height="9.21"/>
			<rect x="6.466" y="159.551" width="9.823" height="9.209"/>
		</g>
		<g>
			<rect x="32.34" y="264.55" width="9.823" height="9.211"/>
			<rect x="32.299" y="237.003" width="9.828" height="9.212"/>
			<rect x="32.34" y="212.679" width="9.823" height="9.21"/>
			<rect x="32.34" y="186.279" width="9.823" height="9.21"/>
			<rect x="32.347" y="159.551" width="9.823" height="9.209"/>
		</g>
	</g>
	<g>
		<g>
			<rect x="6.503" y="420.394" width="9.827" height="9.207"/>
			<rect x="6.466" y="392.847" width="9.823" height="9.213"/>
			<rect x="6.503" y="368.522" width="9.827" height="9.211"/>
			<rect x="6.503" y="342.122" width="9.827" height="9.211"/>
			<rect x="6.512" y="315.395" width="9.826" height="9.21"/>
		</g>
		<g>
			<rect x="32.383" y="420.394" width="9.826" height="9.207"/>
			<rect x="32.347" y="392.847" width="9.823" height="9.213"/>
			<rect x="32.383" y="368.522" width="9.826" height="9.211"/>
			<rect x="32.383" y="342.122" width="9.826" height="9.211"/>
			<rect x="32.39" y="315.395" width="9.827" height="9.21"/>
		</g>
	</g>
	<g>
		<g>
			<rect x="6.551" y="575.851" width="9.822" height="9.207"/>
			<rect x="6.512" y="548.304" width="9.826" height="9.213"/>
			<rect x="6.551" y="523.976" width="9.822" height="9.213"/>
			<rect x="6.551" y="497.579" width="9.822" height="9.207"/>
			<rect x="6.557" y="470.851" width="9.823" height="9.207"/>
		</g>
		<g>
			<rect x="32.431" y="575.851" width="9.823" height="9.207"/>
			<rect x="32.39" y="548.304" width="9.827" height="9.213"/>
			<rect x="32.431" y="523.976" width="9.823" height="9.213"/>
			<rect x="32.431" y="497.579" width="9.823" height="9.207"/>
			<rect x="32.437" y="470.851" width="9.82" height="9.207"/>
		</g>
	</g>
	<g>
		<g>
			<rect x="6.598" y="732.185" width="9.823" height="9.213"/>
			<rect x="6.557" y="704.638" width="9.828" height="9.213"/>
			<rect x="6.598" y="680.315" width="9.823" height="9.209"/>
			<rect x="6.598" y="653.913" width="9.823" height="9.213"/>
			<rect x="6.604" y="627.185" width="9.821" height="9.215"/>
		</g>
		<g>
			<rect x="32.476" y="732.185" width="9.823" height="9.213"/>
			<rect x="32.437" y="704.638" width="9.825" height="9.213"/>
			<rect x="32.476" y="680.315" width="9.823" height="9.209"/>
			<rect x="32.476" y="653.913" width="9.823" height="9.213"/>
			<rect x="32.484" y="627.185" width="9.823" height="9.215"/>
		</g>
	</g>
</g>
<path fill="#231F20" d="M126.677,185.52c-1.893-0.47-3.849-0.789-5.868-0.909c-17.412-1.038-32.345,11.873-33.356,28.837
	c-1.011,16.965,12.285,31.558,29.697,32.596c2.017,0.121,3.996,0.036,5.934-0.206L126.677,185.52z"/>
<path fill="#231F20" d="M118.216,310.091c-1.947-0.102-3.928-0.044-5.931,0.222c-17.294,2.286-29.505,17.798-27.277,34.644
	c2.227,16.85,18.051,28.654,35.344,26.367c2.003-0.264,3.932-0.723,5.786-1.328L118.216,310.091z"/>
<g>
	<g>
		<path fill="#ECDD9E" stroke="#000000" stroke-width="4.6311" stroke-miterlimit="10" d="M121.239,197.986h-7.665
			c-1.856,0-3.562,0.628-4.902,1.679h-38.01c-1.336-1.051-3.043-1.679-4.902-1.679h-7.662c-4.307,0-7.803,3.384-7.803,7.559v13.301
			c0,4.175,3.496,7.559,7.803,7.559h7.662c1.858,0,3.566-0.63,4.905-1.679h38.007c1.341,1.049,3.046,1.679,4.902,1.679h7.665
			c4.31,0,7.801-3.384,7.801-7.559v-13.301C129.04,201.37,125.549,197.986,121.239,197.986z"/>
		<path fill="none" stroke="#000000" stroke-width="4.6311" stroke-miterlimit="10" d="M129.04,211.416
			c2.5-0.24,5.021-0.275,7.521-0.063"/>
		<path fill="none" stroke="#000000" stroke-width="4.6311" stroke-miterlimit="10" d="M50.294,211.416
			c-5.052,0.314-10.116,1.233-14.812,3.17"/>
	</g>
	<rect x="72.779" y="201.359" fill="#8D592D" width="7.192" height="21.684"/>
	<rect x="97.677" y="201.359" fill="#F9EC23" width="7.195" height="21.684"/>
	<rect x="85.227" y="201.359" width="7.195" height="21.684"/>
	<path fill="#B3892E" d="M116.798,199.502c-1.474,0.014-2.951,0.039-4.423,0.041c-0.014,0-0.027-0.004-0.04-0.004
		c-0.191,0.051-0.378,0.103-0.566,0.152c-0.398,0.213-0.807,0.396-1.228,0.541v23.782c0.403,0.182,0.771,0.401,1.12,0.641
		c0.068,0.031,0.149,0.048,0.217,0.082h5.859v-25.131C117.417,199.588,117.11,199.539,116.798,199.502z"/>
</g>
<g>
	<g>
		<path fill="#ECDD9E" stroke="#000000" stroke-width="4.6311" stroke-miterlimit="10" d="M121.723,330.201h-7.663
			c-1.856,0-3.561,0.629-4.902,1.679h-38.01c-1.339-1.05-3.044-1.679-4.903-1.679h-7.661c-4.311,0-7.806,3.384-7.806,7.558v13.303
			c0,4.174,3.495,7.559,7.806,7.559h7.661c1.859,0,3.564-0.631,4.903-1.68h38.01c1.341,1.049,3.046,1.68,4.902,1.68h7.663
			c4.311,0,7.802-3.385,7.802-7.559v-13.303C129.524,333.585,126.033,330.201,121.723,330.201z"/>
		<path fill="none" stroke="#000000" stroke-width="4.6311" stroke-miterlimit="10" d="M129.524,343.631
			c2.501-0.239,5.02-0.274,7.523-0.063"/>
		<path fill="none" stroke="#000000" stroke-width="4.6311" stroke-miterlimit="10" d="M50.779,343.631
			c-5.052,0.313-10.115,1.233-14.81,3.171"/>
	</g>
	<rect x="73.264" y="333.573" fill="#8D592D" width="7.191" height="21.684"/>
	<rect x="98.163" y="333.573" fill="#F9EC23" width="7.193" height="21.684"/>
	<rect x="85.713" y="333.573" width="7.193" height="21.684"/>
	<path fill="#B3892E" d="M117.282,331.716c-1.475,0.016-2.949,0.04-4.423,0.043c-0.013,0-0.027-0.006-0.041-0.006
		c-0.188,0.052-0.375,0.104-0.566,0.153c-0.395,0.212-0.804,0.396-1.225,0.542v23.781c0.403,0.182,0.769,0.402,1.117,0.641
		c0.068,0.031,0.15,0.049,0.217,0.082h5.861v-25.131C117.901,331.804,117.595,331.753,117.282,331.716z"/>
</g>
<g>
	<g>
		<path fill="#ECDD9E" stroke="#000000" stroke-width="4.6311" stroke-miterlimit="10" d="M166.891,414.021v-7.576
			c0-1.838-0.621-3.523-1.66-4.848v-37.582c1.039-1.32,1.66-3.006,1.66-4.848v-7.572c0-4.26-3.346-7.714-7.472-7.714h-13.151
			c-4.129,0-7.476,3.454-7.476,7.714v7.572c0,1.842,0.625,3.527,1.66,4.854v37.576c-1.035,1.324-1.66,3.01-1.66,4.848v7.576
			c0,4.26,3.347,7.715,7.476,7.715h13.151C163.545,421.735,166.891,418.28,166.891,414.021z"/>
		<path fill="none" stroke="#000000" stroke-width="4.6311" stroke-miterlimit="10" d="M153.614,421.735
			c0.83,8.684-0.934,17.742-7.452,23.955"/>
		<path fill="none" stroke="#000000" stroke-width="4.6311" stroke-miterlimit="10" d="M153.614,343.881
			c-0.614-9.823-3.733-19.9-11.725-26.198"/>
	</g>
	<rect x="142.12" y="366.108" fill="#F9EC23" width="21.436" height="7.113"/>
	<rect x="142.12" y="390.726" fill="#8D592D" width="21.436" height="7.113"/>
	<rect x="142.12" y="378.417" fill="#9856A1" width="21.436" height="7.113"/>
	<path fill="#B3892E" d="M165.393,409.63c-0.013-1.457-0.039-2.916-0.04-4.375c0-0.01,0.003-0.023,0.003-0.035
		c-0.049-0.189-0.101-0.375-0.15-0.561c-0.211-0.393-0.392-0.795-0.537-1.213h-23.512c-0.181,0.398-0.394,0.762-0.634,1.104
		c-0.031,0.068-0.049,0.146-0.082,0.215v5.793h24.848C165.307,410.245,165.355,409.937,165.393,409.63z"/>
</g>
<g>
	<g>
		<path fill="#ECDD9E" stroke="#000000" stroke-width="4.6311" stroke-miterlimit="10" d="M164.922,153.385v-7.575
			c0-1.838-0.622-3.523-1.66-4.848V103.38c1.038-1.321,1.66-3.008,1.66-4.848v-7.573c0-4.258-3.347-7.713-7.474-7.713h-13.152
			c-4.127,0-7.473,3.455-7.473,7.713v7.573c0,1.84,0.624,3.527,1.659,4.853v37.578c-1.036,1.325-1.659,3.01-1.659,4.848v7.575
			c0,4.26,3.346,7.716,7.473,7.716h13.152C161.576,161.101,164.922,157.646,164.922,153.385z"/>
		<path fill="none" stroke="#000000" stroke-width="4.6311" stroke-miterlimit="10" d="M151.644,161.101
			c1.063,11.08-2.452,21.798-12.378,27.658"/>
		<path fill="none" stroke="#000000" stroke-width="4.6311" stroke-miterlimit="10" d="M151.644,83.246
			c-0.542-8.731-3.005-17.735-9.338-24.082"/>
	</g>
	<rect x="140.153" y="105.474" fill="#F9EC23" width="21.438" height="7.114"/>
	<rect x="140.153" y="130.09" fill="#8D592D" width="21.438" height="7.114"/>
	<rect x="140.153" y="117.781" fill="#9856A1" width="21.438" height="7.114"/>
	<path fill="#B3892E" d="M163.423,148.994c-0.013-1.457-0.038-2.915-0.041-4.374c0-0.011,0.005-0.024,0.005-0.037
		c-0.049-0.189-0.102-0.375-0.151-0.56c-0.211-0.394-0.389-0.796-0.533-1.212H139.19c-0.182,0.398-0.396,0.76-0.636,1.104
		c-0.03,0.068-0.048,0.147-0.08,0.215v5.793h24.847C163.338,149.609,163.387,149.301,163.423,148.994z"/>
</g>
<g>
	<path fill="#ED3624" stroke="#231F20" stroke-width="4.6311" stroke-miterlimit="10" d="M53.754,438.245
		c9.807,11.143,26.158,12.783,36.519,3.666c10.361-9.117,10.809-25.543,1.001-36.684c-9.807-11.146-26.156-12.789-36.517-3.672
		S43.949,427.101,53.754,438.245z"/>
	
		<ellipse transform="matrix(-0.8784 0.4779 -0.4779 -0.8784 320.0399 757.362)" fill="#FFFFFF" cx="63.675" cy="419.394" rx="7.614" ry="10.11"/>
</g>
<path fill="none" stroke="#231F20" stroke-width="4.6311" stroke-miterlimit="10" d="M46.73,427.937
	c-3.129-1.107-6.335-2.012-9.564-2.789"/>
<path fill="none" stroke="#231F20" stroke-width="4.6311" stroke-miterlimit="10" d="M95.343,435.53c0,0,8.437,5.514,18.475,9.91"/>
<path fill="#F6EB0F" stroke="#231F20" stroke-width="4.6311" stroke-miterlimit="10" d="M51.041,52.219
	c9.807,11.141,26.159,12.783,36.519,3.666c10.361-9.117,10.809-25.543,1.002-36.685c-9.807-11.146-26.157-12.787-36.517-3.67
	C41.684,24.647,41.236,41.073,51.041,52.219z"/>
<ellipse transform="matrix(-0.8784 0.4778 -0.4778 -0.8784 130.4571 33.5466)" fill="#FFFFFF" cx="60.962" cy="33.366" rx="7.613" ry="10.109"/>
<path fill="none" stroke="#231F20" stroke-width="4.6311" stroke-miterlimit="10" d="M44.018,41.91
	c-3.13-1.108-6.337-2.013-9.565-2.788"/>
<path fill="none" stroke="#231F20" stroke-width="4.6311" stroke-miterlimit="10" d="M92.629,49.502c0,0,8.437,5.513,18.476,9.911"
	/>
<g>
	
		<ellipse fill="#46A2DA" stroke="#231F20" stroke-width="4.6311" stroke-miterlimit="10" cx="184.967" cy="279.394" rx="29.33" ry="30.424"/>
	<path stroke="#231F20" stroke-width="4.6311" stroke-miterlimit="10" d="M214.185,281.708c0.055-0.766,0.112-1.532,0.112-2.314
		c0-16.803-13.132-30.423-29.331-30.423s-29.328,13.62-29.328,30.423c0,0.782,0.054,1.549,0.111,2.314H214.185z"/>
	
		<ellipse fill="#CECECD" stroke="#231F20" stroke-width="4.6311" stroke-miterlimit="10" cx="185.177" cy="278.38" rx="20.291" ry="19.482"/>
</g>
<path fill="none" stroke="#6ABC45" stroke-width="6.9466" stroke-miterlimit="10" d="M190.868,369.249
	c0,0,4.168,89.428-39.041,112.104c-43.208,22.676-21.267,14.379-49.958,20.83c-28.691,6.451-54.494,4.355-90.408,0"/>
<path fill="none" stroke="#6ABC45" stroke-width="6.9466" stroke-miterlimit="10" d="M139.126,239.971
	c0,0-15.209,40.153-69.912,40.947c-54.702,0.794-28.566,3.467-57.843-11.763"/>
<g>
	<path fill="#46A2DA" stroke="#231F20" stroke-width="4.6311" stroke-miterlimit="10" d="M300.044,275.05
		c0,16.802,13.134,30.422,29.33,30.422c16.201,0,29.332-13.62,29.332-30.422c0-16.803-13.131-30.423-29.332-30.423
		C313.178,244.626,300.044,258.247,300.044,275.05z"/>
	<path stroke="#231F20" stroke-width="4.6311" stroke-miterlimit="10" d="M358.593,277.363c0.058-0.767,0.113-1.532,0.113-2.313
		c0-16.803-13.131-30.423-29.332-30.423c-16.196,0-29.33,13.621-29.33,30.423c0,0.781,0.06,1.547,0.112,2.313H358.593z"/>
	
		<ellipse fill="#CECECD" stroke="#231F20" stroke-width="4.6311" stroke-miterlimit="10" cx="329.584" cy="274.034" rx="20.292" ry="19.484"/>
</g>
<path fill="none" stroke="#D02027" stroke-width="6.9466" stroke-miterlimit="10" d="M11.509,736.792
	c0,0,374.87-14.762,469.116,5.895"/>
<path fill="none" stroke="#4B5AA7" stroke-width="6.9466" stroke-miterlimit="10" d="M37.351,709.245
	c0,0,205.645-23.73,464.203,1.291"/>
<path fill="none" stroke="#8B55A1" stroke-width="6.9466" stroke-miterlimit="10" d="M217.282,342.872
	c0,0,11.611-22.798,1.327-51.672"/>
<path fill="none" stroke="#8B55A1" stroke-width="6.9466" stroke-miterlimit="10" d="M216.509,266.522
	c0,0-5.27-46.526-52.841-77.271"/>
<path fill="none" stroke="#F9A719" stroke-width="6.9466" stroke-miterlimit="10" d="M190.632,316.907
	c0,0,160.708,48.771,182.595-24.529"/>
<path fill="none" stroke="#F9A719" stroke-width="6.9466" stroke-miterlimit="10" d="M372.698,268.106
	c0,0-48.883-106.238-160.658-52.904"/>
</svg>
