<?xml version="1.0" encoding="utf-8"?>
<!-- Generator: Adobe Illustrator 15.0.0, SVG Export Plug-In . SVG Version: 6.00 Build 0)  -->
<!DOCTYPE svg PUBLIC "-//W3C//DTD SVG 1.1//EN" "http://www.w3.org/Graphics/SVG/1.1/DTD/svg11.dtd">
<svg version="1.1" id="Layer_1" xmlns="http://www.w3.org/2000/svg" xmlns:xlink="http://www.w3.org/1999/xlink" x="0px" y="0px"
	 width="500px" height="500px" viewBox="0 0 500 500" enable-background="new 0 0 500 500" xml:space="preserve">
<rect x="-230.229" y="-48.952" fill="#FBEEB0" width="876.391" height="586.799"/>
<g>
	
		<line fill="none" stroke="#231F20" stroke-width="2.3095" stroke-miterlimit="10" x1="-129.01" y1="63.561" x2="-101.061" y2="63.561"/>
	<circle fill="#231F20" cx="-98.04" cy="63.561" r="3.957"/>
	<circle fill="#231F20" cx="-132.968" cy="63.561" r="3.958"/>
	<polyline fill="none" stroke="#231F20" stroke-width="2.3095" stroke-miterlimit="10" points="-142.848,112.769 -142.848,93.296 
		-142.848,27.86 -129.761,14.774 -72.89,14.774 -59.288,28.192 -59.318,46.521 	"/>
	<polyline fill="none" stroke="#231F20" stroke-width="2.3095" stroke-miterlimit="10" points="-129.472,47.438 -129.472,39.739 
		-117.84,28.192 -77.749,28.192 -72.79,33.049 -72.79,51.816 -72.79,57.853 -79.904,63.891 	"/>
	<circle fill="#231F20" cx="-129.01" cy="78.388" r="3.958"/>
	<circle fill="#231F20" cx="-129.01" cy="48.781" r="3.958"/>
	
		<line fill="none" stroke="#231F20" stroke-width="2.3095" stroke-miterlimit="10" x1="-129.01" y1="82.346" x2="-129.01" y2="112.73"/>
	<circle fill="#231F20" cx="-129.01" cy="113.292" r="3.958"/>
	<circle fill="#231F20" cx="-142.847" cy="112.769" r="3.957"/>
	<circle fill="#231F20" cx="-81.676" cy="63.608" r="3.958"/>
	<circle fill="#231F20" cx="-59.318" cy="46.521" r="3.957"/>
</g>
<g>
	<polyline fill="none" stroke="#231F20" stroke-width="2.3095" stroke-miterlimit="10" points="-33.203,108.889 -33.203,95.982 
		-33.203,40.044 -6.721,13.562 22.548,13.562 49.734,40.747 49.734,82.896 49.734,95.982 49.734,108.889 	"/>
	<polyline fill="none" stroke="#231F20" stroke-width="2.3095" stroke-miterlimit="10" points="-12.117,38.197 -1.086,27.166 
		16.914,27.166 27.947,38.197 	"/>
	<polyline fill="none" stroke="#231F20" stroke-width="2.3095" stroke-miterlimit="10" points="-19.599,108.889 -19.599,97.523 
		-19.599,84.533 	"/>
	<circle fill="#231F20" cx="49.899" cy="111.873" r="3.958"/>
	<circle fill="#231F20" cx="-33.296" cy="111.873" r="3.957"/>
	<circle fill="#231F20" cx="36.131" cy="112.173" r="3.957"/>
	<circle fill="#231F20" cx="-19.599" cy="112.077" r="3.958"/>
	<circle fill="#231F20" cx="-19.599" cy="81.098" r="3.958"/>
	<circle fill="#231F20" cx="35.967" cy="81.1" r="3.958"/>
	<circle fill="#231F20" cx="29.731" cy="40.552" r="3.957"/>
	<circle fill="#231F20" cx="-14.525" cy="40.557" r="3.957"/>
	
		<line fill="none" stroke="#231F20" stroke-width="2.3095" stroke-miterlimit="10" x1="-19.599" y1="63.218" x2="36.131" y2="63.218"/>
	<circle fill="#231F20" cx="39.153" cy="63.218" r="3.958"/>
	<circle fill="#231F20" cx="-22.787" cy="63.457" r="3.957"/>
	<polyline fill="none" stroke="#231F20" stroke-width="2.3095" stroke-miterlimit="10" points="35.967,108.75 35.967,97.384 
		35.967,84.393 	"/>
</g>
<g>
	<polyline fill="none" stroke="#231F20" stroke-width="2.3095" stroke-miterlimit="10" points="110.844,109.794 110.844,96.888 
		110.844,44.417 110.831,39.747 99.574,28.253 75.558,28.253 	"/>
	<circle fill="#231F20" cx="110.751" cy="112.778" r="3.958"/>
	<polyline fill="none" stroke="#231F20" stroke-width="2.3095" stroke-miterlimit="10" points="124.448,109.794 124.448,96.888 
		124.448,44.417 124.431,39.182 133.831,27.87 158.495,27.87 	"/>
	<circle fill="#231F20" cx="124.354" cy="112.778" r="3.957"/>
	
		<line fill="none" stroke="#231F20" stroke-width="2.3095" stroke-miterlimit="10" x1="74.939" y1="14.782" x2="158.495" y2="14.782"/>
	<circle fill="#231F20" cx="158.495" cy="27.987" r="3.958"/>
	<circle fill="#231F20" cx="158.495" cy="14.597" r="3.958"/>
	<circle fill="#231F20" cx="75.559" cy="28.2" r="3.957"/>
	<circle fill="#231F20" cx="74.939" cy="14.782" r="3.958"/>
</g>
<g>
	<polyline fill="none" stroke="#231F20" stroke-width="2.3095" stroke-miterlimit="10" points="183.661,109.664 183.661,96.757 
		183.661,44.287 183.57,14.079 	"/>
	<polyline fill="none" stroke="#231F20" stroke-width="2.3095" stroke-miterlimit="10" points="197.265,109.664 197.265,98.297 
		197.265,85.307 	"/>
	<circle fill="#231F20" cx="266.764" cy="112.646" r="3.957"/>
	<circle fill="#231F20" cx="183.569" cy="112.646" r="3.957"/>
	<circle fill="#231F20" cx="252.997" cy="112.946" r="3.957"/>
	<circle fill="#231F20" cx="197.265" cy="112.85" r="3.957"/>
	<circle fill="#231F20" cx="197.265" cy="81.872" r="3.957"/>
	<circle fill="#231F20" cx="252.832" cy="81.874" r="3.958"/>
	
		<line fill="none" stroke="#231F20" stroke-width="2.3095" stroke-miterlimit="10" x1="197.265" y1="63.991" x2="252.997" y2="63.991"/>
	<circle fill="#231F20" cx="256.019" cy="63.991" r="3.958"/>
	<circle fill="#231F20" cx="194.078" cy="64.231" r="3.958"/>
	<polyline fill="none" stroke="#231F20" stroke-width="2.3095" stroke-miterlimit="10" points="252.831,109.523 252.831,98.158 
		252.831,85.167 	"/>
	<polyline fill="none" stroke="#231F20" stroke-width="2.3095" stroke-miterlimit="10" points="266.6,109.567 266.6,96.661 
		266.6,44.19 266.507,13.982 	"/>
	<circle fill="#231F20" cx="266.506" cy="13.982" r="3.958"/>
	<circle fill="#231F20" cx="183.569" cy="14.079" r="3.957"/>
	<circle fill="#231F20" cx="253.161" cy="45.151" r="3.958"/>
	<circle fill="#231F20" cx="252.997" cy="14.079" r="3.957"/>
	<polyline fill="none" stroke="#231F20" stroke-width="2.3095" stroke-miterlimit="10" points="252.997,41.729 252.997,30.362 
		252.997,17.372 	"/>
	<circle fill="#231F20" cx="197.431" cy="45.151" r="3.957"/>
	<circle fill="#231F20" cx="197.265" cy="14.079" r="3.957"/>
	<polyline fill="none" stroke="#231F20" stroke-width="2.3095" stroke-miterlimit="10" points="197.265,41.729 197.265,30.362 
		197.265,17.372 	"/>
</g>
<g>
	<polyline fill="none" stroke="#231F20" stroke-width="2.3095" stroke-miterlimit="10" points="365.775,15.396 358.99,15.396 
		333.97,40.416 333.97,86.991 359.354,113.166 366.158,113.166 	"/>
	<polyline fill="none" stroke="#231F20" stroke-width="2.3095" stroke-miterlimit="10" points="355.5,89.35 367.481,101.33 
		381.288,101.33 385.142,101.33 397.122,89.35 	"/>
	
		<line fill="none" stroke="#231F20" stroke-width="2.3095" stroke-miterlimit="10" x1="345.496" y1="75.491" x2="345.496" y2="50.631"/>
	<polyline fill="none" stroke="#231F20" stroke-width="2.3095" stroke-miterlimit="10" points="356.535,39.591 368.082,28.044 
		385.47,28.044 398.875,40.626 	"/>
	<circle fill="#231F20" cx="353.453" cy="87.44" r="3.958"/>
	<circle fill="#231F20" cx="354.889" cy="40.626" r="3.958"/>
	<path fill="#231F20" d="M341.536,79.22c0,2.185,1.772,3.958,3.96,3.958c2.183,0,3.955-1.772,3.955-3.958
		c0-2.187-1.772-3.958-3.955-3.958C343.309,75.262,341.536,77.034,341.536,79.22z"/>
	<path fill="#231F20" d="M341.536,47.17c0,2.185,1.772,3.957,3.96,3.957c2.183,0,3.955-1.772,3.955-3.957
		c0-2.186-1.772-3.958-3.955-3.958C343.309,43.212,341.536,44.984,341.536,47.17z"/>
	<circle fill="#231F20" cx="399.442" cy="41.071" r="3.958"/>
	<circle fill="#231F20" cx="398.837" cy="87.413" r="3.958"/>
	
		<line fill="none" stroke="#231F20" stroke-width="2.3095" stroke-miterlimit="10" x1="406.947" y1="77.074" x2="406.947" y2="52.214"/>
	<circle fill="#231F20" cx="406.947" cy="80.803" r="3.958"/>
	<circle fill="#231F20" cx="406.947" cy="48.753" r="3.958"/>
	<polyline fill="none" stroke="#231F20" stroke-width="2.3095" stroke-miterlimit="10" points="386.438,15.3 393.22,15.3 
		418.241,40.319 418.241,86.894 392.856,113.068 386.055,113.068 	"/>
	<circle fill="#231F20" cx="385.139" cy="15.396" r="3.958"/>
	<path fill="#231F20" d="M361.815,15.396c0,2.186,1.772,3.958,3.96,3.958c2.183,0,3.955-1.771,3.955-3.958s-1.772-3.958-3.955-3.958
		C363.588,11.439,361.815,13.21,361.815,15.396z"/>
	<circle fill="#231F20" cx="366.156" cy="113.166" r="3.957"/>
	<circle fill="#231F20" cx="386.052" cy="113.068" r="3.958"/>
</g>
<g>
	
		<line fill="none" stroke="#231F20" stroke-width="2.3095" stroke-miterlimit="10" x1="449.73" y1="62.547" x2="477.678" y2="62.547"/>
	<circle fill="#231F20" cx="480.702" cy="62.547" r="3.958"/>
	<circle fill="#231F20" cx="445.773" cy="62.547" r="3.958"/>
	<circle fill="#231F20" cx="518.969" cy="13.843" r="3.959"/>
	<polyline fill="none" stroke="#231F20" stroke-width="2.3095" stroke-miterlimit="10" points="519.065,13.76 448.981,13.76 
		435.893,26.846 435.893,92.283 435.893,111.755 	"/>
	<polyline fill="none" stroke="#231F20" stroke-width="2.3095" stroke-miterlimit="10" points="505.467,27.178 460.902,27.178 
		449.27,38.725 449.27,46.424 	"/>
	<circle fill="#231F20" cx="506.232" cy="27.178" r="3.958"/>
	<circle fill="#231F20" cx="449.73" cy="77.374" r="3.958"/>
	<circle fill="#231F20" cx="449.73" cy="47.768" r="3.958"/>
	
		<line fill="none" stroke="#231F20" stroke-width="2.3095" stroke-miterlimit="10" x1="449.73" y1="81.332" x2="449.73" y2="111.717"/>
	<circle fill="#231F20" cx="449.73" cy="112.279" r="3.958"/>
	<circle fill="#231F20" cx="435.892" cy="111.755" r="3.958"/>
</g>
<polygon fill="#EE9421" points="-121.471,138.814 -184.017,138.814 -184.017,191.86 -121.471,191.584 -105.03,175.143 
	-105.03,154.957 "/>
<polygon fill="#EE9421" points="-183.31,265.878 -184.017,265.172 -184.017,319.198 -121.471,319.198 -105.03,302.784 
	-105.03,282.601 -121.751,265.878 "/>
<circle fill="#FFFFFF" cx="-121.037" cy="301.291" r="5.832"/>
<circle fill="#FFFFFF" cx="-120.526" cy="157.054" r="5.832"/>
<circle fill="#FFFFFF" cx="-139.294" cy="176.706" r="5.832"/>
<circle fill="#FFFFFF" cx="-140.28" cy="281.159" r="5.832"/>
<polygon fill="#EE9421" points="-42.461,317.666 -61.607,317.666 -80.103,299.17 -80.103,191.014 -26.371,137.281 23.138,137.281 
	76.458,189.469 76.458,302.562 61.354,317.666 36.75,317.668 23.137,304.054 23.138,190.603 -26.783,190.226 -26.781,301.986 "/>
<rect x="-51.741" y="211.491" fill="#EE9421" width="88.113" height="31.966"/>
<rect x="-5.983" y="164.318" transform="matrix(-0.7071 -0.7071 0.7071 -0.7071 -82.9731 332.8394)" fill="#EE9421" width="66.859" height="38.573"/>
<rect x="-60.211" y="160.535" transform="matrix(-0.7071 0.7071 -0.7071 -0.7071 81.433 325.9117)" fill="#EE9421" width="66.859" height="38.573"/>
<polyline fill="none" stroke="#FFFFFF" stroke-width="3.4035" stroke-miterlimit="10" points="-62.784,294.781 -62.784,275.761 
	-62.784,193.324 -23.757,154.298 19.376,154.298 59.439,194.361 59.439,256.475 59.439,275.761 59.439,294.781 "/>
<polyline fill="none" stroke="#FFFFFF" stroke-width="3.4035" stroke-miterlimit="10" points="-31.71,190.602 -15.452,174.344 
	11.071,174.344 27.331,190.603 "/>
<polyline fill="none" stroke="#FFFFFF" stroke-width="3.4035" stroke-miterlimit="10" points="-42.737,294.781 -42.737,278.031 
	-42.737,258.888 "/>
<circle fill="#FFFFFF" cx="59.682" cy="299.178" r="5.832"/>
<circle fill="#FFFFFF" cx="-62.921" cy="299.178" r="5.832"/>
<circle fill="#FFFFFF" cx="39.393" cy="299.62" r="5.832"/>
<circle fill="#FFFFFF" cx="-42.737" cy="299.478" r="5.832"/>
<circle fill="#FFFFFF" cx="-42.737" cy="253.825" r="5.832"/>
<circle fill="#FFFFFF" cx="39.15" cy="253.828" r="5.832"/>
<circle fill="#FFFFFF" cx="29.96" cy="194.073" r="5.832"/>
<circle fill="#FFFFFF" cx="-35.258" cy="194.079" r="5.832"/>
<line fill="none" stroke="#FFFFFF" stroke-width="3.4035" stroke-miterlimit="10" x1="-42.737" y1="227.475" x2="39.394" y2="227.475"/>
<circle fill="#FFFFFF" cx="43.847" cy="227.475" r="5.832"/>
<circle fill="#FFFFFF" cx="-47.434" cy="227.829" r="5.832"/>
<polyline fill="none" stroke="#FFFFFF" stroke-width="3.4035" stroke-miterlimit="10" points="39.15,294.575 39.15,277.825 
	39.15,258.682 "/>
<path fill="#EE9421" d="M176.04,264.482l24.965-24.956v-4.559h51.086c0.842,0,1.579-0.155,2.229-0.421v26.739l-56.516,56.518
	h-83.603L97.76,301.389v-20.186l16.72-16.721H176.04z"/>
<path fill="#EE9421" d="M237.878,137.419h-88.464L97.76,189.073v34.971c0.647-0.266,1.387-0.421,2.227-0.421h51.09l0.004-11.994
	l20.68-21.15l66.117-0.291l16.441-16.443v-20.184L237.878,137.419z"/>
<polygon fill="#EE9421" points="232.534,211.75 97.76,211.75 97.76,223.249 118.227,243.716 254.277,243.716 254.277,233.494 "/>
<rect x="140.999" y="203.792" transform="matrix(-0.7071 -0.7071 0.7071 -0.7071 123.2942 479.0297)" fill="#EE9421" width="39.709" height="20.377"/>
<rect x="171.839" y="232.07" transform="matrix(-0.7071 -0.7071 0.7071 -0.7071 155.9382 549.1093)" fill="#EE9421" width="39.708" height="20.377"/>
<rect x="144.613" y="185.779" fill="#EE9421" width="20.377" height="39.708"/>
<rect x="184.32" y="229.867" fill="#EE9421" width="20.376" height="39.708"/>
<polyline fill="none" stroke="#FFFFFF" stroke-width="3.4035" stroke-miterlimit="10" points="236.768,153.932 165.555,153.932 
	157.613,153.932 114.097,195.84 114.08,218.76 "/>
<polyline fill="none" stroke="#FFFFFF" stroke-width="3.4035" stroke-miterlimit="10" points="114.08,300.426 183.423,300.426 
	191.695,300.409 237.982,254.519 237.982,236.981 "/>
<circle fill="#FFFFFF" cx="237.752" cy="154.794" r="5.832"/>
<circle fill="#FFFFFF" cx="114.243" cy="220.3" r="5.832"/>
<circle fill="#FFFFFF" cx="237.741" cy="235.195" r="5.832"/>
<circle fill="#FFFFFF" cx="114.08" cy="300.426" r="5.832"/>
<line fill="none" stroke="#FFFFFF" stroke-width="3.4035" stroke-miterlimit="10" x1="134.562" y1="227.089" x2="216.693" y2="227.089"/>
<circle fill="#FFFFFF" cx="221.146" cy="227.089" r="5.832"/>
<circle fill="#FFFFFF" cx="129.866" cy="227.444" r="5.832"/>
<polyline fill="none" stroke="#FFFFFF" stroke-width="3.4035" stroke-miterlimit="10" points="114.243,279.435 180.303,279.435 
	182.098,279.435 212.332,251.305 "/>
<polyline fill="none" stroke="#FFFFFF" stroke-width="3.4035" stroke-miterlimit="10" points="236.806,174.84 164.99,174.84 
	135.831,203.859 "/>
<circle fill="#FFFFFF" cx="236.806" cy="174.84" r="5.832"/>
<circle fill="#FFFFFF" cx="135.83" cy="206.307" r="5.832"/>
<circle fill="#FFFFFF" cx="215.217" cy="246.833" r="5.832"/>
<circle fill="#FFFFFF" cx="114.242" cy="279.435" r="5.832"/>
<polygon fill="#EE9421" points="381.901,302.33 365.451,318.011 346.732,318.011 328.58,299.514 328.58,155.242 347.3,137.626 
	365.451,137.626 381.901,154.059 "/>
<polygon fill="#EE9421" points="349.001,137.453 292.826,137.453 276.394,153.903 276.394,172.055 294.01,190.774 349.001,190.774 
	"/>
<polygon fill="#EE9421" points="417.251,137.453 336.5,137.453 336.5,190.774 414.435,190.774 432.932,172.623 432.932,153.903 "/>
<polyline fill="none" stroke="#FFFFFF" stroke-width="3.4035" stroke-miterlimit="10" points="345.212,294.835 345.212,275.814 
	345.212,198.49 345.192,191.606 328.603,174.67 293.212,174.67 "/>
<circle fill="#FFFFFF" cx="345.075" cy="299.23" r="5.832"/>
<polyline fill="none" stroke="#FFFFFF" stroke-width="3.4035" stroke-miterlimit="10" points="365.259,294.835 365.259,275.814 
	365.259,198.49 365.234,190.774 379.088,174.103 415.436,174.103 "/>
<circle fill="#FFFFFF" cx="365.121" cy="299.23" r="5.832"/>
<line fill="none" stroke="#FFFFFF" stroke-width="3.4035" stroke-miterlimit="10" x1="292.299" y1="152.545" x2="415.436" y2="152.545"/>
<circle fill="#FFFFFF" cx="415.436" cy="174.278" r="5.832"/>
<circle fill="#FFFFFF" cx="415.436" cy="152.272" r="5.832"/>
<circle fill="#FFFFFF" cx="293.212" cy="174.59" r="5.832"/>
<circle fill="#FFFFFF" cx="292.299" cy="152.545" r="5.832"/>
<path fill="#EE9421" d="M-110.312,441.239l19.066-19.059v-3.48h39.014c0.644,0,1.207-0.12,1.703-0.324v20.422l-43.162,43.163
	h-63.848l-12.556-12.535v-15.417l12.77-12.77H-110.312z"/>
<path fill="#EE9421" d="M-63.086,344.199h-67.561l-39.449,39.45v26.707c0.494-0.203,1.059-0.322,1.701-0.322h39.018l0.003-9.159
	l15.793-16.152l50.495-0.223l12.556-12.559v-15.413L-63.086,344.199z"/>
<polygon fill="#EE9421" points="-67.168,400.967 -170.096,400.967 -170.096,409.749 -154.464,425.381 -50.562,425.381 
	-50.562,417.574 "/>
<rect x="-137.073" y="394.89" transform="matrix(-0.7071 -0.7071 0.7071 -0.7071 -492.8427 601.203)" fill="#EE9421" width="30.326" height="15.562"/>
<rect x="-113.52" y="416.486" transform="matrix(-0.7071 -0.7071 0.7071 -0.7071 -467.9035 654.7284)" fill="#EE9421" width="30.325" height="15.562"/>
<rect x="-134.313" y="381.134" fill="#EE9421" width="15.562" height="30.324"/>
<rect x="-103.989" y="414.804" fill="#EE9421" width="15.562" height="30.325"/>
<polyline fill="none" stroke="#FFFFFF" stroke-width="2.5993" stroke-miterlimit="10" points="-63.934,356.812 -118.321,356.812 
	-124.385,356.812 -157.619,388.816 -157.632,406.321 "/>
<polyline fill="none" stroke="#FFFFFF" stroke-width="2.5993" stroke-miterlimit="10" points="-157.632,468.689 -104.674,468.689 
	-98.357,468.678 -63.007,433.63 -63.007,420.236 "/>
<circle fill="#FFFFFF" cx="-63.183" cy="357.47" r="4.454"/>
<circle fill="#FFFFFF" cx="-157.507" cy="407.497" r="4.454"/>
<circle fill="#FFFFFF" cx="-63.191" cy="418.873" r="4.454"/>
<circle fill="#FFFFFF" cx="-157.633" cy="468.689" r="4.454"/>
<line fill="none" stroke="#FFFFFF" stroke-width="2.5993" stroke-miterlimit="10" x1="-141.989" y1="412.682" x2="-79.266" y2="412.682"/>
<circle fill="#FFFFFF" cx="-75.866" cy="412.682" r="4.454"/>
<circle fill="#FFFFFF" cx="-145.577" cy="412.953" r="4.454"/>
<polyline fill="none" stroke="#FFFFFF" stroke-width="2.5993" stroke-miterlimit="10" points="-157.508,452.659 -107.057,452.659 
	-105.686,452.659 -82.597,431.176 "/>
<polyline fill="none" stroke="#FFFFFF" stroke-width="2.5993" stroke-miterlimit="10" points="-63.905,372.779 -118.751,372.779 
	-141.021,394.94 "/>
<circle fill="#FFFFFF" cx="-63.907" cy="372.779" r="4.454"/>
<circle fill="#FFFFFF" cx="-141.022" cy="396.81" r="4.454"/>
<circle fill="#FFFFFF" cx="-80.392" cy="427.761" r="4.454"/>
<circle fill="#FFFFFF" cx="-157.508" cy="452.659" r="4.454"/>
<polygon fill="#EE9421" points="46.905,469.896 34.342,481.87 20.046,481.87 6.183,467.745 6.183,357.563 20.479,344.111 
	34.342,344.111 46.905,356.659 "/>
<polygon fill="#EE9421" points="21.779,343.979 -21.122,343.979 -33.672,356.542 -33.672,370.404 -20.219,384.7 21.779,384.7 "/>
<polygon fill="#EE9421" points="73.901,343.979 12.231,343.979 12.231,384.7 71.75,384.7 85.877,370.837 85.877,356.542 "/>
<polyline fill="none" stroke="#FFFFFF" stroke-width="2.5993" stroke-miterlimit="10" points="18.884,464.171 18.884,449.645 
	18.884,390.592 18.869,385.335 6.201,372.4 -20.828,372.4 "/>
<circle fill="#FFFFFF" cx="18.78" cy="467.528" r="4.454"/>
<polyline fill="none" stroke="#FFFFFF" stroke-width="2.5993" stroke-miterlimit="10" points="34.194,464.171 34.194,449.645 
	34.194,390.592 34.176,384.7 44.756,371.967 72.514,371.967 "/>
<circle fill="#FFFFFF" cx="34.09" cy="467.528" r="4.454"/>
<line fill="none" stroke="#FFFFFF" stroke-width="2.5993" stroke-miterlimit="10" x1="-21.525" y1="355.505" x2="72.514" y2="355.505"/>
<circle fill="#FFFFFF" cx="72.514" cy="372.102" r="4.454"/>
<circle fill="#FFFFFF" cx="72.514" cy="355.297" r="4.454"/>
<circle fill="#FFFFFF" cx="-20.828" cy="372.341" r="4.454"/>
<path fill="#FFFFFF" d="M-25.979,355.505c0,2.459,1.994,4.452,4.454,4.452c2.458,0,4.454-1.993,4.454-4.452
	c0-2.462-1.996-4.454-4.454-4.454C-23.985,351.051-25.979,353.043-25.979,355.505z"/>
<polygon fill="#EE9421" points="131.725,480.226 117.103,480.226 102.977,466.099 102.977,383.499 144.014,342.465 181.823,342.465 
	222.542,382.32 222.542,468.689 211.009,480.226 192.219,480.227 181.821,469.829 181.823,383.186 143.699,382.898 143.699,468.25 
	"/>
<rect x="124.637" y="399.139" fill="#EE9421" width="67.291" height="24.413"/>
<rect x="159.584" y="363.111" transform="matrix(-0.7071 -0.7071 0.7071 -0.7071 48.8302 775.9081)" fill="#EE9421" width="51.06" height="29.459"/>
<rect x="118.168" y="360.222" transform="matrix(-0.7071 0.7071 -0.7071 -0.7071 510.4352 538.4852)" fill="#EE9421" width="51.061" height="29.46"/>
<polyline fill="none" stroke="#FFFFFF" stroke-width="2.5993" stroke-miterlimit="10" points="116.203,462.748 116.203,448.221 
	116.203,385.265 146.008,355.46 178.95,355.46 209.547,386.057 209.547,433.492 209.547,448.221 209.547,462.748 "/>
<polyline fill="none" stroke="#FFFFFF" stroke-width="2.5993" stroke-miterlimit="10" points="139.934,383.185 152.352,370.77 
	172.606,370.77 185.025,383.186 "/>
<polyline fill="none" stroke="#FFFFFF" stroke-width="2.5993" stroke-miterlimit="10" points="131.513,462.748 131.513,449.955 
	131.513,435.335 "/>
<circle fill="#FFFFFF" cx="209.731" cy="466.104" r="4.454"/>
<circle fill="#FFFFFF" cx="116.099" cy="466.104" r="4.454"/>
<circle fill="#FFFFFF" cx="194.238" cy="466.441" r="4.454"/>
<circle fill="#FFFFFF" cx="131.513" cy="466.334" r="4.454"/>
<circle fill="#FFFFFF" cx="131.513" cy="431.47" r="4.454"/>
<circle fill="#FFFFFF" cx="194.051" cy="431.472" r="4.454"/>
<circle fill="#FFFFFF" cx="187.033" cy="385.836" r="4.453"/>
<circle fill="#FFFFFF" cx="137.227" cy="385.841" r="4.454"/>
<line fill="none" stroke="#FFFFFF" stroke-width="2.5993" stroke-miterlimit="10" x1="131.513" y1="411.346" x2="194.237" y2="411.346"/>
<circle fill="#FFFFFF" cx="197.639" cy="411.346" r="4.454"/>
<circle fill="#FFFFFF" cx="127.927" cy="411.616" r="4.453"/>
<polyline fill="none" stroke="#FFFFFF" stroke-width="2.5993" stroke-miterlimit="10" points="194.051,462.59 194.051,449.798 
	194.051,435.178 "/>
<polygon fill="#EE9421" points="280.12,469.111 267.56,481.088 253.263,481.088 239.398,466.963 239.398,356.781 253.694,343.328 
	267.56,343.328 280.12,355.877 "/>
<path fill="#EE9421" d="M274.067,349.904c-0.242,16.179-5.814,31.468-10.796,46.792l55.575,55.575l19.789,0.187l10.11-10.108
	l0.415-17.353L274.067,349.904z"/>
<polygon fill="#EE9421" points="358.966,469.111 346.402,481.088 332.105,481.088 318.244,466.963 318.244,356.781 332.538,343.328 
	346.402,343.328 358.966,355.877 "/>
<polyline fill="none" stroke="#FFFFFF" stroke-width="2.5993" stroke-miterlimit="10" points="252.662,464.209 252.662,449.684 
	252.662,390.631 252.556,356.633 "/>
<circle fill="#FFFFFF" cx="252.556" cy="467.567" r="4.454"/>
<circle fill="#FFFFFF" cx="252.556" cy="356.633" r="4.454"/>
<polyline fill="none" stroke="#FFFFFF" stroke-width="2.5993" stroke-miterlimit="10" points="346.977,464.319 346.977,449.792 
	346.977,390.738 346.872,356.741 "/>
<circle fill="#FFFFFF" cx="346.87" cy="467.676" r="4.454"/>
<circle fill="#FFFFFF" cx="346.87" cy="356.741" r="4.454"/>
<polyline fill="none" stroke="#FFFFFF" stroke-width="2.5993" stroke-miterlimit="10" points="334.431,425.832 325.075,416.479 
	287.05,378.452 265.082,356.633 "/>
<path fill="#FFFFFF" d="M332.866,430.427c1.739,1.738,4.558,1.739,6.299,0c1.737-1.739,1.737-4.559,0-6.298
	c-1.741-1.74-4.562-1.74-6.299,0C331.124,425.868,331.126,428.687,332.866,430.427z"/>
<path fill="#FFFFFF" d="M261.934,359.782c1.736,1.738,4.558,1.74,6.297,0c1.739-1.739,1.739-4.559,0-6.298
	c-1.739-1.74-4.561-1.74-6.3,0C260.191,355.224,260.191,358.042,261.934,359.782z"/>
<polyline fill="none" stroke="#FFFFFF" stroke-width="2.5993" stroke-miterlimit="10" points="263.181,375.047 284.446,396.163 
	321.253,432.97 330.305,442.023 330.305,464.319 "/>
<circle fill="#FFFFFF" cx="330.693" cy="467.675" r="4.454"/>
<line fill="none" stroke="#FFFFFF" stroke-width="2.5993" stroke-miterlimit="10" x1="330.305" y1="356.741" x2="330.305" y2="405.194"/>
<line fill="none" stroke="#FFFFFF" stroke-width="2.5993" stroke-miterlimit="10" x1="267.972" y1="398.263" x2="267.972" y2="466.805"/>
<circle fill="#FFFFFF" cx="330.814" cy="407.347" r="4.454"/>
<path fill="#FFFFFF" d="M327.665,359.832c1.737,1.739,4.559,1.739,6.298,0s1.739-4.559,0-6.298c-1.739-1.741-4.561-1.74-6.298-0.002
	C325.924,355.274,325.924,358.093,327.665,359.832z"/>
<circle fill="#FFFFFF" cx="267.97" cy="467.671" r="4.454"/>
<circle fill="#FFFFFF" cx="267.97" cy="398.702" r="4.454"/>
<circle fill="#FFFFFF" cx="264.917" cy="376.781" r="4.454"/>
<polygon fill="#EE9421" points="484.543,481.201 420.696,481.201 377.534,438.039 377.534,382.89 416.982,343.44 484.543,343.44 
	497.1,355.769 497.1,371.184 484.543,383.741 434.049,383.963 418.255,400.116 418.25,421.421 437.317,440.48 484.33,440.48 
	497.1,453.249 497.1,468.665 "/>
<polyline fill="none" stroke="#FFFFFF" stroke-width="2.5993" stroke-miterlimit="10" points="476.914,467.319 467.587,467.319 
	425.863,467.319 390.898,432.205 390.898,426.761 390.898,385.442 419.057,357.284 468.875,357.284 476.914,357.284 "/>
<polyline fill="none" stroke="#FFFFFF" stroke-width="2.5993" stroke-miterlimit="10" points="468.875,452.265 432.952,452.265 
	419.467,438.78 "/>
<line fill="none" stroke="#FFFFFF" stroke-width="2.5993" stroke-miterlimit="10" x1="404.735" y1="425.786" x2="404.735" y2="397.807"/>
<polyline fill="none" stroke="#FFFFFF" stroke-width="2.5993" stroke-miterlimit="10" points="468.875,372.386 442.879,372.386 
	441.144,372.386 430.158,372.386 417.162,385.381 "/>
<circle fill="#FFFFFF" cx="472.46" cy="452.265" r="4.454"/>
<circle fill="#FFFFFF" cx="472.46" cy="372.386" r="4.454"/>
<circle fill="#FFFFFF" cx="480.503" cy="467.907" r="4.454"/>
<circle fill="#FFFFFF" cx="479.701" cy="357.284" r="4.454"/>
<circle fill="#FFFFFF" cx="417.161" cy="436.631" r="4.455"/>
<circle fill="#FFFFFF" cx="415.31" cy="386.546" r="4.454"/>
<circle fill="#FFFFFF" cx="404.736" cy="429.982" r="4.454"/>
<circle fill="#FFFFFF" cx="404.736" cy="393.909" r="4.454"/>
<polygon fill="#EE9421" points="580.093,441.331 554.676,441.331 554.676,425.378 580.093,425.378 580.093,400.965 554.819,400.965 
	554.819,385.014 580.093,385.014 580.093,344.293 530.415,344.293 513.955,360.752 513.955,467.929 528.081,482.052 
	580.093,482.052 "/>
<polygon fill="#EE9421" points="620.096,344.293 572.329,344.293 572.329,384.802 620.096,384.592 632.65,372.037 632.65,356.619 
	"/>
<polygon fill="#EE9421" points="572.867,441.331 572.329,440.791 572.329,482.052 620.096,482.052 632.65,469.518 632.65,454.102 
	619.88,441.331 "/>
<polygon fill="#EE9421" points="579.227,400.965 584.676,400.965 591.933,408.222 591.933,417.362 583.915,425.378 579.227,425.378 
	"/>
<line fill="none" stroke="#FFFFFF" stroke-width="2.5993" stroke-miterlimit="10" x1="542.895" y1="413.036" x2="574.35" y2="413.036"/>
<circle fill="#FFFFFF" cx="577.748" cy="413.036" r="4.455"/>
<circle fill="#FFFFFF" cx="539.307" cy="413.036" r="4.454"/>
<circle fill="#FFFFFF" cx="620.425" cy="468.376" r="4.454"/>
<circle fill="#FFFFFF" cx="620.818" cy="358.223" r="4.454"/>
<polyline fill="none" stroke="#FFFFFF" stroke-width="2.5993" stroke-miterlimit="10" points="620.924,358.128 549.444,358.128 
	536.231,358.223 527.319,366.352 527.319,380.43 527.319,444.328 527.319,461.692 533.984,468.376 549.661,468.376 620.426,468.376 
	"/>
<polyline fill="none" stroke="#FFFFFF" stroke-width="2.5993" stroke-miterlimit="10" points="605.73,453.002 555.573,453.002 
	542.482,440.005 542.482,431.341 "/>
<polyline fill="none" stroke="#FFFFFF" stroke-width="2.5993" stroke-miterlimit="10" points="605.621,373.229 555.465,373.229 
	542.373,386.226 542.373,394.891 "/>
<path fill="#FFFFFF" d="M602.029,373.229c0,2.46,1.994,4.454,4.454,4.454c2.457,0,4.454-1.994,4.454-4.454s-1.997-4.454-4.454-4.454
	C604.023,368.775,602.029,370.77,602.029,373.229z"/>
<circle fill="#FFFFFF" cx="605.73" cy="453.002" r="4.454"/>
<path fill="#FFFFFF" d="M538.44,429.724c0,2.461,1.992,4.453,4.454,4.453c2.457,0,4.451-1.992,4.451-4.453
	c0-2.46-1.994-4.454-4.451-4.454C540.433,425.27,538.44,427.264,538.44,429.724z"/>
<path fill="#FFFFFF" d="M538.44,396.402c0,2.459,1.992,4.453,4.454,4.453c2.457,0,4.451-1.994,4.451-4.453
	c0-2.46-1.994-4.454-4.451-4.454C540.433,391.948,538.44,393.942,538.44,396.402z"/>
</svg>
