<?xml version="1.0" encoding="utf-8"?>
<!-- Generator: Adobe Illustrator 15.0.0, SVG Export Plug-In . SVG Version: 6.00 Build 0)  -->
<!DOCTYPE svg PUBLIC "-//W3C//DTD SVG 1.1//EN" "http://www.w3.org/Graphics/SVG/1.1/DTD/svg11.dtd">
<svg version="1.1" id="Layer_1" xmlns="http://www.w3.org/2000/svg" xmlns:xlink="http://www.w3.org/1999/xlink" x="0px" y="0px"
	 width="700px" height="700px" viewBox="0 0 700 700" enable-background="new 0 0 700 700" xml:space="preserve">
<pattern  x="-1470" y="-50" width="200" height="200" patternUnits="userSpaceOnUse" id="New_Pattern_Swatch_4" viewBox="1 -201 200 200" overflow="visible">
	<g>
		<polygon fill="none" points="1,-1 201,-1 201,-201 1,-201 		"/>
		
			<image overflow="visible" width="200" height="200" id="_x35_86oQw_5_" xlink:href="6AC5E0CE.jpg"  transform="matrix(1 0 0 1 1 -201)">
		</image>
	</g>
</pattern>
<pattern  x="-1470" y="-50" width="200" height="200" patternUnits="userSpaceOnUse" id="New_Pattern_Swatch_9" viewBox="1 -201 200 200" overflow="visible">
	<g>
		<polygon fill="none" points="1,-1 201,-1 201,-201 1,-201 		"/>
		
			<image overflow="visible" width="200" height="200" id="Jx2gJ0_5_" xlink:href="6AC5E0CB.jpg"  transform="matrix(1 0 0 1 1 -201)">
		</image>
	</g>
</pattern>
<pattern  id="SVGID_1_" xlink:href="#New_Pattern_Swatch_4" patternTransform="matrix(0.5833 0 0 0.5001 -2362.0891 -3526.1746)">
</pattern>
<rect y="-0.027" fill="url(#SVGID_1_)" width="700" height="699.362"/>
<g>
	
		<image overflow="visible" opacity="0.19" width="170" height="123" xlink:href="6AC5E0CA.png"  transform="matrix(1 0 0 1 36.749 99.9722)">
	</image>
	<g>
		<rect x="47.651" y="109.97" fill="#EDE7DF" width="147.21" height="99.645"/>
		
			<rect x="47.651" y="109.97" fill="none" stroke="#ADA69F" stroke-width="0.0053" stroke-miterlimit="10" width="147.21" height="99.645"/>
	</g>
</g>
<g>
	
		<image overflow="visible" opacity="0.57" width="193" height="333" xlink:href="6AC5E0C0.png"  transform="matrix(1 0 0 1 25.2812 389.2812)">
	</image>
	<g>
		<rect x="48.836" y="412.205" fill="#7A98C2" width="146.024" height="286.463"/>
	</g>
</g>
<g>
	
		<image overflow="visible" opacity="0.57" width="176" height="102" xlink:href="6AC5E0C1.png"  transform="matrix(1 0 0 1 439.4717 602.4717)">
	</image>
	<g>
		<pattern  id="SVGID_2_" xlink:href="#New_Pattern_Swatch_9" patternTransform="matrix(0.5703 0 0 0.6162 -2350.5576 -2748.7842)">
		</pattern>
		<path fill="url(#SVGID_2_)" d="M610.396,698.668c0.352-3.114,0.551-6.274,0.551-9.482c0-46.109-37.379-83.488-83.487-83.488
			s-83.487,37.379-83.487,83.488c0,3.208,0.199,6.368,0.551,9.482H610.396z"/>
	</g>
</g>
<g>
	
		<image overflow="visible" opacity="0.57" width="176" height="102" xlink:href="6AC5E0C2.png"  transform="matrix(1 0 0 1 235.4717 602.4717)">
	</image>
	<g>
		<pattern  id="SVGID_3_" xlink:href="#New_Pattern_Swatch_9" patternTransform="matrix(0.5703 0 0 0.6162 -2337.6099 -2748.7842)">
		</pattern>
		<path fill="url(#SVGID_3_)" d="M406.279,698.668c0.352-3.114,0.551-6.274,0.551-9.482c0-46.109-37.378-83.488-83.488-83.488
			c-46.107,0-83.485,37.379-83.485,83.488c0,3.208,0.199,6.368,0.552,9.482H406.279z"/>
	</g>
</g>
<g>
	
		<image overflow="visible" opacity="0.57" width="176" height="176" xlink:href="6AC5E0C3.png"  transform="matrix(1 0 0 1 235.4717 415.4717)">
	</image>
	<g>
		<pattern  id="SVGID_4_" xlink:href="#New_Pattern_Swatch_9" patternTransform="matrix(0.5703 0 0 0.6162 -2337.6099 -2748.7842)">
		</pattern>
		<circle fill="url(#SVGID_4_)" cx="323.343" cy="502.82" r="83.487"/>
	</g>
</g>
<g>
	
		<image overflow="visible" opacity="0.57" width="160" height="37" xlink:href="6AC5E0C4.png"  transform="matrix(1 0 0 1 41.8359 215.0591)">
	</image>
	<g>
		<rect x="48.835" y="222.067" fill="#E28100" width="146.025" height="23.436"/>
	</g>
</g>
<g>
	
		<image overflow="visible" opacity="0.57" width="708" height="88" xlink:href="6AC5E0C5.png"  transform="matrix(1 0 0 1 -3.5156 -3.5151)">
	</image>
	<g>
		<rect y="-0.027" fill="#EDE7DF" width="700" height="79.435"/>
	</g>
</g>
<g>
	
		<image overflow="visible" opacity="0.76" width="428" height="128" xlink:href="6E997DC0.png"  transform="matrix(1 0 0 1 212.6641 105.6646)">
	</image>
	<g>
		<pattern  id="SVGID_5_" xlink:href="#New_Pattern_Swatch_9" patternTransform="matrix(0.5703 0 0 0.6162 -2344.0837 -2748.7842)">
		</pattern>
		<rect x="218.971" y="109.97" fill="url(#SVGID_5_)" width="415.756" height="116.43"/>
	</g>
</g>
<g>
	<rect x="87.429" y="28.66" fill="none" width="153.816" height="19.509"/>
	<text transform="matrix(1 0 0 1 87.4287 44.8442)"><tspan x="0" y="0" font-family="'Helvetica'" font-size="22.5097">Flekman</tspan><tspan x="86.312" y="0" fill="#E28100" font-family="'Helvetica'" font-size="22.5097">ART</tspan></text>
	<path fill-rule="evenodd" clip-rule="evenodd" d="M90.677,18.074c0.896-1.448,2.57-4.095,4.503-2.251
		C93.761,16.655,92.549,17.695,90.677,18.074z"/>
	<path fill-rule="evenodd" clip-rule="evenodd" d="M98.181,52.589c-0.124-1.231,4.626-1.231,4.502,0
		C102.941,55.749,99.95,52.086,98.181,52.589z"/>
	<path fill-rule="evenodd" clip-rule="evenodd" d="M92.178,20.325c-5.122,5.424-11.523,8.09-15.756,12.756
		c2.762,4.742,5.475,9.532,7.503,15.006c2.036-0.465,5.955,0.952,6.752-0.75c1.273,0.488,0.47,1.725-0.75,1.5
		c1.062,1.365,7.031-0.158,9.755,1.501c-2.15,0.813-2.727,2.037-1.501,4.502c-4.409-0.61-5.463,0.715-11.255,0
		c-0.168,3.169,1.156,4.846,1.5,7.503c-1.733-3.008-1.551,0.291-1.5,3.001c-1.83-2.671-4.269-4.736-4.502-9.004
		c-1.761,1.812,1.05,5.416,0.751,8.253c-4.265-2.439-3.951-5.387-6.003-10.504c-10.432,1.428-22.122-3.045-30.013,0.75
		c0.324-1.66-3.602-1.983-6.753-2.251c2.225-1.277,6.178-0.825,9.003-1.5c0.229-1.979-1.565-1.935-3.001-2.251
		c4.979-8.027,13.226-12.786,20.259-18.758c-2.47-3.783-5.771-6.733-6.752-12.005c3.597,2.995,8.468,0.05,10.504,6.752
		c7.608-5.548,13.688-4.498,20.258-9.754C91.294,17.293,89.607,17.874,92.178,20.325z M68.917,37.583
		c-3.159,4.343-9.037,5.967-12.004,10.505c6.084,0.694,13.229-1.088,17.258,0C72.765,44.241,73.037,38.717,68.917,37.583z
		 M51.662,47.337c-0.216-1.323,3.531-2.323,1.5-3.001c-1.094,1.908-4.55,1.453-5.253,3.752c7.086,1.722,11.63-6.726,12.006-6.753
		C57.135,43.307,54.61,45.535,51.662,47.337z"/>
	<rect x="110.688" y="53.426" fill-rule="evenodd" clip-rule="evenodd" fill="none" width="147.686" height="12.755"/>
	<text transform="matrix(1 0 0 1 110.6885 59.9082)" font-family="'Helvetica-Oblique'" font-size="9.0039">A TILE MURAL COMPANY</text>
</g>
<g>
	<g opacity="0.57">
		<rect x="334.244" y="36.908" fill="none" width="106.534" height="34.538"/>
		<text transform="matrix(1 0 0 1 342.3154 48.0874)" fill="#C1B8AE" font-family="'Rockwell'" font-size="16.4656">Installations</text>
	</g>
	<g>
		<rect x="334.244" y="36.32" fill="none" width="106.534" height="34.538"/>
		<text transform="matrix(1 0 0 1 342.3154 47.4995)" fill="#454545" font-family="'Rockwell'" font-size="16.4656">Installations</text>
	</g>
</g>
<g>
	<g opacity="0.57">
		<rect x="457.867" y="36.908" fill="none" width="87.717" height="34.538"/>
		<text transform="matrix(1 0 0 1 466.9814 48.0879)" fill="#D8CBC0" font-family="'Rockwell'" font-size="16.4656">Our Tiles</text>
	</g>
	<g>
		<rect x="457.867" y="36.32" fill="none" width="87.717" height="34.538"/>
		<text transform="matrix(1 0 0 1 466.9814 47.5)" fill="#454545" font-family="'Rockwell'" font-size="16.4656">Our Tiles</text>
	</g>
</g>
<g>
	<g opacity="0.57">
		<rect x="567.951" y="36.908" fill="none" width="87.717" height="34.538"/>
		<text transform="matrix(1 0 0 1 571.0879 48.0874)" fill="#C1B8AE" font-family="'Rockwell'" font-size="16.4656">Contact Us </text>
	</g>
	<g>
		<rect x="567.951" y="36.32" fill="none" width="87.717" height="34.538"/>
		<text transform="matrix(1 0 0 1 571.0879 47.4995)" fill="#454545" font-family="'Rockwell'" font-size="16.4656">Contact Us </text>
	</g>
</g>
<g>
	<g opacity="0.57">
		<rect x="241.23" y="36.908" fill="none" width="87.717" height="34.538"/>
		<text transform="matrix(1 0 0 1 262.1836 48.0874)" fill="#C1B8AE" font-family="'Rockwell'" font-size="16.4656">About </text>
	</g>
	<g>
		<rect x="241.23" y="36.32" fill="none" width="87.717" height="34.538"/>
		<text transform="matrix(1 0 0 1 262.1836 47.4995)" fill="#454545" font-family="'Rockwell'" font-size="16.4656">About </text>
	</g>
</g>
<g id="ZtBcnF_1_">
	
		<image overflow="visible" opacity="0.88" width="427" height="165" xlink:href="6E997DC8.png"  transform="matrix(1 0 0 1 214.2158 239.439)">
	</image>
	<g>
		<g>
			
				<image overflow="visible" width="998" height="368" xlink:href="6E997DCF.png"  transform="matrix(0.4154 0 0 0.4154 220.1318 245.2095)">
			</image>
		</g>
	</g>
</g>
<rect x="232.496" y="122.908" fill="none" width="388.705" height="103.493"/>
<text transform="matrix(1 0 0 1 232.4961 132.8896)"><tspan x="0" y="0" fill="#EDE7DF" font-family="'RockwellStd-Light'" font-size="14.7014">Custom tile murals, accent tiles, tile coasters of classical and </tspan><tspan x="0" y="17.642" fill="#EDE7DF" font-family="'RockwellStd-Light'" font-size="14.7014">reproduction art, photographs, posters, and digital images. </tspan><tspan x="0" y="35.284" fill="#EDE7DF" font-family="'RockwellStd-Light'" font-size="14.7014">Our tiles are perfect for any design or architectural project </tspan><tspan x="0" y="52.925" fill="#EDE7DF" font-family="'RockwellStd-Light'" font-size="14.7014">in bathrooms, kitchens, and pool areas. Perfect for adding </tspan><tspan x="0" y="70.567" fill="#E28100" font-family="'RockwellStd'" font-size="14.7014">color</tspan><tspan x="34.93" y="70.567" fill="#EDE7DF" font-family="'RockwellStd-Light'" font-size="14.7014"> and </tspan><tspan x="66.318" y="70.567" fill="#7A98C2" font-family="'RockwellStd'" font-size="14.7014">style </tspan><tspan x="102.16" y="70.567" fill="#EDE7DF" font-family="'RockwellStd-Light'" font-size="14.7014">to any home.</tspan></text>
<rect x="79.182" y="230.292" fill="none" width="101.451" height="22.473"/>
<text transform="matrix(1 0 0 1 79.1816 237.8779)" fill="#EDE7DF" font-family="'RockwellStd-Light'" font-size="11.1731">Search by...</text>
<g>
	<rect x="66.49" y="256.064" fill="none" width="36.461" height="22.473"/>
	<text transform="matrix(1 0 0 1 66.4902 263.6504)" fill="#E28100" font-family="'RockwellStd-Light'" font-size="11.1731">Artist</text>
</g>
<path fill="#EDE7DF" d="M69.157,228.501c-2.365,0-4.29,1.925-4.29,4.291c0,0.6,0.124,1.181,0.369,1.732l-0.326,0.224
	c-0.126-0.071-0.295-0.065-0.417,0.018l-5.808,3.983c-0.179,0.123-0.225,0.369-0.102,0.548l0.588,0.858
	c0.074,0.108,0.195,0.172,0.325,0.172c0.079,0,0.157-0.024,0.224-0.069l5.807-3.982c0.142-0.097,0.2-0.271,0.158-0.43l0.278-0.191
	c0.815,0.911,1.968,1.429,3.193,1.429c2.366,0,4.291-1.925,4.291-4.291C73.448,230.426,71.523,228.501,69.157,228.501z
	 M69.157,235.561c-1.526,0-2.768-1.243-2.768-2.769c0-1.527,1.241-2.769,2.768-2.769s2.769,1.242,2.769,2.769
	C71.926,234.318,70.684,235.561,69.157,235.561z"/>
<g>
	<rect x="67.63" y="275.593" fill="none" width="33.812" height="22.473"/>
	<text transform="matrix(1 0 0 1 67.6299 283.1797)" fill="#E28100" font-family="'RockwellStd-Light'" font-size="11.1731">Style</text>
</g>
<g>
	<rect x="68.09" y="295.448" fill="none" width="46.924" height="22.473"/>
	<text transform="matrix(1 0 0 1 68.0898 303.0342)" fill="#E28100" font-family="'RockwellStd-Light'" font-size="11.1731">Subject</text>
</g>
<rect x="48.836" y="318.811" fill="none" width="139.491" height="14.323"/>
<text transform="matrix(1 0 0 1 48.8359 326.397)" fill="#454545" font-family="'RockwellStd'" font-size="11.1731">Or search by lists:</text>
<path fill="#E28100" d="M300.59,698.668c-11.004-14.992-10.814-28.202-11.091-29.996c-0.319-2.082-0.8-3.201,5.926-3.201
	c6.727,0,5.605,2.881,5.605,2.881c-2.723,1.922,0,3.523,0,3.523c-0.923,10.894,1.134,20.556,3.042,26.793h39.216
	c1.908-6.237,3.965-15.899,3.042-26.793c0,0,2.722-1.602,0-3.523c0,0-1.121-2.881,5.604-2.881c6.727,0,6.246,1.119,5.927,3.201
	c-0.276,1.794-0.087,15.004-11.091,29.996h6.964c8.556-13.556,10.235-28.459,10.235-32.078c0-5.604-10.409-4.805-10.409-4.805
	c-13.612,0-10.569,6.566-10.569,6.566s-11.21-2.881-19.06-2.881c-7.848,0-19.058,2.881-19.058,2.881s3.043-6.566-10.569-6.566
	c0,0-10.41-0.799-10.41,4.805c0,3.619,1.68,18.522,10.236,32.078H300.59z"/>
<polygon fill="#EDE7DF" points="314.672,698.668 319.902,698.668 323.518,696.686 327.454,698.668 332.484,698.668 331.035,691.02 
	338.521,683.465 327.971,682.119 323.099,672.666 318.559,682.285 308.062,683.998 315.807,691.285 "/>
<path fill="#EDE7DF" d="M557.864,698.668c0.73-3.965,6.056-3.262,11.033-3.041c5.695,0.254,8.607-2.531,8.48-5.062
	c-0.126-2.531-0.254-18.227-26.831-25.188c-26.578-6.961-45.312,0.381-58.474,10c-7.176,5.243-11.29,14.136-9.625,23.291H557.864z"
	/>
<path fill="#E28100" d="M500.089,698.668c0.767-2.433,0.972-4.688,0.972-4.688c1.139-7.721-6.963-3.795-6.963-3.795
	s-7.53,3.845-6.96,8.482H500.089z"/>
<path fill="#7A98C2" d="M505.364,682.211c0,0-5.191-11.137,6.453-13.037c11.645-1.898,13.289,6.52,13.289,6.52
	s-0.126,6.896-6.962,6.518C511.312,681.83,507.516,685.881,505.364,682.211z"/>
<path d="M539.282,678.795c0,0-1.013-9.746,9.745-7.848s10.632,9.996,5.189,10.125C548.774,681.197,540.547,686.26,539.282,678.795z"
	/>
<rect x="274.154" y="445.891" fill="none" width="96.955" height="37.93"/>
<text transform="matrix(1 0 0 1 285.4922 457.0703)"><tspan x="0" y="0" fill="#EDE7DF" font-family="'Rockwell'" font-size="16.4656">Customer </tspan><tspan x="8.743" y="19.76" fill="#EDE7DF" font-family="'Rockwell'" font-size="16.4656">Service</tspan></text>
<rect x="446.404" y="637.586" fill="none" width="167.008" height="27.051"/>
<text transform="matrix(1 0 0 1 485.4844 648.7656)" fill="#EDE7DF" font-family="'Rockwell'" font-size="16.4656">Be Creative</text>
<rect x="240.427" y="637.58" fill="none" width="167.009" height="27.051"/>
<text transform="matrix(1 0 0 1 276.2432 648.7598)" fill="#EDE7DF" font-family="'Rockwell'" font-size="16.4656">High Quality</text>
<g>
	<g>
		<path fill="#7A98C2" d="M326.143,568.488l-0.574-1.74c9.512-3.139,16.309-8.543,19.653-15.627
			c2.531-5.355,2.227-9.852,2.223-9.896l1.827-0.143c0.017,0.199,0.355,4.945-2.347,10.727c-1.58,3.383-3.881,6.418-6.836,9.025
			C336.42,564.07,331.728,566.646,326.143,568.488z"/>
		<path fill="#EDE7DF" d="M346.205,521.357l-2.75-11l-5.897-6.049l-14.451-1.646v-0.004l-0.021,0.004l-0.021-0.004v0.004
			l-14.453,1.646l-5.898,6.049l-2.749,11l-1.745,7.285l1.745,10.725c0,0,3.574,12.785,9.899,17.322
			c6.297,4.518,6.053,6.309,13.176,6.324l0,0c0.015,0,0.03,0,0.046,0s0.03,0,0.047,0l0,0c7.121-0.016,6.878-1.807,13.175-6.324
			c6.325-4.537,9.898-17.322,9.898-17.322l1.746-10.725L346.205,521.357z"/>
		<path fill="#E28100" d="M306.014,513.246c0,0,15.948,7.285,25.984,7.285c0,0-6.462-2.887-8.111-5.637
			c0,0,10.174,1.65,14.573,5.637c0,0-3.437-5.5-7.975-7.285c0,0,13.199,3.574,14.573,20.072l0.891,2.75
			c0,0,6.947-23.785-4.465-32.447c-11.411-8.662-20.76-10.174-24.747-6.463c0,0-21.585,3.025-18.148,29.561l1.513,10.311
			C300.102,537.029,299.828,517.645,306.014,513.246z"/>
		<path d="M347.458,542.781c0,0-3.438,0-2.888-4.262s2.535-12.1,2.535-12.1s0.375-3.311,3.389-2.412
			c3.013,0.9,3.013,3.512,3.013,3.512l-3.833,12.375L347.458,542.781z"/>
		<path d="M298.865,542.805c0,0,3.437-0.002,2.886-4.262c-0.55-4.264-2.534-12.1-2.534-12.1s-0.376-3.312-3.389-2.412
			s-3.013,3.512-3.013,3.512l3.833,12.373L298.865,542.805z"/>
		<path fill="#7A98C2" d="M298.865,542.805c0,0-2.75,2.199-5.088-1.787c-2.337-3.988-2.75-11.412-2.2-16.086
			c0,0,0.55-1.375,2.613-1.65c0,0-3.163-20.76,17.735-31.76c0,0,20.072-8.936,33.133,9.9c0,0,7.287,7.424,6.188,21.859
			c0,0,3.987,0.094,3.299,6.371c0,0-0.824,13.676-5.912,13.758l-2.062-0.881c0,0,4.95-12.098,3.162-19.248
			c0,0,0.775-27.771-26.627-31.484c0,0-22.455-2.475-27.129,31.484C295.978,523.281,294.053,530.293,298.865,542.805z"/>
		<path d="M322.993,570.713c0,0-4.881,0-5.155-3.299c0,0,0.321-3.025,5.247-2.889c0,0,4.238,0.135,4.515,3.092
			C327.6,567.617,328.148,569.889,322.993,570.713z"/>
	</g>
	<g>
		<path fill="#7A98C2" d="M313.934,531.721c0,1.535-0.931,2.791-2.068,2.791s-2.068-1.256-2.068-2.791s0.931-2.791,2.068-2.791
			S313.934,530.186,313.934,531.721z"/>
	</g>
	<g>
		<path fill="#7A98C2" d="M335.711,531.721c0,1.535-0.931,2.791-2.068,2.791s-2.068-1.256-2.068-2.791s0.931-2.791,2.068-2.791
			S335.711,530.186,335.711,531.721z"/>
	</g>
	<path fill="#E28100" d="M313.934,547.947c0,0-1.747-5.971,4.138-4.537c0,0,5.869,1.873,9.544-0.605c0,0,3.959-1.068,3.959,3.73
		s-5.688,4.799-5.688,4.799s-5.232-1.977-7.815,0C318.071,551.334,315.488,551.898,313.934,547.947z"/>
	<path fill="#E28100" d="M338.46,520.531c0,0,5.504,5.332,6.051,9.061c0,0,3.854-14.734-5.761-20.838s-11.134-2.717-11.134-2.717
		S329.814,514.643,338.46,520.531z"/>
</g>
<rect x="440.073" y="446.91" fill="none" width="175.829" height="117.625"/>
<text transform="matrix(1 0 0 1 440.0732 456.0938)"><tspan x="0" y="0" fill="#454545" font-family="'RockwellStd-Light'" font-size="13.5253">Our products work well in </tspan><tspan x="0" y="16.23" fill="#454545" font-family="'RockwellStd-Light'" font-size="13.5253">every room of the house: </tspan><tspan x="0" y="32.461" fill="#454545" font-family="'RockwellStd-Light'" font-size="13.5253">from the kitchen to the </tspan><tspan x="0" y="48.691" fill="#454545" font-family="'RockwellStd-Light'" font-size="13.5253">bathroom. Contact us to </tspan><tspan x="0" y="64.922" fill="#454545" font-family="'RockwellStd-Light'" font-size="13.5253">discuss how flekmanArt can </tspan><tspan x="0" y="81.152" fill="#454545" font-family="'RockwellStd-Light'" font-size="13.5253">be a part of your next project.</tspan></text>
<circle fill="#FFFFFF" cx="611.792" cy="321.648" r="12.447"/>
<circle fill="#FFFFFF" cx="241.905" cy="321.648" r="12.447"/>
<polyline fill="none" stroke="#D8CDC0" stroke-width="2.9403" stroke-miterlimit="10" points="608.511,328.94 615.887,321.564 
	608.511,314.187 "/>
<polyline fill="none" stroke="#D8CDC0" stroke-width="2.9403" stroke-miterlimit="10" points="244.346,328.94 236.971,321.564 
	244.346,314.187 "/>
<g>
	
		<image overflow="visible" opacity="0.57" width="160" height="37" xlink:href="6E997DCC.png"  transform="matrix(1 0 0 1 42.0283 333.2515)">
	</image>
	<g>
		<rect x="48.836" y="340.51" fill="#EDE7DF" width="146.024" height="22.068"/>
		
			<rect x="48.836" y="340.51" fill="none" stroke="#ADA69F" stroke-width="0.0053" stroke-miterlimit="10" width="146.024" height="22.068"/>
	</g>
</g>
<g>
	
		<image overflow="visible" opacity="0.57" width="160" height="36" xlink:href="6E997DCE.png"  transform="matrix(1 0 0 1 42.0283 358.252)">
	</image>
	<g>
		<rect x="48.836" y="365.385" fill="#EDE7DF" width="146.024" height="22.068"/>
		
			<rect x="48.836" y="365.385" fill="none" stroke="#ADA69F" stroke-width="0.0053" stroke-miterlimit="10" width="146.024" height="22.068"/>
	</g>
</g>
<g>
	
		<image overflow="visible" opacity="0.57" width="160" height="36" xlink:href="6E997DF6.png"  transform="matrix(1 0 0 1 42.0283 383.252)">
	</image>
	<g>
		<rect x="48.836" y="390.143" fill="#726C67" width="146.024" height="22.068"/>
	</g>
</g>
<g>
	<rect x="79.264" y="347.845" fill="none" width="36.461" height="22.473"/>
	<text transform="matrix(1 0 0 1 79.2637 355.4316)" fill="#7A98C2" font-family="'RockwellStd-Light'" font-size="11.1731">Artists</text>
</g>
<g>
	<rect x="79.041" y="372.488" fill="none" width="33.812" height="22.473"/>
	<text transform="matrix(1 0 0 1 79.041 380.0742)" fill="#7A98C2" font-family="'RockwellStd-Light'" font-size="11.1731">Styles</text>
</g>
<rect x="79.234" y="397.221" fill="none" width="46.926" height="22.473"/>
<text transform="matrix(1 0 0 1 79.2344 404.8066)" fill="#EDE7DF" font-family="'RockwellStd'" font-size="11.1731">Subjects</text>
<g>
	
		<image overflow="visible" opacity="0.57" width="16" height="15" xlink:href="6E997DF7.png"  transform="matrix(1 0 0 1 47.0625 252.2852)">
	</image>
	<g>
		<rect x="48.836" y="254.298" fill="#EDE7DF" width="11.67" height="11.236"/>
		
			<rect x="48.836" y="254.298" fill="none" stroke="#E28100" stroke-width="0.0011" stroke-miterlimit="10" width="11.67" height="11.236"/>
	</g>
</g>
<g>
	
		<image overflow="visible" opacity="0.57" width="16" height="15" xlink:href="6E997DF8.png"  transform="matrix(1 0 0 1 47.0625 273.2852)">
	</image>
	<g>
		<rect x="48.836" y="274.612" fill="#EDE7DF" width="11.67" height="11.237"/>
		
			<rect x="48.836" y="274.612" fill="none" stroke="#E28100" stroke-width="0.0011" stroke-miterlimit="10" width="11.67" height="11.237"/>
	</g>
</g>
<g>
	
		<image overflow="visible" opacity="0.57" width="16" height="16" xlink:href="6E997DF9.png"  transform="matrix(1 0 0 1 47.0625 292.2852)">
	</image>
	<g>
		<rect x="48.836" y="294.534" fill="#EDE7DF" width="11.67" height="11.236"/>
		
			<rect x="48.836" y="294.534" fill="none" stroke="#E28100" stroke-width="0.0011" stroke-miterlimit="10" width="11.67" height="11.236"/>
	</g>
</g>
<polyline fill="#EDE7DF" stroke="#E28100" stroke-width="1.1761" stroke-miterlimit="10" points="50.602,260.125 52.787,263.769 
	58.172,256.48 "/>
<path fill="#7A98C2" d="M63.667,348.037l5.324,5.981c0,0,2.301-1.314,1.183-3.023c0,0-1.248-1.249,0-2.037
	c0,0,4.799-2.301,2.959-4.207c0,0-1.381-2.038-4.142,2.3c0,0-0.986,1.644-2.366,0.197C66.625,347.248,65.311,345.868,63.667,348.037
	z M71.423,345.736c0-0.363,0.295-0.657,0.657-0.657c0.363,0,0.658,0.294,0.658,0.657c0,0.363-0.295,0.657-0.658,0.657
	C71.718,346.394,71.423,346.1,71.423,345.736z"/>
<path fill="#7A98C2" d="M58.409,351.6l0.273-0.047c1.06-0.18,3.377-1.98,4.181-2.659l0.24-0.203l5.531,5.973l-0.311,0.216
	c-0.661,0.458-2.442,2.896-3.073,3.796l-0.099,0.141h-1.813v-1.117h-0.986v-1.117h-1.005l0.065-1.184h-1.098v-1.052h-1.119
	l0.206-1.097l-0.993-0.125V351.6z"/>
<rect x="79.041" y="419.51" fill="none" width="112.291" height="279.158"/>
<text transform="matrix(1 0 0 1 79.041 427.0957)"><tspan x="0" y="0" fill="#EDE7DF" font-family="'RockwellStd-Light'" font-size="11.1731">Abstract</tspan><tspan x="0" y="13.408" fill="#EDE7DF" font-family="'RockwellStd-Light'" font-size="11.1731">Animals</tspan><tspan x="0" y="26.816" fill="#EDE7DF" font-family="'RockwellStd-Light'" font-size="11.1731">Architectural Design</tspan><tspan x="0" y="40.225" fill="#EDE7DF" font-family="'RockwellStd-Light'" font-size="11.1731">Astronomy &amp; Space</tspan><tspan x="0" y="53.631" fill="#EDE7DF" font-family="'RockwellStd-Light'" font-size="11.1731">Cuisine</tspan><tspan x="0" y="67.039" fill="#EDE7DF" font-family="'RockwellStd-Light'" font-size="11.1731">Dance</tspan><tspan x="0" y="80.447" fill="#EDE7DF" font-family="'RockwellStd-Light'" font-size="11.1731">Earth and Ocean</tspan><tspan x="0" y="93.855" fill="#EDE7DF" font-family="'RockwellStd-Light'" font-size="11.1731">Fantasy</tspan><tspan x="0" y="107.262" fill="#EDE7DF" font-family="'RockwellStd-Light'" font-size="11.1731">Fashion</tspan><tspan x="0" y="120.67" fill="#EDE7DF" font-family="'RockwellStd-Light'" font-size="11.1731">Flora</tspan><tspan x="0" y="134.078" fill="#EDE7DF" font-family="'RockwellStd-Light'" font-size="11.1731">Hobbies</tspan><tspan x="0" y="147.484" fill="#EDE7DF" font-family="'RockwellStd-Light'" font-size="11.1731">Holidays</tspan><tspan x="0" y="160.893" fill="#EDE7DF" font-family="'RockwellStd-Light'" font-size="11.1731">Home &amp; Hearth</tspan><tspan x="0" y="174.301" fill="#EDE7DF" font-family="'RockwellStd-Light'" font-size="11.1731">Humor</tspan><tspan x="0" y="187.709" fill="#EDE7DF" font-family="'RockwellStd-Light'" font-size="11.1731">Illustration</tspan><tspan x="0" y="201.115" fill="#EDE7DF" font-family="'RockwellStd-Light'" font-size="11.1731">Mandala</tspan><tspan x="0" y="214.523" fill="#EDE7DF" font-family="'RockwellStd-Light'" font-size="11.1731">Maps</tspan><tspan x="0" y="227.932" fill="#EDE7DF" font-family="'RockwellStd-Light'" font-size="11.1731">Movies</tspan><tspan x="0" y="241.34" fill="#EDE7DF" font-family="'RockwellStd-Light'" font-size="11.1731">Music</tspan><tspan x="0" y="254.746" fill="#EDE7DF" font-family="'RockwellStd-Light'" font-size="11.1731">Ornament</tspan><tspan x="0" y="268.154" fill="#EDE7DF" font-family="'RockwellStd-Light'" font-size="11.1731">Pattern Work</tspan></text>
<path fill="#EDE7DF" stroke="#ADA69F" stroke-width="0.0042" stroke-miterlimit="10" d="M57.627,403.607c0,0-0.248-1.115,0-2.684
	l7.14,3.137c0,0,0.454,0.33,1.177-0.205c0.723-0.537,7.346-5.779,7.346-5.779s0.537-0.391-0.123-0.639s-6.852-2.621-6.852-2.621
	s-0.929-0.145-2.002,0.723l-6.796,4.725c0,0-1.189,0.641-0.551,3.633c0,0,0.3,0.475,1.151,0.887
	c0.852,0.414,6.299,2.951,6.299,2.951s0.681,0.393,1.3-0.186s7.243-6.48,7.243-6.48s0.31-0.33-0.227-0.557
	c0,0-0.165,0.166-0.475,0.453c-0.31,0.289-7.243,6.15-7.243,6.15L57.627,403.607z"/>
<g>
	<g>
		<path fill="#7A98C2" d="M71.374,378.248c0.264,0,0.48-0.217,0.48-0.48v-0.359c0-0.266-0.208-0.539-0.464-0.609l-0.514-0.145
			c-0.256-0.07-0.49-0.326-0.523-0.568c-0.034-0.242,0.104-0.583,0.303-0.756l0.516-0.45c0.199-0.174,0.317-0.527,0.262-0.786
			l-0.039-0.181c-0.055-0.259-0.316-0.47-0.58-0.47h-0.282c-0.264,0-0.588-0.127-0.72-0.281s-0.154-0.479-0.048-0.721l0.175-0.4
			c0.105-0.242,0.029-0.582-0.171-0.754l-0.152-0.134c-0.2-0.173-0.535-0.181-0.742-0.019l-0.524,0.41
			c-0.21,0.163-0.579,0.213-0.824,0.111l-0.072-0.031c-0.245-0.102-0.453-0.4-0.465-0.665l-0.039-0.882
			c-0.01-0.264-0.236-0.48-0.5-0.48h-0.04c-0.264,0-0.593,0.186-0.73,0.41l-0.282,0.461c-0.137,0.227-0.465,0.428-0.729,0.449
			l-0.021,0.002c-0.264,0.021-0.577-0.154-0.695-0.391l-0.251-0.502c-0.118-0.236-0.426-0.381-0.684-0.323l-0.304,0.068
			c-0.258,0.058-0.432,0.319-0.388,0.579l0.118,0.695c0.045,0.26-0.053,0.6-0.22,0.754c-0.164,0.154-0.495,0.188-0.734,0.074
			l-0.571-0.27c-0.239-0.113-0.592-0.057-0.783,0.126l-0.145,0.138c-0.191,0.183-0.214,0.5-0.049,0.707l0.361,0.451
			c0.165,0.207,0.223,0.576,0.127,0.824l-0.055,0.144c-0.095,0.247-0.389,0.454-0.653,0.461l-0.642,0.017
			c-0.264,0.006-0.531,0.222-0.594,0.479l-0.054,0.227c-0.062,0.257,0.095,0.53,0.347,0.607l0.523,0.16
			c0.252,0.076,0.485,0.354,0.518,0.617l0.002,0.007c0.032,0.263-0.133,0.577-0.368,0.697l-0.467,0.24
			c-0.235,0.122-0.378,0.431-0.318,0.688l0.061,0.266c0.062,0.258,0.327,0.457,0.59,0.443l0.722-0.033
			c0.265-0.013,0.616,0.146,0.781,0.352l0.039,0.052c0.166,0.206,0.183,0.557,0.039,0.778l-0.357,0.555
			c-0.145,0.222-0.1,0.546,0.1,0.721l0.279,0.246c0.197,0.175,0.507,0.158,0.688-0.035l0.348-0.376
			c0.18-0.194,0.518-0.25,0.75-0.124l0.155,0.084c0.232,0.125,0.423,0.445,0.423,0.709v0.58c0,0.265,0.214,0.508,0.477,0.541
			l0.327,0.04c0.263,0.033,0.526-0.151,0.585-0.408l0.187-0.825c0.058-0.258,0.322-0.476,0.586-0.484l0.241-0.008
			c0.265-0.009,0.545,0.189,0.625,0.441l0.191,0.605c0.079,0.253,0.361,0.45,0.625,0.441l0.16-0.006
			c0.265-0.01,0.48-0.234,0.48-0.498v-0.962c0-0.265,0.166-0.62,0.368-0.79l0.025-0.021c0.202-0.17,0.558-0.207,0.79-0.082
			l0.796,0.428c0.233,0.124,0.561,0.059,0.728-0.146l0.112-0.138c0.167-0.204,0.159-0.531-0.017-0.729l-0.438-0.487
			c-0.177-0.196-0.304-0.519-0.282-0.717c0.022-0.198,0.257-0.36,0.521-0.36H71.374L71.374,378.248z M65.146,378.889
			c-1.448,0-2.623-1.174-2.623-2.623s1.175-2.623,2.623-2.623c1.449,0,2.624,1.174,2.624,2.623S66.595,378.889,65.146,378.889z"/>
	</g>
</g>
<rect x="60.507" y="122.908" fill="none" width="124.024" height="72.595"/>
<text transform="matrix(1 0 0 1 60.5068 131.6919)"><pattern  id="SVGID_6_" xlink:href="#New_Pattern_Swatch_9" patternTransform="matrix(0.5703 0 0 0.6162 -2344.0837 -2748.7842)">
</pattern>
<tspan x="0" y="0" fill="url(#SVGID_6_)" font-family="'RockwellStd-Light'" font-size="12.9372">Are you an artist who </tspan><pattern  id="SVGID_7_" xlink:href="#New_Pattern_Swatch_9" patternTransform="matrix(0.5703 0 0 0.6162 -2344.0837 -2748.7842)">
</pattern>
<tspan x="0" y="15.525" fill="url(#SVGID_7_)" font-family="'RockwellStd-Light'" font-size="12.9372">would like to have </tspan><pattern  id="SVGID_8_" xlink:href="#New_Pattern_Swatch_9" patternTransform="matrix(0.5703 0 0 0.6162 -2344.0837 -2748.7842)">
</pattern>
<tspan x="0" y="31.049" fill="url(#SVGID_8_)" font-family="'RockwellStd-Light'" font-size="12.9372">your work featured </tspan><pattern  id="SVGID_9_" xlink:href="#New_Pattern_Swatch_9" patternTransform="matrix(0.5703 0 0 0.6162 -2344.0837 -2748.7842)">
</pattern>
<tspan x="0" y="46.574" fill="url(#SVGID_9_)" font-family="'RockwellStd-Light'" font-size="12.9372">on our tiles? Either </tspan><tspan x="0" y="62.099" fill="#7A98C2" font-family="'RockwellStd'" font-size="12.9372">log in</tspan><pattern  id="SVGID_10_" xlink:href="#New_Pattern_Swatch_9" patternTransform="matrix(0.5703 0 0 0.6162 -2344.0837 -2748.7842)">
</pattern>
<tspan x="33.701" y="62.099" fill="url(#SVGID_10_)" font-family="'RockwellStd-Light'" font-size="12.9372"> or </tspan><tspan x="52.435" y="62.099" fill="#E28100" font-family="'RockwellStd'" font-size="12.9372">sign up </tspan></text>
</svg>
