<?xml version="1.0" encoding="utf-8"?>
<!-- Generator: Adobe Illustrator 15.0.0, SVG Export Plug-In . SVG Version: 6.00 Build 0)  -->
<!DOCTYPE svg PUBLIC "-//W3C//DTD SVG 1.1//EN" "http://www.w3.org/Graphics/SVG/1.1/DTD/svg11.dtd">
<svg version="1.1" id="Layer_1" xmlns="http://www.w3.org/2000/svg" xmlns:xlink="http://www.w3.org/1999/xlink" x="0px" y="0px"
	 width="500px" height="500px" viewBox="0 0 500 500" enable-background="new 0 0 500 500" xml:space="preserve">
<rect fill="#CAEF6F" width="500" height="500"/>
<circle fill="#472F91" cx="92.39" cy="177.987" r="56.396"/>
<circle fill="#472F91" cx="248.836" cy="177.987" r="56.396"/>
<circle fill="#472F91" cx="405.608" cy="178.406" r="56.396"/>
<circle fill="#472F91" cx="92.39" cy="322.968" r="56.396"/>
<circle fill="#472F91" cx="248.836" cy="322.968" r="56.396"/>
<path fill="#F78E1E" d="M428.233,162.396l0.914,10.544c0,0,0.184,4.762,4.395,3.296c4.211-1.465,8.077-2.745,9.527,3.478
	c1.456,6.224-3.306,8.42-3.306,8.42s-0.913,0.915-6.954-1.648c-6.042-2.562-4.576,9.151-4.576,9.151l0.731,10.589h-8.602
	c0,0-5.86,0.212-4.58-4.73c1.283-4.942,3.138-8.236-5.294-9.518c-8.433-1.281-6.236,6.224-6.236,6.224s4.025,7.267-1.646,8.024
	c-5.675,0.762-23.612,0.001-23.612,0.001v-13.336c0,0,0.732-5.673,5.123-3.477c4.395,2.195,8.055,3.845,9.887-3.478
	c1.829-7.324-4.393-8.971-7.14-7.324c-2.747,1.648-7.321,3.113-7.87-2.193c-0.551-5.31-0.843-13.906-0.843-13.906l14.396,0.095
	c0,0,5.98,0.514,5.034-4.523c-0.951-5.039-0.845-7.911,5.384-8.607c6.23-0.7,7.232,3.776,6.183,8.769
	c-1.05,4.991,2.928,4.148,2.928,4.148H428.233z"/>
<g>
	<path fill="#FFC222" d="M248.836,146.613c-17.844,0-32.36,14.517-32.36,32.361c0,17.842,14.516,32.358,32.36,32.358
		c17.841,0,32.359-14.516,32.359-32.358C281.195,161.13,266.677,146.613,248.836,146.613z"/>
	<circle fill="#472F91" cx="237.407" cy="174.362" r="5.451"/>
	<circle fill="#472F91" cx="261.171" cy="174.362" r="5.451"/>
	<g>
		<path fill="#472F91" d="M235.02,187.958c1.223,5.145,5.186,12.263,14.154,12.263c8.971,0,13.061-7.147,14.363-12.263H235.02z"/>
	</g>
</g>
<g>
	<path fill="#FFFFFF" d="M288.411,323.335c0,0-0.036-0.166-0.238-0.5h0.004c0,0-0.058-0.086-0.166-0.246l0,0
		c-1.694-2.451-16.206-22.437-39.177-22.437c-22.972,0-37.48,19.985-39.176,22.437l0,0c-0.11,0.16-0.167,0.246-0.167,0.246h0.007
		c-0.204,0.334-0.24,0.5-0.24,0.5s0.036,0.166,0.24,0.5h-0.007c0,0,0.058,0.086,0.167,0.248l0,0
		c1.696,2.449,16.205,22.438,39.176,22.438c22.971,0,37.482-19.988,39.177-22.438l0,0c0.108-0.162,0.166-0.248,0.166-0.248h-0.004
		C288.375,323.501,288.411,323.335,288.411,323.335z"/>
	<circle fill="#005AB6" stroke="#FFFFFF" stroke-width="1.6824" stroke-miterlimit="10" cx="248.834" cy="322.716" r="13.698"/>
</g>
<g>
	<path fill="#FFFFFF" d="M129.838,173.442c0.146-3.551-1.936-7.499-4.374-9.882c-5.038-4.921-12.95-7.936-19.688-9.48
		c-10.809-2.481-23.042-1.52-33.283,2.763c-2.829,1.185-5.634,2.719-8.136,4.497c-6.246,4.433-10.85,12.255-9.542,20.149
		c2.992,10.673,13.331,17.683,23.591,20.312c5.919,1.515,12.315,2.136,18.426,1.838c22.349-1.193,26.223-11.026,26.223-11.026
		s1.392-3.179-1.489-5.065c-2.297-1.505-8.405-2.688-7.165-6.864c1.922-6.457,14.27,1.515,15.367-6.48
		C129.804,173.952,129.827,173.7,129.838,173.442z"/>
	<circle fill="#472F91" cx="105.684" cy="187.437" r="4.956"/>
	
		<ellipse transform="matrix(-0.9848 -0.1737 0.1737 -0.9848 127.3908 398.6243)" fill="#C8DF8E" cx="81.138" cy="193.738" rx="6.196" ry="4.626"/>
	<path fill="#F78E1E" d="M60.867,176.294c-1.958,1.643-1.763,5.1,0.437,7.72c2.2,2.622,5.57,3.416,7.525,1.773
		c1.958-1.643,1.763-5.1-0.437-7.722C66.193,175.447,62.824,174.653,60.867,176.294z"/>
	
		<ellipse transform="matrix(-0.9397 0.342 -0.342 -0.9397 198.0155 295.8149)" fill="#005AB6" cx="72.931" cy="165.363" rx="6.195" ry="4.627"/>
	<ellipse fill="#3DB2E3" cx="92.215" cy="160.566" rx="6.196" ry="4.626"/>
	
		<ellipse transform="matrix(-0.9397 -0.342 0.342 -0.9397 162.6213 356.9549)" fill="#FFC222" cx="112.777" cy="164.142" rx="6.195" ry="4.627"/>
</g>
<circle fill="#472F91" cx="400.459" cy="322.181" r="56.398"/>
<g>
	
		<rect x="386.393" y="316.206" transform="matrix(0.7071 -0.7071 0.7071 0.7071 -110.2875 377.5107)" fill="#3DB2E3" width="28.255" height="11.339"/>
	<path fill="#F78E1E" d="M388.172,352.39c1.173,1.176,2.921,1.332,3.9,0.354l5.642-5.643c0.979-0.979,0.821-2.725-0.354-3.9
		l-18.283-18.285c-1.176-1.174-2.921-1.33-3.898-0.352l-5.644,5.643c-0.979,0.979-0.821,2.723,0.352,3.898L388.172,352.39z"/>
	<path fill="#FFC222" d="M372.593,341.331l-1.429,1.43c-0.979,0.979-0.979,2.566,0,3.543l4.879,4.881
		c0.978,0.977,2.565,0.979,3.543,0.002l1.429-1.43L372.593,341.331z"/>
	<path fill="#F78E1E" d="M431.031,309.792c1.175,1.174,1.333,2.919,0.354,3.898l-5.642,5.643c-0.979,0.979-2.726,0.82-3.9-0.354
		l-18.286-18.285c-1.174-1.173-1.331-2.92-0.352-3.898l5.642-5.645c0.979-0.979,2.724-0.819,3.898,0.355L431.031,309.792z"/>
	<path fill="#FFC222" d="M419.927,294.093l1.43-1.43c0.979-0.979,2.562-0.979,3.542,0l4.88,4.88c0.979,0.979,0.979,2.566,0,3.546
		l-1.428,1.428L419.927,294.093z"/>
</g>
<g>
	<path fill="#C8DF8E" d="M128.214,307.017c0.595-3.461-1.979-15.861-6.052-4.111c-4.075,11.751-11.765,3.451-11.765,3.451
		s-8.301-7.693,3.45-11.764c11.75-4.074-0.651-6.648-4.11-6.057c0,0-7.187,0.857-11.748,5.807
		c-4.56,4.949-4.931,14.465-3.238,17.244l-21.016,21.018l5.206,5.205l5.207,5.207l21.016-21.016
		c2.781,1.691,12.298,1.324,17.247-3.238C127.358,314.202,128.214,307.017,128.214,307.017z"/>
	<path fill="#C8DF8E" d="M63.314,353.437c-5.063-5.064-5.063-13.305,0.001-18.369c5.063-5.062,13.305-5.062,18.368,0
		c5.065,5.064,5.064,13.305,0.001,18.369C76.62,358.501,68.379,358.503,63.314,353.437z M76.2,340.552
		c-2.041-2.039-5.361-2.039-7.401,0c-2.042,2.041-2.042,5.363-0.002,7.404c2.042,2.041,5.364,2.041,7.405,0
		C78.242,345.915,78.241,342.593,76.2,340.552z"/>
</g>
</svg>
