<?xml version="1.0" encoding="utf-8"?>
<!-- Generator: Adobe Illustrator 15.0.0, SVG Export Plug-In . SVG Version: 6.00 Build 0)  -->
<!DOCTYPE svg PUBLIC "-//W3C//DTD SVG 1.1//EN" "http://www.w3.org/Graphics/SVG/1.1/DTD/svg11.dtd">
<svg version="1.1" id="Layer_1" xmlns="http://www.w3.org/2000/svg" xmlns:xlink="http://www.w3.org/1999/xlink" x="0px" y="0px"
	 width="900px" height="900px" viewBox="0 0 900 900" enable-background="new 0 0 900 900" xml:space="preserve">
<rect fill="#3AC897" width="900" height="900"/>
<path fill="#FCFCF7" d="M701.273,795.963v-53.514c0-105.324-87.137-190.702-194.627-190.702H393.737
	c-107.491,0-194.627,85.378-194.627,190.702v53.514H701.273z"/>
<polygon fill="#357FDC" points="391.596,550.939 453.209,781.467 514.818,550.939 "/>
<g>
	<g>
		<path fill="#0E4E89" d="M458.084,603.723c-1.842-6.217-4.854-6.217-6.695,0l-32.962,111.3c-1.841,6.217,0.176,15.27,4.482,20.116
			l23.998,27.013c4.306,4.847,11.353,4.847,15.659-0.001l23.997-27.011c4.306-4.848,6.323-13.9,4.481-20.117L458.084,603.723z"/>
	</g>
	<g>
		<path fill="#0E4E89" d="M450.995,576.152c-20.442,0-30.008,15.116-21.258,33.591l7.909,16.698c8.75,18.475,23.068,18.475,31.818,0
			l7.908-16.698c8.75-18.475-0.816-33.591-21.259-33.591H450.995z"/>
	</g>
</g>
<polygon fill="#D6CEC8" points="453.209,782.468 545.928,655.427 493.271,632.979 556.289,618.522 556.289,556.607 513.907,546.794 
	"/>
<polygon fill="#D6CEC8" points="453.924,782.103 361.205,655.062 413.861,632.613 350.845,618.156 350.845,556.24 393.226,546.432 
	"/>
<path fill="none" stroke="#000000" stroke-width="16.9415" stroke-linecap="round" stroke-miterlimit="10" d="M325.714,587.592
	c14.904-25.621,50.901-52.464,136.289-52.638c121.937-0.25,130.783,101.38,126.321,162.912"/>
<path fill="none" stroke="#9B9CB0" stroke-width="14" stroke-miterlimit="10" d="M253.893,725.582c0,0,20.26,12.491,35.2,8.431
	c0,0,15.916-3.173,24.48-11.688c8.564-8.509,17.834-23.825,23.221-40.988c5.389-17.162,6.083-42.28,4.93-51.409"/>
<path stroke="#000000" stroke-width="13.3608" stroke-miterlimit="10" d="M249.201,731.121l-9.523-4.171c0,0-5.851-2.886-2.985-8.74
	c2.862-5.859,4.854-8.015,11.506-5.562l9.091,6.55c0,0,4.327,3.254,1.911,8.096C256.777,732.136,254.156,733.285,249.201,731.121z"
	/>
<path fill="none" stroke="#9B9CB0" stroke-width="14" stroke-miterlimit="10" d="M342.952,741.994c0,0-23.513,3.699-35.727-5.812
	c0,0-13.456-9.077-18.069-20.234c-4.613-11.158-7.254-28.863-5.596-46.775c1.656-17.912,10.71-41.349,15.298-49.326"/>
<path stroke="#000000" stroke-width="13.3608" stroke-miterlimit="10" d="M345.143,748.911l10.395-0.166
	c0,0,6.508-0.398,6.129-6.909c-0.38-6.511-1.387-9.274-8.465-9.577l-10.919,2.534c0,0-5.247,1.329-4.886,6.736
	C337.762,746.927,339.737,748.996,345.143,748.911z"/>
<path fill="none" stroke="#000000" stroke-width="16.9415" stroke-linecap="round" stroke-miterlimit="10" d="M296.761,623.922
	c0,0,11.17-38.221,28.629-35.029c17.454,3.19,16.319,37.698,16.555,43.289"/>
<circle fill="#9B9CB0" cx="588.85" cy="704.075" r="36.215"/>
<circle fill="#D6CEC8" cx="588.85" cy="704.075" r="22.926"/>
<path fill="#D8BA98" d="M513.143,500.484h-59.58h-0.385h-59.58c0,0,12.136,21.411,1.734,51.953c0,0,18.214,29.512,57.845,29.709
	v0.009c0.064,0,0.127-0.004,0.191-0.005c0.066,0.001,0.128,0.005,0.193,0.005v-0.009c39.631-0.197,57.845-29.709,57.845-29.709
	C501.005,521.896,513.143,500.484,513.143,500.484z"/>
<path fill="#F4E0C6" d="M322.988,441.35c0,0,46.665,95.126,126.311,98.126h5.042c79.646-3,126.311-98.126,126.311-98.126
	l0.302,0.375c0.001-0.008,0.002-0.016,0.003-0.023c3.986,1.446,9.377,3.043,16.694,4.787c36.235,8.629,25.883-93.177,25.883-93.177
	c-14.226-16.257-30.114-10.975-40.78-3.883c-0.078-0.354-0.174-0.67-0.258-1.016c73.576-186.145-103.396-204.649-128.146-206.317
	c-0.004,0-0.01,0-0.012,0c-1.823-0.121-2.85-0.157-2.85-0.157v0.028c-0.444-0.008-0.857-0.008-1.246-0.002v-0.025
	c0,0-0.466,0.016-1.346,0.063c-0.937,0.04-1.519,0.093-1.519,0.093c-24.788,1.671-202.047,20.21-127.946,206.828
	c-10.648-6.825-26.103-11.478-39.985,4.388c0,0-10.353,101.806,25.882,93.177C313.238,444.605,318.927,442.884,322.988,441.35z
	 M321.245,349.444c-0.045,0.202-0.1,0.379-0.144,0.584c-0.155-0.106-0.321-0.21-0.478-0.316
	C320.805,349.637,321.004,349.55,321.245,349.444z"/>
<circle fill="#3A3A3A" cx="385.479" cy="368.729" r="9.491"/>
<circle fill="#3A3A3A" cx="517.495" cy="368.729" r="9.491"/>
<path fill="#8E605B" d="M356.934,334.81c0,0,40.89-12.012,60.164,5.268C417.098,340.077,430.117,310.034,356.934,334.81z"/>
<path fill="#8E605B" d="M546.044,334.81c0,0-40.892-12.014-60.164,5.263C485.88,340.072,472.86,310.034,546.044,334.81z"/>
<path fill="#8E605B" d="M320.624,349.712c0,0,35.244-45.262,36.31-97.714S440,198.012,440,198.012l-104-14.466
	c0,0-52.004,32.146-35.002,159.073C300.998,342.619,312.247,343.878,320.624,349.712z"/>
<path fill="#8E605B" d="M582.712,349.712c0,0-35.243-45.262-36.31-97.714s-83.066-53.986-83.066-53.986l104-14.466
	c0,0,52.004,32.146,35.002,159.073C602.338,342.619,591.088,343.878,582.712,349.712z"/>
<path fill="#0E4E89" d="M608.678,275.466l-157.129-19.905v-0.015l-0.061,0.008l-0.06-0.008v0.015L294.3,275.466
	c0,0-7.664,14.459,11.904,34.389c19.568,19.931,32.777,11.958,59.194,5.979c26.396-5.975,61.681-7.471,86.089-7.474
	c24.41,0.003,59.694,1.499,86.09,7.474c26.418,5.979,39.627,13.951,59.195-5.979C616.342,289.925,608.678,275.466,608.678,275.466z"
	/>
<g>
	<path fill="#357FDC" d="M579.291,125.906c-39.854-19.38-85.467-33.278-96.349-36.108c0.001-0.02-16.876-4.937-31.541-4.881
		c-14.666-0.056-31.542,4.861-31.541,4.881c-10.883,2.83-56.494,16.727-96.349,36.108c-45.544,22.446-37.537,46.507-37.589,46.177
		c3.771,25.883,7.548,51.797,11.33,77.743c40.437-8.98,81.462-14.383,122.608-16.21c10.508-0.466,21.024-0.7,31.541-0.7
		c10.517,0,21.032,0.233,31.541,0.7c41.146,1.827,82.172,7.23,122.608,16.21c3.781-25.946,7.559-51.86,11.33-77.743
		C616.828,172.414,624.836,148.352,579.291,125.906z"/>
</g>
<g>
	<path fill="#0E4E89" d="M608.321,274.546c-104.211-13.165-209.664-13.165-313.874,0c0-15.032,0-30.063,0-45.095
		c104.21-13.165,209.663-13.165,313.874,0C608.321,244.482,608.321,259.514,608.321,274.546z"/>
</g>
<g>
	<path fill="#F2DE7D" d="M608.334,275.536c-104.253-13.17-209.748-13.17-314.001,0c0-9.667,0-19.333,0-29
		c104.253-13.17,209.748-13.17,314.001,0C608.334,256.203,608.334,265.87,608.334,275.536z"/>
</g>
<path fill="#F2DE7D" d="M466.791,175.038c0,0,11.63-3.266,11.63-29.866h76.067l-10.268,10.266h-51.8v5.196h44.334l-7.934,11.138
	h-43.866v5.879h29.866l-4.183,8.773h-43.848V175.038z"/>
<path fill="#F2DE7D" d="M436.188,175.038c0,0-11.631-3.266-11.631-29.866H348.49l10.267,10.266h51.8v5.196h-44.334l7.934,11.138
	h43.866v5.879h-29.866l4.182,8.773h43.849V175.038z"/>
<circle fill="#F2DE7D" cx="451.487" cy="181.205" r="21.272"/>
<polygon fill="#EA4949" points="466.09,176.951 455.972,176.951 455.972,166.637 447.003,166.637 447.003,176.951 437.057,176.951 
	437.057,185.724 447.003,185.724 447.003,195.773 455.972,195.773 455.972,185.724 466.09,185.724 "/>
<path fill="#EA4949" d="M449.607,480.971c-8.186,0-15.601-1.284-21.888-3.021c-19.451-5.374-32.21-16.031-32.744-16.482
	c-2.953-2.495-3.323-6.912-0.828-9.865c2.493-2.951,6.905-3.322,9.858-0.833c1.87,1.562,44.003,35.872,89.083-0.118
	c3.021-2.413,7.426-1.918,9.838,1.103c2.412,3.021,1.918,7.426-1.104,9.838C483.296,476.382,465.078,480.971,449.607,480.971z"/>
</svg>
