<?xml version="1.0" encoding="utf-8"?>
<!-- Generator: Adobe Illustrator 15.0.0, SVG Export Plug-In . SVG Version: 6.00 Build 0)  -->
<!DOCTYPE svg PUBLIC "-//W3C//DTD SVG 1.1//EN" "http://www.w3.org/Graphics/SVG/1.1/DTD/svg11.dtd">
<svg version="1.1" id="svg2" xmlns="http://www.w3.org/2000/svg" xmlns:xlink="http://www.w3.org/1999/xlink" x="0px" y="0px"
	 width="320px" height="320px" viewBox="115 -110 320 320" enable-background="new 115 -110 320 320" xml:space="preserve">
<rect x="115" y="-110" fill="#EC1D23" width="320" height="320"/>
<g>
	<path fill="#FFFFFF" d="M212.409,10.199v76.629H226.8V59.486c0-9.197-0.264-21.198-0.719-27.795
		c2.291,4.994,4.935,10.675,8.365,16.46l22.667,38.676h19.157V10.199h-14.391v23.833c0,9.419,0.24,23.048,0.81,30.758
		c-2.857-5.784-5.9-12.088-9.444-17.989l-21.497-36.602H212.409z"/>
	<path fill="#FFFFFF" d="M279.901,10.199l24.119,49.647v26.981h14.822V59.663l24.462-49.464h-15.741l-9.7,20.594
		c-2.273,4.885-4.518,9.691-6.128,14.121h-0.261c-1.468-3.982-3.165-8.145-5.21-12.682l-10.161-22.033H279.901z"/>
	<path fill="#FFFFFF" d="M367.518,9.746c-7.539,0-14.303,0.11-20.578,0.454v76.629h14.822V59.752
		c1.843,0.231,3.684,0.272,5.037,0.272c18.708,0,29.962-11.668,29.962-26.534C396.761,18.499,386.457,9.746,367.518,9.746z
		 M366.074,47.793c-1.353,0-2.821-0.132-4.319-0.361V21.89c1.729-0.106,3.398-0.089,5.238-0.089c10.046,0,14.564,4.866,14.564,12.59
		C381.558,42.671,375.225,47.677,366.074,47.793z"/>
	<path id="Thin" fill="#FFFFFF" d="M151.715,37.5v1.983h42.439V-1.29h-1.986V37.5H151.715"/>
	<path id="Bold" fill="#FFFFFF" d="M151.715,60.201h42.43v40.419h-7.415V67.581h-35.015V60.201"/>
</g>
</svg>
