<?xml version="1.0" encoding="utf-8"?>
<!-- Generator: Adobe Illustrator 15.0.0, SVG Export Plug-In . SVG Version: 6.00 Build 0)  -->
<!DOCTYPE svg PUBLIC "-//W3C//DTD SVG 1.1//EN" "http://www.w3.org/Graphics/SVG/1.1/DTD/svg11.dtd">
<svg version="1.1" id="svg2" xmlns="http://www.w3.org/2000/svg" xmlns:xlink="http://www.w3.org/1999/xlink" x="0px" y="0px"
	 width="320px" height="320px" viewBox="0 0 320 320" enable-background="new 0 0 320 320" xml:space="preserve">
<rect fill="#EC1D23" width="320" height="320"/>
<g>
	<path fill="#FFFFFF" d="M97.409,120.199v76.629H111.8v-27.342c0-9.197-0.264-21.198-0.719-27.795
		c2.291,4.994,4.935,10.675,8.364,16.46l22.668,38.676h19.156v-76.628h-14.391v23.833c0,9.419,0.24,23.048,0.811,30.758
		c-2.857-5.784-5.9-12.088-9.444-17.989l-21.497-36.602H97.409z"/>
	<path fill="#FFFFFF" d="M164.9,120.199l24.119,49.646v26.981h14.822v-27.164l24.463-49.464h-15.742l-9.699,20.594
		c-2.273,4.885-4.519,9.691-6.129,14.121h-0.26c-1.469-3.982-3.166-8.145-5.211-12.682l-10.16-22.033H164.9z"/>
	<path fill="#FFFFFF" d="M252.518,119.746c-7.539,0-14.303,0.11-20.578,0.454v76.629h14.822v-27.077
		c1.844,0.23,3.684,0.271,5.037,0.271c18.708,0,29.962-11.667,29.962-26.533C281.761,128.499,271.457,119.746,252.518,119.746z
		 M251.074,157.793c-1.354,0-2.821-0.132-4.319-0.361V131.89c1.729-0.106,3.397-0.089,5.238-0.089
		c10.046,0,14.563,4.866,14.563,12.59C266.559,152.671,260.225,157.677,251.074,157.793z"/>
	<path id="Thin" fill="#FFFFFF" d="M36.715,147.5v1.983h42.439V108.71h-1.986v38.79H36.715"/>
	<path id="Bold" fill="#FFFFFF" d="M36.715,170.201h42.43v40.419H71.73v-33.039H36.715V170.201"/>
</g>
</svg>
