<?xml version="1.0" encoding="utf-8"?>
<!-- Generator: Adobe Illustrator 15.0.0, SVG Export Plug-In . SVG Version: 6.00 Build 0)  -->
<!DOCTYPE svg PUBLIC "-//W3C//DTD SVG 1.1//EN" "http://www.w3.org/Graphics/SVG/1.1/DTD/svg11.dtd">
<svg version="1.1" id="Layer_1" xmlns="http://www.w3.org/2000/svg" xmlns:xlink="http://www.w3.org/1999/xlink" x="0px" y="0px"
	 width="500px" height="500px" viewBox="0 0 500 500" enable-background="new 0 0 500 500" xml:space="preserve">
<rect fill="#605F5C" width="500" height="500"/>
<g>
	
		<image overflow="visible" opacity="0.15" width="463" height="120" xlink:href="F2761995.png"  transform="matrix(1 0 0 1 18 191)">
	</image>
	<g>
		<g>
			<path fill="#50BEED" d="M227.886,247.287v-8.228c0-0.113,0.012-0.216,0.017-0.326c-0.078,0.046-0.162,0.089-0.239,0.139v-24.688
				h-13.645v47.44c0.731-0.262,1.555-0.411,2.476-0.411c1.206,0,2.238,0.264,3.123,0.692c0.688-1.791,2.056-3.289,4.113-3.912
				c0.106-1.423,0.66-2.871,1.865-4.192c0.686-0.75,1.329-1.388,1.928-1.981C227.205,250.315,227.339,248.711,227.886,247.287"/>
			<path fill="#50BEED" d="M255.116,253.741c-0.037-0.069-0.063-0.14-0.102-0.211c-4.117-7.546-13.611-10.335-21.162-6.216
				c-7.547,4.118-10.336,13.614-6.217,21.161c0.039,0.069,0.084,0.131,0.123,0.199l-10.467,5.712
				c-0.039-0.07-0.084-0.129-0.122-0.198c-7.271-13.319-2.346-30.071,10.972-37.34c13.32-7.269,30.069-2.348,37.341,10.971
				c0.037,0.07,0.064,0.143,0.099,0.211L255.116,253.741z"/>
			<path fill="#E48B40" d="M201.587,265.863v-0.021c0.001-0.128,0.008-0.264,0.008-0.381h-0.008v-31.713h-13.646
				c0,0-0.036,33.425,0.018,33.463c-0.592,3.078-2.939,8.502-12.174,8.502c-9.478,0-10.577-5.162-10.61-7.258l0.004,0.043v-34.75
				h-13.436v34.502c-0.012,1.298,0.196,8.466,5.793,14.206c0.135,0.139,0.287,0.258,0.427,0.389
				c4.995,3.893,11.253,6.239,18.062,6.296c1.618-0.01,3.145-0.115,4.572-0.314c0.03-0.005,0.056-0.009,0.088-0.014
				c0.604-0.086,1.185-0.192,1.755-0.312c0.427-0.091,0.854-0.191,1.273-0.3c0.165-0.042,0.329-0.082,0.489-0.126
				c0.477-0.132,0.945-0.276,1.41-0.43c0.19-0.064,0.379-0.127,0.563-0.193c0.29-0.101,0.572-0.214,0.857-0.323
				c1.679-0.68,3.187-1.498,4.521-2.432c0.035,0.052,0.079,0.097,0.119,0.148c1.094-0.664,2.138-1.399,3.134-2.189
				c0.094,0.084,0.208,0.168,0.309,0.253c0.542-1.475,1.523-2.77,2.962-3.524c0.004-0.002,0.673-0.42,0.96-0.571
				c0.047-0.05,0.118-0.12,0.184-0.185C194.802,275.482,195.597,267.157,201.587,265.863"/>
			<path fill="#E48B40" d="M39.27,281l5.499-9.268c6.723,4.379,13.236,6.62,19.655,6.62c5.701,0,9.165-2.139,9.165-5.908
				c0-3.766-3.563-5.09-12.626-7.228c-13.952-3.261-19.046-6.723-19.046-14.869c0-10.896,9.269-17.618,21.488-17.618
				c7.536,0,15.378,2.545,21.897,6.62l-5.603,8.45c-5.906-3.765-11.103-5.396-16.398-5.396c-4.886,0-8.654,1.833-8.654,6.008
				c0,3.666,2.75,4.686,10.896,6.72c15.177,3.666,21.287,7.129,21.287,16.09c0,10.391-8.656,16.906-22.101,16.906
				C55.97,288.129,45.583,285.381,39.27,281"/>
			<polygon fill="#E48B40" points="131.833,287.109 116.357,263.996 109.024,271.223 109.024,287.109 95.378,287.109 
				95.378,212.769 109.024,212.769 109.024,257.882 130.409,233.851 144.972,233.851 125.011,256.457 146.396,287.109 			"/>
			<path fill="#50BEED" d="M392.584,287.109h-13.646V257.17c0-8.553-3.158-12.322-8.453-12.322c-5.501,0-11.812,4.686-13.849,11.099
				v31.162h-13.646v-53.362h12.323v9.878c3.97-6.721,11.81-10.795,21.178-10.795c13.344,0,16.092,10.592,16.092,20.979V287.109z"/>
			<path fill="#50BEED" d="M300.575,288.974c-15.175,0-27.519-12.346-27.519-27.523c0-15.171,12.344-27.517,27.519-27.517
				c15.176,0,27.521,12.345,27.521,27.517C328.096,276.628,315.751,288.974,300.575,288.974 M300.575,245.858
				c-8.599,0-15.595,6.996-15.595,15.592c0,8.599,6.996,15.6,15.595,15.6s15.595-7.001,15.595-15.6
				C316.17,252.854,309.174,245.858,300.575,245.858"/>
			<path fill="#50BEED" d="M329.962,271.429v-16.602c0-0.219-0.018-0.423-0.021-0.638v-21.26h-12.646v25.867h5.623
				c0.438,5.404,0.886,10.868-0.508,16.087c-0.744,2.804-2,5.125-3.628,7.09c0.842,3.497,3.455,5.753,8.325,5.85
				c1.631,0,3.973-0.203,6.52-0.714v-11.607C330.979,275.401,329.962,274.279,329.962,271.429"/>
			<path fill="#50BEED" d="M455.78,271.429v-16.602c0-5.331-1.274-9.764-3.676-13.224c-0.463,3.054-2.107,5.751-4.103,8.302
				c0.198,0.641,0.32,1.341,0.332,2.117c0.134,7.521,1.872,15.441-0.104,22.861c-0.746,2.804-2.002,5.125-3.629,7.09
				c0.841,3.497,3.455,5.753,8.329,5.85c1.627,0,3.971-0.203,6.516-0.714v-11.607C456.801,275.401,455.78,274.279,455.78,271.429"/>
			<path fill="#50BEED" d="M427.591,288.974c-15.173,0-27.518-12.346-27.518-27.523c0-15.171,12.345-27.517,27.518-27.517
				c15.176,0,27.519,12.345,27.519,27.517C455.109,276.628,442.767,288.974,427.591,288.974 M427.591,245.858
				c-8.599,0-15.595,6.996-15.595,15.592c0,8.599,6.996,15.6,15.595,15.6c8.602,0,15.599-7.001,15.599-15.6
				C443.189,252.854,436.192,245.858,427.591,245.858"/>
			<rect x="443.112" y="232.93" fill="#50BEED" width="12.645" height="25.869"/>
			<polygon fill="#E48B40" points="272.755,246.91 254.22,239.059 250.795,258.893 			"/>
			<path fill="#E48B40" d="M201.564,271.429v-9.04c-1.114,1.01-2.637,1.653-4.575,1.653c-0.776,0-1.481-0.111-2.127-0.297
				c0.19,3.761,0.12,7.513-0.848,11.139c-0.749,2.804-2.001,5.125-3.629,7.09c0.841,3.497,3.456,5.753,8.327,5.85
				c1.628,0,3.972-0.203,6.518-0.714v-11.607C202.581,275.401,201.564,274.279,201.564,271.429"/>
			<path fill="#E48B40" d="M227.673,268.464c0.105,0.215,0.192,0.434,0.305,0.643c4.122,7.55,13.614,10.339,21.161,6.218
				c7.55-4.118,10.34-13.612,6.221-21.161c-0.115-0.213-0.251-0.403-0.373-0.606l10.467-5.711c0.12,0.208,0.257,0.394,0.37,0.605
				c7.271,13.321,2.349,30.069-10.972,37.34c-13.318,7.268-30.068,2.348-37.337-10.974c-0.117-0.21-0.201-0.429-0.309-0.64
				L227.673,268.464z"/>
			<polygon fill="#50BEED" points="232.085,263.728 228.662,283.564 210.125,275.711 			"/>
		</g>
	</g>
</g>
</svg>
