<?xml version="1.0" encoding="utf-8"?>
<!-- Generator: Adobe Illustrator 15.0.0, SVG Export Plug-In . SVG Version: 6.00 Build 0)  -->
<!DOCTYPE svg PUBLIC "-//W3C//DTD SVG 1.1//EN" "http://www.w3.org/Graphics/SVG/1.1/DTD/svg11.dtd">
<svg version="1.1" id="Layer_1" xmlns="http://www.w3.org/2000/svg" xmlns:xlink="http://www.w3.org/1999/xlink" x="0px" y="0px"
	 width="1008px" height="1008px" viewBox="0 0 1008 1008" enable-background="new 0 0 1008 1008" xml:space="preserve">
<rect x="-0.747" fill="#70808C" width="1008.184" height="1008"/>
<g>
	<path fill="#1F0F12" d="M814.162,529.322c-22.85-16.756,6.092-24.813,6.092-24.813c15.233,31.543,38.955,14.763,38.955,14.763
		c-38.737-0.909-25.244-24.985-25.244-24.985c47.219-41.126,13.709-50.265,13.709-50.265c-15.23,4.567-16.755-7.618-16.755-7.618
		c6.092-16.754-6.934-27.417-6.934-27.417c-38.926,4.571-3.731-27.419-3.731-27.419c19.804-30.465-45.697-80.734-45.697-80.734
		c-16.754-19.801-31.987-25.895-31.987-25.895c-27.42,0-30.466-4.57-30.466-4.57c-22.849-30.465-56.362-42.651-56.362-42.651
		c-94.442-112.721-144.707-57.884-144.707-57.884c-24.372-50.269-85.304-22.848-85.304-22.848
		c-27.74,3.014-55.935,17.017-79.902,32.827c-59.281-12.582-104.411,41.813-104.411,41.813
		c-16.23,13.108-24.281,32.607-28.144,51.059c-11.572-2.908-28.457-2.368-43.453,16.641c0,0-30.137,30.95-2.624,67.6
		c-14.048,24.06-11.083,50.538-11.083,50.538c-16.758,36.56,25.896,80.734,25.896,80.734c22.849,12.188,12.182,31.076,12.182,31.076
		c-30.463-2.434-28.939-34.124-28.939-34.124c-16.755,22.848-16.755,57.885-16.755,57.885
		c-7.617,31.988,41.126,47.222,41.126,47.222c35.036,22.85,3.048,16.756,3.048,16.756c-15.233,0-15.233,16.758-15.233,16.758
		c3.048,24.37,31.988,41.127,31.988,41.127c4.57,27.417,36.559,35.032,36.559,35.032c-12.187,18.283-44.175-1.521-44.175-1.521
		c42.649,42.648,66.262-4.65,66.262-4.65c-6.854,41.81,31.987,24.383,31.987,24.383c25.135,4.502,4.571,16.064,4.571,16.064
		c-35.087,41.142-20.564,51.966-20.564,51.966c-29.704,45.115,38.844,56.462,38.844,56.462c20.563,60.441,45.698,0,45.698,0
		c31.986-10.388,18.278-76.792,18.278-76.792c-13.996-12.003-24.764-26.812-32.984-41.588
		c-25.759-32.324-29.831-74.768-36.203-114.466c-7.59-47.316-24.594-95.608-0.084-141.002c1.355-2.51,3.191-4.095,5.216-4.935
		c9.668-24.98,20.643-42.69,20.643-42.69c22.849-9.152,34.271-59.394,34.271-59.394c50.268-98.251,111.962-82.255,111.962-82.255
		c22.849,7.615,30.464-3.046,30.464-3.046c28.942-15.232,51.791,25.896,51.791,25.896c16.758,30.461,35.034,44.172,35.034,44.172
		c15.23,18.28,27.423,38.082,27.423,38.082c13.71,28.94,27.419,39.606,27.419,39.606c16.753,15.233,12.184,28.941,12.184,28.941
		c-10.663,21.324,4.567,33.513,4.567,33.513c10.664,21.326,1.525,50.267,1.525,50.267c-1.523,56.361-18.276,146.233-18.276,146.233
		c-15.234,53.314-44.176,77.689-44.176,77.689l-1.526,22.848c-4.568,71.594,44.174,68.548,44.174,68.548
		c63.977,6.091,54.838-68.548,54.838-68.548c-30.465-15.231,0-22.848,0-22.848c28.941-18.282,10.668-35.041,10.668-35.041
		c22.849,12.191,38.076,3.051,38.076,3.051c35.039-7.617,22.849-74.644,22.849-74.644c27.42-3.044,35.038-28.94,35.038-28.94
		c39.604,0,18.278-30.464,18.278-30.464C853.769,564.358,814.162,529.322,814.162,529.322z M210.853,323.672l0.161-0.036
		c-18.887,5.73-31.335,15.71-39.56,26.822c0.049-5.172-0.636-12.756-3.153-23.73c0,0,4.205-55.579,41.635-47.219
		c0,0,0.651,0.622,1.826,1.666C208.353,304.241,210.853,323.672,210.853,323.672z M235.322,319.113
		c-2.196,0.19-4.318,0.435-6.395,0.714c-2.463-10.105-3.258-19.308-3.025-27.521c5.034,3.516,10.925,7.161,17.17,10.108
		C239.291,312.705,235.322,319.113,235.322,319.113z M270.358,273.416c0,0-15.235-1.525,15.231-25.897
		C285.589,247.519,282.547,265.797,270.358,273.416z M282.547,232.287c-25.901,7.616-33.517,46.254-33.517,46.254
		c-0.42,3.236-0.997,6.336-1.661,9.301c-5.581-1.432-12.343-4.126-20.074-9.109c3.573-19.946,12.595-31.214,12.595-31.214
		c21.221-37.615,57.691-47.737,81.599-50.111C298.003,215.878,282.547,232.287,282.547,232.287z"/>
	<g>
		<path fill="none" stroke="#EEB9BB" stroke-width="6.8547" stroke-miterlimit="10" stroke-dasharray="27.0235,27.0235" d="
			M615.857,763.681c9.562-10.293,20.566-19.803,27.422-33.514c2.282-4.566,4.57-11.423,6.854-15.994
			c22.847-66.261,27.418-137.093,29.703-207.925c2.285-13.708-11.424-25.134-9.14-38.843c0-9.141,2.283-18.279-2.284-27.419
			c-6.854-13.71-18.279-20.564-25.133-31.99c-6.855-15.993-15.997-29.7-25.137-43.412c-11.422-15.994-25.132-27.418-36.556-41.128
			c-6.855-9.14-11.426-20.563-18.281-29.705c-4.568-2.284-6.856-6.852-11.425-11.422c-6.854-4.571-13.709-9.141-22.85-6.856
			c-11.423,6.856-28.38,13.942-40.097,7.997c-18.764-9.519-31.689,0.923-31.689,0.923c-44.741,13.93-79.017,57.342-88.155,105.326
			c-11.425,15.993-22.848,29.704-31.989,45.698c-25.134,38.844-34.273,79.971-29.703,125.669c2.284,15.995,4.569,34.273,9.139,50.27
			c9.137,36.558,15.993,70.83,29.705,105.104c6.854,13.708,15.993,25.135,23.045,36.021c0,0,64.918,69.309,123.893,70.834
			c0,0,31.558,7.615,68.114-18.279C561.295,805.035,606.331,773.94,615.857,763.681z"/>
	</g>
	<g>
		<path fill="#EFB9BB" d="M467.904,487.354c0,3.523-1.365,6.647-4.092,9.375c-2.732,2.729-5.854,4.093-9.374,4.093h-2.64
			c-3.698,0-6.865-1.363-9.507-4.093c-2.639-2.728-3.959-5.851-3.959-9.375v-20.33c0-4.048,1.363-7.35,4.092-9.902
			c2.729-2.548,6.028-4.092,9.902-4.622c4.577-0.528,8.36-0.965,11.354-1.319c2.992-0.35,5.897-0.614,8.714-0.792
			c2.813-0.173,5.763-0.305,8.844-0.397c3.078-0.086,6.907-0.131,11.487-0.131c9.149,0,17.994,0.793,26.536,2.376
			c8.535,1.583,16.105,4.403,22.707,8.451c6.601,4.051,11.921,9.504,15.976,16.369c4.047,6.865,6.072,15.669,6.072,26.403
			c0,11.269-2.863,20.951-8.583,29.046c-5.722,8.098-12.807,15.313-21.254,21.652l-27.725,21.122
			c-2.641,1.939-4.402,4.225-5.28,6.865c-0.882,2.641-1.319,5.546-1.319,8.713v5.809c0,3.17-1.189,5.941-3.565,8.316
			c-2.377,2.377-5.15,3.564-8.318,3.564h-7.129c-3.345,0-6.205-1.229-8.581-3.696c-2.376-2.462-3.564-5.189-3.564-8.185v-8.448
			c0-4.048,0.174-7.567,0.526-10.563c0.354-2.99,0.967-5.63,1.85-7.92c0.88-2.287,2.066-4.312,3.564-6.074
			c1.494-1.756,3.301-3.431,5.413-5.016l29.045-22.443c5.454-4.226,10.208-8.888,14.259-13.994
			c4.047-5.104,6.072-11.264,6.072-18.482c0-5.981-1.63-10.694-4.885-14.128c-3.258-3.431-7.261-6.027-12.014-7.79
			c-4.753-1.756-9.86-2.857-15.313-3.297c-5.459-0.439-10.39-0.663-14.787-0.663c-1.938,0-4.092,0-6.47,0
			c-2.376,0-5.062,0.178-8.053,0.528V487.354z M503.813,644.986c0,5.636-1.895,10.39-5.678,14.26
			c-3.785,3.868-8.406,5.808-13.859,5.808c-5.637,0-10.345-1.98-14.129-5.941c-3.788-3.96-5.675-8.669-5.675-14.126
			c0-5.453,1.887-10.119,5.675-13.994c3.784-3.869,8.492-5.809,14.129-5.809c5.63,0,10.295,1.894,13.994,5.675
			C501.964,634.647,503.813,639.356,503.813,644.986z"/>
	</g>
</g>
</svg>
