<?xml version="1.0" encoding="utf-8"?>
<!-- Generator: Adobe Illustrator 15.0.0, SVG Export Plug-In . SVG Version: 6.00 Build 0)  -->
<!DOCTYPE svg PUBLIC "-//W3C//DTD SVG 1.1//EN" "http://www.w3.org/Graphics/SVG/1.1/DTD/svg11.dtd">
<svg version="1.1" id="Layer_1" xmlns="http://www.w3.org/2000/svg" xmlns:xlink="http://www.w3.org/1999/xlink" x="0px" y="0px"
	 width="500px" height="500px" viewBox="0 0 500 500" enable-background="new 0 0 500 500" xml:space="preserve">
<rect x="-12" y="-15" fill="#FFFFFF" stroke="#000000" stroke-miterlimit="10" width="529" height="528"/>
<g>
	<path d="M95.967,195.469h8.657v67.5c-2.549-0.995-5.068-2.168-7.559-3.516c-2.49-1.347-4.974-2.906-7.449-4.68
		c-2.476-1.772-4.665-3.537-6.569-5.295c-3.281-2.929-6.27-6.284-8.965-10.063s-5.054-7.925-7.075-12.437
		c-4.131-9.082-6.196-19.584-6.196-31.509h8.822c0,6.064,0.68,11.88,2.04,17.446c1.361,5.566,3.256,10.576,5.685,15.029
		c2.224,4.219,5.032,8.159,8.427,11.821c3.189,3.311,6.583,6.006,10.183,8.086V195.469z"/>
	<path d="M180.973,195.469c7.676,1.202,14.723,4.175,21.139,8.921c6.445,4.775,11.514,10.167,15.205,16.172v-25.093h8.656v67.5
		h-8.656v-15.644c0-4.395-0.895-8.774-2.682-13.14c-0.908-2.138-1.955-4.204-3.141-6.196c-1.188-1.992-2.514-3.896-3.979-5.713
		c-2.871-3.544-5.902-6.533-9.096-8.965c-3.223-2.549-6.094-4.204-8.613-4.966v54.624h-8.834V195.469z"/>
	<path d="M237.246,209.708l-3.156-8.921c6.973-5.273,14.473-7.91,22.5-7.91c4.072,0,8.145,0.688,12.217,2.065
		c3.867,1.318,7.295,3.267,10.283,5.845l-3.34,8.921c-5.039-4.16-9.961-6.752-14.766-7.778v61.04h-8.834v-61.04
		c-2.484,0.499-5.027,1.406-7.627,2.725C241.834,206.06,239.408,207.745,237.246,209.708z"/>
	<path d="M287.205,195.469h8.832v50.282c0,3.044,1.125,5.65,3.377,7.815c2.311,2.168,4.928,3.25,7.852,3.25
		c2.982,0,5.643-1.082,7.982-3.25c2.281-2.195,3.422-4.8,3.422-7.815v-50.282h8.568v50.317c0,3.487-0.893,6.76-2.68,9.822
		s-4.219,5.486-7.295,7.272c-3.135,1.787-6.461,2.682-9.977,2.682c-5.449,0-10.137-2.008-14.062-6.021
		c-4.014-3.926-6.02-8.51-6.02-13.754V195.469z"/>
	<path d="M344.891,234.361c4.102-0.352,7.676-1.948,10.723-4.79c2.93-2.725,4.395-6.049,4.395-9.976
		c0-2.695-0.717-5.156-2.152-7.383c-1.465-2.138-3.443-3.911-5.934-5.317c-2.432-1.318-5.156-1.978-8.174-1.978v58.051h-8.832v-67.5
		c3.457,0,6.4,0.117,8.832,0.352c4.395,0.264,8.555,1.465,12.48,3.604c3.779,2.051,6.812,4.878,9.098,8.481
		c2.227,3.575,3.34,7.471,3.34,11.689c0,4.278-1.143,8.203-3.428,11.777c-2.373,3.691-5.465,6.548-9.273,8.569
		c2.256,4.043,4.805,7.486,7.646,10.327c2.988,3.077,5.963,5.274,8.922,6.592v8.701c-5.039-1.699-9.361-4.116-12.965-7.252
		c-3.662-3.135-6.635-6.68-8.92-10.634C348.275,243.487,346.355,239.048,344.891,234.361z"/>
	<path d="M135.504,205.307c4.307-2.457,8.892-3.685,13.755-3.685c4.922,0,9.521,1.258,13.799,3.773
		c4.336,2.604,7.632,5.938,9.888,10.004v-13.426c-6.885-6.064-14.78-9.096-23.687-9.096c-6.562,0-12.612,1.62-18.149,4.859
		c-2.783,1.67-5.288,3.617-7.515,5.842c-2.227,2.226-4.131,4.715-5.713,7.468c-3.252,5.593-4.878,11.656-4.878,18.187
		c0,6.56,1.626,12.623,4.878,18.187c3.193,5.536,7.603,9.943,13.228,13.223c5.479,3.279,11.528,4.92,18.149,4.92
		c8.877,0,16.772-2.974,23.687-8.922V243.04c-2.256,4.066-5.552,7.401-9.888,10.004c-4.277,2.516-8.877,3.772-13.799,3.772
		s-9.536-1.229-13.843-3.685c-4.307-2.516-7.661-5.88-10.063-10.092c-1.905-3.26-3.063-6.759-3.494-10.493h25.469v-8.173h-25.235
		c0.559-3.15,1.667-6.116,3.348-8.888C127.814,211.333,131.168,207.939,135.504,205.307z"/>
	<path d="M401.963,205.307c4.307-2.457,8.891-3.685,13.754-3.685c4.922,0,9.521,1.258,13.799,3.773
		c4.336,2.604,7.633,5.938,9.889,10.004v-13.426c-6.885-6.064-14.781-9.096-23.688-9.096c-6.562,0-12.611,1.62-18.148,4.859
		c-2.783,1.67-5.289,3.617-7.516,5.842c-2.227,2.226-4.131,4.715-5.713,7.468c-3.252,5.593-4.877,11.656-4.877,18.187
		c0,6.56,1.625,12.623,4.877,18.187c3.193,5.536,7.604,9.943,13.229,13.223c5.479,3.279,11.527,4.92,18.148,4.92
		c8.877,0,16.773-2.974,23.688-8.922V243.04c-2.256,4.066-5.553,7.401-9.889,10.004c-4.277,2.516-8.877,3.772-13.799,3.772
		s-9.535-1.229-13.842-3.685c-4.307-2.516-7.662-5.88-10.064-10.092c-1.876-3.21-3.031-6.651-3.478-10.32h23.87v-8.173h-23.682
		c0.549-3.215,1.665-6.238,3.377-9.061C394.271,211.333,397.627,207.939,401.963,205.307z"/>
</g>
<rect x="61.229" y="278.596" fill="none" width="376.802" height="21.02"/>
<text transform="matrix(1 0 0 1 141.8418 295.9062)" font-family="'Futura-Medium'" font-size="21" letter-spacing="10">SINCE 1972</text>
</svg>
