<?xml version="1.0" encoding="utf-8"?>
<!-- Generator: Adobe Illustrator 15.0.0, SVG Export Plug-In . SVG Version: 6.00 Build 0)  -->
<!DOCTYPE svg PUBLIC "-//W3C//DTD SVG 1.1//EN" "http://www.w3.org/Graphics/SVG/1.1/DTD/svg11.dtd">
<svg version="1.1" id="Layer_1" xmlns="http://www.w3.org/2000/svg" xmlns:xlink="http://www.w3.org/1999/xlink" x="0px" y="0px"
	 width="500px" height="500px" viewBox="0 0 500 500" enable-background="new 0 0 500 500" xml:space="preserve">
<rect x="-12" y="-15" fill="#FFFFFF" stroke="#000000" stroke-miterlimit="10" width="529" height="528"/>
<g>
	<path d="M95.967,195.469h8.657v67.5c-2.549-0.994-5.068-2.168-7.559-3.516c-2.49-1.348-4.974-2.906-7.449-4.68
		c-2.476-1.772-4.665-3.537-6.569-5.295c-3.281-2.929-6.27-6.284-8.965-10.063c-2.695-3.779-5.054-7.925-7.075-12.437
		c-4.131-9.082-6.196-19.584-6.196-31.509h8.822c0,6.064,0.68,11.88,2.04,17.446c1.361,5.566,3.256,10.576,5.685,15.029
		c2.224,4.219,5.032,8.159,8.427,11.821c3.189,3.311,6.583,6.006,10.183,8.086L95.967,195.469L95.967,195.469z"/>
	<path d="M180.973,195.469c7.676,1.202,14.723,4.175,21.139,8.921c6.445,4.775,11.514,10.167,15.205,16.172v-25.093h8.656v67.5
		h-8.656v-15.644c0-4.395-0.895-8.774-2.682-13.14c-0.908-2.138-1.955-4.204-3.141-6.196c-1.188-1.992-2.514-3.896-3.979-5.713
		c-2.871-3.544-5.902-6.533-9.096-8.965c-3.223-2.549-6.094-4.204-8.613-4.966v54.624h-8.834L180.973,195.469L180.973,195.469z"/>
	<path d="M237.246,209.708l-3.156-8.921c6.973-5.273,14.473-7.91,22.5-7.91c4.072,0,8.145,0.688,12.217,2.065
		c3.867,1.318,7.295,3.267,10.283,5.845l-3.34,8.921c-5.039-4.16-9.961-6.752-14.766-7.778v61.041h-8.834V201.93
		c-2.484,0.499-5.027,1.406-7.627,2.725C241.834,206.06,239.408,207.745,237.246,209.708z"/>
	<path d="M287.205,195.469h8.832v50.282c0,3.044,1.125,5.649,3.377,7.815c2.311,2.168,4.928,3.25,7.852,3.25
		c2.982,0,5.644-1.082,7.982-3.25c2.281-2.195,3.422-4.8,3.422-7.815v-50.282h8.568v50.317c0,3.487-0.894,6.76-2.68,9.821
		c-1.787,3.062-4.22,5.486-7.295,7.272c-3.136,1.787-6.462,2.683-9.978,2.683c-5.449,0-10.138-2.008-14.062-6.021
		c-4.015-3.926-6.021-8.51-6.021-13.754L287.205,195.469L287.205,195.469z"/>
	<path d="M344.891,234.361c4.103-0.352,7.676-1.948,10.723-4.79c2.931-2.725,4.396-6.049,4.396-9.976
		c0-2.695-0.717-5.156-2.151-7.383c-1.465-2.138-3.443-3.911-5.935-5.317c-2.432-1.318-5.155-1.978-8.174-1.978v58.051h-8.832v-67.5
		c3.457,0,6.399,0.117,8.832,0.352c4.396,0.264,8.555,1.465,12.479,3.604c3.779,2.051,6.812,4.878,9.099,8.481
		c2.227,3.575,3.34,7.471,3.34,11.689c0,4.278-1.144,8.203-3.429,11.777c-2.372,3.691-5.465,6.548-9.272,8.569
		c2.257,4.043,4.806,7.486,7.646,10.327c2.988,3.077,5.964,5.274,8.923,6.592v8.701c-5.039-1.699-9.361-4.117-12.966-7.252
		c-3.662-3.136-6.635-6.681-8.92-10.635C348.275,243.487,346.355,239.048,344.891,234.361z"/>
	<path d="M135.504,205.307c4.307-2.457,8.892-3.685,13.755-3.685c4.922,0,9.521,1.258,13.799,3.773
		c4.336,2.604,7.632,5.938,9.888,10.004v-13.426c-6.885-6.064-14.78-9.096-23.687-9.096c-6.562,0-12.612,1.62-18.149,4.859
		c-2.783,1.67-5.288,3.617-7.515,5.842c-2.227,2.226-4.131,4.715-5.713,7.468c-3.252,5.593-4.878,11.656-4.878,18.187
		c0,6.56,1.626,12.623,4.878,18.187c3.193,5.536,7.603,9.943,13.228,13.223c5.479,3.279,11.528,4.92,18.149,4.92
		c8.877,0,16.772-2.974,23.687-8.922V243.04c-2.256,4.066-5.552,7.401-9.888,10.004c-4.277,2.517-8.877,3.772-13.799,3.772
		c-4.922,0-9.536-1.229-13.843-3.686c-4.307-2.516-7.661-5.88-10.063-10.092c-1.905-3.26-3.063-6.759-3.494-10.493h25.469v-8.173
		h-25.235c0.559-3.15,1.667-6.116,3.348-8.888C127.814,211.333,131.168,207.939,135.504,205.307z"/>
	<path d="M401.963,205.307c4.307-2.457,8.891-3.685,13.754-3.685c4.922,0,9.521,1.258,13.799,3.773
		c4.336,2.604,7.634,5.938,9.89,10.004v-13.426c-6.886-6.064-14.781-9.096-23.688-9.096c-6.562,0-12.61,1.62-18.147,4.859
		c-2.783,1.67-5.289,3.617-7.517,5.842c-2.227,2.226-4.131,4.715-5.713,7.468c-3.252,5.593-4.877,11.656-4.877,18.187
		c0,6.56,1.625,12.623,4.877,18.187c3.193,5.536,7.604,9.943,13.229,13.223c5.479,3.279,11.526,4.92,18.147,4.92
		c8.877,0,16.773-2.974,23.688-8.922V243.04c-2.256,4.066-5.554,7.401-9.89,10.004c-4.276,2.517-8.877,3.772-13.799,3.772
		s-9.535-1.229-13.842-3.686c-4.307-2.516-7.662-5.88-10.064-10.092c-1.875-3.21-3.031-6.651-3.478-10.32h23.87v-8.173h-23.682
		c0.549-3.215,1.664-6.238,3.377-9.061C394.271,211.333,397.627,207.939,401.963,205.307z"/>
</g>
<rect x="61.229" y="278.596" fill="none" width="376.802" height="21.021"/>
<g enable-background="new    ">
	<path d="M152.69,282.422l-1.938,1.148c-0.362-0.628-0.708-1.038-1.036-1.23c-0.342-0.218-0.783-0.328-1.323-0.328
		c-0.663,0-1.213,0.188-1.651,0.564c-0.438,0.37-0.656,0.835-0.656,1.396c0,0.773,0.574,1.396,1.723,1.868l1.579,0.646
		c1.285,0.52,2.225,1.154,2.82,1.903s0.892,1.668,0.892,2.755c0,1.457-0.485,2.661-1.456,3.612c-0.978,0.958-2.191,1.437-3.64,1.437
		c-1.374,0-2.509-0.408-3.404-1.226c-0.882-0.816-1.432-1.964-1.651-3.44l2.42-0.533c0.109,0.931,0.301,1.573,0.574,1.928
		c0.492,0.685,1.21,1.025,2.153,1.025c0.745,0,1.364-0.249,1.856-0.747c0.492-0.499,0.738-1.131,0.738-1.896
		c0-0.307-0.043-0.589-0.128-0.845s-0.219-0.492-0.399-0.707c-0.182-0.215-0.416-0.417-0.703-0.604s-0.629-0.367-1.025-0.538
		l-1.528-0.636c-2.167-0.915-3.25-2.254-3.25-4.017c0-1.188,0.455-2.182,1.364-2.981c0.909-0.806,2.041-1.209,3.394-1.209
		C150.24,279.767,151.665,280.652,152.69,282.422z"/>
	<path d="M168.367,280.074v15.832h-2.389v-15.832H168.367z"/>
	<path d="M182.167,295.906v-16.908l11.546,12.078v-11.002h2.389v16.796l-11.546-12.048v11.084H182.167z"/>
	<path d="M221.735,280.92v2.825c-1.381-1.155-2.81-1.733-4.286-1.733c-1.627,0-2.998,0.585-4.112,1.754
		c-1.121,1.162-1.682,2.584-1.682,4.266c0,1.661,0.561,3.062,1.682,4.204s2.495,1.712,4.122,1.712c0.841,0,1.555-0.136,2.143-0.41
		c0.328-0.136,0.668-0.32,1.021-0.553c0.352-0.232,0.723-0.514,1.112-0.842v2.887c-1.367,0.776-2.803,1.164-4.307,1.164
		c-2.263,0-4.194-0.789-5.793-2.369c-1.593-1.592-2.389-3.513-2.389-5.762c0-2.017,0.667-3.814,2-5.395
		c1.641-1.934,3.763-2.901,6.368-2.901C219.035,279.767,220.409,280.151,221.735,280.92z"/>
	<path d="M243.482,282.32h-6.347v3.804h6.163v2.245h-6.163v5.291h6.347v2.246h-8.736v-15.832h8.736V282.32z"/>
	<path d="M276.887,282.32h-2.738l1.312-2.246h3.814v15.832h-2.389V282.32z"/>
	<path d="M297.168,296.449l-1.754-1.302l3.783-5.157c-0.205,0.027-0.379,0.048-0.522,0.061c-0.144,0.015-0.26,0.021-0.349,0.021
		c-1.278,0-2.386-0.489-3.322-1.467c-0.93-0.971-1.395-2.14-1.395-3.507c0-1.456,0.516-2.7,1.549-3.732
		c1.039-1.039,2.283-1.559,3.732-1.559c1.441,0,2.696,0.513,3.763,1.538c1.066,1.019,1.6,2.222,1.6,3.609
		c0,1.23-0.52,2.561-1.559,3.988L297.168,296.449z M295.938,284.924c0,0.855,0.29,1.573,0.871,2.154
		c0.588,0.588,1.295,0.881,2.123,0.881c0.826,0,1.531-0.29,2.111-0.871c0.588-0.588,0.883-1.295,0.883-2.123
		c0-0.826-0.295-1.534-0.883-2.122c-0.58-0.581-1.288-0.872-2.122-0.872c-0.82,0-1.521,0.291-2.103,0.872
		C296.23,283.431,295.938,284.125,295.938,284.924z"/>
	<path d="M323.703,282.32h-7.813v-2.246h11.802l-9.986,16.375l-1.897-1.198L323.703,282.32z"/>
	<path d="M343.02,293.66h5.896v2.246h-10.634l5.496-6.654c0.54-0.663,0.993-1.237,1.358-1.723s0.645-0.893,0.836-1.221
		c0.39-0.643,0.584-1.221,0.584-1.732c0-0.738-0.26-1.357-0.779-1.856s-1.162-0.749-1.928-0.749c-1.6,0-2.516,0.947-2.748,2.841
		h-2.379c0.383-3.336,2.068-5.004,5.056-5.004c1.442,0,2.652,0.458,3.63,1.374c0.984,0.916,1.477,2.051,1.477,3.404
		c0,0.861-0.229,1.706-0.688,2.533c-0.232,0.43-0.572,0.941-1.02,1.532c-0.448,0.592-1.014,1.291-1.697,2.097L343.02,293.66z"/>
</g>
</svg>
